<svg xmlns="http://www.w3.org/2000/svg" xmlns:xlink="http://www.w3.org/1999/xlink" width="80.452" height="80.451" viewBox="0 0 80.452 80.451">
  <defs>
    <clipPath id="clip-path">
      <rect id="Rectangle_712" data-name="Rectangle 712" width="69.324" height="58.999" fill="none"/>
    </clipPath>
    <clipPath id="clip-path-2">
      <rect id="Rectangle_711" data-name="Rectangle 711" width="68.578" height="58.705" fill="none"/>
    </clipPath>
  </defs>
  <g id="Group_3462" data-name="Group 3462" transform="translate(-264.472 -12111.819)">
    <path id="Path_1754" data-name="Path 1754" d="M648.76,9796.307a40.226,40.226,0,1,1-40.226-40.226,40.226,40.226,0,0,1,40.226,40.226" transform="translate(-303.836 2355.738)" fill="#ff438b"/>
    <g id="Group_1702" data-name="Group 1702" transform="translate(267.525 12115.535)">
      <g id="Group_1533" data-name="Group 1533" transform="translate(0 0)" opacity="0.5" style="isolation: isolate">
        <g id="Group_1532" data-name="Group 1532">
          <g id="Group_1531" data-name="Group 1531" clip-path="url(#clip-path)">
            <g id="Group_1530" data-name="Group 1530" transform="translate(0.06 0.022)">
              <g id="Group_1529" data-name="Group 1529" clip-path="url(#clip-path-2)">
                <path id="Path_1755" data-name="Path 1755" d="M612.115,9764.063a36.92,36.92,0,0,0-37.643,37.511,36.529,36.529,0,0,0,5.241,18.279,36.846,36.846,0,0,1,30.464-58.7,36.979,36.979,0,0,1,30.931,18.008,36.912,36.912,0,0,0-28.993-15.1" transform="translate(-572.53 -9761.149)" fill="#fff"/>
              </g>
            </g>
          </g>
        </g>
      </g>
    </g>
    <g id="Group_1543" data-name="Group 1543" transform="translate(273.425 12131.76)" opacity="0.42" style="isolation: isolate">
      <g id="Group_1542" data-name="Group 1542">
        <g id="Group_1541" data-name="Group 1541" clip-path="url(#clip-path)">
          <g id="Group_1540" data-name="Group 1540" transform="translate(0.727 0.216)">
            <g id="Group_1539" data-name="Group 1539" clip-path="url(#clip-path-2)">
              <g id="Group_1538" data-name="Group 1538" transform="translate(-0.727 -0.216)" opacity="0.5" style="isolation: isolate">
                <g id="Group_1537" data-name="Group 1537">
                  <g id="Group_1536" data-name="Group 1536" clip-path="url(#clip-path)">
                    <g id="Group_1535" data-name="Group 1535" transform="translate(0.727 0.216)">
                      <g id="Group_1534" data-name="Group 1534" clip-path="url(#clip-path-2)">
                        <path id="Path_1756" data-name="Path 1756" d="M610.428,9839.2a36.918,36.918,0,0,0,37.642-37.51,36.527,36.527,0,0,0-5.24-18.279,36.846,36.846,0,0,1-30.464,58.7,36.98,36.98,0,0,1-30.931-18.008,36.908,36.908,0,0,0,28.993,15.1" transform="translate(-581.435 -9783.412)" fill="#102770"/>
                      </g>
                    </g>
                  </g>
                </g>
              </g>
            </g>
          </g>
        </g>
      </g>
    </g>
    <path id="Path_1757" data-name="Path 1757" d="M616.49,9793.952c-.461-.065-.482-.088-.263-.109a7.25,7.25,0,0,1,2.061.175,8.874,8.874,0,0,1,4.517,3.026l.395.461.569-.088a12.221,12.221,0,0,1,7.017.877,9.073,9.073,0,0,1,1.578.921,2.111,2.111,0,0,1,.153.613,3.72,3.72,0,0,1-.241,2.391.642.642,0,0,0-.066.7.662.662,0,0,0,.592.373c.527,0,1.075-.833,1.339-2l.109-.46.2.219a8.636,8.636,0,0,1,2.126,4.21l.044.328-.2-.285a3.692,3.692,0,0,0-1.052-1.117c-.746-.5-1.535-.658-3.618-.768a14.82,14.82,0,0,1-4.012-.614c-1.8-.592-2.719-1.359-4.846-4.187a20.182,20.182,0,0,0-2.127-2.5,7.44,7.44,0,0,0-4.275-2.171" transform="translate(-316.381 2345.831)" fill="#f2f2f2"/>
    <path id="Path_1758" data-name="Path 1758" d="M637.727,9796.972a4.765,4.765,0,0,1,.395-1.888,1.488,1.488,0,0,1,.2-.372.841.841,0,0,1-.088.329,4.2,4.2,0,0,0-.089,1.931c.153.986.22,1.117,1.272,2.192.482.5,1.052,1.14,1.272,1.4l.372.482-.372-.351a13.221,13.221,0,0,0-1.754-1.381c-.153-.088-.176-.088-.285.021-.088.087-.11.22-.11.854a4.694,4.694,0,0,1-.482,2.236c-.175.33-.2.265-.044-.108a3.22,3.22,0,0,0,.13-1.36c0-1.907-.218-2.368-1.556-3.136-.329-.2-.9-.481-1.228-.635a4.677,4.677,0,0,1-.592-.286,9.877,9.877,0,0,1,1.841.548c.768.308.9.33.987.308.066-.066.11-.241.132-.788" transform="translate(-321.282 2345.597)" fill="#f2f2f2"/>
    <path id="Path_1759" data-name="Path 1759" d="M617.353,9800.363a7.749,7.749,0,0,1-1.382-4.715l.044-.459.218.043a5.166,5.166,0,0,1,1.4.525c.876.527,1.271,1.251,1.644,3.049.11.526.263,1.14.33,1.337a7.83,7.83,0,0,0,.876,1.579c.24.351.088.526-.461.482a4.491,4.491,0,0,1-2.674-1.842" transform="translate(-316.344 2345.471)" fill="#f2f2f2"/>
    <path id="Path_1760" data-name="Path 1760" d="M635.173,9812.819c-4.342-1.754-5.876-3.268-5.876-5.833,0-.373.021-.68.021-.68a3.971,3.971,0,0,1,.372.286c.878.7,1.865,1.008,4.606,1.4a19.054,19.054,0,0,1,3.353.7,6.4,6.4,0,0,1,4.693,5.108,8.892,8.892,0,0,1-.132,2.742,5.485,5.485,0,0,1-.7,1.577c-.021,0-.066-.109-.066-.284a3.577,3.577,0,0,0-1.271-2.479c-.922-.789-2.1-1.381-5-2.543" transform="translate(-319.847 2342.554)" fill="#f2f2f2"/>
    <path id="Path_1761" data-name="Path 1761" d="M629.784,9815.675a5.256,5.256,0,0,0-.219-.921l-.11-.328.2.24a3.844,3.844,0,0,1,.7,1.271,2.741,2.741,0,0,1,.153,1.228,2.81,2.81,0,0,1-.153,1.186,3.957,3.957,0,0,1-.921,1.469,5.284,5.284,0,0,1-3.289,1.447c-.263.022-1.008.088-1.666.132a12.876,12.876,0,0,0-3.727.613c-.132.044-.263.088-.285.066a4.993,4.993,0,0,1,1.184-.7,11.914,11.914,0,0,1,3.289-.877,14.86,14.86,0,0,0,1.951-.395,3.79,3.79,0,0,0,2.895-4.429" transform="translate(-317.528 2340.421)" fill="#f2f2f2"/>
    <path id="Path_1762" data-name="Path 1762" d="M635.61,9819.563a5.122,5.122,0,0,1-.394-3.551c.043-.109.087-.22.131-.22a.924.924,0,0,1,.307.153c.263.176.811.482,2.215,1.25a11.168,11.168,0,0,1,3.486,2.565,5.411,5.411,0,0,1,1.161,2.652,8.641,8.641,0,0,1-.109,2.609,6.462,6.462,0,0,1-3.179,4.21,3.029,3.029,0,0,1-.461.22,1.747,1.747,0,0,1,.2-.482,4.353,4.353,0,0,0,.2-3.4,13.927,13.927,0,0,0-1.754-3.157,20.894,20.894,0,0,1-1.8-2.851" transform="translate(-321.358 2340.063)" fill="#f2f2f2"/>
    <path id="Path_1763" data-name="Path 1763" d="M613.494,9829.039a11.917,11.917,0,0,1,5.46-2.631,8.117,8.117,0,0,1,2.828.109,4.887,4.887,0,0,1,2.763,1.775,6.558,6.558,0,0,1,1.01,2.982c.088.592.2,1.206.218,1.338a2.945,2.945,0,0,0,.965,1.731,3.332,3.332,0,0,0,3.026.088,1.453,1.453,0,0,1,.372-.109,3.365,3.365,0,0,1-.943.637,3.114,3.114,0,0,1-1.579.372,3.165,3.165,0,0,1-2.675-1.645,12.357,12.357,0,0,1-.723-1.447c-.768-1.776-1.162-2.3-2.061-2.894a2.7,2.7,0,0,0-2.565-.242,1.651,1.651,0,0,0-.571,2.565,2.241,2.241,0,0,0,1.251.658,1.337,1.337,0,0,0,1.512-1.337,1.05,1.05,0,0,0-.723-1.075c-.7-.307-1.469.044-1.448.724a.6.6,0,0,0,.417.592c.175.088.175.088.044.066a.814.814,0,0,1-.285-1.426,1.578,1.578,0,0,1,2.346.5,2.3,2.3,0,0,1,.044,1.49,2.048,2.048,0,0,1-2.5,1.185,3.574,3.574,0,0,1-1.908-1.293,5.823,5.823,0,0,0-4.32-2.215l-.416-.066Z" transform="translate(-315.578 2337.296)" fill="#f2f2f2"/>
    <path id="Path_1764" data-name="Path 1764" d="M597.753,9781.83c5.109,6.205,12.981,15.854,13.376,16.379.328.438.2.855-.352,1.162a3.346,3.346,0,0,1-1.249.351,1.581,1.581,0,0,1-1.052-.46c-.2-.2-1.053-1.447-2.982-4.451-1.469-2.3-2.718-4.21-2.74-4.23-.088-.045-.088-.045,2.587,4.735a38.229,38.229,0,0,1,2.237,4.21c0,.285-.088.438-.438.833a4.879,4.879,0,0,0-1.053,2.96c-.219,1.732-.811,2.96-2.5,5.042a8.963,8.963,0,0,0-1.381,1.952,3.7,3.7,0,0,0-.439,1.754,5.509,5.509,0,0,0,.285,2.149,7.364,7.364,0,0,0,1.053,2.062,5.1,5.1,0,0,1,.811,1.6c0,.176.044.176.833,0a8.668,8.668,0,0,0,4.3-2.105,1.982,1.982,0,0,0,.658-1.666,1.791,1.791,0,0,0-.153-.921,3.944,3.944,0,0,0-1.535-1.49,3.468,3.468,0,0,1-1.819-2.347c-.11-.746.022-1.25.679-2.631a7.869,7.869,0,0,0,.965-3.464c.066-.922.175-1.294.439-1.579a1.633,1.633,0,0,1,1.205-.506,4.008,4.008,0,0,0,2.412-.986,2.06,2.06,0,0,0,.746-1.6l.022-.5-.285-.308c-1.03-1.185-15.3-16.884-15.371-16.884-.021,0,.33.418.746.943m6.732,31.18a.907.907,0,0,0-.285-1.207c-.373-.24-.943-.131-.943.2a.225.225,0,0,0,.175.22c.2.109.22.219.066.461s-.153.459.044.613a.628.628,0,0,0,.942-.285" transform="translate(-311.37 2349.227)" fill="#f2f2f2" fill-rule="evenodd"/>
    <path id="Path_1765" data-name="Path 1765" d="M618.752,9808.787a1.944,1.944,0,0,0-1.184,1.293,1.887,1.887,0,0,0,.11,1.184c.241.308.46.4,1.075.4,1.205,0,2.236-.526,2.345-1.163a1.693,1.693,0,0,0-.987-1.578,2.225,2.225,0,0,0-1.358-.131m1.4,1.1a.493.493,0,0,0-.219-.745c-.592-.373-1.49-.066-1.49.5,0,.285.46.592.9.592a1.212,1.212,0,0,0,.811-.351" transform="translate(-316.756 2341.916)" fill="#f2f2f2" fill-rule="evenodd"/>
  </g>
</svg>
