<svg xmlns="http://www.w3.org/2000/svg" xmlns:xlink="http://www.w3.org/1999/xlink" width="80.452" height="80.451" viewBox="0 0 80.452 80.451">
  <defs>
    <clipPath id="clip-path">
      <rect id="Rectangle_749" data-name="Rectangle 749" width="69.324" height="58.999" fill="none"/>
    </clipPath>
    <clipPath id="clip-path-2">
      <rect id="Rectangle_748" data-name="Rectangle 748" width="68.578" height="58.705" fill="none"/>
    </clipPath>
  </defs>
  <g id="icon2" transform="translate(-374.762 -12111.819)">
    <g id="Group_3460" data-name="Group 3460">
      <path id="Path_1785" data-name="Path 1785" d="M798.309,9796.307a40.226,40.226,0,1,1-40.226-40.226,40.226,40.226,0,0,1,40.226,40.226" transform="translate(-343.095 2355.738)" fill="#00b3d3"/>
      <g id="Group_1714" data-name="Group 1714" transform="translate(377.411 12115.535)">
        <g id="Group_1624" data-name="Group 1624" transform="translate(0 0)" opacity="0.5" style="isolation: isolate">
          <g id="Group_1623" data-name="Group 1623">
            <g id="Group_1622" data-name="Group 1622" clip-path="url(#clip-path)">
              <g id="Group_1621" data-name="Group 1621" transform="translate(0.465 0.022)">
                <g id="Group_1620" data-name="Group 1620" clip-path="url(#clip-path-2)">
                  <path id="Path_1786" data-name="Path 1786" d="M761.665,9764.063a36.92,36.92,0,0,0-37.643,37.511,36.529,36.529,0,0,0,5.24,18.279,36.846,36.846,0,0,1,30.464-58.7,36.98,36.98,0,0,1,30.932,18.008,36.912,36.912,0,0,0-28.993-15.1" transform="translate(-722.079 -9761.149)" fill="#fff"/>
                </g>
              </g>
            </g>
          </g>
        </g>
      </g>
      <g id="Group_1715" data-name="Group 1715" transform="translate(384.048 12131.76)" opacity="0.42" style="isolation: isolate">
        <g id="Group_1633" data-name="Group 1633" transform="translate(0 0)">
          <g id="Group_1632" data-name="Group 1632" clip-path="url(#clip-path)">
            <g id="Group_1631" data-name="Group 1631" transform="translate(0.395 0.216)">
              <g id="Group_1630" data-name="Group 1630" clip-path="url(#clip-path-2)">
                <g id="Group_1629" data-name="Group 1629" transform="translate(-0.395 -0.216)" opacity="0.5" style="isolation: isolate">
                  <g id="Group_1628" data-name="Group 1628">
                    <g id="Group_1627" data-name="Group 1627" clip-path="url(#clip-path)">
                      <g id="Group_1626" data-name="Group 1626" transform="translate(0.395 0.216)">
                        <g id="Group_1625" data-name="Group 1625" clip-path="url(#clip-path-2)">
                          <path id="Path_1787" data-name="Path 1787" d="M759.977,9839.2a36.917,36.917,0,0,0,37.642-37.51,36.526,36.526,0,0,0-5.24-18.279,36.846,36.846,0,0,1-30.464,58.7,36.981,36.981,0,0,1-30.931-18.008,36.91,36.91,0,0,0,28.993,15.1" transform="translate(-730.984 -9783.412)" fill="#102770"/>
                        </g>
                      </g>
                    </g>
                  </g>
                </g>
              </g>
            </g>
          </g>
        </g>
      </g>
      <path id="Path_1950" data-name="Path 1950" d="M767.52,9819.537l-.019-.008-.255-.131a.085.085,0,0,0-.1-.035c-.632-.328-1.266-.65-1.892-.992a.559.559,0,0,0-.582-.013c-.6.295-1.207.567-1.809.85a.17.17,0,0,0-.127.042.285.285,0,0,0-.271.134,18.91,18.91,0,0,0-2.174.964l-.234.07-.134.088a2.459,2.459,0,0,0-.956.441c1.085.508,2.068.971,3.049,1.432,1.851.924,3.7,1.844,5.549,2.777a.6.6,0,0,0,.587-.022q2.85-1.393,5.7-2.789L777,9820.9a4.587,4.587,0,0,0-1.151-.549c-1.3-.653-2.6-1.3-3.888-1.968a1.114,1.114,0,0,0-1.091-.045c-1.035.468-2.1.873-3.151,1.3Zm-13.82-1.248c.06.037.121.074.182.113a1.58,1.58,0,0,0,2.078.15,7.717,7.717,0,0,1,1.007-.479c1.356-.585,2.71-1.171,4.2-1.817l-2.631-1.408c-.419-.395-1.052-.469-1.416-.947l3.513-1.566a.288.288,0,0,0,.275-.123h0c1.3-.475,2.543-1.1,3.8-1.678,2.049-.812,4.054-1.731,6.046-2.673q3.216-1.286,6.336-2.79c2.652-1.078,5.258-2.26,7.863-3.442a.309.309,0,0,0,.125-.3q-.017-2.782-.031-5.562c.02-.267.129-.549-.221-.715-.757-.361-1.508-.736-2.261-1.105a13.984,13.984,0,0,1-1.273-.683,1.318,1.318,0,0,0-1.692.081c-1.771.76-3.542,1.518-5.422,2.322l3.325,1.766c.271.3.78.289.959.715a31.674,31.674,0,0,0-3.825,1.678c-2.124.828-4.185,1.8-6.266,2.729l-6.051,2.654-3.8,1.7c-.43.18-.864.346-1.287.539-2.177,1-4.415,1.86-6.55,2.947a1.3,1.3,0,0,0-.071.688c0,1.68.027,3.359-.018,5.039-.017.6.173.921.751,1.021a15.235,15.235,0,0,0,2.336,1.157Zm26.125-9.311a19.471,19.471,0,0,0,.066,2.532q-.006,1.172-.01,2.345c-.641-.182-1.133-.7-1.813-.793a21.088,21.088,0,0,0-3.094-1.678,1.875,1.875,0,0,0-2.3-.206c-1.28.666-2.642,1.173-3.961,1.763-.188.084-.442.1-.563.373l4.851,2.383q1.688.844,3.375,1.691a29.648,29.648,0,0,0,3.656,1.781c1.147-.566,2.3-1.129,3.44-1.7,1.739-.873,1.738-.877,1.611-2.867q0-1.547,0-3.094v-5.781c-1.558.684-3.021,1.383-4.531,1.962-.69.266-.909.62-.731,1.29m-3.863-18.285a4.557,4.557,0,0,0-1.533-.7,12.707,12.707,0,0,0-2.819-1.543c-1.177-.623-2.355-1.243-3.528-1.871a.425.425,0,0,0-.451-.014c-1.207.631-2.42,1.252-3.629,1.877l-2.818,1.391-2.122,1.047a2.256,2.256,0,0,0,.828.4,5.592,5.592,0,0,0,1.409.705c1.137.586,2.277,1.168,3.412,1.76a.658.658,0,0,0,.659-.057c.666-.338,1.347-.646,2-1a.876.876,0,0,1,.914,0,7.367,7.367,0,0,0,6.847-.857,14.476,14.476,0,0,0,1.664-.623c-.306-.189-.569-.354-.834-.52m-13.781,10.279,5.535-2.4-3.709-1.813a28.493,28.493,0,0,0-2.813-1.4q-1.606-.816-3.213-1.632c-.64-.328-1.281-.653-1.917-.987a.531.531,0,0,0-.527-.05c-1.611.855-3.305,1.555-4.863,2.514-.117,2.155-.06,4.311-.027,6.467v2.953c-.011.3,0,.606-.036.906-.058.529.153.514.549.333,1.269-.577,2.552-1.13,3.828-1.691,1.063-.468,1.063-.468.889-1.655-.01-1.127-.018-2.25-.027-3.375l.018-1.1a.421.421,0,0,0,.125-.036q1.547.825,3.1,1.649c.828.448,1.656.894,2.483,1.344.213.117.415.221.611-.02" transform="translate(-351.69 2347.751)" fill="#fff"/>
      <path id="Path_1951" data-name="Path 1951" d="M783.423,9809.809q-3.121,1.5-6.336,2.791a7.59,7.59,0,0,0-.3-1c-.434-.969-.891-1.925-1.294-2.907-.2-.484-.184-1.139-.794-1.406,2.08-.928,4.141-1.9,6.265-2.728a.784.784,0,0,1,.684.387c.417.546.316,1.279.695,1.808a6.46,6.46,0,0,1,1.075,3.053" transform="translate(-358.019 2343.011)" fill="#fff"/>
      <path id="Path_1952" data-name="Path 1952" d="M750.719,9817.648c2.136-1.088,4.374-1.951,6.55-2.948.423-.193.858-.359,1.287-.539a3.02,3.02,0,0,1,.633,1.118,14.421,14.421,0,0,0,.611,1.314c.435.935.77,1.914,1.146,2.877h0c-.092.04-.184.08-.276.123l-3.513,1.566c-.342.084-.538-.277-.852-.282l-2.251-1.265-3.335-1.965" transform="translate(-351.722 2340.491)" fill="#fff"/>
      <path id="Path_1953" data-name="Path 1953" d="M772.55,9808.26c.61.269.6.922.794,1.406.4.983.859,1.938,1.294,2.907a7.382,7.382,0,0,1,.3,1c-1.993.941-4,1.86-6.046,2.673a2.073,2.073,0,0,0-.459-1.627.966.966,0,0,1-.228-.42,6.223,6.223,0,0,0-1.7-3.281l6.052-2.655" transform="translate(-355.864 2342.041)" fill="#fff"/>
      <path id="Path_1954" data-name="Path 1954" d="M785.653,9809.211a6.464,6.464,0,0,0-1.074-3.053c-.378-.527-.278-1.262-.695-1.807a.782.782,0,0,0-.684-.387,31.442,31.442,0,0,1,3.825-1.678l1.149.432a9.922,9.922,0,0,0,2.388,1.267c.12.262.389.313.607.438l2.347,1.345c-2.6,1.185-5.211,2.364-7.863,3.442" transform="translate(-360.248 2343.608)" fill="#fff"/>
      <path id="Path_1955" data-name="Path 1955" d="M778.83,9832.4a4.586,4.586,0,0,1,1.151.549l-3.147,1.44c-.143-.334-.44-.291-.72-.291H765.872c-.333,0-.661,0-.87.327-.982-.461-1.965-.924-3.049-1.432a2.44,2.44,0,0,1,.957-.441l.134-.088.233-.071a7.526,7.526,0,0,0,2.159.159q6.111,0,12.222,0a3.861,3.861,0,0,0,1.173-.156" transform="translate(-354.671 2335.706)" fill="#fff"/>
      <path id="Path_1956" data-name="Path 1956" d="M765.146,9811.86a6.22,6.22,0,0,1,1.7,3.28.963.963,0,0,0,.228.421,2.073,2.073,0,0,1,.459,1.627c-1.257.581-2.5,1.2-3.8,1.679-.376-.963-.711-1.943-1.146-2.877-.2-.436-.448-.854-.611-1.314a3.008,3.008,0,0,0-.633-1.117q1.9-.851,3.8-1.7" transform="translate(-354.512 2341.095)" fill="#fff"/>
      <path id="Path_1957" data-name="Path 1957" d="M766.087,9835.03c.209-.323.537-.327.87-.327H777.2c.279,0,.577-.043.72.291q-2.849,1.4-5.7,2.79a.6.6,0,0,1-.588.022c-1.844-.934-3.7-1.854-5.547-2.777" transform="translate(-355.756 2335.099)" fill="#fff"/>
      <path id="Path_1958" data-name="Path 1958" d="M750.7,9797.382c1.558-.959,3.251-1.658,4.864-2.513a.527.527,0,0,1,.527.049c.636.334,1.277.659,1.917.988a1.79,1.79,0,0,1-.271.854q-.864,1.707-1.718,3.42a.4.4,0,0,1-.124.036,3.732,3.732,0,0,0-.392-.277q-2.4-1.283-4.8-2.557" transform="translate(-351.717 2345.569)" fill="#fff"/>
      <path id="Path_1959" data-name="Path 1959" d="M779.3,9831.643a3.861,3.861,0,0,1-1.173.156c-4.074-.009-8.148,0-12.222-.006a7.525,7.525,0,0,1-2.159-.158,19.014,19.014,0,0,1,2.173-.963.3.3,0,0,0,.273-.134.16.16,0,0,1,.125-.043c.119.2.313.175.5.173a29.32,29.32,0,0,0,3.786-.017.085.085,0,0,1,.1.035l.256.131.018.007.2.11c1.052-.432,2.115-.838,3.151-1.3a1.113,1.113,0,0,1,1.092.044c1.287.672,2.59,1.314,3.887,1.969" transform="translate(-355.142 2336.463)" fill="#fff"/>
    </g>
    <path id="Path_1960" data-name="Path 1960" d="M778.943,9793.672a4.587,4.587,0,0,1-6.846.858.874.874,0,0,0-.914,0c-.656.354-1.338.661-2,1a.657.657,0,0,1-.659.057c-1.134-.592-2.274-1.174-3.412-1.76a1.473,1.473,0,0,1,.969-.309c4.288.1,8.58-.171,12.865.154" transform="translate(-355.499 2345.914)" fill="#fff"/>
    <path id="Path_1961" data-name="Path 1961" d="M795.514,9824.543c.128,1.991.129,1.994-1.611,2.869-1.143.572-2.292,1.135-3.439,1.7a34.134,34.134,0,0,1-.14-4.708c.764,0,1.53-.022,2.292,0a11.665,11.665,0,0,1,2.9.133" transform="translate(-362.115 2337.807)" fill="#fff"/>
    <path id="Path_1962" data-name="Path 1962" d="M764.953,9790.521l2.817-1.391c.558.484,1.285.277,1.847.232,1.7-.139,3.4-.014,5.092-.076a1.431,1.431,0,0,0,.672-.148,12.748,12.748,0,0,1,2.819,1.545,5.73,5.73,0,0,1-.89.139c-3.944.012-7.887.007-11.831.007-.235,0-.485.026-.526-.308" transform="translate(-355.459 2347.062)" fill="#fff"/>
    <path id="Path_1963" data-name="Path 1963" d="M782.951,9820.24a21.306,21.306,0,0,1,3.1,1.676,3.222,3.222,0,0,1-.392,1.38c-.475.961-1.246,1.8-1.3,2.947q-1.687-.845-3.375-1.69a2.081,2.081,0,0,1,.115-.464c.357-.7.774-1.371,1.082-2.088a5.407,5.407,0,0,0,.771-1.761" transform="translate(-359.667 2338.896)" fill="#fff"/>
    <path id="Path_1964" data-name="Path 1964" d="M757.912,9800.566q.857-1.709,1.718-3.419a1.791,1.791,0,0,0,.271-.854l3.215,1.632a1.053,1.053,0,0,1-.12.6c-.775,1.171-1.111,2.578-1.99,3.694l-3.094-1.65" transform="translate(-353.61 2345.182)" fill="#fff"/>
    <path id="Path_1965" data-name="Path 1965" d="M750.664,9809.116q0-1.475,0-2.953c.288-.378.126-.812.134-1.216.024-1.313.009-1.313,1.285-1.313h3.784q.013,1.688.028,3.375a31.244,31.244,0,0,0-4.731-.134c-.392-.016-.332.287-.361.54-.062.566.158,1.156-.139,1.7" transform="translate(-351.707 2343.255)" fill="#fff"/>
    <path id="Path_1966" data-name="Path 1966" d="M781.225,9820.062a5.407,5.407,0,0,1-.771,1.761c-.308.717-.725,1.389-1.082,2.088a2.081,2.081,0,0,0-.115.464l-4.85-2.384c.12-.272.375-.289.563-.373,1.319-.589,2.681-1.1,3.961-1.762a1.873,1.873,0,0,1,2.294.206" transform="translate(-357.94 2339.074)" fill="#fff"/>
    <path id="Path_1967" data-name="Path 1967" d="M795.513,9823.438a11.712,11.712,0,0,0-2.9-.134c-.763-.027-1.528,0-2.292,0-.005-.2-.011-.4-.016-.607,0-.78.007-1.563.01-2.344a19.773,19.773,0,0,1,5.2,0q0,1.545,0,3.092" transform="translate(-362.114 2338.912)" fill="#fff"/>
    <path id="Path_1968" data-name="Path 1968" d="M792.332,9802.489a9.931,9.931,0,0,1-2.387-1.267c-.029-.415.275-.667.477-.967q1.236-1.835,2.476-3.668c.753.37,1.5.745,2.261,1.105.35.167.24.449.221.716a1.65,1.65,0,0,0-.839.79c-.729,1.1-1.471,2.194-2.209,3.29" transform="translate(-362.019 2345.105)" fill="#fff"/>
    <path id="Path_1969" data-name="Path 1969" d="M762.108,9802.8c.878-1.117,1.214-2.523,1.989-3.7a1.039,1.039,0,0,0,.119-.6,28.408,28.408,0,0,1,2.813,1.4,12.2,12.2,0,0,1-1.28,2.748,2.638,2.638,0,0,0-.546,1.467c-.2.239-.4.136-.612.02-.826-.451-1.655-.9-2.483-1.344" transform="translate(-354.712 2344.601)" fill="#fff"/>
    <path id="Path_1970" data-name="Path 1970" d="M754.29,9821.554l2.251,1.265a.848.848,0,0,1-.079.261,27.737,27.737,0,0,0-2.507,4.415,15.2,15.2,0,0,1-2.336-1.158,1.493,1.493,0,0,1,.274-.632q1.206-2.071,2.4-4.15" transform="translate(-351.958 2338.551)" fill="#fff"/>
    <path id="Path_1971" data-name="Path 1971" d="M789.061,9823.307c0,.2.01.4.015.606a34.365,34.365,0,0,0,.14,4.708,29.515,29.515,0,0,1-3.656-1.782c.049-1.148.82-1.985,1.3-2.946a3.241,3.241,0,0,0,.392-1.38c.68.093,1.172.611,1.813.794" transform="translate(-360.868 2338.299)" fill="#fff"/>
    <path id="Path_1972" data-name="Path 1972" d="M792.144,9796.25q-1.238,1.833-2.475,3.667c-.2.3-.507.552-.479.968l-1.148-.433c-.179-.427-.689-.41-.959-.715a1.278,1.278,0,0,1,.344-1.038,8.6,8.6,0,0,0,.887-1.254,3.432,3.432,0,0,0,.865-1.795,1.316,1.316,0,0,1,1.691-.083,13.708,13.708,0,0,0,1.273.683" transform="translate(-361.265 2345.443)" fill="#fff"/>
    <path id="Path_1973" data-name="Path 1973" d="M764.2,9791.017c.041.333.291.308.526.308q5.916,0,11.831-.006a5.736,5.736,0,0,0,.89-.141,4.549,4.549,0,0,1,1.532.7c-.106.467-.484.283-.748.284q-7.188.016-14.377,0a1.068,1.068,0,0,0-.948.3,2.28,2.28,0,0,1-.829-.4l2.123-1.048" transform="translate(-354.703 2346.567)" fill="#fff"/>
    <path id="Path_1974" data-name="Path 1974" d="M755.852,9802.232h-3.784c-1.275,0-1.26,0-1.285,1.313-.007.4.155.839-.134,1.217-.033-2.156-.09-4.312.026-6.467q2.4,1.277,4.8,2.557a3.573,3.573,0,0,1,.392.277q-.009.551-.018,1.1" transform="translate(-351.692 2344.656)" fill="#fff"/>
    <path id="Path_1975" data-name="Path 1975" d="M795.485,9819.446a19.773,19.773,0,0,0-5.2,0,19.606,19.606,0,0,1-.066-2.532,20.5,20.5,0,0,1,5.262,0Z" transform="translate(-362.087 2339.813)" fill="#fff"/>
    <path id="Path_1976" data-name="Path 1976" d="M750.648,9810.261c.3-.545.077-1.135.139-1.7.029-.253-.032-.556.361-.54a31.244,31.244,0,0,1,4.731.134c.173,1.188.173,1.188-.889,1.656-1.277.561-2.558,1.113-3.829,1.691-.4.181-.607.2-.549-.334.032-.3.025-.6.036-.906" transform="translate(-351.691 2342.11)" fill="#fff"/>
    <path id="Path_1977" data-name="Path 1977" d="M754.786,9827.944a27.69,27.69,0,0,1,2.507-4.414.863.863,0,0,0,.079-.262c.314,0,.509.367.852.282.364.478,1,.553,1.417.946-.442.7-.911,1.378-1.312,2.1-.185.33-.572.663-.262,1.128a7.671,7.671,0,0,0-1.007.479,1.579,1.579,0,0,1-2.078-.151l-.182-.113Z" transform="translate(-352.789 2338.101)" fill="#fff"/>
    <path id="Path_1978" data-name="Path 1978" d="M754.022,9820.854q-1.2,2.076-2.4,4.149a1.5,1.5,0,0,0-.274.633c-.578-.1-.769-.418-.753-1.021.046-1.68.014-3.359.018-5.039a1.31,1.31,0,0,1,.071-.687q1.667.984,3.335,1.966" transform="translate(-351.689 2339.25)" fill="#fff"/>
    <path id="Path_1979" data-name="Path 1979" d="M763.2,9792.775a1.068,1.068,0,0,1,.948-.3q7.188.009,14.377,0c.263,0,.642.182.748-.284l.834.519a14.491,14.491,0,0,1-1.665.623c-4.286-.325-8.578-.059-12.865-.154a1.473,1.473,0,0,0-.969.309,5.675,5.675,0,0,1-1.409-.7" transform="translate(-354.998 2346.261)" fill="#fff"/>
    <path id="Path_1980" data-name="Path 1980" d="M795.471,9815.818a20.5,20.5,0,0,0-5.262,0c-.178-.669.041-1.024.731-1.29,1.51-.579,2.974-1.278,4.531-1.963Z" transform="translate(-362.073 2340.91)" fill="#fff"/>
    <path id="Path_1981" data-name="Path 1981" d="M793.182,9803.138c.737-1.1,1.479-2.189,2.209-3.29a1.65,1.65,0,0,1,.839-.79q.014,2.782.031,5.562a.309.309,0,0,1-.125.3l-2.347-1.345c-.218-.125-.487-.177-.607-.438" transform="translate(-362.869 2344.456)" fill="#fff"/>
    <path id="Path_1982" data-name="Path 1982" d="M766.3,9804.622a2.647,2.647,0,0,1,.545-1.467,12.165,12.165,0,0,0,1.281-2.748l3.709,1.813-5.535,2.4" transform="translate(-355.812 2344.102)" fill="#fff"/>
    <path id="Path_1983" data-name="Path 1983" d="M776.383,9788.449a1.43,1.43,0,0,1-.672.149c-1.7.062-3.39-.062-5.091.075-.563.046-1.29.252-1.847-.231,1.21-.624,2.423-1.245,3.63-1.878a.426.426,0,0,1,.451.016q1.76.94,3.529,1.869" transform="translate(-356.462 2347.751)" fill="#fff"/>
    <path id="Path_1984" data-name="Path 1984" d="M788,9795.775a3.431,3.431,0,0,1-.866,1.8,8.572,8.572,0,0,1-.886,1.252,1.279,1.279,0,0,0-.346,1.038l-3.325-1.766,5.422-2.321" transform="translate(-360.085 2345.317)" fill="#fff"/>
    <path id="Path_1985" data-name="Path 1985" d="M759.194,9828.161c-.31-.465.077-.8.261-1.128.4-.721.871-1.4,1.313-2.1l2.629,1.408-4.2,1.818" transform="translate(-353.916 2337.663)" fill="#fff"/>
    <path id="Path_1986" data-name="Path 1986" d="M771.517,9830.674a29.146,29.146,0,0,1-3.786.016c-.184,0-.379.024-.5-.172.6-.281,1.212-.555,1.81-.849a.563.563,0,0,1,.583.011c.624.343,1.26.665,1.891.994" transform="translate(-356.058 2336.44)" fill="#fff"/>
    <path id="Path_1987" data-name="Path 1987" d="M764.211,9821.483l.276-.123a.292.292,0,0,1-.276.123" transform="translate(-355.264 2338.602)" fill="#fff"/>
    <path id="Path_1988" data-name="Path 1988" d="M773.427,9831.237l-.256-.132.256.132" transform="translate(-357.616 2336.043)" fill="#fff"/>
    <path id="Path_1989" data-name="Path 1989" d="M766.966,9830.9a.3.3,0,0,1-.272.134.287.287,0,0,1,.272-.134" transform="translate(-355.916 2336.097)" fill="#fff"/>
    <path id="Path_1990" data-name="Path 1990" d="M754.8,9829.6l.182.112-.182-.112" transform="translate(-352.795 2336.438)" fill="#fff"/>
    <path id="Path_1991" data-name="Path 1991" d="M773.742,9831.4l-.2-.11Z" transform="translate(-357.714 2335.994)" fill="#fff"/>
    <path id="Path_1992" data-name="Path 1992" d="M763.382,9832.488l-.134.088Z" transform="translate(-355.011 2335.68)" fill="#fff"/>
  </g>
</svg>
