<svg xmlns="http://www.w3.org/2000/svg" xmlns:xlink="http://www.w3.org/1999/xlink" width="80.452" height="80.451" viewBox="0 0 80.452 80.451">
  <defs>
    <clipPath id="clip-path">
      <rect id="Rectangle_706" data-name="Rectangle 706" width="69.324" height="58.999" fill="none"/>
    </clipPath>
    <clipPath id="clip-path-2">
      <rect id="Rectangle_705" data-name="Rectangle 705" width="68.578" height="58.705" fill="none"/>
    </clipPath>
  </defs>
  <g id="twitter" transform="translate(-486.129 -12111.819)">
    <path id="Path_1947" data-name="Path 1947" d="M949.318,9796.307a40.226,40.226,0,1,1-40.225-40.226,40.226,40.226,0,0,1,40.225,40.226" transform="translate(-382.737 2355.738)" fill="#38a8e0"/>
    <g id="Group_1700" data-name="Group 1700" transform="translate(488.771 12115.535)">
      <g id="Group_1518" data-name="Group 1518" transform="translate(0 0)" opacity="0.5" style="isolation: isolate">
        <g id="Group_1517" data-name="Group 1517">
          <g id="Group_1516" data-name="Group 1516" clip-path="url(#clip-path)">
            <g id="Group_1515" data-name="Group 1515" transform="translate(0.471 0.022)">
              <g id="Group_1514" data-name="Group 1514" clip-path="url(#clip-path-2)">
                <path id="Path_1751" data-name="Path 1751" d="M912.674,9764.063a36.921,36.921,0,0,0-37.644,37.511,36.536,36.536,0,0,0,5.241,18.279,36.846,36.846,0,0,1,30.464-58.7,36.981,36.981,0,0,1,30.932,18.008,36.914,36.914,0,0,0-28.993-15.1" transform="translate(-873.088 -9761.149)" fill="#fff"/>
              </g>
            </g>
          </g>
        </g>
      </g>
    </g>
    <g id="Group_1528" data-name="Group 1528" transform="translate(495.409 12131.76)" opacity="0.42" style="isolation: isolate">
      <g id="Group_1527" data-name="Group 1527">
        <g id="Group_1526" data-name="Group 1526" clip-path="url(#clip-path)">
          <g id="Group_1525" data-name="Group 1525" transform="translate(0.401 0.216)">
            <g id="Group_1524" data-name="Group 1524" clip-path="url(#clip-path-2)">
              <g id="Group_1523" data-name="Group 1523" transform="translate(-0.401 -0.216)" opacity="0.5" style="isolation: isolate">
                <g id="Group_1522" data-name="Group 1522">
                  <g id="Group_1521" data-name="Group 1521" clip-path="url(#clip-path)">
                    <g id="Group_1520" data-name="Group 1520" transform="translate(0.401 0.216)">
                      <g id="Group_1519" data-name="Group 1519" clip-path="url(#clip-path-2)">
                        <path id="Path_1752" data-name="Path 1752" d="M910.985,9839.2a36.917,36.917,0,0,0,37.643-37.51,36.542,36.542,0,0,0-5.24-18.279,36.846,36.846,0,0,1-30.463,58.7,36.983,36.983,0,0,1-30.932-18.008,36.912,36.912,0,0,0,28.993,15.1" transform="translate(-881.993 -9783.412)" fill="#102770"/>
                      </g>
                    </g>
                  </g>
                </g>
              </g>
            </g>
          </g>
        </g>
      </g>
    </g>
    <path id="Path_1753" data-name="Path 1753" d="M936.793,9796.373a14.069,14.069,0,0,1-4.047,1.109,7.065,7.065,0,0,0,3.1-3.9,14.1,14.1,0,0,1-4.475,1.711,7.053,7.053,0,0,0-12.007,6.427,20,20,0,0,1-14.523-7.362,7.055,7.055,0,0,0,2.18,9.408,7.009,7.009,0,0,1-3.19-.883c0,.03,0,.059,0,.09a7.051,7.051,0,0,0,5.652,6.908,7.036,7.036,0,0,1-3.182.121,7.052,7.052,0,0,0,6.582,4.893,14.2,14.2,0,0,1-10.431,2.918,19.934,19.934,0,0,0,10.8,3.166c12.96,0,20.049-10.736,20.049-20.047,0-.307-.008-.611-.021-.912a14.333,14.333,0,0,0,3.516-3.648" transform="translate(-391.553 2346.028)" fill="#fff"/>
  </g>
</svg>
