<svg xmlns="http://www.w3.org/2000/svg" width="212.578" height="108.536" viewBox="0 0 212.578 108.536">
  <g id="Group_3388" data-name="Group 3388" transform="translate(-1471.534 -339.084)">
    <g id="Group_238" data-name="Group 238" transform="translate(1471.534 339.084)">
      <g id="Group_118" data-name="Group 118" transform="translate(54.702 34.643)">
        <path id="Path_138" data-name="Path 138" d="M1843.048,652.127a35.119,35.119,0,0,0,2.343,4.877,40.1,40.1,0,0,0,2.917,4.367,3.573,3.573,0,0,0,.932-.644,3.408,3.408,0,0,0,.609-.774,11.151,11.151,0,0,0,1.136-2.889c-.84-4.839-2.691-9.524-.048-12.552.012-.015.024-.027.038-.042a9.246,9.246,0,0,1,2.8-2.244,5.579,5.579,0,0,1,2.082-.589,5.755,5.755,0,0,0-2.4-2.332,11.885,11.885,0,0,0-3.53.338,10.188,10.188,0,0,0-1.944.708,14.506,14.506,0,0,0-2.807,1.8c-.019.017-.041.033-.062.049C1842.351,644.426,1841.563,648.286,1843.048,652.127Z" transform="translate(-1842.217 -639.186)" fill="#39d5ff"/>
        <path id="Path_139" data-name="Path 139" d="M1848.207,661.411a40.387,40.387,0,0,1-2.924-4.378,35.436,35.436,0,0,1-2.349-4.892h0c-1.495-3.866-.673-7.81,2.095-10.047l.06-.049a14.678,14.678,0,0,1,2.826-1.808,10.319,10.319,0,0,1,1.965-.715,12.032,12.032,0,0,1,3.559-.341.11.11,0,0,1,.039.01,5.9,5.9,0,0,1,2.447,2.377.1.1,0,0,1,0,.1.1.1,0,0,1-.081.051,5.5,5.5,0,0,0-2.044.578,9.247,9.247,0,0,0-2.773,2.227c-.009.011-.018.02-.03.035-2.077,2.379-1.319,5.871-.517,9.567.205.946.418,1.922.588,2.9a.116.116,0,0,1,0,.042,11.168,11.168,0,0,1-1.146,2.916,3.519,3.519,0,0,1-.627.8,3.683,3.683,0,0,1-.958.662.1.1,0,0,1-.107-.012A.081.081,0,0,1,1848.207,661.411Zm2.072-7.243c-.813-3.749-1.582-7.288.559-9.74.012-.016.025-.029.04-.046a9.435,9.435,0,0,1,2.83-2.268,5.736,5.736,0,0,1,1.964-.585,5.722,5.722,0,0,0-2.266-2.145,11.842,11.842,0,0,0-3.478.337,10.146,10.146,0,0,0-1.925.7,14.468,14.468,0,0,0-2.785,1.781c-.02.017-.042.035-.063.052-2.7,2.179-3.494,6.032-2.031,9.815a35.14,35.14,0,0,0,2.336,4.863,39.957,39.957,0,0,0,2.858,4.29,3.478,3.478,0,0,0,.833-.59,3.363,3.363,0,0,0,.591-.752,10.984,10.984,0,0,0,1.12-2.843C1850.692,656.071,1850.482,655.1,1850.278,654.168Zm-7.252-2.063h0Z" transform="translate(-1842.197 -639.164)" fill="#102770"/>
      </g>
      <g id="Group_119" data-name="Group 119" transform="translate(54.205 34.145)">
        <path id="Path_140" data-name="Path 140" d="M1849.672,663.993l-.255-.292a39.07,39.07,0,0,1-7.052-11.487c-1.574-4.071-.693-8.236,2.244-10.611l.063-.051a13.174,13.174,0,0,1,4.98-2.617,12.313,12.313,0,0,1,4.623-.268,3.117,3.117,0,0,1,2.414,2.59.845.845,0,0,1-.834.843c-1.062.05-2.713.547-4.549,2.626-.016.018-.031.036-.046.051-1.913,2.191-1.214,5.409-.4,9.136a25.922,25.922,0,0,1,.89,8,.6.6,0,0,1-.273.444c-.1.156-.331.555-.821,1.513a.6.6,0,0,1-.979.124Zm.015-9.827c-.841-3.874-1.636-7.532.667-10.169.018-.021.035-.041.053-.06a8.056,8.056,0,0,1,4.991-3,2.123,2.123,0,0,0-1.289-1.09,11.091,11.091,0,0,0-4.168.245,12,12,0,0,0-4.523,2.389l-.058.048h0c-2.565,2.073-3.285,5.617-1.88,9.251a37.671,37.671,0,0,0,6.515,10.757,7.486,7.486,0,0,1,.582-.984A25.948,25.948,0,0,0,1849.688,654.167Z" transform="translate(-1841.594 -638.56)" fill="#371a45"/>
      </g>
      <g id="Group_120" data-name="Group 120" transform="translate(56.741 34.744)">
        <path id="Path_141" data-name="Path 141" d="M1845.36,653.523a13.156,13.156,0,0,1,.447,3.481,40.149,40.149,0,0,0,2.916,4.367,3.571,3.571,0,0,0,.933-.644,3.394,3.394,0,0,0,.609-.774,11.133,11.133,0,0,0,1.136-2.889c-.84-4.839-2.691-9.524-.047-12.552.012-.015.024-.027.038-.042a9.248,9.248,0,0,1,2.8-2.244,5.575,5.575,0,0,1,2.082-.589,5.757,5.757,0,0,0-2.4-2.332,11.882,11.882,0,0,0-3.529.338,10.188,10.188,0,0,0-1.944.708C1844.971,642.808,1843.783,647.324,1845.36,653.523Z" transform="translate(-1844.673 -639.287)" fill="#371a45"/>
      </g>
      <g id="Group_121" data-name="Group 121" transform="translate(57.446 33.31)">
        <path id="Path_142" data-name="Path 142" d="M1846.841,652.33a10.615,10.615,0,0,1,.173,5.472,4.1,4.1,0,0,1-1.362,1.734c.059.107.116.216.177.324q.454.825.956,1.64c1.263-.465,2.563-.961,3.1-1.185.028-.011.055-.021.08-.032l.046-.018.1-.044a3.645,3.645,0,0,0,1.021-.687,3.442,3.442,0,0,0,.61-.775c3.3-5.713,0-14,5.049-16.954.366-.214.72-.4,1.059-.559l0,0a.128.128,0,0,0,.064-.07c.218-.47-1.172-2.7-3.247-3.333a3.7,3.7,0,0,0-2.433.072c-.23.086-.456.179-.682.28C1846.87,640.3,1845.028,645.2,1846.841,652.33Z" transform="translate(-1845.55 -637.567)" fill="#fd6ccb"/>
        <path id="Path_143" data-name="Path 143" d="M1846.676,661.53c-.33-.535-.652-1.088-.959-1.643l-.107-.2-.069-.127a.1.1,0,0,1,.024-.127,3.947,3.947,0,0,0,1.329-1.683,10.632,10.632,0,0,0-.173-5.42c-1.783-7.007-.086-12.07,4.777-14.254.229-.1.454-.2.688-.283a3.8,3.8,0,0,1,2.5-.075,5.7,5.7,0,0,1,3.2,2.8.962.962,0,0,1,.109.671.229.229,0,0,1-.108.122l-.011.006c-.354.167-.708.353-1.051.555-2.791,1.631-2.992,4.99-3.2,8.547-.172,2.875-.35,5.847-1.809,8.37a3.6,3.6,0,0,1-.627.8,3.763,3.763,0,0,1-1.062.712l-.091.04-.024.009-.019.007c-.021.01-.044.018-.067.027l-.017.007c-.56.23-1.9.74-3.108,1.185a.1.1,0,0,1-.1-.016A.1.1,0,0,1,1846.676,661.53Zm11.116-20.4c.007,0,.011-.008.017-.021.03-.064.016-.231-.108-.509a5.463,5.463,0,0,0-3.076-2.685,3.6,3.6,0,0,0-2.368.07c-.231.086-.452.177-.676.278-4.762,2.139-6.419,7.117-4.664,14.019h0a10.841,10.841,0,0,1,.171,5.528,4,4,0,0,1-1.33,1.727l.03.054.107.2c.291.528.6,1.054.91,1.564,1.19-.437,2.478-.929,3.026-1.155l.02-.008c.019-.008.037-.014.061-.025l.141-.06a3.518,3.518,0,0,0,.993-.667,3.336,3.336,0,0,0,.591-.752c1.435-2.482,1.611-5.431,1.782-8.281.216-3.612.42-7.024,3.3-8.71.347-.2.7-.391,1.062-.56Z" transform="translate(-1845.528 -637.546)" fill="#102770"/>
      </g>
      <g id="Group_122" data-name="Group 122" transform="translate(56.949 32.814)">
        <path id="Path_144" data-name="Path 144" d="M1846.147,661.684c-.334-.542-.66-1.1-.969-1.664L1845,659.7a.6.6,0,0,1,.143-.75,3.527,3.527,0,0,0,1.17-1.444,10.181,10.181,0,0,0-.18-5.152c-1.849-7.268-.054-12.534,5.055-14.83.251-.112.486-.208.717-.294,3.06-1.145,5.689,1.461,6.355,3.044.411.976-.11,1.311-.28,1.39-.335.157-.675.337-1.011.533-2.561,1.5-2.745,4.58-2.959,8.149-.176,2.932-.358,5.964-1.876,8.59a4.163,4.163,0,0,1-1.887,1.7c-.047.022-.093.042-.139.061l-.044.018-.089.035c-.6.246-1.937.755-3.114,1.189a.6.6,0,0,1-.578-.094A.587.587,0,0,1,1846.147,661.684Zm9.22-22.932a3.28,3.28,0,0,0-3.045-.407c-.208.077-.418.164-.646.265-4.517,2.03-6.075,6.8-4.386,13.445h0a11.3,11.3,0,0,1,.17,5.779l-.007.024a4.078,4.078,0,0,1-1.175,1.682c.205.37.418.738.633,1.1,1.156-.428,2.184-.825,2.623-1.006l.023-.009.047-.018.031-.013.032-.013.072-.032a2.944,2.944,0,0,0,1.361-1.216c1.376-2.381,1.549-5.269,1.717-8.063.224-3.749.437-7.289,3.549-9.109.264-.154.53-.3.795-.432A5.062,5.062,0,0,0,1855.368,638.752Z" transform="translate(-1844.926 -636.943)" fill="#371a45"/>
      </g>
      <g id="Group_123" data-name="Group 123" transform="translate(59.977 33.583)">
        <path id="Path_145" data-name="Path 145" d="M1850.563,652.382c1.371,4.165-.625,5.608-1.806,6.087-.27.109-.171.513.147.623a9.573,9.573,0,0,0,2.752.479,3.433,3.433,0,0,0,.609-.775c3.3-5.713,0-14,5.05-16.954.366-.214.72-.4,1.059-.558l0,0c.021-.025.043-.049.064-.07.218-.47-1.172-2.7-3.247-3.333-.135.049-.271.1-.405.153C1851.116,639.49,1847.862,644.188,1850.563,652.382Z" transform="translate(-1848.601 -637.877)" fill="#371a45"/>
      </g>
      <g id="Group_124" data-name="Group 124" transform="translate(61.546 31.28)">
        <path id="Path_146" data-name="Path 146" d="M1869.148,638.784a7.1,7.1,0,0,0-8-.188c-5.048,2.951,2.57,13.664-3.681,18.063-1.748,1.231-4.746,1.117-6.659.46-.319-.109-.418-.516-.148-.624,1.181-.477,3.177-1.922,1.8-6.086-2.7-8.194.555-12.893,4.229-14.352,5.379-2.137,11.517-.406,13.073,1.782Z" transform="translate(-1850.506 -635.081)" fill="#fef26b"/>
      </g>
      <g id="Group_127" data-name="Group 127" transform="translate(62.191 32.017)">
        <g id="Group_125" data-name="Group 125" transform="translate(14.153)">
          <path id="Path_147" data-name="Path 147" d="M1870.719,638.367l.382-.581a5.978,5.978,0,0,0-2.63-1.81c2.389.441,4.3,1.418,5.079,2.509l-.622.944A6.547,6.547,0,0,0,1870.719,638.367Z" transform="translate(-1868.471 -635.976)" fill="#371a45"/>
        </g>
        <g id="Group_126" data-name="Group 126" transform="translate(0 1.436)">
          <path id="Path_148" data-name="Path 148" d="M1855.773,656.914c6.25-4.4-1.368-15.112,3.681-18.064a7.182,7.182,0,0,1,7.033-.4,7.519,7.519,0,0,0-4.585,1.1c-5.048,2.952,2.57,13.664-3.681,18.064-1.748,1.23-4.746,1.116-6.659.459a.451.451,0,0,1-.273-.254A6.988,6.988,0,0,0,1855.773,656.914Z" transform="translate(-1851.289 -637.719)" fill="#371a45"/>
        </g>
      </g>
      <g id="Group_128" data-name="Group 128" transform="translate(61.448 52.459)" opacity="0.5">
        <path id="Path_149" data-name="Path 149" d="M1850.663,661.049a.274.274,0,0,0-.1.416,3.178,3.178,0,0,0,.4-.552C1850.859,660.965,1850.758,661.01,1850.663,661.049Z" transform="translate(-1850.408 -660.815)" fill="#fff"/>
        <path id="Path_150" data-name="Path 150" d="M1850.451,661.492a.431.431,0,0,1-.044-.353.336.336,0,0,1,.2-.2c.093-.038.191-.082.292-.133a.1.1,0,0,1,.115.021.1.1,0,0,1,.013.116,3.228,3.228,0,0,1-.417.568.1.1,0,0,1-.132.011A.116.116,0,0,1,1850.451,661.492Zm.141-.288a.112.112,0,0,0-.008.034c.031-.039.061-.078.09-.118A.136.136,0,0,0,1850.592,661.2Z" transform="translate(-1850.387 -660.794)" fill="#371a45"/>
      </g>
      <g id="Group_129" data-name="Group 129" transform="translate(64.668 31.281)" opacity="0.6">
        <path id="Path_151" data-name="Path 151" d="M1854.3,638.281a7.591,7.591,0,0,1,1.6-.876,14.573,14.573,0,0,1,10.8.127h0a6.8,6.8,0,0,1,3.11,1.252l.621-.944c-1.556-2.189-7.695-3.919-13.074-1.782A7.789,7.789,0,0,0,1854.3,638.281Z" transform="translate(-1854.296 -635.082)" fill="#fff"/>
      </g>
      <g id="Group_130" data-name="Group 130" transform="translate(60.948 30.675)">
        <path id="Path_152" data-name="Path 152" d="M1849.781,656.622a.843.843,0,0,1,.53-.811c1.3-.524,2.6-1.877,1.462-5.345-1.264-3.835-1.355-7.33-.265-10.107a8.658,8.658,0,0,1,4.84-4.987c5.8-2.3,12.133-.327,13.781,1.992a.6.6,0,0,1,.012.675l-.621.945a.6.6,0,0,1-.872.138l-.008-.008a6.534,6.534,0,0,0-7.315-.132c-2.035,1.19-1.641,4.01-1.185,7.276.538,3.856,1.148,8.224-2.454,10.76-1.886,1.327-5.049,1.274-7.2.536a1.085,1.085,0,0,1-.321-.176A1.006,1.006,0,0,1,1849.781,656.622ZM1868.9,637.75c-1.773-1.838-7.366-3.154-12.111-1.269-3.413,1.356-6.478,5.734-3.882,13.61,1.308,3.969-.258,5.744-1.488,6.494,1.789.466,4.184.436,5.579-.545,3.006-2.115,2.474-5.929,1.958-9.618-.472-3.382-.96-6.879,1.765-8.472a7.806,7.806,0,0,1,8.129-.125Z" transform="translate(-1849.781 -634.346)" fill="#371a45"/>
      </g>
      <g id="Group_131" data-name="Group 131" transform="translate(60.175 24.852)">
        <path id="Path_153" data-name="Path 153" d="M1850.8,647.576c-.07.136-.139.271-.206.409-.124.254-.243.511-.356.774a18.675,18.675,0,0,0-.912,2.6c-2.129,7.885,5.63,15.874,8.846,18.352,3.134,2.58,12.657,8.356,19.866,4.516a18.545,18.545,0,0,0,2.269-1.423q.2-.148.4-.3c.215-.166.423-.334.627-.507,7.98-6.736,8.2-18.232,8.2-18.232s6.525.843,7.205-4.134c.531-3.888-5.5-7.046-9.98-4.147l-11.375-9.06c1.825-5.015-2.6-10.188-6.274-8.8-4.7,1.778-2.418,7.947-2.418,7.947S1855.6,638.349,1850.8,647.576Z" transform="translate(-1848.863 -627.298)" fill="#fff"/>
        <path id="Path_154" data-name="Path 154" d="M1858.094,669.768a29.537,29.537,0,0,1-6.45-7.174c-2.544-4.036-3.361-7.832-2.43-11.281a18.858,18.858,0,0,1,.915-2.614c.11-.254.228-.509.358-.779.068-.138.137-.273.208-.409h0c4.517-8.687,14.722-11.714,15.86-12.028-.269-.816-1.89-6.306,2.51-7.972a4.445,4.445,0,0,1,4.684,1.32,7.26,7.26,0,0,1,1.741,7.539l11.264,8.973a7.262,7.262,0,0,1,7.739.011,4.441,4.441,0,0,1,2.332,4.268c-.638,4.662-6.352,4.31-7.209,4.23-.051,1.181-.721,11.856-8.234,18.2-.208.175-.419.347-.63.51-.134.1-.269.2-.405.3a18.91,18.91,0,0,1-2.28,1.431c-3.155,1.68-7.037,1.732-11.54.155a29.677,29.677,0,0,1-8.2-4.5C1858.244,669.891,1858.168,669.828,1858.094,669.768Zm36.293-24.25a7.064,7.064,0,0,0-7.587.026.1.1,0,0,1-.114-.006l-11.374-9.06a.1.1,0,0,1-.031-.11,7.059,7.059,0,0,0-1.67-7.4,4.256,4.256,0,0,0-4.476-1.275c-4.552,1.723-2.384,7.761-2.362,7.822a.1.1,0,0,1,0,.08.1.1,0,0,1-.062.049c-.111.027-11.114,2.873-15.837,11.954h0c-.07.135-.138.269-.2.406-.13.267-.246.519-.354.77a18.6,18.6,0,0,0-.907,2.588c-2.1,7.783,5.648,15.811,8.813,18.251,3.081,2.536,12.641,8.3,19.757,4.505a18.606,18.606,0,0,0,2.257-1.416c.135-.1.269-.2.4-.3.208-.162.417-.331.623-.5,7.853-6.629,8.168-18.045,8.169-18.159a.1.1,0,0,1,.111-.1c.065.008,6.435.775,7.1-4.05a4.056,4.056,0,0,0-1.7-3.694A6.252,6.252,0,0,0,1894.388,645.518Zm-43.607,2.035h0Z" transform="translate(-1848.842 -627.277)" fill="#371a45"/>
      </g>
      <g id="Group_132" data-name="Group 132" transform="translate(60.155 46.466)">
        <path id="Path_155" data-name="Path 155" d="M1850.093,653.517a18.861,18.861,0,0,0-.911,2.6c-2.129,7.885,5.63,15.874,8.846,18.352,3.133,2.58,12.657,8.356,19.865,4.516a18.492,18.492,0,0,0,2.269-1.423c-1.935-4.9-6.333-10.544-12.429-15.4C1861.695,657.354,1855.272,654.342,1850.093,653.517Z" transform="translate(-1848.818 -653.517)" fill="#ffebf6"/>
      </g>
      <g id="Group_133" data-name="Group 133" transform="translate(60.277 46.312)">
        <path id="Path_156" data-name="Path 156" d="M1850.242,653.331a18.672,18.672,0,0,0-.912,2.6c-2.129,7.885,5.63,15.874,8.846,18.352,3.134,2.58,12.657,8.356,19.866,4.516a18.553,18.553,0,0,0,2.269-1.423c-.059-.149-.12-.3-.184-.45-.113.057-.228.113-.344.168-6.782,3.2-16.382-2.82-19.582-5.444-3.273-2.532-11.29-10.542-9.686-17.869.03-.131.059-.261.092-.39C1850.483,653.37,1850.362,653.35,1850.242,653.331Z" transform="translate(-1848.965 -653.331)" fill="#371a45" opacity="0.3"/>
      </g>
      <g id="Group_134" data-name="Group 134" transform="translate(59.696 24.361)">
        <path id="Path_157" data-name="Path 157" d="M1857.455,669.865l.238.186a29.969,29.969,0,0,0,8.569,4.755c4.572,1.6,8.7,1.537,11.931-.185,4.723-2.515,8.263-6.942,10.24-12.8a31.175,31.175,0,0,0,1.544-7.538c2.567.145,6.678-.653,7.231-4.7a4.917,4.917,0,0,0-2.554-4.749,7.753,7.753,0,0,0-8.328.029.588.588,0,0,0,.639.987,6.651,6.651,0,0,1,7.058-.024,3.78,3.78,0,0,1,2.02,3.6c-.594,4.335-6.3,3.661-6.548,3.63a.589.589,0,0,0-.662.572c0,.142-.417,14.218-11.192,19.956-6.88,3.665-16.2-1.968-19.215-4.451-3.105-2.4-10.684-10.22-8.651-17.745,3.184-11.785,16.811-15.336,16.948-15.371a.588.588,0,0,0,.409-.774c-.084-.23-2.019-5.645,2.074-7.193a3.782,3.782,0,0,1,3.958,1.164,6.651,6.651,0,0,1,1.556,6.884.588.588,0,1,0,1.1.4,7.753,7.753,0,0,0-1.834-8.123,4.918,4.918,0,0,0-5.2-1.427c-3.816,1.443-3.674,5.628-2.958,8.1a31.216,31.216,0,0,0-7,3.19c-5.271,3.237-8.794,7.679-10.189,12.844-.956,3.537-.1,7.572,2.488,11.671A30.247,30.247,0,0,0,1857.455,669.865Z" transform="translate(-1848.26 -626.681)" fill="#371a45"/>
      </g>
      <g id="Group_135" data-name="Group 135" transform="translate(64.253 43.537)">
        <ellipse id="Ellipse_49" data-name="Ellipse 49" cx="2.343" cy="3.55" rx="2.343" ry="3.55" transform="matrix(0.623, -0.782, 0.782, 0.623, 0, 3.665)" fill="#fdc1e5"/>
      </g>
      <g id="Group_136" data-name="Group 136" transform="translate(84.567 59.777)">
        <ellipse id="Ellipse_50" data-name="Ellipse 50" cx="2.305" cy="3.493" rx="2.305" ry="3.493" transform="matrix(0.623, -0.782, 0.782, 0.623, 0, 3.606)" fill="#fdc1e5"/>
      </g>
      <g id="Group_137" data-name="Group 137" transform="translate(100.128 47.78)">
        <path id="Path_158" data-name="Path 158" d="M1897.708,659.111a.582.582,0,0,0,.361.128.588.588,0,0,0,.593-.583,27.012,27.012,0,0,0-.144-3.035.588.588,0,0,0-1.166.16,26.4,26.4,0,0,1,.133,2.866A.585.585,0,0,0,1897.708,659.111Z" transform="translate(-1897.346 -655.112)" fill="#371a45"/>
      </g>
      <g id="Group_138" data-name="Group 138" transform="translate(79.372 31.12)">
        <path id="Path_159" data-name="Path 159" d="M1872.708,635.005a8.333,8.333,0,0,0-.442,1.334,8.948,8.948,0,0,1,.644-1.223C1872.779,635.049,1872.708,635.005,1872.708,635.005Z" transform="translate(-1872.169 -634.907)" fill="#b5e5fb"/>
        <path id="Path_160" data-name="Path 160" d="M1872.15,636.295a8.228,8.228,0,0,1,.448-1.351.1.1,0,0,1,.061-.054.1.1,0,0,1,.08.012s.07.043.195.106a.1.1,0,0,1,.05.062.094.094,0,0,1-.012.079,8.682,8.682,0,0,0-.635,1.208.1.1,0,0,1-.122.053.1.1,0,0,1-.03-.016A.1.1,0,0,1,1872.15,636.295Zm.584-1.171c-.012.029-.026.064-.042.1.021-.035.041-.067.058-.1Z" transform="translate(-1872.148 -634.886)" fill="#371a45"/>
      </g>
      <g id="Group_144" data-name="Group 144" transform="translate(86.148 52.525)">
        <g id="Group_140" data-name="Group 140">
          <g id="Group_139" data-name="Group 139">
            <path id="Path_161" data-name="Path 161" d="M1885.073,667.473a.628.628,0,0,0,.107.068.587.587,0,0,0,.787-.267c1.034-2.093.848-4.1-.5-5.375a4.042,4.042,0,0,0-4.8-.442.588.588,0,1,0,.579,1.024,2.872,2.872,0,0,1,3.411.272c.952.9,1.045,2.394.251,4A.588.588,0,0,0,1885.073,667.473Z" transform="translate(-1880.373 -660.873)" fill="#371a45"/>
          </g>
        </g>
        <g id="Group_141" data-name="Group 141" transform="translate(4.861 4.922)">
          <path id="Path_162" data-name="Path 162" d="M1888.169,668.141c-.033-.011-.1-.034-.157-.057a1.559,1.559,0,0,1-.166-.082,1.35,1.35,0,0,1-.285-.219,1.21,1.21,0,0,1-.208-.273,1.518,1.518,0,0,1-.132-.315l0-.012a.483.483,0,1,0-.918.3.516.516,0,0,0,.031.076,2.445,2.445,0,0,0,.314.475,2.037,2.037,0,0,0,.421.378,2.175,2.175,0,0,0,.752.325,1.955,1.955,0,0,0,.286.042.317.317,0,0,0,.128-.615Z" transform="translate(-1886.275 -666.849)" fill="#371a45"/>
        </g>
        <g id="Group_142" data-name="Group 142" transform="translate(5.085 4.058)">
          <path id="Path_163" data-name="Path 163" d="M1888.654,666.969a1.444,1.444,0,0,1-.18-.011,1.3,1.3,0,0,1-.194-.044,1.1,1.1,0,0,1-.342-.174,1.194,1.194,0,0,1-.263-.275,1.657,1.657,0,0,1-.1-.167c-.03-.059-.056-.124-.085-.185l-.02-.041a.484.484,0,0,0-.871.421c.01.019.022.04.033.058.058.086.112.174.175.257a2.283,2.283,0,0,0,.208.238,2.009,2.009,0,0,0,.516.383,1.866,1.866,0,0,0,.61.192,1.982,1.982,0,0,0,.313.017,1.774,1.774,0,0,0,.331-.041.316.316,0,0,0-.058-.625Z" transform="translate(-1886.547 -665.799)" fill="#371a45"/>
        </g>
        <g id="Group_143" data-name="Group 143" transform="translate(5.132 2.849)">
          <path id="Path_164" data-name="Path 164" d="M1888.834,665.41a1.44,1.44,0,0,1-.2.03,1.16,1.16,0,0,1-.214,0,.906.906,0,0,1-.378-.131,1.076,1.076,0,0,1-.289-.274,1.919,1.919,0,0,1-.116-.181l-.1-.2-.016-.035a.483.483,0,1,0-.874.412.534.534,0,0,0,.033.059c.062.094.121.188.187.28a2.721,2.721,0,0,0,.23.261,1.885,1.885,0,0,0,.594.4,1.666,1.666,0,0,0,.707.129,1.772,1.772,0,0,0,.344-.044,1.71,1.71,0,0,0,.343-.114.317.317,0,0,0-.194-.6Z" transform="translate(-1886.604 -664.332)" fill="#371a45"/>
        </g>
      </g>
      <g id="Group_150" data-name="Group 150" transform="translate(71.021 40.329)">
        <g id="Group_146" data-name="Group 146" transform="translate(0.482 1.314)">
          <g id="Group_145" data-name="Group 145">
            <path id="Path_165" data-name="Path 165" d="M1862.817,649.912a.588.588,0,0,0,.739,0c1.387-1.133,2.865-1.375,3.955-.65a2.875,2.875,0,0,1,1.029,3.264.588.588,0,0,0,1.128.335,4.041,4.041,0,0,0-1.5-4.578c-1.542-1.027-3.542-.759-5.351.717a.588.588,0,0,0-.084.828A.575.575,0,0,0,1862.817,649.912Z" transform="translate(-1862.595 -647.662)" fill="#371a45"/>
          </g>
        </g>
        <g id="Group_147" data-name="Group 147" transform="translate(0 1.271)">
          <path id="Path_166" data-name="Path 166" d="M1862.024,648.021a1.985,1.985,0,0,0,.1.269,2.485,2.485,0,0,0,.131.237,2.081,2.081,0,0,0,.353.423,2.03,2.03,0,0,0,.463.325,2.356,2.356,0,0,0,.533.2.483.483,0,0,0,.249-.934.537.537,0,0,0-.078-.014l-.016,0a1.485,1.485,0,0,1-.337-.058,1.225,1.225,0,0,1-.313-.141,1.338,1.338,0,0,1-.276-.229,1.456,1.456,0,0,1-.118-.143c-.035-.046-.072-.11-.091-.14l-.035-.055a.317.317,0,0,0-.571.262Z" transform="translate(-1862.01 -647.61)" fill="#371a45"/>
        </g>
        <g id="Group_148" data-name="Group 148" transform="translate(0.844 0.526)">
          <path id="Path_167" data-name="Path 167" d="M1863.034,647.025a1.793,1.793,0,0,0,.034.331,1.948,1.948,0,0,0,.087.3,1.847,1.847,0,0,0,.323.551,2.057,2.057,0,0,0,.489.419,2.526,2.526,0,0,0,.279.15c.1.042.192.075.29.112a.483.483,0,1,0,.342-.9.412.412,0,0,0-.06-.019l-.048-.011c-.065-.015-.133-.026-.2-.042a1.5,1.5,0,0,1-.186-.063,1.2,1.2,0,0,1-.327-.194,1.115,1.115,0,0,1-.246-.295,1.3,1.3,0,0,1-.085-.18,1.546,1.546,0,0,1-.052-.173l-.018-.068a.317.317,0,0,0-.623.084Z" transform="translate(-1863.034 -646.705)" fill="#371a45"/>
        </g>
        <g id="Group_149" data-name="Group 149" transform="translate(2.051)">
          <path id="Path_168" data-name="Path 168" d="M1864.533,646.324a1.824,1.824,0,0,0,0,.7,1.671,1.671,0,0,0,.283.659,1.908,1.908,0,0,0,.527.489,2.7,2.7,0,0,0,.306.166c.1.043.209.08.315.119a.484.484,0,0,0,.336-.907.593.593,0,0,0-.063-.018l-.041-.009-.221-.048c-.065-.026-.141-.041-.2-.072a1.075,1.075,0,0,1-.332-.221.908.908,0,0,1-.212-.339,1.17,1.17,0,0,1-.054-.208,1.382,1.382,0,0,1-.015-.2l0-.061a.317.317,0,0,0-.628-.054Z" transform="translate(-1864.499 -646.067)" fill="#371a45"/>
        </g>
      </g>
      <g id="Group_151" data-name="Group 151" transform="translate(26.282 66.908)" opacity="0.3">
        <path id="Path_169" data-name="Path 169" d="M1809.554,680.922a6.84,6.84,0,0,0-1.741-2.467,14.4,14.4,0,0,1,.982,3.307l2.422-2.371c-.008-.024-.017-.048-.024-.073Z" transform="translate(-1807.715 -678.356)" fill="#6b184e"/>
        <path id="Path_170" data-name="Path 170" d="M1808.678,681.758a14.146,14.146,0,0,0-.976-3.285.1.1,0,0,1,.032-.119.1.1,0,0,1,.122.005,6.834,6.834,0,0,1,1.709,2.373l1.539-1.507a.1.1,0,0,1,.162.043l.022.069a.1.1,0,0,1-.024.1l-2.422,2.371a.094.094,0,0,1-.129.006A.091.091,0,0,1,1808.678,681.758Zm.766-.818a7.084,7.084,0,0,0-1.382-2.118,14.441,14.441,0,0,1,.776,2.72l.609-.6Z" transform="translate(-1807.694 -678.335)" fill="#371a45"/>
      </g>
      <g id="Group_152" data-name="Group 152" transform="translate(29.662 67.646)" opacity="0.3">
        <path id="Path_171" data-name="Path 171" d="M1812.043,679.35l-.127.125c.007.026.016.049.024.073l.115-.113C1812.052,679.408,1812.048,679.379,1812.043,679.35Z" transform="translate(-1811.818 -679.252)" fill="#6b184e"/>
        <path id="Path_172" data-name="Path 172" d="M1811.858,679.6a.1.1,0,0,0,.038.019.1.1,0,0,0,.092-.025l.115-.113a.1.1,0,0,0,.029-.081c0-.029-.008-.059-.012-.089a.1.1,0,0,0-.066-.078.1.1,0,0,0-.1.022l-.127.125a.1.1,0,0,0-.026.1c.007.026.017.052.025.077A.1.1,0,0,0,1811.858,679.6Z" transform="translate(-1811.797 -679.231)" fill="#371a45"/>
      </g>
      <g id="Group_164" data-name="Group 164" transform="translate(0 46.249)">
        <g id="Group_153" data-name="Group 153" transform="translate(1.845 13.704)">
          <path id="Path_173" data-name="Path 173" d="M1778.287,669.942a.148.148,0,0,0-.239.172,14.533,14.533,0,0,0,3.835,4.285c8.032,6.3,16.738-.347,19.941,7.277l2.5-2.353c-.368-2.4-1.68-7.056-6.326-8.229C1791.9,669.556,1784.833,677.152,1778.287,669.942Z" transform="translate(-1778.027 -669.892)" fill="#fef26b"/>
        </g>
        <g id="Group_154" data-name="Group 154" transform="translate(1.845 13.704)" opacity="0.6">
          <path id="Path_174" data-name="Path 174" d="M1778.287,669.942c6.547,7.21,13.613-.386,19.709,1.152,4.646,1.173,5.958,5.829,6.326,8.229l-.488.46c-.563-2.516-2.076-6.2-6.137-7.227-5.109-1.29-10.9,3.836-16.5,1.285a13.847,13.847,0,0,1-3.153-3.726A.148.148,0,0,1,1778.287,669.942Z" transform="translate(-1778.027 -669.892)" fill="#fff"/>
        </g>
        <g id="Group_155" data-name="Group 155" transform="translate(1.203 13.062)">
          <path id="Path_175" data-name="Path 175" d="M1777.348,670.291a.792.792,0,0,1,1.278-.919h0c3.81,4.2,7.707,3.05,11.832,1.836,2.5-.736,5.092-1.5,7.558-.876,4.942,1.247,6.385,6.021,6.805,8.756a.643.643,0,0,1-.2.566l-2.5,2.353a.643.643,0,0,1-1.035-.219c-1.522-3.624-4.3-3.679-8.142-3.754-3.575-.069-7.627-.148-11.6-3.268l-.126-.1A15.137,15.137,0,0,1,1777.348,670.291Zm.325-.053Zm24.213,10.229,1.607-1.514c-.434-2.455-1.758-6.354-5.793-7.372-2.124-.536-4.435.143-6.88.862-3.089.909-6.486,1.91-9.826.338q.535.5,1.147.974c3.638,2.852,7.461,2.927,10.834,2.993,2.692.052,5.279.1,7.221,1.649A6.613,6.613,0,0,1,1801.886,680.467Z" transform="translate(-1777.247 -669.113)" fill="#371a45"/>
        </g>
        <g id="Group_156" data-name="Group 156" transform="translate(0.543 6.748)">
          <path id="Path_176" data-name="Path 176" d="M1776.871,661.681a9.268,9.268,0,0,0,.387,5.861.163.163,0,0,0,.022.039c6.753,8.7,14.13.448,20.458,2.045,4.646,1.173,5.958,5.829,6.326,8.23l2.4-2.259c-.663-2.2-3.136-8.6-9.858-10.5-5.88-1.667-17.821,2.152-19.451-3.421A.148.148,0,0,0,1776.871,661.681Z" transform="translate(-1776.468 -661.469)" fill="#fd6ccb"/>
          <path id="Path_177" data-name="Path 177" d="M1777.178,667.621a.261.261,0,0,1-.036-.062,9.36,9.36,0,0,1-.392-5.925h0a.25.25,0,0,1,.481-.011c1.006,3.441,6.186,3.215,11.195,3,2.951-.129,6-.263,8.187.357,6.836,1.937,9.325,8.58,9.927,10.57a.1.1,0,0,1-.028.1l-2.4,2.26a.1.1,0,0,1-.17-.058c-.392-2.553-1.726-7-6.251-8.146-2.268-.573-4.648.127-7.166.868-3.7,1.089-7.508,2.209-11.2-.73A13,13,0,0,1,1777.178,667.621Zm26.934,10.008,2.214-2.086c-.624-2.034-3.1-8.482-9.769-10.373-2.152-.61-5.188-.478-8.123-.349-5.087.223-10.348.454-11.4-3.141a.042.042,0,0,0-.044-.031.045.045,0,0,0-.046.035h0a9.155,9.155,0,0,0,.392,5.813c4.261,5.489,8.77,4.163,13.131,2.88,2.545-.75,4.949-1.457,7.271-.871a7.524,7.524,0,0,1,2.881,1.41A10.816,10.816,0,0,1,1804.112,677.629Zm-27.266-15.971h0Z" transform="translate(-1776.446 -661.447)" fill="#102770"/>
        </g>
        <g id="Group_157" data-name="Group 157" transform="translate(0.543 6.748)">
          <path id="Path_178" data-name="Path 178" d="M1776.871,661.681a9.268,9.268,0,0,0,.387,5.861.163.163,0,0,0,.022.039c6.753,8.7,14.13.448,20.458,2.045,4.646,1.173,5.958,5.829,6.326,8.23l2.4-2.259c-.663-2.2-3.136-8.6-9.858-10.5-5.88-1.667-17.821,2.152-19.451-3.421A.148.148,0,0,0,1776.871,661.681Z" transform="translate(-1776.468 -661.469)" fill="#fd6ccb"/>
          <path id="Path_179" data-name="Path 179" d="M1777.178,667.621a.261.261,0,0,1-.036-.062,9.36,9.36,0,0,1-.392-5.925h0a.25.25,0,0,1,.481-.011c1.006,3.441,6.186,3.215,11.195,3,2.951-.129,6-.263,8.187.357,6.836,1.937,9.325,8.58,9.927,10.57a.1.1,0,0,1-.028.1l-2.4,2.26a.1.1,0,0,1-.17-.058c-.392-2.553-1.726-7-6.251-8.146-2.268-.573-4.648.127-7.166.868-3.7,1.089-7.508,2.209-11.2-.73A13,13,0,0,1,1777.178,667.621Zm26.934,10.008,2.214-2.086c-.624-2.034-3.1-8.482-9.769-10.373-2.152-.61-5.188-.478-8.123-.349-5.087.223-10.348.454-11.4-3.141a.042.042,0,0,0-.044-.031.045.045,0,0,0-.046.035h0a9.155,9.155,0,0,0,.392,5.813c4.261,5.489,8.77,4.163,13.131,2.88,2.545-.75,4.949-1.457,7.271-.871a7.524,7.524,0,0,1,2.881,1.41A10.816,10.816,0,0,1,1804.112,677.629Zm-27.266-15.971h0Z" transform="translate(-1776.446 -661.447)" fill="#102770"/>
        </g>
        <g id="Group_158" data-name="Group 158" transform="translate(0.651 6.849)" opacity="0.6">
          <path id="Path_180" data-name="Path 180" d="M1777.157,661.674c1.629,5.573,13.571,1.754,19.451,3.421,6.722,1.905,9.2,8.307,9.858,10.5l-1.025.965c-.759-2.381-3.285-8.428-9.785-10.272-5.548-1.572-16.488,1.736-19.077-2.563a10.023,10.023,0,0,1,.294-2.046A.148.148,0,0,1,1777.157,661.674Z" transform="translate(-1776.578 -661.57)" fill="#fff"/>
        </g>
        <g id="Group_159" data-name="Group 159" transform="translate(0 6.206)">
          <path id="Path_181" data-name="Path 181" d="M1776.634,667.839a.838.838,0,0,1-.11-.19,9.887,9.887,0,0,1-.417-6.26h0a.792.792,0,0,1,1.527-.033c.887,3.034,5.851,2.816,10.651,2.606,2.994-.132,6.09-.267,8.358.376,7.1,2.013,9.678,8.879,10.3,10.935a.644.644,0,0,1-.176.654l-2.4,2.26a.644.644,0,0,1-1.078-.371c-.371-2.42-1.625-6.638-5.847-7.7-2.125-.536-4.435.143-6.88.862-3.682,1.083-7.776,2.288-11.7-.838A13.477,13.477,0,0,1,1776.634,667.839Zm27.7,8.608,1.252-1.18c-.744-2.247-3.2-7.964-9.3-9.691-2.068-.586-5.059-.456-7.951-.329-4.1.18-8.3.364-10.539-1.417a4.1,4.1,0,0,1-.691-.7,8.471,8.471,0,0,0,.578,3.965c4.023,5.137,8.146,3.925,12.509,2.641,2.5-.736,5.092-1.5,7.558-.876a8.064,8.064,0,0,1,3.093,1.512A10.749,10.749,0,0,1,1804.338,676.447Zm-26.686-9.4h0Zm-.921-5.507h0Z" transform="translate(-1775.787 -660.789)" fill="#371a45"/>
        </g>
        <g id="Group_160" data-name="Group 160" transform="translate(1.008 0.542)">
          <path id="Path_182" data-name="Path 182" d="M1777.141,659.741a.149.149,0,0,0,0,.072c1.019,6.342,13.513,2.236,19.57,3.954,6.722,1.905,9.195,8.307,9.858,10.5l.114-.108c-.423-3.52-2.089-10.679-8.65-12.707-8.647-2.675-14.754,2.108-17.052-7.189a.3.3,0,0,0-.5-.133A15.348,15.348,0,0,0,1777.141,659.741Z" transform="translate(-1777.032 -653.934)" fill="#39d5ff"/>
          <path id="Path_183" data-name="Path 183" d="M1777.014,659.807a.263.263,0,0,1,.008-.118h0a15.525,15.525,0,0,1,3.353-5.65.391.391,0,0,1,.39-.115.4.4,0,0,1,.288.292c1.488,6.02,4.629,6.063,8.977,6.122a26.938,26.938,0,0,1,8.007.994c6.491,2.007,8.249,8.876,8.72,12.792a.1.1,0,0,1-.031.086l-.115.107a.1.1,0,0,1-.166-.044c-.594-1.965-3.053-8.524-9.788-10.433-2.152-.61-5.187-.478-8.123-.349-3.991.175-8.084.355-10.173-1.309A3.657,3.657,0,0,1,1777.014,659.807Zm29.5,14.014c-.522-3.912-2.333-10.375-8.537-12.293a26.728,26.728,0,0,0-7.948-.985c-4.44-.061-7.647-.105-9.172-6.278a.2.2,0,0,0-.142-.144.189.189,0,0,0-.19.056,15.3,15.3,0,0,0-3.308,5.571.058.058,0,0,0,0,.026c.64,3.983,6.064,3.745,11.311,3.516,2.951-.129,6-.263,8.187.357a12.824,12.824,0,0,1,4.529,2.329A17.158,17.158,0,0,1,1806.513,673.822Zm-29.4-14.1h0Z" transform="translate(-1777.01 -653.912)" fill="#102770"/>
        </g>
        <g id="Group_161" data-name="Group 161" transform="translate(1.069 0.452)" opacity="0.6">
          <path id="Path_184" data-name="Path 184" d="M1780.928,654.031c2.3,9.3,8.4,4.515,17.051,7.189,6.56,2.028,8.227,9.187,8.649,12.707l-.114.108a18.571,18.571,0,0,0-.956-2.473c-1.014-3.5-3.2-7.614-7.918-9.073-8.647-2.674-14.754,2.108-17.051-7.189a.3.3,0,0,0-.506-.133,15.865,15.865,0,0,0-2.962,4.589c-.012-.059-.024-.116-.034-.176a.15.15,0,0,1,0-.072,15.347,15.347,0,0,1,3.33-5.61A.3.3,0,0,1,1780.928,654.031Z" transform="translate(-1777.085 -653.803)" fill="#fff"/>
        </g>
        <g id="Group_162" data-name="Group 162" transform="translate(0.466)">
          <path id="Path_185" data-name="Path 185" d="M1776.363,659.778a.8.8,0,0,1,.025-.363h0a16.094,16.094,0,0,1,3.474-5.858.94.94,0,0,1,1.6.416c1.387,5.613,4.049,5.651,8.459,5.711a27.346,27.346,0,0,1,8.159,1.019c7.038,2.175,8.707,9.987,9.1,13.245a.64.64,0,0,1-.2.544l-.115.108a.644.644,0,0,1-1.058-.283c-.572-1.9-2.945-8.234-9.417-10.068-2.067-.586-5.058-.456-7.951-.329-4.108.18-8.319.365-10.547-1.41A4.182,4.182,0,0,1,1776.363,659.778Zm28.282,9.144a11.045,11.045,0,0,0-6.945-6.992,26.3,26.3,0,0,0-7.8-.961c-4.357-.06-7.83-.108-9.524-6.059a14.533,14.533,0,0,0-2.728,4.773c.648,3.392,5.548,3.178,10.733,2.95,2.994-.132,6.09-.267,8.358.376a13.365,13.365,0,0,1,4.717,2.425A15.555,15.555,0,0,1,1804.645,668.922ZM1777,659.6h0Zm.617.19" transform="translate(-1776.352 -653.255)" fill="#371a45"/>
        </g>
        <g id="Group_163" data-name="Group 163" transform="translate(0.764 0.453)">
          <path id="Path_186" data-name="Path 186" d="M1780.548,653.8c.912,5.6,5.261,5.927,5.261,5.927-7.864,8.415,1.608,11.656,7.985,12.843h0l3.4.51a6.86,6.86,0,0,1,5.658,4.808l-1.405.623s-1.618-5.056-12.068-4.414h0l-.573.054c-6.5-.618-9.232-4.055-9.232-4.055C1772.615,661.42,1780.548,653.8,1780.548,653.8Z" transform="translate(-1776.715 -653.805)" fill="#371a45" opacity="0.4"/>
        </g>
      </g>
      <g id="Group_173" data-name="Group 173" transform="translate(26.207 45.261)">
        <g id="Group_165" data-name="Group 165" transform="translate(0.505 0.494)">
          <path id="Path_187" data-name="Path 187" d="M1810.55,673.506s-4.032-5.865-1.241-9.672c3.913-5.335,16.874-12.492,20.508-10.812,3.405,1.574,4.368,6.731,4.368,6.731" transform="translate(-1808.235 -652.675)" fill="#fff"/>
          <path id="Path_188" data-name="Path 188" d="M1810.47,673.562a.1.1,0,0,0,.117,0,.1.1,0,0,0,.024-.136c-.039-.059-3.96-5.852-1.242-9.559,1.811-2.469,5.864-5.613,10.326-8.008,4.583-2.461,8.438-3.523,10.061-2.773,3.319,1.535,4.3,6.609,4.314,6.661a.1.1,0,1,0,.192-.036c-.01-.052-1.012-5.224-4.423-6.8-1.7-.787-5.53.25-10.237,2.778-4.485,2.408-8.564,5.574-10.391,8.066-2.8,3.818,1.2,9.725,1.239,9.785A.1.1,0,0,0,1810.47,673.562Z" transform="translate(-1808.217 -652.655)" fill="#371a45"/>
        </g>
        <g id="Group_166" data-name="Group 166" transform="translate(15.228 0.751)">
          <path id="Path_189" data-name="Path 189" d="M1831.8,652.966s4.052,6.255,1.465,10.432c-1.18,1.907-7.178.734-7.178.734s5.775-1.471,6.514-4.56C1833.1,657.51,1831.8,652.966,1831.8,652.966Z" transform="translate(-1826.091 -652.966)" fill="#371a45"/>
        </g>
        <g id="Group_167" data-name="Group 167" transform="translate(0.594 3.339)" opacity="0.4">
          <path id="Path_190" data-name="Path 190" d="M1809.309,664.422c-2.791,3.806,1.241,9.671,1.241,9.671l3.71-2.158c-1.073-1.633-3.341-5.75-1.343-8.866a29.373,29.373,0,0,1,7.276-6.962C1815.842,658.369,1811.348,661.642,1809.309,664.422Z" transform="translate(-1808.325 -656.108)" fill="#371a45"/>
        </g>
        <g id="Group_168" data-name="Group 168">
          <path id="Path_191" data-name="Path 191" d="M1810.056,673.84a.589.589,0,0,0,.852-.793c-.051-.074-3.757-5.575-1.251-8.992,1.771-2.415,5.76-5.5,10.162-7.866,4.383-2.353,8.161-3.437,9.624-2.759,3.095,1.43,4.029,6.256,4.038,6.3a.588.588,0,1,0,1.156-.216c-.041-.222-1.061-5.474-4.7-7.157-2.656-1.227-8.349,1.544-10.673,2.792-4.615,2.478-8.659,5.623-10.555,8.207-3,4.1,1.056,10.1,1.23,10.353A.623.623,0,0,0,1810.056,673.84Z" transform="translate(-1807.604 -652.055)" fill="#371a45"/>
        </g>
        <g id="Group_169" data-name="Group 169" transform="translate(20.866 0.064)">
          <path id="Path_192" data-name="Path 192" d="M1834.88,661.509a.589.589,0,0,0,.939-.325c.927-3.922-1.674-8.559-1.785-8.754a.588.588,0,0,0-1.022.581c.025.045,2.483,4.435,1.662,7.9A.588.588,0,0,0,1834.88,661.509Z" transform="translate(-1832.935 -652.132)" fill="#371a45"/>
        </g>
        <g id="Group_170" data-name="Group 170" transform="translate(2.881 7.379)">
          <path id="Path_193" data-name="Path 193" d="M1819.066,665.821a25.521,25.521,0,0,1-1.518-4.689,53.245,53.245,0,0,0-5.562,3.752c-1.352,1.311-.693,3.862.316,4.248C1813.7,669.667,1819.066,665.821,1819.066,665.821Z" transform="translate(-1811.123 -661.034)" fill="#fff"/>
          <path id="Path_194" data-name="Path 194" d="M1811.178,667.565a2.981,2.981,0,0,1,.718-2.773,52.087,52.087,0,0,1,5.58-3.766.1.1,0,0,1,.09-.006.1.1,0,0,1,.057.071,25.7,25.7,0,0,0,1.511,4.667.1.1,0,0,1-.033.119c-.22.158-5.422,3.871-6.855,3.324a1.072,1.072,0,0,1-.284-.166A2.565,2.565,0,0,1,1811.178,667.565Zm6.28-6.3a50.227,50.227,0,0,0-5.425,3.666,2.787,2.787,0,0,0-.662,2.593,1.992,1.992,0,0,0,.946,1.493c1.255.479,6-2.823,6.607-3.254A26,26,0,0,1,1817.458,661.267Z" transform="translate(-1811.101 -661.013)" fill="#371a45"/>
        </g>
        <g id="Group_171" data-name="Group 171" transform="translate(2.98 7.476)">
          <path id="Path_195" data-name="Path 195" d="M1811.985,664.884c-1.351,1.312-.692,3.861.317,4.247a3.607,3.607,0,0,0,2.239-.554,3,3,0,0,1-.178-4.178,28.1,28.1,0,0,1,3.382-2.4c-.073-.287-.14-.578-.2-.868A53.467,53.467,0,0,0,1811.985,664.884Z" transform="translate(-1811.222 -661.131)" fill="#371a45"/>
        </g>
        <g id="Group_172" data-name="Group 172" transform="translate(2.391 6.889)">
          <path id="Path_196" data-name="Path 196" d="M1810.593,667.559a3.469,3.469,0,0,1,.857-3.222,52.379,52.379,0,0,1,5.67-3.834.588.588,0,0,1,.879.39,25.117,25.117,0,0,0,1.478,4.562.588.588,0,0,1-.194.717c-1.319.946-5.743,3.984-7.316,3.383a1.568,1.568,0,0,1-.412-.239A3.018,3.018,0,0,1,1810.593,667.559Zm6.435-5.624a42.3,42.3,0,0,0-4.76,3.245,2.388,2.388,0,0,0-.523,2.142,1.622,1.622,0,0,0,.641,1.134c.561.215,3.224-1.151,5.828-2.969A26.854,26.854,0,0,1,1817.028,661.934Z" transform="translate(-1810.507 -660.418)" fill="#371a45"/>
        </g>
      </g>
      <g id="Group_174" data-name="Group 174" transform="translate(61.094 76.012)">
        <path id="Path_197" data-name="Path 197" d="M1864.575,689.507a54.369,54.369,0,0,0,12.463,4.065,5.058,5.058,0,0,1,1.608,9.237l-.172.106c-4.369,2.656-14.558-.1-20.918-5.332s-7.478-3.719-7.478-3.719" transform="translate(-1849.979 -689.409)" fill="#fff"/>
        <path id="Path_198" data-name="Path 198" d="M1849.995,693.92l0,0a.1.1,0,0,0,.137-.021h0a.642.642,0,0,1,.42-.156c.727-.073,2.594.337,6.917,3.892q.146.12.3.239c6.523,5.2,16.5,7.674,20.736,5.1l.173-.106a5.156,5.156,0,0,0-1.639-9.416A54.9,54.9,0,0,1,1864.6,689.4a.1.1,0,1,0-.09.173A55,55,0,0,0,1877,693.647a4.96,4.96,0,0,1,1.577,9.057l-.171.106c-4.237,2.577-14.348-.007-20.806-5.323-4.42-3.635-6.343-4.026-7.1-3.932a.753.753,0,0,0-.524.23A.1.1,0,0,0,1849.995,693.92Z" transform="translate(-1849.958 -689.388)" fill="#371a45"/>
      </g>
      <g id="Group_175" data-name="Group 175" transform="translate(61.865 78.338)" opacity="0.4">
        <path id="Path_199" data-name="Path 199" d="M1857.308,692.211l-6.414,1.928c.882.01,2.808.633,6.805,3.92,6.36,5.231,16.548,7.989,20.919,5.333.057-.035.114-.07.171-.107a5.058,5.058,0,0,0,1.694-1.718c-5.012.944-13.195-1.716-18.607-6.168A27.647,27.647,0,0,0,1857.308,692.211Z" transform="translate(-1850.894 -692.211)" fill="#371a45"/>
      </g>
      <g id="Group_176" data-name="Group 176" transform="translate(61.095 80.168)" opacity="0.3">
        <path id="Path_200" data-name="Path 200" d="M1850.077,694.753l.673-.2C1850.253,694.546,1850.09,694.736,1850.077,694.753Z" transform="translate(-1849.979 -694.454)" fill="#6b184e"/>
        <path id="Path_201" data-name="Path 201" d="M1850,694.808a.1.1,0,0,0,.089.017l.674-.2a.1.1,0,0,0,.068-.108.1.1,0,0,0-.1-.084.914.914,0,0,0-.751.238.1.1,0,0,0,0,.116A.09.09,0,0,0,1850,694.808Z" transform="translate(-1849.958 -694.433)" fill="#371a45"/>
      </g>
      <g id="Group_177" data-name="Group 177" transform="translate(65.272 77.507)" opacity="0.3">
        <path id="Path_202" data-name="Path 202" d="M1855.148,691.523l.673-.2C1855.324,691.316,1855.161,691.507,1855.148,691.523Z" transform="translate(-1855.051 -691.224)" fill="#6b184e"/>
        <path id="Path_203" data-name="Path 203" d="M1855.066,691.579a.1.1,0,0,0,.089.017l.674-.2a.1.1,0,0,0,.068-.108.1.1,0,0,0-.1-.084.912.912,0,0,0-.751.238.1.1,0,0,0,0,.116A.1.1,0,0,0,1855.066,691.579Z" transform="translate(-1855.029 -691.203)" fill="#371a45"/>
      </g>
      <g id="Group_178" data-name="Group 178" transform="translate(60.604 75.522)">
        <path id="Path_204" data-name="Path 204" d="M1849.478,693.388a1.219,1.219,0,0,1,.858-.425c1.474-.182,3.986,1.179,7.467,4.04,6.315,5.2,16.155,7.766,20.239,5.283l.165-.1a4.47,4.47,0,0,0-1.42-8.164,54.45,54.45,0,0,1-12.609-4.118.588.588,0,1,1,.543-1.043,54.442,54.442,0,0,0,12.315,4.012,5.647,5.647,0,0,1,1.795,10.311l-.178.109c-2.23,1.356-5.84,1.483-10.166.359a30.86,30.86,0,0,1-11.431-5.739c-5.123-4.217-6.554-3.81-6.693-3.754a.587.587,0,0,1-.761.053l-.017-.013A.587.587,0,0,1,1849.478,693.388Zm.944.7h0Zm0,0h0Z" transform="translate(-1849.362 -688.793)" fill="#371a45"/>
      </g>
      <g id="Group_179" data-name="Group 179" transform="translate(7.975 49.123)">
        <path id="Path_205" data-name="Path 205" d="M1786.927,682.155a6.145,6.145,0,0,0,3.787,9.888c5.55.885,11.505-1,13.053-1.541.193-.068.318-.115.366-.132l.015-.006.005,0,5.445,9.758a71.552,71.552,0,0,1-6.617,4.388,5.963,5.963,0,0,0,4.492,10.9q1.411-.35,2.782-.735c25.669-7.173,40.36-22.61,41.934-24.511a40.6,40.6,0,0,0,2.88-3.95l-11.974-10.093-1.2-2.906-14.348-16.356c-2.411,2.334-4.625,4.38-6.678,6.186a108.929,108.929,0,0,1-11.5,8.968c-4.385,2.93-15.472,6.877-19.451,8.1A6.117,6.117,0,0,0,1786.927,682.155Z" transform="translate(-1785.49 -656.765)" fill="#fff"/>
        <path id="Path_206" data-name="Path 206" d="M1800.674,712.447a6.061,6.061,0,0,1,2.234-8.043,70.012,70.012,0,0,0,6.542-4.329l-5.363-9.612c-.065.024-.169.062-.309.11-1.672.586-7.56,2.429-13.1,1.545a6.239,6.239,0,0,1-.81-12.116c3.622-1.115,14.955-5.1,19.424-8.089a109.679,109.679,0,0,0,11.49-8.961c2.1-1.847,4.347-3.928,6.675-6.183a.1.1,0,0,1,.072-.027.1.1,0,0,1,.069.033l14.349,16.355a.106.106,0,0,1,.016.027l1.191,2.885,11.955,10.077a.1.1,0,0,1,.02.127,40.973,40.973,0,0,1-2.888,3.96c-.138.167-14.552,16.879-41.983,24.544-.9.254-1.839.5-2.785.736a6.06,6.06,0,0,1-6.8-3.04Zm42.337-36.269a.106.106,0,0,1-.028-.038l-1.193-2.891-14.27-16.266c-2.3,2.229-4.528,4.287-6.609,6.118a110.064,110.064,0,0,1-11.51,8.976c-4.488,3-15.846,7-19.476,8.113a6.006,6.006,0,0,0-2.942,2,6.046,6.046,0,0,0,3.725,9.73c5.5.876,11.344-.955,13.006-1.537.17-.059.286-.1.344-.124l.016,0,.015-.006a.116.116,0,0,1,.033-.01.1.1,0,0,1,.1.05l5.444,9.758a.1.1,0,0,1-.025.125,69.4,69.4,0,0,1-6.627,4.395,5.865,5.865,0,0,0,4.418,10.724c.943-.234,1.878-.481,2.779-.735,27.373-7.649,41.747-24.313,41.885-24.479a41.57,41.57,0,0,0,2.828-3.867Zm-38.84,14.254h0Z" transform="translate(-1785.469 -656.744)" fill="#371a45"/>
      </g>
      <g id="Group_180" data-name="Group 180" transform="translate(22.847 95.256)">
        <path id="Path_207" data-name="Path 207" d="M1808.722,712.75s-.527,7.665,6.386,10.846l-2.711,1.277-2.146.508-2.635-.24-1.921-1.531-1.5-1.341-.559-1.522-.115-1.807.307-2.407,1.733-1.74Z" transform="translate(-1803.524 -712.75)" fill="#fec2e6"/>
      </g>
      <g id="Group_181" data-name="Group 181" transform="translate(8.665 71.7)">
        <path id="Path_208" data-name="Path 208" d="M1792.147,684.153s-1.053,7.925,5.716,12.315l-2.681.3-2.147.508-2.634-.24-1.921-1.53-1.5-1.341-.559-1.522-.116-1.807.307-2.407,1.285-2.4Z" transform="translate(-1786.307 -684.153)" fill="#fec2e6"/>
      </g>
      <g id="Group_182" data-name="Group 182" transform="translate(22.568 82.073)" opacity="0.4">
        <path id="Path_209" data-name="Path 209" d="M1807.005,696.936c.194-.068.183.484.23.466l.015-.006.005,0,5.444,9.758a71.486,71.486,0,0,1-6.617,4.388,5.962,5.962,0,0,0,4.492,10.9q1.411-.35,2.782-.735c-4.615-.639-6.972-1.984-7.409-4.262-.545-2.851,2.841-5.936,5.238-6.069a14.833,14.833,0,0,1,4.132.464,6.273,6.273,0,0,0,1.8-4.5c-.4-5.267-5.2-8.86-7.331-10C1808.478,696.641,1807.293,696.633,1807.005,696.936Z" transform="translate(-1803.185 -696.746)" fill="#371a45"/>
      </g>
      <g id="Group_183" data-name="Group 183" transform="translate(8.073 55.407)" opacity="0.4">
        <path id="Path_210" data-name="Path 210" d="M1786.927,683.479a6.145,6.145,0,0,0,3.787,9.888c6.245,1,13-1.515,13.419-1.673-7.232,2.512-14.658,1.254-15.3-2.877s1.24-4.557,6.272-6.273c4.478-1.526,12.306-4.33,19.594-9.885,4.839-3.69,5.961-6.688,6.168-8.287a108.928,108.928,0,0,1-11.5,8.968c-4.385,2.93-15.472,6.877-19.451,8.1A6.117,6.117,0,0,0,1786.927,683.479Z" transform="translate(-1785.588 -664.372)" fill="#371a45"/>
      </g>
      <g id="Group_184" data-name="Group 184" transform="translate(21.979 77.988)">
        <path id="Path_211" data-name="Path 211" d="M1804.944,720.91a6.529,6.529,0,0,0,5.646,1.231c29.354-7.278,44.878-25.264,45.027-25.443a40.929,40.929,0,0,0,2.927-4.012.588.588,0,0,0-1-.621,40.542,40.542,0,0,1-2.834,3.884,68.97,68.97,0,0,1-12.579,10.707A96.754,96.754,0,0,1,1810.307,721a5.375,5.375,0,0,1-4.048-9.829,69.911,69.911,0,0,0,6.676-4.427.588.588,0,0,0-.723-.928,68.607,68.607,0,0,1-6.558,4.347,6.556,6.556,0,0,0-.71,10.748Z" transform="translate(-1802.47 -691.787)" fill="#371a45"/>
      </g>
      <g id="Group_185" data-name="Group 185" transform="translate(7.488 49.05)">
        <path id="Path_212" data-name="Path 212" d="M1812.26,704.68a34.414,34.414,0,0,0-1.691-3.793c-.631-1.226-1.279-2.444-1.96-3.642s-1.364-2.4-2.042-3.6-1.357-2.4-2.026-3.607a.588.588,0,0,0-.717-.265l-.009,0c-.7.258-1.441.49-2.176.694-.368.108-.742.2-1.114.292s-.746.177-1.123.252a29.828,29.828,0,0,1-4.547.6l-.571.026c-.19.007-.381,0-.571,0l-.57,0c-.19,0-.379-.019-.568-.027-.378-.024-.757-.037-1.13-.094a10.617,10.617,0,0,1-1.1-.164,5.416,5.416,0,0,1-3.385-2.353,5.605,5.605,0,0,1-.824-4.051,5.539,5.539,0,0,1,2.2-3.5c.144-.1.292-.2.442-.29s.3-.179.469-.243a4.184,4.184,0,0,1,.49-.2l.254-.089.282-.089c.752-.235,1.495-.484,2.238-.735q2.225-.758,4.426-1.581c2.933-1.1,5.846-2.263,8.693-3.614a31.76,31.76,0,0,0,4.169-2.306q1.956-1.316,3.839-2.732c2.513-1.883,4.931-3.885,7.289-5.949,2.328-2.092,4.841-4,6.624-6.66a.2.2,0,0,0-.273-.282c-2.707,1.683-4.762,4.029-7.126,6.057-2.34,2.049-4.735,4.032-7.22,5.892q-1.862,1.4-3.79,2.7a30.761,30.761,0,0,1-4.019,2.22c-2.794,1.327-5.687,2.48-8.6,3.574q-2.187.814-4.394,1.569c-.736.25-1.473.5-2.211.727l-.277.086-.3.1a5.515,5.515,0,0,0-.593.241c-.2.081-.38.2-.569.3s-.363.228-.536.352a6.712,6.712,0,0,0-2.667,4.239,6.784,6.784,0,0,0,1,4.905,6.591,6.591,0,0,0,4.112,2.857,11.485,11.485,0,0,0,1.219.185c.4.06.8.076,1.2.1.2.009.4.03.6.029l.6,0c.2,0,.4.006.6,0l.6-.028a31.027,31.027,0,0,0,4.729-.621c.39-.077.774-.173,1.161-.26s.77-.191,1.151-.3c.768-.214,1.515-.445,2.284-.73l-.727-.262q1.012,1.8,2.006,3.618c.665,1.208,1.313,2.425,1.988,3.627s1.358,2.4,2.071,3.581a34.236,34.236,0,0,0,2.34,3.431.2.2,0,0,0,.341-.191Z" transform="translate(-1784.878 -656.655)" fill="#371a45"/>
      </g>
      <g id="Group_186" data-name="Group 186" transform="translate(75.533 71.626)">
        <path id="Path_213" data-name="Path 213" d="M1867.708,688.678a.616.616,0,0,0,.139.082.589.589,0,0,0,.77-.315l1.5-3.566a.588.588,0,1,0-1.084-.456l-1.5,3.567A.589.589,0,0,0,1867.708,688.678Z" transform="translate(-1867.487 -684.063)" fill="#371a45"/>
      </g>
      <g id="Group_187" data-name="Group 187" transform="translate(67.574 65.357)">
        <path id="Path_214" data-name="Path 214" d="M1857.824,676.452" transform="translate(-1857.824 -676.452)" fill="none" stroke="#390075" stroke-linecap="round" stroke-linejoin="round" stroke-width="30.026"/>
      </g>
      <g id="Group_188" data-name="Group 188" transform="translate(55.233 63.317)">
        <path id="Path_215" data-name="Path 215" d="M1842.842,673.975" transform="translate(-1842.842 -673.975)" fill="#f9a528" stroke="#390075" stroke-linecap="round" stroke-linejoin="round" stroke-width="5"/>
      </g>
      <g id="Group_189" data-name="Group 189" transform="translate(49.851 45.216)">
        <path id="Path_216" data-name="Path 216" d="M1836.509,656.027c-.748,3.556,3.6,11.182,10.737,18.4s14.73,11.64,18.29,10.925l3.854-3.815a.315.315,0,0,0-.227-.538c-3.825-.024-10.823-4.312-17.443-11s-10.835-13.727-10.822-17.552a.314.314,0,0,0-.535-.232Z" transform="translate(-1836.329 -652.021)" fill="#fff"/>
        <path id="Path_217" data-name="Path 217" d="M1847.157,674.471c-7-7.074-11.529-14.848-10.765-18.486a.1.1,0,0,1,.027-.049l3.855-3.815a.4.4,0,0,1,.446-.088.416.416,0,0,1,.256.39c-.013,3.922,4.324,10.948,10.793,17.483s13.454,10.947,17.375,10.972a.414.414,0,0,1,.388.26.4.4,0,0,1-.092.445l-3.854,3.814a.1.1,0,0,1-.05.026c-2.711.544-7.683-1.865-12.937-6.05A62.485,62.485,0,0,1,1847.157,674.471Zm22.144,6.972a.207.207,0,0,0,.049-.231.222.222,0,0,0-.208-.138c-3.97-.025-11.007-4.457-17.513-11.029s-10.863-13.652-10.85-17.621a.22.22,0,0,0-.136-.209.207.207,0,0,0-.233.046l-3.833,3.795c-.722,3.591,3.778,11.267,10.718,18.279s14.577,11.594,18.173,10.9Z" transform="translate(-1836.308 -652)" fill="#371a45"/>
      </g>
      <g id="Group_190" data-name="Group 190" transform="translate(49.948 45.314)">
        <path id="Path_218" data-name="Path 218" d="M1836.509,656.027c-.748,3.556,3.6,11.182,10.737,18.4s14.73,11.64,18.29,10.925l3.854-3.815a.315.315,0,0,0-.227-.538c-3.825-.024-10.823-4.312-17.443-11s-10.835-13.727-10.822-17.552a.314.314,0,0,0-.535-.232Z" transform="translate(-1836.426 -652.119)" fill="#9027f4"/>
      </g>
      <g id="Group_191" data-name="Group 191" transform="translate(52.298 45.727)" opacity="0.4">
        <path id="Path_219" data-name="Path 219" d="M1840.477,652.685l-1.2,1.185c.165-.163.481,0,.507.261.346,3.468,4.823,10.249,11.442,16.937s13.358,11.234,16.822,11.617c.257.028.42.346.256.507l1.2-1.184c.164-.162,0-.481-.256-.508-3.464-.381-10.2-4.928-16.821-11.617s-11.1-13.469-11.444-16.936C1840.957,652.688,1840.641,652.523,1840.477,652.685Z" transform="translate(-1839.279 -652.621)" fill="#fff"/>
      </g>
      <g id="Group_192" data-name="Group 192" transform="translate(50.16 47.183)">
        <path id="Path_220" data-name="Path 220" d="M1838.613,654.388l-1.813,1.794c-.887,3.7,3.35,11.426,10.492,18.641s14.834,11.536,18.536,10.681l1.813-1.794c-3.7.854-11.393-3.463-18.537-10.681S1837.725,658.084,1838.613,654.388Z" transform="translate(-1836.683 -654.388)" fill="#371a45"/>
      </g>
      <g id="Group_193" data-name="Group 193" transform="translate(49.362 44.726)">
        <path id="Path_221" data-name="Path 221" d="M1846.7,674.712c-7.225-7.3-11.7-15.084-10.9-18.932a.589.589,0,0,1,.161-.3l3.855-3.815a.9.9,0,0,1,.988-.19.893.893,0,0,1,.549.831c-.022,3.738,4.358,10.79,10.651,17.149s13.3,10.812,17.041,10.826a.9.9,0,0,1,.625,1.544l-2.552,2.527a4.8,4.8,0,0,1-4.578,1.236c-2.849-.748-6.528-2.88-10.319-5.9A63.531,63.531,0,0,1,1846.7,674.712Zm4.472-4.428c-6.269-6.333-10.569-13.173-10.961-17.348l-3.286,3.253c-.46,3.035,2.991,10,10.611,17.7,5.4,5.457,11.267,9.506,15.308,10.568a3.62,3.62,0,0,0,3.45-.935l2.116-2.094C1864.244,680.99,1857.448,676.619,1851.176,670.283Z" transform="translate(-1835.714 -651.405)" fill="#371a45"/>
      </g>
      <g id="Group_195" data-name="Group 195" transform="translate(40.304 38.039)">
        <g id="Group_194" data-name="Group 194">
          <path id="Path_222" data-name="Path 222" d="M1835.674,662.37a53.41,53.41,0,0,1,1.916-12.739,4.971,4.971,0,0,0-7.407-5.48l-.169.1c-4.257,2.669-6.323,12.835-4.527,20.726" transform="translate(-1824.739 -643.308)" fill="#fff"/>
          <path id="Path_223" data-name="Path 223" d="M1825.4,665.037a.1.1,0,0,0,.156-.1c-1.824-8.012.356-18.034,4.483-20.62l.168-.1a4.873,4.873,0,0,1,7.262,5.371,54.085,54.085,0,0,0-1.919,12.766.1.1,0,0,0,.1.1.1.1,0,0,0,.1-.1,53.879,53.879,0,0,1,1.912-12.713,5.068,5.068,0,0,0-7.553-5.588l-.17.1c-4.188,2.625-6.41,12.748-4.57,20.83A.1.1,0,0,0,1825.4,665.037Z" transform="translate(-1824.718 -643.287)" fill="#371a45"/>
        </g>
      </g>
      <g id="Group_196" data-name="Group 196" transform="translate(41.83 37.824)">
        <path id="Path_224" data-name="Path 224" d="M1837.365,651.769s-5.577,2.867-10.8-2.862l2.019-3.085,1.4-1.406,2.553-.75.919-.639,1.771.815,1.782,1.26,1.165,2.247-.282,2.216Z" transform="translate(-1826.57 -643.026)" fill="#fec2e6"/>
      </g>
      <g id="Group_198" data-name="Group 198" transform="translate(40.402 38.214)">
        <g id="Group_197" data-name="Group 197" opacity="0.3">
          <path id="Path_225" data-name="Path 225" d="M1825.486,665h0a5.874,5.874,0,0,0,2.8-5.529c-.536-6.153.9-12.783,3.638-15.969a5.054,5.054,0,0,0-1.741.667l-.169.105C1825.756,646.94,1823.69,657.107,1825.486,665Z" transform="translate(-1824.837 -643.499)" fill="#371a45"/>
        </g>
      </g>
      <g id="Group_200" data-name="Group 200" transform="translate(39.817 37.552)">
        <g id="Group_199" data-name="Group 199">
          <path id="Path_226" data-name="Path 226" d="M1835.744,662.242a15.822,15.822,0,0,0,.572-2.879c.132-.96.227-1.926.35-2.89s.292-1.922.474-2.877.4-1.905.624-2.851l.174-.709.087-.354.087-.4a5.64,5.64,0,0,0,.072-1.637,5.455,5.455,0,0,0-1.293-2.979,5.675,5.675,0,0,0-2.721-1.757,5.436,5.436,0,0,0-3.248.064c-.129.048-.258.093-.386.144l-.372.171-.357.2a3.875,3.875,0,0,0-.334.21,6.739,6.739,0,0,0-1.223,1.043,11.068,11.068,0,0,0-1.74,2.565,21.8,21.8,0,0,0-1.86,5.741,31.136,31.136,0,0,0-.526,5.97c0,.5.021,1,.047,1.5s.044,1,.084,1.5c.025.249.049.5.1.747.021.123.047.247.075.37s.052.245.087.367a5.911,5.911,0,0,0,.258.717,3.908,3.908,0,0,0,.4.678.215.215,0,0,0,.3.042.218.218,0,0,0,.079-.121l0-.007a4.065,4.065,0,0,0,.093-.762,6.052,6.052,0,0,0,0-.732c-.026-.482-.074-.958-.138-1.433s-.13-.952-.156-1.432-.046-.961-.047-1.442a29.882,29.882,0,0,1,.5-5.742,20.671,20.671,0,0,1,1.753-5.427,9.932,9.932,0,0,1,1.55-2.294,5.55,5.55,0,0,1,1.009-.863,3.136,3.136,0,0,1,.289-.182l.286-.159.3-.137.3-.114a4.25,4.25,0,0,1,2.547-.05,4.493,4.493,0,0,1,2.156,1.394,4.265,4.265,0,0,1,1.016,2.337,4.411,4.411,0,0,1-.058,1.292l-.071.324-.088.36-.178.721c-.232.962-.441,1.929-.635,2.9s-.356,1.947-.522,2.925a24.174,24.174,0,0,0-.363,2.955,8.534,8.534,0,0,0,.252,3,.2.2,0,0,0,.253.137.2.2,0,0,0,.136-.132Z" transform="translate(-1824.126 -642.696)" fill="#371a45"/>
        </g>
      </g>
      <g id="Group_201" data-name="Group 201" transform="translate(50.319 96.027)">
        <path id="Path_227" data-name="Path 227" d="M1836.876,713.687" transform="translate(-1836.876 -713.687)" fill="#f9a528" stroke="#390075" stroke-linecap="round" stroke-linejoin="round" stroke-width="5"/>
      </g>
      <g id="Group_202" data-name="Group 202" transform="translate(43.102 93.542)">
        <path id="Path_228" data-name="Path 228" d="M1828.114,710.67" transform="translate(-1828.114 -710.67)" fill="none" stroke="#390075" stroke-linecap="round" stroke-linejoin="round" stroke-width="30.026"/>
      </g>
      <g id="Group_203" data-name="Group 203" transform="translate(30.594 69.542)">
        <path id="Path_229" data-name="Path 229" d="M1813.151,703.317a.586.586,0,0,0,.506.111c8.6-2.116,16.98-7.69,22.5-11.994a99.325,99.325,0,0,0,10-8.91.588.588,0,1,0-.855-.808c-.157.166-15.837,16.611-31.926,20.569a.588.588,0,0,0-.226,1.031Z" transform="translate(-1812.929 -681.532)" fill="#371a45"/>
      </g>
      <g id="Group_204" data-name="Group 204" transform="translate(87.798 37.79)">
        <path id="Path_230" data-name="Path 230" d="M1893.828,643.818a6.24,6.24,0,0,1,2.062,8.109,6.311,6.311,0,0,1-3.166,2.905c-3.806,1.616-7.363-1.124-10.347-4.868,0,0,9.069-3.593,9.934-6.979A8.614,8.614,0,0,1,1893.828,643.818Z" transform="translate(-1882.377 -642.985)" fill="#fef26b"/>
      </g>
      <g id="Group_205" data-name="Group 205" transform="translate(87.798 43.716)">
        <path id="Path_231" data-name="Path 231" d="M1882.377,651.232c2.984,3.744,6.54,6.483,10.347,4.867a6.31,6.31,0,0,0,3.166-2.9,6.122,6.122,0,0,0,.674-2.091,6.268,6.268,0,0,1-2.831,2.347c-3.241,1.375-6.3-.4-8.979-3.272C1883.382,650.835,1882.377,651.232,1882.377,651.232Z" transform="translate(-1882.377 -650.179)" fill="#371a45"/>
      </g>
      <g id="Group_206" data-name="Group 206" transform="translate(87.21 37.203)">
        <path id="Path_232" data-name="Path 232" d="M1881.792,650.2a.588.588,0,0,1,.243-.914c2.446-.969,8.933-4.04,9.58-6.577a.587.587,0,0,1,.783-.4,9.159,9.159,0,0,1,1.633.893,6.873,6.873,0,0,1-1.2,12.043c-2.486,1.055-5.012.548-7.652-1.554A21.847,21.847,0,0,1,1881.792,650.2Zm11.582-6.025h0a9.091,9.091,0,0,0-.868-.519c-1.432,2.856-7.141,5.5-9.3,6.419,3.325,3.952,6.327,5.288,9.161,4.085a5.727,5.727,0,0,0,2.876-2.64,5.632,5.632,0,0,0-1.495-7.069C1893.629,644.359,1893.5,644.268,1893.373,644.179Z" transform="translate(-1881.663 -642.271)" fill="#371a45"/>
      </g>
      <g id="Group_207" data-name="Group 207" transform="translate(82.639 33.11)">
        <path id="Path_233" data-name="Path 233" d="M1892.354,641.253a3.829,3.829,0,0,1-.095,3.594,10,10,0,0,1-6.736,5.188c-5.547.992-9.285-6.2-9.285-6.2s8.373-4.343,9.477-6.361A6.31,6.31,0,0,1,1892.354,641.253Z" transform="translate(-1876.136 -637.323)" fill="#fd6ccb"/>
        <path id="Path_234" data-name="Path 234" d="M1876.126,643.865a.1.1,0,0,1-.008-.077.1.1,0,0,1,.05-.059c.083-.043,8.358-4.352,9.435-6.319a.1.1,0,0,1,.07-.051,6.458,6.458,0,0,1,6.749,3.829h0a3.925,3.925,0,0,1-.1,3.688,10.2,10.2,0,0,1-6.808,5.238,6.992,6.992,0,0,1-5.632-1.7A16.216,16.216,0,0,1,1876.126,643.865Zm16.114-2.587a6.264,6.264,0,0,0-6.483-3.727c-1.141,1.945-8.447,5.81-9.4,6.31.455.82,4.053,6.96,9.128,6.052a9.814,9.814,0,0,0,6.666-5.137,3.722,3.722,0,0,0,.091-3.5Z" transform="translate(-1876.114 -637.303)" fill="#102770"/>
      </g>
      <g id="Group_208" data-name="Group 208" transform="translate(82.741 38.643)">
        <path id="Path_235" data-name="Path 235" d="M1876.238,645s3.738,7.187,9.285,6.2a10,10,0,0,0,6.737-5.188,3.82,3.82,0,0,0,.5-1.792,9.7,9.7,0,0,1-6.333,4.52c-3.913.7-6.927-2.672-8.361-4.719C1876.985,644.616,1876.238,645,1876.238,645Z" transform="translate(-1876.238 -644.02)" fill="#371a45"/>
      </g>
      <g id="Group_209" data-name="Group 209" transform="translate(82.153 32.626)">
        <path id="Path_236" data-name="Path 236" d="M1875.59,643.987a.587.587,0,0,1,.251-.793c3.3-1.713,8.485-4.757,9.232-6.121a.588.588,0,0,1,.4-.295,6.955,6.955,0,0,1,7.276,4.091h0a4.41,4.41,0,0,1-.11,4.145,10.673,10.673,0,0,1-7.145,5.477,7.465,7.465,0,0,1-6.04-1.782A16.368,16.368,0,0,1,1875.59,643.987Zm16.11-2.6a5.731,5.731,0,0,0-5.766-3.49c-1.4,1.911-7.1,5.037-9.007,6.05.953,1.56,4.142,6.136,8.365,5.38a9.349,9.349,0,0,0,6.329-4.9,3.236,3.236,0,0,0,.078-3.041Z" transform="translate(-1875.524 -636.716)" fill="#371a45"/>
      </g>
      <g id="Group_210" data-name="Group 210" transform="translate(79.121 30.247)">
        <path id="Path_237" data-name="Path 237" d="M1885.04,635.466a2.5,2.5,0,0,1,.788,3.112,9.917,9.917,0,0,1-3.843,4.263,6.89,6.89,0,0,1-7.5-.028c-4.287-2.656-1.829-7.994-1.829-7.994a5.79,5.79,0,0,0,5.942-.215,4.343,4.343,0,0,1,3.279-.538A8.856,8.856,0,0,1,1885.04,635.466Z" transform="translate(-1871.862 -633.849)" fill="#39d5ff"/>
        <path id="Path_238" data-name="Path 238" d="M1872.542,634.755a.1.1,0,0,1,.146-.044,5.726,5.726,0,0,0,5.836-.216,4.417,4.417,0,0,1,3.357-.55,8.873,8.873,0,0,1,3.2,1.416,2.6,2.6,0,0,1,.821,3.238,10.031,10.031,0,0,1-3.882,4.307,6.966,6.966,0,0,1-7.609-.029,6.159,6.159,0,0,1-.592-.416C1870.33,639.684,1872.517,634.806,1872.542,634.755Zm12.42.77h0a8.689,8.689,0,0,0-3.129-1.382,4.21,4.21,0,0,0-3.2.525,5.952,5.952,0,0,1-5.948.273c-.306.746-2.006,5.385,1.834,7.763a6.772,6.772,0,0,0,7.4.027,9.831,9.831,0,0,0,3.8-4.22,2.4,2.4,0,0,0-.667-2.919Z" transform="translate(-1871.842 -633.827)" fill="#102770"/>
      </g>
      <g id="Group_211" data-name="Group 211" transform="translate(79.211 31.218)">
        <path id="Path_239" data-name="Path 239" d="M1872.653,635.006s-2.458,5.338,1.829,7.993a6.89,6.89,0,0,0,7.5.028,9.916,9.916,0,0,0,3.843-4.263,2.476,2.476,0,0,0,.206-.629,9.573,9.573,0,0,1-2.883,2.647,6.886,6.886,0,0,1-7.5-.028,5.363,5.363,0,0,1-2.482-5.493A3.866,3.866,0,0,1,1872.653,635.006Z" transform="translate(-1871.952 -635.006)" fill="#371a45"/>
      </g>
      <g id="Group_212" data-name="Group 212" transform="translate(78.62 29.759)">
        <path id="Path_240" data-name="Path 240" d="M1871.992,634.447a.589.589,0,0,1,.846-.253,5.173,5.173,0,0,0,5.323-.217,4.894,4.894,0,0,1,3.723-.61,9.373,9.373,0,0,1,3.375,1.495h0a3.093,3.093,0,0,1,.973,3.843,10.516,10.516,0,0,1-4.073,4.515,7.524,7.524,0,0,1-8.112-.034,6.491,6.491,0,0,1-.635-.446C1870.4,640.342,1871.123,636.335,1871.992,634.447Zm12.577,1.368h0a8.2,8.2,0,0,0-2.953-1.3,3.727,3.727,0,0,0-2.835.465,6.372,6.372,0,0,1-5.937.527c-.459,1.357-1.234,4.788,1.824,6.682a6.309,6.309,0,0,0,6.893.022,9.347,9.347,0,0,0,3.613-4.012,1.914,1.914,0,0,0-.532-2.328C1884.617,635.851,1884.593,635.833,1884.569,635.816Z" transform="translate(-1871.234 -633.235)" fill="#371a45"/>
      </g>
      <g id="Group_213" data-name="Group 213" transform="translate(36.512 68.029)">
        <path id="Path_241" data-name="Path 241" d="M1846.578,699.272a2.264,2.264,0,0,0,0-3.548,75.328,75.328,0,0,1-7-6.291,45.6,45.6,0,0,1-6.422-8.616,2.263,2.263,0,0,0-3.241-.719l-8.824,6.088a2.264,2.264,0,0,0-.648,3.044,56.16,56.16,0,0,0,14.4,15.854,2.249,2.249,0,0,0,2.246.209A47.887,47.887,0,0,0,1846.578,699.272Z" transform="translate(-1820.114 -679.696)" fill="#fff"/>
      </g>
      <g id="Group_215" data-name="Group 215" transform="translate(46.049 81.272)">
        <g id="Group_214" data-name="Group 214">
          <path id="Path_242" data-name="Path 242" d="M1831.914,703.85a.589.589,0,0,0,.727,0l5.229-4.053,2.764.9a.59.59,0,0,0,.531-.086l5.132-3.777a.589.589,0,0,0-.7-.948l-4.889,3.6-2.773-.9a.585.585,0,0,0-.541.095l-5.476,4.243a.589.589,0,0,0-.1.825A.6.6,0,0,0,1831.914,703.85Z" transform="translate(-1831.693 -695.774)" fill="#371a45"/>
        </g>
      </g>
      <g id="Group_225" data-name="Group 225" transform="translate(43.745 74.845)">
        <g id="Group_216" data-name="Group 216" transform="translate(0.373 0.372)">
          <path id="Path_243" data-name="Path 243" d="M1833.3,692.561c-.232.19-2.365,1.4-2.365,1.4l-1.08-1.318a2.795,2.795,0,0,1,4.2-3.441l1.08,1.317S1833.681,692.252,1833.3,692.561Z" transform="translate(-1829.368 -688.443)" fill="#22a7f0"/>
          <path id="Path_244" data-name="Path 244" d="M1829.763,692.68a2.89,2.89,0,0,1,4.348-3.565l1.132,1.38-.052.063c-.06.071-1.465,1.747-1.845,2.058h0c-.235.193-2.292,1.355-2.379,1.4l-.072.04Zm3.459-.215c.326-.267,1.5-1.659,1.766-1.971l-1.029-1.254a2.7,2.7,0,0,0-4.045,3.317l1.028,1.254c.754-.427,2.107-1.2,2.28-1.345Z" transform="translate(-1829.347 -688.423)" fill="#371a45"/>
        </g>
        <g id="Group_217" data-name="Group 217" transform="translate(0.369 0.369)">
          <path id="Path_245" data-name="Path 245" d="M1833.3,692.561c-.232.19-2.365,1.4-2.365,1.4l-1.08-1.318a2.795,2.795,0,0,1,4.2-3.441l1.08,1.317S1833.681,692.252,1833.3,692.561Z" transform="translate(-1829.364 -688.44)" fill="#39d5ff"/>
          <path id="Path_246" data-name="Path 246" d="M1830.839,694l-1.08-1.318a2.893,2.893,0,0,1,4.353-3.569l1.081,1.317a.1.1,0,0,1,0,.129c-.06.072-1.466,1.748-1.845,2.059-.236.193-2.293,1.356-2.38,1.405a.1.1,0,0,1-.113-.009A.1.1,0,0,1,1830.839,694Zm2.38-1.538c.324-.267,1.5-1.651,1.763-1.969l-1.027-1.252a2.7,2.7,0,0,0-4.039,3.312l1.026,1.251c.639-.362,2.1-1.2,2.277-1.343Z" transform="translate(-1829.343 -688.418)" fill="#102770"/>
        </g>
        <g id="Group_218" data-name="Group 218" transform="translate(1.445 0.468)" opacity="0.6">
          <path id="Path_247" data-name="Path 247" d="M1830.649,689.424a2.29,2.29,0,0,1,2.857.31l1.08,1.318s-1.113,1.33-1.645,1.869c.284-.168.505-.3.571-.36.378-.308,1.832-2.046,1.832-2.046l-1.081-1.317a2.471,2.471,0,0,0-3.444.077C1830.76,689.324,1830.7,689.374,1830.649,689.424Z" transform="translate(-1830.649 -688.539)" fill="#fff"/>
        </g>
        <g id="Group_219" data-name="Group 219" transform="translate(0.468 0.884)">
          <path id="Path_248" data-name="Path 248" d="M1829.858,692.728l1.082,1.317s2.133-1.205,2.364-1.394c.378-.308,1.832-2.046,1.832-2.046l0-.007a4.564,4.564,0,0,1-.379.38c-.23.189-2.363,1.394-2.363,1.394s-.487-.591-1.082-1.317a2.018,2.018,0,0,1-.234-2.011,3.434,3.434,0,0,0-.464.32A2.475,2.475,0,0,0,1829.858,692.728Z" transform="translate(-1829.464 -689.044)" fill="#371a45"/>
        </g>
        <g id="Group_220" data-name="Group 220">
          <path id="Path_249" data-name="Path 249" d="M1830.144,693.753l-.75-.915a3.253,3.253,0,0,1,4.927-4.04l.755.919a1.089,1.089,0,0,1-.013,1.4,19.6,19.6,0,0,1-1.558,1.711h0a20.253,20.253,0,0,1-1.977,1.183,1.086,1.086,0,0,1-1.217-.093A1.114,1.114,0,0,1,1830.144,693.753Zm4.2-3.251a.144.144,0,0,0,0-.184l-.755-.92a2.345,2.345,0,0,0-3.465,2.841l.75.915a.143.143,0,0,0,.182.035c1.224-.7,1.76-1.026,1.848-1.094A17.952,17.952,0,0,0,1834.343,690.5Z" transform="translate(-1828.895 -687.971)" fill="#371a45"/>
        </g>
        <g id="Group_221" data-name="Group 221" transform="translate(0.598 0.802)">
          <ellipse id="Ellipse_51" data-name="Ellipse 51" cx="2.713" cy="2.124" rx="2.713" ry="2.124" transform="matrix(0.773, -0.634, 0.634, 0.773, 0, 3.441)" fill="#39d5ff"/>
          <path id="Path_250" data-name="Path 250" d="M1831.07,694.281a2.009,2.009,0,0,1-.358-1.752,3.37,3.37,0,0,1,3.064-2.512,1.918,1.918,0,0,1,2.007,2.446,3.217,3.217,0,0,1-1.125,1.754,2.71,2.71,0,0,1-3.321.327A1.8,1.8,0,0,1,1831.07,694.281Zm2.711-4.061a3.168,3.168,0,0,0-2.871,2.354,1.811,1.811,0,0,0,.317,1.579,2.377,2.377,0,0,0,3.3-.092,3.013,3.013,0,0,0,1.055-1.641,1.816,1.816,0,0,0-.317-1.58,1.539,1.539,0,0,0-.24-.236A1.9,1.9,0,0,0,1833.781,690.22Z" transform="translate(-1829.802 -689.133)" fill="#102770"/>
        </g>
        <g id="Group_222" data-name="Group 222" transform="translate(2.053 1.786)" opacity="0.6">
          <path id="Path_251" data-name="Path 251" d="M1831.387,691.572a2.444,2.444,0,0,1,3.363-.013,2.218,2.218,0,0,1-.107,2.665l.08-.063a2.188,2.188,0,1,0-2.693-3.286A3.382,3.382,0,0,0,1831.387,691.572Z" transform="translate(-1831.387 -690.139)" fill="#fff"/>
        </g>
        <g id="Group_223" data-name="Group 223" transform="translate(1.549 2.209)">
          <path id="Path_252" data-name="Path 252" d="M1831.171,694.328a2.471,2.471,0,0,0,3.445-.077,3.279,3.279,0,0,0,.861-1.066,2.33,2.33,0,0,1-3-.235,2.1,2.1,0,0,1-.108-2.3,3.448,3.448,0,0,0-.451.313A2.474,2.474,0,0,0,1831.171,694.328Z" transform="translate(-1830.776 -690.652)" fill="#371a45"/>
        </g>
        <g id="Group_224" data-name="Group 224" transform="translate(1.075 1.313)">
          <path id="Path_253" data-name="Path 253" d="M1830.7,694.437a2.374,2.374,0,0,1-.434-2.068,3.741,3.741,0,0,1,3.418-2.8,2.288,2.288,0,0,1,2.377,2.9,3.588,3.588,0,0,1-1.251,1.96,3.078,3.078,0,0,1-3.789.329A2.1,2.1,0,0,1,1830.7,694.437Zm3.006-3.926a2.8,2.8,0,0,0-2.517,2.063,1.452,1.452,0,0,0,.242,1.263,2.016,2.016,0,0,0,2.78-.143,2.637,2.637,0,0,0,.927-1.436A1.45,1.45,0,0,0,1834.9,691a1.257,1.257,0,0,0-.182-.18A1.542,1.542,0,0,0,1833.71,690.511Z" transform="translate(-1830.201 -689.565)" fill="#371a45"/>
        </g>
      </g>
      <g id="Group_226" data-name="Group 226" transform="translate(35.761 67.232)">
        <path id="Path_254" data-name="Path 254" d="M1819.538,688.961a2.38,2.38,0,0,1,.69-3.174l9.621-6.638a2.373,2.373,0,0,1,3.412.778,45.812,45.812,0,0,0,6.579,8.926,75.038,75.038,0,0,0,7.4,6.6,2.374,2.374,0,0,1,.029,3.72h0a48.18,48.18,0,0,1-10.371,6.611,2.384,2.384,0,0,1-2.326-.232q-1.057-.744-2.047-1.535A58.43,58.43,0,0,1,1819.538,688.961Zm26.994,9.3a1.2,1.2,0,0,0-.006-1.869l-.01-.008a75.781,75.781,0,0,1-7.518-6.707,46.906,46.906,0,0,1-6.759-9.165,1.2,1.2,0,0,0-1.722-.39l-9.621,6.638a1.2,1.2,0,0,0-.349,1.6,55.746,55.746,0,0,0,14.7,16.233,1.2,1.2,0,0,0,1.173.118,47.035,47.035,0,0,0,10.11-6.451Z" transform="translate(-1819.203 -678.729)" fill="#371a45"/>
      </g>
      <g id="Group_228" data-name="Group 228" transform="translate(61.98 17.207)" opacity="0.5">
        <g id="Group_227" data-name="Group 227">
          <path id="Path_255" data-name="Path 255" d="M1870.15,618.005c-.249-.009-.5-.008-.745-.008s-.5,0-.749.006c-.5.031-.994.074-1.493.123-.5.065-.99.151-1.488.232-.49.107-.984.217-1.474.338a22.565,22.565,0,0,0-5.628,2.353,21.823,21.823,0,0,0-4.837,3.832c-.337.394-.666.794-.966,1.215a15.3,15.3,0,0,0-.8,1.334,13.244,13.244,0,0,0-.6,1.443,8.891,8.891,0,0,0-.33,1.558,1.467,1.467,0,0,0,2.175,1.434l.122-.069a8.512,8.512,0,0,0,1.171-.8,12.364,12.364,0,0,0,1.036-.826c.342-.269.665-.546.969-.834.32-.275.631-.553.924-.848a29.928,29.928,0,0,1,3.827-3.213,32.386,32.386,0,0,1,4.392-2.58c.393-.174.782-.367,1.178-.551s.8-.34,1.206-.521c.41-.156.821-.322,1.235-.493.209-.073.419-.151.629-.232s.422-.16.634-.248l.086-.036a1.357,1.357,0,0,0-.476-2.608Z" transform="translate(-1851.033 -617.996)" fill="#fff"/>
        </g>
      </g>
      <g id="Group_234" data-name="Group 234" transform="translate(70.997 54.105)">
        <g id="Group_229" data-name="Group 229" transform="translate(7.186 2.063)">
          <path id="Path_256" data-name="Path 256" d="M1871.271,665.331c-.359.09-.61.324-.561.525s.381.29.741.2.611-.325.562-.525S1871.631,665.242,1871.271,665.331Z" transform="translate(-1870.704 -665.296)" fill="#371a45"/>
        </g>
        <g id="Group_230" data-name="Group 230" transform="translate(5.244 0)">
          <ellipse id="Ellipse_52" data-name="Ellipse 52" cx="0.671" cy="0.374" rx="0.671" ry="0.374" transform="matrix(0.029, -1, 1, 0.029, 0, 1.342)" fill="#371a45"/>
        </g>
        <g id="Group_231" data-name="Group 231" transform="translate(0.929 2.072)">
          <path id="Path_257" data-name="Path 257" d="M1869.184,669.63a4.679,4.679,0,0,1-2,1.547,2.843,2.843,0,0,1-4.053-3.072,4.679,4.679,0,0,1,.949-2.346C1865.415,663.992,1870.523,667.864,1869.184,669.63Z" transform="translate(-1863.109 -665.307)" fill="#371a45"/>
        </g>
        <g id="Group_232" data-name="Group 232" transform="translate(0 3.618)">
          <ellipse id="Ellipse_53" data-name="Ellipse 53" cx="1.571" cy="2.543" rx="1.571" ry="2.543" transform="matrix(0.604, -0.797, 0.797, 0.604, 0, 2.503)" fill="#ff4f90"/>
        </g>
        <g id="Group_233" data-name="Group 233" transform="translate(0.449 1.581)">
          <path id="Path_258" data-name="Path 258" d="M1863.587,665.36c.9-1.182,2.775-.592,4.238.517a5.883,5.883,0,0,1,1.64,1.821,1.9,1.9,0,0,1,0,2.119l-.386-.292.386.292a5.034,5.034,0,0,1-2.73,1.872,3.376,3.376,0,0,1-2.928-.516l-.058-.045C1862.186,669.882,1862.106,667.313,1863.587,665.36Zm3.651,1.291c-1.065-.808-2.433-1.292-2.879-.705-1.175,1.551-1.161,3.557.036,4.456a2.427,2.427,0,0,0,2.1.349,4.066,4.066,0,0,0,2.2-1.518c.19-.251.161-.614-.086-1.077a4.868,4.868,0,0,0-1.249-1.41Q1867.3,666.7,1867.239,666.651Z" transform="translate(-1862.525 -664.711)" fill="#371a45"/>
        </g>
      </g>
      <g id="Group_237" data-name="Group 237" transform="translate(41.723 0)">
        <g id="Group_235" data-name="Group 235" transform="translate(0)">
          <ellipse id="Ellipse_54" data-name="Ellipse 54" cx="30.989" cy="34.504" rx="30.989" ry="34.504" transform="matrix(0.511, -0.86, 0.86, 0.511, 0, 53.281)" fill="#38a8e0" opacity="0.36"/>
          <path id="Path_259" data-name="Path 259" d="M1844.708,626.311a29.384,29.384,0,0,1,19.946-13.721,36.438,36.438,0,0,1,25.679,4.673c16.4,9.746,22.623,29.665,13.866,44.4a29.388,29.388,0,0,1-19.947,13.721,36.44,36.44,0,0,1-25.68-4.673,38.49,38.49,0,0,1-4.331-2.988C1841.139,657.286,1836.77,639.668,1844.708,626.311Zm45.526-8.88a36.247,36.247,0,0,0-25.542-4.649,29.194,29.194,0,0,0-19.817,13.63c-8.7,14.643-2.511,34.44,13.8,44.132a36.247,36.247,0,0,0,25.542,4.649,29.2,29.2,0,0,0,19.817-13.629c7.887-13.274,3.539-30.782-9.489-41.159A38.3,38.3,0,0,0,1890.234,617.431Z" transform="translate(-1828.961 -599.721)" fill="#371a45"/>
        </g>
        <g id="Group_236" data-name="Group 236" transform="translate(11.276 11.745)">
          <path id="Path_260" data-name="Path 260" d="M1847.1,661.088c-.391-.522-.777-1.068-1.147-1.622-.041-.061-.081-.123-.121-.184l-.094-.142a33.282,33.282,0,0,1-5.592-19.227,28.717,28.717,0,0,1,4.035-13.952h0c8.895-14.969,29.664-19.1,46.3-9.221s22.93,30.105,14.035,45.073-29.662,19.1-46.3,9.22a39.384,39.384,0,0,1-4.422-3.049A37.619,37.619,0,0,1,1847.1,661.088Zm42.779-43.337c-16.078-9.553-36.124-5.6-44.687,8.81l-.505-.3.505.3a27.567,27.567,0,0,0-3.87,13.388,32.1,32.1,0,0,0,5.4,18.544l.21.319c.358.537.732,1.065,1.111,1.57a36.915,36.915,0,0,0,10.777,9.64c16.077,9.553,36.124,5.6,44.687-8.809,7.761-13.061,3.468-30.3-9.374-40.527A37.937,37.937,0,0,0,1889.877,617.751Z" transform="translate(-1840.129 -611.365)" fill="#371a45"/>
        </g>
      </g>
    </g>
    <g id="Group_3387" data-name="Group 3387">
      <g id="Group_350" data-name="Group 350" transform="translate(1598.458 345.565)">
        <path id="Path_381" data-name="Path 381" d="M1936.606,677.093c5.894,2.641,13.121,1.036,18.411-4.089a.836.836,0,0,1,.921-.148,1,1,0,0,1,.1.053,119.885,119.885,0,0,0,13.465,7.317c12.948,5.8,23.218,5.973,31.393.518,10.738-7.164,16.158-21.183,13.181-34.09a.442.442,0,0,0-.047-.113.806.806,0,0,1-.086-.247,27.545,27.545,0,0,0-1.281-5.085c-3.769-11.921-13.927-20.474-21.787-25.558a65.189,65.189,0,0,0-8.719-4.734c-15.335-6.872-35.388-8.448-45.679,7.74a32.574,32.574,0,0,0-5.4,17.843.79.79,0,0,1-.008.12,17.771,17.771,0,0,0,.432,7.307.748.748,0,0,1,.028.131,28.271,28.271,0,0,0,9.051,17.2.79.79,0,0,1,.106,1.055c-.213.278-.447.566-.733.877-2.04,2.228-4.784,4.8-7.918,4.912a.91.91,0,0,1-.22-.021,1.3,1.3,0,0,1-.259.076.246.246,0,0,0-.038.27.737.737,0,0,1,.027.119.35.35,0,0,0,.1.222,15.9,15.9,0,0,0,3.1,2.437.825.825,0,0,1,.407.745.764.764,0,0,1-.482.671,7.633,7.633,0,0,1-2.662.563c-.145,0-.158.033-.176.077a.592.592,0,0,0,.127.563,15.4,15.4,0,0,0,4.645,3.262Z" transform="translate(-1930.054 -605.152)" fill="#fff"/>
        <path id="Path_382" data-name="Path 382" d="M1939.838,661.649c-.2.262-.421.533-.689.825-1.746,1.908-4.44,4.551-7.35,4.654a1.088,1.088,0,0,0-1.249,1.327,1.166,1.166,0,0,0,.33.684,16.7,16.7,0,0,0,3.269,2.569,6.782,6.782,0,0,1-2.373.5c-1.129.011-1.215,1.346-.581,1.985,7.266,7.341,17.729,5.516,24.241-.793,13.336,8.218,31.353,17.447,45.771,7.828,11.1-7.409,16.507-21.873,13.5-34.9a1.249,1.249,0,0,0-.124-.318,28.045,28.045,0,0,0-1.323-5.235c-3.279-10.375-11.738-19.248-22.119-25.963-17.365-11.232-43.288-16.058-55.55,3.23a33.194,33.194,0,0,0-5.52,18.262,18.632,18.632,0,0,0,.457,7.641A28.946,28.946,0,0,0,1939.838,661.649Zm3.4-4.783c-1.637-2.2-4.306-3.708-5.95-6.031a25.418,25.418,0,0,1-3.444-6.327,26.1,26.1,0,0,1-.919-14.218c1.867-8.286,7.215-17.173,15.479-20.728,11.6-4.99,25.208-2.228,36.182,3.9,17.589,9.824,34.4,27.417,25.637,47.779-3.259,7.571-9.475,14.263-18.051,16.152-12.8,2.817-25.933-4.743-36.532-11.339a1.222,1.222,0,0,0-1.641.123c-5.213,5.566-13.519,7.524-19.927,2.74C1938.862,667.11,1946.15,660.765,1943.243,656.866Zm10.57-45.4c-7.838,2.518-11.482,8.234-16.313,14.064a.179.179,0,0,1-.308-.137c2.51-12.134,21.107-19.841,32.943-15.867a.157.157,0,0,1-.044.3C1964.3,609.75,1959.364,609.687,1953.813,611.47Zm-16.8,15.368a.123.123,0,0,1,.1.1,4.553,4.553,0,0,1-.357,1.746c-.066.289-.29,1.265-.834.947-.609-.356-.151-1.294,0-1.761C1936.094,627.385,1936.4,626.78,1937.018,626.838Zm38.5,46.467c4.759.761,9.007,1.583,13.828.941,5.278-.7,9.123-3.336,13.506-5.862a.111.111,0,0,1,.151.156c-4.789,7.254-19.949,9.739-27.611,5.2C1975.175,673.609,1975.237,673.26,1975.52,673.305Zm-2.979-1.341c.516.263,1.105.5,1.314,1.068a.094.094,0,0,1-.055.124,2.28,2.28,0,0,1-1.671-.269,2.423,2.423,0,0,1-1.474-1.092.152.152,0,0,1,.092-.2A2.423,2.423,0,0,1,1972.541,671.965Z" transform="translate(-1929.877 -604.974)"/>
      </g>
      <text id="And_me_I_m_LUNA_" data-name="And me
Im LUNA !" transform="matrix(0.845, 0.534, -0.534, 0.845, 1641.819, 380.907)" font-size="16" font-family="SegoeUI, Segoe UI" letter-spacing="-0.015em"><tspan x="-27.064" y="0">And me</tspan><tspan x="-36.678" y="15">Im LUNA !</tspan></text>
    </g>
  </g>
</svg>
