<svg xmlns="http://www.w3.org/2000/svg" xmlns:xlink="http://www.w3.org/1999/xlink" width="607.039" height="182.856" viewBox="0 0 607.039 182.856">
  <defs>
    <filter id="Path_3346" x="321.084" y="36.948" width="61.086" height="116.431" filterUnits="userSpaceOnUse">
      <feOffset dy="3" input="SourceAlpha"/>
      <feGaussianBlur stdDeviation="3" result="blur"/>
      <feFlood flood-opacity="0.161"/>
      <feComposite operator="in" in2="blur"/>
      <feComposite in="SourceGraphic"/>
    </filter>
    <filter id="Path_3348" x="351.002" y="36.743" width="101.914" height="116.842" filterUnits="userSpaceOnUse">
      <feOffset dy="3" input="SourceAlpha"/>
      <feGaussianBlur stdDeviation="3" result="blur-2"/>
      <feFlood flood-opacity="0.161"/>
      <feComposite operator="in" in2="blur-2"/>
      <feComposite in="SourceGraphic"/>
    </filter>
    <filter id="Path_3350" x="419.963" y="36.948" width="109.757" height="116.431" filterUnits="userSpaceOnUse">
      <feOffset dy="3" input="SourceAlpha"/>
      <feGaussianBlur stdDeviation="3" result="blur-3"/>
      <feFlood flood-opacity="0.161"/>
      <feComposite operator="in" in2="blur-3"/>
      <feComposite in="SourceGraphic"/>
    </filter>
    <filter id="Path_3352" x="500.156" y="36.948" width="106.882" height="116.637" filterUnits="userSpaceOnUse">
      <feOffset dy="3" input="SourceAlpha"/>
      <feGaussianBlur stdDeviation="3" result="blur-4"/>
      <feFlood flood-opacity="0.161"/>
      <feComposite operator="in" in2="blur-4"/>
      <feComposite in="SourceGraphic"/>
    </filter>
    <filter id="Path_3364" x="178.874" y="26.502" width="97.765" height="135.852" filterUnits="userSpaceOnUse">
      <feOffset dy="3" input="SourceAlpha"/>
      <feGaussianBlur stdDeviation="3" result="blur-5"/>
      <feFlood flood-opacity="0.161"/>
      <feComposite operator="in" in2="blur-5"/>
      <feComposite in="SourceGraphic"/>
    </filter>
  </defs>
  <g id="Group_3376" data-name="Group 3376" transform="translate(-252.831 -17.391)">
    <g id="Group_3130" data-name="Group 3130" transform="translate(252.831 17.391)">
      <path id="Path_3066" data-name="Path 3066" d="M592.953,192.8c-1.758-1.608-5.775-8.01-24.687-8.01-17.912,0-20.911,5.52-20.911,5.52l2.563-27.7,3.356-15.785-1.306-18.861-7.585-43.855,8.507-5.756,10.558,4.333,11.561,12.486,15.785,21.176,23.5-4.169h9.225l18.1,4.169,3.525-.665,13.472-19.6,12.75-15.207,9.756-2.524,8.373,2.724-2.2,27.412-4.737,41.567,2.255,9.685,2.481,39.566-140.246-2.05" transform="translate(-532.713 -76.73)" fill="#4a4c4f"/>
      <path id="Path_3067" data-name="Path 3067" d="M581.263,121.184S562.341,89.927,555.351,94.7c-10.217,6.978-13.426-10.441-13.426-10.441l9.306-5.9,7.925,2.562,18.333,19.809,11.646,15.624Z" transform="translate(-531.053 -76.73)" fill="#393b3d"/>
      <path id="Path_3068" data-name="Path 3068" d="M857.166,121.184S876.089,89.927,883.078,94.7C893.3,101.679,896.5,84.26,896.5,84.26l-9.305-5.9-7.925,2.562-18.333,19.809L849.3,116.351Z" transform="translate(-738.599 -76.73)" fill="#393b3d"/>
      <path id="Path_3069" data-name="Path 3069" d="M569.1,439.537l-16.516,1.6,16.382.24C569.014,440.765,569.057,440.151,569.1,439.537Z" transform="translate(-538.254 -320.61)" fill="#555658"/>
      <circle id="Ellipse_928" data-name="Ellipse 928" cx="10.997" cy="10.997" r="10.997" transform="translate(23.275 116.86)" fill="#f09489"/>
      <path id="Path_3070" data-name="Path 3070" d="M582.838,445.71c4.294-5.8,11.257-5.8,15.552,0,1.1,1.488,1.919-.362,2.456,1.48a17.881,17.881,0,0,0-3.215-10.864c-4.294-5.8-11.257-5.8-15.551,0-3.192,4.312-4.01,10.614-2.456,15.948C579.69,448.594,580.76,448.517,582.838,445.71Z" transform="translate(-555.993 -315.504)" fill="#d86f6a"/>
      <g id="Group_3125" data-name="Group 3125" transform="translate(98.244 74.759)">
        <circle id="Ellipse_929" data-name="Ellipse 929" cx="6.837" cy="6.837" r="6.837" transform="translate(0 0)" fill="#eda76a"/>
        <path id="Path_3071" data-name="Path 3071" d="M813.514,311.127a6.828,6.828,0,0,1,10.4,2.287,6.834,6.834,0,1,0-12.24.008A6.8,6.8,0,0,1,813.514,311.127Z" transform="translate(-810.958 -303.54)" fill="#db8f58"/>
      </g>
      <g id="Group_3126" data-name="Group 3126" transform="translate(56.85 74.759)">
        <circle id="Ellipse_930" data-name="Ellipse 930" cx="6.837" cy="6.837" r="6.837" transform="translate(0 0)" fill="#eda76a"/>
        <path id="Path_3072" data-name="Path 3072" d="M686.058,311.127a6.828,6.828,0,0,1,10.4,2.287,6.834,6.834,0,1,0-12.24.008A6.8,6.8,0,0,1,686.058,311.127Z" transform="translate(-683.502 -303.54)" fill="#db8f58"/>
      </g>
      <circle id="Ellipse_931" data-name="Ellipse 931" cx="10.997" cy="10.997" r="10.997" transform="translate(124.103 116.86)" fill="#f09489"/>
      <path id="Path_3073" data-name="Path 3073" d="M896.542,443.578c4.7-5.188,11.631-4.244,15.473,2.109.986,1.63,1.671-.118,2.068,1.787a18.66,18.66,0,0,0-2.391-11.245c-3.842-6.353-10.769-7.3-15.473-2.109-3.5,3.857-4.778,10.017-3.629,15.534C892.93,446,894.265,446.089,896.542,443.578Z" transform="translate(-767.556 -314.691)" fill="#d86f6a"/>
      <g id="Group_3127" data-name="Group 3127" transform="translate(42.296 87.57)">
        <ellipse id="Ellipse_932" data-name="Ellipse 932" cx="8.806" cy="10.483" rx="8.806" ry="10.483" fill="#040405"/>
        <circle id="Ellipse_933" data-name="Ellipse 933" cx="3.128" cy="3.128" r="3.128" transform="translate(1.011 4.166)" fill="#f2f3f2"/>
      </g>
      <g id="Group_3128" data-name="Group 3128" transform="translate(108.292 87.57)">
        <ellipse id="Ellipse_934" data-name="Ellipse 934" cx="8.806" cy="10.483" rx="8.806" ry="10.483" fill="#040405"/>
        <circle id="Ellipse_935" data-name="Ellipse 935" cx="3.128" cy="3.128" r="3.128" transform="translate(1.011 4.166)" fill="#f2f3f2"/>
      </g>
      <path id="Path_3074" data-name="Path 3074" d="M947.872,128.947c.1.066.2.135.29.21.222-.6.436-1.212.633-1.826Q948.318,128.13,947.872,128.947Z" transform="translate(-805.161 -109.8)" fill="#0f0e0e"/>
      <path id="Path_3075" data-name="Path 3075" d="M635.239,558.448c4.441-1.533,8.544-3.949,13.1-5.122,3.161-.814,5.866.9,8.455,2.357a61.23,61.23,0,0,1,8.7,6.276c.578.475,1.4.914,1.24,1.782-.171.936-1.128,1.162-1.9,1.389a39.616,39.616,0,0,1-11.729,1.984c-5.725.088-10.849-2.462-15.813-5.485-.651-.4-1.355-.708-1.983-1.134C634.379,559.864,634.115,558.836,635.239,558.448Z" transform="translate(-593.561 -397.302)" fill="#0f0e0e"/>
      <path id="Path_3076" data-name="Path 3076" d="M931.386,455.8c1.615-1.552,3.279-3.053,4.885-4.615.5-.482,1.022-.983,1.556-1.5.042-1.381.05-2.764.031-4.151-.095.038-.188.078-.279.123-.267.132-.585.435-.572.321-.222.573-.067,1.483-.231,2.086a7.429,7.429,0,0,1-1.015,2.047c-3.784,5.847-9.139,10.4-14.827,14.313-1.468,1.011-2.953,2.005-4.462,2.96a30,30,0,0,0,9.93-6.417C928.136,459.312,929.661,457.46,931.386,455.8Z" transform="translate(-783.958 -324.658)" fill="#f2f3f2"/>
      <path id="Path_3077" data-name="Path 3077" d="M937.584,97.254c1.175-2.686,4.669-4.734,7.189-5.557,1.764,1.191,1.723,3.786,1.86,5.917.155,2.4.538,4.793.879,7.162.936,6.515.627,13.057.762,19.582.133,6.421.093,12.866-.323,19.271-.318,4.884-1.354,9.707-5.333,13.242-1.343,1.194-1.56,1.142-2.294-.534-.964-2.2-1.963-4.391-3.076-6.518a2.3,2.3,0,0,1,.455-3.148,5.111,5.111,0,0,0,1.675-2.236c.674-2.35-.638-4.137-3.187-4.425-.55-.062-1.32.209-1.593-.431-.282-.66.3-1.2.663-1.726a13.527,13.527,0,0,0,1.041-1.419c1.421-2.811.121-5.009-2.945-5.088a11.159,11.159,0,0,0-5.829,1.083c-.647.352-1.536.711-2.181.2s-.109-1.338.046-1.979A126.955,126.955,0,0,1,929.6,117.2a89.076,89.076,0,0,1,8.277-16.309,2.74,2.74,0,0,0,.171-3.148c.061-.227-.033-.274-.259-.344C937.771,97.315,937.642,97.318,937.584,97.254Z" transform="translate(-789.736 -85.738)" fill="#eda76a"/>
      <path id="Path_3078" data-name="Path 3078" d="M550.645,149c1.612,1.471,1.792,2.677.678,4.528a47.487,47.487,0,0,0-2.618,5.77c-.671,1.555-1.06,1.628-2.373.484-2.78-2.422-3.893-5.624-4.484-9.135-1.131-6.72-.85-13.5-.967-20.263a169.894,169.894,0,0,1,.418-18.715c.45-4.815.29-9.785,2.379-14.363a3.039,3.039,0,0,1,.882-1.22,7.621,7.621,0,0,1,6.383,4.274.771.771,0,0,0-.113.293c.193,1.247-.523,1.67.032,2.495a111.642,111.642,0,0,1,10.729,22.518c.918,2.78,1.581,5.649,2.284,8.5.4,1.622-.012,1.982-1.6,1.423a17.463,17.463,0,0,0-6.7-1.275c-2.793.133-4.114,2.148-3.018,4.7a12.655,12.655,0,0,0,1.645,2.5c.668.9.423,1.388-.7,1.46" transform="translate(-530.302 -88.698)" fill="#eda76c"/>
      <path id="Path_3079" data-name="Path 3079" d="M550.357,156.847c-7.079-7.789-8.1-32.365-7.906-49.14-2.766,16.7-2.426,35.739-.892,52.574C545.864,180.786,556.718,159,550.357,156.847Z" transform="translate(-530.014 -96.549)" fill="#b77141"/>
      <path id="Path_3080" data-name="Path 3080" d="M962.356,156.847c7.079-7.789,8.1-32.365,7.906-49.14,2.765,16.7,2.426,35.739.893,52.574C966.849,180.786,955.995,159,962.356,156.847Z" transform="translate(-813.622 -96.549)" fill="#b77141"/>
      <path id="Path_3081" data-name="Path 3081" d="M683.106,591.747c-3.529-.732-7.418-1.4-11.232-2.367a105.04,105.04,0,0,1-12.832-3.892,95.052,95.052,0,0,1-16.062-8.38c-.479-.3-1.111-.711-.732-1.4.353-.642,1.114-.432,1.607-.258a63.231,63.231,0,0,0,10.832,2.449c6.325,1.048,12.651,2.083,18.973,3.148a68.3,68.3,0,0,0,10.183,1c6.4.11,12.65-1.124,18.911-2.187,4.522-.767,9.008-1.743,13.514-2.608.612-.118,1.394-.419,1.75.315.4.818-.33,1.271-.9,1.69a57.777,57.777,0,0,1-19.507,9.586c-4.093,1.1-8.253,1.861-12.4,2.71C684.644,591.668,684.046,591.664,683.106,591.747Z" transform="translate(-598.716 -412.262)" fill="#19b5b8"/>
      <path id="Path_3082" data-name="Path 3082" d="M647.659,577.128c28.631,12.751,50.11,7.451,72.479-3.435-16.363,2.189-32.986,6.922-49.686,3.9C659.4,576.823,620.749,565.143,647.659,577.128Z" transform="translate(-596.137 -409.885)" fill="#138481"/>
      <path id="Path_3083" data-name="Path 3083" d="M929.754,567.114c-5.725.088-10.849-2.462-15.813-5.485-.651-.4-1.355-.708-1.983-1.134-.93-.631-1.194-1.659-.07-2.047,4.441-1.533,8.544-3.949,13.1-5.122,3.161-.814,5.866.9,8.455,2.357a61.211,61.211,0,0,1,8.7,6.276c.578.475,1.4.914,1.24,1.782-.171.936-1.128,1.162-1.9,1.389A39.616,39.616,0,0,1,929.754,567.114Z" transform="translate(-780.363 -397.302)" fill="#18b6b9"/>
      <path id="Path_3084" data-name="Path 3084" d="M946.373,560.951a54.288,54.288,0,0,0-7.463-5.268c-2.589-1.456-5.294-3.171-8.455-2.357-3.9,1.005-7.473,2.921-11.208,4.414A95.149,95.149,0,0,0,946.373,560.951Z" transform="translate(-785.832 -397.302)" fill="#138481"/>
      <path id="Path_3085" data-name="Path 3085" d="M539.934,566.486c-3.65.153-7.321-1-11.009-1.958-1.9-.494-2.082-1.588-.49-2.793,4.01-3.036,7.894-6.256,12.653-8.174,2.314-.933,4.45-1.234,6.753-.033a83.891,83.891,0,0,0,10,4.341c2.013.736,2.024,1.42.295,2.7A30.9,30.9,0,0,1,539.934,566.486Z" transform="translate(-521.217 -397.048)" fill="#18b6b9"/>
      <path id="Path_3086" data-name="Path 3086" d="M556.328,557.3a80.726,80.726,0,0,1-8.485-3.774c-2.3-1.2-4.439-.9-6.753.033-4.759,1.918-8.642,5.138-12.653,8.174-.8.605-1.151,1.182-1.062,1.67C537.237,563.379,546.985,560.245,556.328,557.3Z" transform="translate(-521.219 -397.048)" fill="#138481"/>
      <path id="Path_3087" data-name="Path 3087" d="M570.961,112.638a2.3,2.3,0,0,1-.033-2.495Q570.945,111.39,570.961,112.638Z" transform="translate(-550.4 -98.194)" fill="#555658"/>
      <path id="Path_3088" data-name="Path 3088" d="M713.308,497.03c-5.068-.169-9.044-3.394-10.577-8.864a35.511,35.511,0,0,0-3.543-8.624A3,3,0,0,0,697.241,478c-4.415-1.278-8.11-3.457-9.681-8.16-.549-1.645-.289-2.8.985-3.266a2.117,2.117,0,0,1,3.024,1.56c1.792,6.185,12.757,7.959,17.582,3.983a6.356,6.356,0,0,0,2.182-3.128,2.324,2.324,0,0,1,2.272-1.867,2.214,2.214,0,0,1,2.326,1.771,7.732,7.732,0,0,0,5.949,5,13.712,13.712,0,0,0,10.863-1.751,6.051,6.051,0,0,0,2.574-3.046,6.491,6.491,0,0,1,.748-1.589,2.161,2.161,0,0,1,3.842,1.961c-1.5,4.658-4.934,7.2-9.428,8.422a4.3,4.3,0,0,0-2.757,2.385c-1.764,3.043-2.506,6.463-3.732,9.7C722.028,495.163,717.171,496.868,713.308,497.03Zm-2.9-19.532c-1.409-.01-.612.716-2,.912-.747.106-2.209.746-1.55,2.057,1.2,2.392.245,3.257.954,5.769.851,3.016,1.855,5.83,5.018,5.579.493-.039,1.643,1.449,1.745.827,3.889-.855,5.831-3.448,6.447-7.225.18-1.1.406-2.2.554-3.3.441-3.287.271-3.566-2.79-4.848-.326-.136-.668-.235-.991-.377-2.206-.971-2.49-.819-2.594,1.617a53.307,53.307,0,0,1-.168,6.356c-.148.912-.433,1.654-1.506,1.553-.987-.092-1.125-.838-1.116-1.682.022-2.18-.013-4.36.011-6.54C712.442,476.757,712.1,476.985,710.413,477.5Z" transform="translate(-629.206 -338.735)"/>
      <path id="Path_3089" data-name="Path 3089" d="M748.456,417.122c3.273.061,5.459.589,7.355,2.067,3.644,2.841,3.519,6.827-.312,9.472-4.014,2.771-10.713,2.2-14.063-1.2a5.1,5.1,0,0,1,.263-7.77A10.406,10.406,0,0,1,748.456,417.122Z" transform="translate(-664.643 -305.475)"/>
      <path id="Path_3090" data-name="Path 3090" d="M748.53,496.822c1.686-.513,2.078.392,2.061,1.83-.025,2.18.011,4.36-.011,6.54-.009.844.129,1.589,1.116,1.682,1.073.1,1.358-.641,1.506-1.553a53.332,53.332,0,0,0,.168-6.356c.1-2.436.388-2.588,2.594-1.617.323.142.665.24.991.377,3.061,1.282,3.231,1.561,2.79,4.848-.148,1.106-.375,2.2-.554,3.3-.617,3.777-2.558,6.836-6.447,7.692-3.825.318-6.6-2.375-7.647-5.688a25.871,25.871,0,0,1-1.286-7.446c-.016-1.1.239-1.723,1.418-2.024A6.743,6.743,0,0,0,748.53,496.822Z" transform="translate(-667.372 -359.193)" fill="#e4333a"/>
      <path id="Path_3091" data-name="Path 3091" d="M745.187,508.132a12.368,12.368,0,0,1,5.393-2.952c.022-2.176-.013-4.352.011-6.528.016-1.437-.376-2.343-2.061-1.83a6.743,6.743,0,0,1-3.3,1.587c-1.179.3-1.435.92-1.418,2.024a25.883,25.883,0,0,0,1.286,7.446C745.124,507.965,745.157,508.047,745.187,508.132Z" transform="translate(-667.372 -359.193)" fill="#ba2530"/>
      <path id="Path_3092" data-name="Path 3092" d="M772.867,505.209a14.432,14.432,0,0,1,5.723,1.961c.085-.344.162-.7.222-1.063.18-1.1.406-2.2.554-3.3.441-3.287.271-3.566-2.79-4.848-.326-.136-.668-.235-.991-.377-2.206-.971-2.49-.819-2.594,1.617C772.9,501.2,773.132,503.207,772.867,505.209Z" transform="translate(-686.992 -359.425)" fill="#a81e2f"/>
      <path id="Path_3093" data-name="Path 3093" d="M901.411,99.082a78.037,78.037,0,0,0-2.541-17.25c-1.714-6.153-9.462-9.534-14.054-8.189a18.694,18.694,0,0,0-6.443,3.857,111.765,111.765,0,0,0-18.25,19.082c-3.06,4.031-5.932,8.21-8.769,12.4a2.537,2.537,0,0,1-.4.438c.919.533,1.811,1.115,2.7,1.733.231-.372.581-.834,1.051-1.454,3.474-4.578,6.56-9.426,10.148-13.928a96.678,96.678,0,0,1,18.5-17.931c3.022-2.215,9.039-1.115,10.526,1.948a8.753,8.753,0,0,1,1.355,2.165c2.089,4.58,1.93,9.551,2.38,14.369a169.9,169.9,0,0,1,.418,18.722c-.116,6.764.164,13.548-.967,20.27-.591,3.513-1.705,6.716-4.486,9.139-1.314,1.145-1.535,1.209-2.207-.347a53.076,53.076,0,0,0-2.8-6.094c-1.115-1.852-.856-2.757.756-4.228,2.216-2.023,1.691-5.087-1.169-5.961a7.415,7.415,0,0,0-1.611-.279c-1.127-.071-1.3-.523-.628-1.422a12.022,12.022,0,0,0,1.54-2.472c1.1-2.552-.182-4.66-2.975-4.793a17.982,17.982,0,0,0-6.816,1.243c-1.585.559-1.8.112-1.4-1.511.7-2.848,1.452-5.409,2.371-8.191a112.75,112.75,0,0,1,10.692-22.677c.615-1.179.549-2.018-.363-2.714-1.3-.771-2.811.193-3.563,1.764-.579,1.207-1.339,2.328-2.017,3.489a98.506,98.506,0,0,0-9.015,20.815,69.306,69.306,0,0,0-2.712,11.289c-.41,3.1,1.309,3.962,3.708,2.748a48.144,48.144,0,0,1,5.97-2.173c.5-.175,1.127-.373,1.474.132.453.659-.206,1.065-.6,1.468-1.107,1.141-2.209,2.29-3.367,3.379a1.727,1.727,0,0,0-.465,2.2,1.888,1.888,0,0,0,1.921,1.259q1.944-.033,3.889-.021c.414,0,.882.031,1.075.463.2.457-.157.718-.462,1.023-1.662,1.66-1.875,2.65-.765,4.684a89.308,89.308,0,0,1,4.4,9.146l6.781-.315a4.026,4.026,0,0,1,1.118.155,18.728,18.728,0,0,0,4.646-8.131,54.39,54.39,0,0,0,1.447-11.187C901.816,117.828,901.868,108.448,901.411,99.082Z" transform="translate(-739.721 -73.349)"/>
      <g id="Group_3129" data-name="Group 3129" transform="translate(14.643 105.392)">
        <path id="Path_3094" data-name="Path 3094" d="M694.474,405.093a91.241,91.241,0,0,1-.862,24.55c-1.483,8.215-7.132,13.454-14.285,17.133-5.588,2.874-11.675,4.4-17.711,5.968a206.592,206.592,0,0,1-32.995,5.825c-3.837.354-7.655-.283-11.427-.86-8.2-1.254-16.432-2.4-24.521-4.177-8.311-1.83-16.718-3.678-23.994-8.528-5.687-3.791-10.051-8.683-11.292-15.577a65.22,65.22,0,0,1-.378-16.742c.164-2.062.159-4.119.232-6.178a4.8,4.8,0,0,1,.356-2.243,24.976,24.976,0,0,1,9.238-2.53c4.99-.637,9.967-.023,14.949.084a9.427,9.427,0,0,0,3.186.28,1.382,1.382,0,0,0,1.052.158,3.473,3.473,0,0,0,1.78.272l.649.137,1.131.113a1.994,1.994,0,0,0,1.39.445c.172.3.438.287.722.216l2.477,1.161a26.116,26.116,0,0,0,4.489,2.024.817.817,0,0,0,.823.313.94.94,0,0,0,1,.2c.721.475-.441,1.67.757,1.411.69.142,2.132-.506,2.273-1.274a18.66,18.66,0,0,1,11.849-8.395,47.964,47.964,0,0,1,16.462-.546c5.942.853,12.453,3.533,15.716,8.958.853,1.419.421,1.735,1.641.3,3.169-1.081,6.03-2.878,9.157-4.023,3.78-1.384,7.806-1.578,11.781-1.867C678.11,401.119,687.018,401.34,694.474,405.093ZM625.1,450.765c3.863-.163,8.72-1.868,10.682-7.052,1.226-3.24,1.968-6.659,3.732-9.7a4.3,4.3,0,0,1,2.757-2.385c4.494-1.218,7.931-3.763,9.428-8.422a2.161,2.161,0,0,0-3.842-1.961,6.491,6.491,0,0,0-.748,1.589,6.05,6.05,0,0,1-2.574,3.046,13.712,13.712,0,0,1-10.863,1.751,7.732,7.732,0,0,1-5.949-5,2.213,2.213,0,0,0-2.326-1.771,2.324,2.324,0,0,0-2.272,1.867,6.356,6.356,0,0,1-2.182,3.128c-4.825,3.976-15.79,2.2-17.582-3.983a2.117,2.117,0,0,0-3.024-1.56c-1.274.468-1.534,1.62-.985,3.266,1.571,4.7,5.266,6.882,9.681,8.16a3,3,0,0,1,1.947,1.542,35.514,35.514,0,0,1,3.542,8.624C616.058,447.371,620.034,450.6,625.1,450.765Zm-39.76-31.41c.33-5.31-4.771-9.847-10.09-9.792-5.886.06-9.984,4.457-10.032,9.423-.067,6.966,4.017,10.4,9.81,10.754A9.835,9.835,0,0,0,585.342,419.355Zm80.645.342c-.306,5.8,4.611,9.866,10.018,10.021,5.1.146,10.4-4.75,10.231-9.954a10.582,10.582,0,0,0-9.8-10.282C670.621,409.233,665.529,414.477,665.987,419.7Zm-41.174-15.581a10.406,10.406,0,0,0-6.757,2.57,5.1,5.1,0,0,0-.263,7.77c3.35,3.4,10.049,3.97,14.063,1.2,3.831-2.645,3.956-6.631.312-9.472C630.273,404.706,628.087,404.178,624.814,404.117Z" transform="translate(-555.643 -397.862)" fill="#f2f3f2"/>
        <path id="Path_3095" data-name="Path 3095" d="M599.134,414.1c-1.758-1.608-5.775-8.01-24.687-8.01-17.912,0-20.911,5.52-20.911,5.52" transform="translate(-553.536 -403.418)" fill="#f2f3f2"/>
        <path id="Path_3096" data-name="Path 3096" d="M887.656,411.14s-3-5.049-20.911-5.049c-18.912,0-23.873,6.4-25.631,8.01" transform="translate(-747.717 -403.418)" fill="#f2f3f2"/>
      </g>
      <path id="Path_3097" data-name="Path 3097" d="M740.046,404.431a1.426,1.426,0,0,1-1.055-.464,46.565,46.565,0,0,0-8.307-7.274c-10.079-6.628-23.321-4.25-29.3-1.194a22.087,22.087,0,0,0-8.553,7.78,1.431,1.431,0,1,1-2.493-1.4,24.786,24.786,0,0,1,9.744-8.924,34.631,34.631,0,0,1,14.9-3.365,31,31,0,0,1,17.274,4.716,49.477,49.477,0,0,1,8.844,7.731,1.431,1.431,0,0,1-1.054,2.4Z" transform="translate(-631.14 -286.881)"/>
      <path id="Path_3098" data-name="Path 3098" d="M669.049,211.16" transform="translate(-616.891 -166.403)" fill="#666768"/>
      <path id="Path_3099" data-name="Path 3099" d="M727.048,189.515a1.6,1.6,0,0,1-.838-.236c-13.573-8.3-28.723-10.834-45.026-7.539a70.666,70.666,0,0,0-20.641,7.539,1.61,1.61,0,0,1-1.678-2.747,72.476,72.476,0,0,1,21.564-7.923c11.8-2.406,29.62-2.983,47.462,7.923a1.61,1.61,0,0,1-.841,2.983Z" transform="translate(-609.494 -143.451)"/>
      <path id="Path_3100" data-name="Path 3100" d="M730.533,208.869c-11.6-7.1-39.567-11.736-60.9,0S746.384,218.566,730.533,208.869Z" transform="translate(-615.223 -160.018)" fill="#575859"/>
      <path id="Path_3101" data-name="Path 3101" d="M692.865,503.6c-27.975,27.759-96.849,24.806-128.2,2.819-17.37-12.184,5.478,19.408,39.183,21.919,22.883,5.874,38.167,4.153,60.861-2.913,6.037-1.566,10.406-1.9,15.994-4.778C688.337,520.194,701.237,497.143,692.865,503.6Z" transform="translate(-542.384 -363.098)" fill="#cecece"/>
      <path id="Path_3102" data-name="Path 3102" d="M642.082,241.339c.566.315,1.151.6,1.709.925a28.855,28.855,0,0,0,11.637,3.729c7.213.794,13.936-1.525,20.728-3.324,1.781-.472,2.028-2.161.631-3.344-.944-.8-1.892-1.6-2.886-2.333-4.905-3.625-9.423-7.844-15.334-9.928-2.539-.9-2.556-1.295-.679-3.268a23.834,23.834,0,0,0,6.352-11.217c1.786-7.985.768-16.06.531-24.105-.055-1.881-.107-3.765-.268-5.639-.53-6.15-1.22-12.288-1.633-18.445a86.479,86.479,0,0,0-1.664-12.925,2.642,2.642,0,0,1,.929-2.935,20.141,20.141,0,0,0,7.084-12.091,122.235,122.235,0,0,0,1.24-17.951,201.243,201.243,0,0,0-.567-21.882A76.322,76.322,0,0,0,667.5,81.5c-1.825-6.138-11.586-10.849-17.473-6.388a107.68,107.68,0,0,0-22.6,23.367q-3.956,5.525-7.813,11.12c-.114.165-1.405,2.4-1.524,2.535.667.551,1.335,1.1,2.035,1.626.382.185.764.369,1.144.558-.149-.451,1.275-3.055,1.888-3.887,3.411-4.632,6.553-9.457,10.136-13.969A101.809,101.809,0,0,1,651.435,78.41c3.583-2.717,9.233-1.873,11.578,1.842,1.763,1.19,2.194,2.842,2.332,4.973.155,2.4.538,4.793.879,7.162.936,6.515.627,13.057.762,19.582.133,6.421.093,12.866-.323,19.271-.318,4.884-1.354,9.707-5.333,13.242-1.343,1.194-1.56,1.142-2.294-.534q-.307-.7-.619-1.4a3.612,3.612,0,0,1-3.424,1.375c.086.181.2.578.293.759a46.739,46.739,0,0,1,4.054,15.729c.637,5.953,1.118,11.914,1.609,17.877.168,2.049.293,4.1.426,6.152.026.4,1.182,17.8-.313,26.078-1.483,8.215-7.132,13.454-14.285,17.133-5.588,2.874-11.675,4.4-17.711,5.968a206.59,206.59,0,0,1-32.995,5.825c-3.837.354-7.654-.283-11.426-.86-8.2-1.254-16.432-2.4-24.521-4.177-8.311-1.83-16.718-3.678-23.994-8.528-5.687-3.791-10.051-8.683-11.292-15.577a65.218,65.218,0,0,1-.378-16.742c.164-2.062.159-4.119.232-6.178.027-.766.881-15.1,1.487-20.761.623-5.823.444-11.771,2.669-17.368a105.831,105.831,0,0,1,5.167-11.752c1.109-2.033.9-3.023-.765-4.683-.305-.3-.666-.565-.462-1.022.193-.433.661-.461,1.075-.463q1.943-.009,3.887.021a1.886,1.886,0,0,0,1.92-1.258,1.726,1.726,0,0,0-.465-2.2c-1.157-1.088-2.258-2.236-3.365-3.377-.391-.4-1.049-.809-.6-1.467.347-.505.971-.307,1.474-.132a48.116,48.116,0,0,1,5.969,2.172c2.4,1.214,4.116.348,3.707-2.747a69.276,69.276,0,0,0-2.711-11.285,98.469,98.469,0,0,0-9.011-20.807c-.678-1.16-1.437-2.28-2.016-3.487a2.882,2.882,0,0,0-3.562-1.763.778.778,0,0,0-.113.293c-.351.667-.622.939.033,2.495a111.639,111.639,0,0,1,10.729,22.518c.918,2.78,1.581,5.649,2.283,8.5.4,1.622-.012,1.982-1.6,1.423a17.465,17.465,0,0,0-6.7-1.275c-2.793.133-4.114,2.148-3.017,4.7a12.647,12.647,0,0,0,1.645,2.5c.668.9.423,1.388-.7,1.46a5.812,5.812,0,0,0-1.558.211c-2.793.992-3.512,3.8-1.3,5.826,1.612,1.471,1.792,2.677.678,4.528a47.507,47.507,0,0,0-2.618,5.77c-.671,1.555-1.06,1.628-2.373.484-2.78-2.422-3.893-5.624-4.484-9.135-1.131-6.72-.85-13.5-.967-20.263a169.864,169.864,0,0,1,.418-18.715c.449-4.815.29-9.785,2.379-14.363a3.04,3.04,0,0,1,.882-1.22c1.486-3.061,7.973-5.1,10.994-2.89a96.631,96.631,0,0,1,18.5,17.924c3.587,4.5,6.672,9.347,10.145,13.923,1.011,1.332,2.587,3.853,2.468,4.365,1.242-.553,2.524-1.138,3.836-1.646-.7-.193-2.38-2.591-2.952-3.435-2.837-4.191-5.708-8.368-8.766-12.4A111.7,111.7,0,0,0,538.685,77.5a18.688,18.688,0,0,0-6.44-3.856c-4.59-1.344-12.335,2.036-14.049,8.186a78.013,78.013,0,0,0-2.539,17.244c-.456,9.362-.4,18.739-.026,28.106a54.371,54.371,0,0,0,1.446,11.183c1.046,4.124,3.6,7.359,6.716,10.167a2.262,2.262,0,0,1,.987,2.435,57.622,57.622,0,0,0-1.2,6.935c-.884,6.359-1.134,12.769-1.794,19.145-.685,6.615-.834,13.286-1.184,19.935a70.838,70.838,0,0,0,.442,12.712,25.614,25.614,0,0,0,7.234,14.424c1.156,1.23,1.133,1.876-.206,2.378-7.152,2.68-12.644,7.838-18.569,12.349a2.139,2.139,0,0,0-1,2.272c.225,1.037,1.074,1.349,1.929,1.57,2.783.718,5.571,1.416,8.369,2.074,4.425,1.04,8.859,1.681,13.433.881a31.64,31.64,0,0,0,10.684-3.926c.671-.394,7.107-1.06,9.115.236a80.729,80.729,0,0,0,15.419,8.042,93.021,93.021,0,0,0,13.275,4.044c3.1.658,6.169,1.821,9.276,2a28.092,28.092,0,0,0,7.108-.116c6.642-1.248,13.237-2.627,19.483-5.335a63.152,63.152,0,0,0,14.521-8.866C635.066,238.538,641.715,241.135,642.082,241.339Zm-96.717-4.472a30.9,30.9,0,0,1-18.2,5.921c-3.65.153-7.321-1-11.009-1.958-1.9-.494-2.082-1.588-.49-2.793,4.01-3.036,7.893-6.256,12.653-8.174,2.314-.933,4.45-1.234,6.753-.033a83.879,83.879,0,0,0,10,4.341C547.083,234.906,547.094,235.589,545.365,236.867Zm81.489,3.475a57.778,57.778,0,0,1-19.507,9.586c-4.093,1.1-8.253,1.861-12.4,2.71-.573.118-1.172.113-2.111.2-3.529-.732-7.418-1.4-11.232-2.367a105.025,105.025,0,0,1-12.832-3.892,95.044,95.044,0,0,1-16.062-8.38c-.479-.3-1.111-.711-.732-1.4.353-.642,1.114-.432,1.607-.258a63.241,63.241,0,0,0,10.832,2.449c6.325,1.048,12.651,2.083,18.973,3.148a68.318,68.318,0,0,0,10.183,1c6.4.11,12.65-1.124,18.911-2.187,4.522-.767,9.008-1.743,13.514-2.608.612-.118,1.394-.419,1.749.315C628.147,239.47,627.421,239.923,626.853,240.342Zm13.12-5.847c4.441-1.533,8.544-3.949,13.1-5.122,3.161-.814,5.866.9,8.455,2.357a61.243,61.243,0,0,1,8.7,6.276c.578.475,1.4.914,1.24,1.782-.171.936-1.128,1.162-1.9,1.389a39.617,39.617,0,0,1-11.729,1.984c-5.725.088-10.849-2.462-15.813-5.485-.651-.4-1.355-.708-1.983-1.134C639.113,235.911,638.849,234.883,639.973,234.5Z" transform="translate(-508.449 -73.35)"/>
    </g>
    <g id="Group_3372" data-name="Group 3372" transform="translate(445.705 54.893)">
      <g id="Group_3371" data-name="Group 3371">
        <g id="Group_3368" data-name="Group 3368" transform="translate(65.128 5.241)">
          <g id="Group_3365" data-name="Group 3365">
            <path id="Path_3344" data-name="Path 3344" d="M457.86,875.751c-8.184,0-13.165-3.228-15.9-5.936-2.761-2.732-6.052-7.711-6.052-15.915V801.019c0-8.2,3.291-13.182,6.052-15.914,2.737-2.709,7.718-5.937,15.9-5.937h25.054c10.56,0,19.184,2.589,25.633,7.7a28.468,28.468,0,0,1,11,23.088A29.485,29.485,0,0,1,515.7,824.9l.079.1a29.393,29.393,0,0,1,5.721,18.112c0,10.038-3.922,18.5-11.343,24.468-6.734,5.417-15.556,8.164-26.219,8.164Z" transform="translate(-435.906 -778.038)" fill="#040405"/>
            <path id="Path_3345" data-name="Path 3345" d="M475.078,880.872q-9.857,0-9.858-9.755V818.236q0-9.753,9.858-9.754h25.054q11.706,0,18.123,5.083a16.47,16.47,0,0,1,6.418,13.6,17.279,17.279,0,0,1-2.824,9.858,16.859,16.859,0,0,1-7.855,6.263,17.779,17.779,0,0,1,9.344,6.212,17.5,17.5,0,0,1,3.286,10.833q0,9.549-6.828,15.043t-18.636,5.493Zm8.214-43.639h13.451q5.133,0,7.547-1.848a6.665,6.665,0,0,0,2.413-5.647q0-3.8-2.413-5.6t-7.547-1.8H483.292Zm0,29.777h15.3q5.237,0,7.649-2T508.654,859q0-4-2.413-5.956t-7.649-1.951h-15.3Z" transform="translate(-453.123 -795.256)" fill="#040405"/>
            <g transform="matrix(1, 0, 0, 1, -258, -42.74)" filter="url(#Path_3346)">
              <path id="Path_3346-2" data-name="Path 3346" d="M632.125,875.36c-7.875,0-12.794-3.267-15.535-6.007s-6.008-7.7-6.008-15.741V798.677c0-8.045,3.267-13,6.008-15.741s7.661-6.007,15.535-6.007,12.8,3.267,15.536,6.007,6.008,7.7,6.008,15.742v54.934c0,7.981-3.189,12.914-5.865,15.648C645.076,872.045,640.146,875.36,632.125,875.36Z" transform="translate(-280.5 -733.98)" fill="#040405"/>
            </g>
            <path id="Path_3347" data-name="Path 3347" d="M649.342,880.48q-4.519,0-6.982-2.464t-2.464-7.187V815.894q0-4.722,2.464-7.188a11.125,11.125,0,0,1,13.965,0q2.464,2.464,2.464,7.188v54.934q0,4.723-2.413,7.187T649.342,880.48Z" transform="translate(-555.718 -793.94)" fill="#040405"/>
            <g transform="matrix(1, 0, 0, 1, -258, -42.74)" filter="url(#Path_3348)">
              <path id="Path_3348-2" data-name="Path 3348" d="M724.2,875.273a80.132,80.132,0,0,1-15.186-1.5,56.415,56.415,0,0,1-14.383-4.665,19.919,19.919,0,0,1-11.386-20.654,20.862,20.862,0,0,1,4.1-10.082,19.05,19.05,0,0,1,5.056-4.647l0,0c-5.38-5.636-8.224-13.1-8.224-21.574a32.634,32.634,0,0,1,6.135-19.5,36.861,36.861,0,0,1,15.808-12.323,52.8,52.8,0,0,1,20.753-3.891,63.875,63.875,0,0,1,13.371,1.45,44.09,44.09,0,0,1,12.9,4.828,19.237,19.237,0,0,1,9.579,11.623,20.553,20.553,0,0,1-.527,13.217,18.879,18.879,0,0,1-6.419,8.5,30.574,30.574,0,0,1,2.752,2.448A29.563,29.563,0,0,1,767,839.868a32.362,32.362,0,0,1-6.1,19.424,36.451,36.451,0,0,1-15.808,12.172A54.047,54.047,0,0,1,724.2,875.273Z" transform="translate(-323.08 -733.69)" fill="#040405"/>
            </g>
            <path id="Path_3349" data-name="Path 3349" d="M741.415,880.393a67.729,67.729,0,0,1-12.886-1.283,44.149,44.149,0,0,1-11.346-3.645,7.84,7.84,0,0,1-4.723-8.266,8.876,8.876,0,0,1,1.746-4.313,7.025,7.025,0,0,1,3.8-2.567,7.784,7.784,0,0,1,5.339.667,34.683,34.683,0,0,0,8.831,2.927,47.66,47.66,0,0,0,9.241.976q6.777,0,9.5-1.8a5.254,5.254,0,0,0,2.721-4.467,4.539,4.539,0,0,0-1.9-3.8q-1.9-1.437-6.725-2.464l-12.014-2.567q-19.511-4.208-19.51-20.433a20.683,20.683,0,0,1,3.851-12.424,24.838,24.838,0,0,1,10.73-8.266,40.662,40.662,0,0,1,16.019-2.927,51.52,51.52,0,0,1,10.832,1.181,31.75,31.75,0,0,1,9.5,3.543,7.394,7.394,0,0,1,3.9,4.466,8.4,8.4,0,0,1-.205,5.494,6.912,6.912,0,0,1-3.645,3.9q-2.618,1.232-6.623-.411a30.832,30.832,0,0,0-6.777-2,40.487,40.487,0,0,0-7.188-.668q-5.752,0-8.83,2a5.992,5.992,0,0,0-3.081,5.185,4.478,4.478,0,0,0,1.848,3.7q1.848,1.439,6.572,2.464l11.911,2.567q19.816,4.212,19.818,19.92a20.425,20.425,0,0,1-3.8,12.322,24.448,24.448,0,0,1-10.678,8.112A41.921,41.921,0,0,1,741.415,880.393Z" transform="translate(-598.298 -793.648)" fill="#040405"/>
            <g transform="matrix(1, 0, 0, 1, -258, -42.74)" filter="url(#Path_3350)">
              <path id="Path_3350-2" data-name="Path 3350" d="M920.515,875.36c-8.026,0-12.957-3.318-15.68-6.1-2.672-2.727-5.863-7.661-5.863-15.647V845.48h-5.687v8.132c0,7.981-3.189,12.914-5.864,15.648-2.728,2.785-7.658,6.1-15.679,6.1-7.875,0-12.795-3.267-15.535-6.007s-6.008-7.7-6.008-15.741V798.677c0-8.045,3.267-13,6.007-15.741s7.661-6.007,15.536-6.007,12.795,3.267,15.535,6.007,6.008,7.7,6.008,15.742v7.1h5.687v-7.1c0-8.045,3.267-13,6.008-15.741s7.661-6.007,15.536-6.007c7.936,0,12.849,3.315,15.573,6.1,2.679,2.737,5.868,7.671,5.868,15.652v54.934c0,7.981-3.189,12.914-5.864,15.648C933.363,872.045,928.45,875.36,920.515,875.36Z" transform="translate(-421.23 -733.98)" fill="#040405"/>
            </g>
            <path id="Path_3351" data-name="Path 3351" d="M888.958,880.48q-4.519,0-6.983-2.464t-2.464-7.187V815.894q0-4.722,2.464-7.188a11.125,11.125,0,0,1,13.965,0q2.464,2.464,2.464,7.188v19.2h29.88v-19.2q0-4.722,2.464-7.188t6.982-2.464q4.517,0,6.931,2.464t2.413,7.188v54.934q0,4.723-2.413,7.187t-6.931,2.464q-4.621,0-7.034-2.464t-2.413-7.187V850.6h-29.88v20.228q0,4.723-2.413,7.187T888.958,880.48Z" transform="translate(-696.454 -793.94)" fill="#040405"/>
            <g transform="matrix(1, 0, 0, 1, -258, -42.74)" filter="url(#Path_3352)">
              <path id="Path_3352-2" data-name="Path 3352" d="M1089.177,875.566c-13.715,0-24.665-3.825-32.546-11.367-8.029-7.683-12.1-18.673-12.1-32.664v-32.96c0-7.961,3.268-12.9,6.009-15.639s7.659-6.006,15.535-6.006,12.8,3.266,15.535,6.007,6.008,7.679,6.008,15.639V831.74a11.677,11.677,0,0,0,.451,3.74,6.633,6.633,0,0,0,1.109.079,6.31,6.31,0,0,0,1-.068,11.621,11.621,0,0,0,.455-3.751V798.575c0-7.9,3.191-12.817,5.868-15.55,2.719-2.778,7.632-6.1,15.573-6.1,8,0,12.9,3.365,15.61,6.189,2.615,2.729,5.727,7.622,5.727,15.457v32.96c0,13.931-3.966,24.885-11.788,32.559C1113.867,871.706,1102.95,875.566,1089.177,875.566Z" transform="translate(-535.37 -733.98)" fill="#040405"/>
            </g>
            <path id="Path_3353" data-name="Path 3353" d="M1106.395,880.686q-15.813,0-24.181-8.009t-8.369-23.925v-32.96q0-4.621,2.464-7.085t6.982-2.464a9.447,9.447,0,0,1,6.983,2.464q2.464,2.464,2.464,7.085v33.166q0,7.908,3.491,11.911t10.165,4q6.57,0,10.063-4t3.491-11.911V815.791q0-4.621,2.413-7.085t6.931-2.464q4.517,0,6.879,2.464t2.362,7.085v32.96q0,15.917-8.163,23.925T1106.395,880.686Z" transform="translate(-810.594 -793.94)" fill="#040405"/>
          </g>
          <g id="Group_3366" data-name="Group 3366" transform="translate(12.097 13.709)">
            <path id="Path_3354" data-name="Path 3354" d="M475.078,884.78q-9.857,0-9.858-9.755v-52.88q0-9.754,9.858-9.755h25.054q11.706,0,18.123,5.083a16.47,16.47,0,0,1,6.418,13.605,17.277,17.277,0,0,1-2.824,9.857,16.857,16.857,0,0,1-7.855,6.263,17.782,17.782,0,0,1,9.344,6.213,17.5,17.5,0,0,1,3.286,10.833q0,9.549-6.828,15.043t-18.636,5.493Zm8.214-43.639h13.451q5.133,0,7.547-1.848a6.665,6.665,0,0,0,2.413-5.648q0-3.8-2.413-5.6t-7.547-1.8H483.292Zm0,29.777h15.3q5.237,0,7.649-2t2.413-6.007q0-4-2.413-5.956T498.591,855h-15.3Z" transform="translate(-465.22 -811.261)" fill="#fff"/>
            <path id="Path_3355" data-name="Path 3355" d="M649.342,884.389a9.443,9.443,0,0,1-6.982-2.464q-2.464-2.464-2.464-7.188V819.8q0-4.722,2.464-7.187t6.982-2.464a9.445,9.445,0,0,1,6.983,2.464q2.464,2.464,2.464,7.187v54.934q0,4.724-2.413,7.188T649.342,884.389Z" transform="translate(-567.814 -809.945)" fill="#fff"/>
            <path id="Path_3356" data-name="Path 3356" d="M741.415,884.3a67.719,67.719,0,0,1-12.886-1.283,44.129,44.129,0,0,1-11.346-3.645,7.84,7.84,0,0,1-4.723-8.266A8.877,8.877,0,0,1,714.2,866.8a7.025,7.025,0,0,1,3.8-2.567,7.78,7.78,0,0,1,5.339.667,34.721,34.721,0,0,0,8.831,2.927,47.655,47.655,0,0,0,9.241.976q6.777,0,9.5-1.8a5.253,5.253,0,0,0,2.721-4.467,4.539,4.539,0,0,0-1.9-3.8q-1.9-1.437-6.725-2.464L732.995,853.7q-19.511-4.209-19.51-20.434a20.685,20.685,0,0,1,3.851-12.424,24.839,24.839,0,0,1,10.73-8.266,40.656,40.656,0,0,1,16.019-2.927,51.528,51.528,0,0,1,10.832,1.181,31.758,31.758,0,0,1,9.5,3.542,7.394,7.394,0,0,1,3.9,4.467,8.4,8.4,0,0,1-.205,5.493,6.915,6.915,0,0,1-3.645,3.9q-2.618,1.232-6.623-.411a30.868,30.868,0,0,0-6.777-2,40.492,40.492,0,0,0-7.188-.667q-5.752,0-8.83,2a5.992,5.992,0,0,0-3.081,5.185,4.478,4.478,0,0,0,1.848,3.7q1.848,1.439,6.572,2.464l11.911,2.567q19.816,4.212,19.818,19.92a20.425,20.425,0,0,1-3.8,12.322,24.449,24.449,0,0,1-10.678,8.112A41.913,41.913,0,0,1,741.415,884.3Z" transform="translate(-610.395 -809.653)" fill="#fff"/>
            <path id="Path_3357" data-name="Path 3357" d="M888.958,884.389q-4.519,0-6.983-2.464t-2.464-7.188V819.8q0-4.722,2.464-7.187t6.983-2.464a9.445,9.445,0,0,1,6.983,2.464q2.464,2.464,2.464,7.187V839h29.88V819.8q0-4.722,2.464-7.187t6.982-2.464q4.517,0,6.931,2.464t2.413,7.187v54.934q0,4.724-2.413,7.188t-6.931,2.464q-4.621,0-7.034-2.464t-2.413-7.188V854.509h-29.88v20.228q0,4.724-2.413,7.188T888.958,884.389Z" transform="translate(-708.551 -809.945)" fill="#fff"/>
            <path id="Path_3358" data-name="Path 3358" d="M1106.395,884.594q-15.813,0-24.181-8.009t-8.369-23.925V819.7q0-4.621,2.464-7.085t6.982-2.464a9.445,9.445,0,0,1,6.983,2.464q2.464,2.464,2.464,7.085v33.166q0,7.908,3.491,11.911t10.165,4q6.57,0,10.063-4t3.491-11.911V819.7q0-4.621,2.413-7.085t6.931-2.464q4.517,0,6.879,2.464t2.362,7.085v32.96q0,15.917-8.163,23.925T1106.395,884.594Z" transform="translate(-822.691 -809.945)" fill="#fff"/>
          </g>
          <g id="Group_3367" data-name="Group 3367" transform="translate(12.097 9.677)">
            <path id="Path_3359" data-name="Path 3359" d="M475.078,875.009q-9.857,0-9.858-9.755v-52.88q0-9.754,9.858-9.755h25.054q11.706,0,18.123,5.083a16.47,16.47,0,0,1,6.418,13.605,17.278,17.278,0,0,1-2.824,9.857,16.857,16.857,0,0,1-7.855,6.263,17.782,17.782,0,0,1,9.344,6.212,17.5,17.5,0,0,1,3.286,10.833q0,9.549-6.828,15.043t-18.636,5.493Zm8.214-43.639h13.451q5.133,0,7.547-1.849a6.664,6.664,0,0,0,2.413-5.647q0-3.8-2.413-5.6t-7.547-1.8H483.292Zm0,29.777h15.3q5.237,0,7.649-2t2.413-6.007q0-4-2.413-5.956t-7.649-1.951h-15.3Z" transform="translate(-465.22 -801.49)" fill="#18b6b9"/>
            <path id="Path_3360" data-name="Path 3360" d="M649.342,874.618a9.444,9.444,0,0,1-6.982-2.464q-2.464-2.464-2.464-7.188V810.031q0-4.722,2.464-7.188a11.125,11.125,0,0,1,13.965,0q2.464,2.464,2.464,7.188v54.934q0,4.724-2.413,7.188T649.342,874.618Z" transform="translate(-567.814 -800.174)" fill="#18b6b9"/>
            <path id="Path_3361" data-name="Path 3361" d="M741.415,874.531a67.709,67.709,0,0,1-12.886-1.283,44.131,44.131,0,0,1-11.346-3.645,7.84,7.84,0,0,1-4.723-8.266,8.876,8.876,0,0,1,1.746-4.313,7.028,7.028,0,0,1,3.8-2.567,7.783,7.783,0,0,1,5.339.668,34.692,34.692,0,0,0,8.831,2.926,47.628,47.628,0,0,0,9.241.976q6.777,0,9.5-1.8a5.253,5.253,0,0,0,2.721-4.467,4.539,4.539,0,0,0-1.9-3.8q-1.9-1.437-6.725-2.464l-12.014-2.567q-19.511-4.209-19.51-20.434a20.684,20.684,0,0,1,3.851-12.424,24.838,24.838,0,0,1,10.73-8.266,40.655,40.655,0,0,1,16.019-2.927,51.531,51.531,0,0,1,10.832,1.181,31.76,31.76,0,0,1,9.5,3.543,7.4,7.4,0,0,1,3.9,4.467,8.4,8.4,0,0,1-.205,5.493,6.913,6.913,0,0,1-3.645,3.9q-2.618,1.232-6.623-.411a30.842,30.842,0,0,0-6.777-2,40.486,40.486,0,0,0-7.188-.667q-5.752,0-8.83,2a5.992,5.992,0,0,0-3.081,5.186,4.478,4.478,0,0,0,1.848,3.7q1.848,1.439,6.572,2.464L752.3,831.3q19.816,4.212,19.818,19.92a20.425,20.425,0,0,1-3.8,12.322,24.451,24.451,0,0,1-10.678,8.112A41.923,41.923,0,0,1,741.415,874.531Z" transform="translate(-610.395 -799.882)" fill="#18b6b9"/>
            <path id="Path_3362" data-name="Path 3362" d="M888.958,874.618a9.444,9.444,0,0,1-6.983-2.464q-2.464-2.464-2.464-7.188V810.031q0-4.722,2.464-7.188a11.125,11.125,0,0,1,13.965,0q2.464,2.464,2.464,7.188v19.2h29.88v-19.2q0-4.722,2.464-7.188t6.982-2.464q4.517,0,6.931,2.464t2.413,7.188v54.934q0,4.724-2.413,7.188t-6.931,2.464q-4.621,0-7.034-2.464t-2.413-7.188V844.737h-29.88v20.228q0,4.724-2.413,7.188T888.958,874.618Z" transform="translate(-708.551 -800.174)" fill="#18b6b9"/>
            <path id="Path_3363" data-name="Path 3363" d="M1106.395,874.823q-15.813,0-24.181-8.009t-8.369-23.925v-32.96q0-4.621,2.464-7.085t6.982-2.464a9.447,9.447,0,0,1,6.983,2.464q2.464,2.464,2.464,7.085v33.165q0,7.908,3.491,11.911t10.165,4q6.57,0,10.063-4t3.491-11.911V809.929q0-4.621,2.413-7.085t6.931-2.464q4.517,0,6.879,2.464t2.362,7.085v32.96q0,15.917-8.163,23.925T1106.395,874.823Z" transform="translate(-822.691 -800.174)" fill="#18b6b9"/>
          </g>
        </g>
        <g transform="matrix(1, 0, 0, 1, -192.87, -37.5)" filter="url(#Path_3364)">
          <path id="Path_3364-2" data-name="Path 3364" d="M313.871,871.583a13.194,13.194,0,0,1-9.419-3.673,12.794,12.794,0,0,1-3.828-8.808,49.1,49.1,0,0,1-16.318-6.553,12.914,12.914,0,0,1-4.736-4.844,13.79,13.79,0,0,1-1.49-6.659,14.268,14.268,0,0,1,3.114-9.107,11.449,11.449,0,0,1,9.037-4.559,13.858,13.858,0,0,1,4.376.72,23.651,23.651,0,0,1,4.208,1.99,31.3,31.3,0,0,0,6.829,2.848,25.991,25.991,0,0,0,6.611.808,14.479,14.479,0,0,0,3.848-.412c-.212-.087-.436-.169-.671-.246-1.519-.5-3.819-1.137-6.83-1.906a103.548,103.548,0,0,1-13.225-4.153,27.61,27.61,0,0,1-10.788-7.908c-3.313-3.924-4.994-9.057-4.994-15.254a25.816,25.816,0,0,1,7.358-18.3,32.449,32.449,0,0,1,13.252-8.341v-.329a12.858,12.858,0,0,1,3.891-9.435,13.777,13.777,0,0,1,18.79-.052,12.867,12.867,0,0,1,3.841,9.265,51.281,51.281,0,0,1,13.488,6.1l.124.08a13.529,13.529,0,0,1,4.639,4.981,13.869,13.869,0,0,1,1.451,6.433,14.3,14.3,0,0,1-3.219,9.175,11.6,11.6,0,0,1-9.033,4.491,12.934,12.934,0,0,1-4.444-.779,33.608,33.608,0,0,1-3.987-1.849l-.185-.1c-.187-.106-.846-.471-2.934-1.559a20.018,20.018,0,0,0-3.97-1.538,16.313,16.313,0,0,0-4.281-.539,7.58,7.58,0,0,0-3.567.692,49.839,49.839,0,0,0,8.2,2.445,91.884,91.884,0,0,1,13.175,3.92,26.682,26.682,0,0,1,10.77,7.982c3.246,3.952,4.892,9.115,4.892,15.345a25.332,25.332,0,0,1-7.362,18.26,32.023,32.023,0,0,1-13.349,8.062v.147a12.9,12.9,0,0,1-3.839,9.484A13.2,13.2,0,0,1,313.871,871.583Z" transform="translate(-85.21 -726.23)" stroke="#000" stroke-miterlimit="10" stroke-width="10"/>
        </g>
        <g id="Group_3370" data-name="Group 3370" transform="translate(6.19 6.183)">
          <g id="Group_3369" data-name="Group 3369">
            <path id="Path_3365" data-name="Path 3365" d="M344.858,854.695q-5.607,5.759-15.1,7.577v4.95a6.737,6.737,0,0,1-1.97,5.052,7.741,7.741,0,0,1-10.2,0,6.737,6.737,0,0,1-1.97-5.052v-4.546a45.375,45.375,0,0,1-19.2-6.567,6.855,6.855,0,0,1-2.576-2.526,7.918,7.918,0,0,1-.758-3.738,8.184,8.184,0,0,1,1.768-5.254,5.232,5.232,0,0,1,4.193-2.223,7.66,7.66,0,0,1,2.425.4,18.211,18.211,0,0,1,3.132,1.515,37.318,37.318,0,0,0,8.284,3.435,32.012,32.012,0,0,0,8.183,1.011q5.354,0,8.133-1.768a5.869,5.869,0,0,0,2.778-5.3,4.306,4.306,0,0,0-1.667-3.486A12.712,12.712,0,0,0,326.167,836q-2.477-.808-7.224-2.021a97.129,97.129,0,0,1-12.426-3.89,21.385,21.385,0,0,1-8.386-6.163q-3.538-4.191-3.536-11.265a19.728,19.728,0,0,1,5.658-14.043,30.011,30.011,0,0,1,15.365-8.706v-5.051a6.683,6.683,0,0,1,2.02-5c1.347-1.313,2.618-1.145,4.639-1.145a7.008,7.008,0,0,1,5.1,1.92,6.736,6.736,0,0,1,1.97,5.051v4.748a42.916,42.916,0,0,1,16.367,6.365,7.43,7.43,0,0,1,2.576,2.677,7.74,7.74,0,0,1,.758,3.587,8.039,8.039,0,0,1-1.819,5.254,5.367,5.367,0,0,1-4.243,2.223,6.733,6.733,0,0,1-2.323-.4,28.87,28.87,0,0,1-3.233-1.516q-.708-.4-3.132-1.667a26.148,26.148,0,0,0-5.2-2.02,22.391,22.391,0,0,0-5.91-.758,12.639,12.639,0,0,0-7.375,1.97,6.148,6.148,0,0,0-2.829,5.3,5.174,5.174,0,0,0,3.233,4.85,49.39,49.39,0,0,0,10.2,3.233,85.433,85.433,0,0,1,12.275,3.637,20.463,20.463,0,0,1,8.285,6.163q3.485,4.243,3.486,11.416A19.252,19.252,0,0,1,344.858,854.695Z" transform="translate(-293.08 -778.714)" fill="#fff"/>
          </g>
        </g>
      </g>
      <path id="Path_3366" data-name="Path 3366" d="M347.419,874.132h0l.115-73.679h13.731l.4,72.111Z" transform="translate(-318.806 -785.3)" fill="#fff"/>
      <path id="Path_3367" data-name="Path 3367" d="M339.258,840.423a7.425,7.425,0,0,0,0,14.507Z" transform="translate(-310.583 -808.775)"/>
      <path id="Path_3368" data-name="Path 3368" d="M379.419,929.93a7.425,7.425,0,0,0,0-14.507Z" transform="translate(-337.601 -852.826)"/>
    </g>
  </g>
</svg>
