<svg xmlns="http://www.w3.org/2000/svg" xmlns:xlink="http://www.w3.org/1999/xlink" width="577.856" height="180.739" viewBox="0 0 577.856 180.739">
  <defs>
    <filter id="Path_361" x="0" y="1.86" width="158.93" height="177.02" filterUnits="userSpaceOnUse">
      <feOffset dy="3" input="SourceAlpha"/>
      <feGaussianBlur stdDeviation="3" result="blur"/>
      <feFlood flood-opacity="0.161"/>
      <feComposite operator="in" in2="blur"/>
      <feComposite in="SourceGraphic"/>
    </filter>
    <filter id="Path_363" x="118.679" y="0.339" width="88.94" height="180.063" filterUnits="userSpaceOnUse">
      <feOffset dy="3" input="SourceAlpha"/>
      <feGaussianBlur stdDeviation="3" result="blur-2"/>
      <feFlood flood-opacity="0.161"/>
      <feComposite operator="in" in2="blur-2"/>
      <feComposite in="SourceGraphic"/>
    </filter>
    <filter id="Path_365" x="167.939" y="0" width="156.162" height="180.739" filterUnits="userSpaceOnUse">
      <feOffset dy="3" input="SourceAlpha"/>
      <feGaussianBlur stdDeviation="3" result="blur-3"/>
      <feFlood flood-opacity="0.161"/>
      <feComposite operator="in" in2="blur-3"/>
      <feComposite in="SourceGraphic"/>
    </filter>
    <filter id="Path_367" x="281.481" y="0.339" width="169.074" height="180.063" filterUnits="userSpaceOnUse">
      <feOffset dy="3" input="SourceAlpha"/>
      <feGaussianBlur stdDeviation="3" result="blur-4"/>
      <feFlood flood-opacity="0.161"/>
      <feComposite operator="in" in2="blur-4"/>
      <feComposite in="SourceGraphic"/>
    </filter>
    <filter id="Path_369" x="413.515" y="0.339" width="164.34" height="180.401" filterUnits="userSpaceOnUse">
      <feOffset dy="3" input="SourceAlpha"/>
      <feGaussianBlur stdDeviation="3" result="blur-5"/>
      <feFlood flood-opacity="0.161"/>
      <feComposite operator="in" in2="blur-5"/>
      <feComposite in="SourceGraphic"/>
    </filter>
  </defs>
  <g id="Group_349" data-name="Group 349" transform="translate(9 6)">
    <g id="Group_346" data-name="Group 346">
      <g transform="matrix(1, 0, 0, 1, -9, -6)" filter="url(#Path_361)">
        <path id="Path_361-2" data-name="Path 361" d="M783.991,1081.062c-13.475,0-21.674-5.315-26.181-9.774-4.546-4.5-9.965-12.7-9.965-26.2V958.019c0-13.505,5.419-21.7,9.964-26.2,4.507-4.459,12.707-9.775,26.182-9.775h41.25c17.386,0,31.586,4.263,42.2,12.671,11.854,9.391,18.119,22.536,18.119,38.014a48.548,48.548,0,0,1-6.338,24.613c.044.057.087.114.13.172,6.253,8.31,9.42,18.34,9.42,29.821,0,16.527-6.458,30.458-18.676,40.286-11.087,8.919-25.612,13.442-43.167,13.442Z" transform="translate(-738.84 -914.18)" fill="#040405"/>
      </g>
      <path id="Path_362" data-name="Path 362" d="M794.075,1071.229q-16.23,0-16.23-16.061V968.1q0-16.059,16.23-16.061h41.25q19.273,0,29.839,8.368t10.566,22.4a28.443,28.443,0,0,1-4.65,16.229,27.754,27.754,0,0,1-12.932,10.313q9.972,3.043,15.384,10.228t5.41,17.836q0,15.723-11.243,24.767t-30.684,9.045Zm13.525-71.85h22.146q8.453,0,12.426-3.043t3.973-9.3q0-6.253-3.973-9.214t-12.426-2.958H807.6Zm0,49.027h25.19q8.623,0,12.595-3.3t3.973-9.89q0-6.595-3.973-9.806t-12.595-3.212H807.6Z" transform="translate(-757.929 -930.265)" fill="#040405"/>
      <g transform="matrix(1, 0, 0, 1, -9, -6)" filter="url(#Path_363)">
        <path id="Path_363-2" data-name="Path 363" d="M962.081,1081.813c-12.966,0-21.065-5.378-25.578-9.891s-9.892-12.671-9.892-25.917V955.558c0-13.246,5.379-21.4,9.891-25.917s12.613-9.891,25.579-9.891,21.066,5.378,25.579,9.89,9.892,12.672,9.892,25.918V1046c0,13.141-5.251,21.264-9.656,25.764C983.4,1076.354,975.287,1081.813,962.081,1081.813Z" transform="translate(-798.93 -913.41)" fill="#040405"/>
      </g>
      <path id="Path_364" data-name="Path 364" d="M972.164,1071.98q-7.441,0-11.5-4.058t-4.058-11.834V965.641q0-7.774,4.058-11.834t11.5-4.057q7.438,0,11.5,4.057t4.057,11.834v90.447q0,7.778-3.973,11.834T972.164,1071.98Z" transform="translate(-818.016 -929.495)" fill="#040405"/>
      <g transform="matrix(1, 0, 0, 1, -9, -6)" filter="url(#Path_365)">
        <path id="Path_365-2" data-name="Path 365" d="M1068.507,1081.979a131.942,131.942,0,0,1-25-2.476,92.923,92.923,0,0,1-23.681-7.681,32.8,32.8,0,0,1-18.746-34.007,34.354,34.354,0,0,1,6.752-16.6,31.36,31.36,0,0,1,8.324-7.65l0,0c-8.859-9.279-13.541-21.562-13.541-35.521a53.735,53.735,0,0,1,10.1-32.1,60.692,60.692,0,0,1,26.028-20.289c9.991-4.251,21.488-6.407,34.168-6.407a105.162,105.162,0,0,1,22.015,2.388,72.581,72.581,0,0,1,21.233,7.949,31.671,31.671,0,0,1,15.771,19.137,33.846,33.846,0,0,1-.868,21.76,31.078,31.078,0,0,1-10.569,14,50.526,50.526,0,0,1,4.531,4.032c9.13,9.176,13.956,21.34,13.956,35.178a53.288,53.288,0,0,1-10.05,31.98c-6.333,8.729-15.089,15.471-26.027,20.04C1092.929,1079.869,1081.36,1081.979,1068.507,1081.979Z" transform="translate(-823.87 -913.24)" fill="#040405"/>
      </g>
      <path id="Path_366" data-name="Path 366" d="M1078.589,1072.147a111.458,111.458,0,0,1-21.217-2.113,72.645,72.645,0,0,1-18.681-6,12.907,12.907,0,0,1-7.777-13.609,14.619,14.619,0,0,1,2.874-7.1,11.566,11.566,0,0,1,6.255-4.227q3.886-1.1,8.791,1.1a57.137,57.137,0,0,0,14.539,4.818,78.482,78.482,0,0,0,15.216,1.606q11.157,0,15.638-2.958t4.48-7.354a7.471,7.471,0,0,0-3.127-6.255q-3.131-2.366-11.073-4.057l-19.78-4.227q-32.122-6.93-32.121-33.643a34.057,34.057,0,0,1,6.339-20.456,40.9,40.9,0,0,1,17.667-13.61q11.324-4.818,26.373-4.818a84.817,84.817,0,0,1,17.836,1.944,52.28,52.28,0,0,1,15.638,5.833,12.174,12.174,0,0,1,6.424,7.354,13.819,13.819,0,0,1-.338,9.045,11.385,11.385,0,0,1-6,6.424q-4.311,2.029-10.9-.677a50.811,50.811,0,0,0-11.157-3.3,66.66,66.66,0,0,0-11.834-1.1q-9.47,0-14.54,3.3t-5.071,8.537a7.373,7.373,0,0,0,3.043,6.086q3.042,2.369,10.819,4.057l19.611,4.227q32.626,6.934,32.629,32.8a33.632,33.632,0,0,1-6.256,20.288q-6.256,8.622-17.582,13.356T1078.589,1072.147Z" transform="translate(-842.954 -929.324)" fill="#040405"/>
      <g transform="matrix(1, 0, 0, 1, -9, -6)" filter="url(#Path_367)">
        <path id="Path_367-2" data-name="Path 367" d="M1287.612,1081.813c-13.215,0-21.334-5.463-25.817-10.046-4.4-4.49-9.653-12.613-9.653-25.762v-13.388h-9.364V1046c0,13.141-5.251,21.264-9.656,25.764-4.491,4.586-12.609,10.044-25.814,10.044-12.966,0-21.066-5.378-25.578-9.891s-9.891-12.671-9.891-25.917V955.558c0-13.246,5.378-21.4,9.891-25.917s12.613-9.891,25.579-9.891,21.066,5.378,25.579,9.89,9.891,12.672,9.891,25.918v11.7h9.364v-11.7c0-13.246,5.378-21.4,9.89-25.917s12.613-9.891,25.579-9.891c13.065,0,21.155,5.458,25.64,10.037,4.41,4.507,9.661,12.63,9.661,25.77V1046c0,13.141-5.251,21.264-9.656,25.764C1308.767,1076.354,1300.677,1081.813,1287.612,1081.813Z" transform="translate(-881.36 -913.41)" fill="#040405"/>
      </g>
      <path id="Path_368" data-name="Path 368" d="M1217.392,1071.98q-7.441,0-11.5-4.058t-4.057-11.834V965.641q0-7.774,4.057-11.834t11.5-4.057q7.437,0,11.5,4.057t4.057,11.834v31.614h49.2V965.641q0-7.774,4.057-11.834t11.5-4.057q7.437,0,11.411,4.057t3.973,11.834v90.447q0,7.778-3.973,11.834t-11.411,4.058q-7.608,0-11.581-4.058t-3.973-11.834v-33.305h-49.2v33.305q0,7.778-3.973,11.834T1217.392,1071.98Z" transform="translate(-900.442 -929.495)" fill="#040405"/>
      <g transform="matrix(1, 0, 0, 1, -9, -6)" filter="url(#Path_369)">
        <path id="Path_369-2" data-name="Path 369" d="M1444.231,1082.151c-22.581,0-40.61-6.3-53.585-18.715-13.219-12.649-19.923-30.744-19.923-53.779V955.389c0-13.108,5.379-21.238,9.893-25.75s12.61-9.889,25.577-9.889,21.066,5.378,25.578,9.89,9.891,12.642,9.891,25.749V1010a19.256,19.256,0,0,0,.743,6.158,10.933,10.933,0,0,0,1.826.13,10.4,10.4,0,0,0,1.65-.112,19.137,19.137,0,0,0,.75-6.175V955.389c0-13.009,5.254-21.1,9.661-25.6,4.476-4.575,12.566-10.037,25.639-10.037,13.167,0,21.245,5.541,25.7,10.189,4.306,4.493,9.43,12.55,9.43,25.45v54.268c0,22.936-6.53,40.972-19.408,53.608C1484.882,1075.8,1466.907,1082.151,1444.231,1082.151Z" transform="translate(-948.21 -913.41)" fill="#040405"/>
      </g>
      <path id="Path_370" data-name="Path 370" d="M1454.315,1072.318q-26.036,0-39.813-13.187t-13.779-39.391V965.473q0-7.608,4.058-11.666t11.5-4.057q7.437,0,11.5,4.057t4.057,11.666v54.606q0,13.02,5.748,19.611t16.737,6.593q10.817,0,16.568-6.593t5.748-19.611V965.473q0-7.608,3.973-11.666t11.411-4.057q7.437,0,11.327,4.057t3.888,11.666v54.267q0,26.207-13.44,39.391T1454.315,1072.318Z" transform="translate(-967.291 -929.495)" fill="#040405"/>
    </g>
    <g id="Group_347" data-name="Group 347" transform="translate(19.916 22.572)">
      <path id="Path_371" data-name="Path 371" d="M794.075,1075.229q-16.23,0-16.23-16.061V972.1q0-16.059,16.23-16.061h41.25q19.273,0,29.839,8.368t10.566,22.4a28.442,28.442,0,0,1-4.65,16.229,27.753,27.753,0,0,1-12.932,10.313q9.972,3.043,15.384,10.229t5.41,17.836q0,15.723-11.243,24.767t-30.684,9.045Zm13.525-71.85h22.146q8.453,0,12.426-3.043t3.973-9.3q0-6.253-3.973-9.214t-12.426-2.958H807.6Zm0,49.027h25.19q8.623,0,12.595-3.3t3.973-9.89q0-6.595-3.973-9.805t-12.595-3.213H807.6Z" transform="translate(-777.845 -954.182)" fill="#fff"/>
      <path id="Path_372" data-name="Path 372" d="M972.164,1075.98q-7.441,0-11.5-4.058t-4.058-11.834V969.641q0-7.774,4.058-11.834t11.5-4.057q7.438,0,11.5,4.057t4.057,11.834v90.447q0,7.778-3.973,11.834T972.164,1075.98Z" transform="translate(-837.932 -953.411)" fill="#fff"/>
      <path id="Path_373" data-name="Path 373" d="M1078.589,1076.147a111.448,111.448,0,0,1-21.217-2.113,72.626,72.626,0,0,1-18.681-6,12.907,12.907,0,0,1-7.777-13.609,14.618,14.618,0,0,1,2.874-7.1,11.566,11.566,0,0,1,6.255-4.227q3.886-1.1,8.791,1.1a57.137,57.137,0,0,0,14.539,4.818,78.463,78.463,0,0,0,15.216,1.606q11.157,0,15.638-2.958t4.48-7.354a7.472,7.472,0,0,0-3.127-6.255q-3.131-2.366-11.073-4.057l-19.78-4.227q-32.122-6.93-32.121-33.643a34.058,34.058,0,0,1,6.339-20.456,40.9,40.9,0,0,1,17.667-13.609q11.324-4.818,26.373-4.819a84.81,84.81,0,0,1,17.836,1.945,52.274,52.274,0,0,1,15.638,5.833,12.174,12.174,0,0,1,6.424,7.354,13.818,13.818,0,0,1-.338,9.045,11.385,11.385,0,0,1-6,6.424q-4.311,2.029-10.9-.676a50.811,50.811,0,0,0-11.157-3.3,66.682,66.682,0,0,0-11.834-1.1q-9.47,0-14.54,3.3t-5.071,8.537a7.373,7.373,0,0,0,3.043,6.086q3.042,2.369,10.819,4.057l19.611,4.227q32.626,6.934,32.629,32.8a33.631,33.631,0,0,1-6.256,20.287q-6.256,8.622-17.582,13.356T1078.589,1076.147Z" transform="translate(-862.87 -953.24)" fill="#fff"/>
      <path id="Path_374" data-name="Path 374" d="M1217.392,1075.98q-7.441,0-11.5-4.058t-4.057-11.834V969.641q0-7.774,4.057-11.834t11.5-4.057q7.437,0,11.5,4.057t4.057,11.834v31.615h49.2V969.641q0-7.774,4.057-11.834t11.5-4.057q7.437,0,11.411,4.057t3.973,11.834v90.447q0,7.778-3.973,11.834t-11.411,4.058q-7.608,0-11.581-4.058t-3.973-11.834v-33.3h-49.2v33.3q0,7.778-3.973,11.834T1217.392,1075.98Z" transform="translate(-920.358 -953.411)" fill="#fff"/>
      <path id="Path_375" data-name="Path 375" d="M1454.315,1076.318q-26.036,0-39.813-13.187t-13.779-39.391V969.473q0-7.608,4.058-11.666t11.5-4.057q7.437,0,11.5,4.057t4.057,11.666v54.606q0,13.02,5.748,19.611t16.737,6.593q10.817,0,16.568-6.593t5.748-19.611V969.473q0-7.608,3.973-11.666t11.411-4.057q7.437,0,11.327,4.057t3.888,11.666v54.268q0,26.207-13.44,39.391T1454.315,1076.318Z" transform="translate(-987.208 -953.411)" fill="#fff"/>
    </g>
    <g id="Group_348" data-name="Group 348" transform="translate(19.916 15.933)">
      <path id="Path_376" data-name="Path 376" d="M794.075,1065.229q-16.23,0-16.23-16.061V962.1q0-16.06,16.23-16.061h41.25q19.273,0,29.839,8.368t10.566,22.4a28.443,28.443,0,0,1-4.65,16.229,27.754,27.754,0,0,1-12.932,10.313q9.972,3.043,15.384,10.228t5.41,17.836q0,15.723-11.243,24.767t-30.684,9.045ZM807.6,993.378h22.146q8.453,0,12.426-3.043t3.973-9.3q0-6.253-3.973-9.214t-12.426-2.958H807.6Zm0,49.027h25.19q8.623,0,12.595-3.3t3.973-9.89q0-6.594-3.973-9.805t-12.595-3.212H807.6Z" transform="translate(-777.845 -944.182)" fill="#18b6b9"/>
      <path id="Path_377" data-name="Path 377" d="M972.164,1065.98q-7.441,0-11.5-4.058t-4.058-11.834V959.641q0-7.774,4.058-11.834t11.5-4.057q7.438,0,11.5,4.057t4.057,11.834v90.447q0,7.778-3.973,11.834T972.164,1065.98Z" transform="translate(-837.932 -943.411)" fill="#18b6b9"/>
      <path id="Path_378" data-name="Path 378" d="M1078.589,1066.147a111.477,111.477,0,0,1-21.217-2.113,72.65,72.65,0,0,1-18.681-6,12.907,12.907,0,0,1-7.777-13.609,14.619,14.619,0,0,1,2.874-7.1,11.565,11.565,0,0,1,6.255-4.227q3.886-1.1,8.791,1.1a57.123,57.123,0,0,0,14.539,4.818,78.473,78.473,0,0,0,15.216,1.606q11.157,0,15.638-2.958t4.48-7.354a7.472,7.472,0,0,0-3.127-6.255q-3.131-2.366-11.073-4.057l-19.78-4.227q-32.122-6.93-32.121-33.643a34.058,34.058,0,0,1,6.339-20.456,40.9,40.9,0,0,1,17.667-13.609q11.324-4.818,26.373-4.818a84.817,84.817,0,0,1,17.836,1.944,52.275,52.275,0,0,1,15.638,5.833,12.174,12.174,0,0,1,6.424,7.354,13.818,13.818,0,0,1-.338,9.045,11.385,11.385,0,0,1-6,6.424q-4.311,2.028-10.9-.677a50.811,50.811,0,0,0-11.157-3.3,66.676,66.676,0,0,0-11.834-1.1q-9.47,0-14.54,3.3t-5.071,8.537a7.373,7.373,0,0,0,3.043,6.086q3.042,2.369,10.819,4.057l19.611,4.227q32.626,6.934,32.629,32.8a33.633,33.633,0,0,1-6.256,20.288q-6.256,8.622-17.582,13.356T1078.589,1066.147Z" transform="translate(-862.87 -943.24)" fill="#18b6b9"/>
      <path id="Path_379" data-name="Path 379" d="M1217.392,1065.98q-7.441,0-11.5-4.058t-4.057-11.834V959.641q0-7.774,4.057-11.834t11.5-4.057q7.437,0,11.5,4.057t4.057,11.834v31.615h49.2V959.641q0-7.774,4.057-11.834t11.5-4.057q7.437,0,11.411,4.057t3.973,11.834v90.447q0,7.778-3.973,11.834t-11.411,4.058q-7.608,0-11.581-4.058t-3.973-11.834v-33.3h-49.2v33.3q0,7.778-3.973,11.834T1217.392,1065.98Z" transform="translate(-920.358 -943.411)" fill="#18b6b9"/>
      <path id="Path_380" data-name="Path 380" d="M1454.315,1066.318q-26.036,0-39.813-13.187t-13.779-39.391V959.473q0-7.608,4.058-11.666t11.5-4.057q7.437,0,11.5,4.057t4.057,11.666v54.606q0,13.02,5.748,19.611t16.737,6.593q10.817,0,16.568-6.593t5.748-19.611V959.473q0-7.608,3.973-11.666t11.411-4.057q7.437,0,11.327,4.057t3.888,11.666v54.268q0,26.207-13.44,39.391T1454.315,1066.318Z" transform="translate(-987.208 -943.411)" fill="#18b6b9"/>
    </g>
  </g>
</svg>
