<svg id="Group_68" data-name="Group 68" xmlns="http://www.w3.org/2000/svg" width="302.814" height="438.435" viewBox="0 0 302.814 438.435">
  <path id="Path_25" data-name="Path 25" d="M1011.422,790.131,985.43,858.109l33.245,64.561,133.957,2.592,22.681-67.565-6.911-34.4-20.5-36.478L1018.254,785.4Z" transform="translate(-942.817 -529.358)" fill="#555658"/>
  <path id="Path_26" data-name="Path 26" d="M1156.349,980.317s18.984,6.138,45.339-3.928l-2.9,23.255-9.745,23.677-11.177,5.242-12.143-3.369-6.9-10.945-1.786-18.849Z" transform="translate(-1011.916 -606.572)" fill="#d3a374"/>
  <path id="Path_27" data-name="Path 27" d="M1156.943,1012.659l8.28,20.117,11.177,5.242,12.143-3.369,6.9-10.945,1.341-14.145c-2.332-.044-8.979-7.952-8.979-7.952l-8.865,11.064-10.679-11.064S1159.527,1011.7,1156.943,1012.659Z" transform="translate(-1012.156 -616.767)" fill="#a8774e"/>
  <path id="Path_28" data-name="Path 28" d="M1288.051,834.206l12.228-6.112,10.238-3.86,10.711,2.439,9.193,10.864,11.9-1.4,10.936,5.476,4.825,12.551.643,19.647,7.72,18.589-9.781,18.034-9.936,13.755-3.121,13.628-14.8,7.625-18.8.561-9-5.047Z" transform="translate(-1065.161 -545.058)" fill="#f2f3f2"/>
  <path id="Path_29" data-name="Path 29" d="M1315.792,948.975c.136-.032-12.085-3.441-9.754-6.975l-6.1-11.605c3.627-5.5,9.242-6.482,12.6-7.07,4.16-.729,8.088-1.417,12.052-11.24,2.41-5.971,1.395-16.076-3.018-30.034-.286-.907-.512-1.632-.657-2.14-.43-1.519-1.327-4.676-9.866-5.195a49.3,49.3,0,0,0-13.839,1.414l-6.866-24.886a74.647,74.647,0,0,1,21.5-2.339c17.466.828,29.825,9.561,33.911,23.958.095.335.248.81.437,1.408,2.583,8.171,9.443,29.876,2.342,47.474-9.329,23.118-24.892,25.844-31.538,27.008C1316.567,948.828,1315.986,948.929,1315.792,948.975Z" transform="translate(-1066.088 -555.005)" fill="#cecece"/>
  <path id="Path_30" data-name="Path 30" d="M1298.97,856.425s33.3-9.254,39.534,12.706c1.183,4.169,9.2,25.733,3.227,40.529-9.082,22.506-23.749,17.41-25.844,20.586" transform="translate(-1069.575 -557.29)" fill="#cecece"/>
  <path id="Path_31" data-name="Path 31" d="M1028.587,539.451c-2.758-2.522-9.061-12.568-38.734-12.568-28.1,0-32.809,8.662-32.809,8.662l4.021-43.464,5.265-24.768-2.049-29.592-11.9-68.81,13.348-9.031,16.566,6.8,18.139,19.59,24.767,33.226,36.865-6.542h14.475l28.4,6.542,5.531-1.044,21.139-30.75,20-23.86,15.308-3.96,13.137,4.274-3.454,43.01-7.432,65.219,3.538,15.2,3.893,62.08-220.047-3.217" transform="translate(-929.455 -357.328)" fill="#494b4f"/>
  <path id="Path_32" data-name="Path 32" d="M1012,427.078s-29.689-49.043-40.655-41.553c-16.031,10.949-21.066-16.382-21.066-16.382l14.6-9.263,12.435,4.019,28.763,31.081,18.273,24.514Z" transform="translate(-928.605 -357.328)" fill="#393b3d"/>
  <path id="Path_33" data-name="Path 33" d="M1225.546,427.078s29.689-49.043,40.655-41.553c16.031,10.949,21.067-16.382,21.067-16.382l-14.6-9.263-12.434,4.019-28.764,31.081L1213.2,419.495Z" transform="translate(-1034.898 -357.328)" fill="#393b3d"/>
  <path id="Path_34" data-name="Path 34" d="M985.312,668.828,959.4,671.343l25.7.376C985.169,670.754,985.237,669.791,985.312,668.828Z" transform="translate(-932.293 -482.23)" fill="#555658"/>
  <path id="Path_35" data-name="Path 35" d="M1298.97,865.846s33.3-9.254,39.534,12.705c1.183,4.169,9.2,25.733,3.227,40.529-9.082,22.506-23.749,17.41-25.844,20.586" transform="translate(-1069.575 -561.099)" fill="#555658"/>
  <path id="Path_36" data-name="Path 36" d="M1033.682,857.663c11.737,9.727,27.325,9.832,41.713,12.062a166.023,166.023,0,0,0,25.1,2.417,74.136,74.136,0,0,0,22.579-3.571c6.76-2.123,14.2-4.9,19.818-9.354,5.063-4.015,7.084-10.852,9.747-16.468,2.292-4.834,4.309-9.863,6.992-14.5s6.555-9.71,12.168-10.692a5.685,5.685,0,0,1,2.274.052l-17.3-30.788L1027.118,785.4l-6.833,4.732-12.931,33.82C1015.412,835.728,1022.571,848.455,1033.682,857.663Z" transform="translate(-951.68 -529.358)" fill="#393b3d"/>
  <path id="Path_37" data-name="Path 37" d="M1037.677,846.689c-.842-.542-1.8.8-1.573,1.777.989,4.327,4.021,15.213,5.674,23.346,1.115,5.485.851,10.056,1.98,11.307,5.052,5.6,28.273,20.879,56.934,21.23,26.351.322,53.229-19.873,54.376-20.1,2.019-.407,6.449-22.859,7.792-29.91.21-1.1-.915-2.944-1.731-2.172-6.713,6.349-36.406,16.494-63.976,15.356C1070.6,866.422,1045.045,851.435,1037.677,846.689Z" transform="translate(-963.29 -554.086)" fill="#f2f3f2"/>
  <path id="Path_38" data-name="Path 38" d="M1040.415,865.683c2.213,1.312,4.341,2.767,6.573,4.168,4.107,2.577,8.445,3.846,13.044,5.233a123.353,123.353,0,0,0,13.841,3.736,108.47,108.47,0,0,0,13.929,1.45,208.2,208.2,0,0,0,28.979-.464,175.256,175.256,0,0,0,28.16-5.329,29.9,29.9,0,0,0,10.864-4.764c1.652-1.25,3.1-2.588,4.7-3.7,1.011-4.718,1.879-9.172,2.356-11.679.21-1.1-.915-2.944-1.731-2.172-6.713,6.349-36.406,16.494-63.976,15.356-26.553-1.1-52.108-16.083-59.476-20.829-.842-.542-1.8.8-1.573,1.777C1036.858,851.767,1038.8,858.883,1040.415,865.683Z" transform="translate(-963.29 -554.086)" fill="#cecece"/>
  <rect id="Rectangle_2" data-name="Rectangle 2" width="13.55" height="9.65" transform="translate(130.858 346.081)" fill="#f2f3f2"/>
  <rect id="Rectangle_3" data-name="Rectangle 3" width="13.55" height="9.65" transform="translate(130.858 393.313)" fill="#f2f3f2"/>
  <path id="Path_39" data-name="Path 39" d="M1196.1,1036.3s-12.764-14.031-35.6-2.231l4.639,10.325,11.986,5.577,11.312-3.424Z" transform="translate(-1013.595 -627.983)" fill="#f4f4f4"/>
  <path id="Path_40" data-name="Path 40" d="M1102.793,976.562s-18.983,2.436-45.338-7.631l2.9,26.958,9.745,23.677,11.178,5.242,12.143-3.369,6.9-10.945,1.786-18.849Z" transform="translate(-971.935 -603.557)" fill="#d3a374"/>
  <path id="Path_41" data-name="Path 41" d="M1064.784,1012.659l8.279,20.117,11.178,5.242,12.143-3.369,6.9-10.945,1.34-14.145c-2.332-.044-8.979-7.952-8.979-7.952l-8.865,11.064-10.679-11.064S1067.368,1011.7,1064.784,1012.659Z" transform="translate(-974.898 -616.767)" fill="#a8774e"/>
  <path id="Path_42" data-name="Path 42" d="M1069.652,1035.061s12.765-14.031,35.6-2.231l-4.639,10.324-11.985,5.577-11.312-3.424Z" transform="translate(-976.866 -627.481)" fill="#f4f4f4"/>
  <path id="Path_43" data-name="Path 43" d="M1085.435,1053.308l-1.615-13.6-8.682,7.72Z" transform="translate(-979.084 -632.17)" fill="#cecece"/>
  <path id="Path_44" data-name="Path 44" d="M1103.483,1053.639l-1.615-13.6-9.446,13.4Z" transform="translate(-986.072 -632.304)" fill="#cecece"/>
  <path id="Path_45" data-name="Path 45" d="M1174.916,1053.308l-1.615-13.6-8.682,7.72Z" transform="translate(-1015.259 -632.17)" fill="#cecece"/>
  <path id="Path_46" data-name="Path 46" d="M1192.965,1053.639l-1.615-13.6-9.446,13.4Z" transform="translate(-1022.248 -632.304)" fill="#cecece"/>
  <path id="Path_47" data-name="Path 47" d="M1080.526,1014.267c-9.246,0-16.153-4.678-20.53-13.905-3.68-7.757-5.25-17.895-6.4-27.694-1.958-16.716-3.4-32.657-3.413-32.816a2.245,2.245,0,0,1,4.472-.4c.014.158,1.451,16.042,3.4,32.7,2.229,19.041,5.8,37.632,22.468,37.632,12.848,0,15.991-13.865,16.759-34.685.382-10.379.241-20.981.148-28-.037-2.843-.068-5.089-.059-6.73.013-2.585.018-3.655,1.074-4.444a2.245,2.245,0,0,1,3.466,2.533c-.093.994-.043,4.685.008,8.581.094,7.06.236,17.731-.151,28.223C1101.269,988.891,1100.334,1014.267,1080.526,1014.267Zm20.616-74.753h0Zm0,0h0Zm0,0Zm0,0h0Z" transform="translate(-968.993 -590.031)" fill="#040405"/>
  <path id="Path_48" data-name="Path 48" d="M1174.051,1014.267c-19.808,0-20.742-25.376-21.245-39.008-.386-10.491-.245-21.162-.151-28.223.052-3.9.1-7.588.008-8.581a2.245,2.245,0,0,1,3.466-2.533c1.056.789,1.061,1.859,1.075,4.444.008,1.641-.021,3.886-.06,6.73-.094,7.016-.235,17.619.148,28,.308,8.355.977,17.814,3.608,24.625,2.65,6.863,6.829,10.059,13.151,10.059,16.667,0,20.238-18.591,22.467-37.632,1.95-16.655,3.386-32.539,3.4-32.7a2.245,2.245,0,0,1,4.471.4c-.014.16-1.455,16.1-3.413,32.816-1.147,9.8-2.716,19.937-6.4,27.694C1190.2,1009.589,1183.3,1014.267,1174.051,1014.267Zm-20.615-74.753h0Zm0,0h0Zm0,0h0Zm0,0h0Z" transform="translate(-1010.376 -590.031)" fill="#040405"/>
  <path id="Path_49" data-name="Path 49" d="M1138.835,1031.1c-4.536,0-9.227-.473-10.007-.555a2.245,2.245,0,0,1,.47-4.465c3.093.325,11.857.971,15.216.065a2.245,2.245,0,1,1,1.169,4.335A28.994,28.994,0,0,1,1138.835,1031.1Z" transform="translate(-999.977 -626.654)" fill="#040405"/>
  <path id="Path_50" data-name="Path 50" d="M1175.455,1053.511c-.064,0-.129,0-.195-.008a2.245,2.245,0,0,1-2.044-2.43l1.106-12.845a2.245,2.245,0,0,1,4.473.385l-1.106,12.846A2.245,2.245,0,0,1,1175.455,1053.511Z" transform="translate(-1018.731 -630.743)" fill="#040405"/>
  <path id="Path_51" data-name="Path 51" d="M1197.017,1053.947a2.245,2.245,0,0,1-2.245-2.246v-12.2a2.245,2.245,0,0,1,4.49,0v12.2A2.246,2.246,0,0,1,1197.017,1053.947Z" transform="translate(-1027.45 -631.179)" fill="#040405"/>
  <path id="Path_52" data-name="Path 52" d="M1110.572,1053.51a2.244,2.244,0,0,1-2.235-2.066l-1.028-12.846a2.245,2.245,0,1,1,4.475-.358l1.029,12.845a2.245,2.245,0,0,1-2.059,2.417Q1110.662,1053.51,1110.572,1053.51Z" transform="translate(-992.087 -630.742)" fill="#040405"/>
  <path id="Path_53" data-name="Path 53" d="M1090.9,1054.379a2.245,2.245,0,0,1-2.245-2.245V1038.42a2.245,2.245,0,0,1,4.49,0v13.714A2.245,2.245,0,0,1,1090.9,1054.379Z" transform="translate(-984.548 -630.742)" fill="#040405"/>
  <path id="Path_54" data-name="Path 54" d="M1327.665,1013.281a37.127,37.127,0,0,1-20.734-6.567,2.245,2.245,0,0,1,2.692-3.593h0c.583.433,14.444,10.521,30.877,2.705,8.2-3.9,12.381-10.719,12.426-20.271a3.189,3.189,0,0,1,.569-2.3,2.245,2.245,0,0,1,3.923,1.9c0,.109,0,.251,0,.421-.066,14.23-8.187,21.072-14.987,24.306A34.071,34.071,0,0,1,1327.665,1013.281Zm29.283-27.153h0Z" transform="translate(-1072.431 -609.022)" fill="#040405"/>
  <path id="Path_55" data-name="Path 55" d="M1386.488,945.451a2.246,2.246,0,0,1-1.523-3.9c.136-.126,13.7-12.74,16.918-24.455,2.193-7.988-3.558-16.336-4.7-17.594a2.244,2.244,0,0,1-.844-1.746s-.024-6.108-.1-16.719a2.244,2.244,0,0,1,2.229-2.26h.016a2.244,2.244,0,0,1,2.244,2.229c.058,8.31.085,13.859.093,15.881a32.781,32.781,0,0,1,3.721,6.279c1.638,3.7,3.258,9.335,1.671,15.119-3.559,12.964-17.609,26.02-18.205,26.568A2.232,2.232,0,0,1,1386.488,945.451Zm11.384-45.57h0Z" transform="translate(-1104.049 -567.111)" fill="#040405"/>
  <path id="Path_56" data-name="Path 56" d="M1315.346,887.253c-.985-10.351-11.526-17.5-21.345-14.458a30.444,30.444,0,0,0-13.951,9.321l-1.427.954-27.85,38.878s-16.277,31.543-16.042,50.038,23.215,7.434,23.215,7.434l14.886-13.769,25.654-36.611,9.322-17.686,4.724-13.188,2.813-9.657-1.284-1.256Z" transform="translate(-1043.603 -564.405)" fill="#d3a374"/>
  <path id="Path_57" data-name="Path 57" d="M1240.65,976.358a41.3,41.3,0,0,0-1.054,11.762c.68,8.264,6.683,17.232,16.027,16.249,8.428-.886,14.213-9.373,18.519-15.809,4.346-6.494,7.562-13.155,12.856-18.007A134.741,134.741,0,0,0,1298.31,959.4c1.043-1.212,2.1-2.488,3.074-3.827l-4.195,7.959-25.654,36.611L1255,1015.965s-21.336,9.006-21.571-9.489C1233.323,997.776,1236.866,986.19,1240.65,976.358Z" transform="translate(-1043.079 -598.155)" fill="#a8774e"/>
  <ellipse id="Ellipse_30" data-name="Ellipse 30" cx="5.228" cy="3.061" rx="5.228" ry="3.061" transform="matrix(0.296, -0.955, 0.955, 0.296, 237.546, 328.321)" fill="#442c1a"/>
  <ellipse id="Ellipse_31" data-name="Ellipse 31" cx="5.228" cy="3.061" rx="5.228" ry="3.061" transform="matrix(0.296, -0.955, 0.955, 0.296, 247.159, 325.847)" fill="#442c1a"/>
  <ellipse id="Ellipse_32" data-name="Ellipse 32" cx="5.228" cy="3.061" rx="5.228" ry="3.061" transform="translate(253.347 327.393) rotate(-60)" fill="#442c1a"/>
  <ellipse id="Ellipse_33" data-name="Ellipse 33" cx="5.228" cy="3.061" rx="5.228" ry="3.061" transform="translate(257.07 335.917) rotate(-60)" fill="#442c1a"/>
  <g id="Group_61" data-name="Group 61" transform="translate(237.213 328.751)">
    <path id="Path_58" data-name="Path 58" d="M1323.414,924.652c.487.287,1.017.649,1.589.924a3.476,3.476,0,0,0,3.905-.276c1.295-1.026,2.252-2.268,2-4.071-.088-.63-.309-1.249-.345-1.879-.069-1.222-.079-2.449-.053-3.672a8.762,8.762,0,0,1,.27-1.565,5.713,5.713,0,0,0-7.869-6.2,17.039,17.039,0,0,1-6.746,1.541c-1.954-.014-3.045,1.338-3.761,2.972a3.52,3.52,0,0,0,.931,4.089,10.265,10.265,0,0,0,2.7,2.028,16.94,16.94,0,0,1,6.036,4.777A15.712,15.712,0,0,0,1323.414,924.652Z" transform="translate(-1312.094 -907.454)" fill="#442c1a"/>
  </g>
  <circle id="Ellipse_34" data-name="Ellipse 34" cx="17.254" cy="17.254" r="17.254" transform="translate(41.133 183.355)" fill="#f09489"/>
  <path id="Path_59" data-name="Path 59" d="M988.113,683.909c6.737-9.1,17.662-9.1,24.4,0,1.73,2.335,3.011-.568,3.853,2.322a28.057,28.057,0,0,0-5.043-17.045c-6.738-9.1-17.662-9.1-24.4,0-5.009,6.765-6.291,16.653-3.852,25.022C983.173,688.434,984.851,688.314,988.113,683.909Z" transform="translate(-941.378 -479.615)" fill="#d86f6a"/>
  <g id="Group_62" data-name="Group 62" transform="translate(158.76 117.298)">
    <circle id="Ellipse_35" data-name="Ellipse 35" cx="10.728" cy="10.728" r="10.728" transform="translate(0 0)" fill="#eda76a"/>
    <path id="Path_60" data-name="Path 60" d="M1184.413,564.4a10.717,10.717,0,0,1,16.319,3.589,10.723,10.723,0,1,0-19.2.013A10.673,10.673,0,0,1,1184.413,564.4Z" transform="translate(-1180.402 -552.498)" fill="#db8f58"/>
  </g>
  <g id="Group_63" data-name="Group 63" transform="translate(93.813 117.298)">
    <circle id="Ellipse_36" data-name="Ellipse 36" cx="10.728" cy="10.728" r="10.728" transform="translate(0 0)" fill="#eda76a"/>
    <path id="Path_61" data-name="Path 61" d="M1075.389,564.4a10.714,10.714,0,0,1,16.319,3.589,10.723,10.723,0,1,0-19.2.013A10.672,10.672,0,0,1,1075.389,564.4Z" transform="translate(-1071.378 -552.498)" fill="#db8f58"/>
  </g>
  <circle id="Ellipse_37" data-name="Ellipse 37" cx="17.254" cy="17.254" r="17.254" transform="translate(199.332 183.355)" fill="#f09489"/>
  <path id="Path_62" data-name="Path 62" d="M1256.724,681.423c7.38-8.141,18.25-6.66,24.277,3.309,1.547,2.559,2.621-.185,3.244,2.8a29.275,29.275,0,0,0-3.751-17.644c-6.027-9.968-16.9-11.45-24.277-3.309-5.487,6.052-7.5,15.716-5.693,24.373C1251.055,685.227,1253.151,685.364,1256.724,681.423Z" transform="translate(-1049.729 -479.199)" fill="#d86f6a"/>
  <g id="Group_64" data-name="Group 64" transform="translate(70.978 137.398)">
    <ellipse id="Ellipse_38" data-name="Ellipse 38" cx="13.816" cy="16.448" rx="13.816" ry="16.448" fill="#040405"/>
    <circle id="Ellipse_39" data-name="Ellipse 39" cx="4.908" cy="4.908" r="4.908" transform="translate(1.586 6.536)" fill="#f2f3f2"/>
  </g>
  <g id="Group_65" data-name="Group 65" transform="translate(174.525 137.398)">
    <ellipse id="Ellipse_40" data-name="Ellipse 40" cx="13.816" cy="16.448" rx="13.816" ry="16.448" fill="#040405"/>
    <circle id="Ellipse_41" data-name="Ellipse 41" cx="4.908" cy="4.908" r="4.908" transform="translate(1.586 6.536)" fill="#f2f3f2"/>
  </g>
  <path id="Path_63" data-name="Path 63" d="M1297.517,404.308c.156.1.308.212.456.329.349-.948.684-1.9.994-2.864Q1298.218,403.026,1297.517,404.308Z" transform="translate(-1068.988 -374.265)" fill="#0f0e0e"/>
  <path id="Path_64" data-name="Path 64" d="M1030.625,774.347c6.968-2.4,13.406-6.2,20.552-8.036,4.96-1.278,9.2,1.414,13.266,3.7a96.033,96.033,0,0,1,13.648,9.847c.907.745,2.195,1.434,1.946,2.8-.267,1.468-1.769,1.823-2.976,2.179-5.855,1.724-11.771,3.161-18.4,3.112-8.983.138-17.021-3.863-24.811-8.606-1.02-.622-2.125-1.112-3.111-1.78C1029.275,776.569,1028.861,774.956,1030.625,774.347Z" transform="translate(-960.618 -521.508)" fill="#0f0e0e"/>
  <path id="Path_65" data-name="Path 65" d="M1294.059,690.069c2.533-2.437,5.145-4.791,7.665-7.241.777-.757,1.6-1.543,2.441-2.361q.1-3.251.048-6.512c-.149.06-.3.123-.438.193-.418.207-.917.683-.9.5-.349.9-.105,2.326-.363,3.273a11.648,11.648,0,0,1-1.592,3.211c-5.936,9.175-14.339,16.311-23.264,22.457-2.3,1.587-4.634,3.146-7,4.645a47.05,47.05,0,0,0,15.58-10.068C1288.96,695.577,1291.353,692.671,1294.059,690.069Z" transform="translate(-1058.129 -484.303)" fill="#f2f3f2"/>
  <path id="Path_66" data-name="Path 66" d="M1297.676,380.011c1.844-4.215,7.327-7.427,11.28-8.719,2.767,1.868,2.7,5.941,2.918,9.283.243,3.768.845,7.52,1.378,11.238,1.47,10.223.984,20.486,1.2,30.724.208,10.074.146,20.187-.507,30.236-.5,7.663-2.125,15.23-8.368,20.777-2.107,1.872-2.448,1.791-3.6-.838-1.513-3.452-3.08-6.89-4.826-10.228-1.022-1.954-.893-3.451.714-4.94a8.019,8.019,0,0,0,2.628-3.509c1.058-3.687-1-6.49-5-6.942-.864-.1-2.071.329-2.5-.677-.442-1.036.476-1.885,1.04-2.707a21.183,21.183,0,0,0,1.634-2.226c2.229-4.41.189-7.859-4.621-7.983-3.178-.082-6.255.129-9.146,1.7-1.016.552-2.409,1.115-3.422.313-1.033-.818-.172-2.1.072-3.105a199.376,199.376,0,0,1,6.609-21.1c3.3-9.084,7.942-17.421,12.987-25.589.951-1.54,1.4-3.228.268-4.94.1-.356-.051-.43-.406-.54C1297.97,380.106,1297.768,380.11,1297.676,380.011Z" transform="translate(-1061.088 -361.942)" fill="#eda76a"/>
  <path id="Path_67" data-name="Path 67" d="M964.753,458.066c2.528,2.308,2.812,4.2,1.064,7.1a74.533,74.533,0,0,0-4.108,9.053c-1.053,2.44-1.663,2.554-3.723.759-4.362-3.8-6.109-8.824-7.036-14.334-1.775-10.543-1.334-21.184-1.517-31.792a266.643,266.643,0,0,1,.656-29.364c.706-7.555.456-15.353,3.732-22.536a4.777,4.777,0,0,1,1.385-1.915c4.487.519,7.946,2.575,10.015,6.706a1.21,1.21,0,0,0-.177.46c.3,1.958-.82,2.621.051,3.915,6.764,11.228,12.716,22.855,16.835,35.33,1.44,4.363,2.48,8.863,3.582,13.33.629,2.545-.018,3.11-2.5,2.233a27.4,27.4,0,0,0-10.52-2c-4.382.209-6.455,3.369-4.734,7.372a19.841,19.841,0,0,0,2.581,3.916c1.049,1.411.664,2.178-1.1,2.29" transform="translate(-928.22 -363.457)" fill="#eda76c"/>
  <path id="Path_68" data-name="Path 68" d="M964.606,462.087c-11.107-12.221-12.708-50.781-12.4-77.1-4.339,26.2-3.806,56.074-1.4,82.489C957.556,499.648,974.586,465.468,964.606,462.087Z" transform="translate(-928.073 -367.478)" fill="#b77141"/>
  <path id="Path_69" data-name="Path 69" d="M1311.3,462.087c11.106-12.221,12.708-50.781,12.4-77.1,4.339,26.2,3.807,56.074,1.4,82.489C1318.349,499.648,1301.319,465.468,1311.3,462.087Z" transform="translate(-1073.321 -367.478)" fill="#b77141"/>
  <path id="Path_70" data-name="Path 70" d="M1100.281,810.784c-5.538-1.149-11.64-2.2-17.622-3.714a164.869,164.869,0,0,1-20.133-6.107,149.175,149.175,0,0,1-25.2-13.148c-.752-.478-1.744-1.115-1.148-2.2.553-1.007,1.748-.678,2.52-.4,5.52,1.95,11.257,2.89,17,3.842,9.923,1.645,19.85,3.269,29.768,4.94a107.132,107.132,0,0,0,15.977,1.567c10.038.173,19.848-1.763,29.672-3.431,7.095-1.2,14.134-2.734,21.2-4.091.959-.185,2.187-.657,2.744.493.622,1.284-.517,1.994-1.407,2.652a90.647,90.647,0,0,1-30.606,15.041c-6.422,1.719-12.949,2.919-19.451,4.252C1102.694,810.659,1101.756,810.653,1100.281,810.784Z" transform="translate(-963.258 -529.169)" fill="#19b5b8"/>
  <path id="Path_71" data-name="Path 71" d="M1047.39,790.357c44.923,20.007,78.624,11.692,113.72-5.389-25.674,3.434-51.755,10.861-77.957,6.122C1065.806,789.878,1005.168,771.553,1047.39,790.357Z" transform="translate(-961.937 -527.952)" fill="#138481"/>
  <path id="Path_72" data-name="Path 72" d="M1295.3,787.944c-8.983.138-17.021-3.863-24.81-8.606-1.02-.622-2.126-1.112-3.112-1.78-1.46-.989-1.875-2.6-.111-3.211,6.968-2.4,13.406-6.2,20.552-8.036,4.96-1.278,9.2,1.414,13.266,3.7a96.069,96.069,0,0,1,13.648,9.847c.906.745,2.194,1.434,1.945,2.8-.268,1.468-1.769,1.823-2.976,2.179C1307.846,786.556,1301.93,787.992,1295.3,787.944Z" transform="translate(-1056.288 -521.508)" fill="#18b6b9"/>
  <path id="Path_73" data-name="Path 73" d="M1315.593,778.274a85.176,85.176,0,0,0-11.709-8.266c-4.062-2.284-8.306-4.975-13.266-3.7-6.122,1.577-11.725,4.583-17.586,6.925C1286.882,777.188,1301.229,778.413,1315.593,778.274Z" transform="translate(-1059.089 -521.508)" fill="#138481"/>
  <path id="Path_74" data-name="Path 74" d="M957.548,787.227c-5.727.241-11.486-1.568-17.272-3.072-2.98-.775-3.267-2.491-.769-4.382,6.292-4.763,12.385-9.816,19.852-12.826,3.631-1.463,6.982-1.935,10.6-.052a131.647,131.647,0,0,0,15.686,6.811c3.158,1.154,3.175,2.227.463,4.232A48.48,48.48,0,0,1,957.548,787.227Z" transform="translate(-923.568 -521.377)" fill="#18b6b9"/>
  <path id="Path_75" data-name="Path 75" d="M983.269,772.817a126.732,126.732,0,0,1-13.313-5.922c-3.614-1.883-6.965-1.411-10.6.052-7.467,3.01-13.56,8.062-19.852,12.826-1.255.949-1.806,1.855-1.667,2.619C953.316,782.352,968.61,777.435,983.269,772.817Z" transform="translate(-923.568 -521.377)" fill="#138481"/>
  <path id="Path_76" data-name="Path 76" d="M975.389,390.984a3.613,3.613,0,0,1-.051-3.915Q975.363,389.027,975.389,390.984Z" transform="translate(-938.514 -368.32)" fill="#555658"/>
  <path id="Path_77" data-name="Path 77" d="M1063.905,832.034c.078,2.484-.774,4.423-3.19,5.448a60.107,60.107,0,0,1-20.938-4.445,10.178,10.178,0,0,1-6.615-9.762c.12-2.508.851-4.914,3.281-5.979,2.209-.969,3.909.854,5.786,1.783C1049.8,822.826,1055.968,828.914,1063.905,832.034Z" transform="translate(-962.11 -542.142)" fill="#f1f2f2"/>
  <path id="Path_78" data-name="Path 78" d="M1207.015,839.608c-2.538-1.128-2.92-3.252-2.63-5.687a79.041,79.041,0,0,0,12.459-8.936,76.318,76.318,0,0,1,6.6-5c2.005-1.333,3.4-.738,4.25,1.486,2.407,6.287-.088,12.1-6.306,14.7A40.5,40.5,0,0,1,1207.015,839.608Z" transform="translate(-1031.303 -543.055)" fill="#f1f2f2"/>
  <path id="Path_79" data-name="Path 79" d="M1115.445,739.879c-7.952-.265-14.19-5.325-16.6-13.908a55.677,55.677,0,0,0-5.558-13.531,4.708,4.708,0,0,0-3.055-2.419c-6.927-2.005-12.726-5.425-15.189-12.8-.862-2.581-.454-4.389,1.545-5.123,2.4-.881,4.092.195,4.745,2.448,2.812,9.7,20.016,12.488,27.587,6.25a9.98,9.98,0,0,0,3.424-4.908,3.645,3.645,0,0,1,3.565-2.93c2.055-.113,3.051,1.1,3.649,2.779,1.587,4.449,4.99,6.8,9.333,7.846a21.518,21.518,0,0,0,17.044-2.747,9.5,9.5,0,0,0,4.039-4.78,10.2,10.2,0,0,1,1.172-2.494c1.077-1.486,2.559-2.221,4.343-1.342,1.848.911,2.322,2.439,1.686,4.418-2.35,7.309-7.742,11.3-14.794,13.213-2.264.614-3.279,1.938-4.325,3.743-2.768,4.775-3.932,10.14-5.856,15.223C1129.126,736.949,1121.505,739.624,1115.445,739.879Zm-4.543-30.647c-2.21-.016-.961,1.124-3.138,1.432-1.172.166-3.467,1.171-2.432,3.228,1.887,3.752.385,5.11,1.5,9.051,1.335,4.733,2.91,9.148,7.873,8.754.774-.061,2.578,2.274,2.737,1.3,6.1-1.342,9.148-5.409,10.116-11.336.283-1.729.637-3.447.87-5.182.693-5.158.426-5.6-4.378-7.607-.511-.214-1.048-.368-1.554-.591-3.461-1.523-3.906-1.285-4.071,2.538-.142,3.32.276,6.653-.264,9.972-.232,1.431-.679,2.595-2.363,2.438-1.548-.145-1.765-1.314-1.752-2.639.036-3.419-.02-6.841.018-10.26C1114.086,708.07,1113.547,708.427,1110.9,709.233Z" transform="translate(-978.874 -491.513)" fill="#040405"/>
  <path id="Path_80" data-name="Path 80" d="M1133.14,649.654c5.136.1,8.566.924,11.54,3.244,5.718,4.458,5.521,10.711-.49,14.861-6.3,4.348-16.809,3.452-22.065-1.881a8,8,0,0,1,.413-12.191A16.33,16.33,0,0,1,1133.14,649.654Z" transform="translate(-997.022 -474.479)" fill="#040405"/>
  <path id="Path_81" data-name="Path 81" d="M1130.373,717.932c2.644-.805,3.259.615,3.234,2.871-.039,3.419.018,6.841-.018,10.26-.013,1.325.2,2.494,1.751,2.639,1.684.157,2.131-1.007,2.363-2.438.54-3.319.121-6.651.264-9.972.164-3.823.609-4.061,4.07-2.538.506.223,1.043.377,1.554.591,4.8,2.011,5.071,2.449,4.378,7.607-.233,1.735-.587,3.453-.87,5.182-.968,5.927-4.014,9.994-10.116,11.336-6,.5-10.351-2.994-12-8.192a40.613,40.613,0,0,1-2.018-11.683c-.026-1.732.375-2.7,2.226-3.174A10.58,10.58,0,0,0,1130.373,717.932Z" transform="translate(-998.42 -501.99)" fill="#e4333a"/>
  <path id="Path_82" data-name="Path 82" d="M1125.127,735.676a19.4,19.4,0,0,1,8.462-4.632c.035-3.413-.021-6.828.018-10.241.026-2.256-.589-3.677-3.234-2.871a10.58,10.58,0,0,1-5.18,2.491c-1.851.471-2.252,1.443-2.226,3.174a40.613,40.613,0,0,0,2.018,11.683C1125.028,735.414,1125.08,735.543,1125.127,735.676Z" transform="translate(-998.42 -501.99)" fill="#ba2530"/>
  <path id="Path_83" data-name="Path 83" d="M1147.821,730.846a22.651,22.651,0,0,1,8.979,3.076c.134-.54.254-1.092.348-1.667.282-1.729.637-3.447.87-5.182.692-5.158.426-5.6-4.378-7.607-.511-.214-1.048-.368-1.554-.592-3.461-1.523-3.906-1.285-4.071,2.538C1147.881,724.552,1148.237,727.7,1147.821,730.846Z" transform="translate(-1008.468 -502.109)" fill="#a81e2f"/>
  <path id="Path_84" data-name="Path 84" d="M1293.781,395.971a122.452,122.452,0,0,0-3.986-27.065c-2.69-9.654-14.847-14.959-22.051-12.85-3.885,1.137-7.052,3.554-10.108,6.053A175.318,175.318,0,0,0,1229,392.048c-4.8,6.325-9.308,12.882-13.76,19.46a3.974,3.974,0,0,1-.622.688c1.442.836,2.841,1.75,4.235,2.718.363-.584.911-1.309,1.649-2.281,5.45-7.183,10.292-14.789,15.922-21.853a151.685,151.685,0,0,1,29.033-28.134c4.741-3.475,14.183-1.749,16.515,3.055a13.725,13.725,0,0,1,2.125,3.4c3.278,7.185,3.028,14.986,3.734,22.544a266.7,266.7,0,0,1,.656,29.376c-.183,10.613.258,21.257-1.518,31.8-.927,5.512-2.675,10.537-7.038,14.338-2.062,1.8-2.409,1.9-3.462-.544a83.409,83.409,0,0,0-4.392-9.561c-1.749-2.905-1.343-4.326,1.186-6.635,3.477-3.174,2.654-7.981-1.834-9.353a11.662,11.662,0,0,0-2.528-.437c-1.767-.112-2.034-.82-.985-2.231a18.842,18.842,0,0,0,2.416-3.879c1.722-4-.285-7.311-4.668-7.52a28.221,28.221,0,0,0-10.7,1.95c-2.487.877-2.83.176-2.2-2.37,1.1-4.469,2.278-8.487,3.719-12.851a176.906,176.906,0,0,1,16.776-35.581c.965-1.85.862-3.166-.571-4.259-2.043-1.209-4.41.3-5.591,2.768-.908,1.894-2.1,3.653-3.164,5.473a154.533,154.533,0,0,0-14.144,32.66,108.693,108.693,0,0,0-4.255,17.713c-.643,4.858,2.053,6.216,5.818,4.311,2.944-1.49,6.226-2.315,9.368-3.409.789-.275,1.769-.586,2.313.207.71,1.034-.323,1.67-.937,2.3-1.736,1.791-3.466,3.592-5.281,5.3a2.709,2.709,0,0,0-.73,3.457,2.961,2.961,0,0,0,3.014,1.975q3.05-.052,6.1-.033c.65,0,1.384.048,1.687.727.32.718-.246,1.126-.725,1.6-2.608,2.605-2.942,4.159-1.2,7.35a140.135,140.135,0,0,1,6.9,14.351l10.638-.5a6.308,6.308,0,0,1,1.754.243,29.375,29.375,0,0,0,7.29-12.758,85.321,85.321,0,0,0,2.27-17.553C1294.416,425.384,1294.5,410.666,1293.781,395.971Z" transform="translate(-1035.473 -355.597)" fill="#040405"/>
  <g id="Group_66" data-name="Group 66" transform="translate(27.589 165.361)">
    <path id="Path_85" data-name="Path 85" d="M1179.115,644.525a143.168,143.168,0,0,1-1.352,38.52c-2.327,12.889-11.19,21.11-22.413,26.882-8.767,4.509-18.318,6.9-27.789,9.365a324.245,324.245,0,0,1-51.77,9.14c-6.02.555-12.01-.444-17.928-1.349-12.861-1.968-25.783-3.758-38.474-6.553-13.04-2.871-26.231-5.771-37.646-13.382-8.923-5.948-15.77-13.624-17.717-24.439-1.558-8.653-1.291-17.5-.593-26.269.257-3.235.249-6.463.363-9.694a7.532,7.532,0,0,1,.558-3.52c4.507-2.51,9.468-3.328,14.494-3.97,7.829-1,15.639-.036,23.456.132a14.789,14.789,0,0,0,5,.44,2.171,2.171,0,0,0,1.65.248,5.441,5.441,0,0,0,2.793.426l1.018.214,1.775.177a3.127,3.127,0,0,0,2.181.7c.269.475.687.451,1.133.338l3.886,1.821a40.989,40.989,0,0,0,7.044,3.176,1.283,1.283,0,0,0,1.291.491,1.477,1.477,0,0,0,1.57.309c1.132.745-.692,2.621,1.188,2.214,1.082.223,3.345-.794,3.567-2a29.278,29.278,0,0,1,18.591-13.171,75.271,75.271,0,0,1,25.828-.857c9.323,1.339,19.539,5.544,24.658,14.056,1.339,2.226.66,2.721,2.575.475,4.972-1.7,9.461-4.516,14.367-6.313,5.93-2.171,12.247-2.476,18.485-2.93C1153.44,638.29,1167.417,638.636,1179.115,644.525ZM1070.27,716.185c6.061-.255,13.682-2.93,16.76-11.064,1.924-5.083,3.088-10.448,5.856-15.223,1.046-1.805,2.061-3.129,4.325-3.743,7.051-1.911,12.444-5.9,14.793-13.213.636-1.98.163-3.508-1.686-4.418-1.784-.879-3.267-.144-4.343,1.341a10.192,10.192,0,0,0-1.172,2.494,9.5,9.5,0,0,1-4.039,4.78,21.518,21.518,0,0,1-17.044,2.747c-4.343-1.042-7.746-3.4-9.333-7.846-.6-1.676-1.594-2.892-3.649-2.779a3.645,3.645,0,0,0-3.565,2.93,9.976,9.976,0,0,1-3.424,4.908c-7.571,6.238-24.775,3.454-27.586-6.25-.653-2.253-2.346-3.329-4.745-2.448-2,.734-2.407,2.542-1.545,5.123,2.464,7.378,8.263,10.8,15.19,12.8a4.71,4.71,0,0,1,3.055,2.419,55.668,55.668,0,0,1,5.558,13.531C1056.081,710.86,1062.319,715.92,1070.27,716.185ZM1007.887,666.9c.517-8.331-7.485-15.45-15.832-15.364-9.236.095-15.666,6.993-15.74,14.784-.1,10.93,6.3,16.324,15.393,16.873A15.432,15.432,0,0,0,1007.887,666.9Zm126.533.537c-.48,9.1,7.235,15.48,15.718,15.723,8.009.23,16.317-7.453,16.053-15.618-.279-8.619-7.159-15.779-15.371-16.132C1141.69,651.021,1133.7,659.248,1134.42,667.439Zm-64.6-24.446a16.329,16.329,0,0,0-10.6,4.032,8,8,0,0,0-.413,12.191c5.256,5.332,15.768,6.228,22.065,1.881,6.01-4.15,6.207-10.4.49-14.861C1078.384,643.918,1074.953,643.09,1069.818,642.994Z" transform="translate(-961.288 -633.179)" fill="#f2f3f2"/>
    <path id="Path_86" data-name="Path 86" d="M1031.752,652.786c-2.758-2.522-9.061-12.568-38.734-12.568-28.1,0-32.809,8.662-32.809,8.662" transform="translate(-960.209 -636.025)" fill="#f2f3f2"/>
    <path id="Path_87" data-name="Path 87" d="M1279.223,648.139s-4.7-7.921-32.81-7.921c-29.673,0-37.457,10.046-40.215,12.568" transform="translate(-1059.658 -636.025)" fill="#f2f3f2"/>
  </g>
  <path id="Path_88" data-name="Path 88" d="M1155.352,649.394a2.237,2.237,0,0,1-1.655-.729,73.069,73.069,0,0,0-13.034-11.413c-15.814-10.4-36.592-6.668-45.974-1.873a34.655,34.655,0,0,0-13.42,12.207,2.245,2.245,0,1,1-3.911-2.2,38.9,38.9,0,0,1,15.288-14c6.4-3.272,14.925-5.2,23.381-5.279,7.12-.071,17.611,1.157,27.1,7.4a77.664,77.664,0,0,1,13.877,12.131,2.245,2.245,0,0,1-1.655,3.762Z" transform="translate(-979.864 -464.956)" fill="#040405"/>
  <path id="Path_89" data-name="Path 89" d="M1095.508,1091.574" transform="translate(-987.319 -653.139)" fill="none" stroke="#000" stroke-linecap="round" stroke-linejoin="round" stroke-width="8"/>
  <path id="Path_90" data-name="Path 90" d="M1059.017,473.478" transform="translate(-972.566 -403.254)" fill="#666768"/>
  <path id="Path_91" data-name="Path 91" d="M1157.837,463.774a2.513,2.513,0,0,1-1.315-.371c-21.3-13.019-45.066-17-70.647-11.828a110.856,110.856,0,0,0-32.386,11.829,2.526,2.526,0,0,1-2.633-4.311c.554-.339,13.816-8.353,33.834-12.431,18.521-3.775,46.474-4.681,74.467,12.431a2.526,2.526,0,0,1-1.319,4.681Z" transform="translate(-968.778 -391.499)" fill="#040405"/>
  <path id="Path_92" data-name="Path 92" d="M1157.248,476.632c-18.2-11.133-62.081-18.414-95.555,0S1182.118,491.847,1157.248,476.632Z" transform="translate(-971.713 -399.983)" fill="#666"/>
  <path id="Path_93" data-name="Path 93" d="M1243.319,982.51a13.492,13.492,0,0,1-7.334-2.14c-6.673-4.211-8.112-13.2-4.28-26.716,3.232-11.4,10.182-25.729,20.1-41.444,1.9-3.011,3.749-5.994,5.537-8.879,12.2-19.694,21.84-35.249,33.95-37.967,4.8-1.077,9.74,0,14.7,3.214,6.044,3.912,9.527,8.443,10.649,13.85,2.392,11.528-6.4,24.739-17.524,41.466-2.742,4.121-5.577,8.383-8.408,12.868h0c-10.325,16.359-19.875,28.534-28.386,36.186C1255.239,979.315,1248.879,982.51,1243.319,982.51Zm51.619-113.064a12.088,12.088,0,0,0-2.662.3c-10.271,2.305-19.932,17.9-31.118,35.951-1.792,2.893-3.645,5.884-5.556,8.911-9.693,15.356-16.462,29.281-19.579,40.272-2.217,7.819-3.607,17.93,2.357,21.694,5.143,3.245,12.187.9,20.938-6.963,8.2-7.377,17.487-19.234,27.59-35.244h0c2.86-4.53,5.711-8.815,8.466-12.959,10.547-15.854,18.878-28.376,16.867-38.067-.866-4.171-3.709-7.768-8.694-10.994A15.832,15.832,0,0,0,1294.938,869.446Z" transform="translate(-1041.536 -561.523)" fill="#040405"/>
  <path id="Path_94" data-name="Path 94" d="M920.2,887.253c.985-10.351,11.525-17.5,21.345-14.458a30.441,30.441,0,0,1,13.95,9.321l1.428.954,27.849,38.878s16.277,31.543,16.042,50.038-22.188,8.873-22.188,8.873L962.715,965.65l-25.654-36.611-9.322-17.686-4.724-13.188-2.814-9.657,1.284-1.256Z" transform="translate(-916.446 -564.405)" fill="#d3a374"/>
  <path id="Path_95" data-name="Path 95" d="M1004.528,975.668a41.312,41.312,0,0,1,1.055,11.762c-.68,8.264-6.684,17.232-16.027,16.25-8.428-.887-14.212-9.373-18.519-15.809-4.345-6.494-7.562-13.155-12.856-18.007a134.67,134.67,0,0,1-11.312-11.155c-1.043-1.212-2.1-2.488-3.075-3.828l4.2,7.959,23.6,36.611,18.174,15.825s21.747,9.006,21.982-9.489C1011.854,997.086,1008.311,985.5,1004.528,975.668Z" transform="translate(-925.984 -597.877)" fill="#a8774e"/>
  <ellipse id="Ellipse_42" data-name="Ellipse 42" cx="3.061" cy="5.228" rx="3.061" ry="5.228" transform="matrix(0.955, -0.296, 0.296, 0.955, 29.007, 320.148)" fill="#442c1a"/>
  <ellipse id="Ellipse_43" data-name="Ellipse 43" cx="3.061" cy="5.228" rx="3.061" ry="5.228" transform="matrix(0.955, -0.296, 0.296, 0.955, 19.394, 317.674)" fill="#442c1a"/>
  <ellipse id="Ellipse_44" data-name="Ellipse 44" cx="3.061" cy="5.228" rx="3.061" ry="5.228" transform="translate(11.621 321.399) rotate(-30)" fill="#442c1a"/>
  <ellipse id="Ellipse_45" data-name="Ellipse 45" cx="3.061" cy="5.228" rx="3.061" ry="5.228" transform="translate(7.897 329.923) rotate(-30)" fill="#442c1a"/>
  <g id="Group_67" data-name="Group 67" transform="translate(19.431 328.751)">
    <path id="Path_96" data-name="Path 96" d="M954.049,924.652c-.487.287-1.017.649-1.589.924a3.475,3.475,0,0,1-3.9-.276c-1.3-1.026-2.252-2.268-2-4.071.088-.63.309-1.249.345-1.879.068-1.222.079-2.449.052-3.672a8.741,8.741,0,0,0-.27-1.565,5.713,5.713,0,0,1,7.869-6.2,17.043,17.043,0,0,0,6.747,1.541c1.954-.014,3.044,1.338,3.761,2.972a3.522,3.522,0,0,1-.931,4.089,10.284,10.284,0,0,1-2.7,2.028,16.936,16.936,0,0,0-6.036,4.777A15.7,15.7,0,0,1,954.049,924.652Z" transform="translate(-946.515 -907.454)" fill="#442c1a"/>
  </g>
  <path id="Path_97" data-name="Path 97" d="M968.611,972.948c-8.511-7.653-18.062-19.827-28.387-36.186h0c-2.83-4.485-5.666-8.747-8.407-12.868-11.127-16.727-19.917-29.939-17.524-41.466,1.122-5.407,4.605-9.938,10.649-13.85,4.957-3.209,9.9-4.291,14.7-3.214,12.111,2.718,21.748,18.273,33.951,37.967,1.788,2.885,3.636,5.868,5.537,8.879,9.918,15.715,16.87,30.046,20.1,41.444,3.832,13.516,2.392,22.505-4.28,26.716a13.491,13.491,0,0,1-7.334,2.14C982.051,982.51,975.691,979.315,968.611,972.948Zm-41.229-100.6c-4.984,3.226-7.827,6.823-8.694,10.994-2.011,9.691,6.32,22.213,16.867,38.067,2.756,4.144,5.607,8.429,8.466,12.959h0c10.1,16.01,19.387,27.867,27.591,35.244,8.75,7.867,15.794,10.209,20.937,6.963,5.965-3.764,4.574-13.875,2.357-21.694-3.116-10.991-9.886-24.917-19.579-40.272-1.911-3.028-3.763-6.019-5.556-8.911-11.186-18.053-20.847-33.646-31.118-35.951a12.082,12.082,0,0,0-2.662-.3A15.833,15.833,0,0,0,927.382,872.346Z" transform="translate(-913.897 -561.523)" fill="#040405"/>
  <path id="Path_98" data-name="Path 98" d="M1081.6,853.113l7.458-14.284,2.506,6.222,10.054-6.656.551,13.3,7.588-7.014,9.5,9.142,10.891-9.873,5.668,8.228,4.3-10.239,7.436,5.394,3.509-5.965,3.644,12.961-11.054-4.7-1.707,2.625-1.95,9.386-9.508-7.192-11.226,7.192-10.025-8.9-10.684,10.245-1.7-14.81Z" transform="translate(-981.695 -550.783)" fill="#555658"/>
  <path id="Path_99" data-name="Path 99" d="M1096.175,864.96a1.4,1.4,0,0,1-1.388-1.2l-1.837-12.764-12.819,5.127a1.4,1.4,0,0,1-1.761-1.959l7.83-14.8a1.4,1.4,0,1,1,2.48,1.312l-6.042,11.418,10.926-4.37a1.4,1.4,0,0,1,1.91,1.1l1.725,11.99,9.8-8.477a1.4,1.4,0,0,1,1.9.055l8.813,8.575,10.271-7.756a1.4,1.4,0,0,1,1.771.066l7.84,6.891,2.244-10.787a1.4,1.4,0,0,1,1.965-.987l9.565,4.444-2.2-10.275a1.4,1.4,0,0,1,2.744-.588l2.789,13.027a1.4,1.4,0,0,1-1.964,1.566l-10.513-4.883-2.374,11.413a1.4,1.4,0,0,1-2.3.769l-8.79-7.726-10.318,7.791a1.4,1.4,0,0,1-1.824-.114l-8.754-8.517-10.767,9.313A1.4,1.4,0,0,1,1096.175,864.96Z" transform="translate(-980.324 -550.873)" fill="#040405"/>
  <path id="Path_100" data-name="Path 100" d="M1175.129,724.44c-43.893,43.555-151.957,38.921-201.14,4.423-27.254-19.116,8.6,30.452,61.478,34.392,35.9,9.216,59.885,6.515,95.492-4.571,9.471-2.457,16.327-2.987,25.094-7.5C1168.025,750.476,1188.265,714.308,1175.129,724.44Z" transform="translate(-934.408 -503.99)" fill="#cecece"/>
  <path id="Path_101" data-name="Path 101" d="M1210.835,658.21c-1.821-3.574-3.621-7.033-6.724-9.656-5.071-4.289-11.05-5.3-17.417-4.753-1.988.169-3.515-.09-4.783-1.9-6.453-9.239-15.548-10.681-25.768-8.393a33.8,33.8,0,0,0-14.123,7.3c-2.669,2.2-3.695,1.979-5.128-1.187-1.709-3.778-3.285-7.617-4.888-11.443-1-2.383-1.954-4.785-2.9-7.19a1.511,1.511,0,0,1,.424-1.984c.661-.481,1.209-.14,1.785.18.888.494,1.806.936,2.682,1.451a45.256,45.256,0,0,0,18.26,5.851c11.317,1.246,21.864-2.392,32.523-5.216,2.794-.74,3.182-3.39.99-5.247-1.481-1.254-2.969-2.507-4.529-3.66-7.7-5.687-14.785-12.307-24.059-15.577-3.985-1.4-4.01-2.031-1.065-5.127,4.779-5.023,8.441-10.783,9.966-17.6,2.8-12.528,1.2-25.2.833-37.821-.087-2.952-.167-5.908-.421-8.848-.832-9.649-1.915-19.28-2.562-28.941a135.721,135.721,0,0,0-2.612-20.279,4.145,4.145,0,0,1,1.457-4.6c5.844-5.034,9.83-11.307,11.115-18.972,1.56-9.309,1.769-18.756,1.945-28.165a315.776,315.776,0,0,0-.89-34.334c-.718-7.969-1.432-15.9-3.75-23.7-2.863-9.631-18.177-17.021-27.414-10.024a168.944,168.944,0,0,0-35.457,36.664q-6.207,8.669-12.259,17.447c-.178.259-2.2,3.773-2.391,3.977,1.046.865,2.094,1.732,3.193,2.551.6.291,1.2.58,1.8.876-.234-.707,2-4.793,2.963-6.1,5.353-7.268,10.282-14.838,15.9-21.918a159.773,159.773,0,0,1,28.455-28.329c5.621-4.262,14.487-2.938,18.167,2.89,2.767,1.868,3.443,4.46,3.659,7.8.243,3.768.845,7.52,1.378,11.238,1.47,10.223.984,20.486,1.2,30.724.209,10.074.147,20.186-.507,30.236-.5,7.663-2.125,15.23-8.368,20.777-2.108,1.873-2.448,1.791-3.6-.838q-.481-1.1-.972-2.192a5.666,5.666,0,0,1-5.372,2.158c.136.284.322.908.459,1.191,3.8,7.838,5.444,16.1,6.363,24.679,1,9.34,1.754,18.694,2.523,28.049.264,3.214.459,6.435.668,9.654.04.627,1.853,27.924-.492,40.917-2.326,12.89-11.19,21.11-22.412,26.882-8.767,4.51-18.318,6.9-27.789,9.365a324.257,324.257,0,0,1-51.77,9.14c-6.021.555-12.009-.444-17.928-1.349-12.861-1.968-25.782-3.758-38.474-6.553-13.04-2.871-26.231-5.771-37.647-13.382-8.923-5.948-15.77-13.624-17.717-24.439-1.558-8.653-1.291-17.5-.593-26.269.257-3.235.249-6.463.363-9.694.043-1.2,1.382-23.685,2.333-32.575.977-9.137.7-18.469,4.187-27.251a166.114,166.114,0,0,1,8.107-18.439c1.741-3.191,1.407-4.743-1.2-7.348-.479-.478-1.045-.886-.725-1.6.3-.678,1.037-.723,1.686-.727q3.049-.013,6.1.033a2.96,2.96,0,0,0,3.012-1.974,2.708,2.708,0,0,0-.73-3.456c-1.815-1.708-3.544-3.509-5.28-5.3-.613-.633-1.645-1.269-.935-2.3.544-.793,1.524-.483,2.312-.208,3.14,1.094,6.421,1.919,9.365,3.409,3.763,1.9,6.459.547,5.815-4.309a108.692,108.692,0,0,0-4.253-17.706,154.479,154.479,0,0,0-14.139-32.647c-1.063-1.819-2.255-3.577-3.163-5.472a4.522,4.522,0,0,0-5.588-2.766,1.212,1.212,0,0,0-.177.46c-.552,1.047-.976,1.474.051,3.915,6.764,11.228,12.716,22.855,16.835,35.33,1.441,4.363,2.48,8.863,3.583,13.33.628,2.546-.019,3.11-2.5,2.233a27.406,27.406,0,0,0-10.52-2c-4.381.209-6.455,3.369-4.734,7.373a19.834,19.834,0,0,0,2.581,3.916c1.049,1.411.664,2.178-1.1,2.29a9.127,9.127,0,0,0-2.444.332c-4.383,1.556-5.51,5.969-2.035,9.141,2.528,2.308,2.813,4.2,1.064,7.1a74.529,74.529,0,0,0-4.107,9.052c-1.053,2.44-1.663,2.554-3.723.759-4.362-3.8-6.109-8.824-7.036-14.334-1.775-10.543-1.334-21.184-1.517-31.792a266.674,266.674,0,0,1,.656-29.364c.706-7.555.456-15.353,3.732-22.536a4.771,4.771,0,0,1,1.385-1.915c2.332-4.8,12.51-8.009,17.25-4.535a151.627,151.627,0,0,1,29.021,28.123c5.628,7.061,10.469,14.665,15.917,21.845,1.586,2.09,4.059,6.045,3.873,6.848,1.949-.867,3.96-1.785,6.018-2.583-1.094-.3-3.734-4.065-4.632-5.39-4.451-6.576-8.956-13.13-13.754-19.453a175.272,175.272,0,0,0-28.624-29.928c-3.055-2.5-6.221-4.913-10.1-6.05-7.2-2.109-19.354,3.194-22.043,12.844a122.363,122.363,0,0,0-3.985,27.055c-.716,14.69-.635,29.4-.04,44.1a85.331,85.331,0,0,0,2.268,17.546c1.641,6.47,5.651,11.547,10.539,15.952,1.158,1.044,2.011,2.087,1.549,3.821a90.283,90.283,0,0,0-1.888,10.881c-1.386,9.977-1.78,20.035-2.815,30.039-1.074,10.379-1.309,20.847-1.857,31.278a111.132,111.132,0,0,0,.694,19.946c1.127,8.8,5.315,16.212,11.35,22.631,1.815,1.929,1.777,2.943-.324,3.731-11.222,4.2-19.838,12.3-29.135,19.376a3.356,3.356,0,0,0-1.566,3.565c.353,1.626,1.684,2.117,3.027,2.463,4.366,1.126,8.741,2.222,13.13,3.254,6.942,1.632,13.9,2.637,21.076,1.383a49.631,49.631,0,0,0,16.763-6.16c1.053-.618,2.415-1.756,3.53-.75,1.086.981.159,2.426-.314,3.6-1.863,4.611-3.658,9.254-5.668,13.8-4.886,11.055-9.867,22.067-12.739,33.875-.224.92-.357,1.887-1.414,2.189-1.215.346-1.828-.587-2.5-1.345-.127-.143-.258-.28-.386-.421a12.2,12.2,0,0,1,.015,4.539,4.314,4.314,0,0,1,3.089,4.5l5.2,2.261c2.039-11.624,6.214-26.433,10.99-37.163,3.377-7.585,6.465-15.3,9.623-22.98,1.442-3.509,1.723-3.764,4.874-1.729a126.65,126.65,0,0,0,24.193,12.618,145.954,145.954,0,0,0,20.827,6.344c4.858,1.032,9.825,1.7,14.554,3.145,3.877,1.187,7.431.518,11.153-.182,10.421-1.959,20.769-4.122,30.57-8.37a99.075,99.075,0,0,0,22.782-13.912c6.2-4.994,6.376-5.246,9.092,2.068,4.212,11.348,10.03,21.961,14.605,33.124a106.122,106.122,0,0,1,4.307,13.981c.766,3,2.368,8.839,1.758,12.112l5.357-2.962c.05-.169.1-.339.171-.511,1.109-2.837,2.093-5.972,3.487-8.833q-.652.638-1.3,1.286c-1.408,1.41-2.182,1.092-2.665-.614-.967-3.413-1.862-6.846-2.787-10.271-1.164-3.209-2.276-6.438-3.52-9.615a1.938,1.938,0,0,1,.428-2.484c5.729-4.778,11.651-8.947,19.654-8.982,6.435-.028,11.651,2.028,15,7.593,2.384,3.958,5.55,4.925,9.818,3.927a15.749,15.749,0,0,1,9.23.979c4.839,1.82,7.245,5.9,9.1,10.261,2.328,5.477,4.4,16.8,3.543,22.876l4.278.638C1214.832,677.3,1214.64,665.68,1210.835,658.21ZM979.563,612.158a48.477,48.477,0,0,1-28.555,9.289c-5.727.241-11.486-1.568-17.272-3.072-2.98-.775-3.267-2.491-.769-4.382,6.292-4.763,12.385-9.816,19.852-12.826,3.631-1.463,6.982-1.936,10.6-.052a131.63,131.63,0,0,0,15.686,6.811C982.259,609.08,982.276,610.153,979.563,612.158Zm127.857,5.452a90.646,90.646,0,0,1-30.606,15.041c-6.423,1.719-12.949,2.919-19.451,4.252-.9.184-1.838.177-3.312.309-5.538-1.149-11.64-2.2-17.623-3.714a164.861,164.861,0,0,1-20.133-6.107,149.15,149.15,0,0,1-25.2-13.148c-.752-.478-1.744-1.115-1.148-2.2.553-1.007,1.748-.678,2.52-.4,5.521,1.95,11.258,2.89,17,3.842,9.923,1.645,19.85,3.269,29.768,4.94a107.127,107.127,0,0,0,15.977,1.567c10.038.173,19.848-1.763,29.672-3.431,7.1-1.2,14.134-2.734,21.2-4.091.96-.185,2.188-.657,2.745.493C1109.45,616.242,1108.31,616.952,1107.42,617.61Zm20.585-9.173c6.968-2.4,13.406-6.2,20.552-8.036,4.96-1.278,9.2,1.414,13.266,3.7a96.022,96.022,0,0,1,13.648,9.847c.907.745,2.194,1.434,1.946,2.8-.267,1.469-1.769,1.823-2.976,2.179-5.855,1.725-11.771,3.161-18.4,3.113-8.983.138-17.021-3.863-24.81-8.606-1.021-.622-2.125-1.112-3.112-1.78C1126.656,610.658,1126.242,609.046,1128.005,608.437Z" transform="translate(-917.029 -355.597)" fill="#040405"/>
</svg>
