<svg id="Group_1190" data-name="Group 1190" xmlns="http://www.w3.org/2000/svg" width="26.219" height="26.22" viewBox="0 0 26.219 26.22">
  <g id="Group_1189" data-name="Group 1189" transform="translate(0.14 0.134)">
    <g id="Group_1181" data-name="Group 1181">
      <g id="Group_1180" data-name="Group 1180">
        <path id="Path_1414" data-name="Path 1414" d="M1155.22,6932.245c-.171-.006-2.672.395-3.772.36l-.112,0a13.017,13.017,0,0,1-12.45-13.251,12.96,12.96,0,0,1,13.466-12.651c.085,0,.17.007.255.012a12.958,12.958,0,0,1,8.512,21.988A37.593,37.593,0,0,1,1155.22,6932.245Z" transform="translate(-1138.883 -6906.689)" fill="#e73b63"/>
      </g>
    </g>
    <g id="Group_1183" data-name="Group 1183" transform="translate(0.722 0.715)" opacity="0.5">
      <g id="Group_1182" data-name="Group 1182">
        <path id="Path_1415" data-name="Path 1415" d="M1153.572,6908.888a12.144,12.144,0,0,0-11.392,17.952,12.144,12.144,0,0,1,10.791-18.935,12.19,12.19,0,0,1,9.952,6.331A12.163,12.163,0,0,0,1153.572,6908.888Z" transform="translate(-1140.088 -6907.883)" fill="#fff"/>
      </g>
    </g>
    <g id="Group_1184" data-name="Group 1184" transform="translate(2.39 5.373)" opacity="0.3">
      <path id="Path_1416" data-name="Path 1416" d="M1162.726,6915.663a12.126,12.126,0,0,1-.27,16.606,27.421,27.421,0,0,1-6.061,3.411,12.162,12.162,0,0,1-13.521-6.375c1.035,1.149,6.56,6.76,16.034,1.47C1167.445,6926.008,1163.212,6916.61,1162.726,6915.663Z" transform="translate(-1142.874 -6915.663)" fill="#253166"/>
    </g>
    <g id="Group_1185" data-name="Group 1185" transform="translate(7.076 7.874)">
      <path id="Path_1417" data-name="Path 1417" d="M1161.1,6920.959h0a3.191,3.191,0,0,0-4.506.046l-.2.186-.185-.2a3.192,3.192,0,0,0-4.489-.4h0a3.183,3.183,0,0,0-.177,4.5l.185.2,3.751,4.059a.839.839,0,0,0,1.186.046l4.058-3.751.2-.185A3.184,3.184,0,0,0,1161.1,6920.959Z" transform="translate(-1150.7 -6919.84)" fill="#fff"/>
    </g>
    <g id="Group_1186" data-name="Group 1186" transform="translate(15.601 10.172)" opacity="0.5">
      <path id="Path_1418" data-name="Path 1418" d="M1166.344,6924.193a1.152,1.152,0,0,0-1.333-.441c-.231.154.137.458.5,1s.581,1.115.811.961A1.36,1.36,0,0,0,1166.344,6924.193Z" transform="translate(-1164.939 -6923.677)" fill="#fbe5e4"/>
    </g>
    <g id="Group_1188" data-name="Group 1188" transform="translate(14.671 9.318)" opacity="0.5">
      <g id="Group_1187" data-name="Group 1187">
        <path id="Path_1419" data-name="Path 1419" d="M1163.389,6922.442a.359.359,0,0,0,.626.273c.1-.125.023-.337-.186-.429A.3.3,0,0,0,1163.389,6922.442Z" transform="translate(-1163.385 -6922.251)" fill="#fbe5e4"/>
      </g>
    </g>
  </g>
  <path id="Path_1420" data-name="Path 1420" d="M1151.243,6932.675a13.11,13.11,0,1,1,13.615-12.585A13.125,13.125,0,0,1,1151.243,6932.675Zm.99-25.18a12.089,12.089,0,1,0,11.605,12.554A12.1,12.1,0,0,0,1152.233,6907.5Z" transform="translate(-1138.649 -6906.465)" fill="#371b45"/>
</svg>
