<svg xmlns="http://www.w3.org/2000/svg" width="464.494" height="91.489" viewBox="0 0 464.494 91.489">
  <g id="Group_3466" data-name="Group 3466" transform="translate(0 -71.978)">
    <g id="Group_2907" data-name="Group 2907" transform="translate(0 117.722)">
      <g id="Group_2904" data-name="Group 2904">
        <g id="Group_2902" data-name="Group 2902" transform="translate(0.433 0.715)">
          <path id="Path_2865" data-name="Path 2865" d="M.53,684.7v-7.623l388.6-2.382v12.387Z" transform="translate(-0.53 -674.697)" fill="#d7d7d7"/>
        </g>
        <g id="Group_2903" data-name="Group 2903">
          <path id="Path_2866" data-name="Path 2866" d="M.433,684.5v-7.35c0-.385-1.392-.8.817-.817l387.768-2.508a18.493,18.493,0,0,1,2.993.2c.8.135,1.253.32,1.253.515v12.387c0,.194-.452.379-1.253.514a18.384,18.384,0,0,1-2.993.2L1.25,685.314C-.96,685.3.433,684.882.433,684.5Zm1.673-6.889v6.243l382.951,2.332V675.276Z" transform="translate(0 -673.821)" fill="#15224e"/>
        </g>
      </g>
      <g id="Group_2905" data-name="Group 2905" transform="translate(0.433 1.455)" opacity="0.5">
        <path id="Path_2867" data-name="Path 2867" d="M261.406,677.781c4.8.774,15.258,1.312,27.4,1.312,13.86,0,25.532-.7,29.083-1.654l67.007-.407V675.6l-67.915.411-57.738.35L.53,677.935v1.429Z" transform="translate(-0.53 -675.603)" fill="#fff"/>
      </g>
      <g id="Group_2906" data-name="Group 2906" transform="translate(0.433 2.508)" opacity="0.2">
        <path id="Path_2868" data-name="Path 2868" d="M385.606,684.706s-340.177-.715-355.633-7.812H.53v7.35l385.514,2.237Z" transform="translate(-0.53 -676.893)" fill="#15224e"/>
      </g>
    </g>
    <g id="Group_3062" data-name="Group 3062" transform="translate(352.629 71.978)">
      <g id="Group_2942" data-name="Group 2942" transform="translate(46.11 29.202)">
        <path id="Path_2892" data-name="Path 2892" d="M529.17,634.66a29.761,29.761,0,0,0,1.974,4.112,33.9,33.9,0,0,0,2.459,3.681,3.032,3.032,0,0,0,.786-.543,2.9,2.9,0,0,0,.514-.653,9.376,9.376,0,0,0,.957-2.435c-.708-4.079-2.268-8.028-.04-10.58.01-.013.02-.023.032-.036a7.807,7.807,0,0,1,2.358-1.891,4.7,4.7,0,0,1,1.755-.5,4.854,4.854,0,0,0-2.025-1.966,10.015,10.015,0,0,0-2.974.285,8.527,8.527,0,0,0-1.639.6,12.219,12.219,0,0,0-2.366,1.513l-.051.041C528.583,628.168,527.919,631.422,529.17,634.66Z" transform="translate(-528.469 -623.751)" fill="#44baeb"/>
        <path id="Path_2893" data-name="Path 2893" d="M533.492,642.458a33.983,33.983,0,0,1-2.465-3.69,29.852,29.852,0,0,1-1.981-4.123h0c-1.26-3.26-.567-6.584,1.766-8.47l.05-.041a12.364,12.364,0,0,1,2.383-1.524,8.676,8.676,0,0,1,1.655-.6,10.148,10.148,0,0,1,3-.288.081.081,0,0,1,.033.008,4.969,4.969,0,0,1,2.063,2,.086.086,0,0,1-.071.124,4.618,4.618,0,0,0-1.723.488,7.787,7.787,0,0,0-2.338,1.877l-.026.029c-1.751,2.005-1.111,4.949-.435,8.065.173.8.352,1.62.5,2.445a.1.1,0,0,1,0,.035,9.406,9.406,0,0,1-.967,2.458,3,3,0,0,1-.528.672,3.132,3.132,0,0,1-.808.558.087.087,0,0,1-.105-.025Zm1.747-6.107c-.686-3.159-1.334-6.143.471-8.21a.485.485,0,0,1,.035-.039,7.929,7.929,0,0,1,2.384-1.911,4.844,4.844,0,0,1,1.655-.494,4.83,4.83,0,0,0-1.91-1.808,9.993,9.993,0,0,0-2.932.285,8.486,8.486,0,0,0-1.623.591,12.163,12.163,0,0,0-2.347,1.5c-.017.015-.036.03-.053.043-2.273,1.837-2.946,5.085-1.713,8.274a29.69,29.69,0,0,0,1.969,4.1,33.756,33.756,0,0,0,2.41,3.616,2.936,2.936,0,0,0,.7-.5,2.864,2.864,0,0,0,.5-.634,9.253,9.253,0,0,0,.943-2.4C535.588,637.956,535.41,637.14,535.239,636.351Zm-6.113-1.74h0Z" transform="translate(-528.426 -623.704)" fill="#0f2653"/>
      </g>
      <g id="Group_2943" data-name="Group 2943" transform="translate(45.692 28.783)">
        <path id="Path_2894" data-name="Path 2894" d="M534.59,644.5l-.216-.246a32.925,32.925,0,0,1-5.944-9.683c-1.327-3.432-.585-6.943,1.891-8.944l.053-.043a11.1,11.1,0,0,1,4.2-2.206,10.374,10.374,0,0,1,3.9-.227,2.627,2.627,0,0,1,2.036,2.184.713.713,0,0,1-.7.71,5.577,5.577,0,0,0-3.835,2.214c-.013.016-.027.031-.038.043-1.613,1.847-1.024,4.56-.342,7.7a21.851,21.851,0,0,1,.75,6.743.505.505,0,0,1-.229.374c-.087.131-.279.468-.693,1.276a.5.5,0,0,1-.825.1Zm.013-8.283c-.71-3.265-1.38-6.349.561-8.571.016-.018.03-.035.045-.051a6.785,6.785,0,0,1,4.208-2.527,1.8,1.8,0,0,0-1.087-.918,9.368,9.368,0,0,0-3.515.206A10.121,10.121,0,0,0,531,626.365l-.05.039h0c-2.162,1.748-2.769,4.737-1.585,7.8a31.759,31.759,0,0,0,5.491,9.068,6.325,6.325,0,0,1,.492-.83A21.89,21.89,0,0,0,534.6,636.212Z" transform="translate(-527.78 -623.056)" fill="#261436"/>
      </g>
      <g id="Group_2944" data-name="Group 2944" transform="translate(47.829 29.287)">
        <path id="Path_2895" data-name="Path 2895" d="M531.663,635.837a11.06,11.06,0,0,1,.377,2.934,33.879,33.879,0,0,0,2.459,3.681,3.033,3.033,0,0,0,.786-.543,2.9,2.9,0,0,0,.514-.653,9.376,9.376,0,0,0,.957-2.435c-.708-4.079-2.268-8.028-.04-10.58.01-.013.02-.023.032-.036a7.809,7.809,0,0,1,2.358-1.891,4.7,4.7,0,0,1,1.755-.5,4.852,4.852,0,0,0-2.025-1.966,10.016,10.016,0,0,0-2.974.285,8.532,8.532,0,0,0-1.639.6C531.336,626.8,530.334,630.611,531.663,635.837Z" transform="translate(-531.084 -623.836)" fill="#261436"/>
      </g>
      <g id="Group_2945" data-name="Group 2945" transform="translate(48.423 28.078)">
        <path id="Path_2896" data-name="Path 2896" d="M533.137,634.458a8.944,8.944,0,0,1,.146,4.612,3.452,3.452,0,0,1-1.148,1.462c.05.091.1.182.149.273q.383.695.807,1.382c1.065-.392,2.159-.811,2.617-1,.024-.009.047-.017.067-.026l.039-.016.085-.037a3.065,3.065,0,0,0,.86-.579,2.9,2.9,0,0,0,.514-.653c2.784-4.815,0-11.8,4.256-14.292.308-.18.606-.336.893-.471l0,0a.109.109,0,0,0,.054-.059c.184-.4-.988-2.273-2.737-2.81a3.113,3.113,0,0,0-2.051.061c-.194.072-.385.15-.574.236C533.161,624.318,531.609,628.45,533.137,634.458Z" transform="translate(-532.049 -622.014)" fill="#ca5e9c"/>
        <path id="Path_2897" data-name="Path 2897" d="M532.971,642.186c-.278-.452-.55-.918-.808-1.386-.031-.056-.061-.111-.091-.166l-.058-.107a.084.084,0,0,1,.021-.107,3.34,3.34,0,0,0,1.12-1.419,8.96,8.96,0,0,0-.146-4.568c-1.5-5.907-.072-10.174,4.027-12.016.193-.087.382-.164.58-.238a3.2,3.2,0,0,1,2.106-.063,4.8,4.8,0,0,1,2.7,2.357.8.8,0,0,1,.092.565.191.191,0,0,1-.09.1l-.01,0c-.3.14-.6.3-.886.468-2.352,1.375-2.522,4.206-2.7,7.2-.146,2.423-.3,4.929-1.525,7.056a2.989,2.989,0,0,1-.528.671,3.144,3.144,0,0,1-.9.6l-.077.034-.02.008-.016.006-.057.023-.014.006c-.472.194-1.6.624-2.62,1a.086.086,0,0,1-.083-.014A.094.094,0,0,1,532.971,642.186Zm9.37-17.2c.006,0,.01-.006.014-.018.025-.054.014-.194-.091-.43a4.612,4.612,0,0,0-2.594-2.263,3.041,3.041,0,0,0-2,.06c-.194.072-.38.149-.569.234-4.015,1.8-5.411,6-3.932,11.818h0a9.127,9.127,0,0,1,.144,4.659,3.361,3.361,0,0,1-1.12,1.456l.025.046.09.165c.245.445.5.889.768,1.319,1-.369,2.088-.783,2.549-.973l.017-.007.051-.021.118-.05a2.968,2.968,0,0,0,.837-.563,2.835,2.835,0,0,0,.5-.634c1.209-2.092,1.358-4.577,1.5-6.98.182-3.045.355-5.921,2.785-7.342.292-.171.593-.33.895-.472Z" transform="translate(-532.003 -621.967)" fill="#0f2653"/>
      </g>
      <g id="Group_2946" data-name="Group 2946" transform="translate(48.005 27.66)">
        <path id="Path_2898" data-name="Path 2898" d="M532.386,642.176c-.281-.457-.556-.929-.818-1.4l-.15-.275a.5.5,0,0,1,.121-.631,2.964,2.964,0,0,0,.986-1.217,8.567,8.567,0,0,0-.151-4.343c-1.558-6.127-.045-10.566,4.262-12.5.212-.094.409-.176.6-.248,2.58-.966,4.8,1.232,5.358,2.566.346.823-.092,1.105-.236,1.172-.283.133-.569.283-.853.449-2.159,1.262-2.315,3.86-2.494,6.869-.148,2.472-.3,5.028-1.581,7.241a3.5,3.5,0,0,1-1.591,1.432c-.039.019-.078.035-.117.051l-.037.016-.074.029c-.508.208-1.633.637-2.626,1a.5.5,0,0,1-.6-.208Zm7.772-19.331a2.765,2.765,0,0,0-2.566-.344c-.175.065-.353.138-.544.224-3.808,1.711-5.121,5.736-3.7,11.333h0a9.53,9.53,0,0,1,.143,4.872l-.006.02a3.43,3.43,0,0,1-.991,1.418q.26.468.534.927c.974-.362,1.84-.7,2.212-.848l.019-.007.039-.016.027-.01.027-.012.061-.026a2.481,2.481,0,0,0,1.147-1.025c1.16-2.007,1.305-4.442,1.447-6.8.189-3.159.368-6.144,2.992-7.678.222-.129.446-.251.67-.364A4.265,4.265,0,0,0,540.157,622.846Z" transform="translate(-531.356 -621.321)" fill="#261436"/>
      </g>
      <g id="Group_2947" data-name="Group 2947" transform="translate(50.557 28.308)">
        <path id="Path_2899" data-name="Path 2899" d="M536.954,634.55c1.157,3.511-.527,4.728-1.522,5.131-.227.092-.144.433.125.525a8.077,8.077,0,0,0,2.32.4,2.9,2.9,0,0,0,.514-.653c2.784-4.815,0-11.8,4.256-14.291.308-.18.606-.336.893-.471l0,0c.017-.02.035-.041.054-.059.184-.4-.988-2.273-2.737-2.81-.113.041-.228.085-.342.129C537.421,623.683,534.678,627.643,536.954,634.55Z" transform="translate(-535.301 -622.323)" fill="#261436"/>
      </g>
      <g id="Group_2948" data-name="Group 2948" transform="translate(51.88 26.367)">
        <path id="Path_2900" data-name="Path 2900" d="M553.06,622.443a5.984,5.984,0,0,0-6.741-.158c-4.256,2.488,2.166,11.518-3.1,15.226-1.474,1.037-4,.941-5.614.387-.268-.093-.352-.434-.125-.526,1-.4,2.678-1.62,1.521-5.13-2.276-6.907.468-10.868,3.565-12.1,4.534-1.8,9.708-.342,11.02,1.5Z" transform="translate(-537.346 -619.322)" fill="#ffea57"/>
      </g>
      <g id="Group_2951" data-name="Group 2951" transform="translate(52.422 26.989)">
        <g id="Group_2949" data-name="Group 2949" transform="translate(11.93)">
          <path id="Path_2901" data-name="Path 2901" d="M558.523,622.3l.322-.489a5.038,5.038,0,0,0-2.217-1.526,7,7,0,0,1,4.281,2.115l-.524.8A5.521,5.521,0,0,0,558.523,622.3Z" transform="translate(-556.628 -620.283)" fill="#261436"/>
        </g>
        <g id="Group_2950" data-name="Group 2950" transform="translate(0 1.21)">
          <path id="Path_2902" data-name="Path 2902" d="M541.965,638.334c5.269-3.709-1.153-12.738,3.1-15.226a6.054,6.054,0,0,1,5.929-.337,6.327,6.327,0,0,0-3.865.926c-4.255,2.488,2.166,11.518-3.1,15.226-1.474,1.037-4,.941-5.613.387a.38.38,0,0,1-.23-.215A5.886,5.886,0,0,0,541.965,638.334Z" transform="translate(-538.185 -622.154)" fill="#261436"/>
        </g>
      </g>
      <g id="Group_2952" data-name="Group 2952" transform="translate(51.797 44.22)" opacity="0.5">
        <path id="Path_2903" data-name="Path 2903" d="M537.477,647.163a.231.231,0,0,0-.088.351,2.724,2.724,0,0,0,.341-.465C537.642,647.093,537.558,647.13,537.477,647.163Z" transform="translate(-537.263 -646.966)" fill="#fff"/>
        <path id="Path_2904" data-name="Path 2904" d="M537.272,647.51a.364.364,0,0,1-.037-.3.286.286,0,0,1,.166-.171c.079-.032.162-.069.247-.112a.08.08,0,0,1,.1.017.083.083,0,0,1,.011.1,2.764,2.764,0,0,1-.351.479.085.085,0,0,1-.071.026.091.091,0,0,1-.042-.017A.089.089,0,0,1,537.272,647.51Zm.118-.243a.162.162,0,0,0-.007.029c.027-.032.052-.065.077-.1A.119.119,0,0,0,537.391,647.266Z" transform="translate(-537.218 -646.921)" fill="#261436"/>
      </g>
      <g id="Group_2953" data-name="Group 2953" transform="translate(54.511 26.368)" opacity="0.6">
        <path id="Path_2905" data-name="Path 2905" d="M541.413,622.021a6.347,6.347,0,0,1,1.353-.739,12.284,12.284,0,0,1,9.107.107h0a5.72,5.72,0,0,1,2.622,1.056l.524-.8c-1.312-1.846-6.486-3.3-11.02-1.5A6.559,6.559,0,0,0,541.413,622.021Z" transform="translate(-541.413 -619.323)" fill="#fff"/>
      </g>
      <g id="Group_2954" data-name="Group 2954" transform="translate(51.376 25.857)">
        <path id="Path_2906" data-name="Path 2906" d="M536.568,637.31a.711.711,0,0,1,.446-.684c1.094-.442,2.2-1.582,1.232-4.505a12.634,12.634,0,0,1-.223-8.519,7.294,7.294,0,0,1,4.08-4.2c4.886-1.941,10.228-.276,11.617,1.679a.5.5,0,0,1,.01.569l-.524.8a.5.5,0,0,1-.734.116l-.008-.006a5.506,5.506,0,0,0-6.165-.111c-1.716,1-1.383,3.38-1,6.133.453,3.25.968,6.933-2.069,9.07-1.59,1.119-4.255,1.074-6.067.452a.91.91,0,0,1-.27-.148A.847.847,0,0,1,536.568,637.31ZM552.683,621.4c-1.494-1.549-6.209-2.659-10.208-1.069-2.877,1.142-5.46,4.833-3.272,11.472,1.1,3.346-.217,4.842-1.255,5.474a6.2,6.2,0,0,0,4.7-.46c2.534-1.783,2.085-5,1.651-8.107-.4-2.851-.81-5.8,1.488-7.142a6.578,6.578,0,0,1,6.852-.105Z" transform="translate(-536.568 -618.534)" fill="#261436"/>
      </g>
      <g id="Group_2955" data-name="Group 2955" transform="translate(50.723 20.949)">
        <path id="Path_2907" data-name="Path 2907" d="M537.241,628.084c-.059.114-.116.228-.173.344-.1.214-.2.431-.3.653a15.7,15.7,0,0,0-.768,2.192c-1.794,6.647,4.745,13.381,7.457,15.469,2.641,2.176,10.669,7.044,16.745,3.807a15.737,15.737,0,0,0,1.913-1.2q.172-.125.34-.254c.181-.14.356-.282.528-.427,6.727-5.678,6.916-15.369,6.916-15.369s5.5.71,6.074-3.485c.448-3.277-4.636-5.94-8.412-3.5l-9.588-7.637c1.538-4.227-2.194-8.587-5.288-7.418-3.96,1.5-2.038,6.7-2.038,6.7S541.286,620.305,537.241,628.084Z" transform="translate(-535.606 -610.99)" fill="#fff"/>
        <path id="Path_2908" data-name="Path 2908" d="M543.358,646.763a24.89,24.89,0,0,1-5.437-6.046c-2.144-3.4-2.834-6.6-2.049-9.51a15.911,15.911,0,0,1,.772-2.2c.092-.214.192-.429.3-.657.058-.116.115-.231.175-.345h0c3.808-7.323,12.41-9.874,13.369-10.138-.227-.688-1.593-5.316,2.116-6.72a3.745,3.745,0,0,1,3.947,1.112,6.119,6.119,0,0,1,1.468,6.355l9.5,7.563a6.121,6.121,0,0,1,6.523.01,3.744,3.744,0,0,1,1.966,3.6c-.538,3.929-5.354,3.632-6.076,3.565-.043,1-.608,9.994-6.942,15.34-.175.148-.354.292-.531.43-.113.086-.227.172-.342.255a15.913,15.913,0,0,1-1.922,1.206c-2.659,1.416-5.931,1.46-9.727.131a25.039,25.039,0,0,1-6.915-3.79C543.484,646.867,543.42,646.814,543.358,646.763Zm30.593-20.441a5.955,5.955,0,0,0-6.4.022.082.082,0,0,1-.1,0l-9.588-7.637a.082.082,0,0,1-.026-.093,5.952,5.952,0,0,0-1.408-6.238,3.588,3.588,0,0,0-3.773-1.074c-3.837,1.452-2.009,6.542-1.99,6.593a.084.084,0,0,1,0,.067.081.081,0,0,1-.053.041c-.093.023-9.369,2.423-13.349,10.078h0c-.059.113-.117.226-.173.341-.11.225-.208.437-.3.65a15.619,15.619,0,0,0-.764,2.181c-1.772,6.561,4.761,13.328,7.429,15.385,2.6,2.138,10.656,6.993,16.654,3.8a15.641,15.641,0,0,0,1.9-1.193c.114-.083.227-.168.338-.253.176-.136.353-.279.525-.425,6.619-5.588,6.885-15.21,6.887-15.307a.08.08,0,0,1,.029-.061.083.083,0,0,1,.065-.019c.054.007,5.424.653,5.981-3.414a3.419,3.419,0,0,0-1.437-3.113A5.2,5.2,0,0,0,573.951,626.322Zm-36.758,1.715h0Z" transform="translate(-535.559 -610.946)" fill="#261436"/>
      </g>
      <g id="Group_2956" data-name="Group 2956" transform="translate(50.707 39.168)">
        <path id="Path_2909" data-name="Path 2909" d="M536.609,639.11a15.747,15.747,0,0,0-.768,2.192c-1.794,6.647,4.745,13.382,7.457,15.47,2.641,2.175,10.669,7.044,16.745,3.808a15.765,15.765,0,0,0,1.913-1.2c-1.631-4.128-5.338-8.888-10.477-12.982C546.388,642.344,540.975,639.8,536.609,639.11Z" transform="translate(-535.533 -639.11)" fill="#f8e3f1"/>
      </g>
      <g id="Group_2957" data-name="Group 2957" transform="translate(50.81 39.039)">
        <path id="Path_2910" data-name="Path 2910" d="M536.768,638.911A15.7,15.7,0,0,0,536,641.1c-1.794,6.647,4.745,13.381,7.457,15.47,2.641,2.175,10.669,7.044,16.745,3.807a15.745,15.745,0,0,0,1.913-1.2q-.075-.188-.155-.379c-.1.048-.193.1-.29.142-5.716,2.7-13.81-2.377-16.506-4.589-2.759-2.134-9.517-8.886-8.165-15.063.025-.111.05-.22.077-.329Q536.919,638.934,536.768,638.911Z" transform="translate(-535.692 -638.911)" fill="#261436" opacity="0.3"/>
      </g>
      <g id="Group_2958" data-name="Group 2958" transform="translate(50.32 20.535)">
        <path id="Path_2911" data-name="Path 2911" d="M542.685,646.707c.068.054.135.107.2.157a25.265,25.265,0,0,0,7.222,4.009c3.854,1.349,7.332,1.3,10.058-.156a18.476,18.476,0,0,0,8.631-10.793,26.27,26.27,0,0,0,1.3-6.355c2.164.123,5.629-.55,6.1-3.957a4.143,4.143,0,0,0-2.153-4,6.534,6.534,0,0,0-7.019.024.5.5,0,0,0,.538.833,5.606,5.606,0,0,1,5.949-.02,3.186,3.186,0,0,1,1.7,3.033c-.5,3.655-5.315,3.086-5.519,3.06a.5.5,0,0,0-.559.481c0,.12-.351,11.985-9.434,16.822-5.8,3.09-13.658-1.659-16.2-3.752-2.618-2.02-9.006-8.615-7.292-14.958,2.683-9.935,14.171-12.928,14.286-12.957a.5.5,0,0,0,.344-.653c-.07-.193-1.7-4.758,1.749-6.063a3.188,3.188,0,0,1,3.337.981,5.6,5.6,0,0,1,1.311,5.8.5.5,0,0,0,.932.339,6.534,6.534,0,0,0-1.547-6.847,4.144,4.144,0,0,0-4.383-1.2c-3.217,1.217-3.1,4.745-2.494,6.826a26.314,26.314,0,0,0-5.9,2.689,18.48,18.48,0,0,0-8.589,10.826c-.805,2.982-.08,6.383,2.1,9.838A25.483,25.483,0,0,0,542.685,646.707Z" transform="translate(-534.934 -610.306)" fill="#261436"/>
      </g>
      <g id="Group_2959" data-name="Group 2959" transform="translate(54.162 36.699)">
        <ellipse id="Ellipse_915" data-name="Ellipse 915" cx="1.975" cy="2.992" rx="1.975" ry="2.992" transform="matrix(0.623, -0.782, 0.782, 0.623, 0, 3.09)" fill="#ecb2d3"/>
      </g>
      <g id="Group_2960" data-name="Group 2960" transform="translate(71.285 50.388)">
        <ellipse id="Ellipse_916" data-name="Ellipse 916" cx="1.943" cy="2.944" rx="1.943" ry="2.944" transform="matrix(0.623, -0.782, 0.782, 0.623, 0, 3.04)" fill="#ecb2d3"/>
      </g>
      <g id="Group_2961" data-name="Group 2961" transform="translate(84.402 40.275)">
        <path id="Path_2912" data-name="Path 2912" d="M587.926,644.194a.5.5,0,0,0,.8-.384,22.7,22.7,0,0,0-.122-2.558.5.5,0,1,0-.982.135,22.264,22.264,0,0,1,.112,2.416A.5.5,0,0,0,587.926,644.194Z" transform="translate(-587.622 -640.823)" fill="#261436"/>
      </g>
      <g id="Group_2962" data-name="Group 2962" transform="translate(66.906 26.232)">
        <path id="Path_2913" data-name="Path 2913" d="M561.075,619.241a6.975,6.975,0,0,0-.372,1.124,7.452,7.452,0,0,1,.543-1.03C561.134,619.278,561.075,619.241,561.075,619.241Z" transform="translate(-560.619 -619.158)" fill="#a5daf6"/>
        <path id="Path_2914" data-name="Path 2914" d="M560.577,620.3a6.961,6.961,0,0,1,.378-1.138.081.081,0,0,1,.052-.045.08.08,0,0,1,.067.009s.059.036.164.09a.082.082,0,0,1,.032.118,7.311,7.311,0,0,0-.537,1.019.082.082,0,0,1-.1.045.085.085,0,0,1-.025-.013A.083.083,0,0,1,560.577,620.3Zm.492-.987c-.01.025-.022.054-.036.088l.049-.081Z" transform="translate(-560.574 -619.113)" fill="#261436"/>
      </g>
      <g id="Group_2968" data-name="Group 2968" transform="translate(72.617 44.276)">
        <g id="Group_2964" data-name="Group 2964">
          <g id="Group_2963" data-name="Group 2963">
            <path id="Path_2915" data-name="Path 2915" d="M573.365,652.569a.531.531,0,0,0,.09.057.5.5,0,0,0,.664-.225c.872-1.765.715-3.458-.419-4.531a3.407,3.407,0,0,0-4.045-.372.5.5,0,0,0,.488.863,2.421,2.421,0,0,1,2.876.23c.8.757.88,2.018.211,3.372A.5.5,0,0,0,573.365,652.569Z" transform="translate(-569.404 -647.006)" fill="#261436"/>
          </g>
        </g>
        <g id="Group_2965" data-name="Group 2965" transform="translate(4.097 4.149)">
          <path id="Path_2916" data-name="Path 2916" d="M577.335,654.509a1.39,1.39,0,0,1-.133-.048,1.429,1.429,0,0,1-.14-.069,1.116,1.116,0,0,1-.24-.184,1.023,1.023,0,0,1-.176-.231,1.278,1.278,0,0,1-.111-.265l0-.01a.407.407,0,1,0-.774.252.476.476,0,0,0,.026.064,2.015,2.015,0,0,0,.265.4,1.714,1.714,0,0,0,.354.32,1.767,1.767,0,0,0,.415.21,1.9,1.9,0,0,0,.22.063,1.664,1.664,0,0,0,.241.035.267.267,0,0,0,.107-.519Z" transform="translate(-575.738 -653.42)" fill="#261436"/>
        </g>
        <g id="Group_2966" data-name="Group 2966" transform="translate(4.287 3.421)">
          <path id="Path_2917" data-name="Path 2917" d="M577.807,653.281a1.5,1.5,0,0,1-.152-.01,1.06,1.06,0,0,1-.164-.037.925.925,0,0,1-.289-.147,1.032,1.032,0,0,1-.221-.232,1.475,1.475,0,0,1-.087-.141c-.025-.05-.047-.1-.072-.156l-.016-.034a.407.407,0,0,0-.734.354.489.489,0,0,0,.028.049c.048.073.094.146.146.217a2.158,2.158,0,0,0,.176.2,1.716,1.716,0,0,0,.435.322,1.553,1.553,0,0,0,.514.162,1.658,1.658,0,0,0,.265.015,1.521,1.521,0,0,0,.279-.035.266.266,0,0,0-.049-.527Z" transform="translate(-576.031 -652.294)" fill="#261436"/>
        </g>
        <g id="Group_2967" data-name="Group 2967" transform="translate(4.326 2.402)">
          <path id="Path_2918" data-name="Path 2918" d="M577.97,651.627a1.131,1.131,0,0,1-.167.026.987.987,0,0,1-.181-.005.758.758,0,0,1-.318-.11.9.9,0,0,1-.245-.231c-.037-.043-.064-.1-.1-.152l-.081-.172-.014-.03a.407.407,0,1,0-.737.347.393.393,0,0,0,.028.05c.052.08.1.159.157.236a2.391,2.391,0,0,0,.194.22,1.581,1.581,0,0,0,.5.34,1.4,1.4,0,0,0,.594.109,1.538,1.538,0,0,0,.29-.037,1.412,1.412,0,0,0,.289-.1.267.267,0,0,0-.163-.506Z" transform="translate(-576.091 -650.719)" fill="#261436"/>
        </g>
      </g>
      <g id="Group_2974" data-name="Group 2974" transform="translate(59.866 33.995)">
        <g id="Group_2970" data-name="Group 2970" transform="translate(0.407 1.108)">
          <g id="Group_2969" data-name="Group 2969">
            <path id="Path_2919" data-name="Path 2919" d="M550.509,634.724a.5.5,0,0,0,.622,0c1.17-.955,2.415-1.159,3.333-.548a2.423,2.423,0,0,1,.867,2.751.5.5,0,1,0,.95.283,3.405,3.405,0,0,0-1.267-3.859c-1.3-.865-2.986-.639-4.511.605a.5.5,0,0,0-.071.7A.55.55,0,0,0,550.509,634.724Z" transform="translate(-550.321 -632.826)" fill="#261436"/>
          </g>
        </g>
        <g id="Group_2971" data-name="Group 2971" transform="translate(0 1.071)">
          <path id="Path_2920" data-name="Path 2920" d="M549.7,633.116a1.686,1.686,0,0,0,.089.228,1.89,1.89,0,0,0,.111.2,1.747,1.747,0,0,0,.3.357,1.716,1.716,0,0,0,.391.274,1.992,1.992,0,0,0,.45.167.407.407,0,0,0,.209-.787.393.393,0,0,0-.066-.012h-.014a1.231,1.231,0,0,1-.283-.049.994.994,0,0,1-.264-.119,1.1,1.1,0,0,1-.234-.193,1.406,1.406,0,0,1-.1-.12c-.029-.039-.061-.094-.076-.118l-.029-.047a.267.267,0,0,0-.482.221Z" transform="translate(-549.693 -632.77)" fill="#261436"/>
        </g>
        <g id="Group_2972" data-name="Group 2972" transform="translate(0.712 0.443)">
          <path id="Path_2921" data-name="Path 2921" d="M550.793,632.068a1.433,1.433,0,0,0,.028.279,1.608,1.608,0,0,0,.073.254,1.563,1.563,0,0,0,.272.464,1.7,1.7,0,0,0,.412.352,2.052,2.052,0,0,0,.235.127c.08.036.162.063.245.094a.407.407,0,0,0,.288-.762.4.4,0,0,0-.051-.015l-.04-.009c-.055-.012-.113-.021-.167-.035a1.487,1.487,0,0,1-.157-.054,1,1,0,0,1-.276-.164.9.9,0,0,1-.208-.248,1.054,1.054,0,0,1-.073-.151,1.207,1.207,0,0,1-.043-.146l-.016-.057a.266.266,0,0,0-.524.07Z" transform="translate(-550.793 -631.798)" fill="#261436"/>
        </g>
        <g id="Group_2973" data-name="Group 2973" transform="translate(1.728)">
          <path id="Path_2922" data-name="Path 2922" d="M552.393,631.33a1.479,1.479,0,0,0-.029.3,1.574,1.574,0,0,0,.029.291,1.4,1.4,0,0,0,.24.556,1.591,1.591,0,0,0,.444.413,2.3,2.3,0,0,0,.258.14c.087.037.176.068.265.1a.407.407,0,1,0,.283-.764.381.381,0,0,0-.052-.016l-.034-.008-.186-.04a1.712,1.712,0,0,1-.169-.062.9.9,0,0,1-.28-.186.757.757,0,0,1-.179-.285.972.972,0,0,1-.045-.175,1.152,1.152,0,0,1-.012-.169v-.052a.267.267,0,0,0-.53-.046Z" transform="translate(-552.364 -631.114)" fill="#261436"/>
        </g>
      </g>
      <g id="Group_2975" data-name="Group 2975" transform="translate(22.154 56.4)" opacity="0.3">
        <path id="Path_2923" data-name="Path 2923" d="M492.988,667.957a5.76,5.76,0,0,0-1.467-2.079,12.136,12.136,0,0,1,.827,2.788l2.042-2c-.007-.02-.014-.041-.02-.062Z" transform="translate(-491.438 -665.795)" fill="#550f3d"/>
        <path id="Path_2924" data-name="Path 2924" d="M492.222,668.634a11.911,11.911,0,0,0-.822-2.769.082.082,0,0,1,.027-.1.08.08,0,0,1,.1,0,5.759,5.759,0,0,1,1.441,2l1.3-1.27a.084.084,0,0,1,.079-.021.085.085,0,0,1,.058.057c.006.02.012.039.018.058a.082.082,0,0,1-.02.085l-2.042,2a.082.082,0,0,1-.083.02.073.073,0,0,1-.026-.014A.084.084,0,0,1,492.222,668.634Zm.646-.689a5.974,5.974,0,0,0-1.165-1.786,12.247,12.247,0,0,1,.654,2.293l.513-.5Z" transform="translate(-491.393 -665.749)" fill="#261436"/>
      </g>
      <g id="Group_2976" data-name="Group 2976" transform="translate(25.002 57.022)" opacity="0.3">
        <path id="Path_2925" data-name="Path 2925" d="M496.032,666.838l-.107.106c.006.021.013.042.02.062l.1-.1C496.039,666.886,496.036,666.862,496.032,666.838Z" transform="translate(-495.842 -666.755)" fill="#550f3d"/>
        <path id="Path_2926" data-name="Path 2926" d="M495.848,667.025a.087.087,0,0,0,.032.016.082.082,0,0,0,.077-.021l.1-.1a.084.084,0,0,0,.025-.068c0-.025-.007-.05-.01-.075a.083.083,0,0,0-.14-.047l-.107.106a.082.082,0,0,0-.021.082c.006.022.014.044.021.065A.083.083,0,0,0,495.848,667.025Z" transform="translate(-495.797 -666.711)" fill="#261436"/>
      </g>
      <g id="Group_2988" data-name="Group 2988" transform="translate(0 38.986)">
        <g id="Group_2977" data-name="Group 2977" transform="translate(1.555 11.552)">
          <path id="Path_2927" data-name="Path 2927" d="M459.769,656.729a.125.125,0,0,0-.2.146,12.255,12.255,0,0,0,3.232,3.611c6.771,5.31,14.11-.292,16.809,6.135l2.106-1.983c-.311-2.023-1.417-5.949-5.333-6.937C471.244,656.4,465.287,662.806,459.769,656.729Z" transform="translate(-459.55 -656.686)" fill="#ffea57"/>
        </g>
        <g id="Group_2978" data-name="Group 2978" transform="translate(1.555 11.552)" opacity="0.6">
          <path id="Path_2928" data-name="Path 2928" d="M459.769,656.729c5.519,6.077,11.476-.326,16.613.971,3.916.988,5.022,4.914,5.333,6.937l-.411.387c-.474-2.12-1.75-5.228-5.173-6.092-4.306-1.087-9.188,3.234-13.9,1.084a11.686,11.686,0,0,1-2.658-3.141A.125.125,0,0,1,459.769,656.729Z" transform="translate(-459.55 -656.686)" fill="#fff"/>
        </g>
        <g id="Group_2979" data-name="Group 2979" transform="translate(1.014 11.01)">
          <path id="Path_2929" data-name="Path 2929" d="M458.8,656.843a.668.668,0,0,1,1.077-.774h0c3.212,3.538,6.5,2.571,9.974,1.547,2.11-.621,4.293-1.263,6.371-.738,4.166,1.051,5.382,5.075,5.736,7.38a.542.542,0,0,1-.164.477l-2.106,1.984a.542.542,0,0,1-.872-.185c-1.283-3.055-3.624-3.1-6.863-3.164-3.013-.059-6.429-.125-9.781-2.754l-.107-.085A12.785,12.785,0,0,1,458.8,656.843Zm.274-.045Zm20.41,8.622,1.355-1.276c-.365-2.069-1.481-5.355-4.883-6.214-1.791-.452-3.738.121-5.8.727-2.6.766-5.467,1.609-8.282.285q.451.417.966.821c3.067,2.4,6.29,2.467,9.133,2.523,2.269.044,4.45.087,6.086,1.39A5.574,5.574,0,0,1,479.483,665.42Z" transform="translate(-458.713 -655.85)" fill="#261436"/>
        </g>
        <g id="Group_2980" data-name="Group 2980" transform="translate(0.457 5.688)">
          <path id="Path_2930" data-name="Path 2930" d="M458.239,647.848a7.81,7.81,0,0,0,.327,4.941.123.123,0,0,0,.019.032c5.693,7.332,11.91.378,17.245,1.725,3.916.988,5.022,4.914,5.333,6.937l2.023-1.905c-.558-1.85-2.643-7.246-8.309-8.853-4.956-1.406-15.023,1.814-16.4-2.883A.125.125,0,0,0,458.239,647.848Z" transform="translate(-457.9 -647.669)" fill="#ca5e9c"/>
          <path id="Path_2931" data-name="Path 2931" d="M458.471,652.827a.224.224,0,0,1-.031-.052,7.893,7.893,0,0,1-.331-4.994h0a.209.209,0,0,1,.2-.159.206.206,0,0,1,.205.15c.849,2.9,5.215,2.71,9.437,2.525a24.155,24.155,0,0,1,6.9.3c5.762,1.633,7.861,7.233,8.367,8.91a.084.084,0,0,1-.023.087l-2.022,1.905a.087.087,0,0,1-.087.019.089.089,0,0,1-.057-.068c-.33-2.152-1.454-5.9-5.269-6.867-1.912-.483-3.917.107-6.04.732-3.12.918-6.329,1.862-9.44-.616A10.939,10.939,0,0,1,458.471,652.827Zm22.7,8.436,1.866-1.758c-.526-1.716-2.613-7.151-8.235-8.745a24.063,24.063,0,0,0-6.847-.294c-4.288.188-8.722.382-9.608-2.648a.034.034,0,0,0-.037-.026.037.037,0,0,0-.038.028h0a7.723,7.723,0,0,0,.33,4.9c3.592,4.627,7.393,3.509,11.068,2.428,2.146-.631,4.173-1.228,6.13-.734a6.325,6.325,0,0,1,2.428,1.189A9.117,9.117,0,0,1,481.174,661.263ZM458.191,647.8h0Z" transform="translate(-457.853 -647.622)" fill="#0f2653"/>
        </g>
        <g id="Group_2981" data-name="Group 2981" transform="translate(0.457 5.688)">
          <path id="Path_2932" data-name="Path 2932" d="M458.239,647.848a7.81,7.81,0,0,0,.327,4.941.123.123,0,0,0,.019.032c5.693,7.332,11.91.378,17.245,1.725,3.916.988,5.022,4.914,5.333,6.937l2.023-1.905c-.558-1.85-2.643-7.246-8.309-8.853-4.956-1.406-15.023,1.814-16.4-2.883A.125.125,0,0,0,458.239,647.848Z" transform="translate(-457.9 -647.669)" fill="#ca5e9c"/>
          <path id="Path_2933" data-name="Path 2933" d="M458.471,652.827a.224.224,0,0,1-.031-.052,7.893,7.893,0,0,1-.331-4.994h0a.209.209,0,0,1,.2-.159.206.206,0,0,1,.205.15c.849,2.9,5.215,2.71,9.437,2.525a24.155,24.155,0,0,1,6.9.3c5.762,1.633,7.861,7.233,8.367,8.91a.084.084,0,0,1-.023.087l-2.022,1.905a.087.087,0,0,1-.087.019.089.089,0,0,1-.057-.068c-.33-2.152-1.454-5.9-5.269-6.867-1.912-.483-3.917.107-6.04.732-3.12.918-6.329,1.862-9.44-.616A10.939,10.939,0,0,1,458.471,652.827Zm22.7,8.436,1.866-1.758c-.526-1.716-2.613-7.151-8.235-8.745a24.063,24.063,0,0,0-6.847-.294c-4.288.188-8.722.382-9.608-2.648a.034.034,0,0,0-.037-.026.037.037,0,0,0-.038.028h0a7.723,7.723,0,0,0,.33,4.9c3.592,4.627,7.393,3.509,11.068,2.428,2.146-.631,4.173-1.228,6.13-.734a6.325,6.325,0,0,1,2.428,1.189A9.117,9.117,0,0,1,481.174,661.263ZM458.191,647.8h0Z" transform="translate(-457.853 -647.622)" fill="#0f2653"/>
        </g>
        <g id="Group_2982" data-name="Group 2982" transform="translate(0.549 5.774)" opacity="0.6">
          <path id="Path_2934" data-name="Path 2934" d="M458.483,647.842c1.373,4.7,11.44,1.478,16.4,2.883,5.666,1.606,7.751,7,8.309,8.853l-.864.814c-.64-2.007-2.769-7.1-8.249-8.658-4.676-1.326-13.9,1.463-16.08-2.161a8.409,8.409,0,0,1,.248-1.725A.125.125,0,0,1,458.483,647.842Z" transform="translate(-457.995 -647.754)" fill="#fff"/>
        </g>
        <g id="Group_2983" data-name="Group 2983" transform="translate(0 5.231)">
          <path id="Path_2935" data-name="Path 2935" d="M457.861,652.859a.667.667,0,0,1-.093-.16,8.337,8.337,0,0,1-.351-5.277h0a.667.667,0,0,1,1.287-.028c.748,2.558,4.932,2.374,8.978,2.2a24.432,24.432,0,0,1,7.045.317c5.986,1.7,8.158,7.484,8.681,9.217a.543.543,0,0,1-.147.552l-2.023,1.905a.542.542,0,0,1-.908-.312c-.313-2.04-1.37-5.6-4.929-6.493-1.791-.452-3.738.121-5.8.727-3.1.913-6.554,1.928-9.862-.706A11.358,11.358,0,0,1,457.861,652.859Zm23.352,7.256,1.056-.994c-.628-1.895-2.7-6.714-7.837-8.169a23.83,23.83,0,0,0-6.7-.277c-3.454.152-7,.307-8.884-1.194a3.466,3.466,0,0,1-.582-.587,7.121,7.121,0,0,0,.488,3.342c3.391,4.33,6.866,3.308,10.544,2.226,2.11-.621,4.293-1.263,6.371-.738A6.81,6.81,0,0,1,478.273,655,9.062,9.062,0,0,1,481.213,660.115Zm-22.495-7.921h0Zm-.776-4.643h0Z" transform="translate(-457.146 -646.916)" fill="#261436"/>
        </g>
        <g id="Group_2984" data-name="Group 2984" transform="translate(0.849 0.457)">
          <path id="Path_2936" data-name="Path 2936" d="M458.6,644.477a.135.135,0,0,0,0,.06c.859,5.347,11.39,1.885,16.5,3.333,5.666,1.606,7.751,7,8.309,8.853l.1-.091c-.356-2.967-1.761-9-7.292-10.711-7.289-2.255-12.437,1.776-14.374-6.061a.25.25,0,0,0-.426-.112A12.925,12.925,0,0,0,458.6,644.477Z" transform="translate(-458.506 -639.582)" fill="#44baeb"/>
          <path id="Path_2937" data-name="Path 2937" d="M458.462,644.5a.222.222,0,0,1,.007-.1h0a13.088,13.088,0,0,1,2.826-4.762.329.329,0,0,1,.329-.1.338.338,0,0,1,.243.246c1.254,5.074,3.9,5.11,7.567,5.161a22.666,22.666,0,0,1,6.748.838c5.472,1.691,6.955,7.482,7.351,10.783a.085.085,0,0,1-.027.073l-.1.091a.086.086,0,0,1-.14-.038c-.5-1.656-2.573-7.185-8.25-8.795a24.074,24.074,0,0,0-6.847-.294c-3.364.148-6.814.3-8.575-1.1A3.081,3.081,0,0,1,458.462,644.5Zm24.867,11.813c-.441-3.3-1.967-8.745-7.2-10.363a22.547,22.547,0,0,0-6.7-.83c-3.742-.052-6.446-.089-7.731-5.292a.163.163,0,0,0-.12-.121.16.16,0,0,0-.16.047,12.9,12.9,0,0,0-2.788,4.7.04.04,0,0,0,0,.021c.539,3.357,5.112,3.157,9.534,2.964a24.161,24.161,0,0,1,6.9.3,10.818,10.818,0,0,1,3.817,1.963A14.472,14.472,0,0,1,483.328,656.317Zm-24.779-11.888h0Z" transform="translate(-458.459 -639.535)" fill="#0f2653"/>
        </g>
        <g id="Group_2985" data-name="Group 2985" transform="translate(0.901 0.381)" opacity="0.6">
          <path id="Path_2938" data-name="Path 2938" d="M461.779,639.61c1.937,7.836,7.085,3.806,14.374,6.06,5.53,1.71,6.935,7.744,7.291,10.711l-.1.091a15.54,15.54,0,0,0-.805-2.084c-.855-2.953-2.7-6.418-6.674-7.648-7.289-2.254-12.437,1.777-14.374-6.06a.25.25,0,0,0-.426-.113,13.362,13.362,0,0,0-2.5,3.868c-.01-.049-.021-.1-.029-.148a.135.135,0,0,1,0-.06,12.927,12.927,0,0,1,2.807-4.729A.25.25,0,0,1,461.779,639.61Z" transform="translate(-458.54 -639.418)" fill="#fff"/>
        </g>
        <g id="Group_2986" data-name="Group 2986" transform="translate(0.392)">
          <path id="Path_2939" data-name="Path 2939" d="M457.761,644.327a.675.675,0,0,1,.021-.307h0a13.566,13.566,0,0,1,2.928-4.939.793.793,0,0,1,1.35.351c1.17,4.732,3.413,4.763,7.131,4.814a23.053,23.053,0,0,1,6.877.858c5.933,1.833,7.339,8.418,7.669,11.165a.542.542,0,0,1-.166.46l-.1.091a.542.542,0,0,1-.891-.238c-.483-1.6-2.483-6.941-7.938-8.487a23.823,23.823,0,0,0-6.7-.277c-3.463.151-7.013.307-8.891-1.189A3.526,3.526,0,0,1,457.761,644.327Zm23.84,7.708a9.309,9.309,0,0,0-5.854-5.893,22.159,22.159,0,0,0-6.572-.81c-3.673-.051-6.6-.091-8.028-5.108a12.253,12.253,0,0,0-2.3,4.023c.547,2.859,4.677,2.679,9.047,2.487a24.431,24.431,0,0,1,7.045.317,11.274,11.274,0,0,1,3.976,2.043A13.151,13.151,0,0,1,481.6,652.035Zm-23.3-7.856h0Zm.52.16" transform="translate(-457.753 -638.829)" fill="#261436"/>
        </g>
        <g id="Group_2987" data-name="Group 2987" transform="translate(0.644 0.382)">
          <path id="Path_2940" data-name="Path 2940" d="M461.372,639.42c.769,4.721,4.436,5,4.436,5-6.63,7.093,1.355,9.826,6.731,10.826h0l2.866.43a5.783,5.783,0,0,1,4.769,4.053l-1.184.525s-1.364-4.262-10.172-3.722h0l-.484.047c-5.48-.521-7.782-3.418-7.782-3.418C454.686,645.839,461.372,639.42,461.372,639.42Z" transform="translate(-458.142 -639.42)" fill="#261436" opacity="0.4"/>
        </g>
      </g>
      <g id="Group_2997" data-name="Group 2997" transform="translate(22.091 38.153)">
        <g id="Group_2989" data-name="Group 2989" transform="translate(0.425 0.416)">
          <path id="Path_2941" data-name="Path 2941" d="M493.946,655.788s-3.4-4.944-1.046-8.153c3.3-4.5,14.224-10.531,17.287-9.115,2.871,1.327,3.683,5.674,3.683,5.674" transform="translate(-491.995 -638.229)" fill="#fff"/>
          <path id="Path_2942" data-name="Path 2942" d="M493.853,655.808a.083.083,0,0,0,.12-.111c-.034-.049-3.339-4.934-1.047-8.058,1.527-2.082,4.943-4.731,8.7-6.75,3.863-2.074,7.113-2.97,8.481-2.338,2.8,1.294,3.628,5.571,3.636,5.614a.083.083,0,1,0,.162-.03c-.008-.044-.853-4.4-3.729-5.733-1.435-.664-4.661.212-8.629,2.342-3.78,2.03-7.219,4.7-8.759,6.8-2.36,3.219,1.01,8.2,1.045,8.248A.084.084,0,0,0,493.853,655.808Z" transform="translate(-491.954 -638.185)" fill="#261436"/>
        </g>
        <g id="Group_2990" data-name="Group 2990" transform="translate(12.836 0.633)">
          <path id="Path_2943" data-name="Path 2943" d="M515.956,638.519s3.416,5.273,1.235,8.794c-1,1.608-6.051.618-6.051.618s4.868-1.24,5.491-3.844C517.046,642.35,515.956,638.519,515.956,638.519Z" transform="translate(-511.14 -638.519)" fill="#261436"/>
        </g>
        <g id="Group_2991" data-name="Group 2991" transform="translate(0.5 2.814)" opacity="0.4">
          <path id="Path_2944" data-name="Path 2944" d="M492.9,648.9c-2.353,3.208,1.046,8.152,1.046,8.152l3.127-1.82c-.9-1.376-2.816-4.846-1.133-7.473a24.779,24.779,0,0,1,6.134-5.869C498.406,643.8,494.618,646.556,492.9,648.9Z" transform="translate(-492.07 -641.891)" fill="#261436"/>
        </g>
        <g id="Group_2992" data-name="Group 2992">
          <path id="Path_2945" data-name="Path 2945" d="M493.364,655.9a.5.5,0,0,0,.717-.669c-.042-.062-3.167-4.7-1.054-7.579,1.493-2.036,4.855-4.639,8.566-6.631,3.694-1.983,6.879-2.9,8.112-2.326,2.609,1.206,3.4,5.274,3.4,5.315a.5.5,0,1,0,.975-.182c-.035-.188-.895-4.614-3.961-6.033-2.239-1.035-7.038,1.3-9,2.353-3.89,2.088-7.3,4.739-8.9,6.918-2.532,3.452.89,8.513,1.037,8.727A.511.511,0,0,0,493.364,655.9Z" transform="translate(-491.297 -637.541)" fill="#261436"/>
        </g>
        <g id="Group_2993" data-name="Group 2993" transform="translate(17.589 0.053)">
          <path id="Path_2946" data-name="Path 2946" d="M520.126,645.528a.5.5,0,0,0,.791-.274c.781-3.306-1.41-7.215-1.5-7.38a.5.5,0,0,0-.862.49c.021.037,2.093,3.738,1.4,6.662A.5.5,0,0,0,520.126,645.528Z" transform="translate(-518.486 -637.624)" fill="#261436"/>
        </g>
        <g id="Group_2994" data-name="Group 2994" transform="translate(2.428 6.22)">
          <path id="Path_2947" data-name="Path 2947" d="M501.792,651.236a21.558,21.558,0,0,1-1.28-3.952,44.987,44.987,0,0,0-4.689,3.163c-1.139,1.105-.583,3.256.267,3.58C497.272,654.479,501.792,651.236,501.792,651.236Z" transform="translate(-495.096 -647.201)" fill="#fff"/>
          <path id="Path_2948" data-name="Path 2948" d="M495.115,652.679a2.513,2.513,0,0,1,.6-2.337,44.165,44.165,0,0,1,4.7-3.174.083.083,0,0,1,.124.055,21.565,21.565,0,0,0,1.274,3.934.084.084,0,0,1-.027.1c-.186.133-4.571,3.263-5.779,2.8a.892.892,0,0,1-.239-.139A2.162,2.162,0,0,1,495.115,652.679Zm5.293-5.309a42.283,42.283,0,0,0-4.573,3.091,2.35,2.35,0,0,0-.558,2.185,1.679,1.679,0,0,0,.8,1.259c1.058.4,5.055-2.379,5.57-2.743A21.87,21.87,0,0,1,500.409,647.37Z" transform="translate(-495.051 -647.156)" fill="#261436"/>
        </g>
        <g id="Group_2995" data-name="Group 2995" transform="translate(2.512 6.302)">
          <path id="Path_2949" data-name="Path 2949" d="M495.823,650.446c-1.139,1.106-.584,3.255.267,3.581a3.047,3.047,0,0,0,1.888-.468,2.526,2.526,0,0,1-.151-3.522,23.818,23.818,0,0,1,2.851-2.023c-.062-.242-.118-.487-.167-.732A44.977,44.977,0,0,0,495.823,650.446Z" transform="translate(-495.18 -647.283)" fill="#261436"/>
        </g>
        <g id="Group_2996" data-name="Group 2996" transform="translate(2.016 5.807)">
          <path id="Path_2950" data-name="Path 2950" d="M494.486,652.537a2.921,2.921,0,0,1,.722-2.716,44.114,44.114,0,0,1,4.779-3.233.5.5,0,0,1,.741.329,21.088,21.088,0,0,0,1.246,3.846.5.5,0,0,1-.164.6c-1.111.8-4.841,3.359-6.167,2.851a1.3,1.3,0,0,1-.347-.2A2.547,2.547,0,0,1,494.486,652.537Zm5.423-4.742a35.636,35.636,0,0,0-4.012,2.736,2.011,2.011,0,0,0-.441,1.805,1.365,1.365,0,0,0,.54.957c.472.181,2.718-.97,4.912-2.5A22.693,22.693,0,0,1,499.909,647.8Z" transform="translate(-494.413 -646.518)" fill="#261436"/>
        </g>
      </g>
      <g id="Group_2998" data-name="Group 2998" transform="translate(51.499 64.074)">
        <path id="Path_2951" data-name="Path 2951" d="M549.106,677.74a45.837,45.837,0,0,0,10.505,3.427,4.264,4.264,0,0,1,1.355,7.786l-.145.089c-3.683,2.24-12.272-.084-17.633-4.494s-6.3-3.135-6.3-3.135" transform="translate(-536.802 -677.658)" fill="#fff"/>
        <path id="Path_2952" data-name="Path 2952" d="M536.788,681.433l0,0a.082.082,0,0,0,.115-.017h0a.541.541,0,0,1,.354-.131c.613-.061,2.186.285,5.832,3.281.081.067.165.135.248.2,5.5,4.38,13.911,6.47,17.479,4.3l.146-.09a4.346,4.346,0,0,0-1.382-7.937,46.207,46.207,0,0,1-10.485-3.419.082.082,0,1,0-.076.146,46.352,46.352,0,0,0,10.525,3.434,4.182,4.182,0,0,1,1.329,7.636l-.144.089c-3.571,2.172-12.095-.007-17.538-4.487-3.726-3.064-5.347-3.393-5.981-3.315a.635.635,0,0,0-.442.194A.083.083,0,0,0,536.788,681.433Z" transform="translate(-536.757 -677.612)" fill="#261436"/>
      </g>
      <g id="Group_2999" data-name="Group 2999" transform="translate(52.149 66.034)" opacity="0.4">
        <path id="Path_2953" data-name="Path 2953" d="M543.169,680.643l-5.406,1.625c.743.008,2.367.534,5.737,3.3,5.361,4.41,13.949,6.734,17.633,4.495l.144-.09a4.266,4.266,0,0,0,1.428-1.449c-4.225.8-11.122-1.446-15.685-5.2A23.26,23.26,0,0,0,543.169,680.643Z" transform="translate(-537.762 -680.643)" fill="#261436"/>
      </g>
      <g id="Group_3000" data-name="Group 3000" transform="translate(51.499 67.577)" opacity="0.3">
        <path id="Path_2954" data-name="Path 2954" d="M536.885,683.324l.567-.169C537.034,683.151,536.9,683.31,536.885,683.324Z" transform="translate(-536.803 -683.073)" fill="#550f3d"/>
        <path id="Path_2955" data-name="Path 2955" d="M536.789,683.344a.082.082,0,0,0,.075.015l.567-.169a.084.084,0,0,0,.058-.091.082.082,0,0,0-.081-.07.771.771,0,0,0-.633.2.083.083,0,0,0,0,.1A.08.08,0,0,0,536.789,683.344Z" transform="translate(-536.758 -683.028)" fill="#261436"/>
      </g>
      <g id="Group_3001" data-name="Group 3001" transform="translate(55.02 65.334)" opacity="0.3">
        <path id="Path_2956" data-name="Path 2956" d="M542.328,679.858l.567-.17C542.477,679.683,542.34,679.843,542.328,679.858Z" transform="translate(-542.246 -679.606)" fill="#550f3d"/>
        <path id="Path_2957" data-name="Path 2957" d="M542.232,679.877a.082.082,0,0,0,.075.015l.567-.17a.083.083,0,0,0,.058-.091.082.082,0,0,0-.081-.071.767.767,0,0,0-.633.2.082.082,0,0,0,0,.1A.075.075,0,0,0,542.232,679.877Z" transform="translate(-542.201 -679.561)" fill="#261436"/>
      </g>
      <g id="Group_3002" data-name="Group 3002" transform="translate(51.085 63.661)">
        <path id="Path_2958" data-name="Path 2958" d="M536.216,680.847a1.027,1.027,0,0,1,.723-.358c1.243-.153,3.36.994,6.294,3.406,5.323,4.381,13.618,6.547,17.06,4.453l.139-.086a3.768,3.768,0,0,0-1.2-6.881,45.9,45.9,0,0,1-10.629-3.472.5.5,0,0,1,.457-.88,45.909,45.909,0,0,0,10.381,3.382,4.76,4.76,0,0,1,1.513,8.691l-.15.093c-1.88,1.143-4.923,1.25-8.569.3a26.008,26.008,0,0,1-9.636-4.837c-4.319-3.555-5.524-3.213-5.641-3.165a.5.5,0,0,1-.642.045l-.014-.011A.5.5,0,0,1,536.216,680.847Zm.8.591Zm0,0h0Z" transform="translate(-536.118 -676.974)" fill="#261436"/>
      </g>
      <g id="Group_3003" data-name="Group 3003" transform="translate(6.722 41.408)">
        <path id="Path_2959" data-name="Path 2959" d="M468.793,664.022a5.18,5.18,0,0,0,3.193,8.335c4.678.745,9.7-.842,11-1.3.164-.057.269-.1.309-.111a.035.035,0,0,1,.012-.005h0l4.59,8.226a60.406,60.406,0,0,1-5.578,3.7,5.026,5.026,0,0,0,3.786,9.191q1.19-.3,2.345-.62c21.638-6.046,34.022-19.058,35.348-20.662a34.109,34.109,0,0,0,2.428-3.329l-10.093-8.508-1.012-2.45L503.034,642.7c-2.032,1.967-3.9,3.691-5.63,5.214a91.771,91.771,0,0,1-9.694,7.559c-3.7,2.47-13.042,5.8-16.4,6.829A5.162,5.162,0,0,0,468.793,664.022Z" transform="translate(-467.583 -642.619)" fill="#fff"/>
        <path id="Path_2960" data-name="Path 2960" d="M480.355,689.528a5.109,5.109,0,0,1,1.884-6.779,59.045,59.045,0,0,0,5.514-3.649l-4.52-8.1c-.055.021-.143.052-.261.093-1.41.494-6.372,2.048-11.043,1.3a5.26,5.26,0,0,1-.683-10.214c3.053-.94,12.606-4.3,16.374-6.819a92.433,92.433,0,0,0,9.686-7.553c1.771-1.558,3.663-3.311,5.627-5.211a.08.08,0,0,1,.061-.023.082.082,0,0,1,.059.028l12.095,13.787a.077.077,0,0,1,.014.023l1,2.431,10.078,8.495a.084.084,0,0,1,.017.107,34.468,34.468,0,0,1-2.434,3.338c-.116.141-12.267,14.228-35.39,20.689-.761.214-1.551.422-2.348.62a5.109,5.109,0,0,1-5.733-2.563Zm35.687-30.573a.087.087,0,0,1-.023-.032l-1.006-2.437-12.029-13.711c-1.943,1.879-3.817,3.614-5.57,5.157a92.866,92.866,0,0,1-9.7,7.567c-3.784,2.527-13.357,5.9-16.417,6.839a5.065,5.065,0,0,0-2.481,1.69,5.1,5.1,0,0,0,3.141,8.2c4.632.738,9.562-.805,10.963-1.3.144-.05.242-.086.29-.1l.013-.005.013,0a.085.085,0,0,1,.028-.008.082.082,0,0,1,.081.042l4.59,8.226a.082.082,0,0,1-.021.105,58.47,58.47,0,0,1-5.586,3.7,4.944,4.944,0,0,0,3.724,9.04c.794-.2,1.583-.406,2.342-.619,23.074-6.447,35.191-20.5,35.307-20.635a34.869,34.869,0,0,0,2.383-3.26ZM483.3,670.971h0Z" transform="translate(-467.539 -642.574)" fill="#261436"/>
      </g>
      <g id="Group_3004" data-name="Group 3004" transform="translate(19.258 80.295)">
        <path id="Path_2961" data-name="Path 2961" d="M491.3,702.688s-.444,6.462,5.383,9.142l-2.284,1.077-1.809.428-2.221-.2-1.619-1.29-1.263-1.131-.472-1.283-.1-1.524.259-2.029,1.461-1.466Z" transform="translate(-486.917 -702.688)" fill="#eeb4d3"/>
      </g>
      <g id="Group_3005" data-name="Group 3005" transform="translate(7.304 60.439)">
        <path id="Path_2962" data-name="Path 2962" d="M473.361,671.993s-.888,6.68,4.818,10.381l-2.261.252-1.809.428-2.221-.2-1.62-1.29-1.263-1.13-.472-1.284-.1-1.523.259-2.029,1.084-2.023Z" transform="translate(-468.438 -671.993)" fill="#eeb4d3"/>
      </g>
      <g id="Group_3006" data-name="Group 3006" transform="translate(19.023 69.183)" opacity="0.4">
        <path id="Path_2963" data-name="Path 2963" d="M489.774,685.671c.164-.057.154.408.193.393a.034.034,0,0,1,.012-.005h0l4.59,8.226a60.4,60.4,0,0,1-5.578,3.7,5.026,5.026,0,0,0,3.786,9.191q1.19-.295,2.345-.62c-3.89-.539-5.877-1.673-6.246-3.592-.459-2.4,2.395-5,4.416-5.116a12.493,12.493,0,0,1,3.483.392,5.289,5.289,0,0,0,1.517-3.8c-.334-4.439-4.383-7.469-6.18-8.429C491.015,685.422,490.017,685.416,489.774,685.671Z" transform="translate(-486.553 -685.51)" fill="#261436"/>
      </g>
      <g id="Group_3007" data-name="Group 3007" transform="translate(6.805 46.705)" opacity="0.4">
        <path id="Path_2964" data-name="Path 2964" d="M468.793,666.869a5.18,5.18,0,0,0,3.193,8.335c5.264.839,10.961-1.278,11.311-1.41-6.1,2.118-12.355,1.057-12.9-2.425s1.045-3.841,5.288-5.288a57.161,57.161,0,0,0,16.516-8.333c4.079-3.11,5.025-5.638,5.2-6.986a91.754,91.754,0,0,1-9.694,7.559c-3.7,2.47-13.042,5.8-16.4,6.829A5.162,5.162,0,0,0,468.793,666.869Z" transform="translate(-467.666 -650.762)" fill="#261436"/>
      </g>
      <g id="Group_3008" data-name="Group 3008" transform="translate(18.527 65.74)">
        <path id="Path_2965" data-name="Path 2965" d="M487.872,704.736a5.5,5.5,0,0,0,4.759,1.038c24.744-6.134,37.83-21.3,37.955-21.447a34.31,34.31,0,0,0,2.467-3.382.5.5,0,0,0-.842-.523,34.051,34.051,0,0,1-2.39,3.274,58.141,58.141,0,0,1-10.6,9.025,81.563,81.563,0,0,1-26.826,12.092,4.531,4.531,0,0,1-3.412-8.285,58.825,58.825,0,0,0,5.628-3.733.5.5,0,1,0-.61-.781,57.922,57.922,0,0,1-5.528,3.664,5.527,5.527,0,0,0-.6,9.06Z" transform="translate(-485.787 -680.187)" fill="#261436"/>
      </g>
      <g id="Group_3009" data-name="Group 3009" transform="translate(6.312 41.347)">
        <path id="Path_2966" data-name="Path 2966" d="M489.985,682.961a28.958,28.958,0,0,0-1.425-3.2c-.532-1.034-1.079-2.06-1.653-3.071s-1.149-2.02-1.721-3.033-1.144-2.024-1.708-3.04a.5.5,0,0,0-.6-.224l-.008,0c-.585.217-1.214.413-1.834.585-.31.091-.625.165-.939.247s-.629.149-.946.212a25.03,25.03,0,0,1-3.833.5l-.481.023c-.16.006-.321,0-.481,0h-.481c-.16,0-.32-.017-.479-.024-.319-.019-.639-.031-.953-.079a9.2,9.2,0,0,1-.923-.138,4.57,4.57,0,0,1-2.853-1.984,4.726,4.726,0,0,1-.694-3.414,4.661,4.661,0,0,1,1.855-2.948c.121-.085.246-.166.373-.244s.257-.151.4-.206a3.652,3.652,0,0,1,.413-.168l.213-.074.237-.075c.635-.2,1.261-.407,1.886-.62q1.877-.639,3.731-1.333c2.472-.93,4.928-1.907,7.328-3.047a26.958,26.958,0,0,0,3.515-1.944q1.648-1.11,3.236-2.3c2.12-1.587,4.157-3.274,6.145-5.015,1.962-1.763,4.081-3.375,5.583-5.614a.168.168,0,0,0-.046-.234.17.17,0,0,0-.184,0c-2.282,1.419-4.014,3.4-6.008,5.106-1.972,1.727-3.991,3.4-6.085,4.967q-1.57,1.177-3.195,2.274a25.945,25.945,0,0,1-3.388,1.872c-2.355,1.118-4.795,2.09-7.248,3.012q-1.843.686-3.7,1.323c-.62.21-1.242.418-1.864.612l-.233.074-.253.088a4.536,4.536,0,0,0-.5.2c-.168.068-.32.166-.479.25s-.306.192-.452.3a5.652,5.652,0,0,0-2.249,3.573,5.722,5.722,0,0,0,.84,4.135A5.557,5.557,0,0,0,471.3,672.7a9.662,9.662,0,0,0,1.027.156c.337.05.675.063,1.013.084.169.008.338.025.507.025h.507c.168,0,.338,0,.506,0l.5-.024a26.037,26.037,0,0,0,3.987-.523c.328-.065.653-.146.979-.22s.65-.161.97-.255c.647-.181,1.277-.375,1.925-.615l-.612-.221q.853,1.521,1.69,3.05c.561,1.018,1.107,2.044,1.677,3.058s1.144,2.023,1.745,3.018a28.911,28.911,0,0,0,1.972,2.892.167.167,0,0,0,.289-.161Z" transform="translate(-466.903 -642.479)" fill="#261436"/>
      </g>
      <g id="Group_3010" data-name="Group 3010" transform="translate(63.67 60.376)">
        <path id="Path_2967" data-name="Path 2967" d="M555.759,675.787a.506.506,0,0,0,.116.069.5.5,0,0,0,.649-.265l1.265-3.007a.5.5,0,1,0-.913-.384l-1.266,3.007A.5.5,0,0,0,555.759,675.787Z" transform="translate(-555.572 -671.896)" fill="#261436"/>
      </g>
      <g id="Group_3011" data-name="Group 3011" transform="translate(56.961 55.092)">
        <path id="Path_2968" data-name="Path 2968" d="M545.2,663.728" transform="translate(-545.201 -663.728)" fill="none" stroke="#221e59" stroke-linecap="round" stroke-linejoin="round" stroke-width="30.026"/>
      </g>
      <g id="Group_3012" data-name="Group 3012" transform="translate(46.558 53.372)">
        <path id="Path_2969" data-name="Path 2969" d="M529.12,661.069" transform="translate(-529.12 -661.069)" fill="#f89119" stroke="#221e59" stroke-linecap="round" stroke-linejoin="round" stroke-width="5"/>
      </g>
      <g id="Group_3013" data-name="Group 3013" transform="translate(42.021 38.114)">
        <path id="Path_2970" data-name="Path 2970" d="M522.3,640.9c-.63,3,3.031,9.425,9.051,15.507s12.416,9.813,15.418,9.21l3.249-3.216a.265.265,0,0,0-.192-.453c-3.224-.02-9.123-3.634-14.7-9.272s-9.133-11.571-9.122-14.8a.265.265,0,0,0-.451-.2Z" transform="translate(-522.151 -637.527)" fill="#fff"/>
        <path id="Path_2971" data-name="Path 2971" d="M531.251,656.424c-5.9-5.963-9.719-12.517-9.074-15.583a.082.082,0,0,1,.023-.041l3.249-3.216a.34.34,0,0,1,.376-.074.351.351,0,0,1,.216.329c-.012,3.306,3.645,9.228,9.1,14.737s11.341,9.228,14.646,9.248a.349.349,0,0,1,.327.219.34.34,0,0,1-.078.375l-3.249,3.215a.08.08,0,0,1-.042.023c-2.285.459-6.476-1.573-10.9-5.1A52.683,52.683,0,0,1,531.251,656.424Zm18.667,5.877a.174.174,0,0,0,.041-.2.186.186,0,0,0-.175-.116c-3.346-.021-9.279-3.757-14.762-9.3s-9.157-11.507-9.146-14.854a.187.187,0,0,0-.115-.176.174.174,0,0,0-.2.039l-3.232,3.2c-.609,3.027,3.184,9.5,9.034,15.409s12.287,9.772,15.319,9.191Z" transform="translate(-522.106 -637.482)" fill="#261436"/>
      </g>
      <g id="Group_3014" data-name="Group 3014" transform="translate(42.103 38.197)">
        <path id="Path_2972" data-name="Path 2972" d="M522.3,640.9c-.63,3,3.031,9.425,9.051,15.507s12.416,9.813,15.418,9.21l3.249-3.216a.265.265,0,0,0-.192-.453c-3.224-.02-9.123-3.634-14.7-9.272s-9.133-11.571-9.122-14.8a.265.265,0,0,0-.451-.2Z" transform="translate(-522.232 -637.61)" fill="#443886"/>
      </g>
      <g id="Group_3015" data-name="Group 3015" transform="translate(44.084 38.546)" opacity="0.4">
        <path id="Path_2973" data-name="Path 2973" d="M526.3,638.2l-1.01,1c.139-.138.406,0,.428.22.292,2.923,4.066,8.64,9.645,14.277s11.26,9.47,14.18,9.792c.217.024.354.292.216.428l1.009-1c.138-.136,0-.406-.215-.428-2.921-.322-8.6-4.155-14.18-9.793s-9.353-11.353-9.646-14.276C526.709,638.206,526.443,638.066,526.3,638.2Z" transform="translate(-525.295 -638.148)" fill="#fff"/>
      </g>
      <g id="Group_3016" data-name="Group 3016" transform="translate(42.282 39.772)">
        <path id="Path_2974" data-name="Path 2974" d="M524.136,640.045l-1.529,1.513c-.748,3.115,2.824,9.631,8.844,15.713s12.5,9.724,15.625,9l1.528-1.512c-3.121.721-9.6-2.919-15.625-9S523.387,643.161,524.136,640.045Z" transform="translate(-522.509 -640.045)" fill="#261436"/>
      </g>
      <g id="Group_3017" data-name="Group 3017" transform="translate(41.609 37.702)">
        <path id="Path_2975" data-name="Path 2975" d="M530.732,656.49c-6.09-6.152-9.866-12.714-9.184-15.958a.493.493,0,0,1,.136-.25l3.25-3.216a.76.76,0,0,1,1.3.54c-.019,3.151,3.673,9.1,8.978,14.454s11.214,9.115,14.365,9.126a.76.76,0,0,1,.527,1.3l-2.152,2.13a4.047,4.047,0,0,1-3.859,1.043,26.249,26.249,0,0,1-8.7-4.972A53.586,53.586,0,0,1,530.732,656.49Zm3.771-3.732c-5.285-5.339-8.909-11.1-9.241-14.623l-2.77,2.741c-.388,2.558,2.522,8.428,8.944,14.917,4.553,4.6,9.5,8.013,12.9,8.909a3.052,3.052,0,0,0,2.908-.788l1.784-1.765C545.519,661.782,539.789,658.1,534.5,652.757Z" transform="translate(-521.469 -636.844)" fill="#261436"/>
      </g>
      <g id="Group_3019" data-name="Group 3019" transform="translate(33.974 32.064)">
        <g id="Group_3018" data-name="Group 3018">
          <path id="Path_2976" data-name="Path 2976" d="M518.928,644.243a45,45,0,0,1,1.615-10.738,4.19,4.19,0,0,0-6.244-4.619l-.142.088c-3.59,2.25-5.33,10.819-3.817,17.471" transform="translate(-509.711 -628.175)" fill="#fff"/>
          <path id="Path_2977" data-name="Path 2977" d="M510.244,646.463a.081.081,0,0,0,.07.016.083.083,0,0,0,.062-.1c-1.537-6.754.3-15.2,3.779-17.382l.142-.087a4.108,4.108,0,0,1,6.121,4.528A45.579,45.579,0,0,0,518.8,644.2a.082.082,0,1,0,.165,0,45.431,45.431,0,0,1,1.613-10.716,4.273,4.273,0,0,0-6.367-4.711l-.144.089c-3.531,2.213-5.4,10.746-3.853,17.559A.082.082,0,0,0,510.244,646.463Z" transform="translate(-509.666 -628.129)" fill="#261436"/>
        </g>
      </g>
      <g id="Group_3020" data-name="Group 3020" transform="translate(35.26 31.883)">
        <path id="Path_2978" data-name="Path 2978" d="M520.754,635.219s-4.7,2.417-9.1-2.413l1.7-2.6,1.179-1.186,2.152-.631.775-.539,1.492.688,1.5,1.062.982,1.894-.239,1.867Z" transform="translate(-511.654 -627.849)" fill="#eeb4d3"/>
      </g>
      <g id="Group_3022" data-name="Group 3022" transform="translate(34.056 32.212)">
        <g id="Group_3021" data-name="Group 3021" opacity="0.3">
          <path id="Path_2979" data-name="Path 2979" d="M510.34,646.479h0a4.951,4.951,0,0,0,2.359-4.66c-.451-5.187.76-10.775,3.067-13.461a4.25,4.25,0,0,0-1.467.562l-.143.089C510.567,631.259,508.827,639.828,510.34,646.479Z" transform="translate(-509.793 -628.358)" fill="#261436"/>
        </g>
      </g>
      <g id="Group_3024" data-name="Group 3024" transform="translate(33.563 31.654)">
        <g id="Group_3023" data-name="Group 3023">
          <path id="Path_2980" data-name="Path 2980" d="M518.824,643.971a13.3,13.3,0,0,0,.483-2.427c.111-.81.191-1.623.294-2.435s.246-1.62.4-2.426.334-1.606.526-2.4l.147-.6.074-.3.073-.333a4.733,4.733,0,0,0,.06-1.38,4.594,4.594,0,0,0-1.089-2.512,4.791,4.791,0,0,0-2.293-1.481,4.591,4.591,0,0,0-2.739.054c-.108.041-.217.079-.324.122l-.314.145-.3.166c-.1.058-.183.108-.281.177a5.665,5.665,0,0,0-1.031.879,9.334,9.334,0,0,0-1.466,2.162,18.4,18.4,0,0,0-1.568,4.839,26.179,26.179,0,0,0-.442,5.032c0,.422.017.844.039,1.265s.037.844.07,1.265c.021.21.041.421.081.629.017.1.039.208.063.312s.044.207.074.309a4.917,4.917,0,0,0,.217.6,3.357,3.357,0,0,0,.334.572.182.182,0,0,0,.254.036.18.18,0,0,0,.067-.1v-.006a3.434,3.434,0,0,0,.079-.642,5.162,5.162,0,0,0,0-.617c-.023-.406-.062-.807-.116-1.208s-.111-.8-.132-1.207-.038-.811-.039-1.216a25.283,25.283,0,0,1,.426-4.84,17.412,17.412,0,0,1,1.478-4.574,8.367,8.367,0,0,1,1.307-1.934,4.731,4.731,0,0,1,.851-.728c.07-.051.165-.108.244-.153l.242-.134.25-.115.256-.1a3.591,3.591,0,0,1,2.147-.043,3.8,3.8,0,0,1,1.818,1.175,3.6,3.6,0,0,1,.856,1.97,3.74,3.74,0,0,1-.049,1.09l-.059.273-.075.3-.149.607c-.2.811-.371,1.626-.535,2.445s-.3,1.642-.44,2.466a20.577,20.577,0,0,0-.306,2.491,7.211,7.211,0,0,0,.212,2.527.172.172,0,0,0,.214.115.17.17,0,0,0,.114-.111Z" transform="translate(-509.031 -627.495)" fill="#261436"/>
        </g>
      </g>
      <g id="Group_3025" data-name="Group 3025" transform="translate(42.415 80.946)">
        <path id="Path_2981" data-name="Path 2981" d="M522.715,703.694" transform="translate(-522.715 -703.694)" fill="#f89119" stroke="#221e59" stroke-linecap="round" stroke-linejoin="round" stroke-width="5"/>
      </g>
      <g id="Group_3026" data-name="Group 3026" transform="translate(36.332 78.851)">
        <path id="Path_2982" data-name="Path 2982" d="M513.311,700.456" transform="translate(-513.311 -700.456)" fill="none" stroke="#221e59" stroke-linecap="round" stroke-linejoin="round" stroke-width="30.026"/>
      </g>
      <g id="Group_3027" data-name="Group 3027" transform="translate(25.788 58.62)">
        <path id="Path_2983" data-name="Path 2983" d="M497.2,687.544a.5.5,0,0,0,.428.094c7.248-1.783,14.313-6.482,18.963-10.11a83.7,83.7,0,0,0,8.432-7.511.5.5,0,1,0-.721-.68c-.132.14-13.35,14-26.912,17.339a.5.5,0,0,0-.191.869Z" transform="translate(-497.012 -669.181)" fill="#261436"/>
      </g>
      <g id="Group_3028" data-name="Group 3028" transform="translate(74.008 31.855)">
        <path id="Path_2984" data-name="Path 2984" d="M581.207,628.508a5.259,5.259,0,0,1,1.737,6.836,5.317,5.317,0,0,1-2.668,2.448c-3.209,1.362-6.207-.947-8.723-4.1,0,0,7.646-3.029,8.373-5.883A7.256,7.256,0,0,1,581.207,628.508Z" transform="translate(-571.554 -627.806)" fill="#ffea57"/>
      </g>
      <g id="Group_3029" data-name="Group 3029" transform="translate(74.009 36.85)">
        <path id="Path_2985" data-name="Path 2985" d="M571.555,636.416c2.515,3.155,5.513,5.465,8.722,4.1a5.319,5.319,0,0,0,2.668-2.448,5.155,5.155,0,0,0,.568-1.763,5.277,5.277,0,0,1-2.386,1.978c-2.731,1.159-5.309-.341-7.568-2.758C572.4,636.08,571.555,636.416,571.555,636.416Z" transform="translate(-571.555 -635.527)" fill="#261436"/>
      </g>
      <g id="Group_3030" data-name="Group 3030" transform="translate(73.513 31.359)">
        <path id="Path_2986" data-name="Path 2986" d="M570.9,633.727a.5.5,0,0,1,.205-.77c2.061-.817,7.53-3.406,8.076-5.545a.5.5,0,0,1,.66-.34,7.672,7.672,0,0,1,1.377.753,5.794,5.794,0,0,1-1.014,10.152c-2.1.889-4.225.462-6.45-1.311A18.411,18.411,0,0,1,570.9,633.727Zm9.763-5.079h0a7.98,7.98,0,0,0-.732-.437c-1.206,2.408-6.02,4.638-7.836,5.411,2.8,3.331,5.333,4.458,7.722,3.444a4.831,4.831,0,0,0,2.424-2.226,4.748,4.748,0,0,0-1.26-5.958C580.875,628.8,580.769,628.722,580.659,628.648Z" transform="translate(-570.788 -627.04)" fill="#261436"/>
      </g>
      <g id="Group_3031" data-name="Group 3031" transform="translate(69.66 27.91)">
        <path id="Path_2987" data-name="Path 2987" d="M578.549,625.064a3.227,3.227,0,0,1-.079,3.029,8.436,8.436,0,0,1-5.679,4.373c-4.675.836-7.826-5.222-7.826-5.222s7.057-3.661,7.988-5.361A5.318,5.318,0,0,1,578.549,625.064Z" transform="translate(-564.879 -621.751)" fill="#ca5e9c"/>
        <path id="Path_2988" data-name="Path 2988" d="M564.842,627.239a.086.086,0,0,1-.005-.065.085.085,0,0,1,.042-.05c.07-.037,7.045-3.669,7.953-5.327a.087.087,0,0,1,.059-.043,5.444,5.444,0,0,1,5.689,3.228h0a3.31,3.31,0,0,1-.082,3.109,8.594,8.594,0,0,1-5.738,4.415,5.9,5.9,0,0,1-4.749-1.433A13.688,13.688,0,0,1,564.842,627.239Zm13.584-2.181a5.279,5.279,0,0,0-5.465-3.142c-.963,1.64-7.12,4.9-7.926,5.319.384.691,3.417,5.867,7.695,5.1a8.272,8.272,0,0,0,5.62-4.331,3.138,3.138,0,0,0,.077-2.949Z" transform="translate(-564.832 -621.706)" fill="#0f2653"/>
      </g>
      <g id="Group_3032" data-name="Group 3032" transform="translate(69.746 32.573)">
        <path id="Path_2989" data-name="Path 2989" d="M564.965,629.745s3.151,6.058,7.827,5.222a8.432,8.432,0,0,0,5.678-4.374,3.207,3.207,0,0,0,.418-1.51,8.177,8.177,0,0,1-5.339,3.81c-3.3.591-5.839-2.252-7.048-3.978C565.594,629.419,564.965,629.745,564.965,629.745Z" transform="translate(-564.965 -628.916)" fill="#261436"/>
      </g>
      <g id="Group_3033" data-name="Group 3033" transform="translate(69.25 27.502)">
        <path id="Path_2990" data-name="Path 2990" d="M564.254,627.206a.5.5,0,0,1,.212-.669c2.783-1.444,7.153-4.009,7.782-5.159a.5.5,0,0,1,.341-.249,5.864,5.864,0,0,1,6.134,3.449h0a3.717,3.717,0,0,1-.093,3.494,8.994,8.994,0,0,1-6.022,4.616,6.292,6.292,0,0,1-5.092-1.5A13.8,13.8,0,0,1,564.254,627.206Zm13.58-2.188a4.829,4.829,0,0,0-4.861-2.941c-1.184,1.611-5.986,4.245-7.593,5.1.8,1.316,3.492,5.172,7.052,4.535a7.877,7.877,0,0,0,5.336-4.13,2.727,2.727,0,0,0,.066-2.563Z" transform="translate(-564.198 -621.076)" fill="#261436"/>
      </g>
      <g id="Group_3034" data-name="Group 3034" transform="translate(66.694 25.496)">
        <path id="Path_2991" data-name="Path 2991" d="M571.4,619.386a2.109,2.109,0,0,1,.664,2.623,8.355,8.355,0,0,1-3.239,3.594,5.809,5.809,0,0,1-6.325-.024c-3.613-2.238-1.542-6.738-1.542-6.738a4.88,4.88,0,0,0,5.009-.182,3.663,3.663,0,0,1,2.765-.453A7.479,7.479,0,0,1,571.4,619.386Z" transform="translate(-560.288 -618.023)" fill="#44baeb"/>
        <path id="Path_2992" data-name="Path 2992" d="M560.836,618.758a.086.086,0,0,1,.054-.046.083.083,0,0,1,.07.01,4.828,4.828,0,0,0,4.919-.182,3.722,3.722,0,0,1,2.829-.463,7.493,7.493,0,0,1,2.7,1.193A2.195,2.195,0,0,1,572.1,622a8.455,8.455,0,0,1-3.273,3.631,5.87,5.87,0,0,1-6.413-.025,5.275,5.275,0,0,1-.5-.351C558.973,622.913,560.815,618.8,560.836,618.758Zm10.47.65h0a7.331,7.331,0,0,0-2.637-1.166,3.554,3.554,0,0,0-2.7.442,5.02,5.02,0,0,1-5.014.231c-.257.629-1.69,4.539,1.546,6.544a5.709,5.709,0,0,0,6.236.023,8.286,8.286,0,0,0,3.206-3.557,2.023,2.023,0,0,0-.562-2.46Z" transform="translate(-560.247 -617.975)" fill="#0f2653"/>
      </g>
      <g id="Group_3035" data-name="Group 3035" transform="translate(66.77 26.315)">
        <path id="Path_2993" data-name="Path 2993" d="M560.955,619.241s-2.072,4.5,1.542,6.738a5.805,5.805,0,0,0,6.324.024,8.356,8.356,0,0,0,3.24-3.594,2.075,2.075,0,0,0,.173-.529,8.081,8.081,0,0,1-2.43,2.231,5.806,5.806,0,0,1-6.324-.024,4.52,4.52,0,0,1-2.092-4.63A3.234,3.234,0,0,1,560.955,619.241Z" transform="translate(-560.364 -619.241)" fill="#261436"/>
      </g>
      <g id="Group_3036" data-name="Group 3036" transform="translate(66.272 25.085)">
        <path id="Path_2994" data-name="Path 2994" d="M560.233,618.362a.5.5,0,0,1,.713-.213,4.359,4.359,0,0,0,4.486-.183,4.129,4.129,0,0,1,3.139-.514,7.905,7.905,0,0,1,2.845,1.261h0a2.607,2.607,0,0,1,.82,3.24,8.868,8.868,0,0,1-3.433,3.806,6.344,6.344,0,0,1-6.839-.029,5.57,5.57,0,0,1-.534-.375C558.891,623.331,559.5,619.954,560.233,618.362Zm10.6,1.153h0a6.92,6.92,0,0,0-2.49-1.1,3.146,3.146,0,0,0-2.39.392,5.37,5.37,0,0,1-5,.445c-.388,1.143-1.04,4.036,1.537,5.632a5.319,5.319,0,0,0,5.811.019,7.881,7.881,0,0,0,3.046-3.383,1.613,1.613,0,0,0-.449-1.961Z" transform="translate(-559.594 -617.341)" fill="#261436"/>
      </g>
      <g id="Group_3037" data-name="Group 3037" transform="translate(30.777 57.345)">
        <path id="Path_2995" data-name="Path 2995" d="M527.032,683.711a1.907,1.907,0,0,0,0-2.99,63.546,63.546,0,0,1-5.9-5.3,38.422,38.422,0,0,1-5.413-7.263,1.908,1.908,0,0,0-2.732-.605l-7.438,5.132a1.908,1.908,0,0,0-.547,2.566,47.375,47.375,0,0,0,12.141,13.365,1.9,1.9,0,0,0,1.894.176A40.413,40.413,0,0,0,527.032,683.711Z" transform="translate(-504.724 -667.21)" fill="#fff"/>
      </g>
      <g id="Group_3039" data-name="Group 3039" transform="translate(38.817 68.508)">
        <g id="Group_3038" data-name="Group 3038">
          <path id="Path_2996" data-name="Path 2996" d="M517.339,691.275a.5.5,0,0,0,.613,0l4.408-3.416,2.33.755a.5.5,0,0,0,.446-.072l4.327-3.184a.5.5,0,0,0-.588-.8l-4.121,3.033-2.337-.758a.494.494,0,0,0-.457.08l-4.616,3.576a.5.5,0,0,0-.005.78Z" transform="translate(-517.152 -684.467)" fill="#261436"/>
        </g>
      </g>
      <g id="Group_3049" data-name="Group 3049" transform="translate(36.874 63.09)">
        <g id="Group_3040" data-name="Group 3040" transform="translate(0.314 0.314)">
          <path id="Path_2997" data-name="Path 2997" d="M518,680.091c-.2.16-1.994,1.176-1.994,1.176l-.911-1.111a2.356,2.356,0,0,1,3.538-2.9l.91,1.111S518.315,679.831,518,680.091Z" transform="translate(-514.679 -676.62)" fill="#1e93d4"/>
          <path id="Path_2998" data-name="Path 2998" d="M514.985,680.165a2.435,2.435,0,0,1,3.665-3l.954,1.163-.044.052c-.05.06-1.235,1.473-1.554,1.736h0c-.2.162-1.932,1.142-2.005,1.184l-.061.034Zm2.916-.182c.274-.224,1.267-1.4,1.489-1.661l-.868-1.058a2.277,2.277,0,0,0-3.41,2.8l.867,1.056c.635-.359,1.776-1.015,1.921-1.134Z" transform="translate(-514.634 -676.576)" fill="#261436"/>
        </g>
        <g id="Group_3041" data-name="Group 3041" transform="translate(0.311 0.311)">
          <path id="Path_2999" data-name="Path 2999" d="M518,680.091c-.2.16-1.994,1.176-1.994,1.176l-.911-1.111a2.356,2.356,0,0,1,3.538-2.9l.91,1.111S518.315,679.831,518,680.091Z" transform="translate(-514.676 -676.617)" fill="#44baeb"/>
          <path id="Path_3000" data-name="Path 3000" d="M515.892,681.276l-.911-1.111a2.438,2.438,0,0,1,3.67-3.009l.911,1.111a.085.085,0,0,1,0,.109c-.05.06-1.236,1.474-1.556,1.736-.2.163-1.932,1.143-2.005,1.184a.085.085,0,0,1-.1-.007A.087.087,0,0,1,515.892,681.276Zm2.005-1.3c.273-.225,1.262-1.392,1.487-1.659l-.866-1.056a2.274,2.274,0,0,0-3.405,2.793l.865,1.054c.538-.3,1.769-1.01,1.919-1.132Z" transform="translate(-514.63 -676.571)" fill="#0f2653"/>
        </g>
        <g id="Group_3042" data-name="Group 3042" transform="translate(1.218 0.395)" opacity="0.6">
          <path id="Path_3001" data-name="Path 3001" d="M516.032,677.448a1.93,1.93,0,0,1,2.408.261l.91,1.111s-.937,1.122-1.386,1.575a5.677,5.677,0,0,0,.481-.3c.318-.26,1.545-1.725,1.545-1.725l-.911-1.11a2.084,2.084,0,0,0-2.9.065C516.126,677.363,516.078,677.406,516.032,677.448Z" transform="translate(-516.032 -676.701)" fill="#fff"/>
        </g>
        <g id="Group_3043" data-name="Group 3043" transform="translate(0.395 0.745)">
          <path id="Path_3002" data-name="Path 3002" d="M515.093,680.348l.911,1.111s1.8-1.016,1.993-1.176c.318-.26,1.545-1.725,1.545-1.725l0-.006a3.642,3.642,0,0,1-.319.32c-.194.16-1.992,1.176-1.992,1.176s-.41-.5-.911-1.111a1.7,1.7,0,0,1-.2-1.695,2.887,2.887,0,0,0-.391.27A2.085,2.085,0,0,0,515.093,680.348Z" transform="translate(-514.76 -677.243)" fill="#261436"/>
        </g>
        <g id="Group_3044" data-name="Group 3044">
          <path id="Path_3003" data-name="Path 3003" d="M515.2,680.966l-.633-.772a2.742,2.742,0,0,1,4.154-3.406l.636.776a.919.919,0,0,1-.011,1.179,16.446,16.446,0,0,1-1.314,1.442h0a17.244,17.244,0,0,1-1.667,1,.916.916,0,0,1-1.026-.078A.938.938,0,0,1,515.2,680.966Zm3.539-2.741a.121.121,0,0,0,0-.156l-.636-.776a1.977,1.977,0,0,0-2.921,2.4l.632.771a.122.122,0,0,0,.154.029c1.032-.589,1.484-.864,1.558-.922A14.88,14.88,0,0,0,518.741,678.225Z" transform="translate(-514.149 -676.091)" fill="#261436"/>
        </g>
        <g id="Group_3045" data-name="Group 3045" transform="translate(0.504 0.676)">
          <ellipse id="Ellipse_917" data-name="Ellipse 917" cx="2.287" cy="1.791" rx="2.287" ry="1.791" transform="matrix(0.773, -0.634, 0.634, 0.773, 0, 2.901)" fill="#44baeb"/>
          <path id="Path_3004" data-name="Path 3004" d="M516.388,681.881a1.7,1.7,0,0,1-.3-1.477,2.843,2.843,0,0,1,2.582-2.118,1.617,1.617,0,0,1,1.692,2.063,2.709,2.709,0,0,1-.948,1.478,2.285,2.285,0,0,1-2.8.276A1.524,1.524,0,0,1,516.388,681.881Zm2.284-3.423a2.67,2.67,0,0,0-2.419,1.984,1.528,1.528,0,0,0,.267,1.331,2,2,0,0,0,2.784-.078,2.542,2.542,0,0,0,.889-1.384,1.526,1.526,0,0,0-.268-1.331,1.348,1.348,0,0,0-.2-.2A1.6,1.6,0,0,0,518.672,678.458Z" transform="translate(-515.319 -677.542)" fill="#0f2653"/>
        </g>
        <g id="Group_3046" data-name="Group 3046" transform="translate(1.731 1.505)" opacity="0.6">
          <path id="Path_3005" data-name="Path 3005" d="M516.824,679.626a2.061,2.061,0,0,1,2.836-.011,1.871,1.871,0,0,1-.091,2.246l.067-.053a1.845,1.845,0,1,0-2.27-2.77A2.85,2.85,0,0,0,516.824,679.626Z" transform="translate(-516.824 -678.418)" fill="#fff"/>
        </g>
        <g id="Group_3047" data-name="Group 3047" transform="translate(1.306 1.862)">
          <path id="Path_3006" data-name="Path 3006" d="M516.5,682.068a2.084,2.084,0,0,0,2.9-.065,2.771,2.771,0,0,0,.726-.9,1.964,1.964,0,0,1-2.525-.2,1.772,1.772,0,0,1-.092-1.937,2.911,2.911,0,0,0-.379.264A2.086,2.086,0,0,0,516.5,682.068Z" transform="translate(-516.168 -678.969)" fill="#261436"/>
        </g>
        <g id="Group_3048" data-name="Group 3048" transform="translate(0.907 1.107)">
          <path id="Path_3007" data-name="Path 3007" d="M515.975,681.909a2,2,0,0,1-.366-1.743,3.152,3.152,0,0,1,2.882-2.362,1.928,1.928,0,0,1,2,2.443,3.023,3.023,0,0,1-1.055,1.653,2.6,2.6,0,0,1-3.194.277A1.792,1.792,0,0,1,515.975,681.909Zm2.533-3.309a2.36,2.36,0,0,0-2.121,1.739,1.222,1.222,0,0,0,.2,1.065,1.7,1.7,0,0,0,2.344-.121,2.228,2.228,0,0,0,.782-1.21,1.225,1.225,0,0,0-.2-1.065,1.026,1.026,0,0,0-.154-.151A1.3,1.3,0,0,0,518.508,678.6Z" transform="translate(-515.55 -677.803)" fill="#261436"/>
        </g>
      </g>
      <g id="Group_3050" data-name="Group 3050" transform="translate(30.144 56.673)">
        <path id="Path_3008" data-name="Path 3008" d="M504.029,674.8a2.006,2.006,0,0,1,.582-2.676l8.11-5.6a2,2,0,0,1,2.877.655,38.508,38.508,0,0,0,5.546,7.524,63.16,63.16,0,0,0,6.237,5.565,2,2,0,0,1,.025,3.136h0a40.629,40.629,0,0,1-8.743,5.572,2.012,2.012,0,0,1-1.961-.2q-.891-.627-1.725-1.294A49.265,49.265,0,0,1,504.029,674.8Zm22.755,7.836a1.011,1.011,0,0,0,0-1.576l-.008-.006a64.071,64.071,0,0,1-6.337-5.654,39.561,39.561,0,0,1-5.7-7.725,1.009,1.009,0,0,0-1.451-.329l-8.111,5.6a1.013,1.013,0,0,0-.294,1.35,46.992,46.992,0,0,0,12.393,13.684,1.015,1.015,0,0,0,.989.1,39.653,39.653,0,0,0,8.522-5.438Z" transform="translate(-503.746 -666.171)" fill="#261436"/>
      </g>
      <g id="Group_3052" data-name="Group 3052" transform="translate(52.245 14.504)" opacity="0.5">
        <g id="Group_3051" data-name="Group 3051">
          <path id="Path_3009" data-name="Path 3009" d="M554.026,600.992c-.209-.008-.418-.007-.628-.007s-.42,0-.631.005c-.418.026-.838.062-1.259.1s-.834.128-1.254.2c-.413.091-.829.183-1.243.285a19.012,19.012,0,0,0-4.744,1.984,18.43,18.43,0,0,0-4.077,3.23c-.284.332-.561.669-.814,1.024s-.471.737-.672,1.125a11.152,11.152,0,0,0-.5,1.216,7.45,7.45,0,0,0-.279,1.314,1.236,1.236,0,0,0,1.834,1.209l.1-.058a7.3,7.3,0,0,0,.987-.676,10.383,10.383,0,0,0,.874-.7c.288-.227.56-.461.817-.7s.532-.466.779-.714a25.283,25.283,0,0,1,3.225-2.708,27.214,27.214,0,0,1,3.7-2.174c.332-.147.659-.31.993-.464s.677-.287,1.017-.439c.346-.131.692-.272,1.041-.415q.265-.093.531-.2c.177-.068.356-.135.534-.209l.072-.03a1.144,1.144,0,0,0-.4-2.2Z" transform="translate(-537.911 -600.984)" fill="#fff"/>
        </g>
      </g>
      <g id="Group_3058" data-name="Group 3058" transform="translate(59.846 45.608)">
        <g id="Group_3053" data-name="Group 3053" transform="translate(6.058 1.739)">
          <path id="Path_3010" data-name="Path 3010" d="M559.5,651.783c-.3.075-.515.273-.473.442s.321.244.625.17.515-.274.473-.443S559.807,651.707,559.5,651.783Z" transform="translate(-559.026 -651.753)" fill="#261436"/>
        </g>
        <g id="Group_3054" data-name="Group 3054" transform="translate(4.421 0)">
          <ellipse id="Ellipse_918" data-name="Ellipse 918" cx="0.566" cy="0.315" rx="0.566" ry="0.315" transform="matrix(0.029, -1, 1, 0.029, 0, 1.131)" fill="#261436"/>
        </g>
        <g id="Group_3055" data-name="Group 3055" transform="translate(0.784 1.747)">
          <path id="Path_3011" data-name="Path 3011" d="M555.994,655.409a3.947,3.947,0,0,1-1.689,1.3,2.4,2.4,0,0,1-3.416-2.589,3.942,3.942,0,0,1,.8-1.978C552.817,650.657,557.122,653.921,555.994,655.409Z" transform="translate(-550.873 -651.766)" fill="#261436"/>
        </g>
        <g id="Group_3056" data-name="Group 3056" transform="translate(0 3.05)">
          <ellipse id="Ellipse_919" data-name="Ellipse 919" cx="1.324" cy="2.143" rx="1.324" ry="2.143" transform="matrix(0.604, -0.797, 0.797, 0.604, 0, 2.11)" fill="#dd3a7b"/>
        </g>
        <g id="Group_3057" data-name="Group 3057" transform="translate(0.378 1.333)">
          <path id="Path_3012" data-name="Path 3012" d="M551.141,651.673c.755-1,2.338-.5,3.572.437a4.968,4.968,0,0,1,1.382,1.534,1.6,1.6,0,0,1,0,1.787l-.326-.247.326.247a4.242,4.242,0,0,1-2.3,1.578,2.845,2.845,0,0,1-2.469-.435l-.049-.038C549.96,655.485,549.894,653.319,551.141,651.673Zm3.078,1.088c-.9-.681-2.051-1.089-2.427-.594-.991,1.307-.979,3,.03,3.756a2.048,2.048,0,0,0,1.774.294,3.425,3.425,0,0,0,1.851-1.28c.16-.211.136-.518-.073-.908a4.105,4.105,0,0,0-1.053-1.189Z" transform="translate(-550.246 -651.126)" fill="#261436"/>
        </g>
      </g>
      <g id="Group_3061" data-name="Group 3061" transform="translate(35.17 0)">
        <g id="Group_3059" data-name="Group 3059" transform="translate(0 0)">
          <ellipse id="Ellipse_920" data-name="Ellipse 920" cx="26.122" cy="29.085" rx="26.122" ry="29.085" transform="matrix(0.511, -0.86, 0.86, 0.511, 0, 44.913)" fill="#1c98d8" opacity="0.36"/>
          <path id="Path_3013" data-name="Path 3013" d="M530.207,606.6a24.768,24.768,0,0,1,16.814-11.566,30.719,30.719,0,0,1,21.647,3.938c13.826,8.216,19.069,25.006,11.689,37.428a24.769,24.769,0,0,1-16.814,11.566,30.717,30.717,0,0,1-21.647-3.938,32.534,32.534,0,0,1-3.65-2.52C527.2,632.707,523.516,617.856,530.207,606.6Zm38.376-7.486a30.552,30.552,0,0,0-21.53-3.919,24.609,24.609,0,0,0-16.7,11.489c-7.334,12.343-2.117,29.031,11.631,37.2a30.552,30.552,0,0,0,21.53,3.919,24.606,24.606,0,0,0,16.7-11.489c6.649-11.188,2.984-25.946-8-34.695A32.307,32.307,0,0,0,568.583,599.111Z" transform="translate(-516.934 -584.183)" fill="#261436"/>
        </g>
        <g id="Group_3060" data-name="Group 3060" transform="translate(9.504 9.901)">
          <path id="Path_3014" data-name="Path 3014" d="M532.081,635.78c-.33-.44-.656-.9-.967-1.367-.035-.052-.069-.1-.1-.155l-.079-.12a28.049,28.049,0,0,1-4.714-16.208,24.21,24.21,0,0,1,3.4-11.761h0c7.5-12.618,25-16.1,39.027-7.772s19.329,25.377,11.831,37.994-25,16.1-39.027,7.771a33.106,33.106,0,0,1-3.726-2.569A31.684,31.684,0,0,1,532.081,635.78Zm36.06-36.53c-13.552-8.052-30.45-4.721-37.669,7.427l-.426-.254.426.254a23.231,23.231,0,0,0-3.263,11.285,27.063,27.063,0,0,0,4.551,15.632l.177.268c.3.453.617.9.937,1.324a31.11,31.11,0,0,0,9.084,8.125c13.552,8.052,30.45,4.721,37.668-7.426,6.543-11.01,2.923-25.539-7.9-34.161A32.045,32.045,0,0,0,568.142,599.25Z" transform="translate(-526.207 -593.867)" fill="#261436"/>
        </g>
      </g>
    </g>
  </g>
</svg>
