<svg id="Group_521" data-name="Group 521" xmlns="http://www.w3.org/2000/svg" width="98.439" height="98.44" viewBox="0 0 98.439 98.44">
  <g id="Group_520" data-name="Group 520" transform="translate(0.526 0.503)">
    <g id="Group_512" data-name="Group 512">
      <g id="Group_511" data-name="Group 511">
        <path id="Path_636" data-name="Path 636" d="M569.367,2173.263c-.64-.025-10.032,1.479-14.162,1.352l-.419-.015a48.87,48.87,0,0,1-46.742-49.747,48.663,48.663,0,0,1,50.56-47.5c.319.013.636.029.958.047a48.649,48.649,0,0,1,31.957,82.548C589.167,2162.355,570.686,2173.315,569.367,2173.263Z" transform="translate(-508.03 -2077.314)" fill="#f43861"/>
      </g>
    </g>
    <g id="Group_514" data-name="Group 514" transform="translate(2.71 2.687)" opacity="0.5">
      <g id="Group_513" data-name="Group 513">
        <path id="Path_637" data-name="Path 637" d="M561.952,2084.351a45.678,45.678,0,0,0-48.359,44.545,45.2,45.2,0,0,0,5.59,22.853,45.588,45.588,0,0,1,40.514-71.086,45.76,45.76,0,0,1,37.364,23.766A45.668,45.668,0,0,0,561.952,2084.351Z" transform="translate(-511.326 -2080.583)" fill="#fff"/>
      </g>
    </g>
    <g id="Group_515" data-name="Group 515" transform="translate(8.972 20.174)" opacity="0.3">
      <path id="Path_638" data-name="Path 638" d="M593.478,2101.854a45.531,45.531,0,0,1-1.014,62.35c-3.379,3.486-19.935,12.167-22.754,12.8a45.65,45.65,0,0,1-50.766-23.933c3.888,4.315,24.627,25.384,60.2,5.52C611.193,2140.7,595.3,2105.409,593.478,2101.854Z" transform="translate(-518.944 -2101.854)" fill="#102770"/>
    </g>
    <g id="Group_516" data-name="Group 516" transform="translate(26.568 29.564)">
      <path id="Path_639" data-name="Path 639" d="M579.41,2117.477h0c-4.48-4.846-12.073-4.308-16.919.172l-.755.7-.7-.754c-4.479-4.847-12.006-5.979-16.853-1.5h0a11.95,11.95,0,0,0-.663,16.886l.7.755L558.3,2148.97a3.151,3.151,0,0,0,4.451.175l15.236-14.085.754-.7A11.95,11.95,0,0,0,579.41,2117.477Z" transform="translate(-540.347 -2113.276)" fill="#fff"/>
    </g>
    <g id="Group_517" data-name="Group 517" transform="translate(58.577 38.189)" opacity="0.5">
      <path id="Path_640" data-name="Path 640" d="M584.558,2125.707c-1.357-2.033-4.139-2.235-5-1.657s.513,1.719,1.87,3.75,2.18,4.188,3.046,3.611S585.916,2127.74,584.558,2125.707Z" transform="translate(-579.284 -2123.769)" fill="#fce5e5"/>
    </g>
    <g id="Group_519" data-name="Group 519" transform="translate(55.083 34.983)" opacity="0.5">
      <g id="Group_518" data-name="Group 518">
        <path id="Path_641" data-name="Path 641" d="M575.049,2120.59a1.347,1.347,0,0,0,2.351,1.022c.358-.465.086-1.267-.7-1.609S575.146,2120.011,575.049,2120.59Z" transform="translate(-575.034 -2119.868)" fill="#fce5e5"/>
      </g>
    </g>
  </g>
  <path id="Path_642" data-name="Path 642" d="M554.677,2175.1a49.219,49.219,0,1,1,51.114-47.249A49.276,49.276,0,0,1,554.677,2175.1Zm3.716-94.534a45.388,45.388,0,1,0,43.57,47.135A45.439,45.439,0,0,0,558.393,2080.569Z" transform="translate(-507.39 -2076.702)" fill="#371a45"/>
</svg>
