<svg xmlns="http://www.w3.org/2000/svg" width="167.082" height="121.097" viewBox="0 0 167.082 121.097">
  <g id="Group_3463" data-name="Group 3463" transform="translate(-572.25 -398.766)">
    <g id="Group_738" data-name="Group 738" transform="translate(572.25 398.766)">
      <path id="Path_1047" data-name="Path 1047" d="M735.258,4447.592a31.012,31.012,0,0,0,28.694-15.74,1.581,1.581,0,0,1,1.474-.707,1.722,1.722,0,0,1,.211.021,268.486,268.486,0,0,0,28.086,3.112c26.159,1.242,43.85-4.061,54.085-16.214,13.44-15.96,13.059-38.777-.926-55.485a.771.771,0,0,0-.158-.134,1.386,1.386,0,0,1-.319-.3,44.146,44.146,0,0,0-5.695-6.521c-14.664-14.881-37.941-21.531-54.9-24.5a145.884,145.884,0,0,0-18.183-2.011c-30.98-1.471-66.386,7.119-72.846,35.644-2.272,10.027-1.218,19.79,3.048,28.232a1.035,1.035,0,0,1,.07.175,25.737,25.737,0,0,0,5.773,10.134,1.311,1.311,0,0,1,.138.171c5.726,8.661,15.181,15.413,27.344,19.525a1.186,1.186,0,0,1,.908,1.438,16.459,16.459,0,0,1-.649,1.642c-1.957,4.264-4.88,9.393-10.168,11.244a1.914,1.914,0,0,1-.391.089,2.336,2.336,0,0,1-.39.248c-.068.1-.029.247.121.4a1.234,1.234,0,0,1,.128.155.637.637,0,0,0,.319.263,34.758,34.758,0,0,0,6.986,1.782,1.52,1.52,0,0,1,1.212.839,1.015,1.015,0,0,1-.364,1.212,14.39,14.39,0,0,1-4.168,2.236c-.248.08-.249.133-.249.206a.948.948,0,0,0,.606.73,33.864,33.864,0,0,0,10.2,2.118Z" transform="translate(-692.065 -4327.739)" fill="#fff"/>
      <path id="Path_1048" data-name="Path 1048" d="M729.591,4423.325a15.514,15.514,0,0,1-.61,1.542c-1.675,3.649-4.465,8.854-9.373,10.572a1.769,1.769,0,0,0-1.025.445,1.235,1.235,0,0,0-.2,2.111,2.09,2.09,0,0,0,1.037.794,36.339,36.339,0,0,0,7.364,1.879,12.684,12.684,0,0,1-3.716,1.995c-1.924.624-1.151,2.564.374,3.13,17.494,6.492,34.143-1.746,40.942-14.212,28.486,4.46,65.68,7.828,83.729-13.6,13.9-16.506,13.182-39.946-.937-56.811a2.16,2.16,0,0,0-.432-.383,45.142,45.142,0,0,0-5.872-6.714c-12.76-12.951-33.35-20.975-55.742-24.9-37.457-6.562-85.149.585-92.848,34.574-2.215,9.78-1.483,19.75,3.136,28.891a26.974,26.974,0,0,0,6.046,10.594C707.533,4412.41,717.317,4419.176,729.591,4423.325Zm2.532-8.625c-4.314-2.231-9.925-2.937-14.338-5.345a47.139,47.139,0,0,1-10.253-7.119c-5.9-5.7-9.941-12.448-11.367-19.678-2.514-12.76.516-28.259,12.211-37.765,16.412-13.342,41.609-16.771,64.611-14,36.872,4.444,77.77,20.326,76.795,53.949-.362,12.5-6.391,25.353-19.766,32.663-19.96,10.906-47.651,7.271-70.334,3.634a2.371,2.371,0,0,0-2.726,1.062c-5.087,10.71-17.953,17.974-32.217,14.644C731.682,4431.6,739.784,4418.661,732.123,4414.7Zm-13.184-70.117c-11.679,7.8-13.978,17.881-18.232,28.762-.089.229-.566.223-.621-.029-4.064-18.57,22.455-39.546,45.45-40.3.3-.009.41.369.133.453C735.7,4336.481,727.21,4339.056,718.939,4344.583Zm-18.156,30.872a.256.256,0,0,1,.245.091c.582.773.429,1.808.593,2.67.085.446.374,1.954-.776,1.8-1.287-.176-1.151-1.753-1.209-2.5C699.576,4376.729,699.686,4375.7,700.782,4375.454ZM798.69,4420.6c8.668-1.49,16.507-2.618,24.315-6.133,8.55-3.848,13.315-9.657,19.078-15.609.144-.147.41-.035.366.141-3.2,12.878-27.431,24.587-43.673,22.285C798.307,4421.216,798.174,4420.688,798.69,4420.6Zm-6.022-.3a4.906,4.906,0,0,1,2.984.806.126.126,0,0,1-.01.206,4.9,4.9,0,0,1-3.046.521,5.262,5.262,0,0,1-3.275-.754.2.2,0,0,1,.016-.338A5.264,5.264,0,0,1,792.668,4420.3Z" transform="translate(-691.079 -4326.97)"/>
    </g>
    <text id="DO_You_want_some_bishu_" data-name="DO You want
some bishu ?" transform="matrix(0.981, 0.192, -0.191, 0.982, 656.243, 445.238)" font-size="21" font-family="SnowyNight, Snowy Night" letter-spacing="-0.015em"><tspan x="-56.259" y="0">DO You want</tspan><tspan x="-57.844" y="20">some bishu ?</tspan></text>
  </g>
</svg>
