<svg xmlns="http://www.w3.org/2000/svg" viewBox="0 0 171.28 248.03"><defs><style>.cls-1{fill:#fff;}</style></defs><g id="Layer_2" data-name="Layer 2"><g id="Layer_1-2" data-name="Layer 1"><g id="Layer_2-2" data-name="Layer 2"><g id="Layer_1-2-2" data-name="Layer 1-2"><path class="cls-1" d="M149.16,248c-3.91-6.16-2.52-13.09-1.39-19.32a77.23,77.23,0,0,1,7.64-21.36c4.78-9.21,7.92-18.49,7.82-29-.21-21.32,0-42.65-.06-64,0-6.66-3-10.45-8.1-10.35s-7.89,3.85-7.92,10.58c0,2.84.46,5.78-.17,8.46-.42,1.82-2.17,4.37-3.71,4.67-3.05.6-4.13-1.91-4.1-4.81,0-5.83.05-11.67,0-17.5S136,96,131.12,96s-7.91,3.63-8,9.49,0,11.67,0,17.5c0,2.92-1.15,5.38-4.19,4.73-1.53-.33-3.54-3-3.62-4.71-.38-8.49-.14-17-.21-25.49,0-5.92-3.08-9.48-7.93-9.52s-8,3.59-8,9.41q-.08,12.5,0,25c0,3-.59,5.56-4.16,5.48-3.22-.07-3.87-2.48-3.86-5.28V50.16c0-2.81.63-5.1,4-5.12s4,2.26,4,5.08v31.5c10.22-3.49,18.17-1.12,23.25,8.35,12.17-3.75,17.88-1.84,24,8.19l3.44-1.2c10-3.41,21,3.51,21.14,14,.3,24.83.6,49.67-.26,74.47-.26,7.46-3.09,15.51-6.91,22-6.13,10.47-9.33,21.13-8.82,33.16.1,2.44-1.21,4.93-1.88,7.4Z"/><path class="cls-1" d="M69.16,248c-.78-1.72-2.12-3.41-2.26-5.18-.68-8.86-2.54-17.34-6.84-25.18-1.42-2.58-1.39-5.3,1.46-6.17C63,211,66,212.59,66.87,214c5.32,8.83,7.59,18.64,7.83,28.89,0,1.68-1,3.38-1.54,5.07Z"/><path class="cls-1" d="M67.18,142.49V89.65c0-19.17-.06-38.33,0-57.49a16,16,0,0,1,31.58-3.51c.29,1.28.71,2.92.17,3.89-.78,1.39-2.29,3-3.67,3.2-1,.13-2.5-1.83-3.25-3.16-.91-1.68-.76-4.55-2-5.33-2.43-1.52-5.65-2.91-8.34-2.6-3.49.4-5.51,3.46-5.52,7.28V159.41c0,1.33.37,2.83-.11,4-.71,1.66-1.84,4-3.16,4.29S69,166.39,68.28,165c-2.66-5.16-4.8-10.58-7.12-15.92-3.3-7.61-6.57-15.25-9.9-22.86-2.21-5.06-6-7.2-10-5.74s-5.68,5.5-4.44,10.76c4.17,17.61,8,35.3,12.62,52.81,1.38,5.29,4.83,10,6.93,15.16.79,1.94.43,4.35.6,6.54-2.2-.41-5.44-.06-6.39-1.37-3.18-4.37-6.64-9-8-14.11-5.18-19.24-9.64-38.66-14.22-58.06-2.15-9.1,1.82-16.7,9.72-19.34s15.51,1.07,19.38,9.61c3,6.66,5.88,13.38,8.82,20.07Z"/><path class="cls-1" d="M47.83,31.73C51.48,13.17,64.93.62,81.57,0c18.93-.65,32.1,10.31,37.94,32h33.86c-2.91-3.29-5.56-5.7-7.41-8.63-1-1.56-1.46-4.59-.58-5.92,1.81-2.74,4.29-1.41,6.27.58,4.7,4.73,9.39,9.46,14.15,14.12,2.74,2.69,2.46,5.22-.08,7.77-4.7,4.72-9.43,9.41-14.14,14.12-2,2-4.52,3.23-6.25.43-.83-1.35-.3-4.45.78-5.87,2.09-2.73,5-4.83,8.62-8.14H120c-1.46,4-2.79,8.09-4.44,12-1.13,2.67-3.21,4.66-6.29,3s-2.34-4.2-1-6.88c6-12.42,3.25-25.9-6.93-34.27a28,28,0,0,0-35.06-.43,27.57,27.57,0,0,0-8.9,31.37c.59,1.55,1.85,3,1.89,4.57,0,1.87-.88,3.76-1.38,5.65-1.87-.6-4.73-.64-5.43-1.89C50.14,49.55,48.6,45,46.61,40.22A7.47,7.47,0,0,0,45.2,40H12.93c3.36,3.13,5.91,5.53,8.51,7.91,2.12,1.94,3.89,4.11,1.32,6.75s-4.79.93-6.82-1.12C11.25,48.83,6.61,44,1.81,39.43c-2.51-2.4-2.31-4.51,0-6.8,5-4.93,9.74-10.07,15-14.7,1.21-1.08,3.94-.45,6-.61-.2,2.05.31,4.61-.74,6C20,26.18,17,28.42,13.54,31.71Z"/><path class="cls-1" d="M155.12,180.89a52.13,52.13,0,0,1-7.44,23.53c-1.81,3-3.27,6.17-5.35,8.92-1,1.26-3,1.65-4.62,2.44-.84-1.75-2.72-3.82-2.3-5.19,1-3.26,3.47-6,4.63-9.27,2.61-7.24,5-14.58,7-22,.71-2.68.47-5.51,4.2-5.43C155.36,174,155.19,177,155.12,180.89Z"/><path class="cls-1" d="M155.14,160.17c0,1.15.41,2.55-.09,3.41a32.81,32.81,0,0,1-3.67,4.4c-1.4-1.47-3.43-2.72-4-4.46a11.49,11.49,0,0,1,0-6.82c.56-1.77,2.51-3.11,3.85-4.64a36.34,36.34,0,0,1,3.87,4.7C155.56,157.61,155.14,159,155.14,160.17Z"/></g></g></g></g></svg>