<svg xmlns="http://www.w3.org/2000/svg" width="249.774" height="172.411" viewBox="0 0 249.774 172.411">
  <g id="Group_806" data-name="Group 806" transform="translate(0 0)">
    <path id="Path_1142" data-name="Path 1142" d="M1032.416,6003.737c17.8.806,34.641-7.991,42.9-22.41a2.4,2.4,0,0,1,2.2-1.008c.1.006.211.015.316.03a420.3,420.3,0,0,0,41.986,4.431c39.1,1.77,65.552-5.781,80.852-23.084,20.093-22.726,19.523-55.209-1.385-79a1.094,1.094,0,0,0-.235-.19,2.019,2.019,0,0,1-.477-.434,64.056,64.056,0,0,0-8.514-9.286c-21.923-21.185-56.719-30.655-82.065-34.883a228.434,228.434,0,0,0-27.183-2.861c-46.312-2.095-99.24,10.136-108.9,50.748-3.4,14.275-1.82,28.176,4.558,40.195a1.393,1.393,0,0,1,.1.25,36.269,36.269,0,0,0,8.63,14.429,1.681,1.681,0,0,1,.205.244c8.559,12.33,22.7,21.941,40.878,27.8,1.069.345,1.65,1.222,1.356,2.05a22.743,22.743,0,0,1-.969,2.336c-2.925,6.069-7.3,13.372-15.2,16.007a2.872,2.872,0,0,1-.585.127,3.465,3.465,0,0,1-.582.352c-.1.151-.044.353.182.577a1.905,1.905,0,0,1,.191.219.935.935,0,0,0,.477.375,53.931,53.931,0,0,0,10.442,2.536,2.274,2.274,0,0,1,1.812,1.194,1.407,1.407,0,0,1-.544,1.727,21.78,21.78,0,0,1-6.23,3.182c-.371.115-.372.19-.372.292a1.358,1.358,0,0,0,.906,1.039,52.866,52.866,0,0,0,15.243,3.02Z" transform="translate(-967.847 -5833.095)" fill="#fff"/>
    <path id="Path_1143" data-name="Path 1143" d="M982.433,5940.971a37.983,37.983,0,0,1-9.038-15.082c-6.905-13.016-8-27.211-4.687-41.135,11.509-48.39,82.805-58.566,138.8-49.222,33.474,5.583,64.254,17.006,83.33,35.445a65.332,65.332,0,0,1,8.778,9.56,3.211,3.211,0,0,1,.646.546c21.107,24.012,22.18,57.383,1.4,80.885-26.981,30.515-82.583,25.721-125.167,19.368-10.165,17.752-35.053,29.479-61.205,20.236-2.279-.806-3.433-3.569-.558-4.457a19.319,19.319,0,0,0,5.554-2.838,56.718,56.718,0,0,1-11.009-2.676,3.119,3.119,0,0,1-1.55-1.13c-.985-.973-1.106-2.277.3-3.007a2.693,2.693,0,0,1,1.532-.633c7.337-2.445,11.509-9.855,14.012-15.051a21.611,21.611,0,0,0,.912-2.2C1006.132,5963.674,991.507,5954.042,982.433,5940.971Zm34.795,47.718c21.323,4.74,40.556-5.6,48.161-20.85.672-1.349,2.266-1.786,4.076-1.509,33.909,5.177,75.3,10.352,105.144-5.174,19.995-10.407,29.007-28.7,29.548-46.5,1.458-47.87-59.682-70.486-114.8-76.811-34.385-3.947-72.053.934-96.588,19.93-17.483,13.533-22.013,35.6-18.255,53.77,2.13,10.295,8.173,19.9,16.992,28.016a70.634,70.634,0,0,0,15.329,10.134c6.6,3.43,14.983,4.434,21.434,7.611C1039.718,5962.941,1027.607,5981.364,1017.227,5988.689Zm31.288-147.038c.414-.119.247-.659-.2-.646-34.376,1.072-74.02,30.933-67.944,57.374.083.359.8.37.929.043,6.358-15.491,9.795-29.841,27.254-40.949C1020.921,5849.6,1033.608,5845.939,1048.515,5841.651Zm-68.815,62.7c.086,1.064-.117,3.31,1.807,3.56,1.72.225,1.287-1.919,1.16-2.555-.246-1.228-.016-2.7-.886-3.8a.389.389,0,0,0-.367-.13C979.775,5901.783,979.61,5903.242,979.7,5904.353Zm148.207,62.322c24.28,3.279,60.505-13.393,65.286-31.728.066-.25-.332-.41-.547-.2-8.616,8.474-15.739,16.745-28.52,22.225-11.672,5-23.39,6.608-36.348,8.728C1127.006,5965.827,1127.206,5966.58,1127.906,5966.675Zm-14.11-.766a.284.284,0,0,0-.024.482c1.457.991,3.008,1.06,4.9,1.071,1.6.01,3.339.15,4.553-.739a.174.174,0,0,0,.014-.292c-1.121-1-2.871-1.014-4.46-1.148C1116.9,5965.124,1115.344,5965.054,1113.8,5965.909Z" transform="translate(-966.909 -5832.397)"/>
    <text id="EMBARK_ON_MY_VISION_" data-name="EMBARK 
ON MY VISION!" transform="matrix(0.97, 0.243, -0.241, 0.97, 117.701, 65.625)" font-size="33" font-family="SnowyNight, Snowy Night" letter-spacing="-0.015em"><tspan x="-53.542" y="0">EMBARK </tspan><tspan x="-93.209" y="31">ON MY VISION!</tspan></text>
  </g>
</svg>
