<svg xmlns="http://www.w3.org/2000/svg" xmlns:xlink="http://www.w3.org/1999/xlink" width="55.316" height="55.31" viewBox="0 0 55.316 55.31">
  <defs>
    <clipPath id="clip-path">
      <rect id="Rectangle_811" data-name="Rectangle 811" width="53.979" height="35.986" fill="none"/>
    </clipPath>
    <clipPath id="clip-path-2">
      <rect id="Rectangle_810" data-name="Rectangle 810" width="53.637" height="35.192" fill="none"/>
    </clipPath>
    <clipPath id="clip-path-3">
      <rect id="Rectangle_813" data-name="Rectangle 813" width="55.22" height="36.606" fill="none"/>
    </clipPath>
    <clipPath id="clip-path-4">
      <rect id="Rectangle_812" data-name="Rectangle 812" width="54.55" height="35.893" fill="none"/>
    </clipPath>
    <clipPath id="clip-path-5">
      <rect id="Rectangle_815" data-name="Rectangle 815" width="6.825" height="8.686" fill="none"/>
    </clipPath>
    <clipPath id="clip-path-6">
      <rect id="Rectangle_814" data-name="Rectangle 814" width="6.326" height="8.295" fill="none"/>
    </clipPath>
    <clipPath id="clip-path-7">
      <rect id="Rectangle_817" data-name="Rectangle 817" width="11.788" height="11.788" fill="none"/>
    </clipPath>
    <clipPath id="clip-path-8">
      <rect id="Rectangle_816" data-name="Rectangle 816" width="11.351" height="11.348" fill="none"/>
    </clipPath>
    <clipPath id="clip-path-9">
      <rect id="Rectangle_819" data-name="Rectangle 819" width="14.27" height="14.27" fill="none"/>
    </clipPath>
    <clipPath id="clip-path-10">
      <rect id="Rectangle_818" data-name="Rectangle 818" width="13.565" height="13.879" fill="none"/>
    </clipPath>
    <clipPath id="clip-path-11">
      <rect id="Rectangle_821" data-name="Rectangle 821" width="8.066" height="8.066" fill="none"/>
    </clipPath>
    <clipPath id="clip-path-12">
      <rect id="Rectangle_820" data-name="Rectangle 820" width="7.524" height="7.52" fill="none"/>
    </clipPath>
    <clipPath id="clip-path-13">
      <rect id="Rectangle_823" data-name="Rectangle 823" width="5.584" height="6.825" fill="none"/>
    </clipPath>
    <clipPath id="clip-path-14">
      <rect id="Rectangle_822" data-name="Rectangle 822" width="4.571" height="6.198" fill="none"/>
    </clipPath>
    <clipPath id="clip-path-15">
      <rect id="Rectangle_825" data-name="Rectangle 825" width="4.964" height="6.204" fill="none"/>
    </clipPath>
    <clipPath id="clip-path-16">
      <rect id="Rectangle_824" data-name="Rectangle 824" width="4.135" height="5.491" fill="none"/>
    </clipPath>
    <clipPath id="clip-path-17">
      <rect id="Rectangle_827" data-name="Rectangle 827" width="4.343" height="6.204" fill="none"/>
    </clipPath>
    <clipPath id="clip-path-18">
      <rect id="Rectangle_826" data-name="Rectangle 826" width="4.221" height="6.118" fill="none"/>
    </clipPath>
    <clipPath id="clip-path-20">
      <rect id="Rectangle_828" data-name="Rectangle 828" width="4.864" height="6.378" fill="none"/>
    </clipPath>
    <clipPath id="clip-path-21">
      <rect id="Rectangle_831" data-name="Rectangle 831" width="6.204" height="6.204" fill="none"/>
    </clipPath>
    <clipPath id="clip-path-22">
      <rect id="Rectangle_830" data-name="Rectangle 830" width="5.785" height="5.783" fill="none"/>
    </clipPath>
    <clipPath id="clip-path-23">
      <rect id="Rectangle_833" data-name="Rectangle 833" width="6.204" height="4.343" fill="none"/>
    </clipPath>
    <clipPath id="clip-path-24">
      <rect id="Rectangle_832" data-name="Rectangle 832" width="5.827" height="3.803" fill="none"/>
    </clipPath>
    <clipPath id="clip-path-25">
      <rect id="Rectangle_835" data-name="Rectangle 835" width="1.241" height="1.241" fill="none"/>
    </clipPath>
    <clipPath id="clip-path-26">
      <rect id="Rectangle_834" data-name="Rectangle 834" width="0.349" height="0.459" fill="none"/>
    </clipPath>
  </defs>
  <g id="Group_3459" data-name="Group 3459" transform="translate(-153.439 -76.926)">
    <path id="Path_1726" data-name="Path 1726" d="M441.287,8671.727a27,27,0,0,1-39.4-17.494,26.527,26.527,0,0,1-.535-3.142,26.988,26.988,0,1,1,39.932,20.636" transform="translate(-247.27 -8543.498)" fill="#ffa726"/>
    <g id="Group_1350" data-name="Group 1350" transform="translate(154.158 96.16)">
      <g id="Group_1349" data-name="Group 1349" opacity="0.35" style="isolation: isolate">
        <g id="Group_1348" data-name="Group 1348">
          <g id="Group_1347" data-name="Group 1347" clip-path="url(#clip-path)">
            <g id="Group_1346" data-name="Group 1346" transform="translate(0.103 0.279)">
              <g id="Group_1345" data-name="Group 1345" clip-path="url(#clip-path-2)">
                <path id="Path_1727" data-name="Path 1727" d="M441.493,8683.215a27,27,0,0,1-39.4-17.494c-.143-.61-.263-1.226-.36-1.842a29.865,29.865,0,0,0,20.2,10.886l-.123-.13a4.484,4.484,0,0,1,.109-2.571c.859-2.467,2.864-4.174,6.757-2.815a5.457,5.457,0,0,1,3.784,4.7,29.944,29.944,0,0,0,6.967-2.8c.119-.065.235-.131.352-.2a5.681,5.681,0,0,1,1.291-4.938c1.786-2.136,4.611-2.763,6.54-1.536a29.905,29.905,0,0,0,6.488-13.055,26.966,26.966,0,0,1-12.6,31.792" transform="translate(-401.736 -8651.425)" fill="#371a45"/>
              </g>
            </g>
          </g>
        </g>
      </g>
    </g>
    <g id="Group_1356" data-name="Group 1356" transform="translate(153.439 76.926)">
      <g id="Group_1355" data-name="Group 1355" transform="translate(0.097)" opacity="0.4" style="isolation: isolate">
        <g id="Group_1354" data-name="Group 1354">
          <g id="Group_1353" data-name="Group 1353" clip-path="url(#clip-path-3)">
            <g id="Group_1352" data-name="Group 1352" transform="translate(0.074 0.416)">
              <g id="Group_1351" data-name="Group 1351" clip-path="url(#clip-path-4)">
                <path id="Path_1728" data-name="Path 1728" d="M455.24,8643.187a27.554,27.554,0,0,0-27.746-19.063v.007c.391,1.561-1.253,3.313-3.671,3.921s-4.7-.161-5.089-1.719a1.727,1.727,0,0,1-.042-.221A27.519,27.519,0,0,0,402,8656.539a27.5,27.5,0,1,1,53.239-13.353" transform="translate(-400.69 -8620.648)" fill="#fff"/>
              </g>
            </g>
          </g>
        </g>
      </g>
      <path id="Path_1729" data-name="Path 1729" d="M428.066,8675.33a27.809,27.809,0,0,1-7.625-1.073,27.46,27.46,0,1,1,7.625,1.073m-.085-53.971a26.341,26.341,0,1,0,23.073,13.545,26.194,26.194,0,0,0-23.073-13.545" transform="translate(-400.414 -8620.021)" fill="#371a45"/>
      <path id="Path_1730" data-name="Path 1730" d="M444.193,8682.779a4.99,4.99,0,0,1,.329.839,4.713,4.713,0,0,1,.159.9,4.542,4.542,0,0,1-.026.922,6.868,6.868,0,0,1-.174.887,5.452,5.452,0,0,1-.763,1.689,4.452,4.452,0,0,1-1.415,1.3,4.98,4.98,0,0,1-1.809.595,7.763,7.763,0,0,1-1.842.022c-.3-.034-.594-.077-.9-.138a6.77,6.77,0,0,1-.9-.248,6.1,6.1,0,0,1-.862-.375,5.615,5.615,0,0,1-.8-.5,6.1,6.1,0,0,1-1.325-1.347,5.221,5.221,0,0,1-.818-1.719,4.908,4.908,0,0,1,.455-3.711,5.259,5.259,0,0,1,2.806-2.331,5.883,5.883,0,0,1,3.527-.143.19.19,0,0,1,.133.233.188.188,0,0,1-.2.138,5.89,5.89,0,0,0-3.152.5,4.585,4.585,0,0,0-2.184,2.09,3.947,3.947,0,0,0-.226,2.892,4.621,4.621,0,0,0,1.737,2.373,5.4,5.4,0,0,0,1.336.708,5.134,5.134,0,0,0,.733.209c.254.055.523.1.784.129a6.569,6.569,0,0,0,1.552.031,4.182,4.182,0,0,0,1.423-.4,3.914,3.914,0,0,0,1.86-2.271,7.288,7.288,0,0,0,.228-.762,4.083,4.083,0,0,0,.108-.769,4.528,4.528,0,0,0-.205-1.572l0,0a.236.236,0,0,1,.436-.175" transform="translate(-412.734 -8642.465)" fill="#371a45"/>
    </g>
    <g id="Group_1362" data-name="Group 1362" transform="translate(183.318 94.919)">
      <g id="Group_1361" data-name="Group 1361" opacity="0.4" style="isolation: isolate">
        <g id="Group_1360" data-name="Group 1360">
          <g id="Group_1359" data-name="Group 1359" clip-path="url(#clip-path-5)">
            <g id="Group_1358" data-name="Group 1358" transform="translate(0.081 0.366)">
              <g id="Group_1357" data-name="Group 1357" clip-path="url(#clip-path-6)">
                <path id="Path_1731" data-name="Path 1731" d="M452.71,8657.434a4.141,4.141,0,0,1-3.921-.135,3.762,3.762,0,1,0,.258-7.223c-.118.03-.233.066-.346.105.111-.068.225-.13.344-.189a4.147,4.147,0,1,1,3.665,7.441" transform="translate(-448.701 -8649.567)" fill="#fff"/>
              </g>
            </g>
          </g>
        </g>
      </g>
    </g>
    <g id="Group_1368" data-name="Group 1368" transform="translate(160.361 99.262)">
      <g id="Group_1367" data-name="Group 1367" opacity="0.35" style="isolation: isolate">
        <g id="Group_1366" data-name="Group 1366">
          <g id="Group_1365" data-name="Group 1365" clip-path="url(#clip-path-7)">
            <g id="Group_1364" data-name="Group 1364" transform="translate(0.421 0.199)">
              <g id="Group_1363" data-name="Group 1363" clip-path="url(#clip-path-8)">
                <path id="Path_1732" data-name="Path 1732" d="M423.426,8660.589a5.674,5.674,0,1,1-6.886-4.121,5.675,5.675,0,0,1,6.886,4.121" transform="translate(-412.248 -8656.298)" fill="#371a45"/>
              </g>
            </g>
          </g>
        </g>
      </g>
    </g>
    <g id="Group_1374" data-name="Group 1374" transform="translate(160.518 98.021)">
      <g id="Group_1373" data-name="Group 1373" transform="translate(0.465)" opacity="0.4" style="isolation: isolate">
        <g id="Group_1372" data-name="Group 1372">
          <g id="Group_1371" data-name="Group 1371" clip-path="url(#clip-path-9)">
            <g id="Group_1370" data-name="Group 1370" transform="translate(0.177 0.193)">
              <g id="Group_1369" data-name="Group 1369" clip-path="url(#clip-path-10)">
                <path id="Path_1733" data-name="Path 1733" d="M426.035,8658.96a6.937,6.937,0,0,1-13.111,4.537c-.025-.071-.048-.144-.07-.216a5.674,5.674,0,1,0,3.316-7.694,5.615,5.615,0,0,0-2.087,1.284,6.936,6.936,0,0,1,11.952,2.089" transform="translate(-412.854 -8654.289)" fill="#fff"/>
              </g>
            </g>
          </g>
        </g>
      </g>
      <path id="Path_1734" data-name="Path 1734" d="M413.445,8657.12A5.979,5.979,0,0,1,417,8655.2a6.329,6.329,0,0,1,4.074.739,6.427,6.427,0,0,1,1.644,1.343l.174.2.087.1.077.111c.1.146.207.29.305.44l.262.466c.086.156.15.324.221.489a6.718,6.718,0,0,1,.47,2.084,6.52,6.52,0,0,1-.238,2.126,6.327,6.327,0,0,1-.92,1.93,6.451,6.451,0,0,1-1.488,1.526,6.572,6.572,0,0,1-1.9.942c-.171.043-.338.106-.513.139l-.522.09a6.963,6.963,0,0,1-1.057.043,6.264,6.264,0,0,1-2.054-.422,6.431,6.431,0,0,1-1.778-1.069,6.017,6.017,0,0,1-2.014-3.466.19.19,0,0,1,.366-.1v0a5.883,5.883,0,0,0,2.138,2.937,5.807,5.807,0,0,0,1.6.811,5.714,5.714,0,0,0,2.633.177l.43-.1c.144-.029.28-.089.421-.13a5.362,5.362,0,0,0,3.445-3.66,5.737,5.737,0,0,0,.2-1.715,5.454,5.454,0,0,0-4.177-5.02,5.142,5.142,0,0,0-1.772-.146,5.785,5.785,0,0,0-3.33,1.374.236.236,0,0,1-.329-.336" transform="translate(-411.821 -8654.413)" fill="#371a45"/>
      <path id="Path_1735" data-name="Path 1735" d="M469.132,8671.324a4.6,4.6,0,0,1,.844.167,4.145,4.145,0,0,1,.8.35,4.059,4.059,0,0,1,1.314,1.19,4.6,4.6,0,0,1,.719,1.644,5.09,5.09,0,0,1,.064,1.786,6.069,6.069,0,0,1-.489,1.708,7.342,7.342,0,0,1-.938,1.506,7.912,7.912,0,0,1-1.3,1.2,6.982,6.982,0,0,1-1.574.836,6.232,6.232,0,0,1-1.764.349,4.843,4.843,0,0,1-1.808-.238,4.581,4.581,0,0,1-1.595-.924,4.254,4.254,0,0,1-1.071-1.488,5.056,5.056,0,0,1-.13-3.484,6.388,6.388,0,0,1,.74-1.544,6.667,6.667,0,0,1,1.119-1.25.188.188,0,0,1,.268.014.192.192,0,0,1,0,.248l0,0a7.586,7.586,0,0,0-.86,1.3,6.184,6.184,0,0,0-.5,1.433,4.386,4.386,0,0,0,.312,2.842,3.415,3.415,0,0,0,2.077,1.709,4.481,4.481,0,0,0,2.778-.152,5.748,5.748,0,0,0,2.355-1.657,6.4,6.4,0,0,0,.812-1.206,5.736,5.736,0,0,0,.46-1.372c.017-.121.046-.239.056-.358l.027-.358-.007-.36c0-.121-.028-.236-.037-.357a3.664,3.664,0,0,0-.455-1.345,3.706,3.706,0,0,0-2.3-1.726h0a.236.236,0,0,1,.087-.462" transform="translate(-430.853 -8660.562)" fill="#371a45"/>
    </g>
    <g id="Group_1380" data-name="Group 1380" transform="translate(180.631 95.357)">
      <g id="Group_1379" data-name="Group 1379" transform="translate(0.205 0.183)" opacity="0.35" style="isolation: isolate">
        <g id="Group_1378" data-name="Group 1378">
          <g id="Group_1377" data-name="Group 1377" clip-path="url(#clip-path-11)">
            <g id="Group_1376" data-name="Group 1376" transform="translate(0.064 0.143)">
              <g id="Group_1375" data-name="Group 1375" clip-path="url(#clip-path-12)">
                <path id="Path_1736" data-name="Path 1736" d="M452.082,8653.051a3.761,3.761,0,1,1-4.564-2.729,3.764,3.764,0,0,1,4.564,2.729" transform="translate(-444.673 -8650.208)" fill="#371a45"/>
              </g>
            </g>
          </g>
        </g>
      </g>
      <path id="Path_1737" data-name="Path 1737" d="M445.069,8656.108a3.736,3.736,0,0,1-.828-2.446,3.983,3.983,0,0,1,.254-1.325,4.186,4.186,0,0,1,.691-1.181,4.134,4.134,0,0,1,2.357-1.393,4.145,4.145,0,0,1,2.732.383,4.213,4.213,0,0,1,1.9,1.989,4.154,4.154,0,0,1,.351,1.34,3.9,3.9,0,0,1-.108,1.367,3.978,3.978,0,0,1-.543,1.243,4.056,4.056,0,0,1-.916.971,3.749,3.749,0,0,1-2.435.764.191.191,0,0,1-.181-.2.186.186,0,0,1,.155-.177l.007,0a3.6,3.6,0,0,0,1.94-.982,3.5,3.5,0,0,0,.628-.851,3.369,3.369,0,0,0,.322-.982,3.328,3.328,0,0,0,.043-.506l-.012-.257c0-.085-.022-.168-.031-.252a3.292,3.292,0,0,0-.3-.956,3.172,3.172,0,0,0-1.392-1.378,3.068,3.068,0,0,0-1.93-.287,3.186,3.186,0,0,0-2.337,1.75,3,3,0,0,0-.311.991,3.534,3.534,0,0,0,.34,2.12v0a.237.237,0,0,1-.395.257" transform="translate(-444.24 -8649.683)" fill="#371a45"/>
    </g>
    <g id="Group_1386" data-name="Group 1386" transform="translate(196.969 91.197)">
      <g id="Group_1385" data-name="Group 1385" opacity="0.3" style="isolation: isolate">
        <g id="Group_1384" data-name="Group 1384">
          <g id="Group_1383" data-name="Group 1383" clip-path="url(#clip-path-13)">
            <g id="Group_1382" data-name="Group 1382" transform="translate(0.529 0.335)">
              <g id="Group_1381" data-name="Group 1381" clip-path="url(#clip-path-14)">
                <path id="Path_1738" data-name="Path 1738" d="M475.606,8649.129a1.578,1.578,0,0,1-2,.358,1.363,1.363,0,0,0,1.067-.189c.9-.6,1.049-2.216.342-3.607s-2.007-2.034-2.9-1.436a1.442,1.442,0,0,0-.15.118,1.689,1.689,0,0,1,.13-.177c.8-.969,2.24-.652,3.211.71s1.105,3.254.3,4.223" transform="translate(-471.627 -8643.564)" fill="#fff"/>
                <path id="Path_1739" data-name="Path 1739" d="M474.235,8649.718a2.025,2.025,0,0,1-.862-.208l-.529-.253.574.119a1.287,1.287,0,0,0,1.013-.179c.866-.58,1.009-2.157.318-3.519a2.919,2.919,0,0,0-1.711-1.568,1.3,1.3,0,0,0-1.091.162,1.25,1.25,0,0,0-.142.108l-.383.342.277-.433a1.953,1.953,0,0,1,.135-.182,1.536,1.536,0,0,1,1.283-.586,2.771,2.771,0,0,1,2.039,1.3c.986,1.385,1.12,3.317.3,4.308a1.551,1.551,0,0,1-1.22.587m-.342-.178a1.435,1.435,0,0,0,1.454-.5c.783-.946.646-2.8-.305-4.138a2.637,2.637,0,0,0-1.93-1.243,1.39,1.39,0,0,0-1.008.367,1.481,1.481,0,0,1,.97-.056,3.072,3.072,0,0,1,1.8,1.644c.722,1.42.558,3.078-.366,3.7a1.339,1.339,0,0,1-.615.229" transform="translate(-471.422 -8643.52)" fill="#371a45"/>
              </g>
            </g>
          </g>
        </g>
      </g>
    </g>
    <g id="Group_1392" data-name="Group 1392" transform="translate(196.969 91.817)">
      <g id="Group_1391" data-name="Group 1391" opacity="0.35" style="isolation: isolate">
        <g id="Group_1390" data-name="Group 1390">
          <g id="Group_1389" data-name="Group 1389" clip-path="url(#clip-path-15)">
            <g id="Group_1388" data-name="Group 1388" transform="translate(0.228 0.187)">
              <g id="Group_1387" data-name="Group 1387" clip-path="url(#clip-path-16)">
                <path id="Path_1740" data-name="Path 1740" d="M474.627,8645.934c.707,1.394.554,3.007-.342,3.607s-2.2-.041-2.9-1.435-.554-3.008.342-3.608,2.2.043,2.9,1.436" transform="translate(-470.936 -8644.275)" fill="#371a45"/>
              </g>
            </g>
          </g>
        </g>
      </g>
    </g>
    <g id="Group_1398" data-name="Group 1398" transform="translate(196.785 91.197)">
      <g id="Group_1397" data-name="Group 1397" transform="translate(1.424)" opacity="0.4" style="isolation: isolate">
        <g id="Group_1396" data-name="Group 1396">
          <g id="Group_1395" data-name="Group 1395" clip-path="url(#clip-path-17)">
            <g id="Group_1394" data-name="Group 1394" transform="translate(0.044 0.068)">
              <g id="Group_1393" data-name="Group 1393" clip-path="url(#clip-path-18)">
                <path id="Path_1741" data-name="Path 1741" d="M475.986,8648.957a1.553,1.553,0,0,1-1.321.179.386.386,0,0,0,.075-.046c.9-.6,1.049-2.214.342-3.606a2.489,2.489,0,0,0-2.441-1.63,1.7,1.7,0,0,1,.491-.515c1-.669,2.448.048,3.236,1.6s.616,3.35-.382,4.019" transform="translate(-472.64 -8643.088)" fill="#fff"/>
              </g>
            </g>
          </g>
        </g>
      </g>
      <path id="Path_1742" data-name="Path 1742" d="M471.565,8648.86a3.618,3.618,0,0,1-.986-1.374,3.711,3.711,0,0,1-.294-1.74,2.753,2.753,0,0,1,.233-.937,2.156,2.156,0,0,1,.662-.84,1.918,1.918,0,0,1,1.071-.371,2.235,2.235,0,0,1,1.039.229,3.4,3.4,0,0,1,1.372,1.265,4.336,4.336,0,0,1,.617,1.656,3.5,3.5,0,0,1-.169,1.758,2.127,2.127,0,0,1-.5.771,1.494,1.494,0,0,1-.812.419.189.189,0,0,1-.217-.162.192.192,0,0,1,.1-.194l.008-.006a1.391,1.391,0,0,0,.663-1.051,2.74,2.74,0,0,0,.022-.662,3.769,3.769,0,0,0-.709-1.854,2.478,2.478,0,0,0-.911-.793.838.838,0,0,0-.847.008,1.385,1.385,0,0,0-.508.908,3.4,3.4,0,0,0,.023,1.327,4.31,4.31,0,0,0,.5,1.336l0,.008a.237.237,0,0,1-.092.322.241.241,0,0,1-.269-.023" transform="translate(-470.274 -8643.214)" fill="#371a45"/>
    </g>
    <g id="Group_1404" data-name="Group 1404" transform="translate(181.457 82.51)">
      <g id="Group_1403" data-name="Group 1403" opacity="0.4" style="isolation: isolate">
        <g id="Group_1402" data-name="Group 1402">
          <g id="Group_1401" data-name="Group 1401" clip-path="url(#clip-path-13)">
            <g id="Group_1400" data-name="Group 1400" transform="translate(0.177 0.366)">
              <g id="Group_1399" data-name="Group 1399" clip-path="url(#clip-path-20)">
                <path id="Path_1743" data-name="Path 1743" d="M448.937,8635.62a3.19,3.19,0,0,1-3.015-.1,2.892,2.892,0,1,0,.2-5.553c-.091.023-.179.051-.266.081.086-.051.174-.1.264-.146a3.189,3.189,0,1,1,2.818,5.722" transform="translate(-445.855 -8629.568)" fill="#fff"/>
              </g>
            </g>
          </g>
        </g>
      </g>
    </g>
    <g id="Group_1410" data-name="Group 1410" transform="translate(167.221 82.788)">
      <g id="Group_1409" data-name="Group 1409" transform="translate(12.375 0.343)" opacity="0.35" style="isolation: isolate">
        <g id="Group_1408" data-name="Group 1408">
          <g id="Group_1407" data-name="Group 1407" clip-path="url(#clip-path-21)">
            <g id="Group_1406" data-name="Group 1406" transform="translate(0.117 0.056)">
              <g id="Group_1405" data-name="Group 1405" clip-path="url(#clip-path-22)">
                <path id="Path_1744" data-name="Path 1744" d="M448.455,8632.251a2.892,2.892,0,1,1-3.509-2.1,2.892,2.892,0,0,1,3.509,2.1" transform="translate(-442.758 -8630.065)" fill="#371a45"/>
              </g>
            </g>
          </g>
        </g>
      </g>
      <path id="Path_1745" data-name="Path 1745" d="M442.955,8634.542a2.9,2.9,0,0,1-.694-1.914,3.2,3.2,0,0,1,.732-2.011,3.3,3.3,0,0,1,1.884-1.125,3.314,3.314,0,0,1,2.193.306,3.363,3.363,0,0,1,1.522,1.6,3.292,3.292,0,0,1,.275,1.076,3.125,3.125,0,0,1-.092,1.091,3.173,3.173,0,0,1-.446.986,3.224,3.224,0,0,1-.738.761,2.905,2.905,0,0,1-1.93.562.192.192,0,0,1-.023-.379h0a2.607,2.607,0,0,0,2.1-2.147,2.384,2.384,0,0,0-.239-1.43,2.327,2.327,0,0,0-1.011-.99,2.365,2.365,0,0,0-.677-.216,2.348,2.348,0,0,0-1.988.657,2.458,2.458,0,0,0-.44.6,2.224,2.224,0,0,0-.246.724,2.7,2.7,0,0,0,.2,1.593l0,.006a.237.237,0,0,1-.4.252" transform="translate(-430.078 -8629.426)" fill="#371a45"/>
      <path id="Path_1746" data-name="Path 1746" d="M423.066,8633.673c-.129-.753.829-2.042,2.315-2.606s2.8-.149,3.067.57" transform="translate(-422.788 -8629.949)" fill="#ffa726"/>
      <path id="Path_1747" data-name="Path 1747" d="M422.688,8633.394a1.219,1.219,0,0,1-.053-.553,2.075,2.075,0,0,1,.128-.511,3.2,3.2,0,0,1,.516-.865,4.212,4.212,0,0,1,1.588-1.171,3.766,3.766,0,0,1,1.982-.291,2.573,2.573,0,0,1,.994.348,1.819,1.819,0,0,1,.418.366,1.615,1.615,0,0,1,.157.243,1.076,1.076,0,0,1,.091.276.242.242,0,0,1-.423.2l-.025-.031a1.121,1.121,0,0,0-.568-.331,2.56,2.56,0,0,0-.719-.084,4.252,4.252,0,0,0-1.481.327,4.97,4.97,0,0,0-1.328.809,3.744,3.744,0,0,0-.536.558,1.516,1.516,0,0,0-.313.639l-.006.035a.219.219,0,0,1-.254.18.216.216,0,0,1-.169-.143" transform="translate(-422.625 -8629.634)" fill="#371a45"/>
    </g>
    <g id="Group_1416" data-name="Group 1416" transform="translate(167.188 83.131)">
      <g id="Group_1415" data-name="Group 1415" opacity="0.35" style="isolation: isolate">
        <g id="Group_1414" data-name="Group 1414">
          <g id="Group_1413" data-name="Group 1413" clip-path="url(#clip-path-23)">
            <g id="Group_1412" data-name="Group 1412" transform="translate(0.085 0.509)">
              <g id="Group_1411" data-name="Group 1411" clip-path="url(#clip-path-24)">
                <path id="Path_1748" data-name="Path 1748" d="M422.777,8634c-.35-.765.638-1.967,2.209-2.684s3.126-.676,3.477.091-.639,1.972-2.209,2.685-3.127.678-3.477-.092" transform="translate(-422.707 -8630.801)" fill="#371a45"/>
              </g>
            </g>
          </g>
        </g>
      </g>
    </g>
    <g id="Group_1421" data-name="Group 1421" transform="translate(160.982 91.197)" opacity="0.3" style="isolation: isolate">
      <g id="Group_1420" data-name="Group 1420">
        <g id="Group_1419" data-name="Group 1419" clip-path="url(#clip-path-25)">
          <g id="Group_1418" data-name="Group 1418" transform="translate(0.395 0.614)">
            <g id="Group_1417" data-name="Group 1417" clip-path="url(#clip-path-26)">
              <path id="Path_1749" data-name="Path 1749" d="M413.207,8644.429c.114-.157.228-.311.349-.466-.119.155-.235.308-.349.466" transform="translate(-413.207 -8643.965)" fill="#293856"/>
            </g>
          </g>
        </g>
      </g>
    </g>
  </g>
</svg>
