<svg xmlns="http://www.w3.org/2000/svg" width="605.296" height="486.259" viewBox="0 0 605.296 486.259">
  <g id="Group_1422" data-name="Group 1422" transform="translate(0 0)">
    <path id="Path_1699" data-name="Path 1699" d="M446.629,8997.952c0,.573-1.176,1.076-2.933,1.35a2.07,2.07,0,0,0-1.724,1.725c-.276,1.756-.776,2.933-1.35,2.933s-1.074-1.175-1.349-2.933a2.07,2.07,0,0,0-1.725-1.725c-1.758-.273-2.937-.776-2.937-1.35s1.178-1.078,2.935-1.351a2.071,2.071,0,0,0,1.727-1.726c.276-1.76.776-2.935,1.349-2.935s1.074,1.175,1.35,2.935a2.071,2.071,0,0,0,1.727,1.726c1.755.274,2.93.774,2.93,1.351" transform="translate(-259.955 -8684.232)" fill="#fff"/>
    <path id="Path_1700" data-name="Path 1700" d="M640.742,9266.361c0,.572-1.177,1.072-2.933,1.349a2.069,2.069,0,0,0-1.724,1.724c-.275,1.757-.776,2.934-1.349,2.934s-1.074-1.177-1.349-2.934a2.071,2.071,0,0,0-1.726-1.724c-1.758-.276-2.937-.776-2.937-1.349s1.178-1.079,2.935-1.352a2.078,2.078,0,0,0,1.727-1.726c.275-1.759.776-2.936,1.349-2.936s1.074,1.177,1.349,2.937a2.076,2.076,0,0,0,1.727,1.725c1.755.272,2.93.773,2.93,1.352" transform="translate(-333.631 -8786.108)" fill="#fff"/>
    <path id="Path_1701" data-name="Path 1701" d="M982.784,8591.763c0,.572-1.176,1.074-2.933,1.351a2.07,2.07,0,0,0-1.724,1.722c-.275,1.758-.776,2.936-1.349,2.936s-1.073-1.178-1.349-2.936a2.066,2.066,0,0,0-1.725-1.722c-1.758-.276-2.936-.778-2.936-1.351s1.178-1.078,2.934-1.352a2.071,2.071,0,0,0,1.727-1.725c.275-1.761.776-2.937,1.349-2.937s1.075,1.176,1.349,2.937a2.072,2.072,0,0,0,1.727,1.725c1.755.273,2.93.774,2.93,1.352" transform="translate(-463.456 -8530.059)" fill="#fff"/>
    <path id="Path_1702" data-name="Path 1702" d="M388.762,8742.836c0,.573-1.176,1.072-2.932,1.35a2.07,2.07,0,0,0-1.724,1.723c-.276,1.758-.776,2.934-1.35,2.934s-1.074-1.176-1.349-2.934a2.072,2.072,0,0,0-1.725-1.723c-1.758-.277-2.937-.776-2.937-1.35s1.178-1.078,2.934-1.353a2.073,2.073,0,0,0,1.727-1.726c.275-1.758.776-2.933,1.349-2.933s1.074,1.175,1.349,2.933a2.072,2.072,0,0,0,1.727,1.726c1.755.274,2.93.773,2.93,1.353" transform="translate(-237.991 -8587.401)" fill="#fff"/>
    <path id="Path_1703" data-name="Path 1703" d="M308.461,8649.522c0,.573-1.176,1.072-2.933,1.351a2.067,2.067,0,0,0-1.724,1.723c-.275,1.758-.776,2.932-1.349,2.932s-1.074-1.174-1.349-2.932a2.067,2.067,0,0,0-1.724-1.723c-1.758-.278-2.937-.777-2.937-1.351s1.178-1.08,2.935-1.354a2.07,2.07,0,0,0,1.727-1.724c.275-1.758.776-2.936,1.349-2.936s1.074,1.178,1.349,2.936a2.069,2.069,0,0,0,1.727,1.724c1.755.273,2.93.775,2.93,1.354" transform="translate(-207.512 -8551.983)" fill="#fff"/>
    <path id="Path_1704" data-name="Path 1704" d="M470.11,9209.446c0,.358-.736.67-1.836.843a1.3,1.3,0,0,0-1.08,1.078c-.172,1.1-.485,1.838-.844,1.838s-.673-.736-.845-1.838a1.3,1.3,0,0,0-1.08-1.078c-1.1-.173-1.838-.484-1.838-.843s.737-.676,1.837-.848a1.3,1.3,0,0,0,1.081-1.08c.172-1.1.486-1.837.845-1.837s.672.734.844,1.837a1.3,1.3,0,0,0,1.081,1.08c1.1.172,1.835.484,1.835.848" transform="translate(-270.573 -8765.358)" fill="#fff"/>
    <path id="Path_1705" data-name="Path 1705" d="M1068.291,8751.612c0,.717-1.462,1.337-3.648,1.68a2.582,2.582,0,0,0-2.145,2.146c-.343,2.186-.965,3.647-1.679,3.647s-1.335-1.462-1.678-3.647a2.583,2.583,0,0,0-2.146-2.146c-2.186-.343-3.654-.963-3.654-1.68s1.466-1.339,3.651-1.681a2.573,2.573,0,0,0,2.149-2.146c.343-2.187.965-3.65,1.678-3.65s1.336,1.463,1.679,3.65a2.572,2.572,0,0,0,2.148,2.146c2.184.342,3.645.965,3.645,1.681" transform="translate(-494.797 -8590.177)" fill="#fff"/>
    <path id="Path_1706" data-name="Path 1706" d="M621.387,9009.215c0,.714-1.463,1.335-3.648,1.679a2.575,2.575,0,0,0-2.145,2.144c-.343,2.185-.965,3.65-1.679,3.65s-1.336-1.466-1.679-3.65a2.576,2.576,0,0,0-2.146-2.144c-2.186-.344-3.654-.965-3.654-1.679s1.466-1.342,3.651-1.681a2.58,2.58,0,0,0,2.148-2.146c.343-2.189.965-3.65,1.679-3.65s1.336,1.461,1.679,3.65a2.58,2.58,0,0,0,2.148,2.146c2.184.339,3.645.962,3.645,1.681" transform="translate(-325.172 -8687.951)" fill="#fff"/>
    <path id="Path_1707" data-name="Path 1707" d="M315.853,9200.041a1.924,1.924,0,1,1-1.923-1.925,1.924,1.924,0,0,1,1.923,1.925" transform="translate(-213.419 -8762.487)" fill="#fff"/>
    <path id="Path_1708" data-name="Path 1708" d="M580.585,8707.746a1.924,1.924,0,1,1-2.582-.856,1.921,1.921,0,0,1,2.582.856" transform="translate(-313.976 -8575.963)" fill="#fff"/>
    <path id="Path_1709" data-name="Path 1709" d="M1107.1,8578.575a1.924,1.924,0,1,1-2.582-.858,1.924,1.924,0,0,1,2.582.858" transform="translate(-513.819 -8526.934)" fill="#fff"/>
    <path id="Path_1710" data-name="Path 1710" d="M904.663,8831.512a1.923,1.923,0,1,1-1.924-1.925,1.925,1.925,0,0,1,1.924,1.925" transform="translate(-436.905 -8622.609)" fill="#fff"/>
    <path id="Path_1711" data-name="Path 1711" d="M373.9,8593.787a1.924,1.924,0,1,1-1.924-1.924,1.924,1.924,0,0,1,1.924,1.924" transform="translate(-235.452 -8532.379)" fill="#fff"/>
    <path id="Path_1712" data-name="Path 1712" d="M556.976,8526.238a1.924,1.924,0,1,1-1.924-1.923,1.924,1.924,0,0,1,1.924,1.923" transform="translate(-304.939 -8506.743)" fill="#fff"/>
    <path id="Path_1713" data-name="Path 1713" d="M256.978,8497.917a1.924,1.924,0,1,1-1.924-1.926,1.924,1.924,0,0,1,1.924,1.926" transform="translate(-191.072 -8495.991)" fill="#fff"/>
    <path id="Path_1714" data-name="Path 1714" d="M285.2,8990.992a1.924,1.924,0,1,1-1.924-1.925,1.923,1.923,0,0,1,1.924,1.925" transform="translate(-201.782 -8683.143)" fill="#fff"/>
    <path id="Path_1715" data-name="Path 1715" d="M539.358,8892.665a.989.989,0,1,1-.99-.991.988.988,0,0,1,.99.991" transform="translate(-298.96 -8646.176)" fill="#fff"/>
    <path id="Path_1716" data-name="Path 1716" d="M397.33,8525.114a.989.989,0,1,1-.989-.99.988.988,0,0,1,.989.99" transform="translate(-245.053 -8506.671)" fill="#fff"/>
    <path id="Path_1717" data-name="Path 1717" d="M155.087,8696.164a.989.989,0,1,1-.989-.989.988.988,0,0,1,.989.989" transform="translate(-153.108 -8571.593)" fill="#fff"/>
    <path id="Path_1718" data-name="Path 1718" d="M540.2,8780.337c0,.571-1.176,1.072-2.933,1.349a2.069,2.069,0,0,0-1.724,1.723c-.275,1.758-.776,2.935-1.349,2.935s-1.074-1.177-1.349-2.935a2.068,2.068,0,0,0-1.725-1.723c-1.758-.276-2.937-.777-2.937-1.349s1.178-1.079,2.935-1.354a2.072,2.072,0,0,0,1.727-1.725c.276-1.76.776-2.935,1.349-2.935s1.074,1.175,1.349,2.935a2.072,2.072,0,0,0,1.727,1.725c1.755.274,2.93.775,2.93,1.354" transform="translate(-295.47 -8601.634)" fill="#fff"/>
    <path id="Path_1719" data-name="Path 1719" d="M1038.613,9216.928c0,.574-1.176,1.075-2.934,1.351a2.07,2.07,0,0,0-1.724,1.724c-.275,1.756-.775,2.932-1.349,2.932s-1.073-1.176-1.349-2.932a2.068,2.068,0,0,0-1.725-1.724c-1.758-.275-2.937-.776-2.937-1.351s1.178-1.077,2.934-1.35a2.074,2.074,0,0,0,1.728-1.727c.276-1.76.776-2.934,1.349-2.934s1.074,1.174,1.349,2.936a2.076,2.076,0,0,0,1.727,1.725c1.755.272,2.931.773,2.931,1.35" transform="translate(-484.646 -8767.346)" fill="#fff"/>
    <path id="Path_1720" data-name="Path 1720" d="M1104.055,9161.194a1.924,1.924,0,1,1-1.924-1.925,1.926,1.926,0,0,1,1.924,1.925" transform="translate(-512.585 -8747.743)" fill="#fff"/>
    <path id="Path_1721" data-name="Path 1721" d="M987.131,9065.321a1.924,1.924,0,1,1-1.924-1.923,1.926,1.926,0,0,1,1.924,1.923" transform="translate(-468.206 -8711.354)" fill="#fff"/>
    <path id="Path_1722" data-name="Path 1722" d="M1127.482,9092.521a.99.99,0,1,1-.99-.99.989.989,0,0,1,.99.99" transform="translate(-522.187 -8722.031)" fill="#fff"/>
    <path id="Path_1723" data-name="Path 1723" d="M885.238,9263.572a.989.989,0,1,1-.99-.99.989.989,0,0,1,.99.99" transform="translate(-430.242 -8786.956)" fill="#fff"/>
    <path id="Path_1724" data-name="Path 1724" d="M373.141,8858.075a.989.989,0,1,1-.989-.989.988.988,0,0,1,.989.989" transform="translate(-235.872 -8633.048)" fill="#fff"/>
    <path id="Path_1725" data-name="Path 1725" d="M1091.157,8927.175a.989.989,0,1,1-.99-.989.991.991,0,0,1,.99.989" transform="translate(-508.399 -8659.274)" fill="#fff"/>
  </g>
</svg>
