<svg xmlns="http://www.w3.org/2000/svg" width="1924.486" height="405.877" viewBox="0 0 1924.486 405.877">
  <g id="Group_3459" data-name="Group 3459" transform="translate(-9.15 -699.499)">
    <path id="Path_1583" data-name="Path 1583" d="M1910.3,9614.576l-2.411-107.34c-14.713-17.01-45.227-28.259-74.133-28.259-19.817,0-38,5.284-52.212,14.085-6.626-21.846-32.5-38.148-63.438-38.148a85.251,85.251,0,0,0-16.826,1.666c-15.646-21.569-45.973-36.2-80.83-36.2-44.5,0-81.632,23.841-90.235,55.535-12.248-9.106-29.046-14.728-47.59-14.728-20.106,0-38.162,6.608-50.589,17.1-13.517-17.719-38.825-29.656-67.843-29.656-26.15,0-49.288,9.7-63.5,24.584-12.625-7.524-28.551-12.028-45.88-12.028a98.4,98.4,0,0,0-12.655.828c-11.535-19.591-37.513-33.264-67.731-33.264-29.713,0-55.327,13.214-67.145,32.281-10.891-7.687-25.509-12.4-41.592-12.4a79.721,79.721,0,0,0-16.194,1.654c-9.862-22.822-38.255-39.321-71.763-39.321-21.717,0-41.281,6.931-55.05,18.02a115.72,115.72,0,0,0-44.377-8.6c-44.5,0-81.633,23.841-90.235,55.535-12.248-9.106-29.047-14.728-47.591-14.728-20.106,0-38.162,6.608-50.589,17.1-13.517-17.719-38.824-29.656-67.843-29.656-26.15,0-49.287,9.7-63.5,24.584-12.625-7.524-28.552-12.028-45.881-12.028a98.4,98.4,0,0,0-12.655.828c-11.535-19.591-37.513-33.264-67.731-33.264-29.713,0-55.326,13.214-67.144,32.281-10.892-7.687-25.51-12.4-41.592-12.4a79.732,79.732,0,0,0-16.195,1.654c-9.862-22.822-38.255-39.321-71.763-39.321s-61.923,16.51-71.776,39.344a71.016,71.016,0,0,0-28.65-5.862c-29.231,0-53.293,16.684-56.434,38.134a84.4,84.4,0,0,0-24.6-3.605c-26.171,0-48.773,11.543-59.369,28.259l-1.275,78.941,753.654,3.352a21.707,21.707,0,0,1-1.075,1.94Z" transform="translate(15.664 -8711.469)" fill="#fff" opacity="0.44"/>
    <path id="Path_1584" data-name="Path 1584" d="M1837.6,9544.542c-15.493-11.47-36.743-18.553-60.2-18.553-25.434,0-48.274,8.326-63.995,21.548-17.1-22.328-49.111-37.368-85.819-37.368-33.079,0-62.347,12.217-80.322,30.973-15.97-9.478-36.117-15.152-58.039-15.152a125.122,125.122,0,0,0-16.008,1.043c-14.59-24.685-47.453-41.913-85.678-41.913-37.586,0-69.987,16.65-84.935,40.677-13.778-9.686-32.268-15.627-52.612-15.627a101.172,101.172,0,0,0-20.486,2.086c-12.474-28.759-48.39-49.547-90.777-49.547-27.468,0-52.216,8.733-69.63,22.7a146.932,146.932,0,0,0-56.142-10.834c-56.293,0-103.263,30.035-114.144,69.967-15.493-11.47-36.743-18.553-60.2-18.553-25.434,0-48.274,8.326-63.995,21.548-17.1-22.328-49.111-37.368-85.818-37.368-33.079,0-62.347,12.217-80.323,30.973-15.97-9.478-36.117-15.152-58.038-15.152a125.123,125.123,0,0,0-16.008,1.043c-14.591-24.685-47.452-41.913-85.678-41.913-37.586,0-69.987,16.65-84.935,40.677-13.778-9.686-32.268-15.627-52.613-15.627a101.17,101.17,0,0,0-20.485,2.086c-12.474-28.759-48.39-49.547-90.778-49.547-42.4,0-78.33,20.8-90.794,49.575a90.071,90.071,0,0,0-36.241-7.39c-30.689,0-56.874,14.482-67.162,34.858V9828.1H1930.233V9476.071C1883.806,9482.591,1847.064,9509.824,1837.6,9544.542Z" transform="translate(3.402 -8722.72)" fill="#fff"/>
  </g>
</svg>
