<svg id="Group_56" data-name="Group 56" xmlns="http://www.w3.org/2000/svg" width="66.007" height="65.619" viewBox="0 0 66.007 65.619">
  <g id="Group_55" data-name="Group 55">
    <g id="Group_47" data-name="Group 47">
      <g id="Group_46" data-name="Group 46">
        <path id="Path_16" data-name="Path 16" d="M1578.935,839.469c-.426-.076-6.841.048-9.589-.424l-.278-.05A32.969,32.969,0,0,1,1542.5,801.38a32.83,32.83,0,0,1,38.23-26.995c.212.038.423.078.635.121a32.819,32.819,0,0,1,13.612,58.143C1593.184,834.038,1579.811,839.628,1578.935,839.469Z" transform="translate(-1542.071 -773.853)" fill="#ed1b24"/>
      </g>
    </g>
    <g id="Group_49" data-name="Group 49" transform="translate(2.194 2.198)" opacity="0.5">
      <g id="Group_48" data-name="Group 48">
        <path id="Path_17" data-name="Path 17" d="M1582.651,779.881a30.634,30.634,0,0,0-36.267,25.078,30.3,30.3,0,0,0,1.583,15.7,30.573,30.573,0,0,1,33.53-43.437,30.687,30.687,0,0,1,22.6,19.265A30.625,30.625,0,0,0,1582.651,779.881Z" transform="translate(-1544.828 -776.615)" fill="#fff"/>
      </g>
    </g>
    <g id="Group_50" data-name="Group 50" transform="translate(3.869 15.672)" opacity="0.3">
      <path id="Path_18" data-name="Path 18" d="M1601.205,793.539a30.535,30.535,0,0,1-6.483,41.316c-2.569,2-14.373,6.223-16.3,6.383a30.614,30.614,0,0,1-31.486-20.625c2.181,3.228,13.991,19.154,39.467,9.275C1609.352,820.988,1602.087,796.07,1601.205,793.539Z" transform="translate(-1546.931 -793.539)" fill="#102770"/>
    </g>
    <g id="Group_51" data-name="Group 51" transform="translate(18.929 19.281)">
      <path id="Path_19" data-name="Path 19" d="M1592.558,803.538h0c-2.524-3.637-7.617-3.986-11.253-1.463l-.566.393-.392-.566c-2.524-3.636-7.417-5.089-11.053-2.565h0a8.014,8.014,0,0,0-2.015,11.153l.393.565,7.934,11.432a2.113,2.113,0,0,0,2.941.531l11.431-7.934.566-.393A8.014,8.014,0,0,0,1592.558,803.538Z" transform="translate(-1565.847 -798.071)" fill="#fff"/>
    </g>
    <g id="Group_52" data-name="Group 52" transform="translate(40.469 27.146)" opacity="0.5">
      <path id="Path_20" data-name="Path 20" d="M1596.3,809.612a2.893,2.893,0,0,0-3.17-1.567c-.628.3.181,1.189.893,2.665s1.057,2.985,1.686,2.681S1597.011,811.088,1596.3,809.612Z" transform="translate(-1592.903 -807.95)" fill="#fce5e5"/>
    </g>
    <g id="Group_54" data-name="Group 54" transform="translate(38.428 24.662)" opacity="0.5">
      <g id="Group_53" data-name="Group 53">
        <path id="Path_21" data-name="Path 21" d="M1590.375,805.223a.9.9,0,0,0,1.467.9.862.862,0,0,0-1.467-.9Z" transform="translate(-1590.34 -804.831)" fill="#fce5e5"/>
      </g>
    </g>
  </g>
  <path id="Path_22" data-name="Path 22" d="M1569.747,838.811a32.683,32.683,0,1,1,37.971-26.355A32.72,32.72,0,0,1,1569.747,838.811Zm11.164-61.821a30.138,30.138,0,1,0,24.3,35.014A30.171,30.171,0,0,0,1580.911,776.99Z" transform="translate(-1542.234 -773.875)" fill="#371a45"/>
</svg>
