<svg xmlns="http://www.w3.org/2000/svg" width="246.861" height="229.93" viewBox="0 0 246.861 229.93">
  <g id="Group_3464" data-name="Group 3464" transform="translate(-713.368 -212.493)">
    <g id="Group_345" data-name="Group 345" transform="translate(713.368 212.493)">
      <path id="Path_355" data-name="Path 355" d="M845.13,596.079c-17.541,0-33.671-12.609-41.089-32.12a2.269,2.269,0,0,0-2.118-1.46,2.4,2.4,0,0,0-.313.02c-10.355,1.434-25.924,3.338-41.5,3.338-38.536,0-64.174-11.537-78.378-35.272-18.654-31.175-16.517-73.988,5.194-104.117a1.282,1.282,0,0,1,.24-.237,2.3,2.3,0,0,0,.491-.543,77.991,77.991,0,0,1,8.821-11.74c22.583-26.635,57.255-37.049,82.382-41.115a168.69,168.69,0,0,1,26.866-2.151c45.638,0,97.086,19.29,104.611,73.435,2.647,19.032.424,37.271-6.43,52.745a2.13,2.13,0,0,0-.115.323,51.6,51.6,0,0,1-9.185,18.516,2.259,2.259,0,0,0-.214.31c-9.013,15.753-23.378,27.587-41.54,34.225a2.268,2.268,0,0,0-1.433,2.624c.217.973.479,2,.84,3.139,2.581,8.179,6.524,18.074,14.168,22.02a2.322,2.322,0,0,0,.569.2,3.576,3.576,0,0,0,.556.5.727.727,0,0,1-.206.75,2.11,2.11,0,0,0-.2.278.975.975,0,0,1-.487.466,41.559,41.559,0,0,1-10.391,2.723,2.267,2.267,0,0,0-1.388,3.774,20.834,20.834,0,0,0,5.972,4.571c.359.173.356.271.351.408a1.69,1.69,0,0,1-.941,1.316,40.1,40.1,0,0,1-15.134,3.072Z" transform="translate(-666.844 -368.416)" fill="#fff"/>
      <path id="Path_356" data-name="Path 356" d="M852.776,551.492c.2.915.451,1.877.79,2.952,2.209,7,5.951,17.026,13.047,20.688a2.436,2.436,0,0,1,1.476.927c1.345,1.047,1.162,2.76.147,3.984a3.228,3.228,0,0,1-1.579,1.4,43.562,43.562,0,0,1-10.955,2.872,18.448,18.448,0,0,0,5.323,4.076c2.784,1.343,1.515,4.919-.765,5.845-26.162,10.632-50.064-6.321-59.2-30.342-42.178,5.837-97.081,8.841-122.129-33.016-19.292-32.24-16.617-76.193,5.3-106.606a3.485,3.485,0,0,1,.662-.681A79.554,79.554,0,0,1,693.99,411.5c19.65-23.182,50.469-36.412,83.653-41.781,55.509-8.982,125.117,8.695,134.086,73.208,2.581,18.563.817,37.221-6.6,53.976a54.108,54.108,0,0,1-9.618,19.356C885.95,532.962,871.1,544.794,852.776,551.492Zm-3.126-16.423c6.5-3.805,14.792-4.63,21.444-8.759a69.487,69.487,0,0,0,15.563-12.453,75.756,75.756,0,0,0,18.067-35.939c4.577-23.743,1.193-53.119-15.34-72.012-23.2-26.52-60-35.207-94-32.052-54.5,5.055-115.716,31.235-116.6,94.464-.331,23.511,7.642,48.182,26.8,63.1,28.585,22.26,69.539,17.905,103.131,13.1a3.3,3.3,0,0,1,3.934,2.235c6.738,20.568,25.147,35.355,46.343,30.374C849.129,566.846,838.114,541.824,849.649,535.068Zm24.222-130.5c16.628,15.7,19.311,34.827,24.811,55.639a.478.478,0,0,0,.915,0c7.257-34.513-30.273-76.267-64.022-79.732a.452.452,0,0,0-.227.839C849.8,387.86,862.095,393.453,873.871,404.568Zm24.555,59.6a.328.328,0,0,0-.367.15c-.909,1.4-.754,3.354-1.056,4.96-.156.831-.686,3.634,1.017,3.44,1.9-.215,1.813-3.191,1.949-4.588C900.111,466.667,900.02,464.731,898.426,464.165ZM751.4,540.209c-12.638-3.57-24.082-6.386-35.317-13.683-12.3-7.989-18.9-19.325-26.963-31.016a.3.3,0,0,0-.548.231c3.812,24.469,38.622,48.621,62.654,45.744A.653.653,0,0,0,751.4,540.209Zm8.871-.016c-1.569.083-3.29,0-4.441,1.249a.278.278,0,0,0,0,.387c1.151,1.246,2.872,1.165,4.441,1.248,1.857.1,3.385.1,4.866-1.123a.45.45,0,0,0,0-.637C763.653,540.1,762.125,540.1,760.268,540.193Z" transform="translate(-665.985 -367.542)"/>
    </g>
    <text id="HELLO_" data-name="HELLO!!" transform="translate(836.953 310.469) rotate(-8.053)" font-size="56" font-family="SnowyNight, Snowy Night" letter-spacing="-0.015em"><tspan x="-69.076" y="0">HELLO!!</tspan></text>
    <text id="My_name_is_bishu" data-name="My name is bishu" transform="translate(842.574 347.046) rotate(-8.053)" font-size="21" font-family="SnowyNight, Snowy Night" letter-spacing="-0.015em"><tspan x="-74.655" y="0">My name is bishu</tspan></text>
  </g>
</svg>
