<svg id="Group_273" data-name="Group 273" xmlns="http://www.w3.org/2000/svg" width="41.294" height="47.562" viewBox="0 0 41.294 47.562">
  <g id="Group_272" data-name="Group 272">
    <path id="Path_309" data-name="Path 309" d="M1983.586,135.076c-.516-.073-.539-.1-.295-.123a8.117,8.117,0,0,1,2.306.2,9.918,9.918,0,0,1,5.053,3.385l.441.515.638-.1a13.681,13.681,0,0,1,7.85.981,10.2,10.2,0,0,1,1.766,1.03,2.377,2.377,0,0,1,.172.687,4.161,4.161,0,0,1-.27,2.674.717.717,0,0,0-.074.785.74.74,0,0,0,.662.417c.589,0,1.2-.932,1.5-2.232l.123-.515.22.245a9.651,9.651,0,0,1,2.379,4.71l.05.368-.221-.32a4.154,4.154,0,0,0-1.177-1.25c-.835-.564-1.717-.736-4.048-.859a16.581,16.581,0,0,1-4.489-.686c-2.011-.662-3.041-1.521-5.42-4.685a22.48,22.48,0,0,0-2.379-2.8A8.321,8.321,0,0,0,1983.586,135.076Z" transform="translate(-1967.396 -124.259)" fill="#f2f2f2"/>
    <path id="Path_310" data-name="Path 310" d="M2005.157,138.349a5.313,5.313,0,0,1,.441-2.109,1.669,1.669,0,0,1,.221-.417c.025,0-.025.171-.1.367a4.69,4.69,0,0,0-.1,2.159c.171,1.1.246,1.251,1.422,2.453.54.564,1.178,1.275,1.423,1.57l.417.54-.417-.393a14.912,14.912,0,0,0-1.962-1.545c-.171-.1-.2-.1-.319.025-.1.1-.123.245-.123.956a5.258,5.258,0,0,1-.539,2.5c-.2.368-.221.294-.049-.123a3.581,3.581,0,0,0,.147-1.521c0-2.134-.245-2.649-1.741-3.508-.368-.221-1.005-.54-1.374-.711a5.556,5.556,0,0,1-.662-.319,10.885,10.885,0,0,1,2.06.613c.859.344,1.006.368,1.1.344C2005.083,139.159,2005.132,138.962,2005.157,138.349Z" transform="translate(-1970.693 -124.416)" fill="#f2f2f2"/>
    <path id="Path_311" data-name="Path 311" d="M1984.567,142.088a8.665,8.665,0,0,1-1.545-5.274l.049-.515.246.049a5.749,5.749,0,0,1,1.57.588c.981.589,1.422,1.4,1.839,3.41.123.588.295,1.275.368,1.5a8.869,8.869,0,0,0,.981,1.766c.27.393.1.589-.515.54A5.023,5.023,0,0,1,1984.567,142.088Z" transform="translate(-1967.371 -124.5)" fill="#f2f2f2"/>
    <path id="Path_312" data-name="Path 312" d="M2002.94,154.722c-4.856-1.963-6.573-3.655-6.573-6.525,0-.418.024-.761.024-.761a4.519,4.519,0,0,1,.417.32c.981.785,2.085,1.128,5.151,1.569a21.393,21.393,0,0,1,3.752.785,7.166,7.166,0,0,1,5.25,5.716,9.89,9.89,0,0,1-.148,3.066,6.149,6.149,0,0,1-.784,1.766c-.025,0-.074-.123-.074-.319a3.99,3.99,0,0,0-1.422-2.772C2007.5,156.684,2006.178,156.021,2002.94,154.722Z" transform="translate(-1969.727 -126.464)" fill="#f2f2f2"/>
    <path id="Path_313" data-name="Path 313" d="M1997.946,156.965a5.79,5.79,0,0,0-.245-1.03l-.123-.368.221.27a4.307,4.307,0,0,1,.785,1.423,3.061,3.061,0,0,1,.172,1.373,3.139,3.139,0,0,1-.172,1.325,4.452,4.452,0,0,1-1.03,1.643,5.9,5.9,0,0,1-3.68,1.619c-.294.025-1.129.1-1.864.147a14.371,14.371,0,0,0-4.17.687c-.147.049-.294.1-.319.073a5.542,5.542,0,0,1,1.325-.785,13.372,13.372,0,0,1,3.679-.981,16.88,16.88,0,0,0,2.184-.441A4.239,4.239,0,0,0,1997.946,156.965Z" transform="translate(-1968.168 -127.897)" fill="#f2f2f2"/>
    <path id="Path_314" data-name="Path 314" d="M2002.755,161.155a5.725,5.725,0,0,1-.441-3.974c.049-.123.1-.245.147-.245a1.055,1.055,0,0,1,.343.171c.294.2.908.54,2.477,1.4a12.516,12.516,0,0,1,3.9,2.87,6.068,6.068,0,0,1,1.3,2.968,9.744,9.744,0,0,1-.123,2.919,7.228,7.228,0,0,1-3.557,4.709,3.386,3.386,0,0,1-.516.246,2,2,0,0,1,.221-.54,4.868,4.868,0,0,0,.221-3.8,15.608,15.608,0,0,0-1.962-3.532A23.243,23.243,0,0,1,2002.755,161.155Z" transform="translate(-1970.744 -128.139)" fill="#f2f2f2"/>
    <path id="Path_315" data-name="Path 315" d="M1980.593,170.522a13.333,13.333,0,0,1,6.108-2.943,9.079,9.079,0,0,1,3.164.123,5.463,5.463,0,0,1,3.091,1.987,7.328,7.328,0,0,1,1.128,3.336c.1.662.22,1.349.245,1.5a3.293,3.293,0,0,0,1.079,1.938,3.735,3.735,0,0,0,3.385.1,1.659,1.659,0,0,1,.417-.123,3.737,3.737,0,0,1-1.054.712,3.474,3.474,0,0,1-1.766.417,3.54,3.54,0,0,1-2.993-1.84,13.621,13.621,0,0,1-.81-1.619c-.858-1.987-1.3-2.576-2.306-3.238a3.022,3.022,0,0,0-2.871-.269,1.848,1.848,0,0,0-.637,2.87,2.509,2.509,0,0,0,1.4.736,1.5,1.5,0,0,0,1.692-1.5,1.175,1.175,0,0,0-.809-1.2c-.785-.343-1.645.049-1.62.81a.675.675,0,0,0,.466.662c.2.1.2.1.049.073a.909.909,0,0,1-.32-1.594,1.765,1.765,0,0,1,2.625.564,2.568,2.568,0,0,1,.048,1.668,2.293,2.293,0,0,1-2.8,1.324,4,4,0,0,1-2.134-1.447,6.521,6.521,0,0,0-4.833-2.478l-.465-.073Z" transform="translate(-1966.856 -130)" fill="#f2f2f2"/>
    <path id="Path_316" data-name="Path 316" d="M1964.86,123.03c5.716,6.941,14.521,17.734,14.963,18.323.368.49.221.956-.392,1.3a3.759,3.759,0,0,1-1.4.393,1.772,1.772,0,0,1-1.178-.516c-.221-.221-1.177-1.619-3.336-4.979-1.643-2.576-3.041-4.709-3.066-4.734-.1-.049-.1-.049,2.895,5.3a42.784,42.784,0,0,1,2.5,4.71c0,.319-.1.49-.49.932a5.458,5.458,0,0,0-1.178,3.311c-.245,1.938-.908,3.311-2.8,5.642a10.1,10.1,0,0,0-1.545,2.184,4.138,4.138,0,0,0-.49,1.962,6.117,6.117,0,0,0,.319,2.4,8.2,8.2,0,0,0,1.177,2.306,5.7,5.7,0,0,1,.908,1.791c0,.2.05.2.932,0a9.706,9.706,0,0,0,4.807-2.355,2.219,2.219,0,0,0,.737-1.864,2,2,0,0,0-.172-1.03,4.4,4.4,0,0,0-1.716-1.668c-1.325-.908-1.889-1.643-2.036-2.624-.123-.834.025-1.4.76-2.944a8.8,8.8,0,0,0,1.08-3.875c.073-1.03.2-1.447.49-1.766a1.829,1.829,0,0,1,1.349-.564,4.5,4.5,0,0,0,2.7-1.1,2.307,2.307,0,0,0,.834-1.791l.025-.564-.319-.343c-1.153-1.325-17.121-18.887-17.195-18.887C1964,121.975,1964.394,122.441,1964.86,123.03Zm7.531,34.88a1.012,1.012,0,0,0-.319-1.349c-.417-.27-1.055-.147-1.055.221a.25.25,0,0,0,.2.245c.221.122.246.245.074.515s-.172.515.049.687A.7.7,0,0,0,1972.391,157.91Z" transform="translate(-1964.025 -121.975)" fill="#f2f2f2" fill-rule="evenodd"/>
    <path id="Path_317" data-name="Path 317" d="M1985.948,149.925a2.175,2.175,0,0,0-1.324,1.447,2.11,2.11,0,0,0,.123,1.324c.269.344.515.442,1.2.442,1.349,0,2.5-.589,2.624-1.3a1.9,1.9,0,0,0-1.1-1.766A2.487,2.487,0,0,0,1985.948,149.925Zm1.57,1.226a.552.552,0,0,0-.245-.834c-.662-.417-1.668-.073-1.668.564,0,.319.515.662,1.006.662A1.356,1.356,0,0,0,1987.518,151.152Z" transform="translate(-1967.648 -126.892)" fill="#f2f2f2" fill-rule="evenodd"/>
  </g>
</svg>
