<svg id="Group_616" data-name="Group 616" xmlns="http://www.w3.org/2000/svg" width="596.52" height="561.548" viewBox="0 0 596.52 561.548">
  <g id="Group_615" data-name="Group 615" transform="translate(0)">
    <g id="Group_584" data-name="Group 584" transform="translate(134.827 359.904)">
      <path id="Path_752" data-name="Path 752" d="M358.48,4859.249c0,.567-1.159,1.058-2.89,1.33a2.043,2.043,0,0,0-1.7,1.7c-.271,1.73-.764,2.89-1.329,2.89s-1.058-1.159-1.33-2.89a2.043,2.043,0,0,0-1.7-1.7c-1.732-.272-2.894-.763-2.894-1.33s1.161-1.062,2.892-1.332a2.042,2.042,0,0,0,1.7-1.7c.271-1.733.764-2.891,1.33-2.891s1.058,1.158,1.329,2.893a2.043,2.043,0,0,0,1.7,1.7C357.321,4858.187,358.48,4858.681,358.48,4859.249Z" transform="translate(-346.637 -4853.326)" fill="#fff"/>
    </g>
    <g id="Group_585" data-name="Group 585" transform="translate(290.816 549.703)">
      <path id="Path_753" data-name="Path 753" d="M613.593,5169.658c0,.564-1.159,1.058-2.89,1.329a2.043,2.043,0,0,0-1.7,1.7c-.272,1.731-.765,2.891-1.33,2.891s-1.058-1.16-1.33-2.891a2.043,2.043,0,0,0-1.7-1.7c-1.732-.271-2.894-.765-2.894-1.329s1.161-1.062,2.892-1.332a2.044,2.044,0,0,0,1.7-1.7c.271-1.733.764-2.893,1.33-2.893s1.058,1.159,1.33,2.893a2.044,2.044,0,0,0,1.7,1.7C612.435,5168.6,613.593,5169.088,613.593,5169.658Z" transform="translate(-601.75 -5163.733)" fill="#fff"/>
    </g>
    <g id="Group_586" data-name="Group 586" transform="translate(524.415 137.831)">
      <path id="Path_754" data-name="Path 754" d="M995.634,4496.057c0,.566-1.159,1.059-2.89,1.331a2.044,2.044,0,0,0-1.7,1.7c-.271,1.732-.764,2.891-1.33,2.891s-1.058-1.158-1.329-2.89a2.044,2.044,0,0,0-1.7-1.7c-1.732-.272-2.894-.765-2.894-1.331s1.161-1.063,2.891-1.331a2.045,2.045,0,0,0,1.7-1.7c.271-1.734.764-2.892,1.329-2.892s1.058,1.159,1.33,2.892a2.044,2.044,0,0,0,1.7,1.7C994.476,4494.994,995.634,4495.489,995.634,4496.057Z" transform="translate(-983.792 -4490.134)" fill="#fff"/>
    </g>
    <g id="Group_587" data-name="Group 587" transform="translate(136.742 229.594)">
      <path id="Path_755" data-name="Path 755" d="M361.612,4646.132c0,.564-1.159,1.058-2.89,1.329a2.044,2.044,0,0,0-1.7,1.7c-.272,1.732-.765,2.89-1.33,2.89s-1.058-1.158-1.33-2.89a2.044,2.044,0,0,0-1.7-1.7c-1.732-.271-2.894-.764-2.894-1.329s1.161-1.062,2.892-1.333a2.043,2.043,0,0,0,1.7-1.7c.272-1.734.764-2.893,1.33-2.893s1.058,1.158,1.33,2.893a2.043,2.043,0,0,0,1.7,1.7C360.454,4645.07,361.612,4645.563,361.612,4646.132Z" transform="translate(-349.769 -4640.208)" fill="#fff"/>
    </g>
    <g id="Group_588" data-name="Group 588" transform="translate(87.643 172.537)">
      <path id="Path_756" data-name="Path 756" d="M281.312,4552.817c0,.565-1.159,1.059-2.89,1.33a2.044,2.044,0,0,0-1.7,1.7c-.271,1.731-.765,2.891-1.33,2.891s-1.058-1.16-1.33-2.891a2.044,2.044,0,0,0-1.7-1.7c-1.732-.271-2.894-.764-2.894-1.33s1.161-1.062,2.892-1.332a2.042,2.042,0,0,0,1.7-1.7c.271-1.734.764-2.893,1.33-2.893s1.058,1.158,1.33,2.893a2.041,2.041,0,0,0,1.7,1.7C280.154,4551.755,281.312,4552.249,281.312,4552.817Z" transform="translate(-269.469 -4546.894)" fill="#fff"/>
    </g>
    <g id="Group_589" data-name="Group 589" transform="translate(189.23 516.275)">
      <path id="Path_757" data-name="Path 757" d="M443.025,5112.771c0,.355-.726.664-1.809.833a1.28,1.28,0,0,0-1.064,1.064c-.17,1.084-.479,1.81-.833,1.81s-.662-.725-.832-1.81a1.28,1.28,0,0,0-1.064-1.064c-1.085-.169-1.812-.478-1.812-.833s.727-.664,1.81-.833a1.28,1.28,0,0,0,1.066-1.064c.17-1.085.478-1.811.832-1.811s.663.725.833,1.811a1.279,1.279,0,0,0,1.065,1.064C442.3,5112.107,443.025,5112.417,443.025,5112.771Z" transform="translate(-435.611 -5109.064)" fill="#fff"/>
    </g>
    <g id="Group_590" data-name="Group 590" transform="translate(202.058 3.7)">
      <path id="Path_758" data-name="Path 758" d="M464,4274.476c0,.354-.725.663-1.809.833a1.278,1.278,0,0,0-1.064,1.063c-.17,1.085-.479,1.81-.833,1.81s-.662-.725-.832-1.81a1.28,1.28,0,0,0-1.064-1.063c-1.085-.17-1.812-.479-1.812-.833s.727-.665,1.811-.833a1.282,1.282,0,0,0,1.066-1.065c.17-1.084.478-1.81.832-1.81s.663.726.833,1.81a1.28,1.28,0,0,0,1.065,1.065C463.28,4273.811,464,4274.119,464,4274.476Z" transform="translate(-456.591 -4270.768)" fill="#fff"/>
    </g>
    <g id="Group_591" data-name="Group 591" transform="translate(557.784 210.829)">
      <path id="Path_759" data-name="Path 759" d="M1053.1,4616.889c0,.7-1.441,1.316-3.6,1.654a2.543,2.543,0,0,0-2.114,2.115c-.338,2.153-.951,3.6-1.655,3.6s-1.317-1.442-1.654-3.6a2.542,2.542,0,0,0-2.114-2.114c-2.156-.338-3.6-.951-3.6-1.654s1.444-1.322,3.6-1.657a2.541,2.541,0,0,0,2.117-2.115c.338-2.155.951-3.6,1.654-3.6s1.317,1.442,1.655,3.6a2.541,2.541,0,0,0,2.117,2.115C1051.659,4615.567,1053.1,4616.181,1053.1,4616.889Z" transform="translate(-1038.366 -4609.519)" fill="#fff"/>
    </g>
    <g id="Group_592" data-name="Group 592" transform="translate(302.869 376.288)">
      <path id="Path_760" data-name="Path 760" d="M636.2,4887.489c0,.7-1.442,1.317-3.6,1.655a2.541,2.541,0,0,0-2.115,2.114c-.337,2.154-.951,3.6-1.655,3.6s-1.316-1.441-1.654-3.6a2.542,2.542,0,0,0-2.114-2.114c-2.155-.338-3.6-.952-3.6-1.655s1.444-1.321,3.6-1.656a2.542,2.542,0,0,0,2.117-2.116c.338-2.156.951-3.6,1.654-3.6s1.317,1.441,1.655,3.6a2.543,2.543,0,0,0,2.117,2.116C634.756,4886.167,636.2,4886.782,636.2,4887.489Z" transform="translate(-621.463 -4880.121)" fill="#fff"/>
    </g>
    <g id="Group_593" data-name="Group 593" transform="translate(408.769 19.736)">
      <circle id="Ellipse_93" data-name="Ellipse 93" cx="1.896" cy="1.896" r="1.896" fill="#fff"/>
    </g>
    <g id="Group_594" data-name="Group 594" transform="translate(97.158 511.651)">
      <circle id="Ellipse_94" data-name="Ellipse 94" cx="1.896" cy="1.896" r="1.896" fill="#fff"/>
    </g>
    <g id="Group_595" data-name="Group 595" transform="translate(447.479 96.824)">
      <circle id="Ellipse_95" data-name="Ellipse 95" cx="1.896" cy="1.896" r="1.896" fill="#fff"/>
    </g>
    <g id="Group_596" data-name="Group 596" transform="translate(549.294 48.414)">
      <circle id="Ellipse_96" data-name="Ellipse 96" cx="1.896" cy="1.896" r="1.896" fill="#fff"/>
    </g>
    <g id="Group_597" data-name="Group 597" transform="translate(457.185 286.314)">
      <circle id="Ellipse_97" data-name="Ellipse 97" cx="1.896" cy="1.896" r="1.896" fill="#fff"/>
    </g>
    <g id="Group_598" data-name="Group 598" transform="translate(132.652 140.958)">
      <circle id="Ellipse_98" data-name="Ellipse 98" cx="1.896" cy="1.896" r="1.896" fill="#fff"/>
    </g>
    <g id="Group_599" data-name="Group 599" transform="translate(294.731 64.802)">
      <circle id="Ellipse_99" data-name="Ellipse 99" cx="1.896" cy="1.896" r="1.896" fill="#fff"/>
    </g>
    <g id="Group_600" data-name="Group 600" transform="translate(146.456 22.47)">
      <circle id="Ellipse_100" data-name="Ellipse 100" cx="1.896" cy="1.896" r="1.896" fill="#fff"/>
    </g>
    <g id="Group_601" data-name="Group 601" transform="translate(61.159 82.337)">
      <circle id="Ellipse_101" data-name="Ellipse 101" cx="1.896" cy="1.896" r="1.896" fill="#fff"/>
    </g>
    <g id="Group_602" data-name="Group 602" transform="translate(78.412 383.828)">
      <circle id="Ellipse_102" data-name="Ellipse 102" cx="1.896" cy="1.896" r="1.896" fill="#fff"/>
    </g>
    <g id="Group_603" data-name="Group 603" transform="translate(342.135)">
      <circle id="Ellipse_103" data-name="Ellipse 103" cx="0.975" cy="0.975" r="0.975" fill="#fff"/>
    </g>
    <g id="Group_604" data-name="Group 604" transform="translate(234.962 324.277)">
      <circle id="Ellipse_104" data-name="Ellipse 104" cx="0.975" cy="0.975" r="0.975" fill="#fff"/>
    </g>
    <g id="Group_605" data-name="Group 605" transform="translate(148.119 99.539)">
      <circle id="Ellipse_105" data-name="Ellipse 105" cx="0.975" cy="0.975" r="0.975" fill="#fff"/>
    </g>
    <g id="Group_606" data-name="Group 606" transform="translate(0 204.127)">
      <circle id="Ellipse_106" data-name="Ellipse 106" cx="0.975" cy="0.975" r="0.975" fill="#fff"/>
    </g>
    <g id="Group_607" data-name="Group 607" transform="translate(530.172 358.304)">
      <path id="Path_761" data-name="Path 761" d="M1005.05,4856.632c0,.564-1.159,1.058-2.89,1.329a2.043,2.043,0,0,0-1.7,1.7c-.271,1.73-.764,2.89-1.33,2.89s-1.059-1.16-1.33-2.89a2.044,2.044,0,0,0-1.7-1.7c-1.732-.271-2.895-.765-2.895-1.329s1.161-1.063,2.892-1.333a2.041,2.041,0,0,0,1.7-1.7c.271-1.733.765-2.892,1.33-2.892s1.059,1.158,1.33,2.892a2.041,2.041,0,0,0,1.7,1.7C1003.892,4855.569,1005.05,4856.063,1005.05,4856.632Z" transform="translate(-993.207 -4850.708)" fill="#fff"/>
    </g>
    <g id="Group_608" data-name="Group 608" transform="translate(534.093 519.477)">
      <path id="Path_762" data-name="Path 762" d="M1011.463,5120.225c0,.565-1.159,1.058-2.89,1.33a2.04,2.04,0,0,0-1.7,1.7c-.271,1.73-.765,2.889-1.33,2.889s-1.058-1.159-1.33-2.889a2.041,2.041,0,0,0-1.7-1.7c-1.732-.272-2.894-.765-2.894-1.33s1.161-1.062,2.892-1.332a2.042,2.042,0,0,0,1.7-1.7c.272-1.733.764-2.892,1.33-2.892s1.058,1.159,1.329,2.892a2.043,2.043,0,0,0,1.7,1.7C1010.306,5119.163,1011.463,5119.656,1011.463,5120.225Z" transform="translate(-999.621 -5114.301)" fill="#fff"/>
    </g>
    <g id="Group_609" data-name="Group 609" transform="translate(579.103 487.899)">
      <circle id="Ellipse_107" data-name="Ellipse 107" cx="1.896" cy="1.896" r="1.896" fill="#fff"/>
    </g>
    <g id="Group_610" data-name="Group 610" transform="translate(507.61 429.278)">
      <circle id="Ellipse_108" data-name="Ellipse 108" cx="1.896" cy="1.896" r="1.896" fill="#fff"/>
    </g>
    <g id="Group_611" data-name="Group 611" transform="translate(594.57 446.479)">
      <circle id="Ellipse_109" data-name="Ellipse 109" cx="0.975" cy="0.975" r="0.975" fill="#fff"/>
    </g>
    <g id="Group_612" data-name="Group 612" transform="translate(446.45 551.068)">
      <circle id="Ellipse_110" data-name="Ellipse 110" cx="0.975" cy="0.975" r="0.975" fill="#fff"/>
    </g>
    <g id="Group_613" data-name="Group 613" transform="translate(133.329 303.128)">
      <circle id="Ellipse_111" data-name="Ellipse 111" cx="0.975" cy="0.975" r="0.975" transform="translate(0)" fill="#fff"/>
    </g>
    <g id="Group_614" data-name="Group 614" transform="translate(572.359 345.378)">
      <circle id="Ellipse_112" data-name="Ellipse 112" cx="0.975" cy="0.975" r="0.975" fill="#fff"/>
    </g>
  </g>
</svg>
