<svg id="Group_747" data-name="Group 747" xmlns="http://www.w3.org/2000/svg" xmlns:xlink="http://www.w3.org/1999/xlink" width="70.682" height="70.682" viewBox="0 0 70.682 70.682">
  <defs>
    <clipPath id="clip-path">
      <rect id="Rectangle_261" data-name="Rectangle 261" width="60.373" height="60.373" transform="matrix(0.982, -0.189, 0.189, 0.982, 0, 11.393)" fill="none"/>
    </clipPath>
  </defs>
  <g id="Group_746" data-name="Group 746" transform="translate(0 0)">
    <g id="Group_745" data-name="Group 745" transform="translate(0)" clip-path="url(#clip-path)">
      <g id="Group_744" data-name="Group 744" transform="translate(5.149 5.148)">
        <path id="Path_1057" data-name="Path 1057" d="M255.758,4755.425a30.187,30.187,0,1,0-35.34-23.948A30.188,30.188,0,0,0,255.758,4755.425Z" transform="translate(-219.87 -4695.588)" fill="#3375bb"/>
        <path id="Path_1058" data-name="Path 1058" d="M261.538,4752.985a1.9,1.9,0,0,1-1.147-.139,50.213,50.213,0,0,0-6.294-2.354c-7.943-2.52-10.436-4.229-15.025-26.3a1.888,1.888,0,0,1,1.491-2.238l.327-.062a19.644,19.644,0,0,0,12.162-6.651,1.885,1.885,0,0,1,2.376-.457,19.666,19.666,0,0,0,13.778,1.667l.33-.063a1.885,1.885,0,0,1,2.214,1.525c3.92,22.2,2.234,24.711-4.218,30a49.843,49.843,0,0,0-4.98,4.521A1.89,1.89,0,0,1,261.538,4752.985Zm-18.38-27.706c4.072,19.076,6.028,19.7,12.081,21.617a58.227,58.227,0,0,1,5.51,1.981,58.3,58.3,0,0,1,4.391-3.887c4.919-4.031,6.508-5.334,3.221-24.552a23.211,23.211,0,0,1-13.4-1.665A23.177,23.177,0,0,1,243.158,4725.279Z" transform="translate(-227.315 -4702.953)" fill="#fff"/>
      </g>
    </g>
  </g>
</svg>
