<svg id="Group_751" data-name="Group 751" xmlns="http://www.w3.org/2000/svg" width="66.468" height="66.468" viewBox="0 0 66.468 66.468">
  <circle id="Ellipse_136" data-name="Ellipse 136" cx="33.234" cy="33.234" r="33.234" transform="translate(0)" fill="#ff1f7a"/>
  <g id="Group_750" data-name="Group 750" transform="translate(14.527 9.618)">
    <g id="Group_749" data-name="Group 749">
      <g id="Group_748" data-name="Group 748">
        <path id="Path_1059" data-name="Path 1059" d="M801.693,5065.9c-.481-.069-.5-.091-.275-.113a7.488,7.488,0,0,1,2.151.183,9.238,9.238,0,0,1,4.714,3.158l.412.48.595-.091a12.755,12.755,0,0,1,7.323.916,9.375,9.375,0,0,1,1.648.962,2.2,2.2,0,0,1,.16.641,3.879,3.879,0,0,1-.252,2.494.67.67,0,0,0-.068.732.689.689,0,0,0,.618.389c.549,0,1.121-.869,1.4-2.083l.114-.48.206.229a9.008,9.008,0,0,1,2.22,4.393l.045.344-.205-.3a3.868,3.868,0,0,0-1.1-1.168c-.778-.526-1.6-.686-3.776-.8a15.479,15.479,0,0,1-4.188-.641c-1.877-.618-2.838-1.419-5.058-4.372a21.152,21.152,0,0,0-2.22-2.609A7.775,7.775,0,0,0,801.693,5065.9Z" transform="translate(-786.587 -5055.811)" fill="#f2f2f2"/>
        <path id="Path_1060" data-name="Path 1060" d="M827.877,5069.246a4.946,4.946,0,0,1,.412-1.968,1.543,1.543,0,0,1,.206-.39.864.864,0,0,1-.092.344,4.372,4.372,0,0,0-.092,2.014c.16,1.03.229,1.166,1.327,2.288.5.527,1.1,1.189,1.328,1.466l.389.5-.389-.367a14.025,14.025,0,0,0-1.831-1.442c-.16-.092-.184-.092-.3.023-.091.091-.114.229-.114.893a4.9,4.9,0,0,1-.5,2.333c-.183.344-.206.275-.046-.114a3.34,3.34,0,0,0,.137-1.419c0-1.99-.229-2.472-1.625-3.272-.344-.207-.939-.5-1.282-.665a5.05,5.05,0,0,1-.618-.3,10.219,10.219,0,0,1,1.922.573c.8.32.939.343,1.03.32C827.808,5070,827.854,5069.817,827.877,5069.246Z" transform="translate(-795.722 -5056.246)" fill="#f2f2f2"/>
        <path id="Path_1061" data-name="Path 1061" d="M802.563,5072.888a8.089,8.089,0,0,1-1.442-4.92l.046-.48.229.046a5.33,5.33,0,0,1,1.465.549c.915.548,1.328,1.3,1.716,3.182.114.549.275,1.189.344,1.4a8.286,8.286,0,0,0,.915,1.647c.251.366.091.549-.481.5A4.688,4.688,0,0,1,802.563,5072.888Z" transform="translate(-786.519 -5056.48)" fill="#f2f2f2"/>
        <path id="Path_1062" data-name="Path 1062" d="M824.034,5088.283c-4.531-1.832-6.133-3.411-6.133-6.088,0-.39.023-.71.023-.71a4.276,4.276,0,0,1,.389.3c.915.731,1.946,1.053,4.806,1.464a19.992,19.992,0,0,1,3.5.732,6.686,6.686,0,0,1,4.9,5.333,9.264,9.264,0,0,1-.137,2.86,5.745,5.745,0,0,1-.733,1.647c-.023,0-.069-.115-.069-.3a3.728,3.728,0,0,0-1.327-2.587C828.291,5090.113,827.056,5089.494,824.034,5088.283Z" transform="translate(-793.047 -5061.917)" fill="#f2f2f2"/>
        <path id="Path_1063" data-name="Path 1063" d="M816.51,5093.007a5.442,5.442,0,0,0-.229-.961l-.114-.344.206.251a4.03,4.03,0,0,1,.732,1.328,2.856,2.856,0,0,1,.16,1.281,2.912,2.912,0,0,1-.16,1.236,4.136,4.136,0,0,1-.961,1.534,5.513,5.513,0,0,1-3.433,1.51c-.274.023-1.053.091-1.739.138a13.4,13.4,0,0,0-3.891.64c-.138.046-.274.092-.3.068a5.222,5.222,0,0,1,1.236-.732,12.485,12.485,0,0,1,3.433-.916,15.647,15.647,0,0,0,2.037-.412A3.956,3.956,0,0,0,816.51,5093.007Z" transform="translate(-788.726 -5065.888)" fill="#f2f2f2"/>
        <path id="Path_1064" data-name="Path 1064" d="M825.729,5097.361a5.343,5.343,0,0,1-.412-3.708c.045-.115.091-.229.137-.229a.981.981,0,0,1,.32.16c.275.183.847.5,2.311,1.306a11.677,11.677,0,0,1,3.64,2.677,5.661,5.661,0,0,1,1.212,2.77,9.062,9.062,0,0,1-.114,2.724,6.748,6.748,0,0,1-3.318,4.394,3.22,3.22,0,0,1-.481.229,1.821,1.821,0,0,1,.206-.5,4.543,4.543,0,0,0,.206-3.547,14.553,14.553,0,0,0-1.831-3.295A21.827,21.827,0,0,1,825.729,5097.361Z" transform="translate(-795.863 -5066.556)" fill="#f2f2f2"/>
        <path id="Path_1065" data-name="Path 1065" d="M797.909,5109.521a12.429,12.429,0,0,1,5.7-2.745,8.457,8.457,0,0,1,2.952.114,5.1,5.1,0,0,1,2.884,1.853,6.836,6.836,0,0,1,1.053,3.112c.091.618.206,1.258.229,1.4a3.067,3.067,0,0,0,1.007,1.808,3.48,3.48,0,0,0,3.158.092,1.618,1.618,0,0,1,.389-.116,3.455,3.455,0,0,1-.984.664,3.228,3.228,0,0,1-1.648.39,3.3,3.3,0,0,1-2.792-1.718,12.7,12.7,0,0,1-.755-1.51c-.8-1.854-1.213-2.4-2.152-3.021a2.818,2.818,0,0,0-2.677-.252,1.724,1.724,0,0,0-.6,2.678,2.342,2.342,0,0,0,1.3.686,1.4,1.4,0,0,0,1.579-1.4,1.1,1.1,0,0,0-.755-1.121c-.732-.32-1.533.045-1.51.754a.629.629,0,0,0,.435.619c.183.092.183.092.046.068a.848.848,0,0,1-.3-1.487,1.646,1.646,0,0,1,2.449.525,2.4,2.4,0,0,1,.046,1.556,2.141,2.141,0,0,1-2.609,1.236,3.725,3.725,0,0,1-1.992-1.351,6.082,6.082,0,0,0-4.508-2.311l-.435-.068Z" transform="translate(-785.092 -5071.714)" fill="#f2f2f2"/>
        <path id="Path_1066" data-name="Path 1066" d="M778.031,5050.467c5.332,6.477,13.548,16.546,13.961,17.1.343.457.206.893-.366,1.212a3.485,3.485,0,0,1-1.3.367,1.653,1.653,0,0,1-1.1-.48c-.206-.206-1.1-1.511-3.112-4.646-1.534-2.4-2.838-4.394-2.861-4.417-.092-.045-.092-.045,2.7,4.944a39.944,39.944,0,0,1,2.334,4.395c0,.3-.091.458-.457.869a5.1,5.1,0,0,0-1.1,3.09c-.229,1.807-.847,3.089-2.609,5.263a9.466,9.466,0,0,0-1.442,2.036,3.881,3.881,0,0,0-.457,1.832,5.733,5.733,0,0,0,.3,2.243,7.671,7.671,0,0,0,1.1,2.151,5.327,5.327,0,0,1,.847,1.671c0,.182.046.182.869,0a9.057,9.057,0,0,0,4.486-2.2,2.074,2.074,0,0,0,.687-1.741,1.86,1.86,0,0,0-.16-.96,4.1,4.1,0,0,0-1.6-1.557,3.621,3.621,0,0,1-1.9-2.449c-.114-.778.023-1.3.71-2.745a8.224,8.224,0,0,0,1.007-3.617c.068-.962.183-1.351.457-1.647a1.7,1.7,0,0,1,1.259-.527,4.2,4.2,0,0,0,2.518-1.029,2.151,2.151,0,0,0,.778-1.671l.023-.527-.3-.32c-1.076-1.235-15.974-17.622-16.043-17.622C777.23,5049.484,777.6,5049.919,778.031,5050.467Zm7.026,32.545a.946.946,0,0,0-.3-1.26c-.389-.251-.984-.137-.984.208a.233.233,0,0,0,.183.227c.206.115.229.229.069.481s-.16.48.046.64A.653.653,0,0,0,785.057,5083.012Z" transform="translate(-777.252 -5049.484)" fill="#f2f2f2" fill-rule="evenodd"/>
        <path id="Path_1067" data-name="Path 1067" d="M804.361,5084.593a2.03,2.03,0,0,0-1.237,1.351,1.974,1.974,0,0,0,.115,1.236c.251.32.48.412,1.121.412,1.258,0,2.334-.549,2.449-1.213a1.769,1.769,0,0,0-1.03-1.647A2.32,2.32,0,0,0,804.361,5084.593Zm1.464,1.145a.515.515,0,0,0-.229-.778c-.618-.389-1.556-.068-1.556.525,0,.3.481.619.938.619A1.263,1.263,0,0,0,805.825,5085.738Z" transform="translate(-787.287 -5063.104)" fill="#f2f2f2" fill-rule="evenodd"/>
      </g>
    </g>
  </g>
</svg>
