<svg xmlns="http://www.w3.org/2000/svg" width="50.2" height="80.954" viewBox="0 0 50.2 80.954">
  <g id="Group_739" data-name="Group 739" transform="translate(0 0)">
    <path id="Path_1049" data-name="Path 1049" d="M392.575,4360.057l-.351,1.9,5.568,53.53.6.485,23.32-17.271Z" transform="translate(-372.016 -4360.057)" fill="#343434"/>
    <path id="Path_1050" data-name="Path 1050" d="M379.734,4360.057l-20.559,43.812,26.375,12.1-2.7-25.981Z" transform="translate(-359.174 -4360.057)" fill="#8c8c8c"/>
    <path id="Path_1051" data-name="Path 1051" d="M402.94,4448.226l-.267.4,1.983,19.068.4.861,21.22-37.6Z" transform="translate(-376.076 -4387.605)" fill="#3c3c3b"/>
    <path id="Path_1052" data-name="Path 1052" d="M388.465,4471.845l-2.115-20.335-26.374-12.1Z" transform="translate(-359.486 -4390.891)" fill="#8c8c8c"/>
    <path id="Path_1053" data-name="Path 1053" d="M400.592,4434.993l23.319-17.271-26.022-8.709Z" transform="translate(-374.217 -4379.078)" fill="#141414"/>
    <path id="Path_1054" data-name="Path 1054" d="M359.175,4422.891l26.375,12.1-2.7-25.98Z" transform="translate(-359.174 -4379.078)" fill="#393939"/>
  </g>
</svg>
