<svg id="Group_579" data-name="Group 579" xmlns="http://www.w3.org/2000/svg" width="73.111" height="73.547" viewBox="0 0 73.111 73.547">
  <g id="Group_550" data-name="Group 550" transform="translate(43.05 21.294)">
    <path id="Path_692" data-name="Path 692" d="M964.967,4617.3l-29.677,7,8.417-8.044Z" transform="translate(-935.098 -4616.058)" fill="#e17726"/>
    <path id="Path_693" data-name="Path 693" d="M935.167,4624.365a.192.192,0,0,1-.169-.1.2.2,0,0,1,.036-.231l8.417-8.044a.18.18,0,0,1,.142-.052l21.26,1.046a.192.192,0,0,1,.035.379l-29.677,7A.182.182,0,0,1,935.167,4624.365Zm8.491-8.042-7.847,7.5,27.667-6.523Z" transform="translate(-934.975 -4615.935)" fill="#e17726"/>
  </g>
  <g id="Group_551" data-name="Group 551" transform="translate(20.861 0)">
    <path id="Path_694" data-name="Path 694" d="M899,4581.425l15.031,26.442.336-11.712Z" transform="translate(-898.808 -4581.233)" fill="#e27625"/>
    <path id="Path_695" data-name="Path 695" d="M913.909,4607.937a.192.192,0,0,1-.167-.1L898.711,4581.4a.192.192,0,0,1,.3-.234l15.366,14.73a.192.192,0,0,1,.059.144l-.336,11.713a.192.192,0,0,1-.146.181A.216.216,0,0,1,913.909,4607.937ZM899.7,4582.352l14.04,24.7.314-10.941Z" transform="translate(-898.686 -4581.111)" fill="#e27625"/>
  </g>
  <g id="Group_552" data-name="Group 552" transform="translate(38.05 57.538)">
    <path id="Path_696" data-name="Path 696" d="M937.044,4675.527l-9.932,6.591,11.285,9.035,9.037-10.911Z" transform="translate(-926.921 -4675.334)" fill="#e27625"/>
    <path id="Path_697" data-name="Path 697" d="M938.276,4691.221a.189.189,0,0,1-.12-.042l-11.286-9.035a.19.19,0,0,1-.071-.158.192.192,0,0,1,.085-.152l9.932-6.591a.191.191,0,0,1,.186-.014l10.39,4.716a.187.187,0,0,1,.108.132.192.192,0,0,1-.039.165l-9.037,10.911A.192.192,0,0,1,938.276,4691.221Zm-10.96-9.211,10.932,8.751L947,4680.19l-10.065-4.568Z" transform="translate(-926.799 -4675.211)" fill="#e27625"/>
  </g>
  <g id="Group_553" data-name="Group 553" transform="translate(0 37.861)">
    <path id="Path_698" data-name="Path 698" d="M866.625,4643.345l-1.742,14.053,14.319,1.993-2.012-11.735Z" transform="translate(-864.691 -4643.152)" fill="#e27625"/>
    <path id="Path_699" data-name="Path 699" d="M879.08,4659.46h-.027l-14.318-1.994a.192.192,0,0,1-.165-.213l1.743-14.054a.191.191,0,0,1,.093-.141.193.193,0,0,1,.17-.013l10.565,4.311a.193.193,0,0,1,.117.146l2.011,11.736a.192.192,0,0,1-.189.224Zm-14.1-2.35,13.871,1.931-1.949-11.371-10.233-4.176Z" transform="translate(-864.569 -4643.03)" fill="#e27625"/>
  </g>
  <g id="Group_554" data-name="Group 554" transform="translate(18.347 24.991)">
    <path id="Path_700" data-name="Path 700" d="M900.781,4626.252l-5.893,3.861,12.447,6.031,5.456-13.848Z" transform="translate(-894.697 -4622.104)" fill="#e27625"/>
    <path id="Path_701" data-name="Path 701" d="M907.214,4636.214a.2.2,0,0,1-.084-.019l-12.447-6.031a.19.19,0,0,1-.108-.16.193.193,0,0,1,.086-.175l5.893-3.86a.217.217,0,0,1,.045-.022l12.011-3.955a.191.191,0,0,1,.2.051.19.19,0,0,1,.039.2l-5.456,13.849a.188.188,0,0,1-.109.108A.179.179,0,0,1,907.214,4636.214Zm-12.058-6.249,11.956,5.793,5.23-13.273-11.6,3.819Z" transform="translate(-894.575 -4621.982)" fill="#e27625"/>
  </g>
  <g id="Group_555" data-name="Group 555" transform="translate(37.68 28.111)">
    <path id="Path_702" data-name="Path 702" d="M938.2,4639.06l-5.445-11.661-6.247,13.693,12.934,4.9Z" transform="translate(-926.316 -4627.207)" fill="#e27625"/>
    <path id="Path_703" data-name="Path 703" d="M939.32,4646.064a.213.213,0,0,1-.068-.012l-12.934-4.9a.192.192,0,0,1-.107-.26l6.247-13.695a.192.192,0,0,1,.174-.112h0a.191.191,0,0,1,.174.111l5.445,11.662a.187.187,0,0,1,.015.046l1.242,6.934a.192.192,0,0,1-.189.227Zm-12.674-5.2,12.425,4.708L937.893,4639l-5.258-11.261Z" transform="translate(-926.193 -4627.084)" fill="#e27625"/>
  </g>
  <g id="Group_556" data-name="Group 556" transform="translate(14.319 45.488)">
    <path id="Path_704" data-name="Path 704" d="M888.3,4664.238l9.261-.43-4.378-7.987Z" transform="translate(-888.108 -4655.628)" fill="#e27625"/>
    <path id="Path_705" data-name="Path 705" d="M888.179,4664.308a.192.192,0,0,1-.164-.093.19.19,0,0,1,0-.2l4.884-8.417a.189.189,0,0,1,.168-.1.192.192,0,0,1,.166.1l4.377,7.986a.192.192,0,0,1-.159.285l-9.262.43Zm4.879-8.218-4.536,7.817,8.6-.4Z" transform="translate(-887.986 -4655.505)" fill="#e27625"/>
  </g>
  <g id="Group_557" data-name="Group 557" transform="translate(32 54.798)">
    <path id="Path_706" data-name="Path 706" d="M917.218,4673.351l6.05,7.025,2.762-9.331Z" transform="translate(-917.026 -4670.852)" fill="#e27625"/>
    <path id="Path_707" data-name="Path 707" d="M923.146,4680.445a.194.194,0,0,1-.145-.066l-6.05-7.024a.193.193,0,0,1,.1-.312l8.811-2.307a.193.193,0,0,1,.233.241l-2.762,9.332a.2.2,0,0,1-.184.137Zm-5.7-7.109,5.619,6.526,2.565-8.668Z" transform="translate(-916.904 -4670.729)" fill="#e27625"/>
  </g>
  <g id="Group_558" data-name="Group 558" transform="translate(29.489 57.104)">
    <path id="Path_708" data-name="Path 708" d="M921.672,4681.84l-6.05-7.025-1.541,5.254-.971,2.071Z" transform="translate(-912.919 -4674.623)" fill="#d5bfb2"/>
    <path id="Path_709" data-name="Path 709" d="M912.989,4682.21a.192.192,0,0,1-.174-.272l.971-2.072,1.53-5.226a.192.192,0,0,1,.33-.071l6.049,7.025a.192.192,0,0,1-.139.318l-8.561.3Zm2.6-7.123L914.144,4680l-.848,1.813,7.847-.274Z" transform="translate(-912.797 -4674.502)" fill="#d5bfb2"/>
  </g>
  <g id="Group_559" data-name="Group 559" transform="translate(14.319 53.477)">
    <path id="Path_710" data-name="Path 710" d="M888.3,4669.314l5.664,6.426.86-2.119,2.737-4.738Z" transform="translate(-888.109 -4668.691)" fill="#d5bfb2"/>
    <path id="Path_711" data-name="Path 711" d="M893.843,4675.811a.2.2,0,0,1-.144-.065l-5.664-6.427a.189.189,0,0,1-.033-.2.192.192,0,0,1,.168-.117l9.261-.43a.2.2,0,0,1,.173.092.193.193,0,0,1,0,.2l-2.738,4.739-.848,2.094a.187.187,0,0,1-.146.117A.118.118,0,0,1,893.843,4675.811Zm-5.256-6.445,5.2,5.894.743-1.831,2.573-4.457Z" transform="translate(-887.986 -4668.57)" fill="#d5bfb2"/>
  </g>
  <g id="Group_560" data-name="Group 560" transform="translate(21.25 40.121)">
    <path id="Path_712" data-name="Path 712" d="M905.2,4651.777l-5.561-4.616,5.378-.119Z" transform="translate(-899.444 -4646.85)" fill="#233447"/>
    <path id="Path_713" data-name="Path 713" d="M905.074,4651.847a.189.189,0,0,1-.122-.044l-5.561-4.616a.192.192,0,0,1-.059-.211.19.19,0,0,1,.178-.127l5.378-.121h0a.193.193,0,0,1,.192.185l.183,4.736a.19.19,0,0,1-.107.179A.193.193,0,0,1,905.074,4651.847Zm-5.042-4.627,4.833,4.012-.159-4.116Z" transform="translate(-899.321 -4646.727)" fill="#233447"/>
  </g>
  <g id="Group_561" data-name="Group 561" transform="translate(36.045 45.714)">
    <path id="Path_714" data-name="Path 714" d="M923.833,4659.309l3.567-3.121,3.63,4Z" transform="translate(-923.641 -4655.995)" fill="#233447"/>
    <path id="Path_715" data-name="Path 715" d="M930.907,4660.258a.1.1,0,0,1-.023,0l-7.2-.879a.192.192,0,0,1-.1-.334l3.566-3.12a.191.191,0,0,1,.269.016l3.63,4a.192.192,0,0,1-.143.321Zm-6.746-1.21,6.257.765-3.156-3.477Z" transform="translate(-923.519 -4655.875)" fill="#233447"/>
  </g>
  <g id="Group_562" data-name="Group 562" transform="translate(12.22 42.374)">
    <path id="Path_716" data-name="Path 716" d="M886.967,4662.259l5.054-8.692-7.153-2.841Z" transform="translate(-884.676 -4650.534)" fill="#cc6228"/>
    <path id="Path_717" data-name="Path 717" d="M886.845,4662.33a.182.182,0,0,1-.033,0,.192.192,0,0,1-.157-.156l-2.1-11.532a.194.194,0,0,1,.067-.184.191.191,0,0,1,.192-.028l7.154,2.84a.2.2,0,0,1,.111.116.193.193,0,0,1-.015.16l-5.055,8.692A.2.2,0,0,1,886.845,4662.33ZM885,4650.911l1.944,10.679,4.681-8.048Z" transform="translate(-884.554 -4650.412)" fill="#cc6228"/>
  </g>
  <g id="Group_563" data-name="Group 563" transform="translate(38.05 54.485)">
    <path id="Path_718" data-name="Path 718" d="M929.956,4670.532l-2.844,9.645,9.845-6.389Z" transform="translate(-926.92 -4670.34)" fill="#cc6228"/>
    <path id="Path_719" data-name="Path 719" d="M926.99,4680.247a.192.192,0,0,1-.184-.247l2.844-9.643a.187.187,0,0,1,.1-.121.191.191,0,0,1,.16,0l7,3.255a.193.193,0,0,1,.024.336l-9.845,6.389A.2.2,0,0,1,926.99,4680.247Zm2.965-9.567-2.634,8.931,9.117-5.917Z" transform="translate(-926.798 -4670.219)" fill="#cc6228"/>
  </g>
  <g id="Group_564" data-name="Group 564" transform="translate(36.045 41.805)">
    <path id="Path_720" data-name="Path 720" d="M938.4,4654.7l-12.934-4.9-1.636,7.029,3.567-3.12,3.63,4Z" transform="translate(-923.641 -4649.603)" fill="#cc6228"/>
    <path id="Path_721" data-name="Path 721" d="M930.907,4657.775a.192.192,0,0,1-.142-.064l-3.5-3.859-3.425,3a.192.192,0,0,1-.314-.188l1.635-7.029a.2.2,0,0,1,.1-.126.193.193,0,0,1,.158-.01l12.934,4.9a.192.192,0,0,1,0,.357l-7.373,3.007A.188.188,0,0,1,930.907,4657.775Zm-3.63-4.386a.193.193,0,0,1,.143.064l3.539,3.9,6.8-2.772-12.272-4.65-1.45,6.236,3.118-2.729A.188.188,0,0,1,927.277,4653.389Z" transform="translate(-923.519 -4649.481)" fill="#cc6228"/>
  </g>
  <g id="Group_565" data-name="Group 565" transform="translate(18.347 32.808)">
    <path id="Path_722" data-name="Path 722" d="M897.791,4642.513l5.378-.119.183,4.735,3.984-6.018-12.447-6.031Z" transform="translate(-894.697 -4634.887)" fill="#cc6228"/>
    <path id="Path_723" data-name="Path 723" d="M903.23,4647.2a.157.157,0,0,1-.051-.008.191.191,0,0,1-.141-.177l-.175-4.547-5.19.117a.205.205,0,0,1-.183-.124l-2.9-7.432a.193.193,0,0,1,.263-.243l12.447,6.031a.191.191,0,0,1,.1.123.2.2,0,0,1-.025.158l-3.984,6.017A.192.192,0,0,1,903.23,4647.2Zm-.183-5.12a.193.193,0,0,1,.192.184l.16,4.141,3.534-5.336-11.809-5.724,2.675,6.852,5.244-.116Z" transform="translate(-894.574 -4634.766)" fill="#cc6228"/>
  </g>
  <g id="Group_566" data-name="Group 566" transform="translate(18.347 32.807)">
    <path id="Path_724" data-name="Path 724" d="M894.889,4635.08l.855,12.682,2.047-5.249Z" transform="translate(-894.697 -4634.887)" fill="#e27525"/>
    <path id="Path_725" data-name="Path 725" d="M895.622,4647.833l-.029,0a.192.192,0,0,1-.163-.177l-.855-12.681a.192.192,0,0,1,.37-.084l2.9,7.435a.186.186,0,0,1,0,.138l-2.047,5.249A.194.194,0,0,1,895.622,4647.833Zm-.58-11.64.714,10.575,1.706-4.377Z" transform="translate(-894.575 -4634.766)" fill="#e27525"/>
  </g>
  <g id="Group_567" data-name="Group 567" transform="translate(40.811 46.707)">
    <path id="Path_726" data-name="Path 726" d="M934.058,4660.819l-2.43,5.084,9.8-8.091Z" transform="translate(-931.436 -4657.62)" fill="#e27525"/>
    <path id="Path_727" data-name="Path 727" d="M931.506,4665.973a.2.2,0,0,1-.118-.041.192.192,0,0,1-.055-.234l2.43-5.084a.189.189,0,0,1,.1-.094l7.373-3.008a.193.193,0,0,1,.2.327l-9.8,8.091A.191.191,0,0,1,931.506,4665.973Zm2.572-5.126-2.023,4.232,8.161-6.737Z" transform="translate(-931.314 -4657.497)" fill="#e27525"/>
  </g>
  <g id="Group_568" data-name="Group 568" transform="translate(24.984 38.839)">
    <path id="Path_728" data-name="Path 728" d="M911.554,4644.945l-3.984,6.018-1.827,8.341,4.682-10Z" transform="translate(-905.551 -4644.753)" fill="#e27525"/>
    <path id="Path_729" data-name="Path 729" d="M905.621,4659.375a.2.2,0,0,1-.062-.011.193.193,0,0,1-.126-.224l1.826-8.34a.193.193,0,0,1,.028-.065l3.984-6.018a.192.192,0,0,1,.347.154l-1.128,4.358-4.695,10.035A.194.194,0,0,1,905.621,4659.375Zm2.007-8.458-1.451,6.626,3.952-8.442.83-3.215Z" transform="translate(-905.429 -4644.631)" fill="#e27525"/>
  </g>
  <g id="Group_569" data-name="Group 569" transform="translate(31.238 41.805)">
    <path id="Path_730" data-name="Path 730" d="M922.414,4649.8l-2.36,3.8-4.083,10.286,4.807-7.059Z" transform="translate(-915.78 -4649.603)" fill="#e27525"/>
    <path id="Path_731" data-name="Path 731" d="M915.85,4663.952a.205.205,0,0,1-.091-.022.193.193,0,0,1-.088-.241l4.082-10.287,2.375-3.831a.191.191,0,0,1,.237-.076.193.193,0,0,1,.114.221l-1.636,7.029a.184.184,0,0,1-.029.064l-4.807,7.058A.19.19,0,0,1,915.85,4663.952Zm5.991-13.188-1.746,2.811-3.427,8.642,3.809-5.593Z" transform="translate(-915.658 -4649.48)" fill="#e27525"/>
  </g>
  <g id="Group_570" data-name="Group 570" transform="translate(31.238 48.834)">
    <path id="Path_732" data-name="Path 732" d="M920.778,4661.291l-4.807,7.058.762,1.211,8.811-2.306,2.43-5.085Z" transform="translate(-915.78 -4661.099)" fill="#f5841f"/>
    <path id="Path_733" data-name="Path 733" d="M916.612,4669.63a.192.192,0,0,1-.163-.089l-.762-1.212a.191.191,0,0,1,0-.209l4.806-7.058a.188.188,0,0,1,.182-.083l7.2.879a.193.193,0,0,1,.15.274l-2.43,5.084a.193.193,0,0,1-.125.1l-8.811,2.306A.212.212,0,0,1,916.612,4669.63Zm-.533-1.4.621.986,8.589-2.248,2.276-4.763-6.815-.833Z" transform="translate(-915.658 -4660.977)" fill="#f5841f"/>
  </g>
  <g id="Group_571" data-name="Group 571" transform="translate(19.202 40.241)">
    <path id="Path_734" data-name="Path 734" d="M898.335,4647.237l-2.047,5.249,4.378,7.987,1.4-.279,1.826-8.342Z" transform="translate(-896.095 -4647.045)" fill="#f5841f"/>
    <path id="Path_735" data-name="Path 735" d="M900.543,4660.542a.193.193,0,0,1-.169-.1L896,4652.455a.191.191,0,0,1-.01-.162l2.047-5.248a.19.19,0,0,1,.131-.117.193.193,0,0,1,.171.04l5.561,4.615a.192.192,0,0,1,.065.189l-1.826,8.342a.194.194,0,0,1-.151.147l-1.4.278A.2.2,0,0,1,900.543,4660.542Zm-4.166-8.193,4.267,7.786,1.142-.226,1.775-8.1-5.266-4.372Z" transform="translate(-895.973 -4646.922)" fill="#f5841f"/>
  </g>
  <g id="Group_572" data-name="Group 572" transform="translate(14.319 53.907)">
    <path id="Path_736" data-name="Path 736" d="M903.471,4680.109l.971-2.07-.349-.738-8.514-3.668-.754.265-.86,2.119-5.664-6.428,1.61,3.1,3.55,5.679,8.647,3.725,6.565-1.323,3.359-.96Z" transform="translate(-888.108 -4669.395)" fill="#c0ac9d"/>
    <path id="Path_737" data-name="Path 737" d="M901.985,4682.162a.19.19,0,0,1-.076-.016l-8.647-3.725a.2.2,0,0,1-.087-.075l-3.549-5.679-1.617-3.114a.192.192,0,0,1,.314-.215l5.46,6.193.743-1.831a.194.194,0,0,1,.114-.111l.754-.262a.186.186,0,0,1,.139,0l8.514,3.668a.186.186,0,0,1,.1.094l.349.737a.2.2,0,0,1,0,.166l-.838,1.785,8.247-.288a.188.188,0,0,1,.2.162.193.193,0,0,1-.137.214l-3.359.961-6.58,1.326A.164.164,0,0,1,901.985,4682.162Zm-8.516-4.069,8.537,3.677,6.507-1.31,1.836-.525-6.994.245a.193.193,0,0,1-.181-.274l.933-1.989-.279-.59-8.379-3.609-.6.21-.827,2.037a.193.193,0,0,1-.322.056l-4.627-5.25.886,1.708Z" transform="translate(-887.986 -4669.272)" fill="#c0ac9d"/>
  </g>
  <g id="Group_573" data-name="Group 573" transform="translate(20.843 53.198)">
    <path id="Path_738" data-name="Path 738" d="M910.128,4672.334l-.762-1.212-6.254-2.694-1.4.279-2.737,4.738.754-.262,8.514,3.666.349.74Z" transform="translate(-898.779 -4668.235)" fill="#161616"/>
    <path id="Path_739" data-name="Path 739" d="M908.466,4677.657a.193.193,0,0,1-.174-.11l-.318-.673-8.379-3.608-.684.238a.192.192,0,0,1-.229-.277l2.737-4.737a.185.185,0,0,1,.128-.092l1.4-.279a.2.2,0,0,1,.114.012l6.254,2.694a.187.187,0,0,1,.086.074l.763,1.212a.191.191,0,0,1,.021.156l-1.54,5.253a.191.191,0,0,1-.169.138Zm-8.863-4.79a.206.206,0,0,1,.076.016l8.514,3.667a.188.188,0,0,1,.1.095l.133.281,1.374-4.685-.685-1.088-6.144-2.647-1.261.251-2.434,4.214.265-.093A.179.179,0,0,1,899.6,4672.867Z" transform="translate(-898.657 -4668.114)" fill="#161616"/>
  </g>
  <g id="Group_574" data-name="Group 574" transform="translate(44.06 22.341)">
    <path id="Path_740" data-name="Path 740" d="M958.9,4636.141l5.865-8.4.842-9.783-28.667,6.765,5.312,10.666,10.319,8.542,3.911-1.93-.78-1.3,2.517-.872-.91-1.677,2.4-.6Z" transform="translate(-936.749 -4617.771)" fill="#763e1a"/>
    <path id="Path_741" data-name="Path 741" d="M952.451,4644.006a.19.19,0,0,1-.122-.045l-10.319-8.542a.2.2,0,0,1-.049-.062l-5.312-10.665a.192.192,0,0,1,0-.167.2.2,0,0,1,.13-.106l28.668-6.766a.193.193,0,0,1,.235.2l-.841,9.785a.184.184,0,0,1-.034.092l-5.8,8.295.747,1.315a.189.189,0,0,1,.01.169.2.2,0,0,1-.13.111l-2.159.539.792,1.458a.191.191,0,0,1,.01.161.194.194,0,0,1-.116.113l-2.293.794.659,1.1a.193.193,0,0,1-.08.271l-3.911,1.931A.2.2,0,0,1,952.451,4644.006Zm-10.165-8.856,10.191,8.438,3.612-1.784-.673-1.118a.194.194,0,0,1,.1-.282l2.3-.8-.8-1.477a.194.194,0,0,1-.007-.169.191.191,0,0,1,.129-.109l2.153-.538-.682-1.2a.193.193,0,0,1,.01-.206l5.836-8.353.815-9.467-28.174,6.649Z" transform="translate(-936.626 -4617.648)" fill="#763e1a"/>
  </g>
  <g id="Group_575" data-name="Group 575" transform="translate(9.659 0)">
    <path id="Path_742" data-name="Path 742" d="M885.351,4588.758,883.3,4598.8l-1.608.378,1.213,2.154-1.843.49,1.1,2.429-1.479.325,1.284,4.168,13.3,1.631,11.4-3.468-14.778-25.479Z" transform="translate(-880.487 -4581.233)" fill="#763e1a"/>
    <path id="Path_743" data-name="Path 743" d="M895.138,4610.441h-.023l-13.3-1.63a.193.193,0,0,1-.16-.134l-1.285-4.168a.193.193,0,0,1,.143-.245l1.249-.274-1-2.212a.192.192,0,0,1,0-.162.187.187,0,0,1,.123-.1l1.6-.427-1.092-1.938a.191.191,0,0,1,.123-.281l1.488-.351,2.024-9.917a.188.188,0,0,1,.045-.09l6.531-7.333a.19.19,0,0,1,.163-.064.193.193,0,0,1,.147.1l14.778,25.479a.192.192,0,0,1,.013.167.2.2,0,0,1-.123.115l-11.4,3.465A.17.17,0,0,1,895.138,4610.441Zm-13.15-2,13.133,1.611,11.128-3.384-14.524-25.042-6.32,7.1-2.038,9.987a.192.192,0,0,1-.145.149l-1.359.32,1.088,1.932a.192.192,0,0,1,.01.169.19.19,0,0,1-.128.109l-1.625.433,1,2.221a.193.193,0,0,1-.134.268l-1.276.28Zm1.192-9.768h0Z" transform="translate(-880.365 -4581.11)" fill="#763e1a"/>
  </g>
  <g id="Group_576" data-name="Group 576" transform="translate(40.812 39.772)">
    <path id="Path_744" data-name="Path 744" d="M950.508,4655.013l-10.319-8.542,1.242,6.934-9.8,8.092,7.083,2.943,10.478,4.512Z" transform="translate(-931.437 -4646.278)" fill="#f5841f"/>
    <path id="Path_745" data-name="Path 745" d="M949.068,4669.022a.19.19,0,0,1-.077-.017l-10.478-4.513-7.08-2.941a.192.192,0,0,1-.049-.325l9.716-8.021-1.222-6.823a.192.192,0,0,1,.311-.183l10.32,8.543a.193.193,0,0,1,.069.166l-1.319,13.939a.193.193,0,0,1-.191.174Zm-17.193-7.7,6.788,2.82,10.238,4.411,1.284-13.576-9.836-8.144,1.15,6.418a.192.192,0,0,1-.067.182Z" transform="translate(-931.314 -4646.156)" fill="#f5841f"/>
  </g>
  <g id="Group_577" data-name="Group 577" transform="translate(1.742 27.316)">
    <path id="Path_746" data-name="Path 746" d="M890.23,4627.729l-13.3-1.63-9.2,10.543,10.478,4.515,6.982,3.115-.855-12.682Z" transform="translate(-867.54 -4625.907)" fill="#f5841f"/>
    <path id="Path_747" data-name="Path 747" d="M885.071,4644.343a.179.179,0,0,1-.079-.018l-6.982-3.115-10.475-4.513a.189.189,0,0,1-.111-.134.192.192,0,0,1,.042-.169l9.2-10.543a.183.183,0,0,1,.168-.064l13.3,1.629a.191.191,0,0,1,.164.146.193.193,0,0,1-.081.2l-5.8,3.8.847,12.569a.193.193,0,0,1-.191.206Zm-17.143-7.894,10.236,4.409,6.694,2.987-.834-12.364a.194.194,0,0,1,.086-.174l5.453-3.573-12.675-1.553Z" transform="translate(-867.418 -4625.786)" fill="#f5841f"/>
  </g>
  <g id="Group_578" data-name="Group 578" transform="translate(24.984 14.73)">
    <path id="Path_748" data-name="Path 748" d="M918.44,4632.59l6.379-12.7,7.407-7.813-15.24-6.564-.588,10.75-4.845,13.359-1.476,4.234-4.335,10.124,6.254,2.695,4.379-10.106Z" transform="translate(-905.551 -4605.323)" fill="#f5841f"/>
    <path id="Path_749" data-name="Path 749" d="M911.875,4646.748a.2.2,0,0,1-.076-.016l-6.255-2.694a.192.192,0,0,1-.1-.252l4.335-10.125,1.472-4.222,4.835-13.334.587-10.722a.19.19,0,0,1,.268-.165l15.24,6.563a.192.192,0,0,1,.064.309l-7.388,7.792-6.366,12.673v0l-2.063,3.981-4.374,10.094A.191.191,0,0,1,911.875,4646.748Zm-6-2.988,5.9,2.543,4.3-9.93,2.068-3.993,6.379-12.7a.182.182,0,0,1,.032-.046l7.219-7.614-14.734-6.346-.574,10.475a.2.2,0,0,1-.011.055l-4.845,13.359-1.475,4.233Zm12.445-11.292h0Z" transform="translate(-905.429 -4605.201)" fill="#f5841f"/>
  </g>
</svg>
