<svg id="Group_3395" data-name="Group 3395" xmlns="http://www.w3.org/2000/svg" width="19.903" height="24.045" viewBox="0 0 19.903 24.045">
  <path id="Path_3398" data-name="Path 3398" d="M1411.829,1297.054a2.748,2.748,0,0,0-3.754,2.56v18.536a2.748,2.748,0,0,0,3.754,2.56,47.285,47.285,0,0,0,15.319-9.862,2.744,2.744,0,0,0,0-3.931A47.281,47.281,0,0,0,1411.829,1297.054Z" transform="translate(-1408.075 -1296.859)" fill="#436d9b"/>
  <path id="Path_3399" data-name="Path 3399" d="M1416.194,1300.04a2.643,2.643,0,0,0-.712-.415l-.066-.023a9.291,9.291,0,0,0-1.245-.588,3.184,3.184,0,0,0-1.117-.347,2.417,2.417,0,0,0-.332-.011c-.455-.05-1.531.283-1.089,1.375a.968.968,0,0,0,.306.356,10.653,10.653,0,0,0,1.811.821q.737.323,1.476.642C1416.989,1302.966,1418.532,1301.6,1416.194,1300.04Z" transform="translate(-1409.007 -1297.343)" fill="#f2d6df"/>
  <path id="Path_3400" data-name="Path 3400" d="M1421.578,1303.137a.988.988,0,0,0-.742-.443.414.414,0,0,0-.153.013.88.88,0,0,0-.622.9.827.827,0,0,0,.848.75.812.812,0,0,0,.82-.832A.665.665,0,0,0,1421.578,1303.137Z" transform="translate(-1411.312 -1298.435)" fill="#f2d6df"/>
  <path id="Path_3401" data-name="Path 3401" d="M1427.764,1311.874c.756,4.019-10.949,9.221-14.85,9.1a6.181,6.181,0,0,1-4.839-2.953v4.187a2.748,2.748,0,0,0,3.754,2.56,47.28,47.28,0,0,0,15.319-9.862A2.746,2.746,0,0,0,1427.764,1311.874Z" transform="translate(-1408.075 -1300.914)" fill="#14406b"/>
</svg>
