<svg xmlns="http://www.w3.org/2000/svg" width="96.958" height="104.76" viewBox="0 0 96.958 104.76">
  <g id="Group_244" data-name="Group 244" transform="translate(0 0)">
    <path id="Path_261" data-name="Path 261" d="M201.333,141.946c-1.007-.921-3.308-4.589-14.143-4.589-10.263,0-11.98,3.162-11.98,3.162l1.468-15.871,1.923-9.043-.748-10.805-4.346-25.125,4.874-3.3,6.049,2.482,6.623,7.153L200.1,98.146l13.461-2.389h5.285l10.371,2.389,2.02-.381,7.718-11.228,7.3-8.712,5.589-1.446,4.8,1.56-1.262,15.7-2.713,23.814L253.96,123l1.422,22.668L175.034,144.5" transform="translate(-166.821 -75.446)" fill="#4a4c4f"/>
    <path id="Path_262" data-name="Path 262" d="M195.417,100.914s-10.841-17.907-14.845-15.173c-5.854,4-7.692-5.982-7.692-5.982l5.331-3.382,4.541,1.467,10.5,11.349,6.673,8.951Z" transform="translate(-166.651 -75.446)" fill="#393b3d"/>
    <path id="Path_263" data-name="Path 263" d="M255.82,100.914s10.841-17.907,14.845-15.173c5.854,4,7.692-5.982,7.692-5.982l-5.331-3.382-4.541,1.467-10.5,11.349-6.672,8.951Z" transform="translate(-187.892 -75.446)" fill="#393b3d"/>
    <path id="Path_264" data-name="Path 264" d="M185.063,168.539l-9.462.918,9.385.137C185.011,169.243,185.036,168.89,185.063,168.539Z" transform="translate(-167.388 -100.405)" fill="#555658"/>
    <circle id="Ellipse_55" data-name="Ellipse 55" cx="6.3" cy="6.3" r="6.3" transform="translate(13.334 66.95)" fill="#f09489"/>
    <path id="Path_265" data-name="Path 265" d="M184.584,174.478c2.46-3.323,6.45-3.323,8.91,0,.631.853,1.1-.207,1.407.848a10.249,10.249,0,0,0-1.841-6.224c-2.461-3.323-6.45-3.323-8.91,0a10.778,10.778,0,0,0-1.407,9.137C182.78,176.13,183.393,176.087,184.584,174.478Z" transform="translate(-169.204 -99.882)" fill="#d86f6a"/>
    <g id="Group_239" data-name="Group 239" transform="translate(56.285 42.83)">
      <circle id="Ellipse_56" data-name="Ellipse 56" cx="3.917" cy="3.917" r="3.917" transform="translate(0 0)" fill="#eda76a"/>
      <path id="Path_266" data-name="Path 266" d="M242.992,138.184a3.912,3.912,0,0,1,5.958,1.31,3.915,3.915,0,1,0-7.012,0A3.9,3.9,0,0,1,242.992,138.184Z" transform="translate(-241.528 -133.837)" fill="#db8f58"/>
    </g>
    <g id="Group_240" data-name="Group 240" transform="translate(32.57 42.83)">
      <circle id="Ellipse_57" data-name="Ellipse 57" cx="3.917" cy="3.917" r="3.917" transform="translate(0 0)" fill="#eda76a"/>
      <path id="Path_267" data-name="Path 267" d="M210.469,138.184a3.914,3.914,0,0,1,5.959,1.31,3.916,3.916,0,1,0-7.013,0A3.9,3.9,0,0,1,210.469,138.184Z" transform="translate(-209.005 -133.837)" fill="#db8f58"/>
    </g>
    <circle id="Ellipse_58" data-name="Ellipse 58" cx="6.3" cy="6.3" r="6.3" transform="translate(71.099 66.95)" fill="#f09489"/>
    <path id="Path_268" data-name="Path 268" d="M264.753,173.639c2.7-2.972,6.663-2.431,8.865,1.208.564.934.957-.067,1.184,1.024a10.691,10.691,0,0,0-1.369-6.442c-2.2-3.639-6.17-4.18-8.865-1.208a10.434,10.434,0,0,0-2.079,8.9C262.683,175.028,263.448,175.079,264.753,173.639Z" transform="translate(-190.855 -99.799)" fill="#d86f6a"/>
    <g id="Group_241" data-name="Group 241" transform="translate(24.232 50.169)">
      <ellipse id="Ellipse_59" data-name="Ellipse 59" cx="5.045" cy="6.006" rx="5.045" ry="6.006" fill="#040405"/>
      <ellipse id="Ellipse_60" data-name="Ellipse 60" cx="1.792" cy="1.792" rx="1.792" ry="1.792" transform="translate(0.579 2.387)" fill="#f2f3f2"/>
    </g>
    <g id="Group_242" data-name="Group 242" transform="translate(62.042 50.169)">
      <ellipse id="Ellipse_61" data-name="Ellipse 61" cx="5.045" cy="6.006" rx="5.045" ry="6.006" fill="#040405"/>
      <ellipse id="Ellipse_62" data-name="Ellipse 62" cx="1.792" cy="1.792" rx="1.792" ry="1.792" transform="translate(0.579 2.387)" fill="#f2f3f2"/>
    </g>
    <path id="Path_269" data-name="Path 269" d="M276.464,89.8q.085.056.166.12c.128-.346.25-.694.363-1.046Q276.72,89.332,276.464,89.8Z" transform="translate(-194.704 -78.831)" fill="#0f0e0e"/>
    <path id="Path_270" data-name="Path 270" d="M196.926,200.576c2.545-.878,4.9-2.262,7.5-2.934,1.811-.467,3.361.516,4.844,1.35a35.12,35.12,0,0,1,4.983,3.6c.331.272.8.524.711,1.022-.1.536-.646.666-1.087.8a22.7,22.7,0,0,1-6.719,1.137c-3.28.05-6.216-1.411-9.059-3.143-.373-.227-.776-.405-1.136-.65C196.433,201.386,196.282,200.8,196.926,200.576Z" transform="translate(-173.048 -108.254)" fill="#0f0e0e"/>
    <path id="Path_271" data-name="Path 271" d="M277,175.952c.925-.89,1.878-1.749,2.8-2.644.284-.276.585-.564.891-.863q.036-1.187.017-2.378c-.054.022-.108.045-.16.071-.152.076-.335.249-.327.184-.127.328-.038.85-.132,1.2a4.235,4.235,0,0,1-.582,1.173,30.192,30.192,0,0,1-8.494,8.2c-.842.579-1.692,1.148-2.557,1.7a17.183,17.183,0,0,0,5.688-3.676C275.135,177.964,276.008,176.9,277,175.952Z" transform="translate(-192.534 -100.819)" fill="#f2f3f2"/>
    <path id="Path_272" data-name="Path 272" d="M277.828,82.966c.674-1.539,2.675-2.712,4.119-3.184,1.01.682.987,2.169,1.065,3.389.089,1.376.308,2.746.5,4.1a91.722,91.722,0,0,1,.436,11.219c.077,3.678.054,7.371-.185,11.04-.182,2.8-.776,5.562-3.055,7.586-.769.684-.894.655-1.315-.306-.552-1.261-1.124-2.516-1.762-3.734a1.319,1.319,0,0,1,.261-1.8,2.921,2.921,0,0,0,.959-1.281,1.9,1.9,0,0,0-1.826-2.535c-.315-.036-.755.12-.912-.246s.174-.688.379-.989a7.675,7.675,0,0,0,.6-.813c.815-1.61.069-2.869-1.687-2.915a6.39,6.39,0,0,0-3.339.621c-.371.2-.88.407-1.25.114s-.063-.766.026-1.134a72.621,72.621,0,0,1,2.414-7.7A50.983,50.983,0,0,1,278,85.049a1.569,1.569,0,0,0,.1-1.8c.035-.131-.019-.158-.149-.2C277.935,83,277.862,83,277.828,82.966Z" transform="translate(-193.125 -76.368)" fill="#eda76a"/>
    <path id="Path_273" data-name="Path 273" d="M178.229,111.216a1.75,1.75,0,0,1,.389,2.594,27.216,27.216,0,0,0-1.5,3.305c-.384.891-.607.933-1.359.277a8.351,8.351,0,0,1-2.569-5.234,77.416,77.416,0,0,1-.554-11.609,97.365,97.365,0,0,1,.239-10.722c.258-2.758.167-5.606,1.363-8.229a1.744,1.744,0,0,1,.506-.7,4.366,4.366,0,0,1,3.657,2.449.454.454,0,0,0-.065.168c.111.715-.3.957.019,1.43a63.962,63.962,0,0,1,6.147,12.9c.526,1.593.906,3.236,1.308,4.867.23.929-.007,1.135-.914.815a10.011,10.011,0,0,0-3.841-.731,1.793,1.793,0,0,0-1.729,2.692,7.255,7.255,0,0,0,.943,1.43c.383.515.242.8-.4.836" transform="translate(-166.574 -76.671)" fill="#eda76c"/>
    <path id="Path_274" data-name="Path 274" d="M178.2,112.019c-4.055-4.462-4.64-18.542-4.529-28.152-1.585,9.568-1.39,20.475-.511,30.12C175.626,125.735,181.844,113.255,178.2,112.019Z" transform="translate(-166.545 -77.474)" fill="#b77141"/>
    <path id="Path_275" data-name="Path 275" d="M280.78,112.019c4.056-4.462,4.641-18.542,4.53-28.152,1.585,9.568,1.39,20.475.511,30.12C283.355,125.735,277.136,113.255,280.78,112.019Z" transform="translate(-195.57 -77.474)" fill="#b77141"/>
    <path id="Path_276" data-name="Path 276" d="M221.924,212.613c-2.022-.419-4.25-.8-6.435-1.356a60.165,60.165,0,0,1-7.351-2.23,54.493,54.493,0,0,1-9.2-4.8c-.275-.174-.637-.407-.419-.8.2-.368.638-.248.92-.148a36.221,36.221,0,0,0,6.206,1.4c3.623.6,7.248,1.194,10.87,1.8a39.162,39.162,0,0,0,5.833.572A58.7,58.7,0,0,0,233.18,205.8c2.591-.44,5.161-1,7.742-1.494.35-.067.8-.24,1,.181.227.469-.188.728-.513.968a33.108,33.108,0,0,1-11.175,5.491c-2.345.628-4.729,1.066-7.1,1.553C222.8,212.568,222.462,212.565,221.924,212.613Z" transform="translate(-173.576 -109.785)" fill="#19b5b8"/>
    <path id="Path_277" data-name="Path 277" d="M202.829,205.356c16.4,7.306,28.709,4.269,41.524-1.967-9.375,1.253-18.9,3.965-28.466,2.235C209.554,205.181,187.412,198.49,202.829,205.356Z" transform="translate(-173.312 -109.541)" fill="#138481"/>
    <path id="Path_278" data-name="Path 278" d="M277.753,205.541c-3.28.05-6.215-1.411-9.059-3.143-.373-.227-.776-.405-1.136-.65-.533-.362-.684-.95-.04-1.173,2.544-.878,4.9-2.262,7.5-2.934,1.811-.467,3.361.516,4.844,1.35a35.09,35.09,0,0,1,4.984,3.6c.331.272.8.524.71,1.022-.1.536-.646.666-1.086.8A22.7,22.7,0,0,1,277.753,205.541Z" transform="translate(-192.166 -108.254)" fill="#18b6b9"/>
    <path id="Path_279" data-name="Path 279" d="M284.7,202.01a31.124,31.124,0,0,0-4.276-3.019c-1.483-.833-3.033-1.816-4.844-1.35a53.941,53.941,0,0,0-6.421,2.528A54.524,54.524,0,0,0,284.7,202.01Z" transform="translate(-192.725 -108.254)" fill="#138481"/>
    <path id="Path_280" data-name="Path 280" d="M176.367,205.3a22.044,22.044,0,0,1-6.307-1.121c-1.088-.283-1.193-.91-.281-1.6a32.366,32.366,0,0,1,7.249-4.683,4.313,4.313,0,0,1,3.869-.019,48.058,48.058,0,0,0,5.728,2.487c1.153.421,1.159.813.168,1.545A17.7,17.7,0,0,1,176.367,205.3Z" transform="translate(-165.645 -108.228)" fill="#18b6b9"/>
    <path id="Path_281" data-name="Path 281" d="M185.759,200.038a46.3,46.3,0,0,1-4.861-2.162,4.312,4.312,0,0,0-3.869.019,32.366,32.366,0,0,0-7.249,4.683c-.458.347-.659.677-.609.957C174.822,203.52,180.406,201.724,185.759,200.038Z" transform="translate(-165.645 -108.228)" fill="#138481"/>
    <path id="Path_282" data-name="Path 282" d="M180.411,85.918a1.321,1.321,0,0,1-.019-1.43Q180.4,85.2,180.411,85.918Z" transform="translate(-168.631 -77.642)" fill="#555658"/>
    <path id="Path_283" data-name="Path 283" d="M224.879,192.948a6.417,6.417,0,0,1-6.06-5.079,20.353,20.353,0,0,0-2.029-4.94,1.719,1.719,0,0,0-1.116-.883c-2.53-.733-4.647-1.981-5.546-4.675-.315-.943-.166-1.6.564-1.871a1.213,1.213,0,0,1,1.733.894c1.027,3.543,7.309,4.56,10.073,2.282a3.642,3.642,0,0,0,1.251-1.792,1.33,1.33,0,0,1,1.3-1.07,1.267,1.267,0,0,1,1.332,1.014,4.431,4.431,0,0,0,3.408,2.865,7.856,7.856,0,0,0,6.224-1,3.471,3.471,0,0,0,1.475-1.745,3.682,3.682,0,0,1,.428-.911,1.238,1.238,0,0,1,2.2,1.124,7.18,7.18,0,0,1-5.4,4.824,2.463,2.463,0,0,0-1.579,1.367A36.057,36.057,0,0,0,231,188.909,6.511,6.511,0,0,1,224.879,192.948Zm-1.659-11.19c-.807-.006-.352.411-1.146.523-.428.06-1.266.427-.888,1.178.689,1.37.141,1.866.547,3.3.487,1.728,1.062,3.34,2.874,3.2.282-.022.941.831,1,.474A4.552,4.552,0,0,0,229.3,186.3c.1-.631.233-1.259.318-1.892.253-1.883.155-2.043-1.6-2.777-.187-.079-.383-.135-.568-.217-1.264-.556-1.426-.469-1.486.927a30.5,30.5,0,0,1-.1,3.642c-.085.522-.248.947-.863.89-.565-.052-.644-.48-.639-.963.013-1.249-.007-2.5.007-3.747C224.383,181.333,224.186,181.464,223.221,181.758Z" transform="translate(-176.696 -102.26)"/>
    <path id="Path_284" data-name="Path 284" d="M228.34,162.819A6.559,6.559,0,0,1,232.554,164c2.088,1.628,2.015,3.911-.179,5.427a6.8,6.8,0,0,1-8.057-.687,2.922,2.922,0,0,1,.151-4.451A5.96,5.96,0,0,1,228.34,162.819Z" transform="translate(-180.323 -98.856)"/>
    <path id="Path_285" data-name="Path 285" d="M227.1,183.2c.965-.294,1.19.225,1.181,1.049-.014,1.248.007,2.5-.007,3.747,0,.483.074.911.64.963.615.058.778-.367.863-.89a30.516,30.516,0,0,0,.1-3.642c.06-1.4.222-1.482,1.486-.927.185.082.381.138.568.217,1.754.734,1.851.894,1.6,2.777-.085.633-.214,1.261-.318,1.892-.353,2.163-1.465,3.916-3.693,4.406a4.288,4.288,0,0,1-4.382-3.259,14.823,14.823,0,0,1-.736-4.266c-.009-.632.136-.987.812-1.159A3.862,3.862,0,0,0,227.1,183.2Z" transform="translate(-180.602 -104.353)" fill="#e4333a"/>
    <path id="Path_286" data-name="Path 286" d="M225.183,189.682a7.092,7.092,0,0,1,3.09-1.692c.012-1.246-.008-2.493.006-3.739.009-.824-.215-1.342-1.181-1.049a3.862,3.862,0,0,1-1.891.909c-.676.172-.822.527-.812,1.159a14.823,14.823,0,0,0,.736,4.266C225.147,189.586,225.166,189.633,225.183,189.682Z" transform="translate(-180.602 -104.353)" fill="#ba2530"/>
    <path id="Path_287" data-name="Path 287" d="M231.809,187.9a8.266,8.266,0,0,1,3.278,1.124c.049-.2.093-.4.127-.609.1-.631.233-1.259.318-1.892.253-1.883.155-2.043-1.6-2.777-.187-.079-.383-.135-.568-.217-1.264-.556-1.426-.469-1.486.927C231.83,185.6,231.961,186.751,231.809,187.9Z" transform="translate(-182.61 -104.377)" fill="#a81e2f"/>
    <path id="Path_288" data-name="Path 288" d="M280.641,89.843a44.732,44.732,0,0,0-1.455-9.883c-.983-3.525-5.422-5.462-8.052-4.692a10.717,10.717,0,0,0-3.69,2.21A64.028,64.028,0,0,0,256.987,88.41c-1.753,2.31-3.4,4.7-5.024,7.106a1.477,1.477,0,0,1-.228.251c.526.306,1.037.639,1.547.993.133-.214.333-.478.6-.833,1.991-2.623,3.758-5.4,5.815-7.979a55.385,55.385,0,0,1,10.6-10.273c1.731-1.269,5.179-.638,6.03,1.116a5.012,5.012,0,0,1,.776,1.24c1.2,2.624,1.106,5.472,1.364,8.232a97.46,97.46,0,0,1,.24,10.726,77.579,77.579,0,0,1-.554,11.613,8.357,8.357,0,0,1-2.57,5.236c-.753.656-.879.693-1.264-.2a30.336,30.336,0,0,0-1.6-3.491c-.639-1.061-.49-1.579.433-2.422a1.913,1.913,0,0,0-.669-3.416,4.241,4.241,0,0,0-.923-.16c-.646-.041-.743-.3-.36-.815a6.87,6.87,0,0,0,.882-1.417,1.818,1.818,0,0,0-1.7-2.745,10.3,10.3,0,0,0-3.905.712c-.908.32-1.033.065-.8-.866.4-1.631.832-3.1,1.358-4.692a64.593,64.593,0,0,1,6.125-12.992c.352-.675.315-1.156-.208-1.555-.747-.441-1.611.111-2.042,1.011-.332.692-.767,1.334-1.155,2a56.418,56.418,0,0,0-5.165,11.926,39.693,39.693,0,0,0-1.554,6.468c-.235,1.773.75,2.269,2.124,1.574a27.614,27.614,0,0,1,3.421-1.245c.288-.1.646-.214.845.076.259.377-.118.61-.342.841-.634.654-1.266,1.312-1.929,1.935a.989.989,0,0,0-.266,1.262,1.08,1.08,0,0,0,1.1.721q1.114-.019,2.228-.012c.237,0,.505.018.616.265s-.09.411-.265.586c-.952.952-1.074,1.519-.438,2.684a51.2,51.2,0,0,1,2.52,5.24l3.885-.181a2.294,2.294,0,0,1,.64.089,10.723,10.723,0,0,0,2.662-4.658,31.193,31.193,0,0,0,.829-6.41C280.872,100.582,280.9,95.208,280.641,89.843Z" transform="translate(-188.006 -75.1)"/>
    <g id="Group_243" data-name="Group 243" transform="translate(8.389 60.38)">
      <path id="Path_289" data-name="Path 289" d="M255.6,162.047a52.29,52.29,0,0,1-.494,14.065c-.85,4.707-4.086,7.708-8.184,9.816a48.471,48.471,0,0,1-10.147,3.419,118.4,118.4,0,0,1-18.9,3.337,26.948,26.948,0,0,1-6.546-.493c-4.7-.718-9.414-1.372-14.048-2.392-4.762-1.049-9.578-2.107-13.747-4.886-3.258-2.172-5.758-4.975-6.469-8.924a37.392,37.392,0,0,1-.217-9.592c.095-1.181.091-2.36.133-3.539a2.747,2.747,0,0,1,.2-1.286,14.316,14.316,0,0,1,5.292-1.45,57.391,57.391,0,0,1,8.564.048,5.4,5.4,0,0,0,1.825.16.791.791,0,0,0,.6.09,1.99,1.99,0,0,0,1.02.156l.371.078.648.065a1.141,1.141,0,0,0,.8.254c.1.174.251.165.413.124l1.419.665a14.945,14.945,0,0,0,2.572,1.159.468.468,0,0,0,.472.179.539.539,0,0,0,.573.113c.413.272-.252.957.434.808.4.082,1.221-.29,1.3-.729a10.692,10.692,0,0,1,6.789-4.81,27.48,27.48,0,0,1,9.431-.313c3.4.489,7.135,2.024,9,5.132.489.813.241.994.94.174,1.816-.619,3.455-1.649,5.246-2.3a24.553,24.553,0,0,1,6.749-1.07C246.221,159.771,251.324,159.9,255.6,162.047Zm-39.743,26.166a6.511,6.511,0,0,0,6.119-4.04,36.055,36.055,0,0,1,2.138-5.559,2.463,2.463,0,0,1,1.579-1.367,7.18,7.18,0,0,0,5.4-4.824,1.238,1.238,0,0,0-2.2-1.124,3.684,3.684,0,0,0-.428.911,3.471,3.471,0,0,1-1.475,1.745,7.855,7.855,0,0,1-6.224,1,4.431,4.431,0,0,1-3.408-2.865,1.267,1.267,0,0,0-1.332-1.014,1.33,1.33,0,0,0-1.3,1.07,3.642,3.642,0,0,1-1.251,1.792c-2.764,2.278-9.046,1.262-10.073-2.282a1.213,1.213,0,0,0-1.733-.894c-.73.268-.879.928-.564,1.871.9,2.694,3.017,3.942,5.546,4.675a1.719,1.719,0,0,1,1.116.883,20.352,20.352,0,0,1,2.029,4.94A6.417,6.417,0,0,0,215.852,188.213Zm-22.779-17.995c.189-3.042-2.734-5.642-5.781-5.61a5.583,5.583,0,0,0-5.747,5.4c-.038,3.991,2.3,5.96,5.621,6.161A5.635,5.635,0,0,0,193.073,170.219Zm46.2.2a5.637,5.637,0,0,0,5.739,5.741c2.925.084,5.958-2.721,5.862-5.7a6.063,6.063,0,0,0-5.612-5.891C241.93,164.42,239.013,167.424,239.276,170.415Zm-23.589-8.927a5.96,5.96,0,0,0-3.871,1.473,2.922,2.922,0,0,0-.151,4.451,6.8,6.8,0,0,0,8.057.687c2.195-1.515,2.267-3.8.179-5.427A6.559,6.559,0,0,0,215.687,161.488Z" transform="translate(-176.059 -157.905)" fill="#f2f3f2"/>
      <path id="Path_290" data-name="Path 290" d="M201.966,164.594c-1.007-.921-3.308-4.589-14.143-4.589-10.263,0-11.98,3.162-11.98,3.162" transform="translate(-175.843 -158.474)" fill="#f2f3f2"/>
      <path id="Path_291" data-name="Path 291" d="M275.887,162.9s-1.718-2.893-11.98-2.892c-10.835,0-13.677,3.668-14.684,4.589" transform="translate(-195.716 -158.474)" fill="#f2f3f2"/>
    </g>
    <path id="Path_292" data-name="Path 292" d="M239.288,164.3a.816.816,0,0,1-.6-.266,26.692,26.692,0,0,0-4.759-4.167c-5.774-3.8-13.361-2.435-16.787-.684a12.654,12.654,0,0,0-4.9,4.458.82.82,0,0,1-1.428-.805,14.2,14.2,0,0,1,5.582-5.112,19.838,19.838,0,0,1,8.537-1.928,17.76,17.76,0,0,1,9.9,2.7,28.363,28.363,0,0,1,5.067,4.43.82.82,0,0,1-.6,1.374Z" transform="translate(-176.894 -96.953)"/>
    <path id="Path_293" data-name="Path 293" d="M205.318,110.265" transform="translate(-175.436 -84.623)" fill="#666768"/>
    <path id="Path_294" data-name="Path 294" d="M242.027,108.665a.919.919,0,0,1-.481-.136,34.762,34.762,0,0,0-25.8-4.319,40.515,40.515,0,0,0-11.826,4.319.922.922,0,1,1-.961-1.574,41.484,41.484,0,0,1,12.354-4.539,37.192,37.192,0,0,1,27.191,4.539.922.922,0,0,1-.482,1.709Z" transform="translate(-174.679 -82.274)"/>
    <path id="Path_295" data-name="Path 295" d="M241.327,111.957c-6.645-4.065-22.669-6.724-34.891,0S250.408,117.513,241.327,111.957Z" transform="translate(-175.265 -83.97)" fill="#575859"/>
    <path id="Path_296" data-name="Path 296" d="M254.023,185.248c-16.027,15.9-55.486,14.212-73.444,1.614-9.952-6.98,3.138,11.119,22.448,12.558,13.109,3.365,21.866,2.379,34.868-1.669,3.459-.9,5.962-1.09,9.163-2.737C251.429,194.755,258.82,181.548,254.023,185.248Z" transform="translate(-167.811 -104.753)" fill="#cecece"/>
    <path id="Path_297" data-name="Path 297" d="M240.9,171.343c.324.181.659.342.979.53a16.541,16.541,0,0,0,6.668,2.137c4.132.455,7.984-.874,11.875-1.9,1.02-.271,1.162-1.238.362-1.916-.541-.458-1.084-.916-1.654-1.337-2.81-2.077-5.4-4.494-8.784-5.688-1.455-.513-1.465-.742-.389-1.873a13.656,13.656,0,0,0,3.639-6.426c1.023-4.574.44-9.2.3-13.81-.032-1.078-.061-2.157-.154-3.23-.3-3.523-.7-7.04-.935-10.568a49.69,49.69,0,0,0-.954-7.4,1.513,1.513,0,0,1,.532-1.681,11.544,11.544,0,0,0,4.059-6.927,70.123,70.123,0,0,0,.71-10.284,115.259,115.259,0,0,0-.325-12.536,43.754,43.754,0,0,0-1.369-8.653c-1.046-3.516-6.638-6.215-10.01-3.66A61.7,61.7,0,0,0,232.5,89.5q-2.265,3.165-4.476,6.371c-.065.095-.805,1.378-.873,1.453.382.316.765.632,1.166.932.219.106.437.211.656.319a6.847,6.847,0,0,1,1.081-2.227c1.955-2.653,3.755-5.418,5.807-8A58.3,58.3,0,0,1,246.256,78a4.712,4.712,0,0,1,6.633,1.055,3.28,3.28,0,0,1,1.336,2.849c.089,1.376.308,2.746.5,4.1a91.725,91.725,0,0,1,.436,11.219c.077,3.678.054,7.371-.185,11.04-.182,2.8-.776,5.561-3.055,7.586-.769.684-.894.655-1.315-.306-.117-.267-.236-.534-.354-.8a2.069,2.069,0,0,1-1.962.788c.05.1.117.332.168.435a26.769,26.769,0,0,1,2.322,9.011c.365,3.41.641,6.826.922,10.242.1,1.174.168,2.349.244,3.525.015.229.677,10.2-.179,14.94-.85,4.707-4.086,7.708-8.184,9.816a48.469,48.469,0,0,1-10.147,3.419,118.392,118.392,0,0,1-18.9,3.337,26.945,26.945,0,0,1-6.546-.493c-4.7-.718-9.414-1.372-14.048-2.392-4.762-1.049-9.578-2.107-13.747-4.886-3.258-2.172-5.758-4.974-6.469-8.924a37.39,37.39,0,0,1-.217-9.592c.095-1.181.091-2.36.133-3.539.015-.439.5-8.649.852-11.894.357-3.336.254-6.743,1.529-9.95a60.6,60.6,0,0,1,2.96-6.733c.636-1.165.514-1.733-.438-2.683-.175-.174-.381-.324-.265-.586s.378-.264.615-.265q1.113,0,2.227.012a1.082,1.082,0,0,0,1.1-.721.989.989,0,0,0-.267-1.261c-.663-.623-1.294-1.281-1.927-1.935-.224-.23-.6-.463-.342-.84.2-.289.556-.176.844-.076a27.591,27.591,0,0,1,3.419,1.245c1.374.695,2.358.2,2.123-1.574a39.655,39.655,0,0,0-1.553-6.466,56.406,56.406,0,0,0-5.163-11.921c-.388-.664-.823-1.306-1.155-2a1.651,1.651,0,0,0-2.04-1.01.454.454,0,0,0-.065.168c-.2.383-.357.538.019,1.43a63.96,63.96,0,0,1,6.147,12.9c.526,1.593.906,3.236,1.308,4.867.23.929-.007,1.135-.914.815a10.011,10.011,0,0,0-3.841-.731,1.793,1.793,0,0,0-1.729,2.692,7.254,7.254,0,0,0,.943,1.43c.383.515.242.8-.4.836a3.315,3.315,0,0,0-.892.121,1.88,1.88,0,0,0-.744,3.337,1.75,1.75,0,0,1,.389,2.594,27.212,27.212,0,0,0-1.5,3.305c-.384.891-.607.933-1.359.277a8.351,8.351,0,0,1-2.569-5.234,77.414,77.414,0,0,1-.554-11.609,97.35,97.35,0,0,1,.239-10.722c.258-2.759.167-5.606,1.363-8.229a1.744,1.744,0,0,1,.506-.7c.851-1.754,4.568-2.925,6.3-1.656a55.363,55.363,0,0,1,10.6,10.269c2.055,2.578,3.822,5.354,5.812,7.977a8.053,8.053,0,0,1,1.415,2.5c.711-.317,1.446-.652,2.2-.944-.4-.11-1.364-1.484-1.691-1.968-1.625-2.4-3.27-4.794-5.023-7.1A64,64,0,0,0,181.66,77.477a10.7,10.7,0,0,0-3.69-2.209c-2.629-.77-7.066,1.167-8.049,4.69a44.727,44.727,0,0,0-1.455,9.879c-.262,5.364-.232,10.736-.015,16.1a31.154,31.154,0,0,0,.829,6.407,11.822,11.822,0,0,0,3.848,5.825,1.3,1.3,0,0,1,.566,1.395,32.983,32.983,0,0,0-.69,3.973c-.506,3.643-.65,7.316-1.027,10.968-.392,3.79-.478,7.612-.678,11.42a40.558,40.558,0,0,0,.253,7.283,14.681,14.681,0,0,0,4.145,8.264c.663.7.649,1.075-.118,1.362-4.1,1.536-7.244,4.49-10.639,7.075a1.226,1.226,0,0,0-.572,1.3c.129.594.615.773,1.105.9,1.594.411,3.192.812,4.794,1.189a18.955,18.955,0,0,0,7.7.5,18.113,18.113,0,0,0,6.121-2.25c.385-.225,4.072-.607,5.222.136a46.222,46.222,0,0,0,8.833,4.607,53.3,53.3,0,0,0,7.605,2.317,36.938,36.938,0,0,0,5.314,1.148,16.074,16.074,0,0,0,4.073-.066,51.679,51.679,0,0,0,11.162-3.056,36.172,36.172,0,0,0,8.319-5.079C236.878,169.739,240.687,171.225,240.9,171.343Zm-55.411-2.562a17.7,17.7,0,0,1-10.427,3.392,22.044,22.044,0,0,1-6.307-1.121c-1.088-.283-1.193-.91-.281-1.6a32.35,32.35,0,0,1,7.249-4.683,4.312,4.312,0,0,1,3.869-.019,48.059,48.059,0,0,0,5.728,2.487C186.472,167.657,186.478,168.048,185.487,168.78Zm46.686,1.991A33.109,33.109,0,0,1,221,176.263c-2.345.628-4.729,1.066-7.1,1.553-.329.067-.672.064-1.21.112-2.022-.419-4.25-.8-6.435-1.356a60.162,60.162,0,0,1-7.351-2.23,54.492,54.492,0,0,1-9.2-4.8c-.275-.174-.637-.407-.419-.8.2-.368.638-.248.92-.148a36.219,36.219,0,0,0,6.206,1.4c3.623.6,7.248,1.194,10.869,1.8a39.179,39.179,0,0,0,5.834.572,58.7,58.7,0,0,0,10.834-1.253c2.591-.44,5.161-1,7.742-1.494.35-.067.8-.239,1,.181C232.914,170.272,232.5,170.531,232.173,170.772Zm7.516-3.35c2.544-.878,4.9-2.263,7.5-2.934,1.811-.467,3.361.516,4.844,1.35a35.092,35.092,0,0,1,4.984,3.6c.331.272.8.524.71,1.022-.1.536-.646.666-1.086.8a22.7,22.7,0,0,1-6.72,1.137c-3.28.05-6.215-1.411-9.059-3.143-.373-.227-.776-.405-1.136-.65C239.2,168.233,239.046,167.644,239.69,167.422Z" transform="translate(-164.338 -75.1)"/>
  </g>
</svg>
