<svg xmlns="http://www.w3.org/2000/svg" width="73.338" height="73.338" viewBox="0 0 73.338 73.338">
  <g id="Group_344" data-name="Group 344" transform="translate(0)">
    <g id="Group_343" data-name="Group 343">
      <g id="Group_342" data-name="Group 342">
        <g id="Group_340" data-name="Group 340">
          <g id="Group_317" data-name="Group 317" transform="translate(0.643 0.878)">
            <path id="Path_336" data-name="Path 336" d="M1656.942,474.313a35.847,35.847,0,0,1-52.3-23.225,34.968,34.968,0,0,1-.711-4.173,35.829,35.829,0,1,1,53.014,27.4Z" transform="translate(-1603.716 -407.176)" fill="#ffa726"/>
          </g>
          <g id="Group_318" data-name="Group 318" transform="translate(1.089 25.81)" opacity="0.35">
            <path id="Path_337" data-name="Path 337" d="M1657.038,479.649a35.847,35.847,0,0,1-52.3-23.225c-.189-.811-.35-1.629-.478-2.446a39.649,39.649,0,0,0,26.813,14.452l-.164-.172a5.95,5.95,0,0,1,.144-3.413c1.141-3.277,3.8-5.541,8.971-3.74a7.25,7.25,0,0,1,5.023,6.245,39.686,39.686,0,0,0,9.249-3.716c.157-.087.312-.175.468-.265a7.539,7.539,0,0,1,1.713-6.555c2.372-2.836,6.122-3.67,8.682-2.039a39.706,39.706,0,0,0,8.613-17.329,35.79,35.79,0,0,1-16.732,42.2Z" transform="translate(-1604.257 -437.444)" fill="#371a45"/>
          </g>
          <g id="Group_319" data-name="Group 319" transform="translate(0.227 0.459)" opacity="0.4">
            <path id="Path_338" data-name="Path 338" d="M1675.631,436.592a36.561,36.561,0,0,0-36.835-25.307v.007c.52,2.068-1.663,4.4-4.874,5.206s-6.236-.216-6.756-2.284a2.5,2.5,0,0,1-.056-.292,36.531,36.531,0,0,0-22.16,40.4,36.508,36.508,0,1,1,70.679-17.724Z" transform="translate(-1603.211 -406.667)" fill="#fff"/>
          </g>
          <g id="Group_320" data-name="Group 320">
            <path id="Path_339" data-name="Path 339" d="M1639.647,479.447a36.8,36.8,0,0,1-10.123-1.427,36.437,36.437,0,1,1,10.123,1.427Zm-.113-71.65a34.969,34.969,0,1,0,30.632,17.981A34.767,34.767,0,0,0,1639.534,407.8Z" transform="translate(-1602.935 -406.109)" fill="#371a45"/>
          </g>
          <g id="Group_321" data-name="Group 321" transform="translate(26.736 48.706)">
            <path id="Path_340" data-name="Path 340" d="M1650.422,469.965a6.5,6.5,0,0,1,.437,1.114,6.316,6.316,0,0,1,.21,1.194,6.1,6.1,0,0,1-.034,1.226,9.262,9.262,0,0,1-.232,1.179,7.272,7.272,0,0,1-1.014,2.245,5.876,5.876,0,0,1-1.877,1.723,6.593,6.593,0,0,1-2.4.793,10.312,10.312,0,0,1-2.446.03c-.4-.048-.788-.1-1.188-.184a8.69,8.69,0,0,1-1.2-.33,8.235,8.235,0,0,1-1.145-.5,7.5,7.5,0,0,1-1.061-.664,8.075,8.075,0,0,1-1.758-1.788,6.961,6.961,0,0,1-1.087-2.28,6.517,6.517,0,0,1,.6-4.927,6.988,6.988,0,0,1,3.726-3.1,7.815,7.815,0,0,1,4.681-.189.252.252,0,0,1-.094.494,7.812,7.812,0,0,0-4.184.668,6.086,6.086,0,0,0-2.9,2.774,5.243,5.243,0,0,0-.3,3.838,6.15,6.15,0,0,0,2.306,3.152,7.293,7.293,0,0,0,1.774.94,6.956,6.956,0,0,0,.973.278c.337.071.7.126,1.041.17a8.862,8.862,0,0,0,2.059.043,5.605,5.605,0,0,0,1.889-.531,5.2,5.2,0,0,0,2.469-3.013,10,10,0,0,0,.3-1.013,5.544,5.544,0,0,0,.143-1.021,6.022,6.022,0,0,0-.274-2.087V470.2a.313.313,0,0,1,.579-.232Z" transform="translate(-1635.394 -465.241)" fill="#371a45"/>
          </g>
          <g id="Group_322" data-name="Group 322" transform="translate(39.774 24.279)" opacity="0.4">
            <path id="Path_341" data-name="Path 341" d="M1656.544,446.033a5.5,5.5,0,0,1-5.206-.181,4.993,4.993,0,1,0,.344-9.587c-.157.04-.31.087-.459.14a5.205,5.205,0,0,1,.457-.252,5.506,5.506,0,1,1,4.865,9.88Z" transform="translate(-1651.222 -435.584)" fill="#fff"/>
          </g>
          <g id="Group_323" data-name="Group 323" transform="translate(9.749 29.825)" opacity="0.35">
            <circle id="Ellipse_66" data-name="Ellipse 66" cx="7.533" cy="7.533" r="7.533" fill="#371a45"/>
          </g>
          <g id="Group_324" data-name="Group 324" transform="translate(10.247 28.169)" opacity="0.4">
            <path id="Path_342" data-name="Path 342" d="M1632.874,446.508a9.21,9.21,0,0,1-17.406,6.026c-.033-.1-.064-.19-.094-.286a7.53,7.53,0,1,0,1.631-8.515,9.209,9.209,0,0,1,15.868,2.774Z" transform="translate(-1615.375 -440.308)" fill="#fff"/>
          </g>
          <g id="Group_325" data-name="Group 325" transform="translate(9.396 28.859)">
            <path id="Path_343" data-name="Path 343" d="M1616.5,443.794a7.94,7.94,0,0,1,4.717-2.545,8.394,8.394,0,0,1,5.408.983,8.529,8.529,0,0,1,2.183,1.78l.231.269.115.136.1.144c.135.2.274.387.4.586l.348.621c.114.208.2.431.293.648a8.9,8.9,0,0,1,.625,2.767,8.668,8.668,0,0,1-.316,2.824,8.365,8.365,0,0,1-1.222,2.56,8.594,8.594,0,0,1-1.975,2.027,8.741,8.741,0,0,1-2.529,1.25c-.227.061-.449.143-.68.184l-.694.121a9.091,9.091,0,0,1-1.4.056,8.285,8.285,0,0,1-2.725-.559,8.549,8.549,0,0,1-2.36-1.421,7.984,7.984,0,0,1-2.674-4.6.252.252,0,0,1,.485-.129l0,.007a7.807,7.807,0,0,0,2.838,3.9,7.7,7.7,0,0,0,2.125,1.077,7.555,7.555,0,0,0,2.328.339,7.677,7.677,0,0,0,1.166-.107l.571-.129c.191-.039.372-.116.558-.171A7.119,7.119,0,0,0,1629,451.55a7.636,7.636,0,0,0,.26-2.277,7.316,7.316,0,0,0-3.39-5.763,7.364,7.364,0,0,0-2.155-.9,6.9,6.9,0,0,0-2.352-.194,7.691,7.691,0,0,0-4.422,1.825.313.313,0,0,1-.437-.446Z" transform="translate(-1614.343 -441.146)" fill="#371a45"/>
          </g>
          <g id="Group_326" data-name="Group 326" transform="translate(50.697 42.2)">
            <path id="Path_344" data-name="Path 344" d="M1674,457.344a6.035,6.035,0,0,1,1.121.223,5.543,5.543,0,0,1,1.067.462,5.426,5.426,0,0,1,1.744,1.581,6.119,6.119,0,0,1,.955,2.182,6.793,6.793,0,0,1,.085,2.373,8.1,8.1,0,0,1-.65,2.268,9.811,9.811,0,0,1-1.245,2,10.381,10.381,0,0,1-1.723,1.6,9.063,9.063,0,0,1-2.089,1.108,8.149,8.149,0,0,1-2.342.465,6.42,6.42,0,0,1-2.4-.316,6.045,6.045,0,0,1-2.117-1.228,5.624,5.624,0,0,1-1.422-1.974,6.714,6.714,0,0,1-.173-4.626,8.492,8.492,0,0,1,.983-2.049,9.024,9.024,0,0,1,1.486-1.664.252.252,0,0,1,.361.348l-.005.007a10.006,10.006,0,0,0-1.143,1.72,8.213,8.213,0,0,0-.665,1.9,5.821,5.821,0,0,0,.414,3.772,4.544,4.544,0,0,0,2.757,2.27,5.949,5.949,0,0,0,3.688-.205,8.479,8.479,0,0,0,1.7-.9,8.738,8.738,0,0,0,1.431-1.3,8.444,8.444,0,0,0,1.078-1.6,7.567,7.567,0,0,0,.611-1.821c.023-.157.061-.315.074-.474l.036-.477-.011-.477c0-.16-.036-.314-.048-.473a4.86,4.86,0,0,0-.6-1.785,4.917,4.917,0,0,0-3.059-2.292l-.005,0a.313.313,0,0,1,.115-.613Z" transform="translate(-1664.484 -457.342)" fill="#371a45"/>
          </g>
          <g id="Group_327" data-name="Group 327" transform="translate(36.457 24.809)" opacity="0.35">
            <circle id="Ellipse_67" data-name="Ellipse 67" cx="4.993" cy="4.993" r="4.993" fill="#371a45"/>
          </g>
          <g id="Group_328" data-name="Group 328" transform="translate(36.099 24.376)">
            <path id="Path_345" data-name="Path 345" d="M1647.861,444.233a4.954,4.954,0,0,1-1.1-3.244,5.261,5.261,0,0,1,.338-1.762,5.578,5.578,0,0,1,.917-1.569,5.481,5.481,0,0,1,3.129-1.848,5.517,5.517,0,0,1,3.628.507,5.6,5.6,0,0,1,2.526,2.642,5.533,5.533,0,0,1,.465,1.779,5.17,5.17,0,0,1-.143,1.815,5.271,5.271,0,0,1-.722,1.651,5.464,5.464,0,0,1-1.216,1.29,4.966,4.966,0,0,1-3.233,1.011.253.253,0,0,1-.035-.5l.009,0a4.777,4.777,0,0,0,2.575-1.308,4.551,4.551,0,0,0,.834-1.126,4.437,4.437,0,0,0,.485-1.979l-.017-.339c0-.113-.028-.224-.04-.335a4.342,4.342,0,0,0-.4-1.268,4.221,4.221,0,0,0-1.848-1.831,4.109,4.109,0,0,0-2.562-.379,4.266,4.266,0,0,0-2.325,1.213,4.32,4.32,0,0,0-.779,1.109,4.02,4.02,0,0,0-.413,1.316,4.7,4.7,0,0,0,.451,2.815l0,0a.315.315,0,0,1-.524.339Z" transform="translate(-1646.76 -435.703)" fill="#371a45"/>
          </g>
          <g id="Group_329" data-name="Group 329" transform="translate(58.489 19.301)" opacity="0.3">
            <path id="Path_346" data-name="Path 346" d="M1679.321,436.949a2.093,2.093,0,0,1-2.652.477,1.814,1.814,0,0,0,1.416-.252c1.19-.8,1.393-2.941.454-4.79s-2.665-2.7-3.855-1.9a1.893,1.893,0,0,0-.2.154,2.574,2.574,0,0,1,.172-.235c1.067-1.287,2.974-.865,4.263.945S1680.387,435.662,1679.321,436.949Z" transform="translate(-1674.039 -429.561)" fill="#fff"/>
            <path id="Path_347" data-name="Path 347" d="M1677.678,437.768a2.656,2.656,0,0,1-1.145-.278l-.7-.335.762.161a1.723,1.723,0,0,0,1.344-.239c1.15-.77,1.341-2.865.423-4.67a3.877,3.877,0,0,0-2.272-2.084,1.738,1.738,0,0,0-1.448.215,1.649,1.649,0,0,0-.188.147l-.508.451.368-.571a2.393,2.393,0,0,1,.179-.244,2.048,2.048,0,0,1,1.7-.777,3.674,3.674,0,0,1,2.707,1.727c1.309,1.838,1.486,4.4.4,5.719A2.058,2.058,0,0,1,1677.678,437.768Zm-.454-.236a1.9,1.9,0,0,0,1.93-.662h0c1.039-1.254.858-3.718-.405-5.492a3.5,3.5,0,0,0-2.562-1.649,1.835,1.835,0,0,0-1.339.486,1.97,1.97,0,0,1,1.287-.073,4.065,4.065,0,0,1,2.391,2.179c.958,1.887.74,4.089-.486,4.91A1.843,1.843,0,0,1,1677.224,437.532Z" transform="translate(-1673.943 -429.541)" fill="#371a45"/>
          </g>
          <g id="Group_330" data-name="Group 330" transform="translate(57.093 19.123)" opacity="0.35">
            <ellipse id="Ellipse_68" data-name="Ellipse 68" cx="2.558" cy="3.777" rx="2.558" ry="3.777" transform="translate(0 1.831) rotate(-20.972)" fill="#371a45"/>
          </g>
          <g id="Group_331" data-name="Group 331" transform="translate(59.493 18.945)" opacity="0.4">
            <path id="Path_348" data-name="Path 348" d="M1679.6,436.9a2.059,2.059,0,0,1-1.754.238c.034-.019.066-.039.1-.061,1.189-.8,1.392-2.941.454-4.788-.787-1.55-2.127-2.4-3.24-2.164a2.219,2.219,0,0,1,.652-.684c1.326-.886,3.249.062,4.3,2.123S1680.928,436.012,1679.6,436.9Z" transform="translate(-1675.162 -429.109)" fill="#fff"/>
          </g>
          <g id="Group_332" data-name="Group 332" transform="translate(57.544 19.362)">
            <path id="Path_349" data-name="Path 349" d="M1674.509,436.6a4.787,4.787,0,0,1-1.309-1.824,4.9,4.9,0,0,1-.39-2.313,3.651,3.651,0,0,1,.309-1.241,2.866,2.866,0,0,1,.879-1.113,2.529,2.529,0,0,1,1.422-.494,2.971,2.971,0,0,1,1.379.3,4.5,4.5,0,0,1,1.821,1.681,5.751,5.751,0,0,1,.82,2.2,4.663,4.663,0,0,1-.224,2.336,2.871,2.871,0,0,1-.66,1.022,1.977,1.977,0,0,1-1.077.557.255.255,0,0,1-.162-.474l.011-.006a1.85,1.85,0,0,0,.88-1.4,3.626,3.626,0,0,0,.03-.876,5.006,5.006,0,0,0-.941-2.463,3.278,3.278,0,0,0-1.21-1.052,1.113,1.113,0,0,0-1.124.01,1.846,1.846,0,0,0-.675,1.2,4.49,4.49,0,0,0,.03,1.763,5.683,5.683,0,0,0,.662,1.773l.005.01a.316.316,0,0,1-.478.4Z" transform="translate(-1672.796 -429.616)" fill="#371a45"/>
          </g>
          <g id="Group_333" data-name="Group 333" transform="translate(37.429 7.809)" opacity="0.4">
            <path id="Path_350" data-name="Path 350" d="M1652.468,423.623a4.231,4.231,0,0,1-4-.139,3.839,3.839,0,1,0,.264-7.371c-.121.03-.238.067-.354.108.114-.07.23-.134.352-.194a4.234,4.234,0,1,1,3.74,7.6Z" transform="translate(-1648.376 -415.59)" fill="#fff"/>
          </g>
          <g id="Group_334" data-name="Group 334" transform="translate(34.879 8.217)" opacity="0.35">
            <circle id="Ellipse_69" data-name="Ellipse 69" cx="3.839" cy="3.839" r="3.839" fill="#371a45"/>
          </g>
          <g id="Group_335" data-name="Group 335" transform="translate(34.469 7.69)">
            <path id="Path_351" data-name="Path 351" d="M1645.7,422.238a3.846,3.846,0,0,1-.921-2.544,4.245,4.245,0,0,1,.971-2.666,4.378,4.378,0,0,1,2.5-1.492,4.4,4.4,0,0,1,2.912.4,4.466,4.466,0,0,1,2.021,2.124,4.339,4.339,0,0,1,.365,1.427,4.157,4.157,0,0,1-.122,1.45,4.215,4.215,0,0,1-.593,1.309,4.311,4.311,0,0,1-.979,1.011,3.84,3.84,0,0,1-2.562.743.254.254,0,0,1-.031-.5h.005a3.461,3.461,0,0,0,2.792-2.85,3.166,3.166,0,0,0-.316-1.9,3.1,3.1,0,0,0-1.343-1.315,3.2,3.2,0,0,0-.9-.285,3.124,3.124,0,0,0-2.64.87,3.327,3.327,0,0,0-.585.8,2.923,2.923,0,0,0-.326.96,3.581,3.581,0,0,0,.272,2.114l0,.007a.316.316,0,0,1-.526.336Z" transform="translate(-1644.782 -415.446)" fill="#371a45"/>
          </g>
          <g id="Group_338" data-name="Group 338" transform="translate(18.295 8.139)">
            <g id="Group_336" data-name="Group 336" transform="translate(0.353 0.686)">
              <path id="Path_352" data-name="Path 352" d="M1625.591,420.634c-.171-1,1.1-2.715,3.074-3.462s3.711-.2,4.073.757" transform="translate(-1625.575 -416.824)" fill="#ffa726"/>
            </g>
            <g id="Group_337" data-name="Group 337">
              <path id="Path_353" data-name="Path 353" d="M1625.23,420.536a1.635,1.635,0,0,1-.071-.735,2.767,2.767,0,0,1,.17-.678,4.247,4.247,0,0,1,.685-1.149,5.594,5.594,0,0,1,2.109-1.556,4.98,4.98,0,0,1,2.632-.385,3.4,3.4,0,0,1,1.319.462,2.424,2.424,0,0,1,.556.485,2.086,2.086,0,0,1,.209.321,1.55,1.55,0,0,1,.121.367.322.322,0,0,1-.561.265l-.035-.04a1.48,1.48,0,0,0-.753-.441,3.337,3.337,0,0,0-.954-.11,5.61,5.61,0,0,0-1.966.434,6.563,6.563,0,0,0-1.764,1.073,4.906,4.906,0,0,0-.711.74,2,2,0,0,0-.415.847l-.008.049a.292.292,0,0,1-.563.049Z" transform="translate(-1625.146 -415.991)" fill="#371a45"/>
            </g>
          </g>
          <g id="Group_339" data-name="Group 339" transform="translate(17.614 7.781)" opacity="0.35">
            <ellipse id="Ellipse_70" data-name="Ellipse 70" cx="4.148" cy="2.028" rx="4.148" ry="2.028" transform="matrix(0.91, -0.415, 0.415, 0.91, 0, 3.444)" fill="#371a45"/>
          </g>
        </g>
        <g id="Group_341" data-name="Group 341" transform="translate(10.537 19.666)" opacity="0.3">
          <path id="Path_354" data-name="Path 354" d="M1615.728,430.6c.151-.206.3-.413.464-.616C1616.033,430.187,1615.879,430.392,1615.728,430.6Z" transform="translate(-1615.728 -429.984)" fill="#293856"/>
        </g>
      </g>
    </g>
  </g>
</svg>
