<svg id="Group_1067" data-name="Group 1067" xmlns="http://www.w3.org/2000/svg" width="149.164" height="149.164" viewBox="0 0 149.164 149.164">
  <g id="Group_1044" data-name="Group 1044" transform="translate(1.308 1.786)">
    <path id="Path_1246" data-name="Path 1246" d="M4218.375,7238.479a72.918,72.918,0,0,1-106.383-47.239,71.855,71.855,0,0,1-1.445-8.486,72.874,72.874,0,1,1,107.828,55.725Z" transform="translate(-4110.116 -7101.925)" fill="#f6a42c"/>
  </g>
  <g id="Group_1045" data-name="Group 1045" transform="translate(2.214 52.496)" opacity="0.35">
    <path id="Path_1247" data-name="Path 1247" d="M4218.983,7272.458A72.912,72.912,0,0,1,4112.6,7225.22q-.578-2.477-.972-4.974a80.639,80.639,0,0,0,54.537,29.393l-.333-.351a12.114,12.114,0,0,1,.292-6.941c2.321-6.667,7.734-11.271,18.247-7.607,5.995,2.087,9.921,7.26,10.217,12.7a80.761,80.761,0,0,0,18.813-7.56c.319-.178.635-.357.951-.539a15.343,15.343,0,0,1,3.484-13.334c4.824-5.767,12.452-7.463,17.66-4.147a80.755,80.755,0,0,0,17.519-35.246,72.806,72.806,0,0,1-34.031,85.842Z" transform="translate(-4111.629 -7186.617)" fill="#371b45"/>
  </g>
  <g id="Group_1046" data-name="Group 1046" transform="translate(0.462 0.934)" opacity="0.4">
    <path id="Path_1248" data-name="Path 1248" d="M4256,7161.368a74.374,74.374,0,0,0-74.92-51.474l0,.013c1.057,4.207-3.382,8.947-9.914,10.588s-12.684-.438-13.741-4.646a4.915,4.915,0,0,1-.113-.6,74.3,74.3,0,0,0-45.073,82.163A74.254,74.254,0,1,1,4256,7161.368Z" transform="translate(-4108.703 -7100.501)" fill="#fff"/>
  </g>
  <g id="Group_1047" data-name="Group 1047">
    <path id="Path_1249" data-name="Path 1249" d="M4182.6,7248.106a74.888,74.888,0,0,1-20.588-2.9,74.127,74.127,0,1,1,20.588,2.9Zm-.229-145.732a71.125,71.125,0,1,0,62.3,36.573A70.7,70.7,0,0,0,4182.37,7102.375Z" transform="translate(-4107.931 -7098.943)" fill="#371b45"/>
  </g>
  <g id="Group_1048" data-name="Group 1048" transform="translate(54.381 99.065)">
    <path id="Path_1250" data-name="Path 1250" d="M4229.318,7274a13.166,13.166,0,0,1,.89,2.264,12.788,12.788,0,0,1,.428,2.429,12.318,12.318,0,0,1-.07,2.494,18.7,18.7,0,0,1-.469,2.4,14.827,14.827,0,0,1-2.063,4.565,11.955,11.955,0,0,1-3.818,3.506,13.393,13.393,0,0,1-4.885,1.613,20.958,20.958,0,0,1-4.974.06c-.816-.1-1.6-.211-2.419-.375a17.676,17.676,0,0,1-2.439-.672,16.732,16.732,0,0,1-2.328-1.011,14.968,14.968,0,0,1-2.157-1.352,16.362,16.362,0,0,1-3.576-3.635,14.166,14.166,0,0,1-2.212-4.639,13.254,13.254,0,0,1,1.229-10.02,14.2,14.2,0,0,1,7.578-6.3,15.892,15.892,0,0,1,9.521-.385.514.514,0,0,1-.191,1.006,15.876,15.876,0,0,0-8.51,1.359,12.364,12.364,0,0,0-5.9,5.643,10.652,10.652,0,0,0-.61,7.806,12.5,12.5,0,0,0,4.689,6.411,14.78,14.78,0,0,0,3.608,1.912,14.112,14.112,0,0,0,1.979.564c.686.145,1.414.258,2.116.347a17.965,17.965,0,0,0,4.19.088,11.41,11.41,0,0,0,3.842-1.082,10.581,10.581,0,0,0,5.023-6.127,20.285,20.285,0,0,0,.617-2.062,11.121,11.121,0,0,0,.292-2.078,12.229,12.229,0,0,0-.555-4.244l0-.014a.636.636,0,0,1,1.177-.47Z" transform="translate(-4198.753 -7264.391)" fill="#371b45"/>
  </g>
  <g id="Group_1049" data-name="Group 1049" transform="translate(80.898 49.38)" opacity="0.4">
    <path id="Path_1251" data-name="Path 1251" d="M4253.864,7202.666a11.2,11.2,0,0,1-10.588-.371,10.156,10.156,0,1,0,.7-19.5c-.319.081-.629.176-.934.284.3-.185.608-.354.929-.513a11.2,11.2,0,1,1,9.9,20.1Z" transform="translate(-4243.039 -7181.413)" fill="#fff"/>
  </g>
  <g id="Group_1050" data-name="Group 1050" transform="translate(19.83 60.662)" opacity="0.35">
    <circle id="Ellipse_282" data-name="Ellipse 282" cx="15.321" cy="15.321" r="15.321" fill="#371b45"/>
  </g>
  <g id="Group_1051" data-name="Group 1051" transform="translate(20.841 57.294)" opacity="0.4">
    <path id="Path_1252" data-name="Path 1252" d="M4178.332,7207.24a18.732,18.732,0,0,1-35.4,12.258c-.068-.195-.131-.387-.191-.581a15.318,15.318,0,1,0,3.319-17.319,18.732,18.732,0,0,1,32.274,5.642Z" transform="translate(-4142.739 -7194.629)" fill="#fff"/>
  </g>
  <g id="Group_1052" data-name="Group 1052" transform="translate(19.111 58.698)">
    <path id="Path_1253" data-name="Path 1253" d="M4144.234,7202.361a16.143,16.143,0,0,1,9.594-5.175,17.063,17.063,0,0,1,11,2,17.324,17.324,0,0,1,4.439,3.62l.471.549.233.275.209.295c.275.4.559.787.822,1.189l.709,1.263c.232.423.4.877.6,1.319a18.1,18.1,0,0,1,1.271,5.628,17.634,17.634,0,0,1-.643,5.744,17.051,17.051,0,0,1-2.483,5.206,17.5,17.5,0,0,1-4.019,4.125,17.856,17.856,0,0,1-5.143,2.543c-.462.124-.914.289-1.385.372l-1.412.246a18.428,18.428,0,0,1-2.855.114,16.822,16.822,0,0,1-5.544-1.137,17.462,17.462,0,0,1-4.8-2.89,16.248,16.248,0,0,1-5.437-9.359.513.513,0,0,1,.988-.262l0,.013a15.713,15.713,0,0,0,10.093,10.123,15.4,15.4,0,0,0,4.735.688,15.684,15.684,0,0,0,2.373-.217l1.161-.265c.388-.078.756-.235,1.136-.346a14.49,14.49,0,0,0,9.3-9.883,15.531,15.531,0,0,0,.527-4.63,14.878,14.878,0,0,0-6.895-11.721,15,15,0,0,0-4.384-1.836,13.983,13.983,0,0,0-4.784-.394,15.629,15.629,0,0,0-8.992,3.711.637.637,0,0,1-.891-.906Z" transform="translate(-4139.848 -7196.975)" fill="#371b45"/>
  </g>
  <g id="Group_1053" data-name="Group 1053" transform="translate(103.116 85.832)">
    <path id="Path_1254" data-name="Path 1254" d="M4299.5,7242.295a12.2,12.2,0,0,1,2.28.454,11.364,11.364,0,0,1,2.17.94,11.037,11.037,0,0,1,3.547,3.215,12.444,12.444,0,0,1,1.942,4.438,13.777,13.777,0,0,1,.173,4.826,16.456,16.456,0,0,1-1.322,4.614,19.964,19.964,0,0,1-2.533,4.059,21.093,21.093,0,0,1-3.5,3.251,18.45,18.45,0,0,1-4.249,2.253,16.547,16.547,0,0,1-4.763.945,13.062,13.062,0,0,1-4.882-.643,12.294,12.294,0,0,1-4.306-2.5,11.442,11.442,0,0,1-2.893-4.013,13.655,13.655,0,0,1-.352-9.409,17.265,17.265,0,0,1,2-4.168,18.349,18.349,0,0,1,3.023-3.385.512.512,0,0,1,.735.709l-.012.015a20.443,20.443,0,0,0-2.324,3.5,16.676,16.676,0,0,0-1.351,3.871,11.839,11.839,0,0,0,.841,7.672,9.234,9.234,0,0,0,5.609,4.617,12.1,12.1,0,0,0,7.5-.416,17.341,17.341,0,0,0,3.45-1.821,17.8,17.8,0,0,0,2.91-2.651,17.278,17.278,0,0,0,2.191-3.262,15.408,15.408,0,0,0,1.243-3.7c.047-.321.125-.641.151-.963l.074-.972-.021-.968c0-.325-.075-.639-.1-.962a9.867,9.867,0,0,0-1.231-3.63,10,10,0,0,0-6.22-4.662l-.012,0a.636.636,0,0,1,.234-1.247Z" transform="translate(-4280.146 -7242.291)" fill="#371b45"/>
  </g>
  <g id="Group_1054" data-name="Group 1054" transform="translate(69.945 46.252)" opacity="0.35">
    <circle id="Ellipse_283" data-name="Ellipse 283" cx="10.156" cy="10.156" r="10.156" transform="translate(0 14.362) rotate(-45)" fill="#371b45"/>
  </g>
  <g id="Group_1055" data-name="Group 1055" transform="translate(73.423 49.579)">
    <path id="Path_1255" data-name="Path 1255" d="M4232.794,7199.094a10.071,10.071,0,0,1-2.238-6.6,10.719,10.719,0,0,1,.688-3.583,11.275,11.275,0,0,1,1.866-3.19,11.133,11.133,0,0,1,6.364-3.759,11.215,11.215,0,0,1,7.377,1.03,11.384,11.384,0,0,1,5.137,5.373,11.2,11.2,0,0,1,.948,3.619,10.521,10.521,0,0,1-.292,3.692,10.7,10.7,0,0,1-1.467,3.357,11.145,11.145,0,0,1-2.474,2.625,10.1,10.1,0,0,1-6.576,2.055.514.514,0,0,1-.069-1.018l.018,0a9.728,9.728,0,0,0,5.239-2.661,9.376,9.376,0,0,0,1.7-2.292,8.965,8.965,0,0,0,.985-4.026l-.033-.689c0-.228-.059-.454-.083-.68a8.86,8.86,0,0,0-.823-2.578,8.586,8.586,0,0,0-3.758-3.726,8.853,8.853,0,0,0-2.537-.806,8.6,8.6,0,0,0-8.984,4.76,8.128,8.128,0,0,0-.841,2.676,9.557,9.557,0,0,0,.917,5.724l0,.008a.639.639,0,0,1-1.065.689Z" transform="translate(-4230.555 -7181.745)" fill="#371b45"/>
  </g>
  <g id="Group_1056" data-name="Group 1056" transform="translate(118.963 39.256)" opacity="0.3">
    <path id="Path_1256" data-name="Path 1256" d="M4317.965,7179.658a4.257,4.257,0,0,1-5.394.97,3.684,3.684,0,0,0,2.878-.513c2.421-1.621,2.834-5.982.924-9.743s-5.419-5.493-7.84-3.873a3.691,3.691,0,0,0-.4.314,5.013,5.013,0,0,1,.351-.478c2.169-2.618,6.05-1.759,8.67,1.92S4320.135,7177.04,4317.965,7179.658Z" transform="translate(-4307.22 -7164.631)" fill="#fff"/>
    <path id="Path_1257" data-name="Path 1257" d="M4314.209,7181.237a5.405,5.405,0,0,1-2.327-.565l-1.43-.683,1.55.327a3.509,3.509,0,0,0,2.735-.486c2.339-1.566,2.725-5.827.86-9.5a7.888,7.888,0,0,0-4.621-4.238,3.542,3.542,0,0,0-2.946.437,3.642,3.642,0,0,0-.384.3l-1.033.917.749-1.161a5,5,0,0,1,.364-.5,4.167,4.167,0,0,1,3.464-1.58c1.961.072,3.968,1.352,5.506,3.512,2.663,3.739,3.025,8.958.808,11.632A4.188,4.188,0,0,1,4314.209,7181.237Zm-.924-.48a3.875,3.875,0,0,0,3.927-1.347h0c2.114-2.551,1.744-7.562-.825-11.17-1.47-2.064-3.369-3.287-5.211-3.354a3.74,3.74,0,0,0-2.724.988,4.009,4.009,0,0,1,2.62-.147,8.262,8.262,0,0,1,4.863,4.434c1.949,3.836,1.505,8.316-.988,9.984A3.723,3.723,0,0,1,4313.285,7180.756Z" transform="translate(-4306.612 -7164.503)" fill="#371b45"/>
  </g>
  <g id="Group_1057" data-name="Group 1057" transform="translate(116.125 38.895)" opacity="0.35">
    <ellipse id="Ellipse_284" data-name="Ellipse 284" cx="5.204" cy="7.683" rx="5.204" ry="7.683" transform="translate(0 3.725) rotate(-20.972)" fill="#371b45"/>
  </g>
  <g id="Group_1058" data-name="Group 1058" transform="translate(121.005 38.532)" opacity="0.4">
    <path id="Path_1258" data-name="Path 1258" d="M4319.054,7179.139a4.184,4.184,0,0,1-3.566.485c.069-.038.134-.079.2-.123,2.421-1.621,2.833-5.98.924-9.74-1.6-3.152-4.325-4.879-6.591-4.4a4.553,4.553,0,0,1,1.325-1.391c2.7-1.8,6.609.127,8.737,4.318S4321.749,7177.334,4319.054,7179.139Z" transform="translate(-4310.022 -7163.294)" fill="#fff"/>
  </g>
  <g id="Group_1059" data-name="Group 1059" transform="translate(117.041 39.381)">
    <path id="Path_1259" data-name="Path 1259" d="M4306.887,7178.923a9.745,9.745,0,0,1-2.663-3.71,10.014,10.014,0,0,1-.793-4.7,7.45,7.45,0,0,1,.63-2.524,5.814,5.814,0,0,1,1.787-2.263,5.148,5.148,0,0,1,2.892-1,6.038,6.038,0,0,1,2.8.618,9.159,9.159,0,0,1,3.7,3.418,11.711,11.711,0,0,1,1.666,4.468,9.479,9.479,0,0,1-.455,4.751,5.829,5.829,0,0,1-1.343,2.08,4.029,4.029,0,0,1-2.19,1.134.518.518,0,0,1-.33-.963l.024-.013a3.762,3.762,0,0,0,1.789-2.843,7.369,7.369,0,0,0,.063-1.783,10.221,10.221,0,0,0-1.915-5.009,6.677,6.677,0,0,0-2.46-2.139,2.263,2.263,0,0,0-2.285.02,3.746,3.746,0,0,0-1.372,2.45,9.169,9.169,0,0,0,.061,3.585,11.614,11.614,0,0,0,1.348,3.607l.011.019a.643.643,0,0,1-.972.81Z" transform="translate(-4303.401 -7164.713)" fill="#371b45"/>
  </g>
  <g id="Group_1060" data-name="Group 1060" transform="translate(76.13 15.883)" opacity="0.4">
    <path id="Path_1260" data-name="Path 1260" d="M4243.4,7141.809a8.609,8.609,0,0,1-8.142-.283,7.809,7.809,0,1,0,.537-14.993c-.246.061-.483.135-.718.218.231-.143.467-.272.714-.394a8.612,8.612,0,1,1,7.609,15.452Z" transform="translate(-4235.076 -7125.469)" fill="#fff"/>
  </g>
  <g id="Group_1061" data-name="Group 1061" transform="translate(70.943 16.712)" opacity="0.35">
    <circle id="Ellipse_285" data-name="Ellipse 285" cx="7.809" cy="7.809" r="7.809" fill="#371b45"/>
  </g>
  <g id="Group_1062" data-name="Group 1062" transform="translate(70.109 15.642)">
    <path id="Path_1261" data-name="Path 1261" d="M4226.894,7138.88a7.812,7.812,0,0,1-1.873-5.174,8.63,8.63,0,0,1,1.974-5.423,8.9,8.9,0,0,1,5.086-3.036,8.953,8.953,0,0,1,5.924.823,9.075,9.075,0,0,1,4.108,4.32,8.89,8.89,0,0,1,.744,2.9,8.664,8.664,0,0,1-1.455,5.61,8.687,8.687,0,0,1-1.993,2.057,7.812,7.812,0,0,1-5.209,1.511.516.516,0,0,1-.062-1.02l.01,0a7.04,7.04,0,0,0,5.679-5.8,6.431,6.431,0,0,0-.644-3.862,6.288,6.288,0,0,0-2.73-2.674,6.5,6.5,0,0,0-1.827-.579,6.344,6.344,0,0,0-5.371,1.769,6.737,6.737,0,0,0-1.188,1.624,5.962,5.962,0,0,0-.665,1.953,7.294,7.294,0,0,0,.554,4.3l.006.014a.641.641,0,0,1-1.067.683Z" transform="translate(-4225.021 -7125.066)" fill="#371b45"/>
  </g>
  <g id="Group_1065" data-name="Group 1065" transform="translate(37.211 16.555)">
    <g id="Group_1063" data-name="Group 1063" transform="translate(0.719 1.396)">
      <path id="Path_1262" data-name="Path 1262" d="M4171.311,7136.671c-.349-2.04,2.238-5.522,6.252-7.041s7.546-.407,8.283,1.54" transform="translate(-4171.279 -7128.921)" fill="#f6a42c"/>
    </g>
    <g id="Group_1064" data-name="Group 1064">
      <path id="Path_1263" data-name="Path 1263" d="M4170.247,7135.835a3.32,3.32,0,0,1-.143-1.494,5.616,5.616,0,0,1,.346-1.378,8.56,8.56,0,0,1,1.394-2.337,11.352,11.352,0,0,1,4.288-3.166,10.131,10.131,0,0,1,5.354-.783,6.916,6.916,0,0,1,2.682.939,4.93,4.93,0,0,1,1.131.987,4.151,4.151,0,0,1,.424.654,3.063,3.063,0,0,1,.247.747.655.655,0,0,1-1.142.539l-.068-.081a3.022,3.022,0,0,0-1.534-.9,6.8,6.8,0,0,0-1.939-.223,11.448,11.448,0,0,0-4,.882,13.345,13.345,0,0,0-3.588,2.184,9.938,9.938,0,0,0-1.445,1.505,4.083,4.083,0,0,0-.844,1.722l-.017.1a.595.595,0,0,1-1.145.1Z" transform="translate(-4170.078 -7126.591)" fill="#371b45"/>
    </g>
  </g>
  <g id="Group_1066" data-name="Group 1066" transform="translate(35.826 15.825)" opacity="0.35">
    <ellipse id="Ellipse_286" data-name="Ellipse 286" cx="8.438" cy="4.125" rx="8.438" ry="4.125" transform="matrix(0.91, -0.415, 0.415, 0.91, 0, 7.006)" fill="#371b45"/>
  </g>
</svg>
