<svg xmlns="http://www.w3.org/2000/svg" width="87.313" height="113.474" viewBox="0 0 87.313 113.474">
  <g id="Group_3387" data-name="Group 3387" transform="translate(0 0)">
    <path id="Path_3372" data-name="Path 3372" d="M1495.907,815.784c.458-.174.419-1.154-.045-1.169-35.813-1.207-84.2,48.511-84.471,96.273,0,.649.731.731.95.159,10.412-27.081,17.52-52.389,38.326-70.64C1465.4,827.482,1479.43,822.088,1495.907,815.784Z" transform="translate(-1408.918 -814.594)" fill="#fff"/>
    <path id="Path_3373" data-name="Path 3373" d="M1408.3,959.167c-.174,1.907-.941,5.9.986,6.52,1.723.558,1.807-3.311,1.833-4.458.05-2.215.653-4.825.025-6.866-.053-.169-.19-.309-.347-.266C1409.014,954.584,1408.483,957.175,1408.3,959.167Z" transform="translate(-1408.003 -852.268)" fill="#fff"/>
  </g>
</svg>
