<svg xmlns="http://www.w3.org/2000/svg" width="203.775" height="267.675" viewBox="0 0 203.775 267.675">
  <g id="Group_769" data-name="Group 769" transform="translate(0)">
    <path id="Path_1068" data-name="Path 1068" d="M605.344,6285.578l-62.756-175.462a17.411,17.411,0,0,0-22.255-10.529l-85.36,30.531a17.427,17.427,0,0,0-10.529,22.253L487.2,6327.835a17.419,17.419,0,0,0,19.332,11.3,17.662,17.662,0,0,0,2.924-.771l85.36-30.531A17.429,17.429,0,0,0,605.344,6285.578Z" transform="translate(-423.425 -6071.715)" fill="#2a1344"/>
    <g id="Group_753" data-name="Group 753" transform="translate(12.338 0)">
      <rect id="Rectangle_263" data-name="Rectangle 263" width="124.544" height="220.235" rx="23.797" transform="translate(0 41.942) rotate(-19.68)" fill="#d2e7f9"/>
      <path id="Path_1069" data-name="Path 1069" d="M510.5,6296.091,447.74,6120.628a17.428,17.428,0,0,1,10.53-22.254l85.361-30.531a17.408,17.408,0,0,1,22.255,10.53l62.756,175.462a17.428,17.428,0,0,1-10.53,22.254l-85.361,30.531a17.4,17.4,0,0,1-22.255-10.529Zm107.3-20.876a16.5,16.5,0,0,0,9.966-21.067l-62.756-175.462a16.477,16.477,0,0,0-21.065-9.966l-85.361,30.529a16.5,16.5,0,0,0-9.966,21.067l62.756,175.461a16.506,16.506,0,0,0,21.065,9.968Z" transform="translate(-442.472 -6062.575)" fill="#2b0c4f"/>
    </g>
    <g id="Group_754" data-name="Group 754" transform="translate(17.591 41.222)">
      <path id="Path_1070" data-name="Path 1070" d="M449.123,6135.234,511.882,6310.7a16.944,16.944,0,0,0,21.661,10.248L618.9,6290.42a16.963,16.963,0,0,0,11.233-15.153,16.94,16.94,0,0,1-7.382,5.179l-85.361,30.53a16.943,16.943,0,0,1-21.661-10.249l-62.758-175.467a16.921,16.921,0,0,1-.985-6.509A16.982,16.982,0,0,0,449.123,6135.234Z" transform="translate(-448.13 -6118.752)" fill="#2b0c4f"/>
    </g>
    <g id="Group_755" data-name="Group 755" transform="translate(17.157 4.714)" opacity="0.55">
      <path id="Path_1071" data-name="Path 1071" d="M447.521,6113.022a17,17,0,0,1,6.468-4.164l85.361-30.53a16.943,16.943,0,0,1,21.661,10.247l62.758,175.469a16.952,16.952,0,0,1,.883,7.643,16.97,16.97,0,0,0,3.779-17.5l-62.758-175.469a16.944,16.944,0,0,0-21.661-10.248L458.651,6099A16.969,16.969,0,0,0,447.521,6113.022Z" transform="translate(-447.521 -6067.479)" fill="#fff"/>
    </g>
    <g id="Group_756" data-name="Group 756" transform="translate(13.796 1.449)">
      <path id="Path_1072" data-name="Path 1072" d="M506.739,6295.9l-62.756-175.462a20.224,20.224,0,0,1,12.218-25.823l85.36-30.531a20.2,20.2,0,0,1,25.824,12.218l62.756,175.462a20.224,20.224,0,0,1-12.218,25.825l-85.36,30.529h0a20.182,20.182,0,0,1-25.824-12.218Zm23.631,6.085,85.36-30.53a13.7,13.7,0,0,0,8.278-17.5L561.251,6078.5a13.686,13.686,0,0,0-17.5-8.278l-85.36,30.529a13.7,13.7,0,0,0-8.278,17.5l62.756,175.462a13.706,13.706,0,0,0,17.5,8.279Z" transform="translate(-442.802 -6062.894)" fill="#2b0c4f"/>
    </g>
    <g id="Group_757" data-name="Group 757" transform="translate(34.376 28.673)">
      <rect id="Rectangle_264" data-name="Rectangle 264" width="95.847" height="162.825" rx="34.781" transform="translate(145.083 153.314) rotate(160.32)" fill="#262f6a"/>
      <path id="Path_1073" data-name="Path 1073" d="M524.46,6281.322,473.986,6140.2a6.947,6.947,0,0,1,4.2-8.87l78.058-27.919a6.939,6.939,0,0,1,8.871,4.2l50.474,141.123a6.948,6.948,0,0,1-4.2,8.871l-78.057,27.918a7.159,7.159,0,0,1-1.154.3A6.951,6.951,0,0,1,524.46,6281.322Zm86.615-24.6a6.017,6.017,0,0,0,3.634-7.682l-50.474-141.123a6.007,6.007,0,0,0-7.681-3.635L478.5,6132.2a6.014,6.014,0,0,0-3.634,7.68l50.474,141.124a6.018,6.018,0,0,0,7.681,3.634Z" transform="translate(-472.244 -6101.667)" fill="#2b0c4f"/>
    </g>
    <g id="Group_758" data-name="Group 758" transform="translate(35.709 31.453)">
      <path id="Path_1074" data-name="Path 1074" d="M473.956,6141.61l50.474,141.12a6.495,6.495,0,0,0,8.278,3.918l78.058-27.919a6.474,6.474,0,0,0,3.916-8.277l-50.473-141.121a6.475,6.475,0,0,0-8.278-3.917l-78.059,27.918A6.474,6.474,0,0,0,473.956,6141.61Z" transform="translate(-473.576 -6105.033)" fill="#19aff9"/>
    </g>
    <g id="Group_759" data-name="Group 759" transform="translate(132.443 205.375)">
      <circle id="Ellipse_137" data-name="Ellipse 137" cx="6.98" cy="6.98" r="6.98" fill="#2b0c4f"/>
    </g>
    <g id="Group_760" data-name="Group 760" transform="translate(63.487 54.807)" opacity="0.5">
      <rect id="Rectangle_265" data-name="Rectangle 265" width="63.906" height="44.294" rx="6.345" transform="translate(0 21.522) rotate(-19.68)" fill="#fff"/>
    </g>
    <g id="Group_761" data-name="Group 761" transform="translate(108.189 40.847)" opacity="0.5">
      <circle id="Ellipse_138" data-name="Ellipse 138" cx="5.465" cy="5.465" r="5.465" transform="translate(0 9.88) rotate(-64.68)" fill="#fff"/>
    </g>
    <g id="Group_762" data-name="Group 762" transform="translate(88.288 124.148)" opacity="0.5">
      <rect id="Rectangle_266" data-name="Rectangle 266" width="63.906" height="44.294" rx="6.345" transform="translate(0 21.522) rotate(-19.68)" fill="#fff"/>
    </g>
    <g id="Group_763" data-name="Group 763" transform="translate(132.99 110.189)" opacity="0.5">
      <circle id="Ellipse_139" data-name="Ellipse 139" cx="5.465" cy="5.465" r="5.465" transform="translate(0 9.88) rotate(-64.68)" fill="#fff"/>
    </g>
    <g id="Group_764" data-name="Group 764" transform="translate(67.694 31.453)" opacity="0.15">
      <path id="Path_1075" data-name="Path 1075" d="M518.5,6229.975l18.869,52.754a6.418,6.418,0,0,0,3.711,3.832l42.657-158.81-6.588-18.421a6.475,6.475,0,0,0-8.278-3.917l-18.713,6.692Z" transform="translate(-518.497 -6105.033)" fill="#fff"/>
    </g>
    <g id="Group_765" data-name="Group 765" transform="translate(49.204 43.848)" opacity="0.15">
      <path id="Path_1076" data-name="Path 1076" d="M492.53,6183.293l10.81,30.224,24.457-91.077-20.934,7.488Z" transform="translate(-492.53 -6122.441)" fill="#fff"/>
    </g>
    <g id="Group_766" data-name="Group 766" transform="translate(125.457 105.694)" opacity="0.15">
      <path id="Path_1077" data-name="Path 1077" d="M599.622,6305.723l20.948-7.493,15.763-58.706-10.81-30.225Z" transform="translate(-599.622 -6209.3)" fill="#fff"/>
    </g>
    <g id="Group_767" data-name="Group 767" transform="translate(33.093 27.385)">
      <path id="Path_1078" data-name="Path 1078" d="M520.936,6281.144,470.462,6140.02a9.568,9.568,0,0,1,5.78-12.217l78.058-27.918a9.558,9.558,0,0,1,12.217,5.78l50.475,141.124a9.569,9.569,0,0,1-5.781,12.217l-78.057,27.917h0a9.554,9.554,0,0,1-12.216-5.781Zm10.14-.027,78.057-27.918a3.394,3.394,0,0,0,2.051-4.333L560.71,6107.744a3.392,3.392,0,0,0-4.333-2.052l-78.057,27.918a3.393,3.393,0,0,0-2.051,4.333l50.474,141.124a3.392,3.392,0,0,0,4.334,2.05Z" transform="translate(-469.903 -6099.32)" fill="#2b0c4f"/>
    </g>
    <g id="Group_768" data-name="Group 768" transform="translate(63.864 28.972)">
      <path id="Path_1079" data-name="Path 1079" d="M515.84,6113.106a2.366,2.366,0,0,0,.389-.1l19.392-6.935a2.326,2.326,0,1,0-1.566-4.38l-19.393,6.935a2.327,2.327,0,0,0,1.178,4.483Z" transform="translate(-513.118 -6101.548)" fill="#2b0c4f"/>
    </g>
  </g>
</svg>
