<svg id="Group_509" data-name="Group 509" xmlns="http://www.w3.org/2000/svg" width="75.114" height="67.117" viewBox="0 0 75.114 67.117">
  <g id="Group_508" data-name="Group 508">
    <g id="Group_387" data-name="Group 387" transform="translate(1.929 6.974)">
      <g id="Group_373" data-name="Group 373" transform="translate(0.439 2.989)">
        <path id="Path_542" data-name="Path 542" d="M226.751,1027s-1.507,4.789,9.71-2.073,39.214-12.109,52.459-10.434,3.894-29.808-5.936-34.862S242.409,996.4,226.751,1027Z" transform="translate(-226.683 -978.898)" fill="#f7af41"/>
      </g>
      <g id="Group_374" data-name="Group 374" transform="translate(1.182 2.96)" opacity="0.46">
        <path id="Path_543" data-name="Path 543" d="M227.8,1025.93s-2.4,5.849,8.819-1.013,39.214-12.109,52.459-10.434,3.894-29.808-5.936-34.862S243.459,995.331,227.8,1025.93Z" transform="translate(-227.585 -978.863)" fill="#371a45"/>
      </g>
      <g id="Group_375" data-name="Group 375" transform="translate(0.402 2.438)">
        <path id="Path_544" data-name="Path 544" d="M228.676,1028.645a2.162,2.162,0,0,1-1.4-.42c-1.057-.855-.485-2.522-.46-2.593a.45.45,0,0,1,.027-.064,114.231,114.231,0,0,1,23.007-30.52c8.266-7.806,16.988-13.565,23.93-15.8,4.006-1.29,7.18-1.357,9.433-.2,3.57,1.835,7.294,7.084,9.963,14.039,2.615,6.815,3.474,13.522,2.242,17.5-.889,2.869-2.786,4.36-5.516,4.36a8.4,8.4,0,0,1-1.053-.069c-13.627-1.723-41.395,3.8-52.124,10.362C233,1027.519,230.345,1028.645,228.676,1028.645Zm-.9-2.642c-.1.3-.246,1.106.147,1.422.33.265,1.9.829,8.259-3.06,5.316-3.253,14.661-6.346,25.639-8.485,10.628-2.071,20.779-2.827,27.152-2.021,2.777.35,4.613-.851,5.456-3.573,1.167-3.769.316-10.217-2.22-16.827s-6.171-11.795-9.472-13.491c-1.972-1.014-4.962-.923-8.646.263-6.8,2.189-15.381,7.863-23.539,15.568A113.177,113.177,0,0,0,227.777,1026Z" transform="translate(-226.638 -978.23)" fill="#371a45"/>
      </g>
      <g id="Group_385" data-name="Group 385">
        <g id="Group_376" data-name="Group 376" transform="translate(0.503 0.514)">
          <path id="Path_545" data-name="Path 545" d="M283.692,985.128c-1.557-.358.155-.942-1.909-3a3.318,3.318,0,0,0-4.331-.367,1.908,1.908,0,0,0,.056-2.009c-1.776-2.488-6.438-.931-8.145-2.927s-5.78-.166-5.78-.166-24.329,14.522-31.294,31.249-6.432,21.861-3.405,20.7,5.258-3.768,7.474-1.712-.551,5.911,2.129,7.81a2.574,2.574,0,0,0,3.306-3.7c-1.67-2.85-3.881-8.132-.135-10.967s12.347-4.342,11.839-.362c-1.259,9.864,9.235,5.681,5.976,1.512-2.768-3.539-.222-9.754,5.95-6.333,5.18,2.872,4.522-1.039,9.632-2.717,3.812-1.253,10.827-1.293,10.827-1.293,4.922-2.891.472-4.319.472-4.319s4.125-3.175,3.091-5.37-.533-5.651-.442-9.15S285.248,985.486,283.692,985.128Z" transform="translate(-226.761 -975.893)" fill="#ffce00"/>
        </g>
        <g id="Group_377" data-name="Group 377" transform="translate(0.742 0.514)" opacity="0.25">
          <path id="Path_546" data-name="Path 546" d="M283.744,985.128c-1.557-.358.155-.942-1.909-3a3.318,3.318,0,0,0-4.331-.367,1.909,1.909,0,0,0,.056-2.009c-1.776-2.488-6.438-.931-8.145-2.927s-5.78-.166-5.78-.166-.566.338-1.549.969c7.612,2,23.321,8.413,20.429,31.241,0,0-30.383,2.18-38.736,7.371-6.007,3.734-12.045,10.752-16.728,11.652a1.279,1.279,0,0,0,1.885.718c3.026-1.158,5.258-3.768,7.474-1.712s-.551,5.911,2.129,7.81a2.574,2.574,0,0,0,3.306-3.7c-1.67-2.85-3.881-8.132-.135-10.967s12.347-4.342,11.839-.362c-1.259,9.864,9.235,5.681,5.976,1.512-2.768-3.539-.222-9.754,5.95-6.333,5.18,2.872,4.522-1.039,9.631-2.717,3.812-1.253,10.827-1.293,10.827-1.293,4.922-2.891.472-4.319.472-4.319s4.125-3.175,3.091-5.37-.533-5.651-.442-9.15S285.3,985.486,283.744,985.128Z" transform="translate(-227.051 -975.893)" fill="#371a45"/>
        </g>
        <g id="Group_383" data-name="Group 383" transform="translate(0.503 0.515)" opacity="0.65">
          <g id="Group_378" data-name="Group 378" transform="translate(57.517 9.445)">
            <path id="Path_547" data-name="Path 547" d="M297.333,987.932a2.822,2.822,0,0,1,.455.154,7.185,7.185,0,0,0-1.2-.724C296.623,987.629,296.745,987.8,297.333,987.932Z" transform="translate(-296.588 -987.362)" fill="#fff"/>
          </g>
          <g id="Group_379" data-name="Group 379" transform="translate(60.924 31.413)">
            <path id="Path_548" data-name="Path 548" d="M300.766,1014.057l-.026-.026-.015.011Z" transform="translate(-300.725 -1014.031)" fill="#fff"/>
          </g>
          <g id="Group_380" data-name="Group 380" transform="translate(52.021 5.214)">
            <path id="Path_549" data-name="Path 549" d="M289.916,983.66a3.548,3.548,0,0,1,2.88-.53,3.1,3.1,0,0,0-2.581-.878A2.439,2.439,0,0,1,289.916,983.66Z" transform="translate(-289.916 -982.225)" fill="#fff"/>
          </g>
          <g id="Group_381" data-name="Group 381" transform="translate(43.998 1.782)">
            <path id="Path_550" data-name="Path 550" d="M286.572,979.726c-1.539-1.483-4.433-1.048-6.4-1.668C281.508,979.491,284.458,978.983,286.572,979.726Z" transform="translate(-280.176 -978.058)" fill="#fff"/>
          </g>
          <g id="Group_382" data-name="Group 382">
            <path id="Path_551" data-name="Path 551" d="M263.584,976.66a117.572,117.572,0,0,0-20.1,15.733,3.7,3.7,0,0,0-.8.81c-4.314,4.432-8.206,9.46-10.39,14.706-6.54,15.707-6.469,21.191-3.93,20.843-.876-2.021.261-8.054,5.26-20.06a46.171,46.171,0,0,1,8.618-12.823,1.436,1.436,0,0,0,.281.366c.8.738,2.289.424,3.331-.7s1.24-2.637.442-3.375a1.406,1.406,0,0,0-.255-.184,183.9,183.9,0,0,1,18.247-15.225,16.832,16.832,0,0,1,5.054.052C267.618,974.849,263.584,976.66,263.584,976.66Z" transform="translate(-226.761 -975.895)" fill="#fff"/>
          </g>
        </g>
        <g id="Group_384" data-name="Group 384">
          <path id="Path_552" data-name="Path 552" d="M239.416,1035.412a2.289,2.289,0,0,1-1.333-.392c-1.633-1.156-1.533-2.928-1.445-4.491.074-1.308.144-2.544-.737-3.362-1.238-1.148-2.427-.568-4.421.558a18.728,18.728,0,0,1-2.52,1.256,1.809,1.809,0,0,1-2.106-.3c-2.272-2.34,1.385-12.758,4.852-21.087,3.638-8.739,12.018-16.84,18.406-22.1a120.5,120.5,0,0,1,13.1-9.4.522.522,0,0,1,.054-.028c.18-.081,4.448-1.962,6.383.3.669.783,2.008.923,3.425,1.072,1.722.179,3.672.384,4.747,1.89a1.932,1.932,0,0,1,.35,1.329,3.689,3.689,0,0,1,3.87.981,3.471,3.471,0,0,1,1.3,2.558c0,.063.007.147.015.19a1.248,1.248,0,0,0,.347.115h0c1.792.413,5.81,3.637,5.711,7.4-.02.773-.06,1.547-.1,2.294-.134,2.586-.261,5.027.492,6.623.935,1.984-1.373,4.379-2.591,5.456a2.448,2.448,0,0,1,1.385,1.736c.116,1.046-.722,2.08-2.561,3.161a.509.509,0,0,1-.258.071c-.07,0-6.978.055-10.669,1.268a10.2,10.2,0,0,0-3.78,2.28c-1.693,1.461-2.9,2.263-6.263.4-2.3-1.277-4.285-1.236-5.436.111a4.452,4.452,0,0,0,.142,5.454,2.951,2.951,0,0,1,.113,3.766,4.163,4.163,0,0,1-4.679,1.36c-1.115-.454-2.9-1.889-2.327-6.386a1.273,1.273,0,0,0-.657-1.405c-1.957-1.134-7.477.061-10.361,2.243-3.6,2.726-1.012,8.108.269,10.3a2.934,2.934,0,0,1-.45,3.86A3.427,3.427,0,0,1,239.416,1035.412Zm-4.942-9.9a3.04,3.04,0,0,1,2.128.9c1.236,1.148,1.146,2.756,1.066,4.176-.084,1.483-.157,2.764,1.011,3.592a2.03,2.03,0,0,0,2.306-.436,1.9,1.9,0,0,0,.258-2.58c-1.421-2.424-4.266-8.412,0-11.638,2.962-2.24,8.97-3.778,11.5-2.313a2.285,2.285,0,0,1,1.162,2.427c-.361,2.827.241,4.709,1.694,5.3a3.133,3.133,0,0,0,3.468-1.026,1.918,1.918,0,0,0-.1-2.51,5.509,5.509,0,0,1-.113-6.758c1.476-1.73,3.987-1.857,6.719-.343,2.9,1.61,3.634.979,5.09-.278a11.239,11.239,0,0,1,4.131-2.479c3.591-1.18,9.8-1.3,10.843-1.317,1.768-1.064,1.978-1.762,1.942-2.087-.068-.63-1.121-1.109-1.484-1.227a.516.516,0,0,1-.157-.9c.984-.76,3.637-3.261,2.939-4.742-.863-1.831-.73-4.4-.588-7.117.038-.74.078-1.507.1-2.267.082-3.135-3.456-6.038-4.913-6.373-.934-.215-1.128-.609-1.159-1.261-.019-.391-.044-.926-1-1.876a2.8,2.8,0,0,0-3.662-.317.516.516,0,0,1-.769-.64c.471-.965.192-1.355.1-1.483-.806-1.128-2.365-1.292-4.016-1.465-1.556-.163-3.165-.331-4.1-1.427-1.184-1.385-4.091-.512-5.15-.043a119.971,119.971,0,0,0-12.958,9.3c-6.294,5.181-14.543,13.149-18.1,21.687a92.435,92.435,0,0,0-5.013,14.581c-.878,4.01-.328,5.106-.051,5.391.076.078.307.316,1,.052a17.9,17.9,0,0,0,2.381-1.192A7.68,7.68,0,0,1,234.474,1025.513Z" transform="translate(-226.15 -975.27)" fill="#371a45"/>
        </g>
      </g>
      <g id="Group_386" data-name="Group 386" transform="translate(40.997 32.994)">
        <path id="Path_553" data-name="Path 553" d="M275.922,1017.462c2.943-.531,5.9-1.008,8.869-1.393,1.485-.191,2.975-.359,4.47-.489s3-.225,4.507-.254a.451.451,0,0,1,.017.9h-.024c-1.481-.046-2.97-.028-4.458.026s-2.978.147-4.466.264C281.86,1016.751,278.887,1017.079,275.922,1017.462Z" transform="translate(-275.922 -1015.326)" fill="#371a45"/>
      </g>
    </g>
    <g id="Group_391" data-name="Group 391" transform="translate(52.429 10.633)">
      <g id="Group_388" data-name="Group 388">
        <path id="Path_554" data-name="Path 554" d="M287.459,979.755l.041-.029-.021-.015C287.472,979.725,287.466,979.74,287.459,979.755Z" transform="translate(-287.459 -979.711)" fill="#371a45"/>
      </g>
      <g id="Group_389" data-name="Group 389" transform="translate(11.35 10.233)">
        <path id="Path_555" data-name="Path 555" d="M301.44,992.2c-.091,3.5-.593,6.956.441,9.151a1.733,1.733,0,0,1,.123.362,62.169,62.169,0,0,1,.13-6.833,5.607,5.607,0,0,0-.7-2.745C301.439,992.156,301.441,992.178,301.44,992.2Z" transform="translate(-301.238 -992.134)" fill="#371a45"/>
      </g>
      <g id="Group_390" data-name="Group 390" transform="translate(8.903 20.186)">
        <path id="Path_556" data-name="Path 556" d="M301.523,1004.217c.03,2.1-3.256,4.633-3.256,4.633s1.721.553,1.839,1.665c1.134-1.116,2.614-2.94,1.946-4.355A6.59,6.59,0,0,1,301.523,1004.217Z" transform="translate(-298.267 -1004.217)" fill="#371a45"/>
      </g>
    </g>
    <g id="Group_414" data-name="Group 414" transform="translate(33.01 9.528)">
      <g id="Group_392" data-name="Group 392" transform="translate(0 0)">
        <ellipse id="Ellipse_71" data-name="Ellipse 71" cx="7.498" cy="5.984" rx="7.498" ry="5.984" transform="matrix(0.84, -0.543, 0.543, 0.84, 0, 8.142)" fill="#ee1822"/>
      </g>
      <g id="Group_393" data-name="Group 393" transform="translate(2.46 2.628)" opacity="0.65">
        <path id="Path_557" data-name="Path 557" d="M275.049,993.933c-3.677.953-6.9-.894-7.207-4.124s2.432-6.622,6.108-7.575c2.705-.7,5.164.114,6.4,1.878-1.232-2.073-3.96-3.067-6.974-2.286-3.9,1.011-6.8,4.607-6.478,8.033s3.744,5.384,7.643,4.373a9.153,9.153,0,0,0,2.838-1.291A8.635,8.635,0,0,1,275.049,993.933Z" transform="translate(-266.87 -981.56)" fill="#fff"/>
      </g>
      <g id="Group_394" data-name="Group 394" transform="translate(10.131 4.28)">
        <path id="Path_558" data-name="Path 558" d="M276.183,983.587l.852,9.066c2.381-1.041,4.032-3.386,3.821-5.633S278.642,983.375,276.183,983.587Z" transform="translate(-276.183 -983.566)" fill="#bd1622"/>
      </g>
      <g id="Group_395" data-name="Group 395" transform="translate(4.269 4.873)">
        <path id="Path_559" data-name="Path 559" d="M272.8,984.287c-2.323,1.064-3.921,3.372-3.713,5.585s2.153,3.6,4.561,3.441Z" transform="translate(-269.066 -984.287)" fill="#bd1622"/>
      </g>
      <g id="Group_396" data-name="Group 396" transform="translate(4.269 4.873)">
        <path id="Path_560" data-name="Path 560" d="M272.8,984.287c-2.323,1.064-3.921,3.372-3.713,5.585s2.153,3.6,4.561,3.441Z" transform="translate(-269.066 -984.287)" fill="#bd1622"/>
      </g>
      <g id="Group_397" data-name="Group 397" transform="translate(7.104 7.897)">
        <path id="Path_561" data-name="Path 561" d="M273.73,987.958a1.955,1.955,0,0,0-1.217,1.829,1.3,1.3,0,0,0,1.494,1.128Z" transform="translate(-272.508 -987.958)" fill="#ee1822"/>
      </g>
      <g id="Group_398" data-name="Group 398" transform="translate(10.376 7.362)">
        <path id="Path_562" data-name="Path 562" d="M276.481,987.312a1.3,1.3,0,0,1,1.494,1.128,1.954,1.954,0,0,1-1.217,1.829Z" transform="translate(-276.481 -987.308)" fill="#ee1822"/>
      </g>
      <g id="Group_399" data-name="Group 399" transform="translate(2.023 2.191)">
        <path id="Path_563" data-name="Path 563" d="M272.422,994.84a6.585,6.585,0,0,1-3.8-1.129,5.3,5.3,0,0,1-2.252-3.906c-.34-3.624,2.712-7.436,6.8-8.5a7.175,7.175,0,0,1,5.937.85,5.3,5.3,0,0,1,2.252,3.905c.34,3.625-2.712,7.437-6.8,8.5A8.493,8.493,0,0,1,272.422,994.84ZM275.3,981.9a7.652,7.652,0,0,0-1.914.251c-3.7.957-6.454,4.352-6.153,7.568A4.439,4.439,0,0,0,269.12,993a6.314,6.314,0,0,0,5.215.719c3.694-.957,6.454-4.352,6.152-7.568a4.436,4.436,0,0,0-1.883-3.272A5.715,5.715,0,0,0,275.3,981.9Z" transform="translate(-266.34 -981.03)" fill="#371a45"/>
      </g>
      <g id="Group_405" data-name="Group 405" transform="translate(4.942 6.14)">
        <g id="Group_400" data-name="Group 400" transform="translate(1.775 5.782)">
          <path id="Path_564" data-name="Path 564" d="M272.512,992.843a2.636,2.636,0,0,1,.114.383,1.147,1.147,0,0,1,.043.367.316.316,0,0,1-.629-.048.32.32,0,0,1,.019-.084,1.162,1.162,0,0,1,.191-.317A2.576,2.576,0,0,1,272.512,992.843Z" transform="translate(-272.038 -992.843)" fill="#f6c547"/>
        </g>
        <g id="Group_401" data-name="Group 401" transform="translate(0.437 4.867)">
          <path id="Path_565" data-name="Path 565" d="M271.224,991.733a2.689,2.689,0,0,1-.088.392,1.153,1.153,0,0,1-.143.343.315.315,0,0,1-.526-.348.339.339,0,0,1,.057-.065,1.167,1.167,0,0,1,.323-.185A2.779,2.779,0,0,1,271.224,991.733Z" transform="translate(-270.414 -991.733)" fill="#f6c547"/>
        </g>
        <g id="Group_402" data-name="Group 402" transform="translate(0 3.288)">
          <path id="Path_566" data-name="Path 566" d="M270.863,989.935a2.4,2.4,0,0,1-.254.278,1.039,1.039,0,0,1-.275.208.316.316,0,1,1-.27-.572.332.332,0,0,1,.09-.026,1.036,1.036,0,0,1,.344.021A2.575,2.575,0,0,1,270.863,989.935Z" transform="translate(-269.883 -989.816)" fill="#f6c547"/>
        </g>
        <g id="Group_403" data-name="Group 403" transform="translate(0.622 1.357)">
          <path id="Path_567" data-name="Path 567" d="M271.557,988.027a2.171,2.171,0,0,1-.348.069.881.881,0,0,1-.322,0,.316.316,0,1,1,.137-.618.334.334,0,0,1,.094.037.894.894,0,0,1,.233.222A2.106,2.106,0,0,1,271.557,988.027Z" transform="translate(-270.638 -987.472)" fill="#f6c547"/>
        </g>
        <g id="Group_404" data-name="Group 404" transform="translate(2.097)">
          <path id="Path_568" data-name="Path 568" d="M273.066,986.733a2.382,2.382,0,0,1-.319-.184.981.981,0,0,1-.254-.218.316.316,0,1,1,.5-.382.33.33,0,0,1,.046.086.954.954,0,0,1,.043.332A2.356,2.356,0,0,1,273.066,986.733Z" transform="translate(-272.429 -985.824)" fill="#f6c547"/>
        </g>
      </g>
      <g id="Group_411" data-name="Group 411" transform="translate(10.822 5.086)">
        <g id="Group_406" data-name="Group 406" transform="translate(1.425 5.499)">
          <path id="Path_569" data-name="Path 569" d="M278.8,991.221a2.45,2.45,0,0,1,.308.214,1.013,1.013,0,0,1,.24.244.316.316,0,1,1-.531.343.331.331,0,0,1-.039-.086,1.014,1.014,0,0,1-.022-.343A2.43,2.43,0,0,1,278.8,991.221Z" transform="translate(-278.752 -991.221)" fill="#f6c547"/>
        </g>
        <g id="Group_407" data-name="Group 407" transform="translate(2.239 4.076)">
          <path id="Path_570" data-name="Path 570" d="M279.741,989.529a2.165,2.165,0,0,1,.354-.034.9.9,0,0,1,.32.031.317.317,0,0,1-.2.6.312.312,0,0,1-.09-.047.882.882,0,0,1-.21-.243A2.286,2.286,0,0,1,279.741,989.529Z" transform="translate(-279.741 -989.494)" fill="#f6c547"/>
        </g>
        <g id="Group_408" data-name="Group 408" transform="translate(2.222 2.108)">
          <path id="Path_571" data-name="Path 571" d="M279.72,987.564a2.392,2.392,0,0,1,.264-.255.978.978,0,0,1,.281-.183.316.316,0,0,1,.227.591.351.351,0,0,1-.095.021.981.981,0,0,1-.331-.051A2.387,2.387,0,0,1,279.72,987.564Z" transform="translate(-279.72 -987.104)" fill="#f6c547"/>
        </g>
        <g id="Group_409" data-name="Group 409" transform="translate(1.425 0.566)">
          <path id="Path_572" data-name="Path 572" d="M278.753,986.073a2.7,2.7,0,0,1,.1-.38,1.122,1.122,0,0,1,.153-.331.315.315,0,0,1,.51.372.3.3,0,0,1-.061.064,1.128,1.128,0,0,1-.325.164A2.775,2.775,0,0,1,278.753,986.073Z" transform="translate(-278.753 -985.233)" fill="#f6c547"/>
        </g>
        <g id="Group_410" data-name="Group 410">
          <path id="Path_573" data-name="Path 573" d="M277.154,985.584a2.792,2.792,0,0,1-.1-.389,1.168,1.168,0,0,1-.027-.37.315.315,0,1,1,.626.073.307.307,0,0,1-.021.083,1.167,1.167,0,0,1-.2.311A2.821,2.821,0,0,1,277.154,985.584Z" transform="translate(-277.022 -984.545)" fill="#f6c547"/>
        </g>
      </g>
      <g id="Group_412" data-name="Group 412" transform="translate(9.694 3.842)">
        <path id="Path_574" data-name="Path 574" d="M276.941,993a.438.438,0,0,1-.436-.4l-.851-9.065a.438.438,0,0,1,.4-.477c2.751-.239,4.914,1.371,5.145,3.827.225,2.388-1.492,4.943-4.081,6.075A.447.447,0,0,1,276.941,993Zm-.373-9.087.75,7.976a5.419,5.419,0,0,0,3.009-4.918,3.5,3.5,0,0,0-3.752-3.058Z" transform="translate(-275.652 -983.035)" fill="#bd1622"/>
      </g>
      <g id="Group_413" data-name="Group 413" transform="translate(3.831 4.436)">
        <path id="Path_575" data-name="Path 575" d="M273.175,993.669a4.354,4.354,0,0,1-4.62-3.85,6.357,6.357,0,0,1,3.967-6.023.438.438,0,0,1,.618.357l.848,9.025a.439.439,0,0,1-.406.478C273.444,993.665,273.308,993.669,273.175,993.669Zm-.846-8.789a5.413,5.413,0,0,0-2.9,4.857,3.448,3.448,0,0,0,3.646,3.057Z" transform="translate(-268.534 -983.756)" fill="#bd1622"/>
      </g>
    </g>
    <g id="Group_437" data-name="Group 437" transform="translate(17.995 26.279)">
      <g id="Group_415" data-name="Group 415" transform="translate(0 0)">
        <ellipse id="Ellipse_72" data-name="Ellipse 72" cx="7.013" cy="5.597" rx="7.013" ry="5.597" transform="translate(0 7.617) rotate(-32.888)" fill="#ee1822"/>
      </g>
      <g id="Group_416" data-name="Group 416" transform="translate(2.301 2.458)" opacity="0.65">
        <path id="Path_576" data-name="Path 576" d="M256.1,1013.263c-3.44.891-6.459-.835-6.742-3.857s2.274-6.194,5.715-7.085c2.53-.656,4.83.106,5.983,1.756-1.152-1.939-3.7-2.868-6.524-2.138-3.648.945-6.361,4.309-6.06,7.514s3.5,5.035,7.15,4.09a8.553,8.553,0,0,0,2.654-1.208A8.023,8.023,0,0,1,256.1,1013.263Z" transform="translate(-248.448 -1001.69)" fill="#fff"/>
      </g>
      <g id="Group_417" data-name="Group 417" transform="translate(9.477 4.003)">
        <path id="Path_577" data-name="Path 577" d="M257.16,1003.586l.8,8.481a5.6,5.6,0,0,0,3.574-5.27C261.333,1004.7,259.46,1003.387,257.16,1003.586Z" transform="translate(-257.16 -1003.566)" fill="#bd1622"/>
      </g>
      <g id="Group_418" data-name="Group 418" transform="translate(3.993 4.559)">
        <path id="Path_578" data-name="Path 578" d="M253.993,1004.241a5.582,5.582,0,0,0-3.474,5.224c.194,2.07,2.014,3.37,4.266,3.219Z" transform="translate(-250.502 -1004.241)" fill="#bd1622"/>
      </g>
      <g id="Group_419" data-name="Group 419" transform="translate(3.993 4.559)">
        <path id="Path_579" data-name="Path 579" d="M253.993,1004.241a5.582,5.582,0,0,0-3.474,5.224c.194,2.07,2.014,3.37,4.266,3.219Z" transform="translate(-250.502 -1004.241)" fill="#bd1622"/>
      </g>
      <g id="Group_420" data-name="Group 420" transform="translate(6.645 7.387)">
        <path id="Path_580" data-name="Path 580" d="M254.866,1007.674a1.829,1.829,0,0,0-1.138,1.712,1.219,1.219,0,0,0,1.4,1.055Z" transform="translate(-253.722 -1007.674)" fill="#ee1822"/>
      </g>
      <g id="Group_421" data-name="Group 421" transform="translate(9.706 6.886)">
        <path id="Path_581" data-name="Path 581" d="M257.438,1007.07a1.219,1.219,0,0,1,1.4,1.054,1.83,1.83,0,0,1-1.138,1.712Z" transform="translate(-257.438 -1007.066)" fill="#ee1822"/>
      </g>
      <g id="Group_422" data-name="Group 422" transform="translate(1.851 2.008)">
        <path id="Path_582" data-name="Path 582" d="M253.633,1014.145a6.2,6.2,0,0,1-3.583-1.063,5,5,0,0,1-2.124-3.683c-.32-3.41,2.549-7,6.4-7.992a6.757,6.757,0,0,1,5.588.8,5,5,0,0,1,2.123,3.684h0c.32,3.41-2.549,7-6.4,7.992A7.991,7.991,0,0,1,253.633,1014.145Zm2.7-12.1a7.146,7.146,0,0,0-1.781.233c-3.436.891-6,4.047-5.724,7.035a4.108,4.108,0,0,0,1.745,3.03,5.861,5.861,0,0,0,4.843.666c3.437-.89,6-4.047,5.724-7.035h0a4.106,4.106,0,0,0-1.744-3.029A5.3,5.3,0,0,0,256.328,1002.045Z" transform="translate(-247.901 -1001.144)" fill="#371a45"/>
      </g>
      <g id="Group_428" data-name="Group 428" transform="translate(4.749 6.318)">
        <g id="Group_423" data-name="Group 423" transform="translate(2.384 4.964)">
          <path id="Path_583" data-name="Path 583" d="M254.537,1012.4a2.583,2.583,0,0,1,.176.306,1.159,1.159,0,0,1,.116.309.26.26,0,0,1-.511.093.285.285,0,0,1,0-.064,1.152,1.152,0,0,1,.081-.32A2.552,2.552,0,0,1,254.537,1012.4Z" transform="translate(-254.315 -1012.403)" fill="#f6c547"/>
        </g>
        <g id="Group_424" data-name="Group 424" transform="translate(0.864 4.494)">
          <path id="Path_584" data-name="Path 584" d="M253.044,1011.832a2.6,2.6,0,0,1-.009.369,1.261,1.261,0,0,1-.062.341.26.26,0,0,1-.488-.179.3.3,0,0,1,.028-.054,1.237,1.237,0,0,1,.238-.252A2.674,2.674,0,0,1,253.044,1011.832Z" transform="translate(-252.47 -1011.832)" fill="#f6c547"/>
        </g>
        <g id="Group_425" data-name="Group 425" transform="translate(0 3.332)">
          <path id="Path_585" data-name="Path 585" d="M252.238,1010.421a2.582,2.582,0,0,1-.178.307,1.171,1.171,0,0,1-.212.258.26.26,0,0,1-.336-.4.269.269,0,0,1,.053-.034,1.188,1.188,0,0,1,.32-.092A2.542,2.542,0,0,1,252.238,1010.421Z" transform="translate(-251.421 -1010.421)" fill="#f6c547"/>
        </g>
        <g id="Group_426" data-name="Group 426" transform="translate(0.091 1.607)">
          <path id="Path_586" data-name="Path 586" d="M252.4,1008.6a2.168,2.168,0,0,1-.292.151,1,1,0,0,1-.291.091.26.26,0,0,1-.054-.517.291.291,0,0,1,.069,0,1,1,0,0,1,.285.107A2.243,2.243,0,0,1,252.4,1008.6Z" transform="translate(-251.531 -1008.327)" fill="#f6c547"/>
        </g>
        <g id="Group_427" data-name="Group 427" transform="translate(1.116)">
          <path id="Path_587" data-name="Path 587" d="M253.479,1007.038a2.242,2.242,0,0,1-.316-.07.955.955,0,0,1-.275-.116.26.26,0,0,1,.293-.43.292.292,0,0,1,.053.048.949.949,0,0,1,.142.262A2.188,2.188,0,0,1,253.479,1007.038Z" transform="translate(-252.775 -1006.376)" fill="#f6c547"/>
        </g>
      </g>
      <g id="Group_434" data-name="Group 434" transform="translate(10.155 4.803)">
        <g id="Group_429" data-name="Group 429" transform="translate(1.325 5.098)">
          <path id="Path_588" data-name="Path 588" d="M259.613,1010.726a2.333,2.333,0,0,1,.268.209,1.059,1.059,0,0,1,.213.233.26.26,0,0,1-.443.272.282.282,0,0,1-.027-.061,1.054,1.054,0,0,1-.033-.315A2.424,2.424,0,0,1,259.613,1010.726Z" transform="translate(-259.592 -1010.726)" fill="#f6c547"/>
        </g>
        <g id="Group_430" data-name="Group 430" transform="translate(2.064 3.787)">
          <path id="Path_589" data-name="Path 589" d="M260.488,1009.148a2.131,2.131,0,0,1,.321-.012.932.932,0,0,1,.294.041.26.26,0,1,1-.174.49.249.249,0,0,1-.063-.033.925.925,0,0,1-.2-.216A2.1,2.1,0,0,1,260.488,1009.148Z" transform="translate(-260.488 -1009.134)" fill="#f6c547"/>
        </g>
        <g id="Group_431" data-name="Group 431" transform="translate(2.047 1.965)">
          <path id="Path_590" data-name="Path 590" d="M260.468,1007.313a2.335,2.335,0,0,1,.252-.217,1.035,1.035,0,0,1,.265-.158.26.26,0,1,1,.176.489.275.275,0,0,1-.068.015,1.022,1.022,0,0,1-.306-.034A2.249,2.249,0,0,1,260.468,1007.313Z" transform="translate(-260.468 -1006.922)" fill="#f6c547"/>
        </g>
        <g id="Group_432" data-name="Group 432" transform="translate(1.302 0.527)">
          <path id="Path_591" data-name="Path 591" d="M259.564,1005.921a2.5,2.5,0,0,1,.11-.342,1.189,1.189,0,0,1,.152-.3.26.26,0,1,1,.414.314.247.247,0,0,1-.044.045,1.171,1.171,0,0,1-.294.162A2.621,2.621,0,0,1,259.564,1005.921Z" transform="translate(-259.564 -1005.177)" fill="#f6c547"/>
        </g>
        <g id="Group_433" data-name="Group 433">
          <path id="Path_592" data-name="Path 592" d="M258.074,1005.463a2.792,2.792,0,0,1-.072-.358,1.214,1.214,0,0,1-.012-.344.259.259,0,0,1,.514.07.275.275,0,0,1-.016.059,1.222,1.222,0,0,1-.178.294A2.722,2.722,0,0,1,258.074,1005.463Z" transform="translate(-257.983 -1004.537)" fill="#f6c547"/>
        </g>
      </g>
      <g id="Group_435" data-name="Group 435" transform="translate(9.026 3.552)">
        <path id="Path_593" data-name="Path 593" d="M257.86,1012.42a.451.451,0,0,1-.449-.408l-.8-8.481a.45.45,0,0,1,.41-.491c2.6-.225,4.64,1.3,4.858,3.618a6.064,6.064,0,0,1-3.842,5.725A.449.449,0,0,1,257.86,1012.42Zm-.3-8.5.69,7.351a5.01,5.01,0,0,0,2.738-4.529A3.223,3.223,0,0,0,257.557,1003.921Z" transform="translate(-256.613 -1003.018)" fill="#bd1622"/>
      </g>
      <g id="Group_436" data-name="Group 436" transform="translate(3.542 4.108)">
        <path id="Path_594" data-name="Path 594" d="M254.336,1013.049a4.113,4.113,0,0,1-4.362-3.639,5.987,5.987,0,0,1,3.735-5.676.451.451,0,0,1,.637.368l.792,8.442a.452.452,0,0,1-.418.492Q254.525,1013.05,254.336,1013.049Zm-.826-8.193a5.007,5.007,0,0,0-2.638,4.47,3.176,3.176,0,0,0,3.323,2.82Z" transform="translate(-249.955 -1003.693)" fill="#bd1622"/>
      </g>
    </g>
    <g id="Group_472" data-name="Group 472" transform="translate(0 19.494)">
      <g id="Group_441" data-name="Group 441" transform="translate(12.992 13.926)">
        <g id="Group_438" data-name="Group 438" transform="translate(0.482 0.451)">
          <path id="Path_595" data-name="Path 595" d="M244.377,1007.924c-4.764.2-4.858,2.612-3.345,6.338C243.894,1013.067,245.788,1010.967,244.377,1007.924Z" transform="translate(-240.166 -1007.924)" fill="#48c75a"/>
        </g>
        <g id="Group_439" data-name="Group 439">
          <path id="Path_596" data-name="Path 596" d="M240.814,1015a.449.449,0,0,1-.427-.3c-.727-2.128-1.261-4.3-.245-5.75.707-1.011,2.055-1.525,4.122-1.568a.444.444,0,0,1,.412.248,4.372,4.372,0,0,1,.31,3.515,7.163,7.163,0,0,1-3.983,3.818A.443.443,0,0,1,240.814,1015Zm3.178-6.711c-1.591.073-2.61.458-3.11,1.174-.717,1.026-.343,2.781.2,4.454a6.068,6.068,0,0,0,3.056-3.072A3.423,3.423,0,0,0,243.992,1008.288Z" transform="translate(-239.58 -1007.377)" fill="#661a47"/>
        </g>
        <g id="Group_440" data-name="Group 440" transform="translate(1.889 0.01)">
          <path id="Path_597" data-name="Path 597" d="M244.822,1008.257a4.1,4.1,0,0,0-.89.557,5.822,5.822,0,0,0-.8.8,9.159,9.159,0,0,0-1.254,2.084,5.068,5.068,0,0,1,.173-1.267,5.73,5.73,0,0,1,.469-1.217,4.229,4.229,0,0,1,.8-1.093,2.79,2.79,0,0,1,1.223-.72.452.452,0,0,1,.3.848Z" transform="translate(-241.874 -1007.388)" fill="#651b47"/>
        </g>
      </g>
      <g id="Group_445" data-name="Group 445" transform="translate(25.858)">
        <g id="Group_442" data-name="Group 442" transform="translate(0.451 0.462)">
          <path id="Path_598" data-name="Path 598" d="M255.748,991.946c4.217-2.224,5.512-.183,6.076,3.8C258.75,996.15,256.057,995.285,255.748,991.946Z" transform="translate(-255.748 -991.03)" fill="#48c75a"/>
        </g>
        <g id="Group_443" data-name="Group 443">
          <path id="Path_599" data-name="Path 599" d="M261.031,996.418a6.589,6.589,0,0,1-4.332-1.349,4.379,4.379,0,0,1-1.5-3.194.451.451,0,0,1,.232-.422c1.809-1,3.232-1.235,4.352-.715,1.609.746,2.237,2.889,2.677,5.094a.451.451,0,0,1-.4.537C261.71,996.4,261.365,996.418,261.031,996.418Zm-4.905-4.315a3.425,3.425,0,0,0,1.161,2.281,6.074,6.074,0,0,0,4.187,1.121c-.374-1.718-.932-3.423-2.068-3.95C258.613,991.187,257.538,991.367,256.126,992.1Z" transform="translate(-255.2 -990.469)" fill="#661a47"/>
        </g>
        <g id="Group_444" data-name="Group 444" transform="translate(0.032 0.848)">
          <path id="Path_600" data-name="Path 600" d="M255.567,991.587a2.8,2.8,0,0,1,1.421.008,4.244,4.244,0,0,1,1.236.545,5.845,5.845,0,0,1,1.017.818,5.046,5.046,0,0,1,.786,1.008,9.125,9.125,0,0,0-2.131-1.171,5.821,5.821,0,0,0-1.1-.291,4.146,4.146,0,0,0-1.049-.034l-.016,0a.452.452,0,0,1-.166-.885Z" transform="translate(-255.238 -991.499)" fill="#651b47"/>
        </g>
      </g>
      <g id="Group_449" data-name="Group 449" transform="translate(37.904 14.321)">
        <g id="Group_446" data-name="Group 446" transform="translate(0.751 0.418)">
          <path id="Path_601" data-name="Path 601" d="M277.14,1009.987c-3.267-3.029-4.93-1.5-6.4,1.957C273.413,1013.053,276.052,1012.925,277.14,1009.987Z" transform="translate(-270.737 -1008.363)" fill="#48c75a"/>
        </g>
        <g id="Group_447" data-name="Group 447">
          <path id="Path_602" data-name="Path 602" d="M273.066,1013.007a8.605,8.605,0,0,1-2.967-.582.422.422,0,0,1-.231-.582c.931-1.883,2.017-3.665,3.65-3.948,1.135-.2,2.363.358,3.754,1.7a.422.422,0,0,1,.107.437,4.088,4.088,0,0,1-2.126,2.52A5.041,5.041,0,0,1,273.066,1013.007Zm-2.226-1.218a5.672,5.672,0,0,0,4.049,0,3.2,3.2,0,0,0,1.6-1.776c-1.1-1.007-2.021-1.429-2.826-1.289C272.51,1008.925,271.593,1010.328,270.84,1011.788Z" transform="translate(-269.825 -1007.856)" fill="#661a47"/>
        </g>
        <g id="Group_448" data-name="Group 448" transform="translate(2.742 1.327)">
          <path id="Path_603" data-name="Path 603" d="M277.377,1010.558a3.834,3.834,0,0,0-.955-.224,5.443,5.443,0,0,0-1.062,0,8.551,8.551,0,0,0-2.207.541,4.737,4.737,0,0,1,.954-.72,5.392,5.392,0,0,1,1.116-.491,3.941,3.941,0,0,1,1.248-.193,2.613,2.613,0,0,1,1.283.337.422.422,0,0,1-.363.759Z" transform="translate(-273.154 -1009.467)" fill="#651b47"/>
        </g>
      </g>
      <g id="Group_471" data-name="Group 471" transform="translate(0 17.735)">
        <g id="Group_450" data-name="Group 450" transform="translate(7.365 6.275)">
          <path id="Path_604" data-name="Path 604" d="M233.185,1019.619c.258.015.5.036.751.064s.5.063.748.107a7.125,7.125,0,0,1,.764.174,3.238,3.238,0,0,1,.814.342l.033.021a.627.627,0,1,1-.656,1.068.65.65,0,0,1-.095-.072,2.035,2.035,0,0,0-.485-.288,5.748,5.748,0,0,0-.624-.242c-.218-.073-.441-.138-.667-.2s-.459-.115-.68-.161l-.01,0a.411.411,0,0,1,.107-.814Z" transform="translate(-232.749 -1019.618)" fill="#48c75a"/>
        </g>
        <g id="Group_451" data-name="Group 451" transform="translate(7.365 6.275)">
          <path id="Path_605" data-name="Path 605" d="M233.185,1019.619c.258.015.5.036.751.064s.5.063.748.107a7.125,7.125,0,0,1,.764.174,3.238,3.238,0,0,1,.814.342l.033.021a.627.627,0,1,1-.656,1.068.65.65,0,0,1-.095-.072,2.035,2.035,0,0,0-.485-.288,5.748,5.748,0,0,0-.624-.242c-.218-.073-.441-.138-.667-.2s-.459-.115-.68-.161l-.01,0a.411.411,0,0,1,.107-.814Z" transform="translate(-232.749 -1019.618)" fill="#371a45"/>
        </g>
        <g id="Group_452" data-name="Group 452" transform="translate(7.006 5.915)">
          <path id="Path_606" data-name="Path 606" d="M235.888,1021.77a.978.978,0,0,1-.515-.147.992.992,0,0,1-.148-.111,1.6,1.6,0,0,0-.394-.228,5.541,5.541,0,0,0-.586-.227c-.206-.069-.423-.133-.645-.191s-.456-.114-.661-.156a.771.771,0,0,1,.19-1.527h0c.25.015.5.036.77.067s.522.066.772.11a7.265,7.265,0,0,1,.8.182,3.542,3.542,0,0,1,.9.381l.033.021a.986.986,0,0,1-.518,1.826Zm-2.8-1.87a.054.054,0,0,0-.051.042.05.05,0,0,0,.008.039.05.05,0,0,0,.033.023c.228.047.469.1.708.167s.47.13.689.2a5.965,5.965,0,0,1,.661.257,2.289,2.289,0,0,1,.577.349.38.38,0,0,0,.04.03.267.267,0,0,0,.28-.456l-.034-.021a2.9,2.9,0,0,0-.73-.3,6.535,6.535,0,0,0-.721-.164c-.238-.042-.475-.076-.726-.1s-.5-.049-.732-.063Z" transform="translate(-232.313 -1019.181)" fill="#661a47"/>
        </g>
        <g id="Group_459" data-name="Group 459" transform="translate(0 3.758)">
          <g id="Group_453" data-name="Group 453" transform="translate(0.813 0.36)">
            <path id="Path_607" data-name="Path 607" d="M232.355,1019.646c-1.453-5.313-7.56-.98-7.56-.98S229.595,1024.413,232.355,1019.646Z" transform="translate(-224.795 -1017.001)" fill="#48c75a"/>
          </g>
          <g id="Group_454" data-name="Group 454" transform="translate(0.813 0.36)" opacity="0.65">
            <path id="Path_608" data-name="Path 608" d="M232.322,1019.7l.033-.053c-1.453-5.313-7.56-.98-7.56-.98s.164.2.447.484C226.388,1018.422,230.808,1015.928,232.322,1019.7Z" transform="translate(-224.795 -1017.001)" fill="#fff"/>
          </g>
          <g id="Group_455" data-name="Group 455">
            <path id="Path_609" data-name="Path 609" d="M229.308,1021.818c-2.642,0-5.289-2.863-5.406-2.99a.364.364,0,0,1-.091-.288.359.359,0,0,1,.159-.255c.153-.1,3.78-2.464,6.38-1.485a3.647,3.647,0,0,1,2.179,2.674.361.361,0,0,1-.035.275,3.7,3.7,0,0,1-2.808,2.049A3.381,3.381,0,0,1,229.308,1021.818Zm-4.564-3.161c.788.763,2.939,2.634,4.864,2.427a2.953,2.953,0,0,0,2.184-1.565,2.9,2.9,0,0,0-1.7-2.045C228.283,1016.79,225.7,1018.1,224.744,1018.657Z" transform="translate(-223.808 -1016.563)" fill="#661a47"/>
          </g>
          <g id="Group_458" data-name="Group 458" transform="translate(4.274 2.437)">
            <g id="Group_456" data-name="Group 456" transform="translate(0 0.037)">
              <line id="Line_1" data-name="Line 1" x1="4.099" y1="0.532" fill="#48c75a"/>
            </g>
            <g id="Group_457" data-name="Group 457" transform="translate(0)">
              <path id="Path_610" data-name="Path 610" d="M233.05,1020.447a8.518,8.518,0,0,1-1.026-.123c-.34-.056-.677-.133-1.015-.211-.674-.157-1.346-.33-2.011-.554.7-.048,1.395-.043,2.086-.024.346.011.692.023,1.035.055a8.62,8.62,0,0,1,1.023.144.361.361,0,0,1-.092.713Z" transform="translate(-228.997 -1019.521)" fill="#651b47"/>
            </g>
          </g>
        </g>
        <g id="Group_460" data-name="Group 460" transform="translate(5.374 6.542)">
          <path id="Path_611" data-name="Path 611" d="M230.332,1022.411q.693-.613,1.4-1.213c.471-.4.945-.8,1.442-1.18a.361.361,0,0,1,.441.572.364.364,0,0,1-.058.037h0c-.542.271-1.082.567-1.619.866S230.864,1022.1,230.332,1022.411Z" transform="translate(-230.332 -1019.942)" fill="#661a47"/>
        </g>
        <g id="Group_465" data-name="Group 465" transform="translate(4.221 6.437)">
          <g id="Group_461" data-name="Group 461" transform="translate(0.36 0.396)">
            <path id="Path_612" data-name="Path 612" d="M233.178,1020.3s-3.1.188-3.809,5.553C229.369,1025.849,235.7,1023.834,233.178,1020.3Z" transform="translate(-229.369 -1020.296)" fill="#48c75a"/>
          </g>
          <g id="Group_462" data-name="Group 462" transform="translate(0.36 0.396)" opacity="0.65">
            <path id="Path_613" data-name="Path 613" d="M230.262,1025.35c.582-4.4,3.088-4.628,3.177-4.634a3.973,3.973,0,0,0-.261-.42s-3.1.188-3.809,5.553a11.363,11.363,0,0,0,2.572-1.253A9.776,9.776,0,0,1,230.262,1025.35Z" transform="translate(-229.369 -1020.296)" fill="#fff"/>
          </g>
          <g id="Group_463" data-name="Group 463" transform="translate(0 0.036)">
            <path id="Path_614" data-name="Path 614" d="M229.292,1026.131a.36.36,0,0,1-.357-.407c.74-5.594,4-5.855,4.144-5.864a.36.36,0,0,1,.315.151,2.862,2.862,0,0,1,.526,2.652c-.742,2.226-4.366,3.4-4.52,3.451A.386.386,0,0,1,229.292,1026.131Zm3.638-5.52c-.619.14-2.52.872-3.189,4.611,1-.4,3.028-1.376,3.5-2.787A2.061,2.061,0,0,0,232.93,1020.61Z" transform="translate(-228.932 -1019.859)" fill="#661a47"/>
          </g>
          <g id="Group_464" data-name="Group 464" transform="translate(2.419)">
            <path id="Path_615" data-name="Path 615" d="M231.869,1022.548q.341-.651.7-1.295c.244-.429.491-.854.774-1.277a.362.362,0,1,1,.6.4.383.383,0,0,1-.058.068c-.35.316-.692.666-1.028,1.02S232.2,1022.182,231.869,1022.548Z" transform="translate(-231.869 -1019.816)" fill="#661a47"/>
          </g>
        </g>
        <g id="Group_470" data-name="Group 470" transform="translate(5.893)">
          <g id="Group_466" data-name="Group 466" transform="translate(0.361 0.359)">
            <path id="Path_616" data-name="Path 616" d="M233.51,1018.895s-2.89-1.136-1.906-6.458C231.6,1012.437,237,1016.309,233.51,1018.895Z" transform="translate(-231.4 -1012.437)" fill="#48c75a"/>
          </g>
          <g id="Group_467" data-name="Group 467" transform="translate(0.361 0.359)" opacity="0.65">
            <path id="Path_617" data-name="Path 617" d="M232.444,1013.128a10.755,10.755,0,0,0-.839-.691c-.984,5.322,1.906,6.458,1.906,6.458.042-.031.082-.063.122-.1C233.057,1018.375,231.562,1016.872,232.444,1013.128Z" transform="translate(-231.4 -1012.437)" fill="#fff"/>
          </g>
          <g id="Group_468" data-name="Group 468">
            <path id="Path_618" data-name="Path 618" d="M233.433,1019.177a.367.367,0,0,1-.132-.025c-.129-.051-3.153-1.308-2.128-6.857a.359.359,0,0,1,.563-.227c.131.095,3.214,2.333,3.231,4.679a2.865,2.865,0,0,1-1.32,2.361A.363.363,0,0,1,233.433,1019.177Zm-1.649-6.155c-.521,3.763,1.062,5.047,1.608,5.372a2.063,2.063,0,0,0,.857-1.641C234.238,1015.266,232.608,1013.713,231.784,1013.021Z" transform="translate(-230.962 -1012.001)" fill="#661a47"/>
          </g>
          <g id="Group_469" data-name="Group 469" transform="translate(1.53 4.054)">
            <path id="Path_619" data-name="Path 619" d="M232.819,1016.922q.3.673.61,1.335c.21.44.427.879.663,1.288a.362.362,0,0,1-.628.362.4.4,0,0,1-.035-.082c-.138-.489-.242-.971-.341-1.454S232.9,1017.405,232.819,1016.922Z" transform="translate(-232.819 -1016.922)" fill="#661a47"/>
          </g>
        </g>
      </g>
    </g>
    <g id="Group_473" data-name="Group 473" transform="translate(2.045 43.991)">
      <path id="Path_620" data-name="Path 620" d="M227.134,1034.8a.128.128,0,0,0,.038.045.217.217,0,0,0,.081.035.975.975,0,0,0,.348,0,3.9,3.9,0,0,0,.885-.273,13.523,13.523,0,0,0,1.773-.945c1.156-.717,2.273-1.521,3.364-2.358s2.153-1.718,3.192-2.623q.389-.34.773-.685c.258-.231.5-.465.773-.7.133-.115.263-.234.4-.348l.41-.331.205-.165.212-.156.422-.314a30.507,30.507,0,0,1,7.45-3.756c1.309-.468,2.641-.868,3.987-1.2a39.379,39.379,0,0,1,4.076-.813,48.808,48.808,0,0,0-7.944,2.336,38.321,38.321,0,0,0-3.761,1.7,26.527,26.527,0,0,0-3.486,2.175l-.4.315-.2.157-.2.164-.39.33c-.128.113-.251.23-.376.345-.25.226-.5.475-.754.712s-.507.475-.764.711q-1.538,1.408-3.16,2.727a38.064,38.064,0,0,1-3.382,2.481,14.255,14.255,0,0,1-1.873,1.035,4.722,4.722,0,0,1-1.09.351,1.814,1.814,0,0,1-.684,0,1.123,1.123,0,0,1-.394-.167,1.027,1.027,0,0,1-.31-.336.451.451,0,0,1,.779-.453Z" transform="translate(-226.291 -1020.209)" fill="#371a45"/>
    </g>
    <g id="Group_487" data-name="Group 487" transform="translate(11.267 21.07)">
      <g id="Group_474" data-name="Group 474" transform="translate(43.048 15.571)" opacity="0.3">
        <ellipse id="Ellipse_73" data-name="Ellipse 73" cx="0.72" cy="0.526" rx="0.72" ry="0.526" transform="matrix(0.968, -0.251, 0.251, 0.968, 0, 0.361)" fill="#371a45"/>
      </g>
      <g id="Group_475" data-name="Group 475" transform="translate(39.214 13.3)" opacity="0.3">
        <ellipse id="Ellipse_74" data-name="Ellipse 74" cx="1.17" cy="0.855" rx="1.17" ry="0.855" transform="translate(0 0.587) rotate(-14.527)" fill="#371a45"/>
      </g>
      <g id="Group_476" data-name="Group 476" transform="translate(31.974 8.428)" opacity="0.3">
        <ellipse id="Ellipse_75" data-name="Ellipse 75" cx="0.912" cy="0.717" rx="0.912" ry="0.717" transform="translate(0 0.645) rotate(-20.686)" fill="#371a45"/>
      </g>
      <g id="Group_477" data-name="Group 477" transform="translate(40.963 0)" opacity="0.3">
        <ellipse id="Ellipse_76" data-name="Ellipse 76" cx="0.631" cy="0.496" rx="0.631" ry="0.496" transform="translate(0 0.446) rotate(-20.686)" fill="#371a45"/>
      </g>
      <g id="Group_478" data-name="Group 478" transform="translate(41.997 6.457)" opacity="0.3">
        <ellipse id="Ellipse_77" data-name="Ellipse 77" cx="0.717" cy="0.563" rx="0.717" ry="0.563" transform="matrix(0.936, -0.353, 0.353, 0.936, 0, 0.506)" fill="#371a45"/>
      </g>
      <g id="Group_479" data-name="Group 479" transform="translate(34.925 4.706)" opacity="0.3">
        <path id="Path_621" data-name="Path 621" d="M281.016,998.368a.608.608,0,1,1-.717-.226A.539.539,0,0,1,281.016,998.368Z" transform="translate(-279.887 -998.095)" fill="#371a45"/>
      </g>
      <g id="Group_480" data-name="Group 480" transform="translate(24.609 12.53)" opacity="0.3">
        <ellipse id="Ellipse_78" data-name="Ellipse 78" cx="0.651" cy="0.512" rx="0.651" ry="0.512" transform="translate(0 0.762) rotate(-35.797)" fill="#371a45"/>
      </g>
      <g id="Group_481" data-name="Group 481" transform="translate(26.068 6.312)" opacity="0.3">
        <ellipse id="Ellipse_79" data-name="Ellipse 79" cx="0.646" cy="0.507" rx="0.646" ry="0.507" transform="matrix(0.811, -0.585, 0.585, 0.811, 0, 0.755)" fill="#371a45"/>
      </g>
      <g id="Group_482" data-name="Group 482" transform="translate(6.029 22.497)" opacity="0.3">
        <ellipse id="Ellipse_80" data-name="Ellipse 80" cx="0.857" cy="0.674" rx="0.857" ry="0.674" transform="matrix(0.811, -0.585, 0.585, 0.811, 0, 1.003)" fill="#371a45"/>
      </g>
      <g id="Group_483" data-name="Group 483" transform="translate(6.616 18.102)" opacity="0.3">
        <ellipse id="Ellipse_81" data-name="Ellipse 81" cx="0.725" cy="0.57" rx="0.725" ry="0.57" transform="translate(0 0.848) rotate(-35.797)" fill="#371a45"/>
      </g>
      <g id="Group_484" data-name="Group 484" transform="translate(0 27.326)" opacity="0.3">
        <ellipse id="Ellipse_82" data-name="Ellipse 82" cx="0.477" cy="0.375" rx="0.477" ry="0.375" transform="translate(0 0.558) rotate(-35.796)" fill="#371a45"/>
      </g>
      <g id="Group_485" data-name="Group 485" transform="translate(6.775 9.776)" opacity="0.3">
        <ellipse id="Ellipse_83" data-name="Ellipse 83" cx="0.725" cy="0.57" rx="0.725" ry="0.57" transform="translate(0 0.848) rotate(-35.796)" fill="#371a45"/>
      </g>
      <g id="Group_486" data-name="Group 486" transform="translate(12.826 4.951)" opacity="0.3">
        <ellipse id="Ellipse_84" data-name="Ellipse 84" cx="0.947" cy="0.744" rx="0.947" ry="0.744" transform="translate(0 1.108) rotate(-35.797)" fill="#371a45"/>
      </g>
    </g>
    <g id="Group_503" data-name="Group 503" transform="translate(36.483)">
      <g id="Group_496" data-name="Group 496">
        <g id="Group_492" data-name="Group 492">
          <g id="Group_488" data-name="Group 488" transform="translate(0.516 0.516)">
            <path id="Path_622" data-name="Path 622" d="M293.155,1005.57c-.908,5.165,10.885,6,10.885,6s7.468-17.483-4.582-32.405-28.442-12.659-30.229-9.135,1.753,5.135,1.753,5.135S298.079,977.554,293.155,1005.57Z" transform="translate(-268.726 -967.428)" fill="#eb984e"/>
          </g>
          <g id="Group_489" data-name="Group 489" transform="translate(0.516 0.516)" opacity="0.65">
            <path id="Path_623" data-name="Path 623" d="M299.458,979.167c-12.05-14.921-28.442-12.659-30.229-9.135a3.6,3.6,0,0,0,1.638,5.077,3.145,3.145,0,0,1-.392-3.85c.39-.77,1.531-1.475,3.194-1.924-.384.245-.6.526-.552.784.094.523,1.21.76,2.494.531s2.249-.839,2.156-1.362c-.034-.188-.2-.338-.458-.444,5.85-.145,14.331,2.319,21.267,10.907,11.2,13.872,4.259,30.125,4.259,30.125s-7.777-.552-9.726-3.6c.239,4.532,10.93,5.291,10.93,5.291S311.509,994.09,299.458,979.167Z" transform="translate(-268.726 -967.428)" fill="#fff"/>
          </g>
          <g id="Group_490" data-name="Group 490" transform="translate(2.115 5.905)" opacity="0.14">
            <path id="Path_624" data-name="Path 624" d="M304.383,1012.726a31.339,31.339,0,0,0,1.7-6.141,16.488,16.488,0,0,0-5.076-2.932,4.249,4.249,0,0,1-2.656-4.312c.418-4.818.4-10.891-3.781-16.063-9.421-11.666-22.19-10.083-23.9-7.357a4.214,4.214,0,0,0,.657.4s27.1,2.386,22.173,30.4C292.59,1011.889,304.383,1012.726,304.383,1012.726Z" transform="translate(-270.667 -973.971)" fill="#371a45"/>
          </g>
          <g id="Group_491" data-name="Group 491">
            <path id="Path_625" data-name="Path 625" d="M303.93,1011.977h-.037c-.332-.024-8.156-.614-10.64-3.793a3.438,3.438,0,0,1-.716-2.812c1.463-8.327.2-15.165-3.756-20.325-6.408-8.359-17.84-9.465-17.955-9.476a.492.492,0,0,1-.168-.044,4.8,4.8,0,0,1-2.357-2.511,4.148,4.148,0,0,1,.357-3.325c.7-1.384,3.08-2.448,6.207-2.778,6.832-.721,16.956,2.006,24.883,11.822a31.847,31.847,0,0,1,6.923,22.152,34.9,34.9,0,0,1-2.268,10.779A.515.515,0,0,1,303.93,1011.977Zm-10.885-6.517.507.089a2.419,2.419,0,0,0,.513,2c1.922,2.46,7.959,3.21,9.526,3.366a35.6,35.6,0,0,0,2.054-10.126,30.83,30.83,0,0,0-6.7-21.407c-7.668-9.494-17.413-12.136-23.973-11.444-3.118.329-4.956,1.351-5.4,2.218a3.166,3.166,0,0,0-.306,2.511,3.743,3.743,0,0,0,1.745,1.888,30.677,30.677,0,0,1,6.7,1.613,25.9,25.9,0,0,1,11.878,8.245c4.143,5.4,5.475,12.511,3.959,21.137Z" transform="translate(-268.099 -966.802)" fill="#371a45"/>
          </g>
        </g>
        <g id="Group_493" data-name="Group 493" transform="translate(24.242 37.737)">
          <path id="Path_626" data-name="Path 626" d="M309.119,1019.539s-2.307,2.605-6.866,1.191-5.627-4.565-4.02-7.193S312.387,1014.222,309.119,1019.539Z" transform="translate(-297.53 -1012.617)" fill="#f7af41"/>
        </g>
        <g id="Group_494" data-name="Group 494" transform="translate(24.242 37.737)" opacity="0.22">
          <path id="Path_627" data-name="Path 627" d="M309.119,1019.539s-2.307,2.605-6.866,1.191-5.627-4.565-4.02-7.193S312.387,1014.222,309.119,1019.539Z" transform="translate(-297.53 -1012.617)" fill="#371a45"/>
        </g>
        <g id="Group_495" data-name="Group 495" transform="translate(23.727 37.222)">
          <path id="Path_628" data-name="Path 628" d="M304.77,1021.56a9.353,9.353,0,0,1-2.78-.448c-3.154-.978-4.354-2.61-4.806-3.806a4.675,4.675,0,0,1,.5-4.147c.623-1.018,2.174-1.193,3.366-1.164,3.113.081,7.282,1.658,8.586,4.065a3.476,3.476,0,0,1-.188,3.639.511.511,0,0,1-.054.072A6.307,6.307,0,0,1,304.77,1021.56Zm-3.965-8.537c-1.151,0-1.981.247-2.241.673a3.621,3.621,0,0,0-.414,3.247c.523,1.387,2,2.519,4.147,3.186,3.948,1.224,6.025-.729,6.3-1.012a2.427,2.427,0,0,0,.134-2.566c-1.094-2.017-4.868-3.451-7.707-3.525Zm8.2,6.407h0Z" transform="translate(-296.905 -1011.991)" fill="#371a45"/>
        </g>
      </g>
      <g id="Group_499" data-name="Group 499" transform="translate(9.033 3.537)">
        <g id="Group_497" data-name="Group 497">
          <path id="Path_629" data-name="Path 629" d="M279.212,973.577a1.705,1.705,0,0,1-.146-.731,2.161,2.161,0,0,1,.138-.743,1.715,1.715,0,0,1,.412-.647,1.3,1.3,0,0,1,.668-.361c-.12.236-.251.411-.349.61a6.046,6.046,0,0,0-.288.575c-.086.2-.161.4-.231.618S279.282,973.336,279.212,973.577Z" transform="translate(-279.066 -971.096)" fill="#371a45"/>
        </g>
        <g id="Group_498" data-name="Group 498" transform="translate(1.463 0.141)">
          <path id="Path_630" data-name="Path 630" d="M280.891,974.509a2.717,2.717,0,0,1,0-1.019,3.263,3.263,0,0,1,.341-.977,2.56,2.56,0,0,1,.661-.81c.07-.053.138-.108.211-.155s.153-.085.232-.124a1.182,1.182,0,0,1,.241-.095c.084-.024.166-.048.251-.063-.231.265-.463.473-.651.725a5.75,5.75,0,0,0-.529.755,6.867,6.867,0,0,0-.416.841C281.1,973.882,281,974.187,280.891,974.509Z" transform="translate(-280.842 -971.267)" fill="#371a45"/>
        </g>
      </g>
      <g id="Group_502" data-name="Group 502" transform="translate(29.258 28.259)">
        <g id="Group_500" data-name="Group 500" transform="translate(0.572)">
          <path id="Path_631" data-name="Path 631" d="M304.315,1001.756a2.974,2.974,0,0,1,.971-.492,3.513,3.513,0,0,1,1.094-.153,2.792,2.792,0,0,1,1.091.226c.086.04.171.077.252.122s.157.1.232.156a1.371,1.371,0,0,1,.211.18c.064.067.129.132.186.2-.362-.1-.673-.219-1.007-.276a5.733,5.733,0,0,0-.983-.135,7.142,7.142,0,0,0-1.008.023C305.014,1001.64,304.672,1001.693,304.315,1001.756Z" transform="translate(-304.315 -1001.11)" fill="#371a45"/>
        </g>
        <g id="Group_501" data-name="Group 501" transform="translate(0 2.542)">
          <path id="Path_632" data-name="Path 632" d="M303.62,1004.683a4.555,4.555,0,0,1,1.439-.434,5.207,5.207,0,0,1,1.522.008c.126.025.254.038.378.072s.248.068.371.1.24.093.358.143l.177.076.167.1c.11.067.222.128.328.2s.2.162.3.242a1.6,1.6,0,0,1,.142.125l.129.142c.082.1.165.193.24.293a10.362,10.362,0,0,0-1.309-.637l-.163-.068-.169-.054c-.114-.033-.222-.078-.336-.107s-.228-.059-.342-.087-.231-.045-.347-.069a8.64,8.64,0,0,0-1.42-.128A12.121,12.121,0,0,0,303.62,1004.683Z" transform="translate(-303.62 -1004.197)" fill="#371a45"/>
        </g>
      </g>
    </g>
    <g id="Group_507" data-name="Group 507" transform="translate(50.625 25.957)">
      <g id="Group_504" data-name="Group 504" transform="translate(0.39 0.4)">
        <path id="Path_633" data-name="Path 633" d="M285.742,999.594c3.652-1.927,4.774-.159,5.263,3.29C288.342,1003.235,286.01,1002.485,285.742,999.594Z" transform="translate(-285.742 -998.8)" fill="#48c75a"/>
      </g>
      <g id="Group_505" data-name="Group 505">
        <path id="Path_634" data-name="Path 634" d="M290.317,1003.467a5.7,5.7,0,0,1-3.751-1.169,3.786,3.786,0,0,1-1.3-2.767.39.39,0,0,1,.2-.365c1.568-.867,2.8-1.069,3.769-.619,1.393.646,1.937,2.5,2.319,4.412a.391.391,0,0,1-.347.465C290.905,1003.452,290.607,1003.467,290.317,1003.467Zm-4.248-3.737a2.969,2.969,0,0,0,1,1.975,5.259,5.259,0,0,0,3.626.971c-.323-1.488-.807-2.964-1.791-3.421A3.3,3.3,0,0,0,286.069,999.73Z" transform="translate(-285.268 -998.315)" fill="#661a47"/>
      </g>
      <g id="Group_506" data-name="Group 506" transform="translate(0.027 0.734)">
        <path id="Path_635" data-name="Path 635" d="M285.585,999.283a2.424,2.424,0,0,1,1.231.007,3.673,3.673,0,0,1,1.071.472,5.055,5.055,0,0,1,.881.708,4.408,4.408,0,0,1,.68.874,7.929,7.929,0,0,0-1.846-1.015,5.079,5.079,0,0,0-.951-.252,3.57,3.57,0,0,0-.909-.029l-.014,0a.392.392,0,0,1-.143-.767Z" transform="translate(-285.301 -999.207)" fill="#651b47"/>
      </g>
    </g>
  </g>
</svg>
