<svg id="Group_1178" data-name="Group 1178" xmlns="http://www.w3.org/2000/svg" xmlns:xlink="http://www.w3.org/1999/xlink" width="35.813" height="33.431" viewBox="0 0 35.813 33.431">
  <defs>
    <clipPath id="clip-path">
      <path id="Path_1378" data-name="Path 1378" d="M874.865,6949.129c4.408-4.093,2.984-8.334,5.779-10.929s6.148-.144,6.148-.144,2.2,3.526-.6,6.121S879.273,6945.036,874.865,6949.129Z" transform="translate(-874.865 -6937.009)" fill="none"/>
    </clipPath>
  </defs>
  <g id="Group_1177" data-name="Group 1177">
    <g id="Group_1137" data-name="Group 1137" transform="translate(0 20.684)">
      <g id="Group_1133" data-name="Group 1133" transform="translate(0.262 0.263)">
        <g id="Group_1132" data-name="Group 1132" transform="translate(0.055 0.047)">
          <g id="Group_1131" data-name="Group 1131" clip-path="url(#clip-path)">
            <rect id="Rectangle_449" data-name="Rectangle 449" width="16.113" height="3.755" transform="translate(-3.544 7.024) rotate(-34.816)" fill="#e42528"/>
            <rect id="Rectangle_450" data-name="Rectangle 450" width="16.113" height="0.028" transform="translate(-1.4 10.107) rotate(-34.816)" fill="#e42528"/>
            <rect id="Rectangle_451" data-name="Rectangle 451" width="16.113" height="0.028" transform="translate(-1.383 10.13) rotate(-34.816)" fill="#e42528"/>
            <rect id="Rectangle_452" data-name="Rectangle 452" width="16.113" height="0.028" transform="translate(-1.367 10.154) rotate(-34.816)" fill="#e42528"/>
            <rect id="Rectangle_453" data-name="Rectangle 453" width="16.113" height="0.028" transform="translate(-1.351 10.177) rotate(-34.816)" fill="#e42528"/>
            <rect id="Rectangle_454" data-name="Rectangle 454" width="16.113" height="0.028" transform="translate(-1.335 10.2) rotate(-34.816)" fill="#e42528"/>
            <rect id="Rectangle_455" data-name="Rectangle 455" width="16.113" height="0.028" transform="translate(-1.319 10.223) rotate(-34.816)" fill="#e42528"/>
            <rect id="Rectangle_456" data-name="Rectangle 456" width="16.113" height="0.028" transform="translate(-1.303 10.246) rotate(-34.816)" fill="#e42528"/>
            <rect id="Rectangle_457" data-name="Rectangle 457" width="16.113" height="0.028" transform="translate(-1.287 10.269) rotate(-34.816)" fill="#e42528"/>
            <rect id="Rectangle_458" data-name="Rectangle 458" width="16.113" height="0.028" transform="translate(-1.271 10.292) rotate(-34.816)" fill="#e42528"/>
            <rect id="Rectangle_459" data-name="Rectangle 459" width="16.113" height="0.028" transform="translate(-1.255 10.316) rotate(-34.816)" fill="#e42528"/>
            <rect id="Rectangle_460" data-name="Rectangle 460" width="16.113" height="0.028" transform="translate(-1.239 10.339) rotate(-34.816)" fill="#e42528"/>
            <rect id="Rectangle_461" data-name="Rectangle 461" width="16.113" height="0.028" transform="translate(-1.223 10.362) rotate(-34.816)" fill="#e42528"/>
            <rect id="Rectangle_462" data-name="Rectangle 462" width="16.113" height="0.028" transform="translate(-1.206 10.385) rotate(-34.816)" fill="#e42528"/>
            <rect id="Rectangle_463" data-name="Rectangle 463" width="16.113" height="0.028" transform="translate(-1.19 10.408) rotate(-34.816)" fill="#e42528"/>
            <rect id="Rectangle_464" data-name="Rectangle 464" width="16.113" height="0.028" transform="translate(-1.174 10.431) rotate(-34.816)" fill="#e42628"/>
            <rect id="Rectangle_465" data-name="Rectangle 465" width="16.113" height="0.028" transform="translate(-1.158 10.454) rotate(-34.816)" fill="#e42628"/>
            <rect id="Rectangle_466" data-name="Rectangle 466" width="16.113" height="0.028" transform="translate(-1.142 10.478) rotate(-34.816)" fill="#e42628"/>
            <rect id="Rectangle_467" data-name="Rectangle 467" width="16.113" height="0.028" transform="translate(-1.126 10.501) rotate(-34.816)" fill="#e42828"/>
            <rect id="Rectangle_468" data-name="Rectangle 468" width="16.113" height="0.028" transform="translate(-1.11 10.524) rotate(-34.816)" fill="#e42828"/>
            <rect id="Rectangle_469" data-name="Rectangle 469" width="16.113" height="0.028" transform="translate(-1.094 10.547) rotate(-34.816)" fill="#e42828"/>
            <rect id="Rectangle_470" data-name="Rectangle 470" width="16.113" height="0.028" transform="translate(-1.078 10.57) rotate(-34.816)" fill="#e52928"/>
            <rect id="Rectangle_471" data-name="Rectangle 471" width="16.113" height="0.028" transform="translate(-1.062 10.593) rotate(-34.816)" fill="#e52928"/>
            <rect id="Rectangle_472" data-name="Rectangle 472" width="16.113" height="0.028" transform="translate(-1.046 10.616) rotate(-34.816)" fill="#e52928"/>
            <rect id="Rectangle_473" data-name="Rectangle 473" width="16.113" height="0.028" transform="translate(-1.029 10.64) rotate(-34.816)" fill="#e52928"/>
            <rect id="Rectangle_474" data-name="Rectangle 474" width="16.113" height="0.028" transform="translate(-1.013 10.663) rotate(-34.816)" fill="#e52928"/>
            <rect id="Rectangle_475" data-name="Rectangle 475" width="16.113" height="0.028" transform="translate(-0.997 10.686) rotate(-34.816)" fill="#e52a28"/>
            <rect id="Rectangle_476" data-name="Rectangle 476" width="16.113" height="0.028" transform="translate(-0.981 10.709) rotate(-34.816)" fill="#e52a28"/>
            <rect id="Rectangle_477" data-name="Rectangle 477" width="16.113" height="0.028" transform="translate(-0.965 10.732) rotate(-34.816)" fill="#e52a28"/>
            <rect id="Rectangle_478" data-name="Rectangle 478" width="16.113" height="0.028" transform="translate(-0.949 10.756) rotate(-34.816)" fill="#e52a28"/>
            <rect id="Rectangle_479" data-name="Rectangle 479" width="16.113" height="0.028" transform="translate(-0.933 10.779) rotate(-34.816)" fill="#e52a29"/>
            <rect id="Rectangle_480" data-name="Rectangle 480" width="16.113" height="0.028" transform="translate(-0.917 10.802) rotate(-34.816)" fill="#e52a29"/>
            <rect id="Rectangle_481" data-name="Rectangle 481" width="16.113" height="0.028" transform="translate(-0.901 10.825) rotate(-34.816)" fill="#e52c29"/>
            <rect id="Rectangle_482" data-name="Rectangle 482" width="16.113" height="0.028" transform="translate(-0.885 10.848) rotate(-34.816)" fill="#e52c29"/>
            <rect id="Rectangle_483" data-name="Rectangle 483" width="16.113" height="0.028" transform="translate(-0.868 10.871) rotate(-34.816)" fill="#e52c29"/>
            <rect id="Rectangle_484" data-name="Rectangle 484" width="16.113" height="0.028" transform="translate(-0.852 10.894) rotate(-34.816)" fill="#e52c29"/>
            <rect id="Rectangle_485" data-name="Rectangle 485" width="16.113" height="0.028" transform="translate(-0.836 10.918) rotate(-34.816)" fill="#e52d29"/>
            <rect id="Rectangle_486" data-name="Rectangle 486" width="16.113" height="0.028" transform="translate(-0.82 10.941) rotate(-34.816)" fill="#e52d29"/>
            <rect id="Rectangle_487" data-name="Rectangle 487" width="16.113" height="0.028" transform="translate(-0.804 10.964) rotate(-34.816)" fill="#e52e29"/>
            <rect id="Rectangle_488" data-name="Rectangle 488" width="16.113" height="0.028" transform="translate(-0.788 10.987) rotate(-34.816)" fill="#e52e29"/>
            <rect id="Rectangle_489" data-name="Rectangle 489" width="16.113" height="0.028" transform="translate(-0.772 11.01) rotate(-34.816)" fill="#e52f2a"/>
            <rect id="Rectangle_490" data-name="Rectangle 490" width="16.113" height="0.028" transform="translate(-0.756 11.033) rotate(-34.816)" fill="#e5302a"/>
            <rect id="Rectangle_491" data-name="Rectangle 491" width="16.113" height="0.028" transform="translate(-0.74 11.056) rotate(-34.816)" fill="#e5302a"/>
            <rect id="Rectangle_492" data-name="Rectangle 492" width="16.113" height="0.028" transform="translate(-0.723 11.08) rotate(-34.816)" fill="#e53029"/>
            <rect id="Rectangle_493" data-name="Rectangle 493" width="16.113" height="0.028" transform="translate(-0.707 11.103) rotate(-34.816)" fill="#e53229"/>
            <rect id="Rectangle_494" data-name="Rectangle 494" width="16.113" height="0.028" transform="translate(-0.691 11.126) rotate(-34.816)" fill="#e53229"/>
            <rect id="Rectangle_495" data-name="Rectangle 495" width="16.113" height="0.028" transform="translate(-0.675 11.149) rotate(-34.816)" fill="#e5332a"/>
            <rect id="Rectangle_496" data-name="Rectangle 496" width="16.113" height="0.028" transform="translate(-0.659 11.172) rotate(-34.816)" fill="#e5332a"/>
            <rect id="Rectangle_497" data-name="Rectangle 497" width="16.113" height="0.028" transform="translate(-0.643 11.195) rotate(-34.816)" fill="#e5332a"/>
            <rect id="Rectangle_498" data-name="Rectangle 498" width="16.113" height="0.028" transform="translate(-0.627 11.218) rotate(-34.816)" fill="#e53429"/>
            <rect id="Rectangle_499" data-name="Rectangle 499" width="16.113" height="0.028" transform="translate(-0.611 11.241) rotate(-34.816)" fill="#e63529"/>
            <rect id="Rectangle_500" data-name="Rectangle 500" width="16.113" height="0.028" transform="translate(-0.595 11.265) rotate(-34.816)" fill="#e63629"/>
            <rect id="Rectangle_501" data-name="Rectangle 501" width="16.113" height="0.028" transform="translate(-0.579 11.288) rotate(-34.816)" fill="#e6362a"/>
            <rect id="Rectangle_502" data-name="Rectangle 502" width="16.113" height="0.028" transform="translate(-0.562 11.311) rotate(-34.816)" fill="#e6372b"/>
            <rect id="Rectangle_503" data-name="Rectangle 503" width="16.113" height="0.028" transform="translate(-0.546 11.334) rotate(-34.816)" fill="#e6372b"/>
            <rect id="Rectangle_504" data-name="Rectangle 504" width="16.113" height="0.028" transform="translate(-0.53 11.357) rotate(-34.816)" fill="#e6382b"/>
            <rect id="Rectangle_505" data-name="Rectangle 505" width="16.113" height="0.028" transform="translate(-0.514 11.38) rotate(-34.816)" fill="#e6382b"/>
            <rect id="Rectangle_506" data-name="Rectangle 506" width="16.113" height="0.028" transform="translate(-0.498 11.404) rotate(-34.816)" fill="#e6392b"/>
            <rect id="Rectangle_507" data-name="Rectangle 507" width="16.113" height="0.028" transform="translate(-0.482 11.427) rotate(-34.816)" fill="#e63a2b"/>
            <rect id="Rectangle_508" data-name="Rectangle 508" width="16.113" height="0.028" transform="translate(-0.466 11.45) rotate(-34.816)" fill="#e63a2b"/>
            <rect id="Rectangle_509" data-name="Rectangle 509" width="16.113" height="0.028" transform="translate(-0.45 11.473) rotate(-34.816)" fill="#e63b2b"/>
            <rect id="Rectangle_510" data-name="Rectangle 510" width="16.113" height="0.028" transform="translate(-0.434 11.496) rotate(-34.816)" fill="#e63b2b"/>
            <rect id="Rectangle_511" data-name="Rectangle 511" width="16.113" height="0.028" transform="translate(-0.418 11.519) rotate(-34.816)" fill="#e63c2a"/>
            <rect id="Rectangle_512" data-name="Rectangle 512" width="16.113" height="0.028" transform="translate(-0.401 11.543) rotate(-34.816)" fill="#e63d2a"/>
            <rect id="Rectangle_513" data-name="Rectangle 513" width="16.113" height="0.028" transform="translate(-0.385 11.566) rotate(-34.816)" fill="#e63f2b"/>
            <rect id="Rectangle_514" data-name="Rectangle 514" width="16.113" height="0.028" transform="translate(-0.369 11.589) rotate(-34.816)" fill="#e7402b"/>
            <rect id="Rectangle_515" data-name="Rectangle 515" width="16.113" height="0.028" transform="translate(-0.353 11.612) rotate(-34.816)" fill="#e7402b"/>
            <rect id="Rectangle_516" data-name="Rectangle 516" width="16.113" height="0.028" transform="translate(-0.337 11.635) rotate(-34.816)" fill="#e7402b"/>
            <rect id="Rectangle_517" data-name="Rectangle 517" width="16.113" height="0.028" transform="translate(-0.321 11.658) rotate(-34.816)" fill="#e7412a"/>
            <rect id="Rectangle_518" data-name="Rectangle 518" width="16.113" height="0.028" transform="translate(-0.305 11.681) rotate(-34.816)" fill="#e7422a"/>
            <rect id="Rectangle_519" data-name="Rectangle 519" width="16.113" height="0.028" transform="translate(-0.289 11.705) rotate(-34.816)" fill="#e7432a"/>
            <rect id="Rectangle_520" data-name="Rectangle 520" width="16.113" height="0.028" transform="translate(-0.273 11.728) rotate(-34.816)" fill="#e7442a"/>
            <rect id="Rectangle_521" data-name="Rectangle 521" width="16.113" height="0.028" transform="translate(-0.257 11.751) rotate(-34.816)" fill="#e7442a"/>
            <rect id="Rectangle_522" data-name="Rectangle 522" width="16.113" height="0.028" transform="translate(-0.241 11.774) rotate(-34.816)" fill="#e7452b"/>
            <rect id="Rectangle_523" data-name="Rectangle 523" width="16.113" height="0.028" transform="translate(-0.224 11.797) rotate(-34.816)" fill="#e7462a"/>
            <rect id="Rectangle_524" data-name="Rectangle 524" width="16.113" height="0.028" transform="translate(-0.208 11.82) rotate(-34.816)" fill="#e7472a"/>
            <rect id="Rectangle_525" data-name="Rectangle 525" width="16.113" height="0.028" transform="translate(-0.192 11.843) rotate(-34.816)" fill="#e7482a"/>
            <rect id="Rectangle_526" data-name="Rectangle 526" width="16.113" height="0.028" transform="translate(-0.176 11.867) rotate(-34.816)" fill="#e8492a"/>
            <rect id="Rectangle_527" data-name="Rectangle 527" width="16.113" height="0.028" transform="translate(-0.16 11.89) rotate(-34.816)" fill="#e84a29"/>
            <rect id="Rectangle_528" data-name="Rectangle 528" width="16.113" height="0.028" transform="translate(-0.144 11.913) rotate(-34.816)" fill="#e84b29"/>
            <rect id="Rectangle_529" data-name="Rectangle 529" width="16.113" height="0.028" transform="translate(-0.128 11.936) rotate(-34.816)" fill="#e84c29"/>
            <rect id="Rectangle_530" data-name="Rectangle 530" width="16.113" height="0.028" transform="translate(-0.112 11.959) rotate(-34.816)" fill="#e84e29"/>
            <rect id="Rectangle_531" data-name="Rectangle 531" width="16.113" height="0.028" transform="translate(-0.096 11.982) rotate(-34.816)" fill="#e84f29"/>
            <rect id="Rectangle_532" data-name="Rectangle 532" width="16.113" height="0.028" transform="translate(-0.08 12.005) rotate(-34.816)" fill="#e84f29"/>
            <rect id="Rectangle_533" data-name="Rectangle 533" width="16.113" height="0.028" transform="translate(-0.064 12.029) rotate(-34.816)" fill="#e8512a"/>
            <rect id="Rectangle_534" data-name="Rectangle 534" width="16.113" height="0.028" transform="translate(-0.047 12.052) rotate(-34.816)" fill="#e8512a"/>
            <rect id="Rectangle_535" data-name="Rectangle 535" width="16.113" height="0.028" transform="translate(-0.031 12.075) rotate(-34.816)" fill="#e8522a"/>
            <rect id="Rectangle_536" data-name="Rectangle 536" width="16.113" height="0.028" transform="translate(-0.015 12.098) rotate(-34.816)" fill="#e9532a"/>
            <rect id="Rectangle_537" data-name="Rectangle 537" width="16.113" height="0.028" transform="translate(0.001 12.121) rotate(-34.816)" fill="#e95429"/>
            <rect id="Rectangle_538" data-name="Rectangle 538" width="16.113" height="0.028" transform="translate(0.017 12.144) rotate(-34.816)" fill="#e95529"/>
            <rect id="Rectangle_539" data-name="Rectangle 539" width="16.113" height="0.028" transform="translate(0.033 12.167) rotate(-34.816)" fill="#e95629"/>
            <rect id="Rectangle_540" data-name="Rectangle 540" width="16.113" height="0.028" transform="translate(0.049 12.191) rotate(-34.816)" fill="#e95729"/>
            <rect id="Rectangle_541" data-name="Rectangle 541" width="16.113" height="0.028" transform="translate(0.065 12.214) rotate(-34.816)" fill="#e95829"/>
            <rect id="Rectangle_542" data-name="Rectangle 542" width="16.113" height="0.028" transform="translate(0.081 12.237) rotate(-34.816)" fill="#e9592a"/>
            <rect id="Rectangle_543" data-name="Rectangle 543" width="16.113" height="0.028" transform="translate(0.098 12.26) rotate(-34.816)" fill="#e95a2a"/>
            <rect id="Rectangle_544" data-name="Rectangle 544" width="16.113" height="0.028" transform="translate(0.114 12.283) rotate(-34.816)" fill="#ea5b2a"/>
            <rect id="Rectangle_545" data-name="Rectangle 545" width="16.113" height="0.028" transform="translate(0.13 12.307) rotate(-34.816)" fill="#ea5d29"/>
            <rect id="Rectangle_546" data-name="Rectangle 546" width="16.113" height="0.028" transform="translate(0.146 12.33) rotate(-34.816)" fill="#ea5e2a"/>
            <rect id="Rectangle_547" data-name="Rectangle 547" width="16.113" height="0.028" transform="translate(0.162 12.353) rotate(-34.816)" fill="#ea5f2a"/>
            <rect id="Rectangle_548" data-name="Rectangle 548" width="16.113" height="0.028" transform="translate(0.178 12.376) rotate(-34.816)" fill="#ea602b"/>
            <rect id="Rectangle_549" data-name="Rectangle 549" width="16.113" height="0.028" transform="translate(0.194 12.399) rotate(-34.816)" fill="#ea612b"/>
            <rect id="Rectangle_550" data-name="Rectangle 550" width="16.113" height="0.028" transform="translate(0.21 12.422) rotate(-34.816)" fill="#eb612b"/>
            <rect id="Rectangle_551" data-name="Rectangle 551" width="16.113" height="0.028" transform="translate(0.226 12.445) rotate(-34.816)" fill="#eb612b"/>
            <rect id="Rectangle_552" data-name="Rectangle 552" width="16.113" height="0.028" transform="translate(0.242 12.469) rotate(-34.816)" fill="#eb642b"/>
            <rect id="Rectangle_553" data-name="Rectangle 553" width="16.113" height="0.028" transform="translate(0.259 12.492) rotate(-34.816)" fill="#eb652b"/>
            <rect id="Rectangle_554" data-name="Rectangle 554" width="16.113" height="0.028" transform="translate(0.275 12.515) rotate(-34.816)" fill="#eb662b"/>
            <rect id="Rectangle_555" data-name="Rectangle 555" width="16.113" height="0.028" transform="translate(0.291 12.538) rotate(-34.816)" fill="#eb682b"/>
            <rect id="Rectangle_556" data-name="Rectangle 556" width="16.113" height="0.028" transform="translate(0.307 12.561) rotate(-34.816)" fill="#eb692b"/>
            <rect id="Rectangle_557" data-name="Rectangle 557" width="16.113" height="0.028" transform="translate(0.323 12.584) rotate(-34.816)" fill="#ec6a2b"/>
            <rect id="Rectangle_558" data-name="Rectangle 558" width="16.113" height="0.028" transform="translate(0.339 12.607) rotate(-34.816)" fill="#ec6c2b"/>
            <rect id="Rectangle_559" data-name="Rectangle 559" width="16.113" height="0.028" transform="translate(0.355 12.631) rotate(-34.816)" fill="#ec6d2b"/>
            <rect id="Rectangle_560" data-name="Rectangle 560" width="16.113" height="0.028" transform="translate(0.371 12.654) rotate(-34.816)" fill="#ec6d2b"/>
            <rect id="Rectangle_561" data-name="Rectangle 561" width="16.113" height="0.028" transform="translate(0.387 12.677) rotate(-34.816)" fill="#ec6e2b"/>
            <rect id="Rectangle_562" data-name="Rectangle 562" width="16.113" height="0.028" transform="translate(0.403 12.7) rotate(-34.816)" fill="#ec6f2b"/>
            <rect id="Rectangle_563" data-name="Rectangle 563" width="16.113" height="0.028" transform="translate(0.42 12.723) rotate(-34.816)" fill="#ed702b"/>
            <rect id="Rectangle_564" data-name="Rectangle 564" width="16.113" height="0.028" transform="translate(0.436 12.746) rotate(-34.816)" fill="#ed722b"/>
            <rect id="Rectangle_565" data-name="Rectangle 565" width="16.113" height="0.028" transform="translate(0.452 12.769) rotate(-34.816)" fill="#ed742b"/>
            <rect id="Rectangle_566" data-name="Rectangle 566" width="16.113" height="0.028" transform="translate(0.468 12.792) rotate(-34.816)" fill="#ed742b"/>
            <rect id="Rectangle_567" data-name="Rectangle 567" width="16.113" height="0.028" transform="translate(0.484 12.816) rotate(-34.816)" fill="#ed752b"/>
            <rect id="Rectangle_568" data-name="Rectangle 568" width="16.113" height="0.028" transform="translate(0.5 12.839) rotate(-34.816)" fill="#ed762b"/>
            <rect id="Rectangle_569" data-name="Rectangle 569" width="16.113" height="0.028" transform="translate(0.516 12.862) rotate(-34.816)" fill="#ee792b"/>
            <rect id="Rectangle_570" data-name="Rectangle 570" width="16.113" height="0.028" transform="translate(0.532 12.885) rotate(-34.816)" fill="#ee7a2b"/>
            <rect id="Rectangle_571" data-name="Rectangle 571" width="16.113" height="0.028" transform="translate(0.548 12.908) rotate(-34.816)" fill="#ee7b2b"/>
            <rect id="Rectangle_572" data-name="Rectangle 572" width="16.113" height="0.028" transform="translate(0.564 12.931) rotate(-34.816)" fill="#ee7c2c"/>
            <rect id="Rectangle_573" data-name="Rectangle 573" width="16.113" height="0.028" transform="translate(0.581 12.955) rotate(-34.816)" fill="#ef7e2c"/>
            <rect id="Rectangle_574" data-name="Rectangle 574" width="16.113" height="0.028" transform="translate(0.597 12.978) rotate(-34.816)" fill="#ef7f2c"/>
            <rect id="Rectangle_575" data-name="Rectangle 575" width="16.113" height="0.028" transform="translate(0.613 13.001) rotate(-34.816)" fill="#ef802c"/>
            <rect id="Rectangle_576" data-name="Rectangle 576" width="16.113" height="0.028" transform="translate(0.629 13.024) rotate(-34.816)" fill="#ef802c"/>
            <rect id="Rectangle_577" data-name="Rectangle 577" width="16.113" height="0.028" transform="translate(0.645 13.047) rotate(-34.816)" fill="#ef822b"/>
            <rect id="Rectangle_578" data-name="Rectangle 578" width="16.113" height="0.028" transform="translate(0.661 13.07) rotate(-34.816)" fill="#f0832a"/>
            <rect id="Rectangle_579" data-name="Rectangle 579" width="16.113" height="0.028" transform="translate(0.677 13.094) rotate(-34.816)" fill="#f0842a"/>
            <rect id="Rectangle_580" data-name="Rectangle 580" width="16.113" height="0.028" transform="translate(0.693 13.117) rotate(-34.816)" fill="#f08529"/>
            <rect id="Rectangle_581" data-name="Rectangle 581" width="16.113" height="0.028" transform="translate(0.709 13.14) rotate(-34.816)" fill="#f0862a"/>
            <rect id="Rectangle_582" data-name="Rectangle 582" width="16.113" height="0.028" transform="translate(0.725 13.163) rotate(-34.816)" fill="#f0882a"/>
            <rect id="Rectangle_583" data-name="Rectangle 583" width="16.113" height="0.028" transform="translate(0.741 13.186) rotate(-34.816)" fill="#f1892a"/>
            <rect id="Rectangle_584" data-name="Rectangle 584" width="16.113" height="0.028" transform="translate(0.758 13.209) rotate(-34.816)" fill="#f18a2a"/>
            <rect id="Rectangle_585" data-name="Rectangle 585" width="16.113" height="0.028" transform="translate(0.774 13.232) rotate(-34.816)" fill="#f18c2c"/>
            <rect id="Rectangle_586" data-name="Rectangle 586" width="16.113" height="0.028" transform="translate(0.79 13.256) rotate(-34.816)" fill="#f18e2c"/>
            <rect id="Rectangle_587" data-name="Rectangle 587" width="16.113" height="0.028" transform="translate(0.806 13.279) rotate(-34.816)" fill="#f2902d"/>
            <rect id="Rectangle_588" data-name="Rectangle 588" width="16.113" height="0.028" transform="translate(0.822 13.302) rotate(-34.816)" fill="#f2912c"/>
            <rect id="Rectangle_589" data-name="Rectangle 589" width="16.113" height="0.028" transform="translate(0.838 13.325) rotate(-34.816)" fill="#f2922c"/>
            <rect id="Rectangle_590" data-name="Rectangle 590" width="16.113" height="0.028" transform="translate(0.854 13.348) rotate(-34.816)" fill="#f3952c"/>
            <rect id="Rectangle_591" data-name="Rectangle 591" width="16.113" height="0.028" transform="translate(0.87 13.371) rotate(-34.816)" fill="#f3952c"/>
            <rect id="Rectangle_592" data-name="Rectangle 592" width="16.113" height="0.028" transform="translate(0.886 13.394) rotate(-34.816)" fill="#f3972c"/>
            <rect id="Rectangle_593" data-name="Rectangle 593" width="16.113" height="0.028" transform="translate(0.902 13.418) rotate(-34.816)" fill="#f3982c"/>
            <rect id="Rectangle_594" data-name="Rectangle 594" width="16.113" height="0.028" transform="translate(0.919 13.441) rotate(-34.816)" fill="#f4992b"/>
            <rect id="Rectangle_595" data-name="Rectangle 595" width="16.113" height="0.028" transform="translate(0.935 13.464) rotate(-34.816)" fill="#f49b2b"/>
            <rect id="Rectangle_596" data-name="Rectangle 596" width="16.113" height="0.028" transform="translate(0.951 13.487) rotate(-34.816)" fill="#f49d2b"/>
            <rect id="Rectangle_597" data-name="Rectangle 597" width="16.113" height="0.028" transform="translate(0.967 13.51) rotate(-34.816)" fill="#f59e2b"/>
            <rect id="Rectangle_598" data-name="Rectangle 598" width="16.113" height="0.028" transform="translate(0.983 13.533) rotate(-34.816)" fill="#f5a02c"/>
            <rect id="Rectangle_599" data-name="Rectangle 599" width="16.113" height="0.028" transform="translate(0.999 13.556) rotate(-34.816)" fill="#f5a12c"/>
            <rect id="Rectangle_600" data-name="Rectangle 600" width="16.113" height="0.028" transform="translate(1.015 13.58) rotate(-34.816)" fill="#f6a32c"/>
            <rect id="Rectangle_601" data-name="Rectangle 601" width="16.113" height="0.028" transform="translate(1.031 13.603) rotate(-34.816)" fill="#f6a42b"/>
            <rect id="Rectangle_602" data-name="Rectangle 602" width="16.113" height="0.028" transform="translate(1.047 13.626) rotate(-34.816)" fill="#f6a62b"/>
            <rect id="Rectangle_603" data-name="Rectangle 603" width="16.113" height="0.028" transform="translate(1.063 13.649) rotate(-34.816)" fill="#f7a829"/>
            <rect id="Rectangle_604" data-name="Rectangle 604" width="16.113" height="0.028" transform="translate(1.08 13.672) rotate(-34.816)" fill="#f7a92b"/>
            <rect id="Rectangle_605" data-name="Rectangle 605" width="16.113" height="0.028" transform="translate(1.096 13.695) rotate(-34.816)" fill="#f7ab2a"/>
            <rect id="Rectangle_606" data-name="Rectangle 606" width="16.113" height="0.028" transform="translate(1.112 13.718) rotate(-34.816)" fill="#f7ac2a"/>
            <rect id="Rectangle_607" data-name="Rectangle 607" width="16.113" height="0.028" transform="translate(1.128 13.742) rotate(-34.816)" fill="#f8ae2c"/>
            <rect id="Rectangle_608" data-name="Rectangle 608" width="16.113" height="0.028" transform="translate(1.144 13.765) rotate(-34.816)" fill="#f8af2c"/>
            <rect id="Rectangle_609" data-name="Rectangle 609" width="16.113" height="0.028" transform="translate(1.16 13.788) rotate(-34.816)" fill="#f8b22b"/>
            <rect id="Rectangle_610" data-name="Rectangle 610" width="16.113" height="0.028" transform="translate(1.176 13.811) rotate(-34.816)" fill="#f9b42d"/>
            <rect id="Rectangle_611" data-name="Rectangle 611" width="16.113" height="0.028" transform="translate(1.192 13.834) rotate(-34.816)" fill="#f9b52d"/>
            <rect id="Rectangle_612" data-name="Rectangle 612" width="16.113" height="0.028" transform="translate(1.208 13.858) rotate(-34.816)" fill="#f9b62d"/>
            <rect id="Rectangle_613" data-name="Rectangle 613" width="16.113" height="0.028" transform="translate(1.225 13.881) rotate(-34.816)" fill="#fab82c"/>
            <rect id="Rectangle_614" data-name="Rectangle 614" width="16.113" height="0.028" transform="translate(1.241 13.904) rotate(-34.816)" fill="#fab92b"/>
            <rect id="Rectangle_615" data-name="Rectangle 615" width="16.113" height="0.028" transform="translate(1.257 13.927) rotate(-34.816)" fill="#fabb2c"/>
            <rect id="Rectangle_616" data-name="Rectangle 616" width="16.113" height="0.028" transform="translate(1.273 13.95) rotate(-34.816)" fill="#fbbc2c"/>
            <rect id="Rectangle_617" data-name="Rectangle 617" width="16.113" height="0.028" transform="translate(1.289 13.973) rotate(-34.816)" fill="#fbbe2c"/>
            <rect id="Rectangle_618" data-name="Rectangle 618" width="16.113" height="0.028" transform="translate(1.305 13.996) rotate(-34.816)" fill="#fbc02c"/>
            <rect id="Rectangle_619" data-name="Rectangle 619" width="16.113" height="0.028" transform="translate(1.321 14.02) rotate(-34.816)" fill="#fbc12a"/>
            <rect id="Rectangle_620" data-name="Rectangle 620" width="16.113" height="0.028" transform="translate(1.337 14.043) rotate(-34.816)" fill="#fcc32a"/>
            <rect id="Rectangle_621" data-name="Rectangle 621" width="16.113" height="0.028" transform="translate(1.353 14.066) rotate(-34.816)" fill="#fcc52a"/>
            <rect id="Rectangle_622" data-name="Rectangle 622" width="16.113" height="0.028" transform="translate(1.369 14.089) rotate(-34.816)" fill="#fcc62a"/>
            <rect id="Rectangle_623" data-name="Rectangle 623" width="16.113" height="0.028" transform="translate(1.385 14.112) rotate(-34.816)" fill="#fdc829"/>
            <rect id="Rectangle_624" data-name="Rectangle 624" width="16.113" height="0.482" transform="translate(1.402 14.135) rotate(-34.816)" fill="#fdc829"/>
          </g>
        </g>
        <path id="Path_1379" data-name="Path 1379" d="M874.783,6949.128a.054.054,0,0,1,.008-.071,12.624,12.624,0,0,0,3.658-6.638,8.361,8.361,0,0,1,2.121-4.291c2.8-2.6,6.183-.172,6.218-.147a.054.054,0,0,1,.014.015c.022.036,2.187,3.594-.609,6.189a8.372,8.372,0,0,1-4.437,1.8,12.623,12.623,0,0,0-6.891,3.154l-.006.005a.055.055,0,0,1-.071-.008Zm11.931-11.064c-.191-.134-3.409-2.325-6.07.145a8.285,8.285,0,0,0-2.09,4.24,13.3,13.3,0,0,1-2.86,5.845,13.287,13.287,0,0,1,6.04-2.418,8.284,8.284,0,0,0,4.384-1.769C888.779,6941.636,886.835,6938.264,886.714,6938.064Z" transform="translate(-874.773 -6936.93)" fill="#371b45"/>
      </g>
      <g id="Group_1134" data-name="Group 1134" transform="translate(0.381 1.443)" opacity="0.6">
        <path id="Path_1380" data-name="Path 1380" d="M886.3,6945.028c2.8-2.595.6-6.121.6-6.121l-.01-.007a4.648,4.648,0,0,1-.942,5.426c-2.293,2.13-5.482,1.345-8.987,3.254a11.473,11.473,0,0,1-1.989,2.4C879.379,6945.888,883.5,6947.622,886.3,6945.028Z" transform="translate(-874.971 -6938.9)" fill="#fff"/>
      </g>
      <g id="Group_1135" data-name="Group 1135" transform="translate(4.768 0.974)">
        <path id="Path_1381" data-name="Path 1381" d="M882.3,6945.471c2.566-2.381,1.374-5.242,3-6.753s3.943.307,3.943.307,1.641,2.444.014,3.956S884.864,6943.09,882.3,6945.471Z" transform="translate(-882.298 -6938.118)" fill="#ffd454"/>
      </g>
      <g id="Group_1136" data-name="Group 1136">
        <path id="Path_1382" data-name="Path 1382" d="M874.392,6949.1a.317.317,0,0,1,.045-.414,12.4,12.4,0,0,0,3.584-6.516,8.679,8.679,0,0,1,2.2-4.413c2.953-2.741,6.515-.193,6.551-.167a.318.318,0,0,1,.082.088c.023.038,2.3,3.78-.653,6.521a8.685,8.685,0,0,1-4.564,1.861,12.405,12.405,0,0,0-6.764,3.089.353.353,0,0,1-.035.028.316.316,0,0,1-.413-.044A.29.29,0,0,1,874.392,6949.1Zm11.95-11.032c-.427-.292-3.276-2.09-5.694.155a8.085,8.085,0,0,0-2.016,4.118,15.236,15.236,0,0,1-1.932,4.677,15.254,15.254,0,0,1,4.808-1.579,8.09,8.09,0,0,0,4.256-1.7C888.183,6941.493,886.6,6938.519,886.342,6938.07Z" transform="translate(-874.335 -6936.491)" fill="#371b45"/>
      </g>
    </g>
    <g id="Group_1138" data-name="Group 1138" transform="translate(9.39 17.999)">
      <path id="Path_1383" data-name="Path 1383" d="M891.089,6932.006l-.777,1.134a1.69,1.69,0,0,0-.108,1.73h0a10.144,10.144,0,0,0,3.71,4h0a1.692,1.692,0,0,0,1.734.021l1.189-.69Z" transform="translate(-890.017 -6932.006)" fill="#41a3db"/>
    </g>
    <g id="Group_1140" data-name="Group 1140" transform="translate(9.896 18.728)">
      <g id="Group_1139" data-name="Group 1139" opacity="0.35">
        <path id="Path_1384" data-name="Path 1384" d="M891.936,6933.224l-.777,1.135a1.69,1.69,0,0,0-.108,1.73c.138.267.287.525.447.778q-.258-.338-.487-.7a10.151,10.151,0,0,0,3.243,3.188h0a1.689,1.689,0,0,0,1.734.021l1.078-.626Z" transform="translate(-890.863 -6933.224)" fill="#371b45"/>
      </g>
    </g>
    <g id="Group_1141" data-name="Group 1141" transform="translate(10.032 21.67)">
      <path id="Path_1385" data-name="Path 1385" d="M891.09,6938.138a10.135,10.135,0,0,0,1.923,1.724q.221.153.45.293a1.688,1.688,0,0,0,1.733.022l1.1-.637.784.845-1.189.69a1.692,1.692,0,0,1-1.733-.021q-.23-.141-.45-.293A10.162,10.162,0,0,1,891.09,6938.138Z" transform="translate(-891.09 -6938.138)" fill="#41a3db"/>
    </g>
    <g id="Group_1144" data-name="Group 1144" transform="translate(10.032 21.67)" opacity="0.6">
      <g id="Group_1142" data-name="Group 1142">
        <path id="Path_1386" data-name="Path 1386" d="M892.557,6939.528a10.159,10.159,0,0,1-1.468-1.39c.09.13.182.259.278.384A10.059,10.059,0,0,0,892.557,6939.528Z" transform="translate(-891.09 -6938.138)" fill="#fff"/>
      </g>
      <g id="Group_1143" data-name="Group 1143" transform="translate(2.148 1.403)">
        <path id="Path_1387" data-name="Path 1387" d="M897.733,6940.48l-.056.033.559.6-1.189.689a1.688,1.688,0,0,1-1.733-.02c-.153-.093-.3-.192-.45-.293-.064-.043-.125-.089-.186-.134.153.119.307.235.467.344s.3.2.45.293a1.69,1.69,0,0,0,1.733.02l1.189-.689Z" transform="translate(-894.678 -6940.48)" fill="#fff"/>
      </g>
    </g>
    <g id="Group_1145" data-name="Group 1145" transform="translate(15.461 21.823)">
      <path id="Path_1388" data-name="Path 1388" d="M900.333,6944.55c.186-.672,1.084-3.822-.176-5.081l3.08-1.079a2.554,2.554,0,0,1,.154.227h0c.707,1.169.916,3.553-2.868,5.957l-.085.054A.071.071,0,0,1,900.333,6944.55Z" transform="translate(-900.157 -6938.391)" fill="#e42328"/>
    </g>
    <g id="Group_1146" data-name="Group 1146" transform="translate(15.461 21.823)" opacity="0.3">
      <path id="Path_1389" data-name="Path 1389" d="M900.333,6944.55c.186-.672,1.084-3.822-.176-5.081l3.08-1.079a2.554,2.554,0,0,1,.154.227l-.059-.117a1.829,1.829,0,0,1-.533.744c-.976.75-1.426,1.209-1.423,2.079a7.14,7.14,0,0,1-.853,3.251l-.085.054A.071.071,0,0,1,900.333,6944.55Z" transform="translate(-900.157 -6938.391)" fill="#293856"/>
    </g>
    <g id="Group_1147" data-name="Group 1147" transform="translate(15.634 21.823)" opacity="0.6">
      <path id="Path_1390" data-name="Path 1390" d="M900.512,6944.32c-.042.171-.026.1-.063.23a.071.071,0,0,0,.105.079c4.142-2.592,3.616-5.167,2.8-6.238l-.334.117C903.6,6939.663,903.528,6942.172,900.512,6944.32Z" transform="translate(-900.446 -6938.391)" fill="#fff"/>
    </g>
    <g id="Group_1148" data-name="Group 1148" transform="translate(15.128 21.49)">
      <path id="Path_1391" data-name="Path 1391" d="M899.845,6944.576a.4.4,0,0,1-.056-.337l.009-.032c.874-3.152.313-4.313-.1-4.725a.333.333,0,0,1,.471-.471c.84.839.985,2.431.434,4.739a5.667,5.667,0,0,0,2.6-3.335,2.581,2.581,0,0,0-.451-2.043.333.333,0,1,1,.529-.4,3.251,3.251,0,0,1,.577,2.566c-.27,1.489-1.435,2.887-3.463,4.155a.4.4,0,0,1-.455-.019A.392.392,0,0,1,899.845,6944.576Z" transform="translate(-899.601 -6937.836)" fill="#371b45"/>
    </g>
    <g id="Group_1149" data-name="Group 1149" transform="translate(6.322 14.932)">
      <path id="Path_1392" data-name="Path 1392" d="M891.387,6927.605c-1.006-.894-3.587-1.665-6.479,2.272a.071.071,0,0,0,.071.111c.684-.134,3.946-.737,5.108.612" transform="translate(-884.894 -6926.884)" fill="#e42328"/>
    </g>
    <g id="Group_1150" data-name="Group 1150" transform="translate(8.859 15.032)" opacity="0.35">
      <path id="Path_1393" data-name="Path 1393" d="M889.13,6929.806a3.585,3.585,0,0,1,2.643.848l.021,0,1.293-2.977a2.879,2.879,0,0,0-1.192-.623A6.275,6.275,0,0,0,889.13,6929.806Z" transform="translate(-889.13 -6927.051)" fill="#371b45"/>
    </g>
    <g id="Group_1151" data-name="Group 1151" transform="translate(5.989 14.598)">
      <path id="Path_1394" data-name="Path 1394" d="M884.411,6929.927l-.01-.014a.4.4,0,0,1,.015-.455c1.4-1.9,2.873-2.951,4.384-3.11a3.344,3.344,0,0,1,2.586.786.333.333,0,1,1-.442.5,2.717,2.717,0,0,0-2.073-.622,5.624,5.624,0,0,0-3.506,2.313c1.432-.213,3.742-.335,4.752.838a.333.333,0,1,1-.5.434c-.99-1.151-3.917-.676-4.791-.5A.4.4,0,0,1,884.411,6929.927Zm.542-.075h0Z" transform="translate(-884.338 -6926.327)" fill="#371b45"/>
    </g>
    <g id="Group_1152" data-name="Group 1152" transform="translate(10.463 0.39)">
      <path id="Path_1395" data-name="Path 1395" d="M896.14,6925.559a12.153,12.153,0,0,1-4.331-5.352s.755-6.333,8.283-12.414c8.838-7.139,16.517-4.843,16.517-4.843s1.462,6.66-4.412,14.192q-.741.952-1.645,1.919a27.023,27.023,0,0,1-5.84,4.763,16.962,16.962,0,0,1-7.156,2.576A12.2,12.2,0,0,1,896.14,6925.559Z" transform="translate(-891.809 -6902.598)" fill="#fff"/>
    </g>
    <g id="Group_1153" data-name="Group 1153" transform="translate(10.842 1.445)" opacity="0.35">
      <path id="Path_1396" data-name="Path 1396" d="M896.776,6923.511l-.02-.028a5.815,5.815,0,0,1-.783-5.818,22.8,22.8,0,0,1,7.7-9.283,5.376,5.376,0,0,1,5.161-.2c3.487,1.788,5.363,5.192,5.876,4.732.794-.708-5.6-8.251-4.806-8.559a23.2,23.2,0,0,0-9.173,4.687c-7.529,6.081-8.284,12.415-8.284,12.415a11.461,11.461,0,0,0,5.367,5.646,11.751,11.751,0,0,0,2.572-.523A12.175,12.175,0,0,1,896.776,6923.511Z" transform="translate(-892.443 -6904.359)" fill="#371b45"/>
    </g>
    <g id="Group_1154" data-name="Group 1154" transform="translate(25.127 0.39)">
      <path id="Path_1397" data-name="Path 1397" d="M916.3,6904a29.329,29.329,0,0,1,8.339,8.983c2.757-5.662,1.8-10.031,1.8-10.031S922.151,6901.668,916.3,6904Z" transform="translate(-916.3 -6902.598)" fill="#e42328"/>
    </g>
    <g id="Group_1155" data-name="Group 1155" transform="translate(32.949 0.415)" opacity="0.6">
      <path id="Path_1398" data-name="Path 1398" d="M931.678,6902.967a10.636,10.636,0,0,0-2.233-.327,9.058,9.058,0,0,1,1.37.252,16.338,16.338,0,0,1-1.45,9.275c.176.273.349.55.516.83C932.637,6907.335,931.678,6902.967,931.678,6902.967Z" transform="translate(-929.364 -6902.64)" fill="#fff"/>
    </g>
    <g id="Group_1157" data-name="Group 1157" transform="translate(25.779 1)">
      <g id="Group_1156" data-name="Group 1156" opacity="0.35">
        <path id="Path_1399" data-name="Path 1399" d="M925.222,6913.079a24.408,24.408,0,0,0-4.011-6.554,1.387,1.387,0,0,1,.7-2.288,20.867,20.867,0,0,1,3.8-.528,18.05,18.05,0,0,0-8.326,1.168,29.311,29.311,0,0,1,7.687,8.512C925.125,6913.285,925.175,6913.182,925.222,6913.079Z" transform="translate(-917.388 -6903.616)" fill="#371b45"/>
      </g>
    </g>
    <g id="Group_1158" data-name="Group 1158" transform="translate(24.739)">
      <path id="Path_1400" data-name="Path 1400" d="M915.721,6903.957a.389.389,0,0,1,.175-.583,18.148,18.148,0,0,1,9.457-1.253,1.574,1.574,0,0,1,1.326,1.429,18.135,18.135,0,0,1-1.953,9.339.388.388,0,0,1-.683.028,28.748,28.748,0,0,0-8.228-8.864A.379.379,0,0,1,915.721,6903.957Zm10.044-.736a.8.8,0,0,0-.534-.333,17.105,17.105,0,0,0-8.379.954,29.492,29.492,0,0,1,7.479,8.057,17.1,17.1,0,0,0,1.574-8.286A.8.8,0,0,0,925.766,6903.221Z" transform="translate(-915.651 -6901.946)" fill="#371b45"/>
    </g>
    <g id="Group_1159" data-name="Group 1159" transform="translate(10.074 1.4)">
      <path id="Path_1401" data-name="Path 1401" d="M892.475,6923.385a12.507,12.507,0,0,1-1.286-2.352.381.381,0,0,1-.027-.195,14.125,14.125,0,0,1,1.354-4.05,25.438,25.438,0,0,1,7.07-8.621,25.161,25.161,0,0,1,6.481-3.856.39.39,0,0,1,.375.049,29.52,29.52,0,0,1,8.441,9.1.387.387,0,0,1,.016.369,25.177,25.177,0,0,1-4.326,6.176,25.452,25.452,0,0,1-9.123,6.411,14.16,14.16,0,0,1-4.139,1.05.387.387,0,0,1-.192-.042,12.559,12.559,0,0,1-4.645-4.037Zm-.527-2.551a11.767,11.767,0,0,0,5.427,5.846,14.451,14.451,0,0,0,3.831-1,26.351,26.351,0,0,0,12.9-12,28.732,28.732,0,0,0-7.949-8.563,26.338,26.338,0,0,0-12.926,11.977A14.421,14.421,0,0,0,891.949,6920.834Z" transform="translate(-891.16 -6904.284)" fill="#371b45"/>
    </g>
    <g id="Group_1160" data-name="Group 1160" transform="translate(9.001 17.612)">
      <path id="Path_1402" data-name="Path 1402" d="M890.313,6935.975a10.57,10.57,0,0,1-.714-1.186,2.075,2.075,0,0,1,.133-2.127l.777-1.134a.388.388,0,1,1,.64.438l-.777,1.134a1.3,1.3,0,0,0-.083,1.333,9.76,9.76,0,0,0,3.568,3.843,1.3,1.3,0,0,0,1.335.016l1.189-.69a.389.389,0,0,1,.39.672l-1.189.69a2.077,2.077,0,0,1-2.132-.026A10.549,10.549,0,0,1,890.313,6935.975Z" transform="translate(-889.367 -6931.359)" fill="#371b45"/>
    </g>
    <g id="Group_1161" data-name="Group 1161" transform="translate(11.06 18.732)">
      <path id="Path_1403" data-name="Path 1403" d="M894.342,6934.279a6.3,6.3,0,0,0-1.535,3.234l.023,0a6.222,6.222,0,0,0,3.318-1.288,4.661,4.661,0,0,0,1.271-2.946c0-.031,0-.047,0-.047A4.706,4.706,0,0,0,894.342,6934.279Z" transform="translate(-892.807 -6933.23)" fill="#e42328"/>
    </g>
    <g id="Group_1162" data-name="Group 1162" transform="translate(10.934 18.55)" opacity="0.6">
      <path id="Path_1404" data-name="Path 1404" d="M892.6,6937.209s.013-.089.044-.239a6.38,6.38,0,0,0,2.99-1.365,4.987,4.987,0,0,0,1.376-2.677c.129,0,.2,0,.2,0s0,.017,0,.046a4.659,4.659,0,0,1-1.271,2.946,6.243,6.243,0,0,1-3.318,1.288Z" transform="translate(-892.596 -6932.926)" fill="#fff"/>
    </g>
    <g id="Group_1163" data-name="Group 1163" transform="translate(11.06 18.732)" opacity="0.3">
      <path id="Path_1405" data-name="Path 1405" d="M894.342,6934.279a6.3,6.3,0,0,0-1.535,3.234l.023,0,4.589-4.233c0-.031,0-.047,0-.047A4.706,4.706,0,0,0,894.342,6934.279Z" transform="translate(-892.807 -6933.23)" fill="#6b184e"/>
    </g>
    <g id="Group_1164" data-name="Group 1164" transform="translate(10.728 18.399)">
      <path id="Path_1406" data-name="Path 1406" d="M892.311,6937.481a.334.334,0,0,1-.056-.238,6.571,6.571,0,0,1,1.638-3.432,5.011,5.011,0,0,1,3.321-1.135.333.333,0,0,1,.317.342,5.012,5.012,0,0,1-1.38,3.228,6.57,6.57,0,0,1-3.543,1.377.335.335,0,0,1-.268-.1A.442.442,0,0,1,892.311,6937.481Zm4.52-4.13a4.152,4.152,0,0,0-2.485.949,1.556,1.556,0,1,0,1.353,1.458A4.145,4.145,0,0,0,896.83,6933.351Z" transform="translate(-892.251 -6932.674)" fill="#371b45"/>
    </g>
    <g id="Group_1165" data-name="Group 1165" transform="translate(20.317 5.569)" opacity="0.35">
      <circle id="Ellipse_306" data-name="Ellipse 306" cx="4.362" cy="4.362" r="4.362" fill="#371b45"/>
    </g>
    <g id="Group_1166" data-name="Group 1166" transform="translate(21.284 6.154)">
      <circle id="Ellipse_307" data-name="Ellipse 307" cx="3.922" cy="3.922" r="3.922" fill="#41a3db"/>
    </g>
    <g id="Group_1167" data-name="Group 1167" transform="translate(24.205 6.174)" opacity="0.6">
      <path id="Path_1407" data-name="Path 1407" d="M918.43,6919.034a3.922,3.922,0,0,0-2.284-6.777,3.922,3.922,0,0,1-1.385,7.695A3.919,3.919,0,0,0,918.43,6919.034Z" transform="translate(-914.76 -6912.256)" fill="#fff"/>
    </g>
    <g id="Group_1168" data-name="Group 1168" transform="translate(21.13 6.127)" opacity="0.35">
      <path id="Path_1408" data-name="Path 1408" d="M910.878,6913.226a3.921,3.921,0,0,0,1.424,6.594,3.922,3.922,0,0,1,3.449-6.963A3.922,3.922,0,0,0,910.878,6913.226Z" transform="translate(-909.624 -6912.178)" fill="#371b45"/>
    </g>
    <g id="Group_1169" data-name="Group 1169" transform="translate(21.007 5.877)">
      <path id="Path_1409" data-name="Path 1409" d="M910.165,6918.351a4.2,4.2,0,0,1,.6-5.468h0a4.192,4.192,0,1,1-.6,5.468Zm6.451-4.465a3.682,3.682,0,0,0-.326-.406,3.647,3.647,0,0,0-5.151-.192,3.653,3.653,0,0,0-.514,4.751,3.693,3.693,0,0,0,.323.4,3.645,3.645,0,0,0,5.669-4.554Z" transform="translate(-909.419 -6911.761)" fill="#371b45"/>
    </g>
    <g id="Group_1170" data-name="Group 1170" transform="translate(22.777 7.584)">
      <circle id="Ellipse_308" data-name="Ellipse 308" cx="2.495" cy="2.495" r="2.495" fill="#3dbbd4"/>
    </g>
    <g id="Group_1172" data-name="Group 1172" transform="translate(22.777 7.584)" opacity="0.3">
      <g id="Group_1171" data-name="Group 1171">
        <path id="Path_1410" data-name="Path 1410" d="M913.173,6915.278a2.5,2.5,0,0,0-.13,3.526,2.455,2.455,0,0,0,.687.522c-.02-.02-.039-.04-.058-.061a2.5,2.5,0,0,1,2.97-3.917A2.5,2.5,0,0,0,913.173,6915.278Z" transform="translate(-912.375 -6914.611)" fill="#fff"/>
      </g>
    </g>
    <g id="Group_1173" data-name="Group 1173" transform="translate(23.473 7.749)" opacity="0.35">
      <path id="Path_1411" data-name="Path 1411" d="M916.31,6914.887c.031.029.061.06.09.092a2.5,2.5,0,0,1-2.862,3.969,2.5,2.5,0,1,0,2.772-4.061Z" transform="translate(-913.538 -6914.887)" fill="#371b45"/>
    </g>
    <g id="Group_1174" data-name="Group 1174" transform="translate(22.501 7.306)">
      <path id="Path_1412" data-name="Path 1412" d="M912.408,6918.5a2.777,2.777,0,0,1,.392-3.614h0a2.773,2.773,0,1,1-.146,3.919A2.826,2.826,0,0,1,912.408,6918.5Zm4.1-2.847a2.416,2.416,0,0,0-.2-.243,2.219,2.219,0,0,0-3.135-.117h0a2.218,2.218,0,1,0,3.331.36Z" transform="translate(-911.914 -6914.148)" fill="#371b45"/>
    </g>
    <g id="Group_1176" data-name="Group 1176" transform="translate(2.375 21.052)">
      <g id="Group_1175" data-name="Group 1175" opacity="0.35">
        <path id="Path_1413" data-name="Path 1413" d="M883.276,6938.98a1.7,1.7,0,0,1,2.371.1,6.866,6.866,0,0,0,3.161,2.017l-.474-.681-2.242-2.6h.019l-.415-.719.244.422a4.226,4.226,0,0,0-3.573,1.148c-2.347,2.178-1.721,5.517-4.066,8.953a11.029,11.029,0,0,1,1.517-.735c1.6-3.048,1.319-5.929,3.419-7.878Z" transform="translate(-878.302 -6937.105)" fill="#371b45"/>
      </g>
    </g>
  </g>
</svg>
