<svg xmlns="http://www.w3.org/2000/svg" xmlns:xlink="http://www.w3.org/1999/xlink" width="88.96" height="92.726" viewBox="0 0 88.96 92.726">
  <defs>
    <clipPath id="clip-path">
      <path id="Path_102" data-name="Path 102" d="M31.667,26.135c-11.237-8.451-20.41-3.422-27.535-8.78S1.261,3.267,1.261,3.267s7.205-6.51,14.331-1.15S20.43,17.683,31.667,26.135Z" fill="none"/>
    </clipPath>
  </defs>
  <g id="Group_117" data-name="Group 117" transform="translate(13.641) rotate(16)">
    <g id="Group_116" data-name="Group 116" transform="translate(0 0)">
      <g id="Group_115" data-name="Group 115">
        <g id="Group_75" data-name="Group 75" transform="translate(57.516 42.864)">
          <g id="Group_71" data-name="Group 71" transform="translate(0.611 0.616)">
            <g id="Group_70" data-name="Group 70" transform="translate(0.109 0.114)">
              <g id="Group_69" data-name="Group 69" transform="translate(0 0)" clip-path="url(#clip-path)">
                <rect id="Rectangle_4" data-name="Rectangle 4" width="8.779" height="37.671" transform="translate(-5.231 9.758) rotate(-45)" fill="#ec1c24"/>
                <rect id="Rectangle_5" data-name="Rectangle 5" width="0.066" height="37.671" transform="translate(0.977 3.55) rotate(-45)" fill="#ec1c24"/>
                <rect id="Rectangle_6" data-name="Rectangle 6" width="0.066" height="37.671" transform="translate(1.023 3.504) rotate(-45)" fill="#ec1c24"/>
                <rect id="Rectangle_7" data-name="Rectangle 7" width="0.066" height="37.671" transform="translate(1.07 3.457) rotate(-45)" fill="#ec1c24"/>
                <rect id="Rectangle_8" data-name="Rectangle 8" width="0.066" height="37.671" transform="translate(1.116 3.411) rotate(-45)" fill="#ec1c24"/>
                <rect id="Rectangle_9" data-name="Rectangle 9" width="0.066" height="37.671" transform="translate(1.163 3.364) rotate(-45)" fill="#ec1c24"/>
                <rect id="Rectangle_10" data-name="Rectangle 10" width="0.066" height="37.671" transform="translate(1.21 3.317) rotate(-45)" fill="#ec1c24"/>
                <rect id="Rectangle_11" data-name="Rectangle 11" width="0.066" height="37.671" transform="translate(1.256 3.271) rotate(-45)" fill="#ec1d24"/>
                <rect id="Rectangle_12" data-name="Rectangle 12" width="0.066" height="37.671" transform="translate(1.303 3.224) rotate(-45)" fill="#ec1d24"/>
                <rect id="Rectangle_13" data-name="Rectangle 13" width="0.066" height="37.671" transform="translate(1.349 3.178) rotate(-45)" fill="#ec1d24"/>
                <rect id="Rectangle_14" data-name="Rectangle 14" width="0.066" height="37.671" transform="translate(1.396 3.131) rotate(-45)" fill="#ec1d24"/>
                <rect id="Rectangle_15" data-name="Rectangle 15" width="0.066" height="37.671" transform="translate(1.443 3.084) rotate(-45)" fill="#ec1d24"/>
                <rect id="Rectangle_16" data-name="Rectangle 16" width="0.066" height="37.671" transform="translate(1.489 3.038) rotate(-45)" fill="#ec1e24"/>
                <rect id="Rectangle_17" data-name="Rectangle 17" width="0.066" height="37.671" transform="translate(1.536 2.991) rotate(-45)" fill="#ec1e24"/>
                <rect id="Rectangle_18" data-name="Rectangle 18" width="0.066" height="37.671" transform="translate(1.582 2.945) rotate(-45)" fill="#ec1e24"/>
                <rect id="Rectangle_19" data-name="Rectangle 19" width="0.066" height="37.671" transform="translate(1.629 2.898) rotate(-45)" fill="#ec1f24"/>
                <rect id="Rectangle_20" data-name="Rectangle 20" width="0.066" height="37.671" transform="translate(1.676 2.851) rotate(-45)" fill="#ec1f24"/>
                <rect id="Rectangle_21" data-name="Rectangle 21" width="0.066" height="37.671" transform="translate(1.722 2.805) rotate(-45)" fill="#ec1f24"/>
                <rect id="Rectangle_22" data-name="Rectangle 22" width="0.066" height="37.671" transform="translate(1.769 2.758) rotate(-45)" fill="#ec2024"/>
                <rect id="Rectangle_23" data-name="Rectangle 23" width="0.066" height="37.671" transform="translate(1.816 2.711) rotate(-45)" fill="#ec2024"/>
                <rect id="Rectangle_24" data-name="Rectangle 24" width="0.066" height="37.671" transform="translate(1.862 2.665) rotate(-45)" fill="#ec2024"/>
                <rect id="Rectangle_25" data-name="Rectangle 25" width="0.066" height="37.671" transform="translate(1.909 2.618) rotate(-45)" fill="#ed2124"/>
                <rect id="Rectangle_26" data-name="Rectangle 26" width="0.066" height="37.671" transform="translate(1.955 2.572) rotate(-45)" fill="#ed2124"/>
                <rect id="Rectangle_27" data-name="Rectangle 27" width="0.066" height="37.671" transform="translate(2.002 2.525) rotate(-45)" fill="#ed2124"/>
                <rect id="Rectangle_28" data-name="Rectangle 28" width="0.066" height="37.671" transform="translate(2.049 2.478) rotate(-45)" fill="#ed2224"/>
                <rect id="Rectangle_29" data-name="Rectangle 29" width="0.066" height="37.671" transform="translate(2.095 2.432) rotate(-45)" fill="#ed2224"/>
                <rect id="Rectangle_30" data-name="Rectangle 30" width="0.066" height="37.671" transform="translate(2.142 2.385) rotate(-45)" fill="#ed2324"/>
                <rect id="Rectangle_31" data-name="Rectangle 31" width="0.066" height="37.671" transform="translate(2.188 2.339) rotate(-45)" fill="#ed2324"/>
                <rect id="Rectangle_32" data-name="Rectangle 32" width="0.066" height="37.671" transform="translate(2.235 2.292) rotate(-45)" fill="#ed2424"/>
                <rect id="Rectangle_33" data-name="Rectangle 33" width="0.066" height="37.671" transform="translate(2.282 2.245) rotate(-45)" fill="#ed2424"/>
                <rect id="Rectangle_34" data-name="Rectangle 34" width="0.066" height="37.671" transform="translate(2.328 2.199) rotate(-45)" fill="#ed2524"/>
                <rect id="Rectangle_35" data-name="Rectangle 35" width="0.066" height="37.671" transform="translate(2.375 2.152) rotate(-45)" fill="#ed2524"/>
                <rect id="Rectangle_36" data-name="Rectangle 36" width="0.066" height="37.671" transform="translate(2.421 2.106) rotate(-45)" fill="#ed2624"/>
                <rect id="Rectangle_37" data-name="Rectangle 37" width="0.066" height="37.671" transform="translate(2.468 2.059) rotate(-45)" fill="#ed2624"/>
                <rect id="Rectangle_38" data-name="Rectangle 38" width="0.066" height="37.671" transform="translate(2.515 2.012) rotate(-45)" fill="#ed2724"/>
                <rect id="Rectangle_39" data-name="Rectangle 39" width="0.066" height="37.671" transform="translate(2.561 1.966) rotate(-45)" fill="#ed2724"/>
                <rect id="Rectangle_40" data-name="Rectangle 40" width="0.066" height="37.671" transform="translate(2.608 1.919) rotate(-45)" fill="#ed2824"/>
                <rect id="Rectangle_41" data-name="Rectangle 41" width="0.066" height="37.671" transform="translate(2.655 1.872) rotate(-45)" fill="#ed2824"/>
                <rect id="Rectangle_42" data-name="Rectangle 42" width="0.066" height="37.671" transform="translate(2.701 1.826) rotate(-45)" fill="#ed2924"/>
                <rect id="Rectangle_43" data-name="Rectangle 43" width="0.066" height="37.671" transform="translate(2.748 1.779) rotate(-45)" fill="#ed2a24"/>
                <rect id="Rectangle_44" data-name="Rectangle 44" width="0.066" height="37.671" transform="translate(2.794 1.733) rotate(-45)" fill="#ee2a24"/>
                <rect id="Rectangle_45" data-name="Rectangle 45" width="0.066" height="37.671" transform="translate(2.841 1.686) rotate(-45)" fill="#ee2b24"/>
                <rect id="Rectangle_46" data-name="Rectangle 46" width="0.066" height="37.671" transform="translate(2.888 1.639) rotate(-45)" fill="#ee2b24"/>
                <rect id="Rectangle_47" data-name="Rectangle 47" width="0.066" height="37.671" transform="translate(2.934 1.593) rotate(-45)" fill="#ee2c24"/>
                <rect id="Rectangle_48" data-name="Rectangle 48" width="0.066" height="37.671" transform="translate(2.981 1.546) rotate(-45)" fill="#ee2d24"/>
                <rect id="Rectangle_49" data-name="Rectangle 49" width="0.066" height="37.671" transform="translate(3.027 1.5) rotate(-45)" fill="#ee2d24"/>
                <rect id="Rectangle_50" data-name="Rectangle 50" width="0.066" height="37.671" transform="translate(3.074 1.453) rotate(-45)" fill="#ee2e24"/>
                <rect id="Rectangle_51" data-name="Rectangle 51" width="0.066" height="37.671" transform="translate(3.121 1.406) rotate(-45)" fill="#ee2f24"/>
                <rect id="Rectangle_52" data-name="Rectangle 52" width="0.066" height="37.671" transform="translate(3.167 1.36) rotate(-45)" fill="#ee2f24"/>
                <rect id="Rectangle_53" data-name="Rectangle 53" width="0.066" height="37.671" transform="translate(3.214 1.313) rotate(-45)" fill="#ee3024"/>
                <rect id="Rectangle_54" data-name="Rectangle 54" width="0.066" height="37.671" transform="translate(3.261 1.266) rotate(-45)" fill="#ee3124"/>
                <rect id="Rectangle_55" data-name="Rectangle 55" width="0.066" height="37.671" transform="translate(3.307 1.22) rotate(-45)" fill="#ee3224"/>
                <rect id="Rectangle_56" data-name="Rectangle 56" width="0.066" height="37.671" transform="translate(3.354 1.173) rotate(-45)" fill="#ee3225"/>
                <rect id="Rectangle_57" data-name="Rectangle 57" width="0.066" height="37.671" transform="translate(3.4 1.127) rotate(-45)" fill="#ef3325"/>
                <rect id="Rectangle_58" data-name="Rectangle 58" width="0.066" height="37.671" transform="translate(3.447 1.08) rotate(-45)" fill="#ef3425"/>
                <rect id="Rectangle_59" data-name="Rectangle 59" width="0.066" height="37.671" transform="translate(3.494 1.033) rotate(-45)" fill="#ef3525"/>
                <rect id="Rectangle_60" data-name="Rectangle 60" width="0.066" height="37.671" transform="translate(3.54 0.987) rotate(-45)" fill="#ef3525"/>
                <rect id="Rectangle_61" data-name="Rectangle 61" width="0.066" height="37.671" transform="translate(3.587 0.94) rotate(-45)" fill="#ef3625"/>
                <rect id="Rectangle_62" data-name="Rectangle 62" width="0.066" height="37.671" transform="translate(3.633 0.894) rotate(-45)" fill="#ef3725"/>
                <rect id="Rectangle_63" data-name="Rectangle 63" width="0.066" height="37.671" transform="translate(3.68 0.847) rotate(-45)" fill="#ef3825"/>
                <rect id="Rectangle_64" data-name="Rectangle 64" width="0.066" height="37.671" transform="translate(3.727 0.8) rotate(-45)" fill="#ef3925"/>
                <rect id="Rectangle_65" data-name="Rectangle 65" width="0.066" height="37.671" transform="translate(3.773 0.754) rotate(-45)" fill="#ef3925"/>
                <rect id="Rectangle_66" data-name="Rectangle 66" width="0.066" height="37.671" transform="translate(3.82 0.707) rotate(-45)" fill="#ef3a25"/>
                <rect id="Rectangle_67" data-name="Rectangle 67" width="0.066" height="37.671" transform="translate(3.867 0.66) rotate(-45)" fill="#ef3b25"/>
                <rect id="Rectangle_68" data-name="Rectangle 68" width="0.066" height="37.671" transform="translate(3.913 0.614) rotate(-45)" fill="#ef3c25"/>
                <rect id="Rectangle_69" data-name="Rectangle 69" width="0.066" height="37.671" transform="translate(3.96 0.567) rotate(-45)" fill="#f03d25"/>
                <rect id="Rectangle_70" data-name="Rectangle 70" width="0.066" height="37.671" transform="translate(4.006 0.521) rotate(-45)" fill="#f03e25"/>
                <rect id="Rectangle_71" data-name="Rectangle 71" width="0.066" height="37.671" transform="translate(4.053 0.474) rotate(-45)" fill="#f03e25"/>
                <rect id="Rectangle_72" data-name="Rectangle 72" width="0.066" height="37.671" transform="translate(4.1 0.427) rotate(-45)" fill="#f03f25"/>
                <rect id="Rectangle_73" data-name="Rectangle 73" width="0.066" height="37.671" transform="translate(4.146 0.381) rotate(-45)" fill="#f04025"/>
                <rect id="Rectangle_74" data-name="Rectangle 74" width="0.066" height="37.671" transform="translate(4.193 0.334) rotate(-45)" fill="#f04125"/>
                <rect id="Rectangle_75" data-name="Rectangle 75" width="0.066" height="37.671" transform="translate(4.239 0.288) rotate(-45)" fill="#f04225"/>
                <rect id="Rectangle_76" data-name="Rectangle 76" width="0.066" height="37.671" transform="translate(4.286 0.241) rotate(-45)" fill="#f04325"/>
                <rect id="Rectangle_77" data-name="Rectangle 77" width="0.066" height="37.671" transform="translate(4.333 0.194) rotate(-45)" fill="#f04425"/>
                <rect id="Rectangle_78" data-name="Rectangle 78" width="0.066" height="37.671" transform="translate(4.379 0.148) rotate(-45)" fill="#f04525"/>
                <rect id="Rectangle_79" data-name="Rectangle 79" width="0.066" height="37.671" transform="translate(4.426 0.101) rotate(-45)" fill="#f14625"/>
                <rect id="Rectangle_80" data-name="Rectangle 80" width="0.066" height="37.671" transform="translate(4.472 0.055) rotate(-45)" fill="#f14725"/>
                <rect id="Rectangle_81" data-name="Rectangle 81" width="0.066" height="37.671" transform="translate(4.519 0.008) rotate(-45)" fill="#f14825"/>
                <rect id="Rectangle_82" data-name="Rectangle 82" width="0.066" height="37.671" transform="translate(4.566 -0.039) rotate(-45)" fill="#f14925"/>
                <rect id="Rectangle_83" data-name="Rectangle 83" width="0.066" height="37.671" transform="translate(4.612 -0.085) rotate(-45)" fill="#f14a25"/>
                <rect id="Rectangle_84" data-name="Rectangle 84" width="0.066" height="37.671" transform="translate(4.659 -0.132) rotate(-45)" fill="#f14b25"/>
                <rect id="Rectangle_85" data-name="Rectangle 85" width="0.066" height="37.671" transform="translate(4.706 -0.179) rotate(-45)" fill="#f14c25"/>
                <rect id="Rectangle_86" data-name="Rectangle 86" width="0.066" height="37.671" transform="translate(4.752 -0.225) rotate(-45)" fill="#f14d25"/>
                <rect id="Rectangle_87" data-name="Rectangle 87" width="0.066" height="37.671" transform="translate(4.799 -0.272) rotate(-45)" fill="#f14e25"/>
                <rect id="Rectangle_88" data-name="Rectangle 88" width="0.066" height="37.671" transform="translate(4.845 -0.318) rotate(-45)" fill="#f24f25"/>
                <rect id="Rectangle_89" data-name="Rectangle 89" width="0.066" height="37.671" transform="translate(4.892 -0.365) rotate(-45)" fill="#f25025"/>
                <rect id="Rectangle_90" data-name="Rectangle 90" width="0.066" height="37.671" transform="translate(4.939 -0.412) rotate(-45)" fill="#f25125"/>
                <rect id="Rectangle_91" data-name="Rectangle 91" width="0.066" height="37.671" transform="translate(4.985 -0.458) rotate(-45)" fill="#f25225"/>
                <rect id="Rectangle_92" data-name="Rectangle 92" width="0.066" height="37.671" transform="translate(5.032 -0.505) rotate(-45)" fill="#f25325"/>
                <rect id="Rectangle_93" data-name="Rectangle 93" width="0.066" height="37.671" transform="translate(5.078 -0.551) rotate(-45)" fill="#f25425"/>
                <rect id="Rectangle_94" data-name="Rectangle 94" width="0.066" height="37.671" transform="translate(5.125 -0.598) rotate(-45)" fill="#f25525"/>
                <rect id="Rectangle_95" data-name="Rectangle 95" width="0.066" height="37.671" transform="translate(5.172 -0.645) rotate(-45)" fill="#f25625"/>
                <rect id="Rectangle_96" data-name="Rectangle 96" width="0.066" height="37.671" transform="translate(5.218 -0.691) rotate(-45)" fill="#f25725"/>
                <rect id="Rectangle_97" data-name="Rectangle 97" width="0.066" height="37.671" transform="translate(5.265 -0.738) rotate(-45)" fill="#f35825"/>
                <rect id="Rectangle_98" data-name="Rectangle 98" width="0.066" height="37.671" transform="translate(5.312 -0.785) rotate(-45)" fill="#f35925"/>
                <rect id="Rectangle_99" data-name="Rectangle 99" width="0.066" height="37.671" transform="translate(5.358 -0.831) rotate(-45)" fill="#f35a25"/>
                <rect id="Rectangle_100" data-name="Rectangle 100" width="0.066" height="37.671" transform="translate(5.405 -0.878) rotate(-45)" fill="#f35c25"/>
                <rect id="Rectangle_101" data-name="Rectangle 101" width="0.066" height="37.671" transform="translate(5.451 -0.924) rotate(-45)" fill="#f35d25"/>
                <rect id="Rectangle_102" data-name="Rectangle 102" width="0.066" height="37.671" transform="translate(5.498 -0.971) rotate(-45)" fill="#f35e26"/>
                <rect id="Rectangle_103" data-name="Rectangle 103" width="0.066" height="37.671" transform="translate(5.545 -1.018) rotate(-45)" fill="#f35f26"/>
                <rect id="Rectangle_104" data-name="Rectangle 104" width="0.066" height="37.671" transform="translate(5.591 -1.064) rotate(-45)" fill="#f36026"/>
                <rect id="Rectangle_105" data-name="Rectangle 105" width="0.066" height="37.671" transform="translate(5.638 -1.111) rotate(-45)" fill="#f46126"/>
                <rect id="Rectangle_106" data-name="Rectangle 106" width="0.066" height="37.671" transform="translate(5.684 -1.157) rotate(-45)" fill="#f46226"/>
                <rect id="Rectangle_107" data-name="Rectangle 107" width="0.066" height="37.671" transform="translate(5.731 -1.204) rotate(-45)" fill="#f46426"/>
                <rect id="Rectangle_108" data-name="Rectangle 108" width="0.066" height="37.671" transform="translate(5.778 -1.251) rotate(-45)" fill="#f46526"/>
                <rect id="Rectangle_109" data-name="Rectangle 109" width="0.066" height="37.671" transform="translate(5.824 -1.297) rotate(-45)" fill="#f46626"/>
                <rect id="Rectangle_110" data-name="Rectangle 110" width="0.066" height="37.671" transform="translate(5.871 -1.344) rotate(-45)" fill="#f46726"/>
                <rect id="Rectangle_111" data-name="Rectangle 111" width="0.066" height="37.671" transform="translate(5.917 -1.39) rotate(-45)" fill="#f46826"/>
                <rect id="Rectangle_112" data-name="Rectangle 112" width="0.066" height="37.671" transform="translate(5.964 -1.437) rotate(-45)" fill="#f46a26"/>
                <rect id="Rectangle_113" data-name="Rectangle 113" width="0.066" height="37.671" transform="translate(6.011 -1.484) rotate(-45)" fill="#f56b26"/>
                <rect id="Rectangle_114" data-name="Rectangle 114" width="0.066" height="37.671" transform="translate(6.057 -1.53) rotate(-45)" fill="#f56c26"/>
                <rect id="Rectangle_115" data-name="Rectangle 115" width="0.066" height="37.671" transform="translate(6.104 -1.577) rotate(-45)" fill="#f56d26"/>
                <rect id="Rectangle_116" data-name="Rectangle 116" width="0.066" height="37.671" transform="translate(6.151 -1.624) rotate(-45)" fill="#f56f26"/>
                <rect id="Rectangle_117" data-name="Rectangle 117" width="0.066" height="37.671" transform="translate(6.197 -1.67) rotate(-45)" fill="#f57026"/>
                <rect id="Rectangle_118" data-name="Rectangle 118" width="0.066" height="37.671" transform="translate(6.244 -1.717) rotate(-45)" fill="#f57126"/>
                <rect id="Rectangle_119" data-name="Rectangle 119" width="0.066" height="37.671" transform="translate(6.29 -1.763) rotate(-45)" fill="#f57226"/>
                <rect id="Rectangle_120" data-name="Rectangle 120" width="0.066" height="37.671" transform="translate(6.337 -1.81) rotate(-45)" fill="#f67426"/>
                <rect id="Rectangle_121" data-name="Rectangle 121" width="0.066" height="37.671" transform="translate(6.384 -1.857) rotate(-45)" fill="#f67526"/>
                <rect id="Rectangle_122" data-name="Rectangle 122" width="0.066" height="37.671" transform="translate(6.43 -1.903) rotate(-45)" fill="#f67626"/>
                <rect id="Rectangle_123" data-name="Rectangle 123" width="0.066" height="37.671" transform="translate(6.477 -1.95) rotate(-45)" fill="#f67726"/>
                <rect id="Rectangle_124" data-name="Rectangle 124" width="0.066" height="37.671" transform="translate(6.523 -1.996) rotate(-45)" fill="#f67926"/>
                <rect id="Rectangle_125" data-name="Rectangle 125" width="0.066" height="37.671" transform="translate(6.57 -2.043) rotate(-45)" fill="#f67a26"/>
                <rect id="Rectangle_126" data-name="Rectangle 126" width="0.066" height="37.671" transform="translate(6.617 -2.09) rotate(-45)" fill="#f67b26"/>
                <rect id="Rectangle_127" data-name="Rectangle 127" width="0.066" height="37.671" transform="translate(6.663 -2.136) rotate(-45)" fill="#f77d26"/>
                <rect id="Rectangle_128" data-name="Rectangle 128" width="0.066" height="37.671" transform="translate(6.71 -2.183) rotate(-45)" fill="#f77e26"/>
                <rect id="Rectangle_129" data-name="Rectangle 129" width="0.066" height="37.671" transform="translate(6.756 -2.23) rotate(-45)" fill="#f77f26"/>
                <rect id="Rectangle_130" data-name="Rectangle 130" width="0.066" height="37.671" transform="translate(6.803 -2.276) rotate(-45)" fill="#f78126"/>
                <rect id="Rectangle_131" data-name="Rectangle 131" width="0.066" height="37.671" transform="translate(6.85 -2.323) rotate(-45)" fill="#f78226"/>
                <rect id="Rectangle_132" data-name="Rectangle 132" width="0.066" height="37.671" transform="translate(6.896 -2.369) rotate(-45)" fill="#f78426"/>
                <rect id="Rectangle_133" data-name="Rectangle 133" width="0.066" height="37.671" transform="translate(6.943 -2.416) rotate(-45)" fill="#f78526"/>
                <rect id="Rectangle_134" data-name="Rectangle 134" width="0.066" height="37.671" transform="translate(6.99 -2.463) rotate(-45)" fill="#f88626"/>
                <rect id="Rectangle_135" data-name="Rectangle 135" width="0.066" height="37.671" transform="translate(7.036 -2.509) rotate(-45)" fill="#f88826"/>
                <rect id="Rectangle_136" data-name="Rectangle 136" width="0.066" height="37.671" transform="translate(7.083 -2.556) rotate(-45)" fill="#f88927"/>
                <rect id="Rectangle_137" data-name="Rectangle 137" width="0.066" height="37.671" transform="translate(7.129 -2.602) rotate(-45)" fill="#f88a27"/>
                <rect id="Rectangle_138" data-name="Rectangle 138" width="0.066" height="37.671" transform="translate(7.176 -2.649) rotate(-45)" fill="#f88c27"/>
                <rect id="Rectangle_139" data-name="Rectangle 139" width="0.066" height="37.671" transform="translate(7.223 -2.696) rotate(-45)" fill="#f88d27"/>
                <rect id="Rectangle_140" data-name="Rectangle 140" width="0.066" height="37.671" transform="translate(7.269 -2.742) rotate(-45)" fill="#f98f27"/>
                <rect id="Rectangle_141" data-name="Rectangle 141" width="0.066" height="37.671" transform="translate(7.316 -2.789) rotate(-45)" fill="#f99027"/>
                <rect id="Rectangle_142" data-name="Rectangle 142" width="0.066" height="37.671" transform="translate(7.362 -2.835) rotate(-45)" fill="#f99227"/>
                <rect id="Rectangle_143" data-name="Rectangle 143" width="0.066" height="37.671" transform="translate(7.409 -2.882) rotate(-45)" fill="#f99327"/>
                <rect id="Rectangle_144" data-name="Rectangle 144" width="0.066" height="37.671" transform="translate(7.456 -2.929) rotate(-45)" fill="#f99427"/>
                <rect id="Rectangle_145" data-name="Rectangle 145" width="0.066" height="37.671" transform="translate(7.502 -2.975) rotate(-45)" fill="#f99627"/>
                <rect id="Rectangle_146" data-name="Rectangle 146" width="0.066" height="37.671" transform="translate(7.549 -3.022) rotate(-45)" fill="#f99727"/>
                <rect id="Rectangle_147" data-name="Rectangle 147" width="0.066" height="37.671" transform="translate(7.596 -3.069) rotate(-45)" fill="#fa9927"/>
                <rect id="Rectangle_148" data-name="Rectangle 148" width="0.066" height="37.671" transform="translate(7.642 -3.115) rotate(-45)" fill="#fa9a27"/>
                <rect id="Rectangle_149" data-name="Rectangle 149" width="0.066" height="37.671" transform="translate(7.689 -3.162) rotate(-45)" fill="#fa9c27"/>
                <rect id="Rectangle_150" data-name="Rectangle 150" width="0.066" height="37.671" transform="translate(7.735 -3.208) rotate(-45)" fill="#fa9d27"/>
                <rect id="Rectangle_151" data-name="Rectangle 151" width="0.066" height="37.671" transform="translate(7.782 -3.255) rotate(-45)" fill="#fa9f27"/>
                <rect id="Rectangle_152" data-name="Rectangle 152" width="0.066" height="37.671" transform="translate(7.829 -3.302) rotate(-45)" fill="#faa027"/>
                <rect id="Rectangle_153" data-name="Rectangle 153" width="0.066" height="37.671" transform="translate(7.875 -3.348) rotate(-45)" fill="#fba227"/>
                <rect id="Rectangle_154" data-name="Rectangle 154" width="0.066" height="37.671" transform="translate(7.922 -3.395) rotate(-45)" fill="#fba327"/>
                <rect id="Rectangle_155" data-name="Rectangle 155" width="0.066" height="37.671" transform="translate(7.968 -3.441) rotate(-45)" fill="#fba527"/>
                <rect id="Rectangle_156" data-name="Rectangle 156" width="0.066" height="37.671" transform="translate(8.015 -3.488) rotate(-45)" fill="#fba627"/>
                <rect id="Rectangle_157" data-name="Rectangle 157" width="0.066" height="37.671" transform="translate(8.062 -3.535) rotate(-45)" fill="#fba827"/>
                <rect id="Rectangle_158" data-name="Rectangle 158" width="0.066" height="37.671" transform="translate(8.108 -3.581) rotate(-45)" fill="#fbaa27"/>
                <rect id="Rectangle_159" data-name="Rectangle 159" width="0.066" height="37.671" transform="translate(8.155 -3.628) rotate(-45)" fill="#fcab27"/>
                <rect id="Rectangle_160" data-name="Rectangle 160" width="0.066" height="37.671" transform="translate(8.202 -3.675) rotate(-45)" fill="#fcad27"/>
                <rect id="Rectangle_161" data-name="Rectangle 161" width="0.066" height="37.671" transform="translate(8.248 -3.721) rotate(-45)" fill="#fcae27"/>
                <rect id="Rectangle_162" data-name="Rectangle 162" width="0.066" height="37.671" transform="translate(8.295 -3.768) rotate(-45)" fill="#fcb027"/>
                <rect id="Rectangle_163" data-name="Rectangle 163" width="0.066" height="37.671" transform="translate(8.341 -3.814) rotate(-45)" fill="#fcb127"/>
                <rect id="Rectangle_164" data-name="Rectangle 164" width="0.066" height="37.671" transform="translate(8.388 -3.861) rotate(-45)" fill="#fcb327"/>
                <rect id="Rectangle_165" data-name="Rectangle 165" width="0.066" height="37.671" transform="translate(8.435 -3.908) rotate(-45)" fill="#fdb528"/>
                <rect id="Rectangle_166" data-name="Rectangle 166" width="0.066" height="37.671" transform="translate(8.481 -3.954) rotate(-45)" fill="#fdb628"/>
                <rect id="Rectangle_167" data-name="Rectangle 167" width="0.066" height="37.671" transform="translate(8.528 -4.001) rotate(-45)" fill="#fdb828"/>
                <rect id="Rectangle_168" data-name="Rectangle 168" width="0.066" height="37.671" transform="translate(8.574 -4.047) rotate(-45)" fill="#fdb928"/>
                <rect id="Rectangle_169" data-name="Rectangle 169" width="0.066" height="37.671" transform="translate(8.621 -4.094) rotate(-45)" fill="#fdbb28"/>
                <rect id="Rectangle_170" data-name="Rectangle 170" width="0.066" height="37.671" transform="translate(8.668 -4.141) rotate(-45)" fill="#febd28"/>
                <rect id="Rectangle_171" data-name="Rectangle 171" width="0.066" height="37.671" transform="translate(8.714 -4.187) rotate(-45)" fill="#febe28"/>
                <rect id="Rectangle_172" data-name="Rectangle 172" width="0.066" height="37.671" transform="translate(8.761 -4.234) rotate(-45)" fill="#fec028"/>
                <rect id="Rectangle_173" data-name="Rectangle 173" width="0.066" height="37.671" transform="translate(8.807 -4.28) rotate(-45)" fill="#fec228"/>
                <rect id="Rectangle_174" data-name="Rectangle 174" width="0.066" height="37.671" transform="translate(8.854 -4.327) rotate(-45)" fill="#fec328"/>
                <rect id="Rectangle_175" data-name="Rectangle 175" width="0.066" height="37.671" transform="translate(8.901 -4.374) rotate(-45)" fill="#fec528"/>
                <rect id="Rectangle_176" data-name="Rectangle 176" width="0.066" height="37.671" transform="translate(8.947 -4.42) rotate(-45)" fill="#ffc728"/>
                <rect id="Rectangle_177" data-name="Rectangle 177" width="0.066" height="37.671" transform="translate(8.994 -4.467) rotate(-45)" fill="#ffc828"/>
                <rect id="Rectangle_178" data-name="Rectangle 178" width="0.066" height="37.671" transform="translate(9.041 -4.514) rotate(-45)" fill="#ffca28"/>
                <rect id="Rectangle_179" data-name="Rectangle 179" width="1.128" height="37.671" transform="translate(9.087 -4.56) rotate(-45)" fill="#ffca28"/>
              </g>
            </g>
            <path id="Path_103" data-name="Path 103" d="M31.867,26.34a.128.128,0,0,1-.168.012c-6.226-4.683-11.835-5.21-16.785-5.674-4.058-.381-7.562-.71-10.75-3.107C-2.965,12.21,1.211,3.412,1.255,3.324a.115.115,0,0,1,.03-.039c.073-.066,7.366-6.518,14.494-1.158,3.188,2.4,4.476,5.674,5.968,9.466,1.819,4.626,3.881,9.869,10.107,14.553a.085.085,0,0,1,.014.012.128.128,0,0,1,.012.168ZM1.474,3.459c-.23.5-3.939,8.806,2.843,13.906,3.13,2.354,6.6,2.68,10.62,3.057,4.371.41,9.254.868,14.629,4.165-4.659-4.25-6.454-8.814-8.06-12.9-1.477-3.757-2.753-7-5.883-9.355C8.842-2.768,1.886,3.1,1.474,3.459Z" transform="translate(0 0)" fill="#371a45"/>
          </g>
          <g id="Group_72" data-name="Group 72" transform="translate(2.152 0.546)" opacity="0.6">
            <path id="Path_104" data-name="Path 104" d="M14.343,2.116C7.217-3.243.012,3.267.012,3.267L0,3.292C2.461,1.7,7.688-.685,12.876,3.217c5.847,4.4,5.358,12.058,11.2,19.334a26.749,26.749,0,0,1,6.343,3.584C19.181,17.684,21.469,7.476,14.343,2.116Z" transform="translate(0 0)" fill="#fff"/>
          </g>
          <g id="Group_73" data-name="Group 73" transform="translate(2.209 2.283)">
            <path id="Path_105" data-name="Path 105" d="M18.9,16.037c-6.542-4.92-12.633-.994-16.781-4.115s-.921-9.2-.921-9.2S6.142-2.064,10.29,1.056,12.356,11.117,18.9,16.037Z" transform="translate(0 0)" fill="#ffd553"/>
          </g>
          <g id="Group_74" data-name="Group 74" transform="translate(0 0)">
            <path id="Path_106" data-name="Path 106" d="M32.911,27.39a.742.742,0,0,1-.97.067c-6.088-4.579-11.606-5.1-16.474-5.553-3.978-.373-7.735-.726-11.062-3.228C-3.122,13.014,1.268,3.764,1.314,3.671a.718.718,0,0,1,.169-.225c.077-.07,7.746-6.855,15.274-1.193,3.327,2.5,4.708,6.014,6.17,9.732,1.789,4.55,3.817,9.708,9.905,14.287a.688.688,0,0,1,.079.068.742.742,0,0,1,.068.97A.8.8,0,0,1,32.911,27.39ZM2.586,4.452c-.5,1.1-3.455,8.4,2.711,13.039,2.991,2.25,6.383,2.567,10.309,2.936a35.586,35.586,0,0,1,11.561,2.511,35.608,35.608,0,0,1-5.619-10.411c-1.443-3.67-2.69-6.839-5.681-9.09C9.7-1.2,3.511,3.667,2.586,4.452Z" fill="#371a45"/>
          </g>
        </g>
        <g id="Group_76" data-name="Group 76" transform="translate(50.93 36.849)">
          <path id="Path_107" data-name="Path 107" d="M0,15.784,2.93,17.1a3.951,3.951,0,0,0,4.026-.467h0A23.724,23.724,0,0,0,14.619,6.447h0a3.952,3.952,0,0,0-.668-4L11.871,0Z" transform="translate(0 0)" fill="#00abfc"/>
        </g>
        <g id="Group_78" data-name="Group 78" transform="translate(52.397 37.076)">
          <g id="Group_77" data-name="Group 77" opacity="0.35">
            <path id="Path_108" data-name="Path 108" d="M0,14.09l2.931,1.319a3.951,3.951,0,0,0,4.026-.467c.556-.426,1.09-.879,1.6-1.35q-.671.733-1.4,1.409a23.715,23.715,0,0,0,5.995-8.78h0a3.952,3.952,0,0,0-.668-4L10.6,0Z" fill="#371a45"/>
          </g>
        </g>
        <g id="Group_79" data-name="Group 79" transform="translate(59.554 37.399)">
          <path id="Path_109" data-name="Path 109" d="M0,14.706A23.709,23.709,0,0,0,3.175,9.569Q3.434,9,3.664,8.41a3.965,3.965,0,0,0,.22-2.091A3.957,3.957,0,0,0,3,4.413L1.078,2.154,2.7,0,4.776,2.45a3.948,3.948,0,0,1,.669,4q-.229.586-.488,1.157A23.738,23.738,0,0,1,0,14.706Z" fill="#00abfc"/>
        </g>
        <g id="Group_82" data-name="Group 82" transform="translate(59.554 37.399)" opacity="0.6">
          <g id="Group_80" data-name="Group 80" transform="translate(0 10.754)">
            <path id="Path_110" data-name="Path 110" d="M2.595,0A23.716,23.716,0,0,1,0,3.952q.4-.39.772-.8A23.653,23.653,0,0,0,2.595,0Z" transform="translate(0 0)" fill="#fff"/>
          </g>
          <g id="Group_81" data-name="Group 81" transform="translate(1.078 0)">
            <path id="Path_111" data-name="Path 111" d="M0,2.154l.1.115L1.253.734l2.079,2.45A3.941,3.941,0,0,1,4.217,5.09,3.947,3.947,0,0,1,4,7.18q-.229.586-.488,1.157c-.074.164-.155.323-.233.485.21-.4.413-.806.6-1.218.172-.38.335-.766.488-1.157a3.947,3.947,0,0,0-.669-4L1.619,0Z" transform="translate(0 0)" fill="#fff"/>
          </g>
        </g>
        <g id="Group_83" data-name="Group 83" transform="translate(56.387 30.328)">
          <path id="Path_112" data-name="Path 112" d="M15.372,6.272c-1.623-.15-9.243-.914-11.618,2.5L0,2.135a6.006,6.006,0,0,1,.458-.449h0c2.4-2.109,7.795-3.577,14.893,4.138L15.51,6A.165.165,0,0,1,15.372,6.272Z" transform="translate(0 0)" fill="#ed1b24"/>
        </g>
        <g id="Group_84" data-name="Group 84" transform="translate(56.387 32.014)" opacity="0.3">
          <path id="Path_113" data-name="Path 113" d="M15.372,4.585c-1.623-.15-9.243-.914-11.618,2.5L0,.449A6.018,6.018,0,0,1,.458,0L.213.184A4.279,4.279,0,0,1,2.146,1.1c2.128,1.935,3.371,2.78,5.371,2.415a16.687,16.687,0,0,1,7.834.62l.159.174A.165.165,0,0,1,15.372,4.585Z" transform="translate(0 0)" fill="#293856"/>
        </g>
        <g id="Group_85" data-name="Group 85" transform="translate(56.387 30.327)" opacity="0.6">
          <path id="Path_114" data-name="Path 114" d="M14.817,6.222c.41.027.234.021.556.05A.165.165,0,0,0,15.51,6C7.835-2.463,2.123-.188,0,2.136l.407.719C2.824,1.043,8.628.171,14.817,6.222Z" transform="translate(0 0)" fill="#fff"/>
        </g>
        <g id="Group_86" data-name="Group 86" transform="translate(55.609 29.549)">
          <path id="Path_115" data-name="Path 115" d="M16.83,7.555a.936.936,0,0,1-.751.269L16,7.818C8.388,7.11,5.947,8.881,5.171,10a.778.778,0,1,1-1.278-.887C5.476,6.832,9.08,5.84,14.618,6.153c-3.034-3.009-6.039-4.592-8.75-4.6A6.045,6.045,0,0,0,1.352,3.438.778.778,0,1,1,.2,2.389,7.6,7.6,0,0,1,5.871,0c3.537.006,7.236,2.11,10.993,6.252a.937.937,0,0,1,.145,1.054A.95.95,0,0,1,16.83,7.555Z" transform="translate(0 0)" fill="#371a45"/>
        </g>
        <g id="Group_87" data-name="Group 87" transform="translate(43.599 48.188)">
          <path id="Path_116" data-name="Path 116" d="M.961,0C-.682,2.685-1.389,8.943,8.868,13.97a.165.165,0,0,0,.227-.208c-.595-1.518-3.33-8.777-.7-12.006" transform="translate(0 0)" fill="#ed1b24"/>
        </g>
        <g id="Group_88" data-name="Group 88" transform="translate(43.621 48.188)" opacity="0.35">
          <path id="Path_117" data-name="Path 117" d="M7.482,8.223c-.4-2.34-.394-4.854.859-6.432l-.017-.045L.94,0A6.774,6.774,0,0,0,0,3C1.337,4.96,3.661,6.851,7.482,8.223Z" fill="#371a45"/>
        </g>
        <g id="Group_89" data-name="Group 89" transform="translate(42.817 47.41)">
          <path id="Path_118" data-name="Path 118" d="M10.391,15.265l-.029.028a.938.938,0,0,1-1.054.153c-4.959-2.43-7.977-5.391-8.968-8.8A7.811,7.811,0,0,1,1.08.372a.778.778,0,0,1,1.328.812,6.336,6.336,0,0,0-.573,5.027c.76,2.615,3.089,5.055,6.771,7.112C7.523,10.118,6.284,4.853,8.569,2.043a.778.778,0,0,1,1.207.982c-2.238,2.753.066,9.293.825,11.232A.936.936,0,0,1,10.391,15.265Zm-.4-1.216,0,0Z" transform="translate(0 0)" fill="#371a45"/>
        </g>
        <g id="Group_90" data-name="Group 90" transform="translate(0.904 0.913)">
          <path id="Path_119" data-name="Path 119" d="M60.549,39.543A28.415,28.415,0,0,1,50.025,51.719S35.14,52.6,18.035,37.79C-2.046,20.4.064,1.786.064,1.786S14.783-4.33,34.545,6.072q2.5,1.312,5.094,2.993A63.148,63.148,0,0,1,53.014,20.535c7.3,8.4,8.884,15.4,8.884,15.4A28.652,28.652,0,0,1,60.549,39.543Z" transform="translate(0 0)" fill="#fff"/>
        </g>
        <g id="Group_91" data-name="Group 91" transform="translate(5.464 3.74)" opacity="0.35">
          <path id="Path_120" data-name="Path 120" d="M49.492,36.976l-.052.058a13.6,13.6,0,0,1-13.064,4.207C30.414,39.935,21.24,36.25,11.834,27.366c-2.567-2.424-3.852-7.655-2.589-11.794C11.922,6.808,18.978,1.087,17.708.094,15.747-1.439,1.035,16.383,0,14.691A54.186,54.186,0,0,0,14.574,33.862C31.68,48.672,46.566,47.794,46.566,47.794a28.364,28.364,0,0,0,4.18-3.283,28.379,28.379,0,0,0,6.591-11.4,27.475,27.475,0,0,0-2.266-5.7A28.442,28.442,0,0,1,49.492,36.976Z" transform="translate(0 0)" fill="#371a45"/>
        </g>
        <g id="Group_92" data-name="Group 92" transform="translate(0.903 0.913)">
          <path id="Path_121" data-name="Path 121" d="M6.663,24.677a68.578,68.578,0,0,1,17.224-22.9C9.719-2.226.063,1.787.063,1.787S-1.112,12.175,6.663,24.677Z" transform="translate(0 0)" fill="#ed1b24"/>
        </g>
        <g id="Group_93" data-name="Group 93" transform="translate(0.903 0.913)" opacity="0.6">
          <path id="Path_122" data-name="Path 122" d="M.063,1.787A25.067,25.067,0,0,0,.236,7.061,21.082,21.082,0,0,1,.247,3.8s8.81-3.655,21.944-.5c.557-.518,1.121-1.03,1.7-1.531C9.719-2.226.063,1.787.063,1.787Z" transform="translate(0 0)" fill="#fff"/>
        </g>
        <g id="Group_95" data-name="Group 95" transform="translate(2.251 2.479)">
          <g id="Group_94" data-name="Group 94" opacity="0.35">
            <path id="Path_123" data-name="Path 123" d="M21.766,0C16.077,4.036,12,7.176,8.343,11.938a3.244,3.244,0,0,1-5.557-.671A48.959,48.959,0,0,1,0,2.743,42.222,42.222,0,0,0,6.13,21.418,68.548,68.548,0,0,1,22.539.211C22.281.137,22.022.066,21.766,0Z" fill="#371a45"/>
          </g>
        </g>
        <g id="Group_96" data-name="Group 96">
          <path id="Path_124" data-name="Path 124" d="M8.208,26.232A.909.909,0,0,1,6.8,26.069C1.074,16.872.083,8.812,0,4.826a3.683,3.683,0,0,1,2.74-3.643c3.852-1.028,11.871-2.312,22.3.633a.908.908,0,0,1,.349,1.559,67.226,67.226,0,0,0-17,22.6A.9.9,0,0,1,8.208,26.232ZM2.364,3.423a1.875,1.875,0,0,0-.548,1.366A40,40,0,0,0,7.477,23.674,68.954,68.954,0,0,1,22.924,3.135a40,40,0,0,0-19.715-.2A1.88,1.88,0,0,0,2.364,3.423Z" fill="#371a45"/>
        </g>
        <g id="Group_97" data-name="Group 97" transform="translate(6.657 1.781)">
          <path id="Path_125" data-name="Path 125" d="M49.645,47.685a29.293,29.293,0,0,1-4.881,3.93.9.9,0,0,1-.437.142,33.033,33.033,0,0,1-9.879-1.443A59.5,59.5,0,0,1,11.688,37.609,58.844,58.844,0,0,1,.137,24.289a.908.908,0,0,1-.042-.883A69.033,69.033,0,0,1,17.537.223a.907.907,0,0,1,.842-.188,58.871,58.871,0,0,1,16,7.4A59.506,59.506,0,0,1,52.9,25.778a33.066,33.066,0,0,1,4.127,9.09.907.907,0,0,1-.015.46,29.369,29.369,0,0,1-7.369,12.357Zm-5.652,2.267A27.516,27.516,0,0,0,55.2,35.048a33.731,33.731,0,0,0-3.9-8.4A57.768,57.768,0,0,0,33.391,8.959,57.31,57.31,0,0,0,18.358,1.917,67.17,67.17,0,0,0,1.94,23.747a57.316,57.316,0,0,0,10.936,12.49,57.742,57.742,0,0,0,21.966,12.3A33.725,33.725,0,0,0,43.993,49.952Z" transform="translate(0 0)" fill="#371a45"/>
        </g>
        <g id="Group_98" data-name="Group 98" transform="translate(50.022 35.941)">
          <path id="Path_126" data-name="Path 126" d="M10.85,16.131a24.611,24.611,0,0,1-2.434,2.133,4.853,4.853,0,0,1-4.951.575L.536,17.52a.908.908,0,1,1,.745-1.655l2.93,1.319a3.042,3.042,0,0,0,3.1-.36,22.816,22.816,0,0,0,7.369-9.8,3.04,3.04,0,0,0-.514-3.079L12.087,1.5A.908.908,0,0,1,13.471.32l2.08,2.45a4.854,4.854,0,0,1,.821,4.915A24.622,24.622,0,0,1,10.85,16.131Z" transform="translate(0 0)" fill="#371a45"/>
        </g>
        <g id="Group_99" data-name="Group 99" transform="translate(50.464 40.255)">
          <path id="Path_127" data-name="Path 127" d="M3.682,6.734c3.132,2.354,8.079,2.195,8.079,2.195s0-.019-.014-.051c-.141-.523-1.395-4.889-4.334-7.1C4.592-.348.79-.012.107.069L0,.083S.571,4.4,3.682,6.734Z" transform="translate(0 0)" fill="#ed1b24"/>
        </g>
        <g id="Group_100" data-name="Group 100" transform="translate(50.097 40.621)" opacity="0.6">
          <path id="Path_128" data-name="Path 128" d="M11.761,8.928s-.21.007-.57,0A14.933,14.933,0,0,0,6.814,2.61,11.665,11.665,0,0,0,.084.551C.023.256,0,.083,0,.083L.107.069C.79-.013,4.593-.348,7.413,1.775c2.939,2.213,4.193,6.58,4.335,7.1C11.756,8.91,11.761,8.928,11.761,8.928Z" transform="translate(0 0)" fill="#fff"/>
        </g>
        <g id="Group_101" data-name="Group 101" transform="translate(50.464 40.323)" opacity="0.3">
          <path id="Path_129" data-name="Path 129" d="M3.682,6.665c3.132,2.355,8.079,2.2,8.079,2.2s0-.019-.014-.051L.107,0,0,.014S.571,4.328,3.682,6.665Z" transform="translate(0 0)" fill="#6b184e"/>
        </g>
        <g id="Group_102" data-name="Group 102" transform="translate(49.686 39.475)">
          <path id="Path_130" data-name="Path 130" d="M13.089,10.259a.777.777,0,0,1-.525.227c-.213.007-5.259.14-8.572-2.35C.659,5.63.032,1.154.007.965A.778.778,0,0,1,.662.093c.189-.028,4.663-.668,8,1.84,3.311,2.491,4.583,7.377,4.635,7.584a.778.778,0,0,1-.132.659A.79.79,0,0,1,13.089,10.259ZM1.717,1.567A9.708,9.708,0,0,0,4.928,6.892,12.77,12.77,0,0,0,11.469,8.9,12.777,12.777,0,0,0,7.722,3.177,9.672,9.672,0,0,0,1.717,1.567Z" transform="translate(0 0)" fill="#371a45"/>
        </g>
        <g id="Group_103" data-name="Group 103" transform="translate(16.289 13.059)" opacity="0.35">
          <circle id="Ellipse_46" data-name="Ellipse 46" cx="10.197" cy="10.197" r="10.197" fill="#371a45"/>
        </g>
        <g id="Group_104" data-name="Group 104" transform="translate(17.434 12.811)">
          <circle id="Ellipse_47" data-name="Ellipse 47" cx="9.17" cy="9.17" r="9.17" fill="#00abfc"/>
        </g>
        <g id="Group_105" data-name="Group 105" transform="translate(17.435 12.811)" opacity="0.6">
          <path id="Path_131" data-name="Path 131" d="M14.68,1.842A9.168,9.168,0,0,0,.03,9.9a9.168,9.168,0,0,1,18.278.007A9.161,9.161,0,0,0,14.68,1.842Z" transform="translate(0 0)" fill="#fff"/>
        </g>
        <g id="Group_106" data-name="Group 106" transform="translate(17.434 18.616)" opacity="0.35">
          <path id="Path_132" data-name="Path 132" d="M3.659,11.061a9.169,9.169,0,0,0,14.585-6,9.284,9.284,0,0,1-1.05,1.782A9.169,9.169,0,0,1,.793,0,9.172,9.172,0,0,0,3.659,11.061Z" transform="translate(0 0)" fill="#371a45"/>
        </g>
        <g id="Group_107" data-name="Group 107" transform="translate(16.783 12.161)">
          <path id="Path_133" data-name="Path 133" d="M16.749,16.778a9.824,9.824,0,0,1-12.831.889h0A9.818,9.818,0,0,1,8.445.1a9.818,9.818,0,0,1,9.222,15.623A9.936,9.936,0,0,1,16.749,16.778ZM3.806,3.78a8.692,8.692,0,0,0-.8.918,8.488,8.488,0,1,0,.8-.918Z" transform="translate(0 0)" fill="#371a45"/>
        </g>
        <g id="Group_108" data-name="Group 108" transform="translate(20.748 15.995)">
          <circle id="Ellipse_48" data-name="Ellipse 48" cx="5.834" cy="5.834" r="5.834" fill="#00cde2"/>
        </g>
        <g id="Group_110" data-name="Group 110" transform="translate(20.748 18.481)" opacity="0.3">
          <g id="Group_109" data-name="Group 109" transform="translate(0 0)">
            <path id="Path_134" data-name="Path 134" d="M2.327,8.01A5.834,5.834,0,0,0,10.5,6.853a5.755,5.755,0,0,0,.916-1.8c-.037.054-.074.106-.114.159A5.834,5.834,0,0,1,1.057,0,5.834,5.834,0,0,0,2.327,8.01Z" fill="#fff"/>
          </g>
        </g>
        <g id="Group_111" data-name="Group 111" transform="translate(20.816 16.158)" opacity="0.35">
          <path id="Path_135" data-name="Path 135" d="M0,4.4c.057-.082.114-.164.175-.245A5.834,5.834,0,0,1,10.492,9.095,5.834,5.834,0,1,0,0,4.4Z" transform="translate(0 0)" fill="#371a45"/>
        </g>
        <g id="Group_112" data-name="Group 112" transform="translate(20.098 15.349)">
          <path id="Path_136" data-name="Path 136" d="M11.064,11.066a6.492,6.492,0,0,1-8.477.593h0A6.482,6.482,0,0,1,10.38,1.3a6.488,6.488,0,0,1,.684,9.768ZM2.819,2.81a5.2,5.2,0,0,0-.479.553,5.185,5.185,0,0,0,1.027,7.261h0A5.185,5.185,0,1,0,2.819,2.81Z" transform="translate(0 0)" fill="#371a45"/>
        </g>
        <g id="Group_114" data-name="Group 114" transform="translate(58.24 44.151)">
          <g id="Group_113" data-name="Group 113" opacity="0.35">
            <path id="Path_137" data-name="Path 137" d="M5.316,13.607a3.971,3.971,0,0,1-.742-5.5A16.057,16.057,0,0,0,7.91,0L6.539,1.371,1.493,7.6c0-.015-.006-.03-.009-.044L0,8.812l.872-.736a9.88,9.88,0,0,0,4.116,7.748c5.982,4.5,13.406,1.678,22.283,5.656a25.7,25.7,0,0,1-2.319-3.188c-7.674-2.424-14.186-.585-19.54-4.612Z" fill="#371a45"/>
          </g>
        </g>
      </g>
    </g>
  </g>
</svg>
