<svg xmlns="http://www.w3.org/2000/svg" width="98.44" height="98.44" viewBox="0 0 98.44 98.44">
  <g id="Group_539" data-name="Group 539" transform="translate(0 0)">
    <g id="Group_536" data-name="Group 536">
      <g id="Group_535" data-name="Group 535" transform="translate(0.526 0.503)">
        <g id="Group_531" data-name="Group 531">
          <g id="Group_530" data-name="Group 530">
            <path id="Path_647" data-name="Path 647" d="M1771.552,2173.263c-.641-.025-10.032,1.479-14.162,1.352l-.419-.015a48.869,48.869,0,0,1-46.743-49.747,48.663,48.663,0,0,1,50.561-47.5c.319.013.636.029.957.047a48.65,48.65,0,0,1,31.958,82.548C1791.351,2162.355,1772.871,2173.315,1771.552,2173.263Z" transform="translate(-1710.214 -2077.314)" fill="#8441a3"/>
          </g>
        </g>
        <g id="Group_533" data-name="Group 533" transform="translate(2.71 2.687)" opacity="0.5">
          <g id="Group_532" data-name="Group 532">
            <path id="Path_648" data-name="Path 648" d="M1764.137,2084.351a45.678,45.678,0,0,0-48.359,44.545,45.2,45.2,0,0,0,5.59,22.853,45.588,45.588,0,0,1,40.514-71.086,45.759,45.759,0,0,1,37.364,23.766A45.666,45.666,0,0,0,1764.137,2084.351Z" transform="translate(-1713.511 -2080.583)" fill="#fff"/>
          </g>
        </g>
        <g id="Group_534" data-name="Group 534" transform="translate(8.972 20.174)" opacity="0.3">
          <path id="Path_649" data-name="Path 649" d="M1795.663,2101.854a45.53,45.53,0,0,1-1.015,62.35c-3.379,3.486-19.934,12.167-22.753,12.8a45.649,45.649,0,0,1-50.765-23.933c3.888,4.315,24.627,25.384,60.2,5.52C1813.379,2140.7,1797.49,2105.409,1795.663,2101.854Z" transform="translate(-1721.129 -2101.854)" fill="#102770"/>
        </g>
      </g>
      <path id="Path_650" data-name="Path 650" d="M1756.861,2175.1a49.219,49.219,0,1,1,51.115-47.249A49.275,49.275,0,0,1,1756.861,2175.1Zm3.715-94.534a45.388,45.388,0,1,0,43.571,47.135A45.439,45.439,0,0,0,1760.577,2080.569Z" transform="translate(-1709.575 -2076.702)" fill="#371a45"/>
    </g>
    <g id="Group_538" data-name="Group 538" transform="translate(32.19 23.351)">
      <g id="Group_537" data-name="Group 537" transform="translate(5.278)">
        <path id="Path_651" data-name="Path 651" d="M1780.1,2128.982h-3.448v-11.4a9.025,9.025,0,1,0-18.05,0v11.4h-3.448v-11.4a12.473,12.473,0,1,1,24.946,0Z" transform="translate(-1755.152 -2105.107)" fill="#fff"/>
      </g>
      <path id="Path_652" data-name="Path 652" d="M1782.9,2127.567h-32.828a1.337,1.337,0,0,0-1.337,1.338v21.329a1.337,1.337,0,0,0,1.337,1.337H1782.9a1.337,1.337,0,0,0,1.337-1.337V2128.9A1.337,1.337,0,0,0,1782.9,2127.567Zm-13.736,17.376H1763.8l.934-6.635a2.934,2.934,0,1,1,3.49,0Z" transform="translate(-1748.732 -2109.103)" fill="#fff"/>
    </g>
  </g>
</svg>
