<svg id="Group_45" data-name="Group 45" xmlns="http://www.w3.org/2000/svg" width="1924.485" height="621.922" viewBox="0 0 1924.485 621.922">
  <g id="Group_44" data-name="Group 44">
    <g id="Group_1" data-name="Group 1" transform="translate(238.563 595.531)">
      <path id="Path_1" data-name="Path 1" d="M394.268,997.511c0,.762-1.561,1.426-3.893,1.791a2.751,2.751,0,0,0-2.289,2.29c-.366,2.332-1.03,3.893-1.792,3.893s-1.426-1.561-1.792-3.893a2.753,2.753,0,0,0-2.29-2.29c-2.334-.366-3.9-1.03-3.9-1.791s1.563-1.431,3.9-1.794a2.752,2.752,0,0,0,2.293-2.29c.366-2.334,1.03-3.9,1.792-3.9s1.425,1.562,1.791,3.9a2.753,2.753,0,0,0,2.292,2.29C392.708,996.08,394.268,996.746,394.268,997.511Z" transform="translate(-378.315 -989.531)" fill="#fff"/>
    </g>
    <g id="Group_2" data-name="Group 2" transform="translate(246.318 410.856)">
      <path id="Path_2" data-name="Path 2" d="M403.684,788.793c0,.762-1.561,1.426-3.893,1.792a2.752,2.752,0,0,0-2.29,2.289c-.366,2.332-1.03,3.894-1.792,3.894s-1.426-1.562-1.791-3.894a2.753,2.753,0,0,0-2.29-2.289c-2.334-.366-3.9-1.03-3.9-1.792s1.563-1.431,3.9-1.794a2.753,2.753,0,0,0,2.293-2.291c.366-2.334,1.03-3.9,1.791-3.9s1.426,1.561,1.792,3.9A2.753,2.753,0,0,0,399.794,787C402.124,787.362,403.684,788.027,403.684,788.793Z" transform="translate(-387.731 -780.813)" fill="#fff"/>
    </g>
    <g id="Group_3" data-name="Group 3" transform="translate(118.066 308.127)">
      <path id="Path_3" data-name="Path 3" d="M247.981,672.23c0,.761-1.561,1.426-3.893,1.792a2.752,2.752,0,0,0-2.29,2.289c-.366,2.332-1.03,3.893-1.792,3.893s-1.426-1.561-1.792-3.893a2.752,2.752,0,0,0-2.289-2.289c-2.334-.366-3.9-1.03-3.9-1.792s1.563-1.431,3.9-1.794a2.753,2.753,0,0,0,2.293-2.291c.366-2.334,1.03-3.9,1.791-3.9s1.426,1.561,1.792,3.9a2.753,2.753,0,0,0,2.292,2.291C246.421,670.8,247.981,671.464,247.981,672.23Z" transform="translate(-232.028 -664.25)" fill="#fff"/>
    </g>
    <g id="Group_4" data-name="Group 4" transform="translate(493.587 389.635)">
      <path id="Path_4" data-name="Path 4" d="M655.1,762.032c0,.477-.978.893-2.437,1.122a1.722,1.722,0,0,0-1.433,1.432c-.229,1.46-.645,2.437-1.121,2.437s-.893-.977-1.122-2.437a1.722,1.722,0,0,0-1.433-1.432c-1.461-.229-2.441-.645-2.441-1.122s.979-.9,2.439-1.124a1.721,1.721,0,0,0,1.435-1.433c.229-1.461.645-2.439,1.122-2.439s.892.978,1.121,2.439a1.721,1.721,0,0,0,1.435,1.433C654.125,761.136,655.1,761.552,655.1,762.032Z" transform="translate(-645.115 -757.036)" fill="#fff"/>
    </g>
    <g id="Group_5" data-name="Group 5" transform="translate(272.198 60.54)">
      <path id="Path_5" data-name="Path 5" d="M429.137,393.12c0,.476-.977.892-2.437,1.121a1.724,1.724,0,0,0-1.433,1.433c-.229,1.46-.644,2.437-1.121,2.437s-.893-.978-1.122-2.437a1.723,1.723,0,0,0-1.433-1.433c-1.46-.229-2.441-.644-2.441-1.121s.979-.9,2.439-1.124a1.722,1.722,0,0,0,1.435-1.433c.229-1.462.645-2.439,1.122-2.439s.892.977,1.121,2.439A1.724,1.724,0,0,0,426.7,392C428.161,392.224,429.137,392.64,429.137,393.12Z" transform="translate(-419.15 -388.124)" fill="#fff"/>
    </g>
    <g id="Group_6" data-name="Group 6" transform="translate(498.386 258.218)">
      <path id="Path_6" data-name="Path 6" d="M670.149,617.414c0,.947-1.942,1.774-4.843,2.229a3.423,3.423,0,0,0-2.848,2.848c-.455,2.9-1.281,4.843-2.229,4.843s-1.773-1.942-2.228-4.843a3.424,3.424,0,0,0-2.848-2.848c-2.9-.455-4.851-1.281-4.851-2.229s1.946-1.78,4.847-2.231A3.425,3.425,0,0,0,658,612.334c.455-2.9,1.281-4.847,2.228-4.847s1.774,1.942,2.229,4.847a3.425,3.425,0,0,0,2.852,2.849C668.208,615.634,670.149,616.462,670.149,617.414Z" transform="translate(-650.301 -607.487)" fill="#fff"/>
    </g>
    <g id="Group_7" data-name="Group 7" transform="translate(1298.293 176.48)">
      <path id="Path_7" data-name="Path 7" d="M1571.528,524.71c0,.948-1.943,1.774-4.844,2.229a3.422,3.422,0,0,0-2.848,2.848c-.456,2.9-1.281,4.843-2.229,4.843s-1.774-1.942-2.229-4.843a3.423,3.423,0,0,0-2.848-2.848c-2.9-.455-4.85-1.281-4.85-2.229s1.945-1.78,4.847-2.231a3.425,3.425,0,0,0,2.852-2.849c.455-2.9,1.282-4.847,2.229-4.847s1.773,1.942,2.229,4.847a3.423,3.423,0,0,0,2.852,2.849C1569.587,522.93,1571.528,523.758,1571.528,524.71Z" transform="translate(-1551.681 -514.783)" fill="#fff"/>
    </g>
    <g id="Group_8" data-name="Group 8" transform="translate(439.569 602.075)">
      <path id="Path_8" data-name="Path 8" d="M603.869,1007.4c0,.947-1.942,1.773-4.844,2.228a3.424,3.424,0,0,0-2.847,2.848c-.456,2.9-1.282,4.843-2.229,4.843s-1.774-1.942-2.229-4.843a3.422,3.422,0,0,0-2.848-2.847c-2.9-.455-4.85-1.281-4.85-2.229s1.945-1.78,4.847-2.232a3.424,3.424,0,0,0,2.852-2.849c.456-2.9,1.282-4.847,2.229-4.847s1.773,1.942,2.229,4.847a3.422,3.422,0,0,0,2.852,2.849C601.928,1005.623,603.869,1006.45,603.869,1007.4Z" transform="translate(-584.022 -997.475)" fill="#fff"/>
    </g>
    <g id="Group_9" data-name="Group 9" transform="translate(1289.545 350.275)">
      <path id="Path_9" data-name="Path 9" d="M1561.671,721.822c0,.947-1.942,1.773-4.843,2.228a3.425,3.425,0,0,0-2.848,2.848c-.455,2.9-1.281,4.843-2.229,4.843s-1.773-1.942-2.228-4.843a3.425,3.425,0,0,0-2.849-2.848c-2.9-.455-4.851-1.281-4.851-2.228s1.946-1.781,4.847-2.232a3.424,3.424,0,0,0,2.852-2.849c.454-2.9,1.281-4.847,2.228-4.847s1.774,1.942,2.229,4.847a3.424,3.424,0,0,0,2.852,2.849C1559.73,720.042,1561.671,720.869,1561.671,721.822Z" transform="translate(-1541.823 -711.894)" fill="#fff"/>
    </g>
    <g id="Group_10" data-name="Group 10" transform="translate(690.878 430.307)">
      <circle id="Ellipse_2" data-name="Ellipse 2" cx="2.554" cy="2.554" r="2.554" fill="#fff"/>
    </g>
    <g id="Group_11" data-name="Group 11" transform="translate(957.355 33.144)">
      <circle id="Ellipse_3" data-name="Ellipse 3" cx="2.554" cy="2.554" r="2.554" fill="#fff"/>
    </g>
    <g id="Group_12" data-name="Group 12" transform="translate(690.962 558.491)">
      <circle id="Ellipse_4" data-name="Ellipse 4" cx="2.554" cy="2.554" r="2.554" fill="#fff"/>
    </g>
    <g id="Group_13" data-name="Group 13" transform="translate(342.604 388.574)">
      <circle id="Ellipse_5" data-name="Ellipse 5" cx="2.554" cy="2.554" r="2.554" fill="#fff"/>
    </g>
    <g id="Group_14" data-name="Group 14" transform="translate(1635.026 282.522)">
      <path id="Path_10" data-name="Path 10" d="M1917.613,640.41c0,.477-.978.893-2.437,1.122a1.722,1.722,0,0,0-1.434,1.433c-.229,1.46-.645,2.437-1.122,2.437s-.892-.978-1.121-2.437a1.722,1.722,0,0,0-1.433-1.433c-1.461-.229-2.441-.645-2.441-1.122s.978-.9,2.439-1.123a1.723,1.723,0,0,0,1.435-1.434c.229-1.461.645-2.438,1.121-2.438s.893.977,1.122,2.438a1.723,1.723,0,0,0,1.435,1.434C1916.636,639.515,1917.613,639.93,1917.613,640.41Z" transform="translate(-1907.626 -635.415)" fill="#fff"/>
    </g>
    <g id="Group_15" data-name="Group 15" transform="translate(1444.648 292.27)">
      <circle id="Ellipse_6" data-name="Ellipse 6" cx="2.554" cy="2.554" r="2.554" fill="#fff"/>
    </g>
    <g id="Group_16" data-name="Group 16" transform="translate(178.699 262.288)">
      <circle id="Ellipse_7" data-name="Ellipse 7" cx="2.554" cy="2.554" r="2.554" fill="#fff"/>
    </g>
    <g id="Group_17" data-name="Group 17" transform="translate(747.387)">
      <circle id="Ellipse_8" data-name="Ellipse 8" cx="2.554" cy="2.554" r="2.554" fill="#fff"/>
    </g>
    <g id="Group_18" data-name="Group 18" transform="translate(1251.712 42.952)">
      <circle id="Ellipse_9" data-name="Ellipse 9" cx="2.554" cy="2.554" r="2.554" fill="#fff"/>
    </g>
    <g id="Group_19" data-name="Group 19" transform="translate(197.295 85.824)">
      <circle id="Ellipse_10" data-name="Ellipse 10" cx="2.554" cy="2.554" r="2.554" fill="#fff"/>
    </g>
    <g id="Group_20" data-name="Group 20" transform="translate(82.389 177.899)">
      <circle id="Ellipse_11" data-name="Ellipse 11" cx="2.554" cy="2.554" r="2.554" fill="#fff"/>
    </g>
    <g id="Group_21" data-name="Group 21" transform="translate(163.6 539.255)">
      <circle id="Ellipse_12" data-name="Ellipse 12" cx="2.554" cy="2.554" r="2.554" fill="#fff"/>
    </g>
    <g id="Group_22" data-name="Group 22" transform="translate(617.984 361.367)">
      <circle id="Ellipse_13" data-name="Ellipse 13" cx="1.313" cy="1.313" r="1.313" fill="#fff"/>
    </g>
    <g id="Group_23" data-name="Group 23" transform="translate(1448.838 574.681)">
      <circle id="Ellipse_14" data-name="Ellipse 14" cx="1.313" cy="1.313" r="1.313" fill="#fff"/>
    </g>
    <g id="Group_24" data-name="Group 24" transform="translate(316.523 532.01)">
      <circle id="Ellipse_15" data-name="Ellipse 15" cx="1.313" cy="1.313" r="1.313" fill="#fff"/>
    </g>
    <g id="Group_25" data-name="Group 25" transform="translate(199.535 202.605)">
      <circle id="Ellipse_16" data-name="Ellipse 16" cx="1.313" cy="1.313" r="1.313" fill="#fff"/>
    </g>
    <g id="Group_26" data-name="Group 26" transform="translate(716.093 361.712)">
      <path id="Path_11" data-name="Path 11" d="M911.706,733.031c0,.761-1.561,1.426-3.893,1.792a2.751,2.751,0,0,0-2.289,2.289c-.366,2.332-1.03,3.893-1.792,3.893s-1.426-1.561-1.792-3.893a2.751,2.751,0,0,0-2.29-2.289c-2.333-.366-3.9-1.03-3.9-1.792s1.563-1.432,3.9-1.794a2.752,2.752,0,0,0,2.293-2.291c.366-2.334,1.03-3.9,1.792-3.9s1.426,1.561,1.792,3.9a2.752,2.752,0,0,0,2.292,2.291C910.146,731.6,911.706,732.265,911.706,733.031Z" transform="translate(-895.752 -725.051)" fill="#fff"/>
    </g>
    <g id="Group_27" data-name="Group 27" transform="translate(1785.97 485.849)">
      <path id="Path_12" data-name="Path 12" d="M2106.83,873.886c0,.762-1.561,1.426-3.893,1.791a2.753,2.753,0,0,0-2.29,2.289c-.366,2.332-1.03,3.894-1.792,3.894s-1.425-1.561-1.79-3.893a2.755,2.755,0,0,0-2.29-2.29c-2.333-.366-3.9-1.03-3.9-1.791s1.563-1.431,3.9-1.794a2.753,2.753,0,0,0,2.293-2.29c.366-2.335,1.03-3.9,1.79-3.9s1.426,1.562,1.792,3.9a2.75,2.75,0,0,0,2.292,2.29C2105.27,872.455,2106.83,873.12,2106.83,873.886Z" transform="translate(-2090.877 -865.906)" fill="#fff"/>
    </g>
    <g id="Group_28" data-name="Group 28" transform="translate(1459.24 415.09)">
      <path id="Path_13" data-name="Path 13" d="M1749.258,793.6c0,.762-1.561,1.426-3.893,1.792a2.752,2.752,0,0,0-2.29,2.289c-.366,2.332-1.03,3.894-1.792,3.894s-1.426-1.562-1.792-3.894a2.751,2.751,0,0,0-2.289-2.289c-2.333-.366-3.9-1.03-3.9-1.792s1.563-1.431,3.9-1.794a2.753,2.753,0,0,0,2.293-2.291c.365-2.334,1.03-3.9,1.791-3.9s1.426,1.561,1.792,3.9a2.752,2.752,0,0,0,2.292,2.29C1747.7,792.167,1749.258,792.832,1749.258,793.6Z" transform="translate(-1733.305 -785.618)" fill="#fff"/>
    </g>
    <g id="Group_29" data-name="Group 29" transform="translate(1907.282 471.121)">
      <circle id="Ellipse_17" data-name="Ellipse 17" cx="2.554" cy="2.554" r="2.554" fill="#fff"/>
    </g>
    <g id="Group_30" data-name="Group 30" transform="translate(1750.293 355.403)">
      <circle id="Ellipse_18" data-name="Ellipse 18" cx="2.554" cy="2.554" r="2.554" fill="#fff"/>
    </g>
    <g id="Group_31" data-name="Group 31" transform="translate(1867.439 380.061)">
      <circle id="Ellipse_19" data-name="Ellipse 19" cx="1.313" cy="1.313" r="1.313" fill="#fff"/>
    </g>
    <g id="Group_32" data-name="Group 32" transform="translate(0 353.128)">
      <circle id="Ellipse_20" data-name="Ellipse 20" cx="1.313" cy="1.313" r="1.313" fill="#fff"/>
    </g>
    <g id="Group_33" data-name="Group 33" transform="translate(179.611 495.607)">
      <circle id="Ellipse_21" data-name="Ellipse 21" cx="1.313" cy="1.313" r="1.313" fill="#fff"/>
    </g>
    <g id="Group_34" data-name="Group 34" transform="translate(1574.904 83.458)">
      <path id="Path_14" data-name="Path 14" d="M1850.589,423.928c0,.762-1.561,1.426-3.893,1.792a2.751,2.751,0,0,0-2.29,2.289c-.366,2.332-1.03,3.894-1.792,3.894s-1.426-1.562-1.792-3.894a2.752,2.752,0,0,0-2.289-2.289c-2.334-.366-3.9-1.03-3.9-1.792s1.564-1.431,3.9-1.794a2.752,2.752,0,0,0,2.292-2.29c.366-2.335,1.031-3.9,1.792-3.9s1.426,1.561,1.792,3.9a2.751,2.751,0,0,0,2.292,2.29C1849.029,422.5,1850.589,423.162,1850.589,423.928Z" transform="translate(-1834.635 -415.948)" fill="#fff"/>
    </g>
    <g id="Group_35" data-name="Group 35" transform="translate(1777.848 161.906)">
      <path id="Path_15" data-name="Path 15" d="M2096.971,506.317c0,.761-1.562,1.426-3.894,1.792a2.753,2.753,0,0,0-2.289,2.289c-.365,2.332-1.029,3.894-1.791,3.894s-1.426-1.562-1.792-3.894a2.752,2.752,0,0,0-2.29-2.289c-2.334-.366-3.9-1.03-3.9-1.792s1.564-1.431,3.9-1.794a2.752,2.752,0,0,0,2.292-2.291c.366-2.334,1.031-3.9,1.792-3.9s1.426,1.561,1.791,3.9a2.753,2.753,0,0,0,2.293,2.291C2095.411,504.886,2096.971,505.551,2096.971,506.317Z" transform="translate(-2081.017 -498.337)" fill="#fff"/>
    </g>
    <g id="Group_36" data-name="Group 36" transform="translate(1919.377 125.426)">
      <circle id="Ellipse_22" data-name="Ellipse 22" cx="2.554" cy="2.554" r="2.554" fill="#fff"/>
    </g>
    <g id="Group_37" data-name="Group 37" transform="translate(1848.954 290.814)">
      <circle id="Ellipse_23" data-name="Ellipse 23" cx="2.554" cy="2.554" r="2.554" fill="#fff"/>
    </g>
    <g id="Group_38" data-name="Group 38" transform="translate(1882.687 307.401)">
      <circle id="Ellipse_24" data-name="Ellipse 24" cx="1.313" cy="1.313" r="1.313" fill="#fff"/>
    </g>
    <g id="Group_39" data-name="Group 39" transform="translate(1651.237 516.968)">
      <circle id="Ellipse_25" data-name="Ellipse 25" cx="2.554" cy="2.554" r="2.554" fill="#fff"/>
    </g>
    <g id="Group_40" data-name="Group 40" transform="translate(1684.969 532.569)">
      <circle id="Ellipse_26" data-name="Ellipse 26" cx="1.313" cy="1.313" r="1.313" fill="#fff"/>
    </g>
    <g id="Group_41" data-name="Group 41" transform="translate(1775.773 232.532)">
      <circle id="Ellipse_27" data-name="Ellipse 27" cx="1.313" cy="1.313" r="1.313" fill="#fff"/>
    </g>
    <g id="Group_42" data-name="Group 42" transform="translate(519.179 451.354)">
      <circle id="Ellipse_28" data-name="Ellipse 28" cx="1.313" cy="1.313" r="1.313" fill="#fff"/>
    </g>
    <g id="Group_43" data-name="Group 43" transform="translate(1475.264 371.948)">
      <circle id="Ellipse_29" data-name="Ellipse 29" cx="1.313" cy="1.313" r="1.313" fill="#fff"/>
    </g>
  </g>
</svg>
