<svg xmlns="http://www.w3.org/2000/svg" width="214.42" height="203.393" viewBox="0 0 214.42 203.393">
  <g id="Group_786" data-name="Group 786" transform="translate(0)">
    <g id="Group_770" data-name="Group 770" transform="translate(0)">
      <ellipse id="Ellipse_140" data-name="Ellipse 140" cx="84.586" cy="66.829" rx="84.586" ry="66.829" transform="translate(0 90.438) rotate(-32.317)" fill="#2a1344"/>
    </g>
    <g id="Group_771" data-name="Group 771" transform="translate(80.103 113.226)">
      <path id="Path_1080" data-name="Path 1080" d="M503.126,5949.8l-15.04,24.2a11.265,11.265,0,1,0,19.135,11.892l15.04-24.2a62.525,62.525,0,0,1-19.135-11.892Z" transform="translate(-485.925 -5949.083)" fill="#fff"/>
      <path id="Path_1081" data-name="Path 1081" d="M491.279,5989.633a11.752,11.752,0,0,1-3.774-16.167l15.336-24.676.414.375a61.969,61.969,0,0,0,18.991,11.8l.52.2L507.43,5985.85a11.742,11.742,0,0,1-16.152,3.784Zm20.451-32.908a62.613,62.613,0,0,1-8.688-6.5l-14.746,23.73a10.8,10.8,0,1,0,18.344,11.4l14.747-23.729A62.6,62.6,0,0,1,511.729,5956.726Z" transform="translate(-485.739 -5948.791)" fill="#2b0c4f"/>
    </g>
    <g id="Group_772" data-name="Group 772" transform="translate(87.054 113.226)" opacity="0.3">
      <path id="Path_1082" data-name="Path 1082" d="M506.051,5949.8l-9.51,15.3a19.5,19.5,0,0,1,15.191,18.239l13.454-21.648a62.525,62.525,0,0,1-19.135-11.892Z" transform="translate(-495.801 -5949.083)" fill="#262f6a"/>
      <path id="Path_1083" data-name="Path 1083" d="M510.968,5983.071a19.029,19.029,0,0,0-14.827-17.8l-.639-.142,10.15-16.334.414.375a61.972,61.972,0,0,0,18.991,11.8l.521.2-14.548,23.412Zm3.573-26.345a62.612,62.612,0,0,1-8.688-6.5l-8.875,14.283a19.966,19.966,0,0,1,14.811,17.087L524.2,5961.63A62.6,62.6,0,0,1,514.541,5956.726Z" transform="translate(-495.501 -5948.791)" fill="#2b0c4f"/>
    </g>
    <g id="Group_773" data-name="Group 773" transform="translate(77.312 110.689)">
      <path id="Path_1084" data-name="Path 1084" d="M488.677,5990.979a14.547,14.547,0,0,1-4.672-20.012l15.039-24.2a3.257,3.257,0,0,1,4.96-.688,59.3,59.3,0,0,0,18.13,11.267,3.257,3.257,0,0,1,1.578,4.752l-15.04,24.2a14.538,14.538,0,0,1-20,4.682Zm20.451-32.908a65.806,65.806,0,0,1-6.552-4.646l-13.038,20.98a8.007,8.007,0,1,0,13.6,8.454l13.038-20.98A65.617,65.617,0,0,1,509.128,5958.071Z" transform="translate(-481.819 -5945.227)" fill="#2b0c4f"/>
    </g>
    <g id="Group_774" data-name="Group 774" transform="translate(69.493 9.08)">
      <path id="Path_1085" data-name="Path 1085" d="M471.5,5867.06a62.659,62.659,0,0,0,52.579,60.61,62.537,62.537,0,0,0,22.524-.442,62.652,62.652,0,1,0-75.1-60.168Z" transform="translate(-471.027 -5802.712)" fill="#fff"/>
      <path id="Path_1086" data-name="Path 1086" d="M535.2,5928.749a63.134,63.134,0,1,1,11.318-1.252c-.609.123-1.221.24-1.836.345A62.8,62.8,0,0,1,535.2,5928.749Zm-46.068-106.2a62.169,62.169,0,1,0,43.61-19.08,63.193,63.193,0,0,0-9.538.912A61.732,61.732,0,0,0,489.128,5822.545Z" transform="translate(-470.838 -5802.523)" fill="#2b0c4f"/>
    </g>
    <g id="Group_775" data-name="Group 775" transform="translate(69.493 34.908)" opacity="0.3">
      <path id="Path_1087" data-name="Path 1087" d="M471.5,5878.6a62.659,62.659,0,0,0,52.579,60.61,62.552,62.552,0,0,0,22.524-.442,62.679,62.679,0,0,0,47.164-42.155,62.548,62.548,0,0,1-40.055,27.23,62.5,62.5,0,0,1-22.525.442,62.707,62.707,0,0,1-49.6-81.027A62.355,62.355,0,0,0,471.5,5878.6Z" transform="translate(-471.027 -5840.084)" fill="#262f6a"/>
      <path id="Path_1088" data-name="Path 1088" d="M535.2,5939.2a63.118,63.118,0,0,1-54.18-97.472l1.9-2.926-1.069,3.321a62.207,62.207,0,0,0,60.438,81.222,61.28,61.28,0,0,0,11.15-1.235,62.418,62.418,0,0,0,39.757-27.028l1.9-2.917-1.069,3.314a63.06,63.06,0,0,1-47.512,42.469q-.914.185-1.836.345A62.8,62.8,0,0,1,535.2,5939.2Zm18.426-16.177a63.163,63.163,0,0,1-73.637-77.828,62.19,62.19,0,1,0,112,53.267A63.342,63.342,0,0,1,553.621,5923.018Z" transform="translate(-470.839 -5838.798)" fill="#2b0c4f"/>
    </g>
    <g id="Group_776" data-name="Group 776" transform="translate(84.907 24.506)">
      <circle id="Ellipse_141" data-name="Ellipse 141" cx="47.699" cy="47.699" r="47.699" fill="#d16913"/>
    </g>
    <g id="Group_777" data-name="Group 777" transform="translate(88.888 24.503)" opacity="0.23">
      <path id="Path_1089" data-name="Path 1089" d="M498.077,5852.833a47.669,47.669,0,0,1,71.961,57.492,47.7,47.7,0,1,0-71.961-57.492Z" transform="translate(-498.077 -5824.186)" fill="#2b0c4f"/>
    </g>
    <g id="Group_778" data-name="Group 778" transform="translate(66.702 6.288)">
      <path id="Path_1090" data-name="Path 1090" d="M534.121,5930.413a65.92,65.92,0,0,1-67.19-64.607h0a65.91,65.91,0,1,1,79.015,63.3q-.955.2-1.92.363A65.68,65.68,0,0,1,534.121,5930.413ZM490.012,5823.35a59.01,59.01,0,0,0-16.569,42.327h0a59.4,59.4,0,0,0,60.55,58.221,58.564,58.564,0,0,0,10.655-1.181,59.395,59.395,0,0,0-12.985-117.588,60.11,60.11,0,0,0-9.11.871A58.959,58.959,0,0,0,490.012,5823.35Z" transform="translate(-466.918 -5798.603)" fill="#2b0c4f"/>
    </g>
    <g id="Group_779" data-name="Group 779" transform="translate(81.65 21.248)">
      <path id="Path_1091" data-name="Path 1091" d="M539.867,5921.517a50.758,50.758,0,1,1,7.817-.749A51.469,51.469,0,0,1,539.867,5921.517Zm-45.432-50.074h0A44.441,44.441,0,1,0,538,5826.137a44.417,44.417,0,0,0-43.561,45.306Z" transform="translate(-487.912 -5819.614)" fill="#2b0c4f"/>
    </g>
    <g id="Group_780" data-name="Group 780" transform="translate(105.13 82.38)" opacity="0.3">
      <path id="Path_1092" data-name="Path 1092" d="M521.592,5907.025c-2.7,5.171,2.6,13.274,11.84,18.1s18.919,4.542,21.62-.629-5.4-4.009-14.639-8.833S524.292,5901.853,521.592,5907.025Z" transform="translate(-520.888 -5905.47)" fill="#fff"/>
    </g>
    <g id="Group_781" data-name="Group 781" transform="translate(97.965 65.134)" opacity="0.3">
      <path id="Path_1093" data-name="Path 1093" d="M516.154,5893.046c2.483-.325,3.262-3.1,2.837-6.356s-1.892-5.737-4.375-5.414-4.151,3.222-3.727,6.472S513.672,5893.37,516.154,5893.046Z" transform="translate(-510.824 -5881.248)" fill="#fff"/>
    </g>
    <g id="Group_782" data-name="Group 782" transform="translate(136.465 63.616)">
      <circle id="Ellipse_142" data-name="Ellipse 142" cx="2.886" cy="2.886" r="2.886" transform="translate(0 3.814) rotate(-41.364)" fill="#2b0c4f"/>
    </g>
    <g id="Group_783" data-name="Group 783" transform="translate(142.863 75.024)">
      <circle id="Ellipse_143" data-name="Ellipse 143" cx="1.829" cy="1.829" r="1.829" transform="translate(0 2.637) rotate(-46.124)" fill="#2b0c4f"/>
    </g>
    <g id="Group_784" data-name="Group 784" transform="translate(114.347 56.518)">
      <circle id="Ellipse_144" data-name="Ellipse 144" cx="1.829" cy="1.829" r="1.829" fill="#2b0c4f"/>
    </g>
    <g id="Group_785" data-name="Group 785" transform="translate(128.57 72.211)">
      <circle id="Ellipse_145" data-name="Ellipse 145" cx="2.382" cy="2.382" r="2.382" transform="matrix(0.847, -0.531, 0.531, 0.847, 0, 2.531)" fill="#2b0c4f"/>
    </g>
  </g>
</svg>
