<svg xmlns="http://www.w3.org/2000/svg" width="191.353" height="178.099" viewBox="0 0 191.353 178.099">
  <g id="Group_3462" data-name="Group 3462" transform="translate(-295.292 -210.901)">
    <g id="Group_547" data-name="Group 547" transform="translate(295.292 210.901)">
      <path id="Path_690" data-name="Path 690" d="M747.554,3348.728c13.609.131,26.218-9.529,32.119-24.611a1.76,1.76,0,0,1,1.654-1.117,1.943,1.943,0,0,1,.243.018,240.9,240.9,0,0,0,32.169,2.9c29.9.289,49.874-8.469,61.072-26.777,14.706-24.046,13.37-57.278-3.247-80.816a1.048,1.048,0,0,0-.185-.186,1.757,1.757,0,0,1-.377-.425,60.48,60.48,0,0,0-6.756-9.175c-17.32-20.834-44.142-29.175-63.605-32.516a130.852,130.852,0,0,0-20.827-1.871c-35.408-.343-75.467,14.237-81.712,56.188-2.2,14.745-.608,28.913,4.593,40.97a1.594,1.594,0,0,1,.086.251A40.039,40.039,0,0,0,709.769,3286a1.723,1.723,0,0,1,.163.241c6.875,12.29,17.931,21.579,31.972,26.866a1.759,1.759,0,0,1,1.093,2.046c-.176.754-.387,1.545-.676,2.429-2.064,6.327-5.2,13.974-11.158,16.978a1.754,1.754,0,0,1-.443.154,2.736,2.736,0,0,1-.435.382.564.564,0,0,0,.155.583,1.748,1.748,0,0,1,.152.218.754.754,0,0,0,.374.364,32.215,32.215,0,0,0,8.042,2.192,1.758,1.758,0,0,1,1.049,2.938,16.169,16.169,0,0,1-4.668,3.5c-.28.132-.279.208-.275.314a1.312,1.312,0,0,0,.72,1.028,31.1,31.1,0,0,0,11.718,2.5Z" transform="translate(-695.372 -3172.389)" fill="#fff"/>
      <path id="Path_691" data-name="Path 691" d="M708.014,3286.717a41.994,41.994,0,0,1-7.317-15.089c-5.632-13.055-6.861-27.544-4.719-41.926,7.443-49.984,61.579-63.175,104.578-55.791,25.705,4.415,49.515,14.91,64.586,33.043a61.778,61.778,0,0,1,6.965,9.444,2.694,2.694,0,0,1,.509.533c16.775,23.76,18.521,57.88,3.312,82.748-19.748,32.285-62.32,29.542-95,24.7-7.267,18.568-25.938,31.541-46.156,23.1-1.761-.736-2.72-3.521-.549-4.541a14.3,14.3,0,0,0,4.161-3.122,33.811,33.811,0,0,1-8.477-2.31,2.5,2.5,0,0,1-1.215-1.1,2.082,2.082,0,0,1,.144-3.089,1.9,1.9,0,0,1,1.153-.708c5.532-2.787,8.51-10.536,10.277-15.952.271-.831.469-1.575.635-2.284C726.733,3309.035,715.3,3299.744,708.014,3286.717Zm27.881,47.495c16.408,4.022,30.8-7.311,36.182-23.218a2.559,2.559,0,0,1,3.069-1.7c26.025,3.981,57.765,7.667,80.109-9.388,14.973-11.431,21.345-30.512,21.264-48.755-.214-49.061-47.508-69.832-89.756-74.163-26.355-2.7-54.971,3.761-73.172,24.161-12.968,14.534-15.814,37.3-12.441,55.754a58.775,58.775,0,0,0,13.747,28.018,53.914,53.914,0,0,0,11.981,9.778c5.131,3.254,11.56,3.956,16.572,6.957C752.347,3306.978,743.615,3326.309,735.895,3334.211Zm19.8-151.74a.351.351,0,0,0-.169-.652c-26.209,2.435-55.64,34.546-50.268,61.377a.371.371,0,0,0,.71.007c4.423-16.1,6.648-30.927,19.666-42.98C734.857,3191.688,744.439,3187.441,755.7,3182.471Zm-50.785,66.866c.094,1.085,0,3.393,1.477,3.575,1.319.163.93-2.015.815-2.661-.221-1.248-.087-2.765-.782-3.855a.254.254,0,0,0-.284-.119C704.9,3246.7,704.813,3248.2,704.913,3249.337Zm114.85,58.031c18.623,2.412,45.811-16.065,48.952-35.02a.234.234,0,0,0-.423-.183c-6.34,9.011-11.548,17.755-21.152,23.862-8.77,5.576-17.67,7.676-27.5,10.35A.507.507,0,0,0,819.763,3307.368Zm-10.791-.236a.349.349,0,0,0-.005.495,4.912,4.912,0,0,0,3.767.907c1.218-.052,2.553.024,3.455-.935a.214.214,0,0,0,0-.3c-.884-.976-2.219-.926-3.437-1A4.917,4.917,0,0,0,808.972,3307.132Z" transform="translate(-694.989 -3172.008)"/>
    </g>
    <text id="This_is_my_story" data-name="This is 

my story" transform="translate(393.811 273.818) rotate(19.374)" font-size="33" font-family="SnowyNight, Snowy Night" letter-spacing="-0.015em"><tspan x="-52.322" y="0">This is </tspan><tspan x="0" y="22"></tspan><tspan x="-62.948" y="44">my story</tspan></text>
  </g>
</svg>
