<svg xmlns="http://www.w3.org/2000/svg" width="83.3" height="58.273" viewBox="0 0 83.3 58.273">
  <g id="Group_316" data-name="Group 316" transform="translate(0 0)">
    <g id="Group_315" data-name="Group 315">
      <g id="Group_314" data-name="Group 314">
        <g id="Group_311" data-name="Group 311">
          <g id="Group_276" data-name="Group 276" transform="translate(23.177 31.727)">
            <g id="Group_275" data-name="Group 275">
              <path id="Path_318" data-name="Path 318" d="M756.782,847.629a28.2,28.2,0,0,1-.532,3.45,28.53,28.53,0,0,1-44.672,16.995,152.95,152.95,0,0,0,45.2-20.444Z" transform="translate(-711.578 -847.629)" fill="#ffb200"/>
            </g>
          </g>
          <g id="Group_278" data-name="Group 278" transform="translate(23.177 31.727)">
            <g id="Group_277" data-name="Group 277">
              <path id="Path_319" data-name="Path 319" d="M735.015,859.7a142.712,142.712,0,0,0,21.767-12.067,28.2,28.2,0,0,1-.532,3.45,123.705,123.705,0,0,1-20.373,11.264,127.428,127.428,0,0,1-21.2,7.695,28.636,28.636,0,0,1-3.1-1.964A142.762,142.762,0,0,0,735.015,859.7Z" transform="translate(-711.578 -847.629)" fill="#d66b09"/>
            </g>
          </g>
          <g id="Group_280" data-name="Group 280" transform="translate(11.474 0.627)">
            <g id="Group_279" data-name="Group 279">
              <path id="Path_320" data-name="Path 320" d="M749.529,820.419c-4.637,3.75-13.8,9-24.738,13.947s-20.934,8.36-26.812,9.366a28.818,28.818,0,0,1-1.661-3.144c-.024-.052-.046-.1-.07-.155-.216-.483-.417-.967-.6-1.458a28.41,28.41,0,0,1-1.077-3.464c-.011-.048-.022-.093-.034-.142a28.187,28.187,0,0,1-.729-5.208,28.578,28.578,0,0,1,6.153-19.049h0c.273-.349.559-.691.852-1.026a28.375,28.375,0,0,1,9.73-7.22q.8-.361,1.613-.672a28.431,28.431,0,0,1,21.673.579c.041.018.084.036.126.057q.938.418,1.845.909a28.291,28.291,0,0,1,9.246,7.92c.1.138.207.279.312.42.086.116.168.233.251.35a28.327,28.327,0,0,1,1.889,3.1c.214.4.417.811.611,1.226.053.114.107.228.157.344A28.793,28.793,0,0,1,749.529,820.419Z" transform="translate(-693.777 -800.326)" fill="#ffb200"/>
            </g>
          </g>
          <g id="Group_282" data-name="Group 282" transform="translate(13.945 17.053)">
            <g id="Group_281" data-name="Group 281">
              <path id="Path_321" data-name="Path 321" d="M749.395,825.31q.081.17.158.342a28.556,28.556,0,0,1,1.262,3.324c-4.637,3.75-13.8,9-24.738,13.948s-20.932,8.36-26.81,9.365a28.627,28.627,0,0,1-1.663-3.143c-.023-.052-.046-.1-.068-.154,5.573-.616,15.745-3.917,26.9-8.961C736.029,834.787,745.508,829.1,749.395,825.31Z" transform="translate(-697.536 -825.31)" fill="#d66b09"/>
            </g>
          </g>
          <g id="Group_284" data-name="Group 284" transform="translate(11.47 8.065)">
            <g id="Group_283" data-name="Group 283">
              <path id="Path_322" data-name="Path 322" d="M694.189,834.7q-.218,0-.418-.01l.067-1.307c3.933.2,14.151-3.035,24.855-7.877,11.279-5.1,20.792-10.933,22.618-13.867l1.111.692c-1.98,3.18-11.516,9.088-23.19,14.368C708.536,831.536,698.6,834.7,694.189,834.7Z" transform="translate(-693.771 -811.639)" fill="#d66b09"/>
            </g>
          </g>
          <g id="Group_286" data-name="Group 286" transform="translate(12.64 2.586)">
            <g id="Group_285" data-name="Group 285">
              <path id="Path_323" data-name="Path 323" d="M695.743,822.142l-.193-1.294c4.4-.653,12-3.264,19.855-6.815,8.227-3.721,15.352-7.831,18.6-10.726l.871.976c-3.335,2.978-10.588,7.171-18.928,10.943C707.99,818.822,700.25,821.472,695.743,822.142Z" transform="translate(-695.55 -803.306)" fill="#d66b09"/>
            </g>
          </g>
          <g id="Group_288" data-name="Group 288" transform="translate(12.229 11.993)">
            <g id="Group_287" data-name="Group 287">
              <path id="Path_324" data-name="Path 324" d="M694.973,841.946h-.047l.007-1.308h.043c4.523,0,15.043-3.385,26.215-8.438,11.761-5.319,21.642-11.316,24.03-14.586l1.057.772c-2.548,3.487-12.412,9.518-24.548,15.006C710.405,838.514,699.667,841.946,694.973,841.946Z" transform="translate(-694.926 -817.614)" fill="#d66b09"/>
            </g>
          </g>
          <g id="Group_290" data-name="Group 290" transform="translate(30.409 39.608)">
            <g id="Group_289" data-name="Group 289">
              <path id="Path_325" data-name="Path 325" d="M722.724,876.37l-.024-.324-.122-.305.047-.019.052,0c3.873-.279,11.245-2.661,18.78-6.069,7.577-3.427,14.05-7.27,16.893-10.032l.456.469c-2.894,2.81-9.439,6.7-17.08,10.158C734.009,873.734,726.728,876.081,722.724,876.37Z" transform="translate(-722.578 -859.617)" fill="#d66b09"/>
            </g>
          </g>
          <g id="Group_292" data-name="Group 292" transform="translate(21.711 30.438)">
            <g id="Group_291" data-name="Group 291">
              <path id="Path_326" data-name="Path 326" d="M727.641,873.5a29.206,29.206,0,0,1-17.2-5.591l-1.093-.8,1.312-.33a152.32,152.32,0,0,0,45-20.351l1.114-.767-.124,1.347A29.121,29.121,0,0,1,727.641,873.5Zm-15.327-5.836a27.881,27.881,0,0,0,42.916-19.409,155.132,155.132,0,0,1-42.916,19.409Z" transform="translate(-709.348 -845.669)" fill="#371a45"/>
            </g>
          </g>
          <g id="Group_294" data-name="Group 294" transform="translate(0.636 11.385)">
            <g id="Group_293" data-name="Group 293">
              <path id="Path_327" data-name="Path 327" d="M759.02,819.714c1.721,3.8-3.953,10.41-13.982,17.317a152.936,152.936,0,0,1-45.2,20.445c-11.809,2.97-20.515,2.868-22.236-.938-1.563-3.456,2.971-9.218,11.325-15.421A28.549,28.549,0,0,0,690,844.581c-2.31,1.889-3.447,3.387-3.052,4.261.4.89,2.343,1.014,5.385.494,5.878-1.005,15.87-4.417,26.81-9.365s20.1-10.2,24.738-13.948c2.4-1.941,3.586-3.481,3.184-4.37-.395-.872-2.271-1.009-5.214-.523a28.5,28.5,0,0,0-1.89-3.1C750.135,815.858,757.457,816.259,759.02,819.714Z" transform="translate(-677.293 -816.69)" fill="#ffc943"/>
            </g>
          </g>
          <g id="Group_296" data-name="Group 296" transform="translate(7.097 13.66)">
            <g id="Group_295" data-name="Group 295">
              <path id="Path_328" data-name="Path 328" d="M691.649,853.515c-2.164,0-3.812-.448-4.352-1.644-.775-1.714,1.016-4.315,5.323-7.731l.609.769c-3.689,2.926-5.573,5.378-5.039,6.558.639,1.412,5.327,1.868,16.438-1.491a167.639,167.639,0,0,0,36.314-16.423c9.861-6.125,12.614-9.947,11.975-11.359-.534-1.181-3.619-1.385-8.253-.547l-.174-.965c5.41-.979,8.547-.606,9.321,1.107,1.514,3.346-7.089,9.329-12.351,12.6a168.658,168.658,0,0,1-36.547,16.529C701.1,852.067,695.54,853.515,691.649,853.515Z" transform="translate(-687.121 -820.149)" fill="#ffec90"/>
            </g>
          </g>
          <g id="Group_298" data-name="Group 298" transform="translate(3.367 12.141)">
            <g id="Group_297" data-name="Group 297">
              <path id="Path_329" data-name="Path 329" d="M688.215,856.567c-3.523,0-5.773-.81-6.506-2.43-1.518-3.357,3.846-8.371,8.612-11.986l.593.782c-6.153,4.666-9.259,8.7-8.311,10.8,1.195,2.642,8.535,2.469,19.157-.45a157.86,157.86,0,0,0,40.924-18.509c9.207-6.048,14.185-11.447,12.989-14.089-.948-2.1-6.032-2.43-13.6-.891l-.2-.962c5.862-1.192,13.17-1.909,14.688,1.448,1.451,3.208-3.413,8.789-13.345,15.314a158.875,158.875,0,0,1-41.2,18.635A55.283,55.283,0,0,1,688.215,856.567Z" transform="translate(-681.447 -817.84)" fill="#ffec90"/>
            </g>
          </g>
          <g id="Group_300" data-name="Group 300" transform="translate(0 10.74)">
            <g id="Group_299" data-name="Group 299">
              <path id="Path_330" data-name="Path 330" d="M685.555,859.865c-4.762,0-7.843-1.141-8.865-3.4-1.667-3.685,2.426-9.435,11.524-16.191l.769-.571.225.93a27.841,27.841,0,0,0,1.053,3.387l.163.427-.354.29c-3.221,2.634-2.892,3.475-2.876,3.509s.441.859,4.7.131c6-1.027,16.218-4.6,26.656-9.318s19.865-10.033,24.6-13.864c3.358-2.718,3.021-3.581,3-3.616s-.43-.837-4.533-.159l-.451.074-.213-.4a27.818,27.818,0,0,0-1.848-3.027l-.55-.783.935-.2c11.082-2.372,18.1-1.648,19.769,2.038h0c1.824,4.032-3.352,10.629-14.2,18.1a153.569,153.569,0,0,1-45.409,20.536A60.174,60.174,0,0,1,685.555,859.865Zm2.662-18.01c-7.818,5.945-11.686,11.181-10.373,14.085,1.5,3.319,9.741,3.543,21.5.584a152.314,152.314,0,0,0,45-20.351c9.991-6.88,15.265-13.216,13.764-16.535h0c-1.314-2.9-7.8-3.458-17.428-1.513q.628.962,1.182,1.973c3.2-.48,4.934-.173,5.445.957.542,1.2-.525,2.828-3.362,5.123-4.887,3.953-14.186,9.2-24.875,14.034s-20.769,8.352-26.965,9.412c-3.6.614-5.527.342-6.069-.858-.511-1.13.4-2.636,2.879-4.722C688.655,843.326,688.421,842.593,688.217,841.856Z" transform="translate(-676.325 -815.708)" fill="#371a45"/>
            </g>
          </g>
          <g id="Group_302" data-name="Group 302" transform="translate(23.177 31.727)" opacity="0.35">
            <g id="Group_301" data-name="Group 301">
              <path id="Path_331" data-name="Path 331" d="M756.782,847.629a28.2,28.2,0,0,1-.532,3.45,28.53,28.53,0,0,1-44.672,16.995,152.95,152.95,0,0,0,45.2-20.444Z" transform="translate(-711.578 -847.629)" fill="#371a45"/>
            </g>
          </g>
          <g id="Group_305" data-name="Group 305" transform="translate(14.686 0.627)" opacity="0.41">
            <g id="Group_304" data-name="Group 304">
              <g id="Group_303" data-name="Group 303">
                <path id="Path_332" data-name="Path 332" d="M751.2,820.418q-.81.655-1.8,1.367-.4-1.125-.9-2.233l-.158-.341q-.291-.625-.609-1.227a28.722,28.722,0,0,0-1.89-3.1c-.083-.118-.167-.234-.251-.35a28.129,28.129,0,0,0-3.488-3.969,28.521,28.521,0,0,0-43.444,5.137,28.5,28.5,0,0,1,48.367-3.627c.086.116.168.234.251.352a28.515,28.515,0,0,1,1.89,3.095q.318.6.609,1.227c.055.113.107.226.158.343A28.637,28.637,0,0,1,751.2,820.418Z" transform="translate(-698.663 -800.327)" fill="#fff"/>
              </g>
            </g>
          </g>
          <g id="Group_307" data-name="Group 307" transform="translate(10.836)">
            <g id="Group_306" data-name="Group 306">
              <path id="Path_333" data-name="Path 333" d="M697.33,844.1l-.224-.366a29.327,29.327,0,0,1-1.7-3.212c-.246-.544-.477-1.1-.686-1.648a29.139,29.139,0,0,1,53-23.971c.274.52.538,1.059.784,1.6h0a29.384,29.384,0,0,1,1.29,3.4l.127.41-.334.27c-4.887,3.953-14.186,9.2-24.875,14.033s-20.769,8.352-26.965,9.412Zm24.617-43.461a27.844,27.844,0,0,0-26.042,37.784c.2.526.421,1.057.656,1.577a28.17,28.17,0,0,0,1.4,2.7c6.054-1.118,16.036-4.632,26.231-9.243s19.427-9.787,24.264-13.594a28.217,28.217,0,0,0-1.1-2.84h0c-.235-.52-.488-1.036-.751-1.534a27.8,27.8,0,0,0-24.657-14.855Z" transform="translate(-692.806 -799.373)" fill="#371a45"/>
            </g>
          </g>
          <g id="Group_310" data-name="Group 310" transform="translate(0.635 18.219)" opacity="0.35">
            <g id="Group_309" data-name="Group 309">
              <g id="Group_308" data-name="Group 308">
                <path id="Path_334" data-name="Path 334" d="M758.787,827.083c-1.573,3.727-6.535,8.541-13.75,13.509a152.99,152.99,0,0,1-45.2,20.444c-11.809,2.969-20.515,2.867-22.237-.937-1.045-2.309.634-5.651,4.358-9.464a4.7,4.7,0,0,0-.231,3.809c1.722,3.805,10.427,3.909,22.237.937a152.845,152.845,0,0,0,45.2-20.444A65.607,65.607,0,0,0,758.787,827.083Z" transform="translate(-677.291 -827.083)" fill="#371a45"/>
              </g>
            </g>
          </g>
        </g>
        <g id="Group_313" data-name="Group 313" transform="translate(37.57 13.301)">
          <g id="Group_312" data-name="Group 312">
            <path id="Path_335" data-name="Path 335" d="M733.469,819.6" transform="translate(-733.469 -819.604)" fill="#fff"/>
          </g>
        </g>
      </g>
    </g>
  </g>
</svg>
