<svg xmlns="http://www.w3.org/2000/svg" xmlns:xlink="http://www.w3.org/1999/xlink" width="2700" height="172" viewBox="0 0 2700 172">
  <defs>
    <clipPath id="clip-path">
      <rect id="Rectangle_1791" data-name="Rectangle 1791" width="2700" height="172" transform="translate(2734 -2003)" fill="#783b3b" stroke="#707070" stroke-width="1"/>
    </clipPath>
  </defs>
  <g id="Mask_Group_1" data-name="Mask Group 1" transform="translate(-2734 2003)" clip-path="url(#clip-path)">
    <path id="Union_3" data-name="Union 3" d="M1939,211.626H0V96.313C10.367,70.841,36.752,52.738,67.677,52.738a75.992,75.992,0,0,1,36.518,9.235C116.753,26,152.955,0,195.683,0c42.711,0,78.9,25.987,91.473,61.937A82.939,82.939,0,0,1,307.8,59.33a80.459,80.459,0,0,1,53.015,19.535c15.063-30.034,47.711-50.848,85.585-50.848,38.517,0,71.63,21.535,86.332,52.4a101.659,101.659,0,0,1,16.131-1.305A98.41,98.41,0,0,1,607.342,98.05C625.456,74.606,654.948,59.33,688.28,59.33c36.987,0,69.247,18.8,86.475,46.715A90.779,90.779,0,0,1,899.9,102.3c10.964-49.922,58.294-87.47,115.017-87.47a123.459,123.459,0,0,1,56.571,13.544C1089.037,10.915,1113.973,0,1141.652,0c42.711,0,78.9,25.987,91.472,61.937a82.946,82.946,0,0,1,20.643-2.607,80.456,80.456,0,0,1,53.014,19.535c15.064-30.034,47.712-50.848,85.585-50.848,38.517,0,71.631,21.535,86.333,52.4a101.649,101.649,0,0,1,16.13-1.305,98.409,98.409,0,0,1,58.482,18.943c18.113-23.445,47.605-38.721,80.937-38.721,36.988,0,69.248,18.8,86.476,46.715a90.779,90.779,0,0,1,125.145-3.741c9.518-43.339,46.445-77.346,93.13-85.564V16.7l.1.018.1-.018v.036c46.687,8.217,83.613,42.225,93.131,85.564a90.778,90.778,0,0,1,125.144,3.741c17.229-27.91,49.488-46.715,86.476-46.715,33.332,0,62.824,15.276,80.937,38.721a98.412,98.412,0,0,1,58.482-18.943,101.674,101.674,0,0,1,16.132,1.305c14.7-30.86,47.814-52.4,86.332-52.4,37.874,0,70.522,20.814,85.585,50.848A80.459,80.459,0,0,1,2624.44,59.33a82.934,82.934,0,0,1,20.642,2.607C2657.652,25.987,2693.844,0,2736.555,0c27.678,0,52.615,10.915,70.162,28.378a123.46,123.46,0,0,1,56.572-13.544c56.723,0,104.053,37.548,115.017,87.47a89.446,89.446,0,0,1,60.661-23.2c25.628,0,48.643,10.409,64.483,26.937,17.229-27.91,49.488-46.715,86.476-46.715,33.332,0,62.823,15.276,80.937,38.721a98.411,98.411,0,0,1,58.482-18.943,101.681,101.681,0,0,1,16.132,1.305c14.7-30.86,47.814-52.4,86.332-52.4,37.874,0,70.522,20.814,85.585,50.848a80.456,80.456,0,0,1,53.015-19.535,82.946,82.946,0,0,1,20.642,2.607C3603.62,25.987,3639.812,0,3682.523,0c42.728,0,78.93,26,91.488,61.973a75.988,75.988,0,0,1,36.517-9.235c30.925,0,57.31,18.1,67.678,43.575V211.626Z" transform="translate(2713.664 -1929.217)" fill="#fff" stroke="rgba(0,0,0,0)" stroke-miterlimit="10" stroke-width="1"/>
    <path id="Union_1" data-name="Union 1" d="M1938.113,263.093l-.1,0v-.005L760.981,233.24c.359-.724.722-1.565,1.087-2.51L0,226.4l1.289-102C12,102.8,34.857,87.879,61.321,87.879a68.39,68.39,0,0,1,24.873,4.659c3.176-27.716,27.508-49.274,57.064-49.274a58.732,58.732,0,0,1,28.97,7.576C182.191,21.333,210.91,0,244.806,0S307.4,21.318,317.37,50.811a63.725,63.725,0,0,1,16.375-2.14A62.6,62.6,0,0,1,375.8,64.7c11.949-24.639,37.85-41.716,67.894-41.716,30.555,0,56.824,17.668,68.487,42.985a78.074,78.074,0,0,1,12.8-1.071,76.348,76.348,0,0,1,46.393,15.541,80.66,80.66,0,0,1,132.807,6.556,70.31,70.31,0,0,1,99.277-3.07c8.7-40.953,46.244-71.756,91.242-71.756a95.326,95.326,0,0,1,44.874,11.116A77.378,77.378,0,0,1,995.237,0c33.882,0,62.593,21.318,72.564,50.811a63.72,63.72,0,0,1,16.375-2.14A62.6,62.6,0,0,1,1126.233,64.7c11.949-24.639,37.849-41.716,67.893-41.716,30.556,0,56.824,17.668,68.487,42.985a78.078,78.078,0,0,1,12.8-1.071A76.347,76.347,0,0,1,1321.8,80.438a80.66,80.66,0,0,1,132.808,6.556,70.31,70.31,0,0,1,99.277-3.07c8.7-40.953,46.244-71.756,91.242-71.756,35.246,0,65.911,18.9,81.732,46.771a68.064,68.064,0,0,1,17.014-2.155c31.28,0,57.445,21.066,64.146,49.3a84.843,84.843,0,0,1,52.795-18.2c29.23,0,60.083,14.538,74.962,36.517l2.334,132.834,2.333-132.834c14.879-21.979,45.732-36.517,74.962-36.517a84.844,84.844,0,0,1,52.8,18.2c6.7-28.23,32.866-49.3,64.146-49.3a68.068,68.068,0,0,1,17.015,2.155c15.82-27.87,46.486-46.771,81.732-46.771,45,0,82.544,30.8,91.243,71.756a70.309,70.309,0,0,1,99.276,3.07,80.66,80.66,0,0,1,132.808-6.556A76.348,76.348,0,0,1,2600.815,64.9a78.076,78.076,0,0,1,12.8,1.071c11.663-25.317,37.931-42.985,68.487-42.985,30.045,0,55.944,17.077,67.893,41.716a62.605,62.605,0,0,1,42.056-16.027,63.721,63.721,0,0,1,16.375,2.14C2818.4,21.318,2847.107,0,2880.989,0a77.38,77.38,0,0,1,55.664,23.284,95.32,95.32,0,0,1,44.873-11.116c45,0,82.545,30.8,91.243,71.756a70.31,70.31,0,0,1,99.277,3.07,80.659,80.659,0,0,1,132.807-6.556A76.348,76.348,0,0,1,3351.246,64.9a78.086,78.086,0,0,1,12.8,1.071c11.662-25.317,37.931-42.985,68.487-42.985,30.044,0,55.944,17.077,67.893,41.716a62.6,62.6,0,0,1,42.056-16.027,63.713,63.713,0,0,1,16.375,2.14C3568.828,21.318,3597.537,0,3631.421,0S3694.035,21.333,3704,50.84a58.732,58.732,0,0,1,28.97-7.576c29.556,0,53.888,21.558,57.064,49.274a68.389,68.389,0,0,1,24.873-4.659c26.464,0,49.319,14.917,60.033,36.517l1.288,102-762.069,4.332c.365.945.728,1.786,1.087,2.51L1938.216,263.09v.005Z" transform="translate(2714.654 -1979.123)" fill="#fff" stroke="rgba(0,0,0,0)" stroke-miterlimit="10" stroke-width="1" opacity="0.44"/>
  </g>
</svg>
