<svg xmlns="http://www.w3.org/2000/svg" xmlns:xlink="http://www.w3.org/1999/xlink" width="2700" height="214" viewBox="0 0 2700 214">
  <defs>
    <clipPath id="clip-path">
      <rect id="Rectangle_1792" data-name="Rectangle 1792" width="2700" height="214" fill="#783b3b" stroke="#707070" stroke-width="1"/>
    </clipPath>
  </defs>
  <g id="Mask_Group_2" data-name="Mask Group 2" clip-path="url(#clip-path)">
    <path id="Union_4" data-name="Union 4" d="M1939,0H0V115.313c10.367,25.472,36.752,43.575,67.677,43.575a75.992,75.992,0,0,0,36.518-9.235c12.559,35.968,48.76,61.973,91.488,61.973,42.711,0,78.9-25.987,91.473-61.937A82.939,82.939,0,0,0,307.8,152.3a80.458,80.458,0,0,0,53.015-19.535c15.063,30.034,47.711,50.848,85.585,50.848,38.517,0,71.63-21.535,86.332-52.4a101.659,101.659,0,0,0,16.131,1.305,98.41,98.41,0,0,0,58.482-18.943C625.456,137.02,654.948,152.3,688.28,152.3c36.987,0,69.247-18.8,86.475-46.715A90.779,90.779,0,0,0,899.9,109.323c10.964,49.922,58.294,87.47,115.017,87.47a123.459,123.459,0,0,0,56.571-13.544c17.549,17.463,42.485,28.378,70.163,28.378,42.711,0,78.9-25.987,91.472-61.937a82.946,82.946,0,0,0,20.643,2.607,80.456,80.456,0,0,0,53.014-19.535c15.064,30.034,47.712,50.848,85.585,50.848,38.517,0,71.631-21.535,86.333-52.4a101.649,101.649,0,0,0,16.13,1.305,98.409,98.409,0,0,0,58.482-18.943c18.113,23.445,47.605,38.721,80.937,38.721,36.988,0,69.248-18.8,86.476-46.715a90.779,90.779,0,0,0,125.145,3.741c9.518,43.339,46.445,77.346,93.13,85.564v.036l.1-.018.1.018v-.036c46.687-8.217,83.613-42.225,93.131-85.564a90.778,90.778,0,0,0,125.144-3.741c17.229,27.91,49.488,46.715,86.476,46.715,33.332,0,62.824-15.276,80.937-38.721a98.412,98.412,0,0,0,58.482,18.943,101.674,101.674,0,0,0,16.132-1.305c14.7,30.86,47.814,52.4,86.332,52.4,37.874,0,70.522-20.814,85.585-50.848A80.459,80.459,0,0,0,2624.44,152.3a82.934,82.934,0,0,0,20.642-2.607c12.57,35.95,48.761,61.937,91.473,61.937,27.678,0,52.615-10.915,70.162-28.378a123.46,123.46,0,0,0,56.572,13.544c56.723,0,104.053-37.548,115.017-87.47a89.446,89.446,0,0,0,60.661,23.2c25.628,0,48.643-10.409,64.483-26.937,17.229,27.91,49.488,46.715,86.476,46.715,33.332,0,62.823-15.276,80.937-38.721a98.411,98.411,0,0,0,58.482,18.943,101.681,101.681,0,0,0,16.132-1.305c14.7,30.86,47.814,52.4,86.332,52.4,37.874,0,70.522-20.814,85.585-50.848a80.456,80.456,0,0,0,53.015,19.535,82.946,82.946,0,0,0,20.642-2.607c12.569,35.95,48.761,61.937,91.473,61.937,42.728,0,78.93-26,91.488-61.973a75.988,75.988,0,0,0,36.517,9.235c30.925,0,57.31-18.1,67.678-43.575V0Z" transform="translate(-330.336 -74.409)" fill="#fff" stroke="rgba(0,0,0,0)" stroke-miterlimit="10" stroke-width="1"/>
    <path id="Union_6" data-name="Union 6" d="M1938.114,0l-.1,0V.005L760.982,29.855c.359.724.722,1.565,1.087,2.51L0,36.7l1.289,102C12,160.3,34.857,175.217,61.322,175.217a68.39,68.39,0,0,0,24.873-4.659c3.176,27.716,27.508,49.274,57.064,49.274a58.732,58.732,0,0,0,28.97-7.576c9.962,29.507,38.681,50.84,72.577,50.84s62.593-21.318,72.564-50.811a63.725,63.725,0,0,0,16.375,2.14A62.6,62.6,0,0,0,375.8,198.4c11.949,24.639,37.85,41.716,67.894,41.716,30.555,0,56.824-17.668,68.487-42.985a78.074,78.074,0,0,0,12.8,1.071,76.348,76.348,0,0,0,46.393-15.541A80.66,80.66,0,0,0,704.181,176.1a70.31,70.31,0,0,0,99.277,3.07c8.7,40.953,46.244,71.756,91.242,71.756a95.326,95.326,0,0,0,44.874-11.116A77.378,77.378,0,0,0,995.237,263.1c33.882,0,62.593-21.318,72.564-50.811a63.72,63.72,0,0,0,16.375,2.14,62.6,62.6,0,0,0,42.056-16.027c11.949,24.639,37.849,41.716,67.893,41.716,30.556,0,56.824-17.668,68.487-42.985a78.078,78.078,0,0,0,12.8,1.071,76.347,76.347,0,0,0,46.393-15.541,80.66,80.66,0,0,0,132.808-6.556,70.31,70.31,0,0,0,99.277,3.07c8.7,40.953,46.244,71.756,91.242,71.756,35.246,0,65.911-18.9,81.732-46.771a68.064,68.064,0,0,0,17.014,2.155c31.28,0,57.445-21.066,64.146-49.3a84.843,84.843,0,0,0,52.795,18.2c29.23,0,60.083-14.538,74.962-36.517l2.334-132.834,2.333,132.834c14.879,21.979,45.732,36.517,74.962,36.517a84.844,84.844,0,0,0,52.8-18.2c6.7,28.23,32.866,49.3,64.146,49.3a68.068,68.068,0,0,0,17.015-2.155c15.82,27.87,46.486,46.771,81.732,46.771,45,0,82.544-30.8,91.243-71.756a70.309,70.309,0,0,0,99.276-3.07,80.66,80.66,0,0,0,132.808,6.556,76.348,76.348,0,0,0,46.393,15.541,78.076,78.076,0,0,0,12.8-1.071c11.663,25.317,37.931,42.985,68.487,42.985,30.045,0,55.944-17.077,67.893-41.716a62.605,62.605,0,0,0,42.056,16.027,63.721,63.721,0,0,0,16.375-2.14c9.972,29.493,38.682,50.811,72.564,50.811a77.38,77.38,0,0,0,55.664-23.284,95.32,95.32,0,0,0,44.873,11.116c45,0,82.545-30.8,91.243-71.756a70.31,70.31,0,0,0,99.277-3.07,80.659,80.659,0,0,0,132.807,6.556,76.348,76.348,0,0,0,46.393,15.541,78.086,78.086,0,0,0,12.8-1.071c11.662,25.317,37.931,42.985,68.487,42.985,30.044,0,55.944-17.077,67.893-41.716a62.6,62.6,0,0,0,42.056,16.027,63.713,63.713,0,0,0,16.375-2.14c9.972,29.493,38.681,50.811,72.565,50.811s62.614-21.333,72.577-50.84a58.732,58.732,0,0,0,28.97,7.576c29.556,0,53.888-21.558,57.064-49.274a68.389,68.389,0,0,0,24.873,4.659c26.464,0,49.319-14.917,60.033-36.517l1.288-102-762.069-4.332c.365-.945.728-1.786,1.087-2.51L1938.217.005V0Z" transform="translate(-329.346 -75.973)" fill="#fff" stroke="rgba(0,0,0,0)" stroke-miterlimit="10" stroke-width="1" opacity="0.44"/>
  </g>
</svg>
