<svg xmlns="http://www.w3.org/2000/svg" width="90.751" height="61.129" viewBox="0 0 90.751 61.129">
  <g id="Group_1031" data-name="Group 1031" transform="translate(0 0)">
    <g id="Group_1030" data-name="Group 1030">
      <path id="Path_1236" data-name="Path 1236" d="M575.608,7141.034c6.467.308,12.572-2.794,15.552-7.9a.873.873,0,0,1,.8-.355,1.141,1.141,0,0,1,.115.011c3.8.566,9.515,1.349,15.255,1.622,14.206.675,23.8-1.973,29.338-8.093,7.27-8.039,7.022-19.565-.6-28.03a.428.428,0,0,0-.086-.067.757.757,0,0,1-.174-.155,23.136,23.136,0,0,0-3.1-3.3c-7.989-7.543-20.639-10.945-29.851-12.475a84.933,84.933,0,0,0-9.877-1.048c-16.824-.8-36.033,3.478-39.489,17.875a19.707,19.707,0,0,0,1.705,14.268.422.422,0,0,1,.038.087,12.929,12.929,0,0,0,3.152,5.13.56.56,0,0,1,.075.087c3.124,4.384,8.271,7.813,14.882,9.912.389.124.6.436.5.728a7.887,7.887,0,0,1-.35.829c-1.054,2.15-2.633,4.735-5.5,5.661a1.05,1.05,0,0,1-.213.043,1.22,1.22,0,0,1-.211.125c-.037.053-.016.125.066.2a.689.689,0,0,1,.069.079.339.339,0,0,0,.174.133,20.069,20.069,0,0,0,3.8.913.831.831,0,0,1,.66.425.49.49,0,0,1-.2.612,7.894,7.894,0,0,1-2.259,1.122c-.135.04-.135.066-.135.1a.491.491,0,0,0,.331.37,19.68,19.68,0,0,0,5.54,1.089Z" transform="translate(-552.026 -7080.536)" fill="#fff"/>
      <path id="Path_1237" data-name="Path 1237" d="M572.461,7128.746a7.625,7.625,0,0,1-.329.778c-.9,1.84-2.408,4.465-5.07,5.323a.985.985,0,0,0-.556.222c-.509.258-.464.721-.1,1.066a1.145,1.145,0,0,0,.565.4,21.072,21.072,0,0,0,4,.962,6.989,6.989,0,0,1-2.014,1c-1.044.312-.621,1.293.208,1.582,9.51,3.311,18.535-.819,22.205-7.105,15.474,2.305,35.676,4.072,45.438-6.722,7.518-8.313,7.086-20.156-.61-28.7a1.146,1.146,0,0,0-.235-.194,23.578,23.578,0,0,0-3.2-3.4c-6.952-6.565-18.146-10.655-30.311-12.677-20.35-3.381-46.233.143-50.352,17.3a20.069,20.069,0,0,0,1.754,14.6,13.534,13.534,0,0,0,3.3,5.362C560.464,7123.192,565.788,7126.628,572.461,7128.746Zm1.359-4.353c-2.347-1.135-5.394-1.5-7.795-2.726a25.944,25.944,0,0,1-5.58-3.613,19.074,19.074,0,0,1-6.207-9.961c-1.388-6.451.23-14.274,6.562-19.055,8.888-6.711,22.563-8.4,35.058-6.956,20.028,2.31,42.264,10.407,41.794,27.39a18.723,18.723,0,0,1-10.674,16.464c-10.818,5.473-25.861,3.588-38.183,1.71a1.324,1.324,0,0,0-1.478.53c-2.743,5.4-9.716,9.047-17.467,7.34C573.611,7132.93,577.987,7126.409,573.82,7124.393Zm-7.285-35.443c-6.327,3.921-7.558,9.009-9.847,14.5-.049.116-.307.111-.338-.016-2.24-9.388,12.121-19.935,24.606-20.274.162,0,.223.188.073.229C575.62,7084.887,571.017,7086.174,566.535,7088.95Zm-9.8,15.563a.145.145,0,0,1,.133.047c.317.392.236.914.326,1.35.047.226.207.987-.418.905-.7-.09-.628-.888-.66-1.265C556.079,7105.155,556.138,7104.637,556.732,7104.512Zm53.243,22.98c4.7-.736,8.958-1.292,13.191-3.053,4.635-1.928,7.212-4.855,10.331-7.852.078-.074.222-.016.2.072-1.713,6.5-14.85,12.371-23.673,11.178C609.768,7127.8,609.695,7127.536,609.975,7127.492Zm-3.27-.159a2.828,2.828,0,0,1,1.621.413.06.06,0,0,1,0,.1,2.824,2.824,0,0,1-1.653.258,3.037,3.037,0,0,1-1.779-.387.1.1,0,0,1,.008-.17A3.046,3.046,0,0,1,606.7,7127.333Z" transform="translate(-551.462 -7080.126)"/>
    </g>
    <text id="WE_ARE_HERE" data-name="WE ARE
HERE" transform="matrix(0.992, 0.126, -0.124, 0.992, 42.731, 23.459)" fill="#010100" font-size="13" font-family="SnowyNight, Snowy Night" letter-spacing="-0.015em"><tspan x="-17.66" y="0">WE ARE</tspan><tspan x="-11.291" y="12">HERE</tspan></text>
  </g>
</svg>
