<svg xmlns="http://www.w3.org/2000/svg" width="353.649" height="432.781" viewBox="0 0 353.649 432.781">
  <g id="Group_3111" data-name="Group 3111" transform="translate(-486.812 -378.619)">
    <g id="Group_796" data-name="Group 796" transform="translate(486.812 378.619)">
      <g id="Group_795" data-name="Group 795">
        <g id="Group_787" data-name="Group 787" transform="translate(0 15.98)" opacity="0.47">
          <path id="Path_1094" data-name="Path 1094" d="M651.369,5941.045a11.3,11.3,0,0,1,6.768-5.48l38.068-11.286-5.1-29.428a11.392,11.392,0,0,1,9.267-13.156l45.466-7.886,2.225-15.443a11.393,11.393,0,0,1,12.886-9.641l70.749,10.192,90.148-15.636A11.39,11.39,0,0,1,935,5852.546l3.781,21.8,44.65,6.432a11.379,11.379,0,0,1,9.64,12.885l-23.112,160.435,18.882,108.866a11.391,11.391,0,0,1-9.266,13.155l-3.618.627,1.382,4.662a11.394,11.394,0,0,1-7.675,14.145l-20.979,6.218-.535,3.721a11.4,11.4,0,0,1-9.3,9.592,11.435,11.435,0,0,1-3.58.047l-21.3-3.069L754.15,6259.437a11.377,11.377,0,0,1-14.142-7.675l-20.055-67.649-7.176-1.034a11.381,11.381,0,0,1-9.639-12.885l4.149-28.806-56.824-191.679A11.306,11.306,0,0,1,651.369,5941.045Z" transform="translate(-649.987 -5843.111)" fill="#2a1344"/>
        </g>
        <g id="Group_788" data-name="Group 788" transform="translate(11.74 29.378)">
          <rect id="Rectangle_267" data-name="Rectangle 267" width="241.024" height="331.291" rx="11.406" transform="translate(0 68.506) rotate(-16.513)" fill="#fff"/>
          <path id="Path_1095" data-name="Path 1095" d="M758.493,6241.018l-89.545-302.054a8.6,8.6,0,0,1,5.792-10.675l215.51-63.889a8.587,8.587,0,0,1,10.673,5.791l89.546,302.057a8.586,8.586,0,0,1-5.792,10.672l-215.51,63.889a8.416,8.416,0,0,1-.979.229A8.6,8.6,0,0,1,758.493,6241.018Zm225.919-58.99a7.655,7.655,0,0,0,5.164-9.517L900.03,5870.456a7.654,7.654,0,0,0-9.516-5.163L675,5929.181a7.664,7.664,0,0,0-5.164,9.516l89.545,302.055a7.661,7.661,0,0,0,9.516,5.165Z" transform="translate(-667.085 -5862.538)" fill="#2b0c4f"/>
        </g>
        <g id="Group_789" data-name="Group 789" transform="translate(10.455 28.088)">
          <path id="Path_1096" data-name="Path 1096" d="M754.686,6240.678l-89.546-302.054a11.393,11.393,0,0,1,7.675-14.143l215.51-63.889a11.378,11.378,0,0,1,14.144,7.674l89.545,302.056a11.378,11.378,0,0,1-7.675,14.143l-215.51,63.889h0a11.145,11.145,0,0,1-1.3.3A11.4,11.4,0,0,1,754.686,6240.678Zm12.293,1.43,215.51-63.888a4.866,4.866,0,0,0,3.28-6.048l-89.545-302.055a4.863,4.863,0,0,0-6.046-3.28l-215.51,63.89a4.869,4.869,0,0,0-3.281,6.046l89.545,302.056a4.864,4.864,0,0,0,6.047,3.279Z" transform="translate(-664.67 -5860.117)" fill="#2b0c4f"/>
        </g>
        <g id="Group_790" data-name="Group 790" transform="translate(66.276 8.289)">
          <path id="Path_1097" data-name="Path 1097" d="M750.682,6160.95l16.585,2.392,154.806,22.3,51.1,7.364a8.127,8.127,0,0,0,9.2-6.884l1.616-11.217,13.572-94.206,29.736-206.409a8.127,8.127,0,0,0-6.884-9.2l-61.792-8.9-41.345-5.957-119.351-17.192a8.123,8.123,0,0,0-9.2,6.884l-4.816,33.438L753.539,6084.2l-9.731,67.557A8.112,8.112,0,0,0,750.682,6160.95Z" transform="translate(-743.256 -5832.499)" fill="#fff"/>
          <path id="Path_1098" data-name="Path 1098" d="M972.918,6193.279l-222.49-32.057h0a8.576,8.576,0,0,1-7.269-9.725l44.915-311.822a8.605,8.605,0,0,1,9.723-7.277l222.488,32.046a8.6,8.6,0,0,1,7.279,9.723L982.64,6186a8.611,8.611,0,0,1-7.026,7.242A8.612,8.612,0,0,1,972.918,6193.279ZM789,5839.808,744.08,6151.63a7.647,7.647,0,0,0,6.48,8.67l222.49,32.057a7.661,7.661,0,0,0,8.669-6.49l44.923-311.832a7.665,7.665,0,0,0-6.49-8.668l-222.489-32.048a7.655,7.655,0,0,0-8.668,6.489Z" transform="translate(-743.068 -5832.31)" fill="#2b0c4f"/>
        </g>
        <g id="Group_791" data-name="Group 791" transform="translate(76.1 20.044)" opacity="0.35">
          <path id="Path_1099" data-name="Path 1099" d="M757.509,6088.949l13.729,79.147,154.806,22.3,52.878-9.171.278-1.936,13.572-94.207,3.943-27.367-34.951-201.506a8.125,8.125,0,0,0-9.393-6.616l-164.493,28.531Z" transform="translate(-757.05 -5849.007)" fill="#262f6a"/>
          <path id="Path_1100" data-name="Path 1100" d="M770.651,6168.322l-13.786-79.481,30.414-211.3L952.1,5848.947a8.6,8.6,0,0,1,9.931,6.994L997,6057.522l-17.525,121.644-.326,2.272-53.284,9.243Zm225.406-110.786L961.119,5856.1a7.667,7.667,0,0,0-8.855-6.237L788.1,5878.336,757.8,6088.755l13.657,78.742,154.4,22.242,52.472-9.1Z" transform="translate(-756.865 -5848.819)" fill="#2b0c4f"/>
        </g>
        <g id="Group_792" data-name="Group 792" transform="translate(63.483 5.495)">
          <path id="Path_1101" data-name="Path 1101" d="M971.386,6194.909,748.9,6162.859a11.379,11.379,0,0,1-9.64-12.885l44.921-311.83a11.393,11.393,0,0,1,12.885-9.64l222.485,32.05a11.4,11.4,0,0,1,9.639,12.887l-44.921,311.828a11.358,11.358,0,0,1-12.886,9.64ZM790.632,5839.074,745.711,6150.9a4.867,4.867,0,0,0,4.12,5.508h0l222.485,32.051a4.865,4.865,0,0,0,5.508-4.123l44.922-311.829a4.871,4.871,0,0,0-4.121-5.508l-222.484-32.049a4.825,4.825,0,0,0-1.522.019A4.875,4.875,0,0,0,790.632,5839.074Z" transform="translate(-739.144 -5828.387)" fill="#2b0c4f"/>
        </g>
        <g id="Group_793" data-name="Group 793" transform="translate(54.072 2.792)">
          <path id="Path_1102" data-name="Path 1102" d="M784.365,6189.808l222.153-39.873c16.907-2.934,7.508,2.135,7.508-29.976l-46-265.192c-2.932-16.906-3.871-30.173-8.5-28.806l-203.67,34.074c-16.907,2.933-30.887,9.142-29.875,12.92l50.57,288.194C779.482,6178.058,784.741,6189.6,784.365,6189.808Z" transform="translate(-725.927 -5824.958)" fill="#ffb3a9"/>
          <path id="Path_1103" data-name="Path 1103" d="M780.059,6183.474,726.218,5873.06a8.6,8.6,0,0,1,6.994-9.927l221.473-38.415a8.6,8.6,0,0,1,9.928,6.992l53.841,310.414a8.6,8.6,0,0,1-6.993,9.929l-221.474,38.415A8.6,8.6,0,0,1,780.059,6183.474ZM733.37,5864.048a7.666,7.666,0,0,0-6.235,8.853l53.841,310.413a7.665,7.665,0,0,0,8.852,6.235l221.474-38.415a7.664,7.664,0,0,0,6.234-8.853L963.7,5831.869a7.663,7.663,0,0,0-8.851-6.234Z" transform="translate(-725.975 -5824.59)" fill="#2b0c4f"/>
        </g>
        <g id="Group_794" data-name="Group 794" transform="translate(51.396)">
          <path id="Path_1104" data-name="Path 1104" d="M776.179,6182.822l-53.841-310.414a11.391,11.391,0,0,1,9.266-13.156l221.474-38.416a11.392,11.392,0,0,1,13.155,9.268l53.842,310.414a11.391,11.391,0,0,1-9.266,13.156l-221.474,38.414A11.39,11.39,0,0,1,776.179,6182.822Zm-43.461-317.151a4.87,4.87,0,0,0-3.962,5.624L782.6,6181.708a4.871,4.871,0,0,0,5.624,3.962l221.474-38.414a4.871,4.871,0,0,0,3.962-5.625l-53.841-310.415a4.87,4.87,0,0,0-5.624-3.96Z" transform="translate(-722.169 -5820.668)" fill="#2b0c4f"/>
        </g>
      </g>
    </g>
    <g id="Group_805" data-name="Group 805" transform="translate(588.606 426.553)">
      <path id="Path_1105" data-name="Path 1105" d="M869.155,6031.057c-2.208-1.412-7.767-7.6-28.269-4.042-19.419,3.369-21.631,9.916-21.631,9.916l-2.431-30.512.669-17.743-4.961-20.2-16.47-46.116,8.141-7.84,12.26,2.713,14.881,11.362,21.094,19.988,24.688-8.938,10-1.734,20.409,1.115,3.7-1.383,10.92-23.779,10.962-18.883,10.1-4.572,9.589,1.377,2.768,30.132,2.681,45.952,4.266,10.077,10.13,42.426-152.423,24.149" transform="translate(-793.847 -5888.686)" fill="#4a4c4f"/>
      <path id="Path_1106" data-name="Path 1106" d="M844.475,5965.053s-26.391-30.328-33.07-23.839c-9.764,9.485-16.518-8.794-16.518-8.794l8.978-8.149,9.073,1.287,23.6,18.029,15.564,14.747Z" transform="translate(-793.509 -5898.438)" fill="#393b3d"/>
      <path id="Path_1107" data-name="Path 1107" d="M964.788,5942.434s14.636-37.444,23.11-33.584c12.388,5.645,12.592-13.843,12.592-13.843l-11.2-4.651-8.11,4.269-16.149,24.922-9.688,19.127Z" transform="translate(-839.717 -5888.67)" fill="#393b3d"/>
      <path id="Path_1108" data-name="Path 1108" d="M847.6,6100.045l-17.6,4.844,17.8-2.822C847.735,6101.394,847.667,6100.72,847.6,6100.045Z" transform="translate(-803.62 -5949.055)" fill="#555658"/>
      <circle id="Ellipse_146" data-name="Ellipse 146" cx="12.099" cy="12.099" r="12.099" transform="translate(37.271 147.928)" fill="#f09489"/>
      <path id="Path_1109" data-name="Path 1109" d="M849.811,6111.665c3.565-7.1,11.113-8.4,16.859-2.924,1.475,1.407,2.012-.753,2.94,1.141a19.673,19.673,0,0,0-5.527-11.172c-5.746-5.48-13.293-4.171-16.859,2.924-2.65,5.275-2.351,12.26.337,17.75C846.941,6115.384,848.086,6115.1,849.811,6111.665Z" transform="translate(-808.05 -5947.696)" fill="#d86f6a"/>
      <g id="Group_800" data-name="Group 800" transform="translate(109.912 89.04)">
        <circle id="Ellipse_147" data-name="Ellipse 147" cx="7.523" cy="7.523" r="7.523" fill="#eda76a"/>
        <path id="Path_1110" data-name="Path 1110" d="M950.34,6022.18a7.526,7.526,0,0,1,10.619-.668,7.607,7.607,0,0,1,1.087,1.194,7.52,7.52,0,1,0-13.267,2.31A7.5,7.5,0,0,1,950.34,6022.18Z" transform="translate(-947.317 -6013.041)" fill="#db8f58"/>
      </g>
      <g id="Group_801" data-name="Group 801" transform="translate(65.038 96.823)">
        <circle id="Ellipse_148" data-name="Ellipse 148" cx="7.523" cy="7.523" r="7.523" transform="translate(0 0)" fill="#eda76a"/>
        <path id="Path_1111" data-name="Path 1111" d="M887.317,6033.112a7.516,7.516,0,0,1,11.705.524,7.52,7.52,0,1,0-13.267,2.311A7.484,7.484,0,0,1,887.317,6033.112Z" transform="translate(-884.294 -6023.972)" fill="#db8f58"/>
      </g>
      <circle id="Ellipse_149" data-name="Ellipse 149" cx="12.099" cy="12.099" r="12.099" transform="translate(146.576 128.969)" fill="#f09489"/>
      <path id="Path_1112" data-name="Path 1112" d="M1004.879,6083.121c4.123-6.51,11.811-6.789,17.17-.624,1.375,1.583,1.789-.442,2.577,1.548a20.535,20.535,0,0,0-4.706-11.742c-5.359-6.165-13.046-5.885-17.17.624-3.065,4.84-3.3,11.758-1.013,17.523C1001.418,6086.429,1002.883,6086.272,1004.879,6083.121Z" transform="translate(-852.636 -5939.787)" fill="#d86f6a"/>
      <g id="Group_802" data-name="Group 802" transform="translate(50.494 111.533)">
        <ellipse id="Ellipse_150" data-name="Ellipse 150" cx="9.689" cy="11.534" rx="9.689" ry="11.534" transform="translate(0 3.312) rotate(-9.84)" fill="#040405"/>
        <circle id="Ellipse_151" data-name="Ellipse 151" cx="3.442" cy="3.442" r="3.442" transform="translate(2.417 6.999)" fill="#f2f3f2"/>
      </g>
      <g id="Group_803" data-name="Group 803" transform="translate(122.039 99.123)">
        <ellipse id="Ellipse_152" data-name="Ellipse 152" cx="9.689" cy="11.534" rx="9.689" ry="11.534" transform="translate(0 3.312) rotate(-9.84)" fill="#040405"/>
        <circle id="Ellipse_153" data-name="Ellipse 153" cx="3.442" cy="3.442" r="3.442" transform="translate(2.417 6.999)" fill="#f2f3f2"/>
      </g>
      <path id="Path_1113" data-name="Path 1113" d="M998.683,5917.81q.179.078.354.172c.128-.7.245-1.4.343-2.1Q999.014,5916.841,998.683,5917.81Z" transform="translate(-852.196 -5896.023)" fill="#0f0e0e"/>
      <path id="Path_1114" data-name="Path 1114" d="M882.089,6157.961c4.526-2.5,8.52-5.887,13.237-8.016,3.274-1.478,6.529-.126,9.609.965a67.307,67.307,0,0,1,10.611,5.167c.715.407,1.688.728,1.68,1.7-.009,1.047-1,1.472-1.8,1.862A43.577,43.577,0,0,1,903.088,6164c-6.19,1.173-12.223-.628-18.174-2.972-.78-.307-1.6-.514-2.363-.856C881.423,6159.658,880.943,6158.593,882.089,6157.961Z" transform="translate(-818.431 -5963.239)" fill="#0f0e0e"/>
      <path id="Path_1115" data-name="Path 1115" d="M1029.781,6082.864c1.459-1.986,2.981-3.926,4.428-5.921.446-.615.923-1.259,1.4-1.924q-.321-2.257-.747-4.5c-.1.059-.189.119-.279.186-.264.191-.552.581-.559.454-.133.663.206,1.62.142,2.306a8.2,8.2,0,0,1-.715,2.41c-3,7.05-7.953,12.987-13.383,18.3-1.4,1.373-2.825,2.728-4.281,4.047a32.981,32.981,0,0,0,9.558-8.823C1026.919,6087.281,1028.224,6084.988,1029.781,6082.864Z" transform="translate(-857.123 -5940.552)" fill="#f2f3f2"/>
      <path id="Path_1116" data-name="Path 1116" d="M1001.615,5902.629c.769-3.133,4.172-6.01,6.749-7.376,2.135.959,2.579,3.781,3.128,6.065.62,2.574,1.485,5.094,2.3,7.6,2.24,6.888,3.134,14.037,4.508,21.086,1.351,6.936,2.521,13.929,3.273,20.951.574,5.354.357,10.778-3.292,15.358-1.232,1.547-1.477,1.532-2.587-.147-1.459-2.2-2.954-4.391-4.56-6.489a2.53,2.53,0,0,1-.1-3.5,5.63,5.63,0,0,0,1.4-2.74c.289-2.675-1.47-4.365-4.287-4.2-.609.036-1.391.476-1.809-.167-.43-.663.1-1.359.394-2a14.912,14.912,0,0,0,.862-1.733c1.012-3.313-.811-5.453-4.15-4.962a12.276,12.276,0,0,0-6.115,2.27c-.636.5-1.531,1.061-2.328.626-.812-.441-.37-1.43-.322-2.154a139.777,139.777,0,0,1,2.037-15.371,98.026,98.026,0,0,1,5.906-19.238,3.014,3.014,0,0,0-.407-3.444c.024-.257-.087-.291-.346-.324C1001.829,5902.66,1001.691,5902.688,1001.615,5902.629Z" transform="translate(-850.996 -5890.082)" fill="#eda76a"/>
      <path id="Path_1117" data-name="Path 1117" d="M815.977,5990.81c2.024,1.293,2.447,2.565,1.587,4.781a52.266,52.266,0,0,0-1.754,6.747c-.435,1.813-.842,1.964-2.481.97-3.469-2.1-5.278-5.364-6.579-9.06-2.49-7.072-3.46-14.477-4.858-21.784a187.072,187.072,0,0,1-3.066-20.368c-.418-5.3-1.525-10.663-.122-16.017a3.342,3.342,0,0,1,.727-1.49,8.384,8.384,0,0,1,7.723,3.434.851.851,0,0,0-.067.339c.444,1.315-.252,1.909.5,2.7a122.857,122.857,0,0,1,15.866,22.394c1.518,2.843,2.776,5.828,4.073,8.781.739,1.683.36,2.15-1.462,1.843a19.209,19.209,0,0,0-7.508-.122c-3,.67-4.056,3.1-2.387,5.662a13.843,13.843,0,0,0,2.253,2.4c.894.85.719,1.426-.488,1.715" transform="translate(-794.409 -5901.402)" fill="#eda76c"/>
      <path id="Path_1118" data-name="Path 1118" d="M816.038,5992.613c-9.138-7.113-14.866-33.563-17.811-51.786.142,18.625,4.091,39.2,8.918,57.163C815.668,6019.41,823.339,5993.754,816.038,5992.613Z" transform="translate(-794.471 -5903.206)" fill="#b77141"/>
      <path id="Path_1119" data-name="Path 1119" d="M1018.089,5957.505c6.21-9.776,2.7-36.61-.669-54.758,6.138,17.584,9.35,38.288,10.853,56.827C1027.461,5982.612,1011.6,5961.037,1018.089,5957.505Z" transform="translate(-857.336 -5892.24)" fill="#b77141"/>
      <path id="Path_1120" data-name="Path 1120" d="M933.071,6169.078c-3.964-.131-8.305-.124-12.621-.454a115.689,115.689,0,0,1-14.643-1.808,104.457,104.457,0,0,1-18.988-6.064c-.577-.239-1.339-.561-1.057-1.381.262-.763,1.126-.678,1.693-.582a69.6,69.6,0,0,0,12.2.617c7.054-.052,14.108-.121,21.161-.154a75.081,75.081,0,0,0,11.227-.833c6.957-1.083,13.5-3.6,20.091-5.927,4.758-1.683,9.438-3.582,14.159-5.367.641-.244,1.433-.717,1.956.012.584.812-.118,1.439-.655,2a63.539,63.539,0,0,1-19.345,14.06c-4.231,1.958-8.6,3.569-12.929,5.27C934.724,6168.7,934.074,6168.811,933.071,6169.078Z" transform="translate(-819.661 -5962.504)" fill="#19b5b8"/>
      <path id="Path_1121" data-name="Path 1121" d="M894.468,6161.132c33.436,8.439,55.725-1.346,77.927-17.353-17.328,5.449-34.458,13.707-53.13,13.572C907.135,6158.593,863.042,6153.2,894.468,6161.132Z" transform="translate(-818.991 -5961.649)" fill="#138481"/>
      <path id="Path_1122" data-name="Path 1122" d="M1039.882,6140.268c-6.19,1.172-12.224-.628-18.174-2.972-.779-.308-1.6-.514-2.363-.857-1.127-.509-1.606-1.574-.461-2.2,4.526-2.5,8.52-5.888,13.237-8.017,3.274-1.478,6.529-.126,9.609.965a67.344,67.344,0,0,1,10.61,5.168c.716.405,1.688.728,1.68,1.7-.009,1.048-1,1.472-1.8,1.863A43.609,43.609,0,0,1,1039.882,6140.268Z" transform="translate(-857.824 -5956.405)" fill="#18b6b9"/>
      <path id="Path_1123" data-name="Path 1123" d="M1051.852,6131.491a59.745,59.745,0,0,0-9.08-4.309c-3.08-1.091-6.336-2.442-9.61-.965-4.041,1.823-7.552,4.572-11.32,6.893A104.711,104.711,0,0,0,1051.852,6131.491Z" transform="translate(-858.865 -5956.405)" fill="#138481"/>
      <path id="Path_1124" data-name="Path 1124" d="M843.822,6173.72c-3.929.853-8.124.293-12.3-.052-2.152-.178-2.555-1.331-1.056-2.936,3.776-4.045,7.381-8.266,12.179-11.24,2.333-1.446,4.592-2.175,7.315-1.306a92.351,92.351,0,0,0,11.654,2.826c2.32.419,2.461,1.159.827,2.869A33.993,33.993,0,0,1,843.822,6173.72Z" transform="translate(-803.495 -5965.69)" fill="#18b6b9"/>
      <path id="Path_1125" data-name="Path 1125" d="M859.865,6160.681a88.53,88.53,0,0,1-9.908-2.5c-2.722-.869-4.981-.14-7.315,1.306-4.8,2.975-8.4,7.195-12.179,11.24-.753.807-1.025,1.5-.838,2.01C840.313,6170.858,850.291,6165.627,859.865,6160.681Z" transform="translate(-803.496 -5965.69)" fill="#138481"/>
      <path id="Path_1126" data-name="Path 1126" d="M811.19,5942.594a2.534,2.534,0,0,1-.5-2.7Z" transform="translate(-798.009 -5902.938)" fill="#555658"/>
      <path id="Path_1127" data-name="Path 1127" d="M932.592,6130.617c-5.526.771-10.443-1.978-13.134-7.622a39.126,39.126,0,0,0-5.461-8.683,3.309,3.309,0,0,0-2.4-1.3c-5.027-.555-9.443-2.223-12.03-7.025-.905-1.68-.84-2.979.453-3.725a2.329,2.329,0,0,1,3.572,1.123c3.106,6.366,15.326,6.229,19.809,1.011a6.99,6.99,0,0,0,1.778-3.8,2.555,2.555,0,0,1,2.112-2.451,2.435,2.435,0,0,1,2.855,1.482,8.508,8.508,0,0,0,7.389,4.3,15.092,15.092,0,0,0,11.447-3.942,6.65,6.65,0,0,0,2.218-3.785,7.135,7.135,0,0,1,.511-1.864,2.378,2.378,0,0,1,4.535,1.4c-.748,5.332-3.994,8.737-8.638,10.9a4.728,4.728,0,0,0-2.541,3.1c-1.34,3.632-1.5,7.477-2.221,11.22C941.694,6126.951,936.749,6129.714,932.592,6130.617Zm-6.812-20.63c-1.529.253-.529.892-2,1.366-.79.254-2.255,1.223-1.294,2.521,1.754,2.367.878,3.485,2.118,6.074,1.49,3.11,3.107,5.972,6.489,5.1.527-.134,2.054,1.264,2.046.57,4.056-1.658,5.673-4.833,5.631-9.045-.012-1.229.027-2.458-.02-3.684-.14-3.647-.377-3.917-3.936-4.732-.379-.086-.768-.129-1.145-.222-2.574-.638-2.853-.42-2.508,2.24.3,2.313.988,4.565,1.012,6.923.012,1.016-.158,1.875-1.341,1.967-1.087.085-1.376-.7-1.526-1.614-.385-2.367-.835-4.724-1.218-7.091C927.841,6108.8,927.511,6109.113,925.78,6109.986Z" transform="translate(-823.478 -5946.961)"/>
      <path id="Path_1128" data-name="Path 1128" d="M930.094,6074.854c3.56-.549,6.029-.387,8.363.859,4.485,2.394,5.1,6.738,1.442,10.326-3.831,3.759-11.2,4.4-15.471,1.345a5.612,5.612,0,0,1-1.176-8.473A11.455,11.455,0,0,1,930.094,6074.854Z" transform="translate(-830.064 -5941.715)"/>
      <path id="Path_1129" data-name="Path 1129" d="M934.427,6114.777c1.73-.873,2.326.036,2.578,1.6.383,2.367.832,4.724,1.218,7.092.149.917.439,1.7,1.526,1.613,1.183-.094,1.352-.951,1.341-1.968-.025-2.357-.713-4.609-1.012-6.922-.345-2.661-.066-2.879,2.508-2.24.377.093.766.135,1.145.222,3.56.814,3.8,1.085,3.936,4.731.047,1.227.008,2.457.02,3.685.042,4.211-1.487,7.893-5.543,9.55-4.086,1.063-7.6-1.334-9.36-4.728a28.451,28.451,0,0,1-2.794-7.83c-.226-1.194-.066-1.913,1.157-2.461A7.413,7.413,0,0,0,934.427,6114.777Z" transform="translate(-832.39 -5952.973)" fill="#e4333a"/>
      <path id="Path_1130" data-name="Path 1130" d="M932.928,6127.986a13.626,13.626,0,0,1,5.292-4.215c-.385-2.362-.833-4.715-1.216-7.078-.253-1.562-.848-2.468-2.578-1.6a7.4,7.4,0,0,1-3.28,2.341c-1.222.548-1.383,1.267-1.157,2.461a28.462,28.462,0,0,0,2.794,7.83C932.829,6127.817,932.88,6127.9,932.928,6127.986Z" transform="translate(-832.39 -5953.292)" fill="#ba2530"/>
      <path id="Path_1131" data-name="Path 1131" d="M945.139,6122.73a15.9,15.9,0,0,1,6.573,1.05c.028-.388.045-.785.04-1.193-.012-1.228.027-2.459-.02-3.685-.139-3.646-.376-3.917-3.936-4.731-.379-.087-.768-.129-1.145-.222-2.574-.639-2.853-.42-2.509,2.24C944.426,6118.375,945.051,6120.51,945.139,6122.73Z" transform="translate(-836.456 -5952.973)" fill="#a81e2f"/>
      <path id="Path_1132" data-name="Path 1132" d="M1007.982,5913.346a85.834,85.834,0,0,0-6-18.222c-3.015-6.347-12.05-8.556-16.776-6.236a20.59,20.59,0,0,0-6.259,5.395,122.991,122.991,0,0,0-16.2,24.118c-2.559,4.945-4.887,10.016-7.175,15.095a2.759,2.759,0,0,1-.348.549c1.1.407,2.172.868,3.253,1.372.181-.448.472-1.014.866-1.773,2.905-5.617,5.339-11.453,8.383-17.008a106.418,106.418,0,0,1,16.688-22.919c2.859-2.969,9.59-2.907,11.777.132a9.7,9.7,0,0,1,1.876,2.092c3.126,4.572,3.888,9.992,5.281,15.129a186.962,186.962,0,0,1,3.974,20.218c1.146,7.354,2.726,14.656,2.764,22.157.019,3.918-.586,7.6-3.145,10.751-1.209,1.488-1.437,1.6-2.457.038a58.711,58.711,0,0,0-4.18-6.08c-1.556-1.8-1.447-2.826.024-4.725,2.022-2.61.877-5.833-2.388-6.242a7.976,7.976,0,0,0-1.8,0c-1.234.133-1.5-.325-.948-1.425a13.215,13.215,0,0,0,1.2-2.97c.709-2.973-1.073-5.017-4.127-4.637a19.784,19.784,0,0,0-7.156,2.63c-1.613.9-1.934.46-1.8-1.375.227-3.218.557-6.136,1.03-9.323a124,124,0,0,1,7.327-26.594c.445-1.4.216-2.292-.9-2.876-1.557-.59-3.01.738-3.532,2.583-.4,1.418-1.013,2.774-1.53,4.161a108.385,108.385,0,0,0-5.859,24.261,76.276,76.276,0,0,0-.817,12.748c.137,3.434,2.164,4.049,4.536,2.281a53.13,53.13,0,0,1,6.064-3.479c.512-.284,1.152-.615,1.623-.133.614.629-.023,1.193-.37,1.7-.985,1.445-1.965,2.9-3.014,4.3a1.9,1.9,0,0,0-.09,2.475,2.077,2.077,0,0,0,2.319,1c1.4-.268,2.805-.516,4.212-.753.449-.077.962-.133,1.252.3.307.458-.035.807-.309,1.2-1.49,2.111-1.534,3.225.052,5.221a98.227,98.227,0,0,1,6.488,9.088l7.291-1.617a4.443,4.443,0,0,1,1.242-.042,20.613,20.613,0,0,0,3.507-9.687,59.852,59.852,0,0,0-.535-12.4C1011.947,5933.592,1010.239,5923.415,1007.982,5913.346Z" transform="translate(-839.683 -5887.99)"/>
      <g id="Group_804" data-name="Group 804" transform="translate(25.408 118.7)">
        <path id="Path_1133" data-name="Path 1133" d="M979.619,6057.478a100.42,100.42,0,0,1,3.683,26.777c-.063,9.185-5.2,15.926-12.264,21.26-5.518,4.165-11.829,6.965-18.079,9.8a227.326,227.326,0,0,1-34.674,12.518c-4.093,1.106-8.351,1.134-12.549,1.218-9.122.181-18.264.494-27.367.084-9.354-.422-18.816-.845-27.615-4.736-6.878-3.04-12.528-7.523-15.17-14.764a71.71,71.71,0,0,1-3.558-18.077c-.21-2.267-.6-4.5-.911-6.742a5.277,5.277,0,0,1-.036-2.5c2.813-2.275,6.143-3.435,9.539-4.479,5.29-1.631,10.8-1.9,16.222-2.721a10.346,10.346,0,0,0,3.506-.3,1.519,1.519,0,0,0,1.17-.025,3.839,3.839,0,0,0,1.981-.041l.729.027,1.247-.091a2.2,2.2,0,0,0,1.591.22c.243.3.529.231.823.1l2.9.793a28.829,28.829,0,0,0,5.248,1.351.9.9,0,0,0,.951.185,1.036,1.036,0,0,0,1.122.025c.871.379-.164,1.893,1.086,1.387.775.024,2.216-.949,2.225-1.808a20.53,20.53,0,0,1,11.266-11.329,52.808,52.808,0,0,1,17.743-3.687c6.6-.193,14.164,1.488,18.721,6.755,1.192,1.378.783,1.8,1.836.021,3.232-1.766,6-4.253,9.17-6.083,3.837-2.212,8.165-3.178,12.421-4.239C961.133,6056.247,970.831,6054.811,979.619,6057.478ZM913,6120.034c4.157-.9,9.1-3.664,10.253-9.653.72-3.742.881-7.588,2.222-11.22a4.73,4.73,0,0,1,2.541-3.1c4.643-2.167,7.89-5.57,8.638-10.9a2.379,2.379,0,0,0-4.535-1.4,7.149,7.149,0,0,0-.511,1.863,6.656,6.656,0,0,1-2.218,3.788,15.093,15.093,0,0,1-11.447,3.941,8.506,8.506,0,0,1-7.389-4.3,2.435,2.435,0,0,0-2.854-1.483,2.556,2.556,0,0,0-2.112,2.451,7,7,0,0,1-1.778,3.8c-4.483,5.217-16.7,5.356-19.809-1.011a2.33,2.33,0,0,0-3.572-1.124c-1.293.747-1.358,2.045-.453,3.725,2.587,4.8,7,6.47,12.03,7.025a3.31,3.31,0,0,1,2.4,1.306,39.053,39.053,0,0,1,5.461,8.683C902.561,6118.056,907.477,6120.8,913,6120.034Zm-49.01-26.575c-.641-5.817-7.024-9.778-12.779-8.719-6.371,1.173-9.986,6.711-9.1,12.1,1.237,7.565,6.311,10.525,12.658,9.814A10.821,10.821,0,0,0,863.994,6093.459Zm87.49-14.792c.758,6.344,6.854,9.829,12.745,8.98,5.561-.8,10.381-7.1,9.219-12.714a11.643,11.643,0,0,0-12.553-9.3C954.54,6066.451,950.006,6073.093,951.484,6078.667Zm-47.566-9.148a11.446,11.446,0,0,0-6.841,4.056,5.613,5.613,0,0,0,1.176,8.473c4.271,3.055,11.64,2.415,15.471-1.345,3.656-3.588,3.042-7.932-1.443-10.326C909.948,6069.131,907.479,6068.97,903.918,6069.519Z" transform="translate(-829.297 -6055.079)" fill="#f2f3f2"/>
        <path id="Path_1134" data-name="Path 1134" d="M878.535,6085.867c-2.208-1.413-7.768-7.6-28.269-4.041-19.419,3.368-21.631,9.915-21.631,9.915" transform="translate(-828.635 -6062.196)" fill="#f2f3f2"/>
        <path id="Path_1135" data-name="Path 1135" d="M1021.389,6057.418s-4.2-4.91-23.618-1.541c-20.5,3.556-24.676,11.43-26.28,13.5" transform="translate(-869.773 -6054.696)" fill="#f2f3f2"/>
      </g>
      <path id="Path_1136" data-name="Path 1136" d="M951.173,6072.472a1.568,1.568,0,0,1-1.231-.3,51.317,51.317,0,0,0-10.373-6.324c-12.173-5.291-26.081-.222-31.99,4.215a24.291,24.291,0,0,0-7.809,10.043,1.574,1.574,0,1,1-2.967-1.054,27.269,27.269,0,0,1,8.885-11.506,38.077,38.077,0,0,1,15.521-6.451,34.119,34.119,0,0,1,19.614,1.864,54.445,54.445,0,0,1,11.041,6.718,1.574,1.574,0,0,1-.692,2.8Z" transform="translate(-822.831 -5937.652)"/>
      <path id="Path_1137" data-name="Path 1137" d="M867.576,5981.492" transform="translate(-814.441 -5914.915)" fill="#666768"/>
      <path id="Path_1138" data-name="Path 1138" d="M937.124,5962.842a1.767,1.767,0,0,1-.953-.1c-16.275-6.442-33.175-6.343-50.23.294a77.722,77.722,0,0,0-20.959,12.054,1.771,1.771,0,0,1-2.336-2.663,79.754,79.754,0,0,1,21.887-12.644c12.345-4.827,31.55-8.8,52.942-.333a1.771,1.771,0,0,1-.351,3.392Z" transform="translate(-812.848 -5907.145)"/>
      <path id="Path_1139" data-name="Path 1139" d="M936.993,5969.749c-13.908-5.512-45.1-5.284-66.023,11.451S956,5977.28,936.993,5969.749Z" transform="translate(-814.627 -5910.607)" fill="#575859"/>
      <path id="Path_1140" data-name="Path 1140" d="M983.776,6100.632c-25.107,35.354-100.328,45.1-138.445,27.162-21.122-9.943,9.588,20.009,46.6,16.394,25.911,2.065,42.157-2.675,65.431-14.6,6.25-2.833,10.923-4.02,16.44-8.187C981.988,6119.473,991.638,6092.057,983.776,6100.632Z" transform="translate(-806.047 -5948.747)" fill="#cecece"/>
      <path id="Path_1141" data-name="Path 1141" d="M957.583,6072.853c.673.236,1.361.43,2.027.683a31.768,31.768,0,0,0,13.317,1.854c7.969-.5,14.821-4.274,21.846-7.5,1.842-.846,1.792-2.724.056-3.743-1.173-.69-2.352-1.376-3.568-1.986-6-3.008-11.689-6.731-18.489-7.879-2.921-.495-3.015-.922-1.351-3.416a26.223,26.223,0,0,0,4.777-13.354c.435-8.991-2.187-17.555-3.957-26.232-.414-2.027-.824-4.061-1.351-6.062-1.731-6.567-3.634-13.093-5.238-19.689a95.153,95.153,0,0,0-4.234-13.7,2.907,2.907,0,0,1,.455-3.356,22.161,22.161,0,0,0,5.406-14.44,134.533,134.533,0,0,0-2.031-19.692,221.277,221.277,0,0,0-4.73-23.616c-1.451-5.419-2.9-10.817-5.43-15.923-3.133-6.312-14.6-9.584-20.143-3.641a118.467,118.467,0,0,0-20.1,29.581q-3.249,6.735-6.379,13.524c-.092.2-1.07,2.872-1.176,3.036.828.472,1.656.944,2.512,1.379.449.129.9.257,1.346.39-.246-.461.808-3.552,1.316-4.569,2.828-5.663,5.327-11.485,8.362-17.049a112.012,112.012,0,0,1,16.266-22.984c3.373-3.619,9.657-3.767,12.9-.18,2.135.958,2.913,2.669,3.463,4.952.62,2.573,1.485,5.094,2.3,7.6,2.24,6.888,3.134,14.038,4.508,21.086,1.351,6.936,2.52,13.929,3.273,20.951.574,5.354.357,10.779-3.292,15.359-1.232,1.547-1.477,1.532-2.588-.146q-.464-.7-.934-1.4a3.973,3.973,0,0,1-3.453,2.134c.128.18.332.588.461.768a51.447,51.447,0,0,1,7.353,16.289c1.809,6.333,3.452,12.706,5.105,19.078.568,2.189,1.088,4.39,1.619,6.588.1.429,4.627,19.073,4.564,28.33-.062,9.186-5.2,15.927-12.264,21.261-5.518,4.166-11.829,6.966-18.078,9.8a227.547,227.547,0,0,1-34.674,12.519c-4.094,1.1-8.351,1.132-12.549,1.217-9.122.179-18.264.493-27.368.083-9.354-.421-18.816-.844-27.615-4.735-6.878-3.04-12.528-7.523-15.17-14.762a71.747,71.747,0,0,1-3.558-18.079c-.21-2.266-.6-4.495-.911-6.743-.115-.834-1.883-16.53-2.292-22.786-.419-6.429-1.732-12.843-.372-19.33a116.507,116.507,0,0,1,3.392-13.712c.82-2.413.4-3.445-1.71-4.932-.388-.273-.828-.488-.693-1.022.128-.5.63-.625,1.078-.7q2.105-.376,4.218-.708a2.076,2.076,0,0,0,1.845-1.726,1.9,1.9,0,0,0-.918-2.3c-1.459-.962-2.869-2-4.284-3.029-.5-.362-1.289-.68-.922-1.479.281-.612,1-.514,1.573-.419a52.922,52.922,0,0,1,6.878,1.233c2.829.865,4.529-.4,3.5-3.674a76.2,76.2,0,0,0-5.061-11.724,108.324,108.324,0,0,0-13.682-20.863c-.953-1.13-1.987-2.2-2.841-3.4a3.171,3.171,0,0,0-4.193-1.242.854.854,0,0,0-.067.339c-.256.79-.5,1.136.5,2.7a122.837,122.837,0,0,1,15.866,22.4c1.518,2.84,2.775,5.827,4.073,8.78.739,1.683.36,2.149-1.462,1.843a19.189,19.189,0,0,0-7.508-.122c-3,.669-4.056,3.1-2.387,5.661a13.864,13.864,0,0,0,2.253,2.4c.894.848.719,1.425-.489,1.713a6.49,6.49,0,0,0-1.648.522c-2.842,1.6-3.092,4.786-.311,6.56,2.024,1.292,2.447,2.565,1.587,4.781a52.328,52.328,0,0,0-1.754,6.748c-.435,1.812-.842,1.964-2.482.969-3.469-2.1-5.278-5.364-6.579-9.06-2.49-7.072-3.46-14.477-4.858-21.783a187.066,187.066,0,0,1-3.066-20.369c-.418-5.3-1.525-10.663-.122-16.018a3.339,3.339,0,0,1,.727-1.489c1.035-3.6,7.683-7.033,11.375-5.2a106.356,106.356,0,0,1,23.422,15.954c4.734,4.2,8.99,8.877,13.615,13.185,1.346,1.254,3.529,3.691,3.5,4.268,1.242-.832,2.522-1.708,3.848-2.506-.792-.078-3.067-2.36-3.846-3.17-3.863-4.009-7.761-8-11.835-11.791a122.85,122.85,0,0,0-23.364-17.247,20.575,20.575,0,0,0-7.706-2.972c-5.229-.592-12.989,4.527-13.691,11.519a85.808,85.808,0,0,0,.489,19.17c1.266,10.235,3.084,20.391,5.257,30.474a59.785,59.785,0,0,0,3.67,11.852c1.909,4.273,5.288,7.3,9.193,9.759a2.49,2.49,0,0,1,1.529,2.454,63.418,63.418,0,0,0,0,7.745c.238,7.059,1.171,14.055,1.656,21.092.5,7.3,1.593,14.561,2.465,21.833a77.833,77.833,0,0,0,2.87,13.7c1.833,5.946,5.614,10.566,10.554,14.277,1.485,1.117,1.582,1.822.224,2.618-7.249,4.249-12.233,10.874-17.809,16.879a2.353,2.353,0,0,0-.654,2.651c.439,1.08,1.418,1.259,2.386,1.338,3.152.254,6.306.487,9.463.675,4.992.3,9.919.156,14.727-1.57a34.819,34.819,0,0,0,10.844-6.266c.654-.554,7.5-2.486,9.926-1.457a88.833,88.833,0,0,0,18.228,5.818,102.208,102.208,0,0,0,15.151,1.887c3.48.131,7.029.815,10.433.429a30.866,30.866,0,0,0,7.684-1.461c6.965-2.6,13.855-5.336,20.118-9.447a69.456,69.456,0,0,0,14.075-12.343C949.451,6071.137,957.148,6072.7,957.583,6072.853Zm-105.69,13.338a34,34,0,0,1-18.616,9.84c-3.929.854-8.124.292-12.3-.052-2.152-.178-2.555-1.331-1.056-2.935,3.776-4.046,7.381-8.268,12.179-11.242,2.333-1.446,4.593-2.174,7.315-1.3a92.17,92.17,0,0,0,11.655,2.825C853.387,6083.742,853.528,6084.482,851.894,6086.191Zm88.994-11.556a63.53,63.53,0,0,1-19.345,14.06c-4.231,1.958-8.6,3.57-12.929,5.271-.6.235-1.249.341-2.252.609-3.964-.13-8.305-.122-12.621-.454a115.776,115.776,0,0,1-14.643-1.806,104.729,104.729,0,0,1-18.988-6.065c-.577-.24-1.339-.562-1.057-1.382.262-.763,1.127-.678,1.693-.582a69.6,69.6,0,0,0,12.2.619c7.054-.053,14.107-.121,21.161-.154a75.343,75.343,0,0,0,11.227-.833c6.956-1.085,13.5-3.6,20.091-5.928,4.758-1.682,9.438-3.582,14.159-5.368.641-.243,1.433-.715,1.956.013C942.126,6073.447,941.424,6074.075,940.887,6074.635Zm13.124-8.8c4.526-2.5,8.52-5.887,13.237-8.016,3.274-1.478,6.529-.126,9.61.965a67.318,67.318,0,0,1,10.61,5.168c.716.406,1.688.728,1.68,1.7-.009,1.048-1,1.473-1.8,1.863a43.628,43.628,0,0,1-12.343,4.356c-6.19,1.171-12.224-.63-18.174-2.974-.779-.307-1.6-.514-2.363-.856C953.345,6067.527,952.866,6066.463,954.011,6065.831Z" transform="translate(-792.951 -5888.001)"/>
    </g>
    <text id="WHITEPAPER" transform="matrix(0.985, -0.171, 0.171, 0.985, 626.232, 689.772)" fill="#4c203a" font-size="22" font-family="Nunito-ExtraBold, Nunito" font-weight="800"><tspan x="0" y="0">WHITEPAPER</tspan></text>
  </g>
</svg>
