<svg xmlns="http://www.w3.org/2000/svg" width="378.407" height="408.857" viewBox="0 0 378.407 408.857">
  <g id="Group_546" data-name="Group 546" transform="translate(0 0)">
    <path id="Path_653" data-name="Path 653" d="M510.748,3345.766c-3.93-3.595-12.913-17.911-55.2-17.911-40.051,0-46.755,12.344-46.755,12.344l5.73-61.939,7.5-35.3-2.919-42.172-16.96-98.058,19.021-12.869,23.608,9.686,25.848,27.919,35.295,47.349,52.536-9.322h20.627l40.476,9.322,7.883-1.489,30.124-43.821,28.508-34,21.814-5.643,18.722,6.089-4.922,61.293-10.591,92.94,5.042,21.654,5.548,88.467-313.58-4.583" transform="translate(-376.053 -3086.229)" fill="#4a4c4f"/>
    <path id="Path_654" data-name="Path 654" d="M487.933,3185.626s-42.309-69.89-57.937-59.216c-22.845,15.6-30.02-23.345-30.02-23.345l20.806-13.2,17.72,5.726,40.991,44.293,26.04,34.935Z" transform="translate(-375.667 -3086.229)" fill="#393b3d"/>
    <path id="Path_655" data-name="Path 655" d="M689.134,3185.626s42.309-69.89,57.937-59.216c22.845,15.6,30.02-23.345,30.02-23.345l-20.806-13.2-17.72,5.726-40.99,44.293-26.041,34.935Z" transform="translate(-424.023 -3086.229)" fill="#393b3d"/>
    <path id="Path_656" data-name="Path 656" d="M446.325,3408.964l-36.927,3.583,36.629.536Q446.169,3411.023,446.325,3408.964Z" transform="translate(-377.344 -3143.051)" fill="#555658"/>
    <circle id="Ellipse_85" data-name="Ellipse 85" cx="24.588" cy="24.588" r="24.588" transform="translate(52.042 261.293)" fill="#f09489"/>
    <path id="Path_657" data-name="Path 657" d="M441.5,3432.992c9.6-12.969,25.17-12.969,34.772,0,2.464,3.329,4.291-.808,5.49,3.309.157-8.767-2.234-17.6-7.187-24.291-9.6-12.969-25.17-12.969-34.772,0-7.138,9.64-8.966,23.733-5.491,35.658C434.463,3439.441,436.854,3439.271,441.5,3432.992Z" transform="translate(-381.477 -3141.861)" fill="#d86f6a"/>
    <g id="Group_541" data-name="Group 541" transform="translate(219.668 167.157)">
      <circle id="Ellipse_86" data-name="Ellipse 86" cx="15.288" cy="15.288" r="15.288" transform="translate(0 0.001)" fill="#eda76a"/>
      <path id="Path_658" data-name="Path 658" d="M643.377,3305.776a15.268,15.268,0,0,1,23.255,5.115,15.281,15.281,0,1,0-27.367.018A15.2,15.2,0,0,1,643.377,3305.776Z" transform="translate(-637.66 -3288.813)" fill="#db8f58"/>
    </g>
    <g id="Group_542" data-name="Group 542" transform="translate(127.114 167.157)">
      <circle id="Ellipse_87" data-name="Ellipse 87" cx="15.288" cy="15.288" r="15.288" transform="translate(0 0.001)" fill="#eda76a"/>
      <path id="Path_659" data-name="Path 659" d="M530.771,3305.776a15.269,15.269,0,0,1,23.255,5.115,15.281,15.281,0,1,0-27.367.018A15.2,15.2,0,0,1,530.771,3305.776Z" transform="translate(-525.054 -3288.813)" fill="#db8f58"/>
    </g>
    <circle id="Ellipse_88" data-name="Ellipse 88" cx="24.588" cy="24.588" r="24.588" transform="translate(277.486 261.293)" fill="#f09489"/>
    <path id="Path_660" data-name="Path 660" d="M719.177,3429.854c10.517-11.6,26.007-9.49,34.6,4.715,2.2,3.646,3.736-.263,4.623,4a41.722,41.722,0,0,0-5.345-25.143c-8.589-14.205-24.078-16.317-34.6-4.715-7.818,8.623-10.683,22.4-8.113,34.733C711.1,3435.275,714.085,3435.471,719.177,3429.854Z" transform="translate(-430.77 -3141.671)" fill="#d86f6a"/>
    <g id="Group_543" data-name="Group 543" transform="translate(94.572 195.802)">
      <ellipse id="Ellipse_89" data-name="Ellipse 89" cx="19.689" cy="23.44" rx="19.689" ry="23.44" fill="#040405"/>
      <circle id="Ellipse_90" data-name="Ellipse 90" cx="6.994" cy="6.994" r="6.994" transform="translate(2.26 9.315)" fill="#f2f3f2"/>
    </g>
    <g id="Group_544" data-name="Group 544" transform="translate(242.135 195.802)">
      <ellipse id="Ellipse_91" data-name="Ellipse 91" cx="19.689" cy="23.44" rx="19.689" ry="23.44" fill="#040405"/>
      <circle id="Ellipse_92" data-name="Ellipse 92" cx="6.994" cy="6.994" r="6.994" transform="translate(2.26 9.315)" fill="#f2f3f2"/>
    </g>
    <path id="Path_661" data-name="Path 661" d="M758.626,3136.747q.332.219.649.469c.5-1.351.975-2.709,1.415-4.081Q759.624,3134.92,758.626,3136.747Z" transform="translate(-439.531 -3093.934)" fill="#0f0e0e"/>
    <path id="Path_662" data-name="Path 662" d="M483.418,3521.233c9.931-3.427,19.105-8.83,29.289-11.452,7.068-1.821,13.116,2.014,18.905,5.269,6.977,3.923,13.26,8.948,19.449,14.033,1.292,1.063,3.127,2.045,2.773,3.986-.381,2.094-2.521,2.6-4.241,3.106-8.344,2.457-16.774,4.5-26.226,4.435-12.8.2-24.257-5.5-35.357-12.264-1.454-.885-3.029-1.584-4.434-2.536C481.5,3524.4,480.906,3522.1,483.418,3521.233Z" transform="translate(-390.231 -3160.92)" fill="#0f0e0e"/>
    <path id="Path_663" data-name="Path 663" d="M764.232,3437.223c3.61-3.471,7.331-6.826,10.922-10.318,1.109-1.078,2.286-2.2,3.479-3.366.094-3.088.111-6.179.068-9.279-.212.084-.421.175-.623.274-.6.3-1.308.974-1.278.719-.5,1.28-.15,3.315-.517,4.664a16.564,16.564,0,0,1-2.269,4.576c-8.459,13.074-20.433,23.244-33.153,32-3.283,2.26-6.6,4.483-9.978,6.619a67.053,67.053,0,0,0,22.2-14.348C756.967,3445.073,760.376,3440.932,764.232,3437.223Z" transform="translate(-434.591 -3143.994)" fill="#f2f3f2"/>
    <path id="Path_664" data-name="Path 664" d="M766.515,3114.077c2.627-6.007,10.441-10.584,16.075-12.426,3.943,2.662,3.852,8.466,4.159,13.229.347,5.369,1.2,10.716,1.964,16.013,2.093,14.568,1.4,29.195,1.7,43.784.3,14.357.209,28.768-.723,43.089-.71,10.92-3.028,21.7-11.925,29.609-3,2.669-3.488,2.553-5.13-1.194-2.155-4.92-4.389-9.818-6.876-14.575-1.456-2.784-1.272-4.917,1.018-7.039,1.537-1.423,3.136-2.881,3.745-5,1.507-5.255-1.427-9.249-7.126-9.895-1.231-.139-2.951.469-3.562-.963-.63-1.476.678-2.686,1.482-3.858a30.3,30.3,0,0,0,2.328-3.172c3.177-6.284.27-11.2-6.585-11.376-4.529-.117-8.913.183-13.033,2.421-1.447.787-3.434,1.589-4.878.445-1.471-1.165-.244-2.991.1-4.425a283.749,283.749,0,0,1,9.418-30.07c4.7-12.945,11.317-24.826,18.507-36.467,1.355-2.2,1.992-4.6.382-7.039.136-.507-.074-.612-.58-.77C766.934,3114.211,766.647,3114.218,766.515,3114.077Z" transform="translate(-435.938 -3088.327)" fill="#eda76a"/>
    <path id="Path_665" data-name="Path 665" d="M420.978,3223.841c3.6,3.29,4.008,5.986,1.517,10.124-2.42,4.019-3.981,8.56-5.854,12.9-1.5,3.478-2.37,3.639-5.306,1.081-6.215-5.416-8.705-12.574-10.027-20.426-2.528-15.025-1.9-30.188-2.162-45.305-.24-13.958-.362-27.965.935-41.846,1.006-10.766.65-21.88,5.32-32.115a6.788,6.788,0,0,1,1.973-2.73c6.395.741,11.324,3.67,14.273,9.557a1.717,1.717,0,0,0-.251.656c.432,2.789-1.169,3.735.072,5.579,9.639,16,18.121,32.571,23.991,50.348,2.052,6.217,3.533,12.63,5.106,19,.9,3.627-.027,4.431-3.57,3.182-4.866-1.717-9.726-3.1-14.991-2.852-6.243.3-9.2,4.8-6.746,10.507a28.285,28.285,0,0,0,3.678,5.581c1.5,2.01.946,3.1-1.572,3.262" transform="translate(-375.492 -3089.017)" fill="#eda76c"/>
    <path id="Path_666" data-name="Path 666" d="M420.911,3225.67c-15.828-17.416-18.11-72.367-17.677-109.874-6.183,37.342-5.424,79.909-2,117.552C410.865,3279.2,435.134,3230.488,420.911,3225.67Z" transform="translate(-375.424 -3090.846)" fill="#b77141"/>
    <path id="Path_667" data-name="Path 667" d="M774.062,3225.67c15.828-17.416,18.11-72.367,17.677-109.874,6.183,37.342,5.424,79.909,2,117.552C784.108,3279.2,759.839,3230.488,774.062,3225.67Z" transform="translate(-441.503 -3090.846)" fill="#b77141"/>
    <path id="Path_668" data-name="Path 668" d="M580.123,3565.724c-7.892-1.637-16.587-3.131-25.113-5.293-9.683-2.455-19.356-5.018-28.691-8.7A212.509,212.509,0,0,1,490.4,3532.99c-1.071-.68-2.485-1.589-1.636-3.134.788-1.435,2.49-.966,3.592-.576,7.867,2.779,16.042,4.12,24.221,5.476,14.141,2.344,28.287,4.657,42.422,7.039a152.769,152.769,0,0,0,22.768,2.233c14.3.246,28.284-2.513,42.285-4.889,10.11-1.715,20.141-3.9,30.215-5.831,1.368-.263,3.117-.937,3.912.7.888,1.829-.737,2.842-2,3.779a129.186,129.186,0,0,1-43.617,21.434c-9.152,2.45-18.453,4.159-27.718,6.06C583.562,3565.547,582.224,3565.537,580.123,3565.724Z" transform="translate(-391.431 -3164.404)" fill="#19b5b8"/>
    <path id="Path_669" data-name="Path 669" d="M506.031,3537.8c64.018,28.511,112.044,16.66,162.058-7.681-36.587,4.894-73.754,15.478-111.094,8.725C532.274,3537.114,445.861,3511,506.031,3537.8Z" transform="translate(-390.831 -3163.851)" fill="#138481"/>
    <path id="Path_670" data-name="Path 670" d="M767.783,3540.609c-12.8.2-24.257-5.5-35.356-12.264-1.454-.885-3.029-1.584-4.434-2.536-2.08-1.41-2.671-3.708-.158-4.575,9.931-3.427,19.1-8.83,29.288-11.452,7.069-1.821,13.116,2.014,18.905,5.269,6.977,3.923,13.26,8.948,19.45,14.033,1.292,1.063,3.128,2.045,2.773,3.986-.382,2.094-2.522,2.6-4.242,3.106C785.665,3538.631,777.235,3540.677,767.783,3540.609Z" transform="translate(-433.754 -3160.92)" fill="#18b6b9"/>
    <path id="Path_671" data-name="Path 671" d="M793.989,3526.829A121.36,121.36,0,0,0,777.3,3515.05c-5.789-3.255-11.837-7.091-18.905-5.269-8.724,2.247-16.708,6.531-25.061,9.868C753.074,3525.281,773.519,3527.028,793.989,3526.829Z" transform="translate(-435.028 -3160.92)" fill="#138481"/>
    <path id="Path_672" data-name="Path 672" d="M415.224,3539.714c-8.163.343-16.369-2.234-24.615-4.378-4.247-1.1-4.655-3.55-1.1-6.245,8.966-6.787,17.649-13.989,28.291-18.277,5.174-2.086,9.949-2.758,15.1-.075a187.553,187.553,0,0,0,22.353,9.707c4.5,1.644,4.526,3.173.659,6.031A69.086,69.086,0,0,1,415.224,3539.714Z" transform="translate(-373.375 -3160.86)" fill="#18b6b9"/>
    <path id="Path_673" data-name="Path 673" d="M451.876,3519.178a180.39,180.39,0,0,1-18.972-8.439c-5.15-2.683-9.926-2.011-15.1.075-10.641,4.288-19.324,11.489-28.291,18.277-1.788,1.354-2.573,2.644-2.375,3.734C409.192,3532.766,430.988,3525.758,451.876,3519.178Z" transform="translate(-373.375 -3160.86)" fill="#138481"/>
    <path id="Path_674" data-name="Path 674" d="M426.148,3123.526a5.146,5.146,0,0,1-.072-5.578Q426.111,3120.737,426.148,3123.526Z" transform="translate(-380.174 -3091.229)" fill="#555658"/>
    <path id="Path_675" data-name="Path 675" d="M586.582,3501.212c-11.332-.377-20.221-7.589-23.65-19.821a79.348,79.348,0,0,0-7.921-19.282,6.712,6.712,0,0,0-4.354-3.447c-9.871-2.857-18.135-7.73-21.646-18.243-1.229-3.68-.647-6.257,2.2-7.3,3.418-1.255,5.831.277,6.762,3.489,4.007,13.828,28.523,17.8,39.313,8.906a14.221,14.221,0,0,0,4.879-6.994,5.194,5.194,0,0,1,5.081-4.175c2.929-.161,4.348,1.571,5.2,3.96,2.261,6.34,7.111,9.694,13.3,11.18a30.663,30.663,0,0,0,24.289-3.914,13.529,13.529,0,0,0,5.757-6.812,14.522,14.522,0,0,1,1.671-3.553c1.534-2.116,3.647-3.165,6.189-1.912,2.634,1.3,3.309,3.476,2.4,6.3-3.349,10.416-11.033,16.106-21.082,18.83-3.227.875-4.672,2.761-6.164,5.334-3.944,6.8-5.6,14.449-8.344,21.693C606.079,3497.036,595.219,3500.848,586.582,3501.212Zm-6.474-43.673c-3.15-.023-1.37,1.6-4.473,2.039-1.67.236-4.94,1.669-3.466,4.6,2.69,5.347.548,7.283,2.133,12.9,1.9,6.744,4.148,13.037,11.219,12.475,1.1-.088,3.674,3.241,3.9,1.849,8.7-1.913,13.037-7.708,14.416-16.155.4-2.462.907-4.912,1.239-7.385.986-7.349.607-7.974-6.238-10.84-.728-.3-1.493-.525-2.215-.842-4.932-2.172-5.567-1.833-5.8,3.615-.2,4.732.394,9.481-.376,14.211-.331,2.039-.968,3.7-3.368,3.473-2.206-.206-2.515-1.873-2.5-3.76.05-4.874-.03-9.749.026-14.622C584.647,3455.882,583.877,3456.391,580.109,3457.539Z" transform="translate(-398.536 -3147.273)"/>
    <path id="Path_676" data-name="Path 676" d="M594.194,3389.16c7.318.138,12.207,1.318,16.446,4.622,8.148,6.353,7.867,15.265-.7,21.178-8.975,6.2-23.954,4.919-31.445-2.68-5.168-5.243-4.957-12.52.589-17.373A23.272,23.272,0,0,1,594.194,3389.16Z" transform="translate(-406.792 -3139.524)"/>
    <path id="Path_677" data-name="Path 677" d="M588.893,3459.77c3.768-1.147,4.646.878,4.609,4.092-.055,4.873.025,9.748-.026,14.622-.02,1.887.289,3.554,2.5,3.76,2.4.224,3.037-1.434,3.368-3.474.769-4.73.172-9.479.376-14.211.234-5.448.869-5.787,5.8-3.615.722.317,1.487.537,2.215.842,6.845,2.866,7.225,3.491,6.239,10.84-.332,2.473-.838,4.922-1.24,7.385-1.379,8.447-5.719,15.286-14.416,17.2-8.552.71-14.752-5.31-17.1-12.717a57.88,57.88,0,0,1-2.875-16.649c-.038-2.468.534-3.853,3.171-4.524S586.859,3461.831,588.893,3459.77Z" transform="translate(-407.428 -3152.04)" fill="#e4333a"/>
    <path id="Path_678" data-name="Path 678" d="M581.417,3485.057a27.654,27.654,0,0,1,12.059-6.6c.05-4.864-.03-9.73.026-14.595.036-3.215-.84-5.24-4.609-4.092-2.034,2.061-4.753,2.881-7.382,3.55s-3.209,2.056-3.171,4.524a57.873,57.873,0,0,0,2.875,16.649C581.276,3484.685,581.351,3484.869,581.417,3485.057Z" transform="translate(-407.428 -3152.04)" fill="#ba2530"/>
    <path id="Path_679" data-name="Path 679" d="M604.01,3478.058c4.593.338,8.72,2.2,12.8,4.384.191-.769.362-1.556.5-2.377.4-2.463.907-4.912,1.239-7.385.987-7.349.607-7.974-6.239-10.84-.728-.3-1.493-.525-2.215-.843-4.932-2.172-5.567-1.832-5.8,3.616C604.095,3469.091,604.6,3473.583,604.01,3478.058Z" transform="translate(-411.999 -3152.094)" fill="#a81e2f"/>
    <path id="Path_680" data-name="Path 680" d="M785.815,3142.978c-.634-13-2.152-25.907-5.68-38.57-3.834-13.758-21.157-21.318-31.425-18.312-5.537,1.622-10.05,5.066-14.4,8.626a249.778,249.778,0,0,0-40.807,42.666c-6.842,9.014-13.263,18.357-19.608,27.732a5.712,5.712,0,0,1-.888.981c2.055,1.192,4.049,2.492,6.036,3.874.518-.832,1.3-1.864,2.349-3.25,7.768-10.237,14.668-21.077,22.692-31.142a216.1,216.1,0,0,1,41.373-40.093c6.757-4.954,20.211-2.491,23.536,4.355.92.725,2.513,3.712,3.029,4.841,4.671,10.24,4.315,21.356,5.321,32.128,1.3,13.887,1.175,27.9.934,41.862-.26,15.124.368,30.293-2.162,45.324-1.322,7.853-3.813,15.015-10.031,20.432-2.937,2.56-3.432,2.7-4.933-.776-1.874-4.343-3.838-9.6-6.258-13.625-2.493-4.139-1.915-6.163,1.69-9.454,4.955-4.523,3.782-11.374-2.614-13.329a16.518,16.518,0,0,0-3.6-.623c-2.518-.16-2.9-1.169-1.4-3.18a26.852,26.852,0,0,0,3.444-5.527c2.453-5.707-.406-10.418-6.652-10.717-5.268-.252-10.374,1.062-15.242,2.779-3.543,1.249-4.032.252-3.136-3.377,1.573-6.368,3.247-12.093,5.3-18.314,5.872-17.784,14.265-34.7,23.907-50.7,1.375-2.635,1.228-4.512-.813-6.069-2.911-1.724-6.284.432-7.967,3.945-1.295,2.7-2.994,5.206-4.509,7.8a220.215,220.215,0,0,0-20.156,46.542c-2.556,8.3-4.921,16.6-6.065,25.243-.916,6.922,2.927,8.859,8.292,6.143,4.2-2.123,8.874-3.3,13.35-4.858,1.124-.392,2.521-.834,3.3.295,1.011,1.474-.46,2.381-1.334,3.282-2.475,2.552-4.94,5.119-7.527,7.554a3.861,3.861,0,0,0-1.04,4.927,4.221,4.221,0,0,0,4.295,2.815q4.346-.074,8.694-.048c.926,0,1.972.069,2.4,1.036.456,1.022-.35,1.6-1.033,2.287-3.716,3.713-4.191,5.927-1.71,10.474a199.779,199.779,0,0,1,9.834,20.452l15.161-.706a9.006,9.006,0,0,1,2.5.346c4.809-5.2,8.594-11.106,10.388-18.18a121.648,121.648,0,0,0,3.234-25.015C786.72,3184.893,786.835,3163.919,785.815,3142.978Z" transform="translate(-424.284 -3085.441)"/>
    <g id="Group_545" data-name="Group 545" transform="translate(32.741 235.651)">
      <path id="Path_681" data-name="Path 681" d="M721.142,3388.313c1.608,18.652,1.414,36.377-1.927,54.893-3.316,18.369-15.947,30.083-31.939,38.31-12.494,6.427-26.1,9.839-39.6,13.345a462.157,462.157,0,0,1-73.775,13.025c-8.579.791-17.115-.633-25.55-1.923-18.327-2.8-36.741-5.355-54.827-9.339-18.583-4.092-37.381-8.224-53.649-19.069-12.716-8.477-22.472-19.416-25.248-34.828-2.22-12.332-1.84-24.939-.845-37.435.367-4.61.355-9.21.519-13.813.061-1.712-.067-3.439.795-5.017,6.423-3.577,13.492-4.743,20.655-5.657,11.158-1.425,22.286-.051,33.425.188,2.319.846,4.734.593,7.124.626a3.1,3.1,0,0,0,2.352.354,7.766,7.766,0,0,0,3.981.607l1.451.305,2.529.253a4.457,4.457,0,0,0,3.108.995c.384.677.981.643,1.614.482l5.538,2.6a58.349,58.349,0,0,0,10.037,4.526,1.827,1.827,0,0,0,1.84.7,2.1,2.1,0,0,0,2.238.439c1.613,1.063-.986,3.735,1.692,3.156,1.543.317,4.766-1.132,5.084-2.848,6.007-9.454,15.522-16.545,26.492-18.77a107.252,107.252,0,0,1,36.807-1.221c13.287,1.908,27.845,7.9,35.14,20.03,1.908,3.172.94,3.878,3.669.677,7.085-2.416,13.482-6.435,20.474-9,8.451-3.094,17.452-3.529,26.342-4.176C684.554,3379.428,704.471,3379.921,721.142,3388.313Zm-155.111,102.12c8.637-.364,19.5-4.177,23.884-15.768,2.741-7.244,4.4-14.889,8.344-21.694,1.492-2.572,2.937-4.458,6.164-5.333,10.049-2.724,17.733-8.415,21.082-18.83.907-2.821.232-5-2.4-6.3-2.542-1.253-4.655-.2-6.189,1.913a14.5,14.5,0,0,0-1.671,3.553,13.534,13.534,0,0,1-5.757,6.813A30.66,30.66,0,0,1,585.2,3438.7c-6.189-1.485-11.039-4.841-13.3-11.18-.851-2.389-2.271-4.121-5.2-3.959a5.193,5.193,0,0,0-5.081,4.175,14.22,14.22,0,0,1-4.879,6.994c-10.789,8.89-35.306,4.922-39.313-8.907-.931-3.211-3.344-4.743-6.762-3.488-2.848,1.046-3.43,3.622-2.2,7.3,3.511,10.514,11.775,15.386,21.646,18.244a6.707,6.707,0,0,1,4.354,3.447,79.352,79.352,0,0,1,7.921,19.282C545.81,3482.844,554.7,3490.056,566.031,3490.433Zm-88.9-70.231c.737-11.873-10.667-22.017-22.561-21.9-13.162.136-22.324,9.966-22.431,21.07-.149,15.577,8.983,23.263,21.936,24.045A21.992,21.992,0,0,0,477.13,3420.2Zm180.317.766c-.685,12.964,10.311,22.06,22.4,22.407,11.414.328,23.253-10.621,22.877-22.256-.4-12.284-10.2-22.486-21.9-22.989C667.808,3397.569,656.423,3409.294,657.448,3420.968Zm-92.062-34.838a23.273,23.273,0,0,0-15.108,5.747c-5.546,4.853-5.757,12.13-.589,17.373,7.49,7.6,22.469,8.875,31.445,2.68,8.565-5.913,8.846-14.825.7-21.178C577.593,3387.448,572.7,3386.268,565.386,3386.13Z" transform="translate(-410.725 -3372.145)" fill="#f2f3f2"/>
      <path id="Path_682" data-name="Path 682" d="M512.188,3397.326c-3.93-3.6-12.913-17.911-55.2-17.912-40.051,0-46.755,12.345-46.755,12.345" transform="translate(-410.234 -3373.439)" fill="#f2f3f2"/>
      <path id="Path_683" data-name="Path 683" d="M768.37,3390.7s-6.7-11.289-46.755-11.289c-42.286,0-53.379,14.317-57.309,17.912" transform="translate(-455.477 -3373.439)" fill="#f2f3f2"/>
    </g>
    <path id="Path_684" data-name="Path 684" d="M642.493,3398.028a3.192,3.192,0,0,1-2.359-1.037,104.124,104.124,0,0,0-18.574-16.265c-22.535-14.82-52.146-9.5-65.516-2.669a49.387,49.387,0,0,0-19.124,17.4,3.2,3.2,0,1,1-5.574-3.14,55.431,55.431,0,0,1,21.786-19.953c9.125-4.664,21.269-7.405,33.319-7.524,10.146-.1,25.1,1.648,38.624,10.545a110.605,110.605,0,0,1,19.775,17.287,3.2,3.2,0,0,1-2.357,5.36Z" transform="translate(-398.986 -3135.192)"/>
    <path id="Path_685" data-name="Path 685" d="M512.289,3207.2" transform="translate(-395.666 -3107.122)" fill="#666768"/>
    <path id="Path_686" data-name="Path 686" d="M656.788,3204.771a3.585,3.585,0,0,1-1.874-.529c-30.348-18.552-64.222-24.224-100.677-16.855-27.355,5.529-45.968,16.744-46.153,16.857a3.6,3.6,0,0,1-3.752-6.142c.791-.483,19.69-11.9,48.215-17.716,26.394-5.378,66.23-6.67,106.121,17.716a3.6,3.6,0,0,1-1.881,6.67Z" transform="translate(-393.943 -3101.774)"/>
    <path id="Path_687" data-name="Path 687" d="M653.1,3214.863c-25.934-15.865-88.47-26.241-136.173,0S688.545,3236.545,653.1,3214.863Z" transform="translate(-395.278 -3105.634)" fill="#575859"/>
    <path id="Path_688" data-name="Path 688" d="M714.774,3467.105c-62.551,62.068-216.549,55.465-286.638,6.3-38.838-27.243,12.248,43.4,87.61,49.01,51.164,13.133,85.34,9.286,136.083-6.514,13.5-3.5,23.267-4.256,35.761-10.683C704.651,3504.209,733.494,3452.668,714.774,3467.105Z" transform="translate(-378.307 -3152.95)" fill="#cecece"/>
    <path id="Path_689" data-name="Path 689" d="M669.2,3461.057c1.266.7,2.574,1.333,3.822,2.067a64.509,64.509,0,0,0,26.021,8.339c16.129,1.776,31.159-3.409,46.348-7.433,3.982-1.054,4.535-4.831,1.411-7.476-2.111-1.787-4.231-3.573-6.454-5.215-10.968-8.105-21.069-17.538-34.285-22.2-5.678-2-5.715-2.9-1.517-7.308,6.81-7.157,12.029-15.366,14.2-25.08,3.995-17.854,1.717-35.909,1.187-53.9-.124-4.206-.237-8.42-.6-12.609-1.185-13.751-2.728-27.476-3.651-41.242a193.292,193.292,0,0,0-3.722-28.9c-.6-2.706-.176-4.621,2.077-6.561,8.329-7.175,14.01-16.113,15.84-27.036,2.223-13.267,2.521-26.728,2.773-40.137a449.974,449.974,0,0,0-1.268-48.928c-1.025-11.355-2.042-22.663-5.343-33.769-4.08-13.725-25.9-24.257-39.068-14.284a240.76,240.76,0,0,0-50.529,52.248q-8.845,12.353-17.469,24.864c-.255.369-3.141,5.376-3.408,5.667,1.492,1.233,2.986,2.469,4.55,3.636.855.414,1.71.826,2.559,1.249-.334-1.008,2.852-6.831,4.221-8.691,7.628-10.357,14.653-21.145,22.664-31.234,11.951-15.05,25.212-28.739,40.551-40.371,8.011-6.074,20.645-4.187,25.888,4.119,3.943,2.662,4.907,6.355,5.214,11.118.347,5.37,1.2,10.717,1.964,16.014,2.093,14.568,1.4,29.195,1.7,43.784.3,14.357.209,28.768-.722,43.088-.71,10.919-3.028,21.7-11.925,29.609-3,2.669-3.488,2.553-5.131-1.194q-.684-1.564-1.385-3.122a8.075,8.075,0,0,1-7.655,3.075c.193.4.458,1.293.654,1.7,5.412,11.17,7.757,22.939,9.066,35.169,1.424,13.309,2.5,26.639,3.6,39.973.376,4.581.654,9.17.952,13.756.058.895,2.642,39.794-.7,58.311-3.315,18.368-15.946,30.082-31.939,38.309-12.494,6.426-26.1,9.839-39.6,13.344a462.131,462.131,0,0,1-73.775,13.025c-8.579.791-17.115-.632-25.55-1.922-18.327-2.8-36.741-5.355-54.827-9.339-18.583-4.092-37.381-8.225-53.649-19.069-12.716-8.477-22.472-19.416-25.248-34.828-2.22-12.331-1.84-24.939-.845-37.435.367-4.61.355-9.21.519-13.814.061-1.713,1.969-33.753,3.325-46.421,1.392-13.02.991-26.319,5.966-38.834,3.54-8.9,6.95-17.838,11.554-26.277,2.481-4.546,2.005-6.759-1.71-10.47-.682-.683-1.488-1.264-1.032-2.287.431-.967,1.477-1.031,2.4-1.036q4.346-.019,8.691.048a4.218,4.218,0,0,0,4.293-2.815,3.858,3.858,0,0,0-1.04-4.924c-2.586-2.434-5.05-5-7.524-7.552-.874-.9-2.344-1.807-1.333-3.279.775-1.131,2.172-.688,3.3-.3,4.475,1.559,9.15,2.734,13.345,4.856,5.363,2.715,9.2.779,8.288-6.141-1.143-8.635-3.507-16.939-6.062-25.232a220.16,220.16,0,0,0-20.149-46.525c-1.516-2.593-3.214-5.1-4.507-7.8-1.682-3.511-4.272-4.724-7.964-3.942a1.727,1.727,0,0,0-.252.656c-.786,1.492-1.392,2.1.072,5.578,9.639,16,18.121,32.57,23.991,50.348,2.052,6.218,3.534,12.631,5.106,19,.9,3.628-.027,4.431-3.57,3.183-4.866-1.717-9.726-3.1-14.991-2.851-6.243.3-9.2,4.8-6.746,10.506a28.285,28.285,0,0,0,3.678,5.581c1.5,2.01.946,3.1-1.572,3.263a12.991,12.991,0,0,0-3.483.473c-6.247,2.217-7.854,8.505-2.9,13.027,3.6,3.29,4.008,5.985,1.516,10.124-2.42,4.018-3.981,8.559-5.854,12.9-1.5,3.477-2.37,3.64-5.306,1.08-6.215-5.416-8.705-12.574-10.027-20.426-2.528-15.025-1.9-30.188-2.162-45.306-.24-13.958-.362-27.965.935-41.846,1.006-10.766.65-21.879,5.319-32.115a6.8,6.8,0,0,1,1.973-2.729c3.323-6.844,17.827-11.413,24.582-6.462a216.063,216.063,0,0,1,41.357,40.077c8.02,10.062,14.918,20.9,22.683,31.131,2.259,2.978,5.785,8.614,5.519,9.759,2.776-1.236,5.644-2.544,8.576-3.681-1.559-.431-5.322-5.792-6.6-7.681-6.343-9.372-12.762-18.71-19.6-27.721a249.811,249.811,0,0,0-40.792-42.65c-4.353-3.559-8.865-7-14.4-8.622-10.264-3.005-27.581,4.552-31.413,18.3-3.528,12.658-5.045,25.564-5.678,38.556-1.021,20.933-.907,41.9-.058,62.844a121.543,121.543,0,0,0,3.233,25c2.338,9.22,8.052,16.455,15.018,22.733,1.65,1.486,2.864,2.974,2.207,5.445a129.054,129.054,0,0,0-2.69,15.507c-1.975,14.216-2.536,28.551-4.011,42.805-1.53,14.792-1.865,29.708-2.647,44.574a158.285,158.285,0,0,0,.99,28.423c1.605,12.542,7.573,23.1,16.174,32.251,2.586,2.75,2.534,4.195-.461,5.317-15.991,5.992-28.27,17.524-41.52,27.612-1.674,1.275-2.718,2.844-2.232,5.08.5,2.318,2.4,3.016,4.313,3.51,6.222,1.6,12.456,3.166,18.712,4.637,9.894,2.327,19.808,3.758,30.035,1.97a70.752,70.752,0,0,0,23.889-8.779c1.5-.88,15.89-2.371,20.38.529,10.943,7.066,22.238,13.4,34.476,17.98a208,208,0,0,0,29.682,9.041c6.923,1.471,13.793,4.071,20.741,4.483,5.767.341,10.589.739,15.894-.259,14.851-2.791,29.6-5.874,43.563-11.928a141.181,141.181,0,0,0,32.468-19.825C653.508,3454.795,668.375,3460.6,669.2,3461.057Zm-216.254-10a69.093,69.093,0,0,1-40.692,13.238c-8.163.343-16.369-2.234-24.615-4.379-4.247-1.1-4.655-3.55-1.1-6.245,8.966-6.788,17.649-13.989,28.291-18.276,5.174-2.086,9.949-2.759,15.1-.075a187.619,187.619,0,0,0,22.353,9.706C456.783,3446.67,456.807,3448.2,452.942,3451.057Zm182.2,7.77a129.184,129.184,0,0,1-43.616,21.435c-9.152,2.449-18.453,4.16-27.718,6.059-1.282.263-2.62.254-4.72.44-7.892-1.637-16.587-3.131-25.113-5.293-9.683-2.456-19.356-5.019-28.691-8.7a212.469,212.469,0,0,1-35.915-18.738c-1.071-.681-2.485-1.589-1.636-3.134.788-1.435,2.491-.966,3.592-.577,7.867,2.779,16.042,4.12,24.221,5.476,14.141,2.345,28.288,4.658,42.422,7.04a152.9,152.9,0,0,0,22.768,2.233c14.3.245,28.284-2.514,42.285-4.89,10.11-1.716,20.141-3.9,30.215-5.831,1.368-.263,3.117-.936,3.911.7C638.039,3456.877,636.415,3457.889,635.146,3458.827Zm29.335-13.073c9.93-3.427,19.1-8.829,29.288-11.451,7.069-1.822,13.116,2.014,18.905,5.27,6.977,3.922,13.26,8.947,19.45,14.033,1.292,1.061,3.128,2.044,2.773,3.986-.382,2.093-2.522,2.6-4.242,3.1-8.344,2.458-16.774,4.5-26.226,4.435-12.8.2-24.257-5.5-35.356-12.264-1.454-.885-3.029-1.584-4.434-2.536C662.559,3448.92,661.968,3446.621,664.481,3445.754Z" transform="translate(-370.4 -3085.441)"/>
  </g>
</svg>
